<svg  height="50" viewBox="0 0 51 51" fill="none" xmlns="http://www.w3.org/2000/svg">
<circle cx="25.5" cy="25.5" r="25.5" fill="#2FB7B8"/>
<path d="M16.5781 26.9115V23.0507H18.7843C18.9347 20.0924 19.7871 17.8862 21.191 16.3319C22.6451 14.7775 24.6507 14.0254 27.258 14.0254H28.0101C30.2163 14.0254 32.0715 14.6271 33.4253 15.8304L30.6676 18.4879C29.9656 18.0868 29.0631 17.8862 27.96 17.8862H27.2079C26.4057 17.8862 25.7538 17.9865 25.2023 18.1369C24.6507 18.3375 24.1493 18.5882 23.7983 18.9893C23.3972 19.3904 23.1465 19.942 22.946 20.5938C22.7454 21.2456 22.6451 22.0479 22.595 23.0507H29.5144V26.9115H22.6451V32.4269H33.4755V36.3379H16.6283V32.4269H18.7342V26.9115H16.5781Z" fill="white"/>
</svg>
