<svg width="43" height="43" viewBox="0 0 43 43" fill="none" xmlns="http://www.w3.org/2000/svg">
<path d="M32.1324 7.74609H10.8515C8.89265 7.74609 7.30469 9.33406 7.30469 11.2929V32.5738C7.30469 34.5326 8.89265 36.1206 10.8515 36.1206H32.1324C34.0912 36.1206 35.6792 34.5326 35.6792 32.5738V11.2929C35.6792 9.33406 34.0912 7.74609 32.1324 7.74609Z" stroke="#9747FF" stroke-width="3" stroke-linecap="round" stroke-linejoin="round"/>
<path d="M26.8143 16.6133H16.1738V27.2537H26.8143V16.6133Z" stroke="#9747FF" stroke-width="3" stroke-linecap="round" stroke-linejoin="round"/>
<path d="M16.1738 2.42578V7.746" stroke="#9747FF" stroke-width="3" stroke-linecap="round" stroke-linejoin="round"/>
<path d="M26.8125 2.42578V7.746" stroke="#9747FF" stroke-width="3" stroke-linecap="round" stroke-linejoin="round"/>
<path d="M16.1738 36.1206V41.4408" stroke="#9747FF" stroke-width="3" stroke-linecap="round" stroke-linejoin="round"/>
<path d="M26.8125 36.1206V41.4408" stroke="#9747FF" stroke-width="3" stroke-linecap="round" stroke-linejoin="round"/>
<path d="M35.6797 16.6133H40.9999" stroke="#9747FF" stroke-width="3" stroke-linecap="round" stroke-linejoin="round"/>
<path d="M35.6797 25.4805H40.9999" stroke="#9747FF" stroke-width="3" stroke-linecap="round" stroke-linejoin="round"/>
<path d="M1.98438 16.6133H7.3046" stroke="#9747FF" stroke-width="3" stroke-linecap="round" stroke-linejoin="round"/>
<path d="M1.98438 25.4805H7.3046" stroke="#9747FF" stroke-width="3" stroke-linecap="round" stroke-linejoin="round"/>
</svg>
