<svg width="473" height="333" viewBox="0 0 473 333" fill="none" xmlns="http://www.w3.org/2000/svg">
<path d="M0 36.9746C0 17.0924 16.1178 0.974609 36 0.974609H437C456.882 0.974609 473 17.0924 473 36.9746V296.975C473 316.857 456.882 332.975 437 332.975H36C16.1178 332.975 0 316.857 0 296.975V36.9746Z" fill="white" fill-opacity="0.06"/>
<path d="M436 29.9746C436 26.1086 432.866 22.9746 429 22.9746H42C38.134 22.9746 35 26.1086 35 29.9746C35 33.8406 38.134 36.9746 42 36.9746H429C432.866 36.9746 436 33.8406 436 29.9746Z" fill="#28282E"/>
<path d="M62.0837 30.1398C62.0837 31.7692 63.4046 33.0901 65.0341 33.0901C66.6635 33.0901 67.9844 31.7692 67.9844 30.1398C67.9844 28.5104 66.6635 27.1895 65.0341 27.1895C63.4046 27.1895 62.0837 28.5104 62.0837 30.1398Z" fill="#3FCA90"/>
<path d="M51.1384 30.1398C51.1384 31.7692 52.4593 33.0901 54.0887 33.0901C55.7182 33.0901 57.0391 31.7692 57.0391 30.1398C57.0391 28.5104 55.7182 27.1895 54.0887 27.1895C52.4593 27.1895 51.1384 28.5104 51.1384 30.1398Z" fill="#FFE073"/>
<path d="M40.1853 30.1398C40.1853 31.7692 41.5062 33.0901 43.1356 33.0901C44.765 33.0901 46.0859 31.7692 46.0859 30.1398C46.0859 28.5104 44.765 27.1895 43.1356 27.1895C41.5062 27.1895 40.1853 28.5104 40.1853 30.1398Z" fill="#ED5050"/>
<path d="M150.709 81.8037C129.069 101.014 115.931 128.021 114.173 156.904C112.89 179.879 120.449 204.985 139.588 217.758C149.134 224.118 161.662 227.87 166.388 238.317C170.94 248.417 165.928 260.159 166.799 271.202C167.67 282.245 174.555 292.125 183.576 298.496C192.596 304.868 203.496 308.042 214.408 309.623C255.628 315.625 298.452 299.708 329.201 271.607C353.876 249.062 371.56 218.581 377.132 185.625C382.704 152.668 375.736 117.445 356.591 90.0487C343.12 70.7784 310.39 51.001 287.057 48.0776C207.219 38.0785 171.447 63.5834 150.709 81.8037Z" fill="#263238"/>
<path opacity="0.7" d="M377.132 185.625C371.56 218.581 353.876 249.062 329.201 271.607C311.339 287.954 289.844 299.815 266.492 306.211C252.372 310.071 237.705 311.539 223.101 310.554C220.201 310.343 217.304 310.029 214.408 309.611C203.496 308.018 192.578 304.838 183.576 298.484C174.573 292.131 167.67 282.185 166.799 271.19C165.928 260.194 170.934 248.406 166.388 238.305C161.68 227.858 149.116 224.106 139.588 217.746C120.449 204.973 112.89 179.868 114.173 156.892C115.934 128.014 129.072 101.011 150.709 81.8037C171.447 63.5834 207.219 38.0785 287.057 48.0776C310.39 51.001 343.138 70.7784 356.591 90.0487C375.736 117.445 382.704 152.674 377.132 185.625Z" fill="#263238"/>
<path d="M110.905 79.9629C104.209 79.9629 97.6645 81.9401 92.0976 85.6445C86.5307 89.3489 82.1918 94.614 79.6296 100.774C77.0674 106.934 76.397 113.713 77.7032 120.252C79.0094 126.792 82.2335 132.799 86.9678 137.514C91.7021 142.229 97.7339 145.439 104.301 146.74C110.867 148.041 117.674 147.373 123.859 144.822C130.045 142.27 135.332 137.949 139.052 132.405C142.771 126.861 144.757 120.343 144.757 113.675C144.757 104.734 141.19 96.1594 134.842 89.8371C128.493 83.5147 119.883 79.9629 110.905 79.9629ZM110.905 129.392C107.778 129.392 104.722 128.468 102.123 126.739C99.5234 125.009 97.4975 122.55 96.3015 119.673C95.1054 116.796 94.7929 113.631 95.4034 110.578C96.0139 107.524 97.5201 104.719 99.7313 102.518C101.943 100.317 104.76 98.8187 107.826 98.2123C110.893 97.6058 114.071 97.9187 116.959 99.1113C119.847 100.304 122.315 102.323 124.051 104.912C125.786 107.502 126.712 110.546 126.71 113.659C126.706 117.83 125.039 121.829 122.075 124.776C119.111 127.724 115.093 129.378 110.905 129.376V129.392Z" fill="#D0D0D0"/>
<path d="M91.6089 92.6532C91.5718 92.5933 91.5572 92.5223 91.5678 92.4528C91.5784 92.3832 91.6134 92.3197 91.6666 92.2734C91.7198 92.2272 91.7878 92.2012 91.8584 92.2002C91.929 92.1992 91.9977 92.2232 92.0522 92.2679L97.2751 98.1515C97.3302 98.2071 97.3611 98.2821 97.3611 98.3602C97.3611 98.4383 97.3302 98.5133 97.2751 98.5689C97.2481 98.5959 97.2161 98.6172 97.1808 98.6318C97.1456 98.6464 97.1077 98.6539 97.0695 98.6539C97.0314 98.6539 96.9935 98.6464 96.9583 98.6318C96.923 98.6172 96.891 98.5959 96.864 98.5689L91.6089 92.6532Z" fill="black"/>
<path d="M99.5576 96.5457H99.5173C99.4486 96.5733 99.372 96.5737 99.3031 96.5468C99.2341 96.52 99.1781 96.4679 99.1465 96.4013L95.7291 89.3297C95.6953 89.2615 95.69 89.1828 95.7141 89.1106C95.7382 89.0385 95.79 88.9788 95.858 88.9444L97.2605 88.2701C98.2648 87.8394 99.3974 87.8117 100.422 88.193C101.446 88.5743 102.283 89.335 102.757 90.3161C103.232 91.2973 103.307 92.4231 102.968 93.4584C102.628 94.4936 101.9 95.3582 100.936 95.8715L99.5576 96.5457ZM100.71 95.3337C101.566 94.9069 102.219 94.1619 102.527 93.2597C102.836 92.3575 102.776 91.3705 102.36 90.5122C101.944 89.6538 101.205 88.993 100.304 88.6726C99.4022 88.3522 98.4104 88.3979 97.5426 88.7999L96.39 89.3537L99.5495 95.8875L100.71 95.3337Z" fill="black"/>
<path d="M105.102 85.6938C105.093 85.6183 105.114 85.5423 105.16 85.4822C105.207 85.4221 105.276 85.3828 105.352 85.3728L109.688 84.843C109.764 84.8361 109.841 84.859 109.901 84.9069C109.961 84.9547 110 85.0239 110.01 85.0999C110.016 85.1385 110.014 85.1778 110.004 85.2155C109.994 85.2532 109.976 85.2885 109.952 85.3192C109.928 85.35 109.898 85.3756 109.863 85.3944C109.829 85.4133 109.791 85.425 109.752 85.429L105.722 85.9186L106.125 89.2336L109.688 88.8002C109.727 88.7958 109.766 88.7992 109.803 88.8102C109.841 88.8212 109.875 88.8397 109.906 88.8644C109.936 88.8891 109.96 88.9196 109.978 88.9541C109.996 88.9886 110.007 89.0263 110.01 89.0651C110.016 89.1026 110.014 89.1409 110.004 89.1777C109.995 89.2144 109.978 89.2488 109.954 89.2788C109.931 89.3088 109.902 89.3338 109.868 89.3523C109.835 89.3707 109.798 89.3822 109.76 89.3862L106.246 89.8196L106.649 93.1186L110.679 92.629C110.718 92.6233 110.758 92.6259 110.796 92.6364C110.834 92.647 110.869 92.6653 110.899 92.6903C110.93 92.7152 110.955 92.7462 110.972 92.7813C110.99 92.8164 111 92.8547 111.002 92.8939C111.011 92.9694 110.99 93.0454 110.943 93.1055C110.896 93.1656 110.827 93.2049 110.752 93.2149L106.464 93.7367H106.407C106.335 93.7396 106.263 93.7159 106.207 93.6701C106.151 93.6242 106.113 93.5594 106.101 93.4878L105.102 85.6938Z" fill="black"/>
<path d="M117.569 92.0672L113.797 91.2645L112.644 93.0545C112.612 93.1037 112.565 93.1422 112.511 93.1651C112.456 93.188 112.396 93.1942 112.338 93.1829H112.233C112.168 93.1374 112.123 93.069 112.106 92.9916C112.09 92.9141 112.104 92.8333 112.145 92.7655L116.658 85.734C116.695 85.6857 116.745 85.6487 116.802 85.6274C116.859 85.6061 116.921 85.6013 116.981 85.6136C117.041 85.6242 117.096 85.653 117.14 85.6961C117.183 85.7392 117.212 85.7944 117.222 85.8544L118.464 94.0578C118.471 94.0952 118.47 94.1337 118.462 94.1709C118.454 94.2081 118.439 94.2434 118.417 94.2748C118.395 94.3061 118.368 94.3328 118.335 94.3534C118.303 94.3741 118.267 94.3882 118.23 94.3949H118.117C118.059 94.3799 118.007 94.3484 117.967 94.3042C117.927 94.2599 117.9 94.205 117.891 94.1461L117.569 92.0672ZM114.135 90.7347L117.48 91.4411L116.763 86.625L114.135 90.7347Z" fill="black"/>
<path d="M117.409 81.3595H104.4L105.118 72.1929H116.692L117.409 81.3595Z" fill="#D0D0D0"/>
<path d="M92.6406 85.7261L83.4442 94.8926L77.4395 87.9013L85.6204 79.7461L92.6406 85.7261Z" fill="#D0D0D0"/>
<path d="M78.2299 106.258V119.214L69.0254 118.499V106.973L78.2299 106.258Z" fill="#D0D0D0"/>
<path d="M82.6141 130.917L91.8186 140.084L84.7983 146.064L76.6094 137.916L82.6141 130.917Z" fill="#D0D0D0"/>
<path d="M103.223 145.276H116.24L115.522 154.443H103.948L103.223 145.276Z" fill="#D0D0D0"/>
<path d="M127.994 140.91L137.199 131.744L143.203 138.735L135.014 146.89L127.994 140.91Z" fill="#D0D0D0"/>
<path d="M142.402 120.378V107.422L151.615 108.137V119.663L142.402 120.378Z" fill="#D0D0D0"/>
<path d="M138.027 95.7113L128.822 86.5527L135.843 80.5728L144.023 88.7199L138.027 95.7113Z" fill="#D0D0D0"/>
<path d="M113.155 105.432V121.197C113.149 121.59 112.987 121.965 112.705 122.24C112.423 122.515 112.043 122.668 111.648 122.666C111.454 122.668 111.261 122.631 111.081 122.558C110.901 122.485 110.738 122.377 110.6 122.24C110.463 122.103 110.354 121.941 110.281 121.761C110.208 121.582 110.171 121.39 110.173 121.197V108.049L109.101 108.659C108.878 108.804 108.617 108.879 108.352 108.876C108.03 108.87 107.718 108.763 107.462 108.568C107.206 108.374 107.019 108.103 106.929 107.795C106.839 107.487 106.85 107.159 106.961 106.858C107.072 106.557 107.277 106.299 107.546 106.122L110.85 104.172C110.85 104.172 110.931 104.172 110.955 104.116C110.979 104.06 111.036 104.068 111.092 104.035H111.245C111.282 104.024 111.321 104.024 111.358 104.035C111.419 104.019 111.483 104.019 111.543 104.035H111.842C111.842 104.035 111.922 104.035 111.946 104.035C112.003 104.037 112.059 104.053 112.108 104.084C112.108 104.084 112.188 104.084 112.212 104.084C112.236 104.084 112.325 104.164 112.373 104.164L112.486 104.244C112.486 104.244 112.567 104.292 112.591 104.324C112.615 104.357 112.672 104.405 112.696 104.429C112.731 104.456 112.759 104.492 112.776 104.533L112.889 104.645V104.694C112.889 104.694 112.889 104.75 112.889 104.774C112.889 104.798 112.946 104.854 112.946 104.91C112.946 104.967 112.946 105.015 113.002 105.047C113 105.09 113 105.132 113.002 105.175C112.997 105.21 112.999 105.245 113.008 105.278C113.018 105.311 113.035 105.342 113.059 105.368L113.155 105.432Z" fill="white"/>
<path d="M143.75 77.932C142.791 86.047 137.552 87.5641 136.674 89.6992C136.227 91.06 135.861 92.4456 135.577 93.8491H127.058C126.778 92.4455 126.415 91.0598 125.97 89.6992C125.099 87.532 119.86 86.031 118.917 77.9079C118.297 72.5781 122.335 64.158 131.346 64.166C140.357 64.174 144.347 72.5942 143.75 77.932Z" fill="#30BABA"/>
<path d="M126.976 80.8384L126.43 80.9395L128.944 94.435L129.491 94.334L126.976 80.8384Z" fill="black"/>
<path d="M135.689 80.8617L133.145 94.3516L133.691 94.4538L136.236 80.964L135.689 80.8617Z" fill="black"/>
<path d="M131.33 85.4207C130.889 85.3469 130.474 85.1602 130.126 84.8788C129.779 84.5974 129.51 84.231 129.348 83.8154C129.26 83.9236 129.152 84.0129 129.028 84.0778C128.905 84.1426 128.769 84.1817 128.63 84.1926C127.333 84.1926 126.817 81.5438 126.801 81.4314L127.075 81.3832C127.204 82.0816 127.744 83.9117 128.63 83.9117C128.748 83.8956 128.862 83.8552 128.963 83.793C129.064 83.7308 129.151 83.6482 129.219 83.5505C128.84 82.8012 128.626 81.9804 128.59 81.1424C128.59 80.3879 128.88 79.9625 129.396 79.9625C129.544 79.9569 129.691 79.9922 129.821 80.0644C129.95 80.1366 130.057 80.243 130.13 80.3719C130.524 81.0702 130.226 82.4347 129.727 83.3097C129.667 83.406 129.611 83.4943 129.557 83.5745C130.009 84.4334 130.653 85.1237 131.347 85.1237C131.967 85.1237 132.523 84.5538 132.959 83.7993C132.425 83.1596 132.14 82.351 132.153 81.5197C132.153 80.5565 132.515 79.9625 133.112 79.9625C133.595 79.9625 133.869 80.4361 133.869 81.2548C133.839 82.1199 133.63 82.9695 133.257 83.7511C133.474 83.9581 133.762 84.0756 134.063 84.0802C134.869 84.0802 135.506 82.2421 135.675 81.5277L135.941 81.608C135.868 81.8889 135.135 84.3531 134.031 84.3531C133.685 84.3486 133.351 84.2237 133.088 84C132.95 84.3721 132.714 84.7005 132.405 84.9505C132.096 85.2005 131.725 85.363 131.33 85.4207ZM133.063 80.2675C132.556 80.2675 132.378 80.9498 132.378 81.5438C132.373 82.264 132.593 82.968 133.007 83.5585C133.335 82.8415 133.516 82.0665 133.539 81.2789C133.539 80.9739 133.491 80.2675 133.063 80.2675ZM129.356 80.2675C128.929 80.2675 128.84 80.7652 128.84 81.1745C128.87 81.9175 129.051 82.6466 129.372 83.3177L129.444 83.2053C129.904 82.4026 130.178 81.1264 129.847 80.5404C129.8 80.4531 129.729 80.381 129.642 80.3326C129.554 80.2843 129.455 80.2617 129.356 80.2675Z" fill="black"/>
<path d="M136.633 93.3838H126.123V95.4306H136.633V93.3838Z" fill="white"/>
<path d="M136.569 95.8655L126.059 95.8545L126.056 97.9013L136.567 97.9123L136.569 95.8655Z" fill="white"/>
<path d="M136.565 98.2414L126.055 98.2305L126.053 100.277L136.563 100.288L136.565 98.2414Z" fill="white"/>
<path d="M166.796 181.638C158.786 181.633 150.954 183.994 144.292 188.423C137.63 192.851 132.436 199.147 129.367 206.516C126.299 213.884 125.493 221.993 127.053 229.817C128.613 237.641 132.468 244.829 138.13 250.471C143.792 256.114 151.007 259.957 158.863 261.515C166.718 263.073 174.861 262.275 182.262 259.224C189.663 256.172 195.988 251.004 200.439 244.371C204.889 237.739 207.265 229.942 207.265 221.965C207.254 211.277 202.988 201.029 195.401 193.47C187.815 185.91 177.528 181.655 166.796 181.638ZM166.796 253.703C160.489 253.707 154.324 251.849 149.078 248.364C143.833 244.878 139.743 239.921 137.327 234.12C134.911 228.319 134.276 221.935 135.504 215.775C136.732 209.615 139.767 203.956 144.225 199.515C148.683 195.073 154.364 192.047 160.548 190.822C166.733 189.596 173.144 190.224 178.97 192.627C184.796 195.031 189.776 199.101 193.279 204.323C196.781 209.545 198.65 215.685 198.649 221.965C198.65 226.132 197.827 230.258 196.226 234.108C194.626 237.958 192.28 241.456 189.322 244.403C186.365 247.351 182.853 249.689 178.988 251.284C175.123 252.88 170.98 253.702 166.796 253.703ZM166.796 181.638C158.786 181.633 150.954 183.994 144.292 188.423C137.63 192.851 132.436 199.147 129.367 206.516C126.299 213.884 125.493 221.993 127.053 229.817C128.613 237.641 132.468 244.829 138.13 250.471C143.792 256.114 151.007 259.957 158.863 261.515C166.718 263.073 174.861 262.275 182.262 259.224C189.663 256.172 195.988 251.004 200.439 244.371C204.889 237.739 207.265 229.942 207.265 221.965C207.254 211.277 202.988 201.029 195.401 193.47C187.815 185.91 177.528 181.655 166.796 181.638ZM166.796 253.703C160.489 253.707 154.324 251.849 149.078 248.364C143.833 244.878 139.743 239.921 137.327 234.12C134.911 228.319 134.276 221.935 135.504 215.775C136.732 209.615 139.767 203.956 144.225 199.515C148.683 195.073 154.364 192.047 160.548 190.822C166.733 189.596 173.144 190.224 178.97 192.627C184.796 195.031 189.776 199.101 193.279 204.323C196.781 209.545 198.65 215.685 198.649 221.965C198.65 226.132 197.827 230.258 196.226 234.108C194.626 237.958 192.28 241.456 189.322 244.403C186.365 247.351 182.853 249.689 178.988 251.284C175.123 252.88 170.98 253.702 166.796 253.703ZM166.796 153.986C153.296 153.983 140.099 157.966 128.873 165.433C117.647 172.899 108.897 183.513 103.728 195.932C98.5596 208.352 97.2052 222.018 99.8363 235.204C102.467 248.39 108.966 260.503 118.509 270.011C128.053 279.519 140.214 285.994 153.453 288.619C166.693 291.244 180.417 289.9 192.889 284.757C205.362 279.615 216.023 270.904 223.524 259.727C231.025 248.55 235.03 235.408 235.032 221.965C235.032 203.94 227.843 186.653 215.047 173.905C202.251 161.157 184.895 153.992 166.796 153.986ZM166.796 266.152C158.014 266.162 149.427 263.577 142.122 258.724C134.817 253.871 129.121 246.969 125.756 238.892C122.391 230.814 121.508 221.924 123.219 213.346C124.93 204.769 129.158 196.89 135.367 190.706C141.576 184.522 149.488 180.312 158.101 178.608C166.714 176.904 175.641 177.784 183.752 181.135C191.863 184.486 198.794 190.158 203.667 197.433C208.539 204.708 211.135 213.26 211.126 222.005C211.1 233.706 206.421 244.92 198.113 253.194C189.805 261.467 178.545 266.127 166.796 266.152ZM166.796 181.638C158.786 181.633 150.954 183.994 144.292 188.423C137.63 192.851 132.436 199.147 129.367 206.516C126.299 213.884 125.493 221.993 127.053 229.817C128.613 237.641 132.468 244.829 138.13 250.471C143.792 256.114 151.007 259.957 158.863 261.515C166.718 263.073 174.861 262.275 182.262 259.224C189.663 256.172 195.988 251.004 200.439 244.371C204.889 237.739 207.265 229.942 207.265 221.965C207.254 211.277 202.988 201.029 195.401 193.47C187.815 185.91 177.528 181.655 166.796 181.638ZM166.796 253.703C160.489 253.707 154.324 251.849 149.078 248.364C143.833 244.878 139.743 239.921 137.327 234.12C134.911 228.319 134.276 221.935 135.504 215.775C136.732 209.615 139.767 203.956 144.225 199.515C148.683 195.073 154.364 192.047 160.548 190.822C166.733 189.596 173.144 190.224 178.97 192.627C184.796 195.031 189.776 199.101 193.279 204.323C196.781 209.545 198.65 215.685 198.649 221.965C198.65 226.132 197.827 230.258 196.226 234.108C194.626 237.958 192.28 241.456 189.322 244.403C186.365 247.351 182.853 249.689 178.988 251.284C175.123 252.88 170.98 253.702 166.796 253.703Z" fill="#30BABA"/>
<path d="M130.2 187.409C130.008 187.243 129.779 187.125 129.532 187.068C129.284 187.011 129.027 187.015 128.781 187.08C128.431 187.162 128.102 187.315 127.814 187.53H127.757L126.387 189.063L128.894 191.278C128.922 191.305 128.945 191.337 128.96 191.373C128.975 191.409 128.983 191.448 128.983 191.487C128.983 191.526 128.975 191.564 128.96 191.6C128.945 191.636 128.922 191.668 128.894 191.695C128.839 191.748 128.765 191.777 128.688 191.777C128.612 191.777 128.538 191.748 128.483 191.695L122.583 186.526C122.537 186.472 122.512 186.404 122.512 186.334C122.512 186.263 122.537 186.195 122.583 186.141L124.147 184.383C124.513 183.975 125.008 183.704 125.551 183.613C126.093 183.523 126.65 183.62 127.13 183.887C127.609 184.155 127.983 184.577 128.19 185.084C128.396 185.592 128.423 186.154 128.265 186.679L128.394 186.631C128.757 186.494 129.15 186.46 129.531 186.531C129.911 186.601 130.265 186.775 130.554 187.032C130.793 187.258 131.065 187.448 131.36 187.594C131.432 187.632 131.513 187.648 131.594 187.642C131.634 187.578 131.697 187.532 131.77 187.513C131.844 187.494 131.921 187.503 131.988 187.539C132.054 187.575 132.105 187.634 132.129 187.705C132.153 187.777 132.149 187.854 132.118 187.923C132.092 187.966 132.063 188.006 132.029 188.043C131.944 188.122 131.84 188.178 131.727 188.205C131.614 188.231 131.496 188.228 131.384 188.196C130.933 188.031 130.526 187.761 130.2 187.409ZM124.614 184.76L123.228 186.317L125.96 188.726L127.306 187.216L127.379 187.136C127.699 186.771 127.861 186.294 127.829 185.81C127.796 185.326 127.572 184.875 127.205 184.556C126.839 184.236 126.36 184.075 125.874 184.107C125.388 184.14 124.935 184.363 124.614 184.728V184.76Z" fill="black"/>
<path d="M128.51 180.289C128.484 180.263 128.462 180.232 128.448 180.198C128.433 180.163 128.426 180.126 128.426 180.089C128.426 180.051 128.433 180.014 128.448 179.98C128.462 179.945 128.484 179.914 128.51 179.888L131.823 177.103C131.853 177.078 131.887 177.06 131.923 177.049C131.96 177.037 131.999 177.034 132.037 177.037C132.075 177.041 132.112 177.052 132.146 177.07C132.18 177.089 132.21 177.113 132.234 177.143C132.262 177.17 132.285 177.202 132.3 177.238C132.316 177.274 132.324 177.313 132.324 177.352C132.324 177.391 132.316 177.429 132.3 177.465C132.285 177.501 132.262 177.533 132.234 177.56L129.131 180.161L131.291 182.713L133.999 180.434C134.03 180.409 134.065 180.39 134.102 180.378C134.14 180.367 134.18 180.364 134.219 180.368C134.259 180.373 134.296 180.385 134.331 180.405C134.365 180.424 134.395 180.451 134.418 180.482C134.445 180.508 134.467 180.539 134.481 180.574C134.496 180.608 134.503 180.645 134.503 180.683C134.503 180.72 134.496 180.757 134.481 180.792C134.467 180.826 134.445 180.857 134.418 180.883L131.702 183.155L133.854 185.691L136.949 183.091C136.98 183.067 137.015 183.049 137.053 183.038C137.091 183.027 137.13 183.024 137.169 183.028C137.208 183.033 137.245 183.045 137.28 183.064C137.314 183.083 137.344 183.108 137.368 183.139C137.395 183.166 137.417 183.198 137.432 183.233C137.446 183.268 137.454 183.306 137.454 183.344C137.454 183.382 137.446 183.419 137.432 183.454C137.417 183.49 137.395 183.521 137.368 183.548L134.072 186.318C134.012 186.358 133.939 186.374 133.867 186.364C133.796 186.354 133.731 186.317 133.685 186.261L128.51 180.289Z" fill="black"/>
<path d="M137.946 181.076C137.949 181.041 137.959 181.007 137.976 180.976C137.993 180.945 138.016 180.918 138.045 180.897C138.073 180.876 138.105 180.861 138.14 180.853C138.174 180.845 138.21 180.845 138.244 180.851C139.257 180.999 140.29 180.813 141.186 180.322C141.758 179.985 142.211 179.48 142.484 178.877C142.59 178.649 142.641 178.4 142.632 178.149C142.624 177.898 142.557 177.652 142.436 177.432C142.31 177.232 142.134 177.068 141.924 176.958C141.715 176.848 141.479 176.796 141.243 176.806C140.545 176.826 139.856 176.973 139.212 177.239C138.556 177.525 137.848 177.672 137.132 177.673C136.832 177.679 136.535 177.608 136.27 177.467C136.005 177.327 135.78 177.121 135.617 176.87C135.463 176.596 135.376 176.29 135.363 175.976C135.35 175.662 135.412 175.35 135.544 175.064C135.832 174.391 136.33 173.829 136.963 173.459C137.801 173.008 138.757 172.824 139.703 172.929C139.775 172.933 139.841 172.965 139.89 173.017C139.938 173.07 139.963 173.139 139.961 173.21C139.957 173.279 139.926 173.343 139.875 173.39C139.824 173.436 139.756 173.461 139.687 173.459C138.854 173.367 138.013 173.523 137.269 173.908C136.744 174.223 136.326 174.687 136.068 175.241C135.96 175.446 135.904 175.675 135.904 175.907C135.904 176.139 135.96 176.368 136.068 176.573C136.183 176.75 136.343 176.893 136.531 176.988C136.719 177.084 136.929 177.129 137.14 177.119C137.787 177.108 138.424 176.972 139.018 176.718C139.728 176.419 140.489 176.261 141.259 176.252C141.58 176.252 141.895 176.332 142.177 176.485C142.458 176.638 142.697 176.859 142.871 177.127C143.036 177.421 143.128 177.749 143.141 178.086C143.154 178.422 143.086 178.756 142.943 179.062C142.633 179.77 142.105 180.363 141.436 180.755C140.431 181.304 139.274 181.512 138.14 181.349C138.082 181.331 138.031 181.295 137.996 181.246C137.961 181.196 137.944 181.137 137.946 181.076Z" fill="black"/>
<path d="M142.63 170.85C142.602 170.78 142.603 170.701 142.631 170.631C142.66 170.561 142.714 170.504 142.783 170.473L146.772 168.787C146.808 168.773 146.846 168.766 146.884 168.766C146.922 168.766 146.96 168.774 146.995 168.789C147.031 168.804 147.063 168.826 147.089 168.853C147.116 168.88 147.137 168.912 147.151 168.948C147.168 168.983 147.178 169.021 147.179 169.06C147.181 169.099 147.174 169.138 147.16 169.174C147.145 169.21 147.124 169.243 147.096 169.27C147.068 169.298 147.035 169.319 146.998 169.333L143.274 170.938L144.58 174.005L147.804 172.632C147.876 172.605 147.956 172.607 148.026 172.637C148.097 172.667 148.153 172.723 148.183 172.794C148.213 172.864 148.215 172.943 148.188 173.015C148.161 173.086 148.107 173.145 148.038 173.178L144.774 174.55L146.071 177.609L149.803 176.003C149.84 175.989 149.879 175.982 149.918 175.983C149.957 175.983 149.996 175.992 150.032 176.008C150.068 176.023 150.1 176.046 150.127 176.074C150.154 176.102 150.176 176.135 150.19 176.172C150.219 176.242 150.22 176.321 150.191 176.392C150.163 176.463 150.107 176.519 150.037 176.549L146.063 178.227C145.992 178.247 145.917 178.24 145.85 178.21C145.784 178.179 145.731 178.125 145.7 178.058L142.63 170.85Z" fill="black"/>
<path d="M156.131 172.56L152.407 173.523L152.174 175.634C152.167 175.694 152.142 175.75 152.104 175.795C152.065 175.841 152.014 175.874 151.956 175.891H151.843C151.766 175.879 151.697 175.838 151.649 175.777C151.601 175.716 151.578 175.639 151.585 175.562L152.48 167.262C152.493 167.204 152.523 167.15 152.566 167.107C152.609 167.065 152.663 167.035 152.722 167.021C152.78 167.004 152.842 167.005 152.899 167.024C152.957 167.042 153.007 167.078 153.044 167.126L157.84 173.965C157.882 174.028 157.899 174.105 157.889 174.18C157.879 174.255 157.841 174.324 157.783 174.374L157.679 174.414C157.62 174.426 157.56 174.421 157.504 174.399C157.448 174.378 157.4 174.341 157.364 174.294L156.131 172.56ZM152.464 172.889L155.776 172.038L152.996 168.073L152.464 172.889Z" fill="black"/>
<path d="M163.482 171.829C163.458 171.578 163.371 171.337 163.231 171.127C163.09 170.917 162.9 170.745 162.676 170.625C162.363 170.452 162.017 170.343 161.661 170.304H161.596L159.557 170.513L159.887 173.828C159.892 173.906 159.866 173.982 159.815 174.04C159.763 174.099 159.691 174.135 159.613 174.141C159.538 174.148 159.462 174.125 159.404 174.077C159.345 174.029 159.307 173.96 159.299 173.884L158.493 166.074C158.488 166.003 158.508 165.932 158.551 165.874C158.594 165.817 158.656 165.777 158.727 165.761H158.791L161.137 165.528C161.685 165.474 162.236 165.608 162.697 165.908C163.159 166.207 163.504 166.655 163.675 167.177C163.846 167.698 163.833 168.263 163.638 168.776C163.443 169.289 163.078 169.721 162.604 169.999L162.725 170.048C163.084 170.194 163.397 170.435 163.63 170.744C163.863 171.054 164.007 171.421 164.046 171.805C164.064 172.132 164.132 172.454 164.248 172.761C164.277 172.837 164.327 172.904 164.393 172.953C164.459 172.939 164.529 172.947 164.59 172.976C164.651 173.005 164.701 173.053 164.732 173.114C164.762 173.188 164.763 173.27 164.735 173.345C164.706 173.419 164.65 173.48 164.578 173.515H164.433C164.316 173.513 164.201 173.48 164.099 173.421C163.998 173.362 163.913 173.279 163.853 173.178C163.624 172.764 163.497 172.302 163.482 171.829ZM161.209 166.09L159.13 166.291L159.493 169.911L161.508 169.71H161.62C162.101 169.656 162.541 169.414 162.842 169.037C163.144 168.66 163.283 168.179 163.228 167.7C163.174 167.221 162.93 166.783 162.552 166.483C162.173 166.182 161.69 166.044 161.209 166.098V166.09Z" fill="black"/>
<path d="M171.276 165.272C172.263 165.342 173.2 165.731 173.944 166.379C174 166.436 174.031 166.513 174.031 166.592C174.031 166.671 174 166.748 173.944 166.805C173.918 166.833 173.886 166.855 173.851 166.87C173.815 166.885 173.777 166.893 173.739 166.893C173.7 166.893 173.662 166.885 173.627 166.87C173.591 166.855 173.56 166.833 173.533 166.805C172.891 166.234 172.078 165.89 171.22 165.825C170.722 165.77 170.219 165.815 169.739 165.959C169.259 166.102 168.814 166.341 168.43 166.66C168.045 166.98 167.73 167.374 167.503 167.818C167.275 168.262 167.141 168.748 167.107 169.246C167.073 169.743 167.141 170.242 167.306 170.713C167.471 171.184 167.731 171.616 168.068 171.985C168.406 172.353 168.815 172.649 169.271 172.856C169.727 173.062 170.22 173.174 170.72 173.186C171.58 173.257 172.437 173.021 173.138 172.52C173.172 172.498 173.209 172.484 173.249 172.478C173.288 172.471 173.328 172.473 173.367 172.483C173.405 172.493 173.441 172.51 173.473 172.535C173.504 172.559 173.53 172.589 173.549 172.624C173.576 172.654 173.596 172.69 173.608 172.729C173.62 172.767 173.622 172.808 173.616 172.848C173.61 172.888 173.595 172.926 173.572 172.959C173.55 172.993 173.52 173.021 173.485 173.042C172.662 173.585 171.681 173.842 170.696 173.772C170.12 173.752 169.555 173.617 169.033 173.374C168.511 173.132 168.043 172.788 167.657 172.362C167.271 171.936 166.975 171.438 166.787 170.896C166.599 170.354 166.522 169.779 166.561 169.207C166.6 168.635 166.754 168.076 167.014 167.565C167.274 167.053 167.634 166.598 168.074 166.228C168.514 165.858 169.024 165.58 169.574 165.41C170.125 165.24 170.703 165.182 171.276 165.239V165.272Z" fill="black"/>
<path d="M181.35 171.733L177.127 170.689L176.24 174.213C176.219 174.288 176.17 174.353 176.102 174.392C176.034 174.431 175.953 174.442 175.877 174.422C175.804 174.401 175.741 174.353 175.702 174.287C175.663 174.221 175.651 174.143 175.668 174.069L177.578 166.451C177.587 166.415 177.602 166.38 177.625 166.35C177.647 166.319 177.675 166.293 177.707 166.274C177.739 166.254 177.775 166.242 177.813 166.236C177.85 166.231 177.888 166.233 177.925 166.243C177.963 166.25 178 166.265 178.032 166.288C178.065 166.31 178.092 166.338 178.114 166.371C178.135 166.404 178.149 166.441 178.155 166.48C178.161 166.518 178.16 166.558 178.15 166.596L177.264 170.128L181.487 171.171L182.374 167.647C182.401 167.581 182.452 167.527 182.516 167.495C182.58 167.463 182.653 167.455 182.723 167.473C182.792 167.49 182.853 167.532 182.894 167.591C182.935 167.649 182.954 167.721 182.946 167.792L181.044 175.409C181.021 175.485 180.97 175.549 180.901 175.588C180.832 175.627 180.75 175.638 180.673 175.618C180.6 175.596 180.539 175.547 180.5 175.482C180.461 175.416 180.448 175.339 180.464 175.265L181.35 171.733Z" fill="black"/>
<path d="M174.796 155.222H159.168L160.724 139.69H173.241L174.796 155.222Z" fill="#30BABA"/>
<path d="M140.211 160.175L126.678 167.952L120.23 153.729L131.063 147.492L140.211 160.175Z" fill="#30BABA"/>
<path d="M112.752 181.678L104.934 195.155L92.207 186.045L98.4616 175.257L112.752 181.678Z" fill="#30BABA"/>
<path d="M99.7663 213.978V229.542L84.1621 227.993V215.527L99.7663 213.978Z" fill="#30BABA"/>
<path d="M104.733 248.421L112.551 261.898L98.2604 268.319L92.0059 257.523L104.733 248.421Z" fill="#30BABA"/>
<path d="M126.331 275.768L139.864 283.546L130.716 296.229L119.875 290L126.331 275.768Z" fill="#30BABA"/>
<path d="M158.764 288.699H174.392L172.828 304.239H160.319L158.764 288.699Z" fill="#30BABA"/>
<path d="M193.344 283.747L206.876 275.969L213.333 290.2L202.492 296.429L193.344 283.747Z" fill="#30BABA"/>
<path d="M220.812 262.243L228.623 248.766L241.357 257.877L235.095 268.673L220.812 262.243Z" fill="#30BABA"/>
<path d="M233.795 229.943V214.379L249.391 215.929V228.394L233.795 229.943Z" fill="#30BABA"/>
<path d="M228.824 195.5L221.014 182.023L235.296 175.602L241.559 186.398L228.824 195.5Z" fill="#30BABA"/>
<path d="M207.232 168.153L193.699 160.375L202.839 147.693L213.68 153.93L207.232 168.153Z" fill="#30BABA"/>
<path d="M172.735 231.846C172.737 232.039 172.701 232.231 172.627 232.41C172.554 232.589 172.445 232.752 172.308 232.889C172.171 233.026 172.007 233.134 171.827 233.207C171.647 233.28 171.455 233.317 171.26 233.314H161.709C161.501 233.317 161.295 233.276 161.105 233.192C160.914 233.109 160.744 232.987 160.605 232.833C160.473 232.691 160.37 232.525 160.303 232.344C160.235 232.163 160.205 231.97 160.212 231.777C160.22 231.584 160.265 231.394 160.346 231.218C160.428 231.043 160.543 230.885 160.686 230.754L168.633 223.586C168.995 223.265 169.284 222.871 169.478 222.429C169.673 221.987 169.77 221.508 169.761 221.025C169.765 220.167 169.449 219.338 168.875 218.698C168.55 218.338 168.152 218.051 167.707 217.858C167.262 217.664 166.781 217.567 166.295 217.574C165.437 217.576 164.608 217.89 163.966 218.457L163.16 219.203C163.018 219.336 162.85 219.439 162.667 219.506C162.484 219.573 162.289 219.603 162.094 219.593C161.899 219.584 161.708 219.535 161.533 219.45C161.357 219.365 161.201 219.246 161.072 219.099C160.942 218.955 160.841 218.787 160.775 218.604C160.71 218.422 160.681 218.228 160.691 218.034C160.7 217.84 160.748 217.65 160.832 217.475C160.915 217.299 161.033 217.142 161.177 217.012L161.983 216.266C163.162 215.191 164.705 214.6 166.303 214.612C167.204 214.612 168.095 214.8 168.918 215.163C169.741 215.527 170.479 216.058 171.083 216.723C172.164 217.896 172.757 219.434 172.743 221.025C172.742 221.921 172.553 222.806 172.188 223.625C171.823 224.443 171.29 225.176 170.624 225.777L165.554 230.353H171.268C171.463 230.354 171.656 230.393 171.836 230.469C172.016 230.545 172.178 230.655 172.315 230.794C172.451 230.933 172.559 231.097 172.631 231.278C172.703 231.458 172.739 231.651 172.735 231.846Z" fill="white"/>
<path d="M219.916 190.307L215.08 193.935L206.165 182.224L202.941 177.938C203.612 177.679 204.242 177.325 204.811 176.886C205.905 176.053 206.756 174.945 207.278 173.676L210.743 178.219L219.916 190.307Z" fill="white"/>
<path d="M210.437 162.727C208.856 160.678 206.7 159.142 204.243 158.314C201.785 157.485 199.136 157.4 196.63 158.07C194.125 158.74 191.874 160.135 190.165 162.079C188.455 164.022 187.362 166.427 187.024 168.989C186.686 171.551 187.118 174.155 188.266 176.472C189.414 178.789 191.226 180.716 193.473 182.008C195.72 183.3 198.301 183.899 200.89 183.73C203.48 183.562 205.96 182.632 208.019 181.06C209.06 180.258 209.978 179.309 210.743 178.243C212.361 175.962 213.205 173.226 213.15 170.435C213.094 167.643 212.144 164.942 210.437 162.727ZM204.795 176.886C204.226 177.325 203.596 177.679 202.925 177.938C201.087 178.66 199.042 178.661 197.203 177.941C195.365 177.22 193.869 175.831 193.018 174.055C192.168 172.279 192.025 170.247 192.621 168.37C193.216 166.494 194.504 164.912 196.224 163.944C197.945 162.977 199.97 162.696 201.891 163.157C203.812 163.619 205.486 164.79 206.574 166.432C207.662 168.075 208.083 170.068 207.753 172.008C207.423 173.948 206.366 175.692 204.795 176.886Z" fill="white"/>
<path d="M391.144 142.452C390.86 139.425 389.681 136.55 387.756 134.19C385.831 131.831 383.247 130.093 380.331 129.196C377.414 128.299 374.296 128.283 371.37 129.151C368.445 130.018 365.843 131.73 363.895 134.07C361.946 136.41 360.738 139.273 360.423 142.297C360.108 145.321 360.701 148.37 362.126 151.058C363.551 153.746 365.744 155.954 368.429 157.401C371.114 158.848 374.169 159.469 377.208 159.187C379.227 159.001 381.189 158.42 382.983 157.478C384.776 156.536 386.365 155.251 387.66 153.696C388.954 152.142 389.928 150.349 390.526 148.419C391.124 146.49 391.334 144.462 391.144 142.452ZM377.039 157.317C374.369 157.566 371.684 157.021 369.325 155.75C366.966 154.48 365.039 152.541 363.787 150.179C362.534 147.818 362.014 145.139 362.29 142.482C362.567 139.826 363.628 137.311 365.34 135.255C367.053 133.2 369.339 131.696 371.909 130.934C374.48 130.173 377.219 130.188 379.781 130.977C382.343 131.766 384.613 133.294 386.302 135.368C387.992 137.442 389.026 139.969 389.274 142.628C389.606 146.191 388.503 149.74 386.209 152.495C383.915 155.249 380.617 156.983 377.039 157.317ZM391.144 142.452C390.86 139.425 389.681 136.55 387.756 134.19C385.831 131.831 383.247 130.093 380.331 129.196C377.414 128.299 374.296 128.283 371.37 129.151C368.445 130.018 365.843 131.73 363.895 134.07C361.946 136.41 360.738 139.273 360.423 142.297C360.108 145.321 360.701 148.37 362.126 151.058C363.551 153.746 365.744 155.954 368.429 157.401C371.114 158.848 374.169 159.469 377.208 159.187C379.227 159.001 381.189 158.42 382.983 157.478C384.776 156.536 386.365 155.251 387.66 153.696C388.954 152.142 389.928 150.349 390.526 148.419C391.124 146.49 391.334 144.462 391.144 142.452ZM377.039 157.317C374.369 157.566 371.684 157.021 369.325 155.75C366.966 154.48 365.039 152.541 363.787 150.179C362.534 147.818 362.014 145.139 362.29 142.482C362.567 139.826 363.628 137.311 365.34 135.255C367.053 133.2 369.339 131.696 371.909 130.934C374.48 130.173 377.219 130.188 379.781 130.977C382.343 131.766 384.613 133.294 386.302 135.368C387.992 137.442 389.026 139.969 389.274 142.628C389.606 146.191 388.503 149.74 386.209 152.495C383.915 155.249 380.617 156.983 377.039 157.317ZM391.144 142.452C390.86 139.425 389.681 136.55 387.756 134.19C385.831 131.831 383.247 130.093 380.331 129.196C377.414 128.299 374.296 128.283 371.37 129.151C368.445 130.018 365.843 131.73 363.895 134.07C361.946 136.41 360.738 139.273 360.423 142.297C360.108 145.321 360.701 148.37 362.126 151.058C363.551 153.746 365.744 155.954 368.429 157.401C371.114 158.848 374.169 159.469 377.208 159.187C379.227 159.001 381.189 158.42 382.983 157.478C384.776 156.536 386.365 155.251 387.66 153.696C388.954 152.142 389.928 150.349 390.526 148.419C391.124 146.49 391.334 144.462 391.144 142.452ZM377.039 157.317C374.369 157.566 371.684 157.021 369.325 155.75C366.966 154.48 365.039 152.541 363.787 150.179C362.534 147.818 362.014 145.139 362.29 142.482C362.567 139.826 363.628 137.311 365.34 135.255C367.053 133.2 369.339 131.696 371.909 130.934C374.48 130.173 377.219 130.188 379.781 130.977C382.343 131.766 384.613 133.294 386.302 135.368C387.992 137.442 389.026 139.969 389.274 142.628C389.606 146.191 388.503 149.74 386.209 152.495C383.915 155.249 380.617 156.983 377.039 157.317ZM408.174 140.878C407.578 134.497 405.094 128.435 401.038 123.459C396.981 118.484 391.535 114.818 385.386 112.925C379.238 111.032 372.664 110.998 366.496 112.826C360.327 114.654 354.842 118.262 350.733 123.195C346.624 128.128 344.077 134.163 343.412 140.538C342.748 146.912 343.996 153.34 347 159.008C350.004 164.676 354.628 169.33 360.288 172.381C365.947 175.432 372.388 176.743 378.796 176.148C387.387 175.348 395.308 171.184 400.817 164.57C406.326 157.956 408.973 149.435 408.174 140.878ZM377.434 161.563C373.919 161.888 370.387 161.168 367.283 159.493C364.18 157.818 361.644 155.265 359.998 152.155C358.352 149.046 357.669 145.52 358.036 142.023C358.402 138.527 359.802 135.218 362.057 132.514C364.312 129.809 367.322 127.832 370.706 126.832C374.09 125.831 377.695 125.853 381.067 126.893C384.439 127.934 387.424 129.947 389.647 132.678C391.87 135.409 393.229 138.734 393.554 142.235C393.984 146.926 392.529 151.595 389.507 155.218C386.485 158.842 382.143 161.124 377.434 161.563ZM374.355 128.573C371.312 128.852 368.421 130.022 366.047 131.938C363.673 133.853 361.923 136.426 361.018 139.332C360.113 142.238 360.093 145.347 360.963 148.264C361.832 151.18 363.55 153.775 365.901 155.719C368.251 157.663 371.128 158.869 374.167 159.184C377.205 159.5 380.27 158.911 382.972 157.491C385.675 156.072 387.893 153.886 389.348 151.21C390.803 148.534 391.428 145.489 391.144 142.46C390.766 138.401 388.785 134.659 385.636 132.054C382.488 129.45 378.43 128.198 374.355 128.573ZM377.039 157.325C374.369 157.574 371.684 157.029 369.325 155.758C366.966 154.488 365.039 152.549 363.787 150.187C362.534 147.826 362.014 145.147 362.29 142.49C362.567 139.834 363.628 137.319 365.34 135.263C367.053 133.208 369.339 131.704 371.909 130.942C374.48 130.181 377.219 130.196 379.781 130.985C382.343 131.774 384.613 133.302 386.302 135.376C387.992 137.45 389.026 139.977 389.274 142.636C389.603 146.198 388.5 149.745 386.206 152.497C383.912 155.25 380.615 156.983 377.039 157.317V157.325ZM391.144 142.46C390.86 139.433 389.681 136.558 387.756 134.198C385.831 131.839 383.247 130.101 380.331 129.204C377.414 128.307 374.296 128.291 371.37 129.159C368.445 130.026 365.843 131.738 363.895 134.078C361.946 136.418 360.738 139.281 360.423 142.305C360.108 145.329 360.701 148.378 362.126 151.066C363.551 153.754 365.744 155.962 368.429 157.409C371.114 158.856 374.169 159.477 377.208 159.195C379.228 159.009 381.191 158.428 382.985 157.485C384.779 156.543 386.368 155.257 387.663 153.702C388.957 152.146 389.931 150.352 390.528 148.422C391.125 146.491 391.335 144.463 391.144 142.452V142.46ZM377.039 157.325C374.369 157.574 371.684 157.029 369.325 155.758C366.966 154.488 365.039 152.549 363.787 150.187C362.534 147.826 362.014 145.147 362.29 142.49C362.567 139.834 363.628 137.319 365.34 135.263C367.053 133.208 369.339 131.704 371.909 130.942C374.48 130.181 377.219 130.196 379.781 130.985C382.343 131.774 384.613 133.302 386.302 135.376C387.992 137.45 389.026 139.977 389.274 142.636C389.603 146.198 388.5 149.745 386.206 152.497C383.912 155.25 380.615 156.983 377.039 157.317V157.325ZM391.144 142.46C390.86 139.433 389.681 136.558 387.756 134.198C385.831 131.839 383.247 130.101 380.331 129.204C377.414 128.307 374.296 128.291 371.37 129.159C368.445 130.026 365.843 131.738 363.895 134.078C361.946 136.418 360.738 139.281 360.423 142.305C360.108 145.329 360.701 148.378 362.126 151.066C363.551 153.754 365.744 155.962 368.429 157.409C371.114 158.856 374.169 159.477 377.208 159.195C379.228 159.009 381.191 158.428 382.985 157.485C384.779 156.543 386.368 155.257 387.663 153.702C388.957 152.146 389.931 150.352 390.528 148.422C391.125 146.491 391.335 144.463 391.144 142.452V142.46ZM377.039 157.325C374.369 157.574 371.684 157.029 369.325 155.758C366.966 154.488 365.039 152.549 363.787 150.187C362.534 147.826 362.014 145.147 362.29 142.49C362.567 139.834 363.628 137.319 365.34 135.263C367.053 133.208 369.339 131.704 371.909 130.942C374.48 130.181 377.219 130.196 379.781 130.985C382.343 131.774 384.613 133.302 386.302 135.376C387.992 137.45 389.026 139.977 389.274 142.636C389.603 146.198 388.5 149.745 386.206 152.497C383.912 155.25 380.615 156.983 377.039 157.317V157.325Z" fill="#30BABA"/>
<path d="M379.117 112.367L366.656 113.522L366.527 104.677L377.61 103.649L379.117 112.367Z" fill="#30BABA"/>
<path d="M355.795 118.749L347.807 128.333L341.432 122.176L348.541 113.644L355.795 118.749Z" fill="#30BABA"/>
<path d="M343.833 139.682L344.986 152.083L336.104 152.219L335.072 141.183L343.833 139.682Z" fill="#30BABA"/>
<path d="M350.232 162.912L359.855 170.866L353.665 177.215L345.105 170.136L350.232 162.912Z" fill="#30BABA"/>
<path d="M371.252 174.823L383.713 173.676L383.842 182.521L372.759 183.548L371.252 174.823Z" fill="#30BABA"/>
<path d="M394.576 168.45L402.564 158.858L408.939 165.022L401.83 173.555L394.576 168.45Z" fill="#30BABA"/>
<path d="M406.539 147.516L405.387 135.107L414.269 134.979L415.301 146.015L406.539 147.516Z" fill="#30BABA"/>
<path d="M400.139 124.287L390.508 116.332L396.698 109.983L405.266 117.063L400.139 124.287Z" fill="#30BABA"/>
<path d="M356.084 140.172V140.22C356.052 140.285 355.998 140.336 355.931 140.364C355.865 140.392 355.79 140.395 355.721 140.372L348.266 137.764C348.195 137.738 348.137 137.686 348.104 137.619C348.071 137.551 348.065 137.474 348.088 137.403L348.604 135.95C349.003 134.932 349.784 134.108 350.781 133.653C351.778 133.197 352.914 133.145 353.949 133.507C354.984 133.869 355.837 134.618 356.329 135.595C356.821 136.572 356.912 137.7 356.584 138.743L356.084 140.172ZM356.036 138.51C356.194 138.062 356.263 137.586 356.237 137.112C356.212 136.637 356.092 136.171 355.886 135.743C355.68 135.314 355.391 134.929 355.035 134.612C354.68 134.294 354.265 134.049 353.815 133.891C353.365 133.733 352.887 133.664 352.411 133.69C351.934 133.716 351.467 133.834 351.036 134.04C350.605 134.245 350.219 134.533 349.9 134.887C349.581 135.241 349.335 135.654 349.177 136.102L348.749 137.306L355.616 139.714L356.036 138.51Z" fill="black"/>
<path d="M352.358 128.573C352.3 128.523 352.263 128.453 352.255 128.376C352.248 128.3 352.27 128.224 352.318 128.164L355.018 124.792C355.071 124.744 355.139 124.716 355.211 124.713C355.282 124.711 355.352 124.734 355.408 124.779C355.464 124.824 355.502 124.887 355.515 124.957C355.527 125.028 355.514 125.1 355.477 125.162L352.955 128.316L355.566 130.395L357.774 127.642C357.825 127.581 357.897 127.543 357.976 127.536C358.054 127.528 358.133 127.552 358.194 127.602C358.253 127.649 358.291 127.718 358.3 127.793C358.309 127.868 358.288 127.943 358.242 128.003L356.034 130.764L358.637 132.835L361.16 129.681C361.187 129.653 361.219 129.63 361.255 129.615C361.291 129.599 361.33 129.592 361.369 129.592C361.408 129.592 361.447 129.599 361.483 129.615C361.519 129.63 361.552 129.653 361.579 129.681C361.609 129.703 361.634 129.732 361.653 129.765C361.672 129.797 361.684 129.834 361.689 129.871C361.693 129.909 361.69 129.947 361.679 129.983C361.669 130.019 361.651 130.053 361.627 130.082L358.951 133.389C358.9 133.44 358.83 133.469 358.758 133.469C358.685 133.469 358.616 133.44 358.564 133.389L352.358 128.573Z" fill="black"/>
<path d="M361.804 127.594C361.808 127.559 361.819 127.525 361.836 127.495C361.853 127.465 361.877 127.438 361.905 127.417C361.933 127.396 361.964 127.381 361.998 127.373C362.032 127.365 362.068 127.363 362.102 127.369C363.115 127.521 364.149 127.335 365.044 126.839C365.615 126.507 366.066 126.004 366.334 125.402C366.446 125.176 366.501 124.927 366.494 124.675C366.487 124.423 366.418 124.177 366.293 123.957C366.168 123.757 365.992 123.594 365.782 123.484C365.572 123.374 365.337 123.321 365.101 123.331C364.403 123.351 363.714 123.498 363.069 123.765C362.416 124.049 361.711 124.197 360.998 124.198C360.698 124.204 360.401 124.133 360.136 123.993C359.871 123.852 359.646 123.647 359.483 123.396C359.325 123.123 359.235 122.817 359.221 122.502C359.207 122.188 359.269 121.875 359.402 121.59C359.695 120.92 360.191 120.358 360.821 119.984C361.656 119.534 362.609 119.35 363.553 119.454C363.589 119.454 363.625 119.462 363.658 119.476C363.691 119.49 363.72 119.511 363.745 119.538C363.769 119.564 363.787 119.596 363.799 119.63C363.81 119.664 363.814 119.7 363.811 119.735C363.812 119.77 363.806 119.804 363.793 119.836C363.78 119.868 363.76 119.897 363.735 119.92C363.71 119.944 363.68 119.962 363.647 119.973C363.614 119.984 363.579 119.988 363.545 119.984C362.711 119.889 361.868 120.049 361.127 120.442C360.595 120.75 360.172 121.215 359.918 121.774C359.814 121.979 359.76 122.206 359.76 122.436C359.76 122.666 359.814 122.893 359.918 123.099C360.034 123.274 360.194 123.416 360.382 123.512C360.57 123.607 360.779 123.653 360.99 123.644C361.639 123.634 362.279 123.498 362.876 123.243C363.586 122.945 364.347 122.787 365.117 122.777C365.437 122.776 365.752 122.854 366.034 123.006C366.316 123.157 366.554 123.377 366.729 123.644C366.894 123.938 366.986 124.267 366.999 124.603C367.011 124.939 366.944 125.274 366.801 125.579C366.493 126.291 365.965 126.887 365.294 127.281C364.289 127.83 363.132 128.039 361.997 127.874C361.939 127.854 361.89 127.816 361.855 127.765C361.82 127.715 361.802 127.655 361.804 127.594Z" fill="black"/>
<path d="M367.422 117.48C367.4 117.404 367.409 117.323 367.446 117.254C367.484 117.185 367.548 117.133 367.624 117.111C367.7 117.088 367.782 117.097 367.851 117.135C367.921 117.172 367.972 117.236 367.995 117.312L370.179 124.849C370.188 124.919 370.172 124.99 370.134 125.049C370.096 125.109 370.037 125.152 369.969 125.173C369.901 125.193 369.828 125.189 369.763 125.16C369.698 125.132 369.646 125.081 369.615 125.017L367.422 117.48Z" fill="black"/>
<path d="M376.604 120.603C376.565 120.604 376.526 120.597 376.49 120.582C376.454 120.568 376.421 120.546 376.394 120.518C376.366 120.49 376.345 120.456 376.331 120.42C376.318 120.383 376.312 120.344 376.314 120.306C376.314 120.266 376.322 120.227 376.338 120.191C376.353 120.155 376.376 120.122 376.405 120.095C376.433 120.068 376.467 120.047 376.504 120.034C376.541 120.02 376.581 120.014 376.62 120.017L379.232 120.089C379.306 120.099 379.374 120.135 379.423 120.191C379.472 120.247 379.498 120.319 379.498 120.394L379.417 123.283V123.332C379.403 123.414 379.364 123.49 379.304 123.548C378.756 123.986 378.11 124.285 377.421 124.419C376.732 124.553 376.02 124.519 375.347 124.32C374.674 124.12 374.06 123.761 373.557 123.274C373.053 122.786 372.676 122.184 372.458 121.519C372.239 120.855 372.186 120.147 372.302 119.458C372.418 118.768 372.7 118.117 373.125 117.559C373.549 117.002 374.103 116.555 374.738 116.258C375.373 115.96 376.072 115.821 376.773 115.851C377.769 115.88 378.726 116.242 379.49 116.878C379.54 116.932 379.568 117.003 379.569 117.077C379.57 117.151 379.543 117.222 379.494 117.278C379.444 117.333 379.376 117.368 379.302 117.375C379.229 117.383 379.155 117.363 379.095 117.32C378.645 116.916 378.103 116.628 377.516 116.48C376.93 116.331 376.316 116.326 375.727 116.466C375.138 116.606 374.592 116.886 374.136 117.282C373.679 117.679 373.327 118.179 373.108 118.741C372.889 119.303 372.81 119.91 372.878 120.509C372.946 121.108 373.16 121.682 373.5 122.18C373.839 122.679 374.296 123.088 374.83 123.373C375.363 123.657 375.959 123.808 376.564 123.813C377.365 123.832 378.152 123.599 378.813 123.147L378.885 120.667L376.604 120.603Z" fill="black"/>
<path d="M385.341 118.796L382.238 124.961C382.203 125.03 382.143 125.083 382.07 125.108C381.996 125.132 381.916 125.127 381.847 125.093C381.777 125.059 381.724 124.999 381.699 124.926C381.674 124.853 381.679 124.773 381.714 124.704L385.196 117.793C385.205 117.732 385.234 117.676 385.277 117.633C385.32 117.59 385.377 117.562 385.437 117.552C385.515 117.541 385.595 117.56 385.658 117.607C385.722 117.654 385.764 117.723 385.776 117.801L387.17 126.422L390.265 120.281C390.301 120.212 390.362 120.16 390.436 120.135C390.51 120.111 390.591 120.118 390.66 120.153C390.73 120.188 390.782 120.249 390.807 120.323C390.831 120.397 390.824 120.477 390.789 120.546L387.291 127.489C387.274 127.524 387.25 127.555 387.221 127.58C387.191 127.605 387.157 127.624 387.12 127.635C387.083 127.646 387.044 127.65 387.005 127.646C386.967 127.641 386.93 127.629 386.896 127.61C386.856 127.593 386.82 127.566 386.792 127.533C386.764 127.499 386.744 127.46 386.735 127.417C386.73 127.396 386.73 127.374 386.735 127.353L385.341 118.796Z" fill="black"/>
<path d="M382.375 147.476C382.375 147.671 382.336 147.864 382.26 148.044C382.184 148.224 382.074 148.387 381.934 148.524C381.794 148.66 381.629 148.768 381.447 148.84C381.266 148.913 381.071 148.948 380.875 148.945H380.609V150.976C380.582 151.348 380.414 151.696 380.14 151.949C379.865 152.203 379.505 152.344 379.13 152.344C378.756 152.344 378.395 152.203 378.121 151.949C377.847 151.696 377.679 151.348 377.651 150.976V148.945H369.221C368.885 148.957 368.557 148.842 368.302 148.624C368.146 148.507 368.016 148.36 367.919 148.192C367.822 148.023 367.761 147.837 367.738 147.644C367.716 147.451 367.733 147.256 367.788 147.07C367.843 146.884 367.936 146.711 368.06 146.561L377.99 134.272C377.99 134.272 377.99 134.272 378.046 134.216C378.081 134.188 378.108 134.152 378.127 134.112C378.177 134.093 378.223 134.066 378.264 134.031L378.369 133.951C378.425 133.951 378.449 133.895 378.53 133.895C378.538 133.873 378.552 133.854 378.57 133.839C378.589 133.825 378.611 133.817 378.635 133.815C378.686 133.792 378.74 133.776 378.796 133.767C378.832 133.781 378.873 133.781 378.909 133.767H379.36C379.405 133.781 379.453 133.781 379.497 133.767C379.497 133.767 379.602 133.767 379.658 133.815H379.763L379.9 133.919L380.029 133.999C380.029 133.999 380.11 133.999 380.11 134.056C380.143 134.092 380.177 134.127 380.214 134.16L380.295 134.264C380.334 134.306 380.369 134.352 380.4 134.401C380.409 134.44 380.428 134.476 380.456 134.505C380.456 134.561 380.456 134.585 380.513 134.666C380.569 134.746 380.513 134.746 380.513 134.778C380.527 134.831 380.527 134.886 380.513 134.939C380.513 134.987 380.513 135.019 380.513 135.067V145.943H380.779C380.987 145.93 381.196 145.96 381.392 146.031C381.588 146.103 381.767 146.214 381.917 146.359C382.067 146.503 382.185 146.677 382.264 146.869C382.343 147.062 382.381 147.269 382.375 147.476ZM377.651 139.401L372.316 145.999H377.651V139.401Z" fill="white"/>
<path d="M406.778 112.319C406.778 112.319 409.019 108.65 405.762 107.037C402.506 105.424 401.031 109.445 401.031 109.445L406.778 112.319Z" fill="#DD6A57"/>
<path d="M388.031 136.591L393.778 139.433L406.851 112.166L401.105 109.324L388.031 136.591Z" fill="#D0D0D0"/>
<path d="M400.18 110.023L406.886 113.346L407.41 112.263L400.704 108.939L400.18 110.023Z" fill="white"/>
<path d="M399.605 111.227L406.311 114.542L406.835 113.459L400.121 110.144L399.605 111.227Z" fill="white"/>
<path d="M388.031 136.6L388.579 141.039L388.749 142.5L390.006 141.745L393.778 139.441L393.528 138.478L392.634 138.879L392.376 137.908L391.481 138.31L391.239 137.346L390.328 137.74L390.087 136.776L389.184 137.17L388.934 136.207L388.031 136.6Z" fill="black"/>
<path d="M388.58 141.03L388.749 142.491L390.007 141.737L388.58 141.03Z" fill="#37474F"/>
<path d="M390.42 135.701C391.226 133.766 392.032 131.856 392.886 129.954C393.741 128.051 394.635 126.181 395.514 124.287C396.392 122.392 397.335 120.546 398.286 118.668C399.238 116.79 400.197 114.96 401.228 113.146C400.422 115.088 399.616 116.99 398.762 118.893C397.908 120.795 397.013 122.673 396.134 124.56C395.256 126.446 394.313 128.308 393.362 130.178C392.411 132.049 391.452 133.887 390.42 135.701Z" fill="white"/>
<path d="M393.021 136.945C393.827 135.002 394.633 133.1 395.48 131.198C396.326 129.295 397.237 127.417 398.107 125.531C398.978 123.644 399.937 121.782 400.88 119.912C401.823 118.042 402.79 116.212 403.822 114.397C403.056 116.332 402.21 118.242 401.364 120.145C400.517 122.047 399.606 123.917 398.728 125.812C397.849 127.706 396.906 129.552 395.955 131.43C395.004 133.309 394.045 135.123 393.021 136.945Z" fill="white"/>
<path d="M291.442 120.161C282.872 120.16 274.494 122.689 267.367 127.43C260.24 132.17 254.685 138.909 251.404 146.794C248.123 154.679 247.264 163.356 248.935 171.727C250.606 180.098 254.732 187.788 260.792 193.823C266.851 199.859 274.572 203.97 282.978 205.635C291.383 207.301 300.096 206.447 308.014 203.181C315.932 199.915 322.7 194.384 327.462 187.288C332.223 180.191 334.765 171.848 334.765 163.313C334.765 151.87 330.201 140.895 322.076 132.803C313.952 124.711 302.933 120.163 291.442 120.161ZM291.442 183.46C287.439 183.462 283.525 182.281 280.195 180.067C276.866 177.853 274.27 174.705 272.738 171.022C271.205 167.339 270.803 163.285 271.584 159.375C272.365 155.465 274.292 151.872 277.123 149.053C279.954 146.234 283.561 144.314 287.488 143.537C291.414 142.759 295.484 143.159 299.183 144.686C302.881 146.212 306.042 148.797 308.265 152.112C310.489 155.428 311.674 159.326 311.673 163.313C311.671 168.656 309.539 173.779 305.745 177.557C301.951 181.335 296.807 183.458 291.442 183.46Z" fill="#D0D0D0"/>
<path d="M299.767 121.951H283.107L284.034 110.208H298.849L299.767 121.951Z" fill="#D0D0D0"/>
<path d="M268.059 127.545L256.275 139.272L248.586 130.323L259.064 119.888L268.059 127.545Z" fill="#D0D0D0"/>
<path d="M249.602 153.825V170.417L237.811 169.502V154.74L249.602 153.825Z" fill="#D0D0D0"/>
<path d="M255.22 185.411L266.996 197.138L258.009 204.795L247.531 194.361L255.22 185.411Z" fill="#D0D0D0"/>
<path d="M281.607 203.784H298.267L297.349 215.527H282.526L281.607 203.784Z" fill="#D0D0D0"/>
<path d="M313.324 198.197L325.1 186.462L332.789 195.42L322.311 205.855L313.324 198.197Z" fill="#D0D0D0"/>
<path d="M331.775 171.91V155.318L343.567 156.233V170.995L331.775 171.91Z" fill="#D0D0D0"/>
<path d="M326.163 140.332L314.379 128.597L323.374 120.939L333.852 131.374L326.163 140.332Z" fill="#D0D0D0"/>
<path d="M265.81 170.377C265.78 170.359 265.753 170.336 265.732 170.308C265.712 170.28 265.696 170.249 265.688 170.215C265.68 170.181 265.679 170.146 265.684 170.112C265.69 170.077 265.703 170.045 265.721 170.015C266.258 169.149 266.49 168.13 266.382 167.118C266.3 166.466 266.018 165.855 265.576 165.368C265.412 165.176 265.202 165.027 264.966 164.935C264.73 164.842 264.474 164.809 264.222 164.838C263.989 164.877 263.771 164.975 263.588 165.125C263.405 165.274 263.266 165.469 263.183 165.689C262.925 166.335 262.794 167.024 262.796 167.72C262.803 168.431 262.663 169.136 262.385 169.791C262.276 170.068 262.097 170.312 261.865 170.501C261.634 170.689 261.357 170.815 261.063 170.866C260.749 170.904 260.431 170.866 260.135 170.755C259.839 170.645 259.574 170.466 259.362 170.232C258.862 169.705 258.543 169.033 258.451 168.314C258.36 167.37 258.559 166.421 259.024 165.593C259.056 165.529 259.113 165.482 259.18 165.459C259.248 165.437 259.322 165.441 259.386 165.472C259.419 165.485 259.448 165.504 259.472 165.529C259.496 165.554 259.515 165.584 259.526 165.617C259.538 165.65 259.542 165.685 259.539 165.719C259.535 165.754 259.525 165.787 259.507 165.817C259.088 166.547 258.902 167.387 258.975 168.225C259.06 168.824 259.324 169.384 259.733 169.831C259.888 170.004 260.082 170.138 260.299 170.222C260.516 170.306 260.75 170.337 260.982 170.312C261.193 170.271 261.389 170.175 261.55 170.034C261.711 169.893 261.833 169.712 261.901 169.51C262.148 168.912 262.271 168.27 262.264 167.623C262.257 166.857 262.408 166.098 262.707 165.392C262.828 165.094 263.023 164.831 263.274 164.629C263.525 164.427 263.824 164.292 264.142 164.236C264.478 164.201 264.819 164.245 265.135 164.365C265.452 164.485 265.735 164.677 265.963 164.926C266.497 165.49 266.841 166.206 266.947 166.973C267.057 168.108 266.797 169.248 266.205 170.224C266.191 170.262 266.17 170.296 266.142 170.324C266.113 170.353 266.08 170.375 266.042 170.389C266.005 170.404 265.965 170.41 265.925 170.408C265.885 170.406 265.846 170.395 265.81 170.377Z" fill="black"/>
<path d="M258.993 159.316L258.646 161.828C258.634 161.906 258.592 161.975 258.529 162.022C258.465 162.069 258.386 162.088 258.308 162.077C258.232 162.063 258.165 162.022 258.119 161.961C258.072 161.9 258.051 161.824 258.058 161.748L258.864 156.129C258.876 156.053 258.917 155.984 258.979 155.938C259.04 155.892 259.118 155.871 259.194 155.88C259.233 155.884 259.271 155.896 259.306 155.915C259.34 155.933 259.37 155.959 259.394 155.99C259.418 156.021 259.436 156.056 259.446 156.094C259.456 156.131 259.458 156.171 259.452 156.209L259.106 158.722L266.618 159.749C266.695 159.76 266.764 159.8 266.811 159.862C266.858 159.924 266.878 160.001 266.868 160.078C266.857 160.155 266.816 160.224 266.754 160.271C266.692 160.317 266.614 160.338 266.537 160.327L258.993 159.316Z" fill="black"/>
<path d="M267.777 150.839C267.546 150.733 267.292 150.687 267.039 150.704C266.785 150.721 266.54 150.8 266.326 150.935C266.01 151.115 265.736 151.359 265.52 151.65L265.471 151.69L264.625 153.552L267.672 154.933C267.743 154.966 267.799 155.026 267.826 155.1C267.853 155.173 267.85 155.255 267.817 155.326C267.784 155.395 267.725 155.449 267.653 155.476C267.58 155.503 267.501 155.501 267.43 155.471L260.248 152.26C260.183 152.228 260.132 152.174 260.104 152.108C260.075 152.041 260.072 151.967 260.095 151.899L261.071 149.763C261.299 149.265 261.69 148.859 262.181 148.612C262.672 148.365 263.233 148.292 263.771 148.405C264.309 148.519 264.792 148.811 265.141 149.235C265.489 149.658 265.683 150.187 265.689 150.735L265.794 150.654C266.1 150.418 266.465 150.268 266.85 150.223C267.235 150.178 267.625 150.238 267.978 150.398C268.274 150.542 268.589 150.644 268.913 150.703C268.989 150.727 269.071 150.727 269.147 150.703C269.169 150.638 269.212 150.582 269.268 150.543C269.325 150.504 269.392 150.484 269.461 150.486C269.539 150.499 269.609 150.54 269.659 150.6C269.709 150.66 269.736 150.737 269.735 150.815L269.687 150.959C269.626 151.06 269.541 151.143 269.44 151.202C269.338 151.261 269.224 151.293 269.106 151.297C268.634 151.249 268.178 151.092 267.777 150.839ZM261.651 149.916L260.789 151.85L264.109 153.351L264.915 151.505L264.964 151.409C265.124 150.973 265.112 150.493 264.93 150.066C264.747 149.639 264.408 149.298 263.981 149.112C263.554 148.925 263.072 148.908 262.633 149.064C262.194 149.219 261.832 149.535 261.619 149.948L261.651 149.916Z" fill="black"/>
<path d="M272.242 144.305L269.728 147.219L270.759 149.081C270.793 149.131 270.81 149.19 270.81 149.25C270.81 149.31 270.793 149.368 270.759 149.418C270.734 149.444 270.707 149.469 270.679 149.491C270.609 149.526 270.528 149.533 270.453 149.51C270.378 149.488 270.315 149.438 270.276 149.37L266.246 142.058C266.222 142.002 266.215 141.941 266.225 141.881C266.235 141.821 266.262 141.766 266.302 141.721C266.338 141.672 266.389 141.635 266.446 141.617C266.504 141.598 266.567 141.598 266.624 141.616L274.499 144.49C274.571 144.517 274.63 144.57 274.664 144.639C274.698 144.707 274.706 144.786 274.684 144.859C274.684 144.859 274.684 144.923 274.628 144.955C274.586 144.998 274.533 145.028 274.474 145.042C274.416 145.057 274.355 145.054 274.298 145.036L272.242 144.305ZM269.421 146.713L271.654 144.129L267.092 142.467L269.421 146.713Z" fill="black"/>
<path d="M272.178 137.017L270.082 138.486C270.017 138.529 269.937 138.545 269.86 138.53C269.783 138.515 269.716 138.47 269.671 138.406C269.627 138.344 269.609 138.267 269.621 138.192C269.633 138.117 269.674 138.049 269.736 138.005L274.378 134.73C274.442 134.697 274.516 134.689 274.586 134.707C274.655 134.724 274.716 134.766 274.757 134.824C274.798 134.883 274.817 134.954 274.809 135.025C274.802 135.096 274.769 135.162 274.717 135.211L272.638 136.68L277.022 142.837C277.067 142.9 277.085 142.978 277.073 143.054C277.061 143.131 277.02 143.2 276.958 143.246C276.893 143.288 276.814 143.304 276.738 143.29C276.662 143.277 276.593 143.235 276.547 143.174L272.178 137.017Z" fill="black"/>
<path d="M278.337 133.076C278.313 133.004 278.318 132.925 278.351 132.856C278.384 132.787 278.443 132.734 278.514 132.707L282.593 131.278C282.663 131.262 282.737 131.273 282.801 131.308C282.864 131.342 282.913 131.399 282.938 131.467C282.962 131.535 282.961 131.609 282.935 131.676C282.909 131.744 282.858 131.799 282.794 131.832L278.974 133.172L280.086 136.311L283.423 135.147C283.493 135.131 283.568 135.142 283.631 135.177C283.695 135.211 283.743 135.268 283.768 135.336C283.793 135.404 283.792 135.478 283.765 135.545C283.739 135.612 283.689 135.668 283.624 135.701L280.279 136.873L281.384 140.003L285.204 138.671C285.241 138.657 285.28 138.651 285.32 138.653C285.359 138.655 285.398 138.665 285.433 138.682C285.469 138.699 285.5 138.723 285.526 138.753C285.552 138.783 285.571 138.818 285.583 138.855C285.606 138.928 285.601 139.007 285.568 139.075C285.535 139.144 285.477 139.197 285.405 139.225L281.367 140.613H281.327C281.256 140.63 281.18 140.62 281.115 140.587C281.05 140.553 281 140.497 280.972 140.429L278.337 133.076Z" fill="black"/>
<path d="M291.093 134.801C291.055 134.804 291.016 134.798 290.979 134.785C290.943 134.772 290.909 134.752 290.881 134.725C290.852 134.699 290.829 134.668 290.813 134.632C290.797 134.597 290.788 134.559 290.787 134.52C290.785 134.481 290.791 134.441 290.804 134.404C290.818 134.366 290.839 134.332 290.866 134.303C290.893 134.274 290.925 134.25 290.962 134.234C290.998 134.217 291.037 134.208 291.077 134.207L293.689 134.151C293.763 134.159 293.832 134.193 293.882 134.248C293.932 134.303 293.961 134.374 293.963 134.448L294.027 137.338V137.402C294.019 137.484 293.982 137.561 293.922 137.619C293.154 138.242 292.197 138.589 291.206 138.606C290.629 138.64 290.052 138.558 289.508 138.364C288.964 138.171 288.464 137.87 288.04 137.48C287.615 137.09 287.274 136.619 287.036 136.094C286.799 135.57 286.67 135.003 286.657 134.428C286.645 133.852 286.749 133.281 286.963 132.746C287.178 132.212 287.499 131.727 287.906 131.319C288.313 130.911 288.799 130.589 289.334 130.372C289.87 130.155 290.443 130.048 291.021 130.058C292.017 130.037 292.99 130.351 293.785 130.949C293.844 130.998 293.881 131.069 293.888 131.145C293.896 131.221 293.873 131.298 293.826 131.358C293.776 131.419 293.705 131.459 293.627 131.47C293.549 131.48 293.47 131.46 293.407 131.414C292.859 130.992 292.205 130.732 291.516 130.662C290.828 130.593 290.134 130.717 289.513 131.02C288.892 131.324 288.369 131.794 288.003 132.379C287.637 132.964 287.443 133.639 287.443 134.328C287.443 135.017 287.637 135.692 288.003 136.277C288.369 136.861 288.892 137.332 289.513 137.635C290.134 137.939 290.828 138.063 291.516 137.993C292.205 137.924 292.859 137.663 293.407 137.242L293.35 134.761L291.093 134.801Z" fill="black"/>
<path d="M299.469 135.677L297.857 131.166C297.833 131.095 297.837 131.017 297.869 130.948C297.9 130.88 297.957 130.826 298.027 130.797C298.061 130.779 298.1 130.768 298.139 130.767C298.179 130.765 298.218 130.772 298.254 130.788C298.29 130.803 298.323 130.826 298.349 130.856C298.375 130.885 298.394 130.92 298.405 130.957L299.929 135.171L303.507 132.434C303.538 132.411 303.573 132.393 303.61 132.384C303.648 132.375 303.687 132.374 303.725 132.38C303.763 132.387 303.799 132.402 303.831 132.424C303.863 132.445 303.89 132.474 303.91 132.507C303.934 132.537 303.951 132.572 303.961 132.609C303.971 132.646 303.974 132.685 303.969 132.723C303.963 132.761 303.951 132.798 303.931 132.831C303.911 132.864 303.885 132.893 303.854 132.916L300.034 135.798L298.97 139.426C298.959 139.463 298.942 139.498 298.918 139.528C298.894 139.558 298.864 139.583 298.831 139.602C298.797 139.621 298.76 139.632 298.721 139.637C298.683 139.641 298.644 139.637 298.607 139.626C298.533 139.604 298.47 139.554 298.433 139.486C298.395 139.419 298.385 139.34 298.405 139.265L299.469 135.677Z" fill="black"/>
<path d="M295.288 162.679C295.911 163.288 296.406 164.015 296.742 164.817C297.078 165.619 297.25 166.481 297.247 167.35C297.249 168.664 296.86 169.95 296.128 171.043C295.396 172.137 294.355 172.989 293.136 173.493C291.917 173.997 290.576 174.129 289.282 173.873C287.987 173.617 286.799 172.984 285.866 172.054C285.582 171.771 285.422 171.387 285.422 170.986C285.422 170.586 285.582 170.202 285.866 169.919C286.15 169.636 286.536 169.477 286.938 169.477C287.34 169.477 287.726 169.636 288.01 169.919C288.346 170.252 288.745 170.515 289.183 170.694C289.621 170.873 290.091 170.964 290.565 170.962C291.525 170.96 292.448 170.586 293.136 169.919C293.478 169.584 293.749 169.184 293.933 168.742C294.117 168.301 294.21 167.828 294.208 167.35C294.213 166.877 294.12 166.408 293.935 165.972C293.751 165.535 293.479 165.141 293.136 164.814C292.804 164.476 292.408 164.207 291.971 164.024C291.533 163.841 291.064 163.746 290.589 163.746C290.38 163.757 290.171 163.719 289.98 163.635C289.788 163.552 289.619 163.425 289.485 163.265C289.197 162.987 289.029 162.608 289.019 162.209C289.008 161.809 289.155 161.422 289.428 161.13L292.169 158.352H287.816C287.415 158.352 287.029 158.193 286.745 157.91C286.461 157.627 286.301 157.243 286.301 156.843C286.301 156.443 286.461 156.059 286.745 155.776C287.029 155.493 287.415 155.334 287.816 155.334H295.731C295.931 155.331 296.129 155.367 296.314 155.441C296.499 155.514 296.667 155.624 296.81 155.762C296.952 155.901 297.066 156.067 297.143 156.25C297.221 156.432 297.262 156.629 297.263 156.827C297.256 157.08 297.19 157.327 297.069 157.55C296.995 157.685 296.906 157.811 296.803 157.927L293.426 161.394C294.121 161.705 294.752 162.14 295.288 162.679Z" fill="white"/>
<path d="M320.514 131.431C323.296 131.431 325.552 129.185 325.552 126.414C325.552 123.644 323.296 121.397 320.514 121.397C317.732 121.397 315.477 123.644 315.477 126.414C315.477 129.185 317.732 131.431 320.514 131.431Z" fill="#30BABA"/>
<path d="M325.849 130.66H315.17V132.193H325.849V130.66Z" fill="#30BABA"/>
<path opacity="0.1" d="M325.849 130.66H315.17V132.193H325.849V130.66Z" fill="black"/>
<path d="M331.328 151.771H309.695V153.304H331.328V151.771Z" fill="#30BABA"/>
<path opacity="0.1" d="M331.328 151.771H309.695V153.304H331.328V151.771Z" fill="black"/>
<path d="M331.328 156.073H309.695V157.606H331.328V156.073Z" fill="#30BABA"/>
<path opacity="0.1" d="M331.328 156.073H309.695V157.606H331.328V156.073Z" fill="black"/>
<path d="M330.525 153.304H310.504V156.073H330.525V153.304Z" fill="#30BABA"/>
<path d="M324.865 132.193H316.152V133.726H324.865V132.193Z" fill="#30BABA"/>
<path d="M329.363 151.771H311.631C311.631 151.771 315.661 147.757 316.507 142.941C317.216 138.88 317.555 133.727 317.555 133.727H323.398C323.398 133.727 323.745 138.88 324.454 142.941C325.325 147.749 329.363 151.771 329.363 151.771Z" fill="#30BABA"/>
<path d="M79.8662 78.3894L79.3906 77.7312C80.2369 77.1292 80.7366 76.8322 80.7608 76.8242L81.1719 77.5145C80.7216 77.7833 80.2858 78.0753 79.8662 78.3894Z" fill="white"/>
<path d="M291.039 217.084C289.942 217.084 288.854 217.036 287.815 216.972L287.863 216.169C288.903 216.233 289.983 216.266 291.087 216.282L291.039 217.084ZM294.263 217.02L294.222 216.217C295.294 216.169 296.366 216.081 297.39 215.952L297.487 216.755C296.487 216.868 295.407 216.964 294.311 217.02H294.263ZM284.55 216.699C283.47 216.579 282.398 216.426 281.326 216.249L281.463 215.447C282.503 215.623 283.559 215.776 284.631 215.896L284.55 216.699ZM300.67 216.249L300.509 215.447C301.565 215.238 302.605 214.981 303.596 214.692L303.822 215.495C302.871 215.776 301.815 216.065 300.711 216.249H300.67ZM278.159 215.607C277.095 215.35 276.047 215.07 275.031 214.748L275.265 213.946C276.265 214.251 277.304 214.532 278.344 214.748L278.159 215.607ZM306.949 214.459L306.651 213.713C307.631 213.324 308.589 212.882 309.52 212.389L309.899 213.103C308.948 213.569 307.965 214.018 306.949 214.459ZM272.033 213.657C271.026 213.264 270.026 212.854 269.059 212.373L269.406 211.65C270.357 212.1 271.34 212.525 272.323 212.91L272.033 213.657ZM312.688 211.385L312.236 210.719C313.116 210.134 313.964 209.501 314.775 208.825L315.291 209.443C314.457 210.144 313.588 210.803 312.688 211.417V211.385ZM266.182 210.88C265.247 210.35 264.32 209.78 263.417 209.178L263.868 208.512C264.747 209.098 265.666 209.659 266.576 210.181L266.182 210.88ZM260.781 207.292C259.975 206.649 259.097 205.959 258.283 205.245L258.807 204.643C259.613 205.341 260.419 206.023 261.273 206.657L260.781 207.292ZM317.685 207.251L317.113 206.69C317.838 205.959 318.555 205.164 319.24 204.338L319.861 204.843C319.16 205.726 318.443 206.537 317.685 207.284V207.251ZM255.905 203.053C255.155 202.315 254.398 201.536 253.648 200.734L254.237 200.188C254.978 200.991 255.728 201.793 256.469 202.476L255.905 203.053ZM321.82 202.251L321.159 201.793C321.755 200.942 322.336 200.043 322.892 199.12L323.585 199.53C323.013 200.517 322.424 201.432 321.82 202.299V202.251ZM251.496 198.294C250.827 197.491 250.142 196.688 249.457 195.789L250.086 195.292C250.771 196.158 251.456 196.993 252.117 197.772L251.496 198.294ZM325.157 196.688L324.447 196.319C324.915 195.412 325.39 194.449 325.842 193.453L326.575 193.782C326.116 194.858 325.64 195.837 325.157 196.752V196.688ZM247.515 193.277C246.878 192.418 246.249 191.543 245.62 190.668L246.281 190.203C246.902 191.077 247.531 191.944 248.159 192.803L247.515 193.277ZM327.881 190.869L327.139 190.564C327.526 189.609 327.945 188.605 328.292 187.578L329.05 187.859C328.647 188.91 328.252 189.922 327.857 190.885L327.881 190.869ZM243.775 188.003C243.17 187.12 242.574 186.237 241.969 185.338L242.646 184.897C243.243 185.788 243.839 186.671 244.444 187.554L243.775 188.003ZM330.113 184.792L329.348 184.544C329.686 183.532 330.009 182.521 330.331 181.485L331.097 181.726C330.758 182.794 330.428 183.813 330.089 184.825L330.113 184.792ZM240.188 182.649L238.399 179.96L239.076 179.519L240.857 182.208L240.188 182.649ZM332.016 178.636L331.21 178.411C331.508 177.392 331.79 176.364 332.08 175.321L332.886 175.53C332.591 176.594 332.292 177.641 331.991 178.668L332.016 178.636ZM236.609 177.287C236.005 176.404 235.4 175.514 234.788 174.639L235.449 174.181C236.061 175.064 236.674 175.947 237.27 176.838L236.609 177.287ZM333.716 172.415L332.91 172.214C333.174 171.187 333.442 170.152 333.716 169.108L334.522 169.301C334.224 170.376 333.958 171.42 333.692 172.447L333.716 172.415ZM232.966 172.014C232.338 171.147 231.701 170.28 231.056 169.429L231.701 168.948C232.354 169.806 232.99 170.673 233.619 171.54L232.966 172.014ZM229.081 166.901C228.404 166.05 227.711 165.223 227.034 164.437L227.647 163.915C228.332 164.717 229.025 165.52 229.718 166.403L229.081 166.901ZM335.328 166.178L334.522 165.986L335.328 162.863L336.134 163.056L335.328 166.178ZM224.906 162.045C224.173 161.242 223.415 160.487 222.674 159.749L223.238 159.179C223.995 159.917 224.753 160.704 225.495 161.499L224.906 162.045ZM336.884 159.95L336.078 159.749C336.336 158.713 336.602 157.678 336.884 156.634L337.69 156.835C337.343 157.903 337.077 158.938 336.819 159.982L336.884 159.95ZM103.95 158.007C102.87 158.007 101.774 157.927 100.726 157.83L100.798 157.028C101.854 157.116 102.926 157.18 104.022 157.196L103.95 158.007ZM107.174 157.951V157.148C108.23 157.084 109.302 156.988 110.349 156.851L110.454 157.654C109.334 157.822 108.238 157.919 107.158 157.983L107.174 157.951ZM220.296 157.566C219.49 156.851 218.684 156.161 217.878 155.503L218.386 154.877C219.192 155.543 220.046 156.249 220.852 156.972L220.296 157.566ZM97.4293 157.469C96.3654 157.293 95.2934 157.076 94.2053 156.827L94.3907 156.024C95.4143 156.273 96.4702 156.482 97.518 156.651L97.4293 157.469ZM113.606 157.156L113.445 156.354C114.484 156.137 115.524 155.88 116.548 155.551L116.765 156.354C115.734 156.667 114.67 156.923 113.606 157.148V157.156ZM91.1022 155.976C90.0705 155.647 89.0388 155.286 88.0394 154.893L88.3376 154.146C89.3129 154.531 90.3284 154.893 91.344 155.206L91.1022 155.976ZM119.86 155.439L119.618 154.636L122.697 153.673L122.939 154.435C121.924 154.796 120.892 155.117 119.86 155.43V155.439ZM338.415 153.761L337.609 153.552C337.883 152.517 338.165 151.473 338.456 150.438L339.262 150.655C338.971 151.674 338.689 152.717 338.415 153.753V153.761ZM215.275 153.608C214.412 152.99 213.526 152.388 212.631 151.826L213.058 151.152C213.969 151.722 214.872 152.332 215.75 152.958L215.275 153.608ZM85.0411 153.608C84.0658 153.135 83.0986 152.629 82.1637 152.099L82.5667 151.401C83.4774 151.923 84.4285 152.42 85.3877 152.878L85.0411 153.608ZM125.994 153.504L125.752 152.742L128.815 151.754L129.065 152.517L125.994 153.504ZM132.128 151.521L131.878 150.759L134.949 149.764L135.198 150.566L132.128 151.521ZM79.3991 150.382C78.5044 149.772 77.6259 149.129 76.7796 148.463L77.2793 147.829C78.0853 148.487 78.9719 149.121 79.8585 149.715L79.3991 150.382ZM209.882 150.221C208.956 149.715 207.996 149.226 207.045 148.768L207.392 148.046C208.359 148.503 209.326 149.001 210.269 149.523L209.882 150.221ZM138.261 149.547L138.019 148.744L141.123 147.837L141.364 148.64L138.261 149.547ZM144.419 147.644L144.185 146.842C145.225 146.529 146.257 146.232 147.288 145.943L147.506 146.745L144.419 147.644ZM340.116 147.572L339.31 147.347C339.608 146.32 339.922 145.285 340.237 144.265L341.043 144.506C340.737 145.501 340.43 146.529 340.132 147.556L340.116 147.572ZM204.12 147.476C203.233 147.115 202.322 146.778 201.411 146.457L201.129 146.36L201.395 145.598L201.605 145.67C202.604 146.023 203.531 146.368 204.426 146.737L204.12 147.476ZM74.3535 146.344C73.5475 145.606 72.7899 144.835 72.0645 144.04L72.6609 143.503C73.3702 144.305 74.1278 145.036 74.9016 145.758L74.3535 146.344ZM150.649 145.903L150.448 145.1C151.496 144.827 152.536 144.562 153.583 144.297L153.769 145.1C152.713 145.349 151.673 145.614 150.625 145.887L150.649 145.903ZM198.115 145.373C197.091 145.06 196.051 144.771 195.028 144.506L195.229 143.703C196.261 143.976 197.309 144.265 198.349 144.578L198.115 145.373ZM156.904 144.394L156.735 143.591C157.791 143.366 158.847 143.149 159.902 142.949L160.056 143.751C158.984 143.936 157.928 144.153 156.88 144.378L156.904 144.394ZM191.909 143.768C190.869 143.551 189.805 143.342 188.757 143.166L188.894 142.363C189.958 142.547 191.022 142.748 192.078 142.981L191.909 143.768ZM163.223 143.206L163.094 142.403C164.174 142.234 165.254 142.082 166.318 141.953L166.415 142.756C165.303 142.869 164.263 143.021 163.199 143.19L163.223 143.206ZM185.59 142.7C184.526 142.564 183.454 142.451 182.366 142.371L182.43 141.568C183.502 141.657 184.582 141.769 185.654 141.897L185.59 142.7ZM169.59 142.427L169.518 141.624C170.598 141.536 171.686 141.464 172.742 141.416V142.218C171.751 142.218 170.638 142.323 169.566 142.411L169.59 142.427ZM179.198 142.178C178.263 142.146 177.336 142.13 176.417 142.13H175.99V141.327H176.417C177.344 141.327 178.287 141.327 179.23 141.376L179.198 142.178ZM69.9608 141.56C69.2999 140.709 68.6632 139.818 68.0748 138.919L68.7518 138.478C69.3241 139.361 69.9528 140.236 70.5976 141.071L69.9608 141.56ZM342.066 141.448L341.301 141.199C341.639 140.172 341.994 139.16 342.357 138.149L343.114 138.422C342.727 139.409 342.381 140.42 342.042 141.416L342.066 141.448ZM66.4144 136.126C65.8986 135.179 65.423 134.2 64.9959 133.212L65.7293 132.891C66.1565 133.862 66.624 134.818 67.1237 135.749L66.4144 136.126ZM344.235 135.412L343.485 135.123C343.88 134.111 344.291 133.124 344.71 132.137L345.452 132.458C345.041 133.429 344.621 134.416 344.235 135.412ZM63.7949 130.178C63.4483 129.167 63.1421 128.123 62.8761 127.072L63.6821 126.879C63.94 127.907 64.2463 128.926 64.5848 129.921L63.7949 130.178ZM346.765 129.552L346.04 129.207C346.516 128.212 346.999 127.24 347.491 126.317L348.2 126.695C347.725 127.594 347.241 128.573 346.765 129.544V129.552ZM349.756 123.933L349.062 123.532C349.611 122.593 350.191 121.67 350.771 120.779L351.448 121.22C350.868 122.055 350.304 122.954 349.756 123.893V123.933ZM62.2152 123.933C62.1184 123.355 62.0298 122.778 61.9572 122.192C61.8847 121.606 61.8363 121.204 61.788 120.723L62.594 120.642C62.6423 121.124 62.6988 121.606 62.7552 122.095C62.8116 122.585 62.9083 123.235 63.005 123.797L62.2152 123.933ZM353.278 118.604L352.625 118.13C353.27 117.263 353.947 116.404 354.624 115.602L355.245 116.115C354.576 116.87 353.907 117.713 353.278 118.563V118.604ZM61.5059 117.496C61.4656 116.597 61.4414 115.69 61.4414 114.799V114.269H62.2474V114.799C62.2474 115.682 62.2474 116.573 62.3119 117.464L61.5059 117.496ZM357.308 113.739L356.728 113.185C357.477 112.383 358.251 111.636 359.033 110.922L359.581 111.516C358.872 112.182 358.106 112.929 357.364 113.699L357.308 113.739ZM62.4167 111.05L61.6107 110.994C61.6832 109.919 61.796 108.835 61.9331 107.783L62.7391 107.888C62.602 108.923 62.4973 109.991 62.4167 111.05ZM362.055 109.445L361.547 108.819C362.353 108.153 363.264 107.503 364.151 106.892L364.61 107.551C363.74 108.113 362.877 108.747 362.055 109.405V109.445ZM367.294 105.833L366.875 105.143C367.802 104.597 368.761 104.075 369.728 103.593L370.091 104.308C369.14 104.741 368.197 105.295 367.294 105.793V105.833ZM63.271 104.741L62.465 104.581C62.6826 103.521 62.9406 102.462 63.2227 101.434L64.0287 101.651C63.7466 102.662 63.4886 103.69 63.271 104.741ZM64.9717 98.6088L64.214 98.3439C64.5767 97.3326 65.02 96.3212 65.4069 95.3339L66.1646 95.663C65.7213 96.6182 65.3586 97.6135 64.9717 98.6088ZM67.5348 92.7894L66.8174 92.4523C67.3252 91.4971 67.8652 90.558 68.4294 89.6429L69.1145 90.0683C68.5826 90.9192 68.0264 91.8503 67.5348 92.7894ZM70.9119 87.3954L70.259 86.9218C70.8958 86.0469 71.5728 85.1961 72.274 84.3693L72.8866 84.8911C72.2015 85.6937 71.5406 86.5365 70.9119 87.3954ZM75.0306 82.5392L74.4583 81.9773C75.224 81.1746 76.0219 80.4522 76.8279 79.7539L77.3599 80.3639C76.5861 81.0462 75.8366 81.7767 75.0306 82.5392Z" fill="white"/>
<path d="M373.34 102.775L373.025 102.037C373.525 101.828 374.025 101.627 374.541 101.435L374.831 102.189C374.323 102.374 373.831 102.574 373.34 102.775Z" fill="white"/>
<path d="M83.4611 83.2221C86.8157 81.8465 88.4154 78.0231 87.0341 74.6823C85.6528 71.3414 81.8135 69.7483 78.4589 71.124C75.1042 72.4996 73.5045 76.323 74.8859 79.6638C76.2672 83.0047 80.1064 84.5978 83.4611 83.2221Z" fill="white"/>
<path d="M196.042 150.47C199.669 150.47 202.61 147.542 202.61 143.929C202.61 140.316 199.669 137.387 196.042 137.387C192.414 137.387 189.473 140.316 189.473 143.929C189.473 147.542 192.414 150.47 196.042 150.47Z" fill="white"/>
<path d="M374.684 108.353C378.312 108.353 381.253 105.424 381.253 101.811C381.253 98.1984 378.312 95.2695 374.684 95.2695C371.056 95.2695 368.115 98.1984 368.115 101.811C368.115 105.424 371.056 108.353 374.684 108.353Z" fill="white"/>
<path d="M291.731 224.517C295.359 224.517 298.3 221.588 298.3 217.975C298.3 214.362 295.359 211.433 291.731 211.433C288.103 211.433 285.162 214.362 285.162 217.975C285.162 221.588 288.103 224.517 291.731 224.517Z" fill="white"/>
</svg>
