<svg width="34" height="26" viewBox="0 0 34 26" fill="none" xmlns="http://www.w3.org/2000/svg">
<path d="M29.5634 12.0282C29.2858 12.0282 29.0428 12.063 28.7652 12.0977C27.8975 10.7788 26.5093 9.8765 24.9476 9.70297C24.6005 4.49714 20.2623 0.367188 14.9871 0.367188C10.753 0.367188 7.00481 3.00481 5.61659 6.96124C2.5625 7.62064 0.306641 10.3971 0.306641 13.5553C0.306641 17.2688 3.32602 20.3229 7.07422 20.3229H11.4471V24.9387C11.4471 25.3205 11.7595 25.6328 12.1412 25.6328H19.2906C19.6723 25.6328 19.9847 25.3205 19.9847 24.9387V20.3229H29.5287C31.8193 20.3229 33.6934 18.4488 33.6934 16.1582C33.6934 13.8676 31.854 12.0282 29.5634 12.0282ZM19.9847 18.9346V16.7829H21.3035C21.5811 16.7829 21.8241 16.6094 21.9282 16.3664C22.0323 16.1235 21.9976 15.8111 21.7894 15.6029L16.2365 9.8765C15.9588 9.59886 15.5077 9.59886 15.23 9.8765L9.64243 15.6376C9.43419 15.8459 9.39949 16.1235 9.5036 16.4011C9.60772 16.6441 9.85066 16.8176 10.1283 16.8176H11.4471V18.9694H7.03951C4.08954 18.9694 1.66016 16.5747 1.66016 13.59C1.66016 10.9524 3.63837 8.69651 6.24129 8.28005C6.51893 8.24534 6.72716 8.03711 6.79657 7.79417C7.90715 4.18479 11.2042 1.75541 14.9871 1.75541C19.7417 1.79011 23.594 5.64243 23.594 10.3624C23.594 10.7441 23.9064 11.0565 24.2882 11.0565C25.7805 11.0565 27.134 11.8894 27.7934 13.2429C27.9669 13.5553 28.314 13.6941 28.6263 13.59C28.9387 13.4859 29.2163 13.4512 29.5287 13.4512C31.0557 13.4512 32.3051 14.7006 32.3051 16.2276C32.3051 17.7547 31.0557 19.0041 29.5287 19.0041H19.9847V18.9346Z" fill="#B9BABB"/>
</svg>
