<svg height="50" viewBox="0 0 42 41" fill="none" xmlns="http://www.w3.org/2000/svg">
<path d="M39.0275 16.0481L35.8158 15.6398C35.551 14.8249 35.2247 14.0391 34.8438 13.2925L36.8271 10.7386C37.63 9.70504 37.5361 8.24613 36.6187 7.35779L33.9281 4.66717C33.0312 3.74125 31.5723 3.649 30.537 4.45021L27.9865 6.43358C27.24 6.05263 26.4541 5.72633 25.6376 5.46154L25.2293 2.255C25.0755 0.968625 23.9839 0 22.6907 0H18.864C17.5708 0 16.4792 0.968625 16.3254 2.24988L15.9171 5.46154C15.1005 5.72633 14.3147 6.05092 13.5682 6.43358L11.0159 4.45021C9.98409 3.649 8.52518 3.74125 7.63513 4.65863L4.94451 7.34754C4.01859 8.24613 3.92463 9.70504 4.72755 10.7403L6.71093 13.2925C6.32826 14.0391 6.00368 14.8249 5.73888 15.6398L2.53234 16.0481C1.24597 16.2018 0.277344 17.2935 0.277344 18.5867V22.4133C0.277344 23.7065 1.24597 24.7982 2.52722 24.9519L5.73888 25.3602C6.00368 26.1751 6.32997 26.9609 6.71093 27.7075L4.72755 30.2614C3.92463 31.295 4.01859 32.7539 4.93597 33.6422L7.62659 36.3328C8.52518 37.257 9.98238 37.3493 11.0176 36.5481L13.5699 34.5647C14.3164 34.9474 15.1023 35.2737 15.9171 35.5368L16.3254 38.7416C16.4792 40.0314 17.5708 41 18.864 41H22.6907C23.9839 41 25.0755 40.0314 25.2293 38.7501L25.6376 35.5385C26.4524 35.2737 27.2383 34.9474 27.9848 34.5664L30.5388 36.5498C31.5723 37.3527 33.0312 37.2588 33.9195 36.3414L36.6102 33.6507C37.5361 32.7522 37.63 31.295 36.8271 30.2597L34.8438 27.7075C35.2264 26.9609 35.5527 26.1751 35.8158 25.3602L39.0206 24.9519C40.307 24.7982 41.2756 23.7065 41.2756 22.4133V18.5867C41.2773 17.2935 40.3087 16.2018 39.0275 16.0481ZM20.7773 29.0417C16.0675 29.0417 12.2357 25.2099 12.2357 20.5C12.2357 15.7901 16.0675 11.9583 20.7773 11.9583C25.4872 11.9583 29.319 15.7901 29.319 20.5C29.319 25.2099 25.4872 29.0417 20.7773 29.0417Z" fill="#52CEC7"/>
</svg>
