<svg width="472" height="329" viewBox="0 0 472 329" fill="none" xmlns="http://www.w3.org/2000/svg">
<path d="M0 36.2603C0 16.378 16.1178 0.260254 36 0.260254H436C455.882 0.260254 472 16.378 472 36.2603V292.26C472 312.143 455.882 328.26 436 328.26H36C16.1177 328.26 0 312.143 0 292.26V36.2603Z" fill="white" fill-opacity="0.06"/>
<path d="M424.799 16.7042C424.799 18.3336 423.478 19.6545 421.849 19.6545C420.219 19.6545 418.898 18.3336 418.898 16.7042C418.898 15.0748 420.219 13.7539 421.849 13.7539C423.478 13.7539 424.799 15.0748 424.799 16.7042Z" fill="#3FCA90"/>
<path d="M413.862 16.7042C413.862 18.3336 412.541 19.6545 410.911 19.6545C409.282 19.6545 407.961 18.3336 407.961 16.7042C407.961 15.0748 409.282 13.7539 410.911 13.7539C412.541 13.7539 413.862 15.0748 413.862 16.7042Z" fill="#FFE073"/>
<path d="M402.901 16.7042C402.901 18.3336 401.58 19.6545 399.95 19.6545C398.321 19.6545 397 18.3336 397 16.7042C397 15.0748 398.321 13.7539 399.95 13.7539C401.58 13.7539 402.901 15.0748 402.901 16.7042Z" fill="#ED5050"/>
<path d="M408.598 275.093H65.5977V275.265H408.598V275.093Z" fill="#EBEBEB"/>
<path d="M374.23 286.167H351.508V286.339H374.23V286.167Z" fill="#EBEBEB"/>
<path d="M292.815 288.035H286.852V288.207H292.815V288.035Z" fill="#EBEBEB"/>
<path d="M350.822 279.779H337.656V279.951H350.822V279.779Z" fill="#EBEBEB"/>
<path d="M131.214 280.935H101.584V281.107H131.214V280.935Z" fill="#EBEBEB"/>
<path d="M141.667 280.935H137.322V281.107H141.667V280.935Z" fill="#EBEBEB"/>
<path d="M220.049 283.84H155.787V284.012H220.049V283.84Z" fill="#EBEBEB"/>
<path d="M228.19 244.41H95.7243C93.5654 244.41 91.8086 242.648 91.8086 240.483V53.7377C91.8086 51.5725 93.5654 49.8105 95.7243 49.8105H228.19C230.348 49.8105 232.105 51.5725 232.105 53.7377V240.483C232.105 242.648 230.348 244.41 228.19 244.41ZM95.7243 49.9832C93.6594 49.9832 91.9801 51.6675 91.9801 53.7383V240.484C91.9801 242.554 93.6594 244.239 95.7243 244.239H228.19C230.254 244.239 231.934 242.554 231.934 240.484V53.7377C231.934 51.6675 230.254 49.9825 228.19 49.9825L95.7243 49.9832Z" fill="#EBEBEB"/>
<path d="M376.568 244.41H244.103C241.944 244.41 240.188 242.648 240.188 240.483V53.7377C240.188 51.5725 241.944 49.8105 244.103 49.8105H376.568C378.727 49.8105 380.483 51.5725 380.483 53.7377V240.483C380.484 242.648 378.727 244.41 376.568 244.41ZM244.103 49.9832C242.038 49.9832 240.359 51.6675 240.359 53.7383V240.484C240.359 242.554 242.038 244.239 244.103 244.239H376.568C378.633 244.239 380.312 242.554 380.312 240.484V53.7377C380.312 51.6675 378.633 49.9825 376.568 49.9825L244.103 49.9832Z" fill="#EBEBEB"/>
<path d="M272.147 201.485H346.789V66.2117H272.147V201.485Z" fill="#E6E6E6"/>
<path d="M268.704 201.485H345.18V66.2117H268.704V201.485Z" fill="#F0F0F0"/>
<path d="M272.147 204.694H346.789V201.485H272.147V204.694Z" fill="#E6E6E6"/>
<path d="M267.463 204.694H343.939V201.485H267.463V204.694Z" fill="#F0F0F0"/>
<path d="M340.357 196.649V71.0474L273.525 71.0474V196.649H340.357Z" fill="#FAFAFA"/>
<path d="M292.428 196.649L311.243 71.0474H324.602L305.787 196.649H292.428Z" fill="white"/>
<path d="M294.549 196.649L313.363 71.0474H326.722L307.908 196.649H294.549Z" fill="white"/>
<path d="M308.656 196.649L327.471 71.0474H332.679L313.865 196.649H308.656Z" fill="white"/>
<path d="M274.137 196.65V71.0479H273.525V196.65H274.137Z" fill="#E6E6E6"/>
<path opacity="0.6" d="M267.562 74.692H342.203L342.647 72.9272H268.006L267.562 74.692Z" fill="#EBEBEB"/>
<path opacity="0.6" d="M267.562 77.5872H342.203L342.647 75.8218H268.006L267.562 77.5872Z" fill="#EBEBEB"/>
<path opacity="0.6" d="M267.562 80.4812H342.203L342.647 78.7158H268.006L267.562 80.4812Z" fill="#EBEBEB"/>
<path opacity="0.6" d="M267.562 83.376H342.203L342.647 81.6113H268.006L267.562 83.376Z" fill="#EBEBEB"/>
<path opacity="0.6" d="M267.562 86.2701H342.203L342.647 84.5054H268.006L267.562 86.2701Z" fill="#EBEBEB"/>
<path opacity="0.6" d="M267.562 89.1646H342.203L342.647 87.3999H268.006L267.562 89.1646Z" fill="#EBEBEB"/>
<path d="M361.568 58.0996H253.924V60.7078H361.568V58.0996Z" fill="#F0F0F0"/>
<path opacity="0.8" d="M359.626 55.9033H353.967V222.975H359.626V55.9033Z" fill="#FAFAFA"/>
<path opacity="0.8" d="M355.432 55.9033H353.967V222.975H355.432V55.9033Z" fill="#F0F0F0"/>
<path opacity="0.8" d="M353.965 55.9033H348.307V222.975H353.965V55.9033Z" fill="#FAFAFA"/>
<path opacity="0.8" d="M349.772 55.9033H348.307V222.975H349.772V55.9033Z" fill="#F0F0F0"/>
<path opacity="0.8" d="M348.307 55.9033H342.648V222.975H348.307V55.9033Z" fill="#FAFAFA"/>
<path opacity="0.8" d="M272.149 55.9033H266.49V222.975H272.149V55.9033Z" fill="#FAFAFA"/>
<path opacity="0.8" d="M267.955 55.9033H266.49V222.975H267.955V55.9033Z" fill="#F0F0F0"/>
<path opacity="0.8" d="M266.489 55.9033H260.83V222.975H266.489V55.9033Z" fill="#FAFAFA"/>
<path opacity="0.8" d="M262.295 55.9033H260.83V222.975H262.295V55.9033Z" fill="#F0F0F0"/>
<path opacity="0.8" d="M260.831 55.9033H255.172V222.975H260.831V55.9033Z" fill="#FAFAFA"/>
<path d="M124.142 201.485H198.783L198.783 66.2117H124.142L124.142 201.485Z" fill="#E6E6E6"/>
<path d="M120.698 201.485H197.174L197.174 66.2117H120.698L120.698 201.485Z" fill="#F0F0F0"/>
<path d="M124.142 204.694H198.783V201.485H124.142V204.694Z" fill="#E6E6E6"/>
<path d="M119.458 204.694H195.934V201.485H119.458V204.694Z" fill="#F0F0F0"/>
<path d="M192.352 196.65L192.352 71.0479L125.519 71.0479L125.519 196.65H192.352Z" fill="#FAFAFA"/>
<path d="M144.422 196.649L163.237 71.0474H176.596L157.781 196.649H144.422Z" fill="white"/>
<path d="M146.543 196.649L165.358 71.0474H178.717L159.902 196.649H146.543Z" fill="white"/>
<path d="M160.652 196.649L179.467 71.0474H184.675L165.86 196.649H160.652Z" fill="white"/>
<path d="M126.131 196.649L126.131 71.0474H125.519L125.519 196.649H126.131Z" fill="#E6E6E6"/>
<path opacity="0.6" d="M119.557 74.692H194.198L194.641 72.9272H120L119.557 74.692Z" fill="#EBEBEB"/>
<path opacity="0.6" d="M119.557 77.5872H194.198L194.641 75.8218H120L119.557 77.5872Z" fill="#EBEBEB"/>
<path opacity="0.6" d="M119.557 80.4812H194.198L194.641 78.7158H120L119.557 80.4812Z" fill="#EBEBEB"/>
<path opacity="0.6" d="M119.557 83.376H194.198L194.641 81.6113H120L119.557 83.376Z" fill="#EBEBEB"/>
<path opacity="0.6" d="M119.557 86.2701H194.198L194.641 84.5054H120L119.557 86.2701Z" fill="#EBEBEB"/>
<path opacity="0.6" d="M119.557 89.1646H194.198L194.641 87.3999H120L119.557 89.1646Z" fill="#EBEBEB"/>
<path d="M213.562 58.0996H105.918V60.7078H213.562V58.0996Z" fill="#F0F0F0"/>
<path opacity="0.8" d="M211.62 55.9033H205.961V222.975H211.62V55.9033Z" fill="#FAFAFA"/>
<path opacity="0.8" d="M207.426 55.9033H205.961V222.975H207.426V55.9033Z" fill="#F0F0F0"/>
<path opacity="0.8" d="M205.962 55.9033H200.303V222.975H205.962V55.9033Z" fill="#FAFAFA"/>
<path opacity="0.8" d="M201.767 55.9033H200.303V222.975H201.767V55.9033Z" fill="#F0F0F0"/>
<path opacity="0.8" d="M200.301 55.9033H194.643V222.975H200.301V55.9033Z" fill="#FAFAFA"/>
<path opacity="0.8" d="M124.143 55.9033H118.484V222.975H124.143V55.9033Z" fill="#FAFAFA"/>
<path opacity="0.8" d="M119.949 55.9033H118.484V222.975H119.949V55.9033Z" fill="#F0F0F0"/>
<path opacity="0.8" d="M118.483 55.9033H112.824V222.975H118.483V55.9033Z" fill="#FAFAFA"/>
<path opacity="0.8" d="M114.289 55.9033H112.824V222.975H114.289V55.9033Z" fill="#F0F0F0"/>
<path opacity="0.8" d="M112.825 55.9033H107.166V222.975H112.825V55.9033Z" fill="#FAFAFA"/>
<path d="M323.372 270.422H334.906V212.632H323.372V270.422Z" fill="#F0F0F0"/>
<path d="M232.97 275.093H330.697V270.422H232.97V275.093Z" fill="#F0F0F0"/>
<path d="M323.373 212.632H228.762V270.422H323.373V212.632Z" fill="#F5F5F5"/>
<path d="M314.753 218.753H237.381V237.973H314.753V218.753Z" fill="#F0F0F0"/>
<path d="M314.753 242.383H237.381V261.603H314.753V242.383Z" fill="#F0F0F0"/>
<path d="M266.895 221.403H285.238C286.147 221.403 286.891 220.657 286.891 219.745C286.891 218.833 286.147 218.087 285.238 218.087H266.895C265.986 218.087 265.242 218.833 265.242 219.745C265.243 220.657 265.986 221.403 266.895 221.403Z" fill="#F5F5F5"/>
<path d="M266.895 245.033H285.238C286.147 245.033 286.891 244.287 286.891 243.375C286.891 242.463 286.147 241.717 285.238 241.717H266.895C265.986 241.717 265.242 242.463 265.242 243.375C265.243 244.286 265.986 245.033 266.895 245.033Z" fill="#F5F5F5"/>
<path d="M225.839 212.633H323.371V210.377H225.839V212.633Z" fill="#F0F0F0"/>
<path d="M337.971 210.376H323.373V212.632H337.971V210.376Z" fill="#E6E6E6"/>
<path d="M139.915 271.261C137.188 271.261 134.957 269.024 134.957 266.289V217.604C134.957 214.87 137.188 212.632 139.915 212.632C142.642 212.632 144.872 214.87 144.872 217.604V266.289C144.872 269.024 142.642 271.261 139.915 271.261Z" fill="#F5F5F5"/>
<path d="M142.753 269.303C140.91 269.303 139.402 267.791 139.402 265.943V217.951C139.402 216.104 140.91 214.591 142.753 214.591C144.595 214.591 146.103 216.104 146.103 217.951V265.943C146.103 267.791 144.596 269.303 142.753 269.303Z" fill="#EBEBEB"/>
<path d="M147.116 271.261C144.389 271.261 142.158 269.024 142.158 266.289V217.604C142.158 214.87 144.389 212.632 147.116 212.632C149.843 212.632 152.074 214.87 152.074 217.604V266.289C152.074 269.024 149.843 271.261 147.116 271.261Z" fill="#F5F5F5"/>
<path d="M149.954 269.303C148.111 269.303 146.604 267.791 146.604 265.943V217.951C146.604 216.104 148.111 214.591 149.954 214.591C151.797 214.591 153.304 216.104 153.304 217.951V265.943C153.304 267.791 151.797 269.303 149.954 269.303Z" fill="#EBEBEB"/>
<path d="M154.319 271.261C151.592 271.261 149.361 269.024 149.361 266.289V217.604C149.361 214.87 151.592 212.632 154.319 212.632C157.046 212.632 159.277 214.87 159.277 217.604V266.289C159.277 269.024 157.046 271.261 154.319 271.261Z" fill="#F5F5F5"/>
<path d="M157.157 269.303C155.314 269.303 153.807 267.791 153.807 265.943V217.951C153.807 216.104 155.314 214.591 157.157 214.591C159 214.591 160.507 216.104 160.507 217.951V265.943C160.507 267.791 159 269.303 157.157 269.303Z" fill="#EBEBEB"/>
<path d="M161.52 271.261C158.793 271.261 156.562 269.024 156.562 266.289V217.604C156.562 214.87 158.793 212.632 161.52 212.632C164.247 212.632 166.478 214.87 166.478 217.604V266.289C166.478 269.024 164.247 271.261 161.52 271.261Z" fill="#F5F5F5"/>
<path d="M164.358 269.303C162.516 269.303 161.008 267.791 161.008 265.943V217.951C161.008 216.104 162.516 214.591 164.358 214.591C166.201 214.591 167.709 216.104 167.709 217.951V265.943C167.709 267.791 166.202 269.303 164.358 269.303Z" fill="#EBEBEB"/>
<path d="M168.723 271.261C165.996 271.261 163.766 269.024 163.766 266.289V217.604C163.766 214.87 165.996 212.632 168.723 212.632C171.45 212.632 173.681 214.87 173.681 217.604V266.289C173.681 269.024 171.45 271.261 168.723 271.261Z" fill="#F5F5F5"/>
<path d="M171.561 269.303C169.719 269.303 168.211 267.791 168.211 265.943V217.951C168.211 216.104 169.719 214.591 171.561 214.591C173.404 214.591 174.912 216.104 174.912 217.951V265.943C174.912 267.791 173.404 269.303 171.561 269.303Z" fill="#EBEBEB"/>
<path d="M175.925 271.261C173.198 271.261 170.967 269.024 170.967 266.289V217.604C170.967 214.87 173.198 212.632 175.925 212.632C178.651 212.632 180.882 214.87 180.882 217.604V266.289C180.882 269.024 178.651 271.261 175.925 271.261Z" fill="#F5F5F5"/>
<path d="M178.763 269.303C176.92 269.303 175.412 267.791 175.412 265.943V217.951C175.412 216.104 176.92 214.591 178.763 214.591C180.605 214.591 182.113 216.104 182.113 217.951V265.943C182.113 267.791 180.605 269.303 178.763 269.303Z" fill="#EBEBEB"/>
<path d="M183.126 271.261C180.399 271.261 178.168 269.024 178.168 266.289V217.604C178.168 214.87 180.399 212.632 183.126 212.632C185.853 212.632 188.083 214.87 188.083 217.604V266.289C188.083 269.024 185.853 271.261 183.126 271.261Z" fill="#F5F5F5"/>
<path d="M189.205 264.744H174.663C174.058 264.744 173.564 264.247 173.564 263.642C173.564 263.036 174.058 262.541 174.663 262.541H189.205C189.809 262.541 190.303 263.036 190.303 263.642C190.303 264.247 189.808 264.744 189.205 264.744Z" fill="#F5F5F5"/>
<path d="M189.205 222.791H174.663C174.058 222.791 173.564 222.295 173.564 221.69C173.564 221.084 174.058 220.588 174.663 220.588H189.205C189.809 220.588 190.303 221.084 190.303 221.69C190.303 222.296 189.808 222.791 189.205 222.791Z" fill="#F5F5F5"/>
<path d="M346.744 183.083H182.772C179.023 183.083 176.146 180.007 176.378 176.247L182.387 79.1851C182.62 75.4252 185.877 72.3491 189.626 72.3491H353.598C357.347 72.3491 360.224 75.4252 359.99 79.1851L353.982 176.247C353.751 180.007 350.493 183.083 346.744 183.083Z" fill="#52CEC7"/>
<path opacity="0.8" d="M346.744 183.083H182.772C179.023 183.083 176.146 180.007 176.378 176.247L182.387 79.1851C182.62 75.4252 185.877 72.3491 189.626 72.3491H353.598C357.347 72.3491 360.224 75.4252 359.99 79.1851L353.982 176.247C353.751 180.007 350.493 183.083 346.744 183.083Z" fill="white"/>
<path opacity="0.4" d="M203.801 100.318H184.277C183.208 100.318 182.397 99.4494 182.463 98.3781L183.018 89.4121C183.084 88.3409 184.003 87.4727 185.072 87.4727H204.597L203.801 100.318Z" fill="white"/>
<path d="M353.492 74.0581H210.538C207.715 74.0581 205.283 76.354 205.108 79.1851L203.73 101.457H184.205C183.137 101.457 182.217 102.325 182.151 103.396L181.631 111.793C181.564 112.864 182.376 113.732 183.445 113.732H202.97L199.1 176.247C198.925 179.079 201.072 181.374 203.896 181.374H346.85C349.673 181.374 352.104 179.079 352.279 176.247L358.288 79.1851C358.462 76.3533 356.316 74.0581 353.492 74.0581Z" fill="white"/>
<path opacity="0.4" d="M202.139 127.147H182.614C181.546 127.147 180.735 126.279 180.801 125.207L181.321 116.811C181.387 115.74 182.306 114.872 183.374 114.872H202.9L202.139 127.147Z" fill="white"/>
<path opacity="0.4" d="M201.31 140.561H181.784C180.716 140.561 179.905 139.693 179.971 138.621L180.491 130.225C180.557 129.154 181.476 128.286 182.544 128.286H202.07L201.31 140.561Z" fill="white"/>
<path opacity="0.4" d="M200.48 153.975H180.954C179.886 153.975 179.075 153.107 179.14 152.036L179.66 143.64C179.727 142.568 180.646 141.7 181.714 141.7H201.24L200.48 153.975Z" fill="white"/>
<path opacity="0.4" d="M199.649 167.39H180.124C179.056 167.39 178.245 166.522 178.31 165.451L178.83 157.054C178.897 155.983 179.816 155.115 180.884 155.115H200.41L199.649 167.39Z" fill="white"/>
<path opacity="0.2" d="M184.018 112.167C183.791 112.167 183.585 112.081 183.437 111.924C183.29 111.765 183.216 111.552 183.23 111.322L183.687 103.95C183.718 103.447 184.169 103.021 184.67 103.021H201.221C201.449 103.021 201.655 103.108 201.802 103.265C201.95 103.422 202.023 103.635 202.01 103.865L201.553 111.237C201.522 111.741 201.072 112.167 200.57 112.167H184.018V112.167Z" fill="#52CEC7"/>
<path opacity="0.3" d="M239.138 85.6228H215.534C213.729 85.6228 212.343 84.1416 212.456 82.3314C212.567 80.5213 214.136 79.04 215.941 79.04H239.546C241.351 79.04 242.736 80.5213 242.624 82.3314C242.512 84.1416 240.943 85.6228 239.138 85.6228Z" fill="#52CEC7"/>
<path d="M351.631 82.3314C351.518 84.1491 349.957 85.6228 348.145 85.6228C346.333 85.6228 344.954 84.1491 345.067 82.3314C345.179 80.5137 346.74 79.04 348.553 79.04C350.365 79.04 351.743 80.5137 351.631 82.3314Z" fill="#52CEC7"/>
<path opacity="0.4" d="M284.798 141.924H215.13C211.543 141.924 208.805 138.997 209.028 135.399L211.13 101.451C211.353 97.8525 214.453 94.9258 218.04 94.9258H287.708C291.296 94.9258 294.033 97.8532 293.81 101.451L291.708 135.399C291.486 138.997 288.385 141.924 284.798 141.924ZM218.022 95.2106C214.592 95.2106 211.627 98.0101 211.414 101.451L209.312 135.399C209.099 138.84 211.717 141.64 215.148 141.64H284.816C288.247 141.64 291.211 138.84 291.424 135.399L293.526 101.451C293.739 98.0101 291.121 95.2106 287.69 95.2106H218.022Z" fill="#52CEC7"/>
<path d="M223.605 117.504L233.599 123.986C235.596 121.063 238.271 118.63 241.37 116.926L235.999 106.245C231.057 108.963 226.791 112.842 223.605 117.504Z" fill="#52CEC7"/>
<path opacity="0.8" d="M223.605 117.504L233.599 123.986C235.596 121.063 238.271 118.63 241.37 116.926L235.999 106.245C231.057 108.963 226.791 112.842 223.605 117.504Z" fill="white"/>
<path d="M217.58 134.883H229.821C230.069 130.882 231.439 127.149 233.6 123.986L223.606 117.504C220.159 122.549 217.975 128.501 217.58 134.883Z" fill="#263238"/>
<path d="M252.438 101.967C246.555 101.967 240.943 103.527 236 106.245L241.371 116.926C244.47 115.222 247.989 114.244 251.678 114.244C263.043 114.244 271.684 123.484 270.979 134.883H283.22C284.345 116.704 270.563 101.967 252.438 101.967Z" fill="#52CEC7"/>
<path d="M244.495 154.41H208.619C208.275 154.41 208.013 154.13 208.034 153.784L208.191 151.252C208.212 150.907 208.508 150.627 208.853 150.627H244.729L244.495 154.41Z" fill="#52CEC7"/>
<path opacity="0.2" d="M244.494 154.41H289.767C290.112 154.41 290.408 154.13 290.429 153.784L290.586 151.252C290.607 150.907 290.346 150.627 290.001 150.627H244.728L244.494 154.41Z" fill="#52CEC7"/>
<path d="M268.862 164.404H208C207.655 164.404 207.394 164.124 207.415 163.779L207.572 161.247C207.593 160.902 207.889 160.622 208.234 160.622H269.096L268.862 164.404Z" fill="#52CEC7"/>
<path opacity="0.2" d="M268.861 164.404H289.149C289.493 164.404 289.79 164.124 289.811 163.779L289.967 161.247C289.989 160.902 289.727 160.622 289.383 160.622H269.095L268.861 164.404Z" fill="#52CEC7"/>
<path d="M214.529 174.399H207.381C207.036 174.399 206.775 174.119 206.796 173.774L206.953 171.242C206.974 170.897 207.271 170.617 207.615 170.617H214.764L214.529 174.399Z" fill="#52CEC7"/>
<path opacity="0.2" d="M214.529 174.399H288.53C288.875 174.399 289.171 174.119 289.192 173.774L289.349 171.242C289.371 170.897 289.109 170.617 288.765 170.617H214.763L214.529 174.399Z" fill="#52CEC7"/>
<path d="M304.851 174.683C304.694 174.683 304.574 174.556 304.585 174.399L309.496 95.068C309.505 94.9105 309.64 94.7832 309.798 94.7832C309.955 94.7832 310.073 94.9105 310.064 95.068L305.153 174.399C305.143 174.556 305.008 174.683 304.851 174.683Z" fill="#52CEC7"/>
<path d="M310.385 115.848C310.32 116.896 309.42 117.746 308.373 117.746C307.328 117.746 306.533 116.896 306.597 115.848C306.663 114.799 307.563 113.949 308.608 113.949C309.654 113.949 310.45 114.798 310.385 115.848Z" fill="white"/>
<path d="M308.357 118.031C307.157 118.031 306.24 117.052 306.315 115.848C306.39 114.644 307.427 113.664 308.627 113.664C309.828 113.664 310.744 114.644 310.67 115.848C310.595 117.052 309.558 118.031 308.357 118.031ZM308.592 114.234C307.704 114.234 306.937 114.957 306.882 115.848C306.827 116.738 307.504 117.462 308.392 117.462C309.28 117.462 310.047 116.738 310.102 115.848C310.156 114.957 309.479 114.234 308.592 114.234Z" fill="#52CEC7"/>
<path d="M309.327 132.938C309.262 133.987 308.362 134.837 307.317 134.837C306.271 134.837 305.476 133.987 305.541 132.938C305.606 131.89 306.506 131.04 307.551 131.04C308.597 131.04 309.392 131.889 309.327 132.938Z" fill="white"/>
<path d="M307.298 135.122C306.098 135.122 305.181 134.142 305.256 132.938C305.331 131.734 306.368 130.754 307.569 130.754C308.769 130.754 309.686 131.734 309.611 132.938C309.537 134.142 308.5 135.122 307.298 135.122ZM307.534 131.324C306.646 131.324 305.879 132.048 305.824 132.938C305.769 133.829 306.446 134.552 307.334 134.552C308.222 134.552 308.988 133.829 309.044 132.938C309.099 132.048 308.421 131.324 307.534 131.324Z" fill="#52CEC7"/>
<path d="M306.921 141.249L304.414 145.18H308.94L306.921 141.249Z" fill="white"/>
<path d="M308.922 145.464H304.396C304.294 145.464 304.204 145.41 304.159 145.322C304.113 145.234 304.12 145.125 304.176 145.037L306.683 141.106C306.796 140.93 307.084 140.93 307.175 141.106L309.195 145.037C309.24 145.125 309.233 145.234 309.177 145.322C309.12 145.41 309.024 145.464 308.922 145.464ZM304.924 144.895H308.465L306.885 141.818L304.924 144.895Z" fill="#52CEC7"/>
<path d="M338.933 174.683C338.776 174.683 338.657 174.556 338.667 174.399L343.578 95.068C343.587 94.9105 343.722 94.7832 343.879 94.7832C344.037 94.7832 344.155 94.9105 344.146 95.068L339.235 174.399C339.225 174.556 339.09 174.683 338.933 174.683Z" fill="#52CEC7"/>
<path d="M342.519 147.34C342.584 146.291 341.789 145.441 340.743 145.441C339.697 145.441 338.797 146.291 338.732 147.34C338.667 148.388 339.462 149.239 340.508 149.239C341.554 149.239 342.454 148.388 342.519 147.34Z" fill="white"/>
<path d="M340.49 149.523C339.289 149.523 338.373 148.544 338.448 147.34C338.522 146.135 339.56 145.155 340.76 145.155C341.961 145.155 342.877 146.135 342.802 147.34C342.728 148.544 341.69 149.523 340.49 149.523ZM340.724 145.725C339.837 145.725 339.07 146.449 339.015 147.34C338.96 148.23 339.637 148.954 340.525 148.954C341.413 148.954 342.179 148.23 342.234 147.34C342.289 146.449 341.612 145.725 340.724 145.725Z" fill="#52CEC7"/>
<path d="M345.162 104.605C345.227 103.557 344.432 102.707 343.386 102.707C342.341 102.707 341.44 103.557 341.375 104.605C341.31 105.654 342.105 106.504 343.151 106.504C344.197 106.504 345.098 105.655 345.162 104.605Z" fill="white"/>
<path d="M343.134 106.789C341.934 106.789 341.017 105.81 341.092 104.606C341.167 103.402 342.204 102.422 343.405 102.422C344.605 102.422 345.522 103.402 345.447 104.606C345.373 105.81 344.335 106.789 343.134 106.789ZM343.37 102.992C342.482 102.992 341.716 103.715 341.66 104.606C341.605 105.496 342.282 106.22 343.17 106.22C344.058 106.22 344.825 105.496 344.88 104.606C344.934 103.716 344.257 102.992 343.37 102.992Z" fill="#52CEC7"/>
<path d="M341.809 128.218L339.789 124.287H344.315L341.809 128.218Z" fill="white"/>
<path d="M341.791 128.503C341.689 128.503 341.598 128.448 341.553 128.36L339.534 124.429C339.488 124.341 339.495 124.232 339.551 124.144C339.608 124.056 339.705 124.002 339.806 124.002H344.332C344.434 124.002 344.524 124.056 344.57 124.144C344.615 124.232 344.608 124.341 344.552 124.429L342.045 128.36C341.989 128.448 341.892 128.503 341.791 128.503ZM340.263 124.572L341.843 127.648L343.805 124.572H340.263Z" fill="#52CEC7"/>
<path d="M321.892 174.683C321.735 174.683 321.616 174.556 321.626 174.399L326.537 95.068C326.546 94.9105 326.681 94.7832 326.838 94.7832C326.996 94.7832 327.115 94.9105 327.105 95.068L322.194 174.399C322.184 174.556 322.049 174.683 321.892 174.683Z" fill="#52CEC7"/>
<path d="M327.126 120.721C327.061 121.77 326.161 122.62 325.116 122.62C324.07 122.62 323.275 121.77 323.34 120.721C323.405 119.673 324.305 118.822 325.35 118.822C326.396 118.822 327.191 119.673 327.126 120.721Z" fill="white"/>
<path d="M325.097 122.905C323.897 122.905 322.98 121.925 323.055 120.721C323.13 119.517 324.167 118.538 325.368 118.538C326.568 118.538 327.485 119.517 327.41 120.721C327.336 121.925 326.298 122.905 325.097 122.905ZM325.333 119.107C324.445 119.107 323.678 119.831 323.623 120.721C323.568 121.612 324.245 122.335 325.133 122.335C326.021 122.335 326.788 121.612 326.842 120.721C326.897 119.831 326.22 119.107 325.333 119.107Z" fill="#52CEC7"/>
<path d="M324.773 158.723C324.708 159.772 323.808 160.622 322.762 160.622C321.717 160.622 320.922 159.772 320.986 158.723C321.051 157.675 321.951 156.824 322.997 156.824C324.043 156.824 324.838 157.675 324.773 158.723Z" fill="white"/>
<path d="M322.744 160.908C321.543 160.908 320.627 159.928 320.702 158.723C320.776 157.519 321.814 156.54 323.014 156.54C324.215 156.54 325.131 157.519 325.056 158.723C324.982 159.928 323.945 160.908 322.744 160.908ZM322.979 157.109C322.091 157.109 321.324 157.833 321.27 158.723C321.215 159.614 321.892 160.338 322.779 160.338C323.667 160.338 324.434 159.614 324.489 158.723C324.544 157.833 323.867 157.109 322.979 157.109Z" fill="#52CEC7"/>
<path d="M326.59 98.7754L324.084 102.707H328.61L326.59 98.7754Z" fill="white"/>
<path d="M328.592 102.992H324.066C323.964 102.992 323.874 102.937 323.829 102.849C323.783 102.761 323.79 102.652 323.846 102.564L326.353 98.6331C326.466 98.4569 326.754 98.4569 326.845 98.6331L328.864 102.564C328.91 102.652 328.903 102.761 328.847 102.849C328.79 102.938 328.694 102.992 328.592 102.992ZM324.593 102.422H328.135L326.555 99.3451L324.593 102.422Z" fill="#52CEC7"/>
<path d="M142.113 119.199L141.418 122.552L140.734 125.988C140.284 128.276 139.897 130.561 139.546 132.803C139.373 133.926 139.234 135.034 139.115 136.127C138.982 137.218 138.894 138.281 138.84 139.303C138.779 140.324 138.796 141.296 138.83 142.113C138.855 142.918 139.004 143.605 138.971 143.682L138.513 142.89C138.304 142.682 137.93 142.493 137.867 142.582C137.795 142.65 138.045 142.83 138.482 142.945C138.917 143.061 139.532 143.146 140.206 143.182C140.888 143.215 141.634 143.181 142.416 143.126C143.985 143.02 145.668 142.755 147.378 142.438C148.234 142.275 149.104 142.108 149.969 141.912L152.536 141.354L152.877 141.28C154.819 140.857 156.735 142.094 157.157 144.042C157.465 145.471 156.881 146.886 155.783 147.706L154.505 148.656L153.237 149.52C152.379 150.07 151.506 150.606 150.603 151.102C148.794 152.097 146.89 152.978 144.795 153.704C143.745 154.063 142.64 154.361 141.455 154.602C140.263 154.836 138.994 155.011 137.555 154.978C136.125 154.945 134.504 154.758 132.714 154.052C130.936 153.379 129.038 151.971 127.779 150.195C127.644 150.005 127.525 149.808 127.422 149.607L127.32 149.403C126.239 147.249 125.871 145.499 125.567 143.872C125.278 142.25 125.185 140.758 125.129 139.319C125.08 137.88 125.083 136.484 125.132 135.121C125.197 133.761 125.29 132.419 125.415 131.099C125.651 128.456 126.04 125.88 126.484 123.33C126.719 122.057 126.954 120.788 127.239 119.527C127.381 118.896 127.519 118.265 127.674 117.634L128.177 115.685C129.171 111.833 133.089 109.518 136.929 110.514C140.652 111.48 142.935 115.202 142.166 118.938L142.113 119.199Z" fill="#52CEC7"/>
<path opacity="0.2" d="M142.113 119.199L141.418 122.552L140.734 125.988C140.284 128.276 139.897 130.561 139.546 132.803C139.373 133.926 139.234 135.034 139.115 136.127C138.982 137.218 138.894 138.281 138.84 139.303C138.779 140.324 138.796 141.296 138.83 142.113C138.855 142.918 139.004 143.605 138.971 143.682L138.513 142.89C138.304 142.682 137.93 142.493 137.867 142.582C137.795 142.65 138.045 142.83 138.482 142.945C138.917 143.061 139.532 143.146 140.206 143.182C140.888 143.215 141.634 143.181 142.416 143.126C143.985 143.02 145.668 142.755 147.378 142.438C148.234 142.275 149.104 142.108 149.969 141.912L152.536 141.354L152.877 141.28C154.819 140.857 156.735 142.094 157.157 144.042C157.465 145.471 156.881 146.886 155.783 147.706L154.505 148.656L153.237 149.52C152.379 150.07 151.506 150.606 150.603 151.102C148.794 152.097 146.89 152.978 144.795 153.704C143.745 154.063 142.64 154.361 141.455 154.602C140.263 154.836 138.994 155.011 137.555 154.978C136.125 154.945 134.504 154.758 132.714 154.052C130.936 153.379 129.038 151.971 127.779 150.195C127.644 150.005 127.525 149.808 127.422 149.607L127.32 149.403C126.239 147.249 125.871 145.499 125.567 143.872C125.278 142.25 125.185 140.758 125.129 139.319C125.08 137.88 125.083 136.484 125.132 135.121C125.197 133.761 125.29 132.419 125.415 131.099C125.651 128.456 126.04 125.88 126.484 123.33C126.719 122.057 126.954 120.788 127.239 119.527C127.381 118.896 127.519 118.265 127.674 117.634L128.177 115.685C129.171 111.833 133.089 109.518 136.929 110.514C140.652 111.48 142.935 115.202 142.166 118.938L142.113 119.199Z" fill="black"/>
<path d="M124.755 295.168C124.755 295.168 118.261 289.261 118.403 287.395L113.006 284.624L109.797 290.183L112.778 291.856L113.588 291.607L114.132 292.551C116.823 293.933 122.693 296.617 124.747 296.541C125.143 295.648 124.755 295.168 124.755 295.168Z" fill="#263238"/>
<path d="M125.218 225.712C129.143 197.527 127.861 180.393 131.982 166.502L157.502 164.443C157.502 164.443 146.192 209.159 141.006 227.778C135.8 246.47 119.582 288.612 119.582 288.612L112.479 284.964C112.479 284.964 118.307 247.516 125.218 225.712Z" fill="#263238"/>
<path opacity="0.2" d="M146.031 185.288C144.294 189.316 140.906 215.165 140.92 228.074C140.947 227.977 140.975 227.875 141.002 227.778C142.824 221.236 145.405 211.465 147.985 201.545L146.031 185.288Z" fill="black"/>
<path d="M165.754 296.095C165.754 296.095 155.169 293.685 154.684 291.96H147.968L147.41 298.376H151.143L151.832 297.785L152.663 298.376C155.687 298.376 164.411 298.401 166.289 297.278C166.304 296.307 165.754 296.095 165.754 296.095Z" fill="#263238"/>
<path d="M147.831 226.503C142.225 188.308 142.225 164.664 142.225 164.664L167.198 164.26C167.198 164.26 164.199 209.807 163.157 228.883C162.075 248.719 155.9 292.373 155.9 292.373H147.195C147.195 292.373 145.203 251.026 147.831 226.503Z" fill="#263238"/>
<path d="M145.094 92.9634C143.909 100.45 141.753 104.474 140.309 108.195C142.828 110.544 148.221 113.459 153.664 113.38C159.106 113.301 158.111 109.609 156.651 107.707C152.751 105.734 152.6 103.739 153.553 101.985L145.094 92.9634Z" fill="#CE7A63"/>
<path d="M135.789 109.255C135.789 109.255 139.262 105.16 140.631 104.474C141.999 103.788 152.381 105.195 154.833 105.653C157.285 106.11 160.266 109.77 160.266 109.77L135.789 109.255Z" fill="#263238"/>
<path d="M162.311 92.333C162.2 92.8263 162.373 93.2825 162.695 93.352C163.017 93.4214 163.369 93.0781 163.479 92.5848C163.589 92.0915 163.417 91.6354 163.095 91.5659C162.772 91.4971 162.421 91.8404 162.311 92.333Z" fill="#263238"/>
<path d="M162.101 93.0161C162.101 93.0161 162.585 96.1032 163.513 97.7427C162.457 98.3688 161.057 97.6759 161.057 97.6759L162.101 93.0161Z" fill="#630F0F"/>
<path d="M164.014 89.4935C163.933 89.5458 163.829 89.5582 163.735 89.5169C162.542 88.994 161.641 89.5664 161.604 89.5905C161.467 89.6799 161.285 89.6414 161.196 89.5038C161.108 89.3662 161.145 89.1832 161.281 89.0924C161.331 89.0607 162.478 88.3136 163.972 88.9692C164.121 89.0346 164.189 89.21 164.123 89.3614C164.1 89.4178 164.061 89.4625 164.014 89.4935Z" fill="#263238"/>
<path d="M145.96 87.3115C144.975 93.4484 144.087 96.993 146.45 100.763C150.006 106.432 158.106 105.274 160.906 99.5393C163.427 94.3786 164.614 85.2089 159.222 81.5178C153.912 77.8824 146.945 81.1738 145.96 87.3115Z" fill="#CE7A63"/>
<path d="M157.102 93.1876C162.057 94.2581 160.613 88.1205 159.432 87.5095C162.404 89.3011 164.381 87.2254 164.202 85.3527C166.477 84.9708 166.363 81.1868 164.801 81.1098C163.81 78.5105 159.193 76.3323 158.338 77.9374C155.845 75.0327 149.181 75.5294 150.15 77.6319C147.613 77.1352 142.224 77.3643 144.03 81.1868C140.181 81.6836 140.362 88.2911 142.877 88.9791C140.247 90.4377 142.792 95.4181 143.923 98.5416C145.032 101.603 156.36 98.8829 157.102 93.1876Z" fill="#263238"/>
<path d="M154.257 92.5609C154.031 94.0291 154.43 95.4113 155.072 96.3147C156.038 97.6735 157.533 96.8279 158.112 95.1726C158.633 93.6824 158.759 91.1801 157.381 90.4302C156.024 89.6913 154.516 90.8815 154.257 92.5609Z" fill="#CE7A63"/>
<path d="M136.141 108.565C144.578 107.522 156.545 107.618 164.49 109.007C168.535 109.715 171.566 113.102 171.899 117.208C172.886 129.361 170.205 150.61 167.89 171.997C149.196 178.287 130.22 171.912 130.22 171.912C129.803 167.596 132.121 153.461 133.565 145.912C132.503 138.119 129.81 129.195 128.288 118.847C127.551 113.821 131.114 109.186 136.141 108.565Z" fill="#52CEC7"/>
<path opacity="0.2" d="M161.529 125.586C162.802 132.908 166.846 141.63 170.541 147.402C171.047 142.344 171.471 137.527 171.745 133.087L161.529 125.586Z" fill="black"/>
<path d="M223.332 108.624C217.54 105.17 210.053 107.079 206.608 112.888C203.289 118.484 204.948 125.651 210.254 129.256C209.033 130.908 205.465 135.764 204.358 137.632C203.016 139.896 202.3 141.932 203.247 142.496C204.194 143.061 205.636 141.458 206.978 139.194C208.085 137.327 210.635 131.865 211.499 130C217.192 132.957 224.26 130.994 227.58 125.395C231.023 119.585 229.124 112.078 223.332 108.624ZM226.261 124.608C223.25 129.687 216.706 131.351 211.646 128.334C206.582 125.314 204.916 118.753 207.927 113.674C210.938 108.595 217.481 106.93 222.545 109.951C227.605 112.968 229.272 119.53 226.261 124.608Z" fill="#52CEC7"/>
<path opacity="0.2" d="M226.76 124.905C223.585 130.26 216.685 132.016 211.35 128.834C206.011 125.65 204.254 118.731 207.429 113.377C210.603 108.022 217.504 106.266 222.843 109.45C228.178 112.631 229.935 119.55 226.76 124.905Z" fill="#52CEC7"/>
<path d="M209.266 135.612L207.78 134.29C207.222 133.793 206.458 133.597 205.731 133.765L202.329 134.548C200.97 134.861 199.845 135.815 199.312 137.108L198.982 137.908C201.296 140.269 205.531 141.11 205.531 141.11L206.712 141.484C207.763 141.817 208.831 141.292 209.165 140.277L209.935 137.94C210.201 137.133 209.935 136.207 209.266 135.612Z" fill="#CE7A63"/>
<path d="M171.565 114.715L172.95 117.733L174.398 120.814C175.366 122.862 176.386 124.868 177.408 126.815C177.924 127.786 178.455 128.733 178.997 129.642C179.526 130.561 180.071 131.441 180.62 132.252C181.164 133.065 181.737 133.799 182.23 134.397C182.711 134.993 183.209 135.415 183.217 135.482L182.372 135.136C182.923 135.442 184.046 135.78 185.363 135.891C186.678 136.011 188.184 136.043 189.733 135.948C191.291 135.879 192.907 135.715 194.55 135.52C195.37 135.418 196.202 135.319 197.03 135.196L199.481 134.865L199.822 134.819C201.796 134.552 203.613 135.941 203.879 137.921C204.07 139.341 203.408 140.681 202.292 141.423L201.043 142.25L199.813 142.995C198.984 143.467 198.145 143.928 197.283 144.35C196.42 144.766 195.545 145.178 194.645 145.548C193.743 145.912 192.821 146.254 191.875 146.575C189.972 147.173 187.98 147.711 185.774 147.952C183.579 148.19 181.135 148.259 178.321 147.496C178.141 147.447 177.97 147.384 177.806 147.308L177.476 147.15C175.339 146.132 173.984 144.98 172.77 143.886C171.569 142.786 170.607 141.667 169.701 140.568C167.902 138.369 166.428 136.165 165.073 133.935C163.708 131.716 162.509 129.461 161.374 127.192C160.818 126.051 160.264 124.915 159.757 123.754C159.502 123.175 159.244 122.596 159 122.007L158.265 120.169C156.787 116.477 158.574 112.283 162.255 110.801C165.819 109.366 169.854 111.001 171.447 114.458L171.565 114.715Z" fill="#52CEC7"/>
</svg>
