<svg width="473" height="415" viewBox="0 0 473 415" fill="none" xmlns="http://www.w3.org/2000/svg">
<path d="M0 36.3926C0 16.5103 16.1178 0.392578 36 0.392578H437C456.882 0.392578 473 16.5103 473 36.3926V378.393C473 398.275 456.882 414.393 437 414.393H36C16.1178 414.393 0 398.275 0 378.393V36.3926Z" fill="white" fill-opacity="0.06"/>
<path d="M374.469 226.813C369.194 194.88 355.434 164.943 334.295 140.436C321.981 126.161 305.966 110.629 286.708 98.3543C238.142 67.4023 177.978 76.1903 152.966 107.286C127.954 138.382 82.6623 276.962 86.0423 313.466C89.4223 349.97 188.118 383.094 252.338 374.982C316.558 366.87 371.314 325.634 376.722 280.342C378.842 262.587 377.223 243.482 374.469 226.813Z" fill="#263238"/>
<path d="M334.135 370.926H385.511" stroke="#263238" stroke-miterlimit="10"/>
<path d="M146.207 370.926H328.051" stroke="#263238" stroke-miterlimit="10"/>
<path d="M88.0703 370.926H138.77" stroke="#263238" stroke-miterlimit="10"/>
<g opacity="0.3">
<path d="M378.302 142.145L382.767 143.164L383.822 138.544L379.654 137.593C379.664 137.414 379.681 137.237 379.681 137.055C379.681 135.646 379.393 134.304 378.873 133.084L382.219 130.415L379.265 126.71L376.044 129.28C374.865 128.292 373.455 127.576 371.911 127.206V122.896H367.172V127.206C365.7 127.559 364.354 128.227 363.21 129.143L359.604 126.268L356.649 129.972L360.304 132.887C359.751 134.111 359.433 135.461 359.409 136.886L354.566 137.991L355.621 142.611L360.442 141.51C361.026 142.699 361.833 143.756 362.812 144.627L360.592 149.239L364.861 151.295L366.995 146.861C367.81 147.072 368.66 147.196 369.54 147.196C370.035 147.196 370.517 147.149 370.993 147.08L373.142 151.541L377.41 149.486L375.404 145.319C376.584 144.481 377.572 143.399 378.302 142.145ZM362.345 137.056C362.345 133.082 365.567 129.86 369.541 129.86C373.515 129.86 376.737 133.082 376.737 137.056C376.737 141.03 373.515 144.252 369.541 144.252C365.567 144.252 362.345 141.03 362.345 137.056Z" stroke="black" stroke-miterlimit="10"/>
<path d="M378.302 172.765L382.767 173.784L383.822 169.164L379.654 168.213C379.664 168.034 379.681 167.858 379.681 167.676C379.681 166.266 379.393 164.924 378.873 163.704L382.219 161.035L379.265 157.331L376.044 159.899C374.865 158.911 373.455 158.196 371.911 157.825V153.516H367.172V157.825C365.7 158.178 364.354 158.846 363.21 159.763L359.604 156.887L356.649 160.591L360.304 163.506C359.751 164.73 359.433 166.08 359.409 167.505L354.566 168.61L355.621 173.23L360.442 172.129C361.026 173.319 361.833 174.375 362.812 175.246L360.592 179.858L364.861 181.914L366.995 177.481C367.81 177.691 368.66 177.816 369.54 177.816C370.035 177.816 370.517 177.768 370.993 177.7L373.142 182.161L377.41 180.105L375.404 175.939C376.584 175.101 377.572 174.019 378.302 172.765ZM362.345 167.676C362.345 163.702 365.567 160.48 369.541 160.48C373.515 160.48 376.737 163.702 376.737 167.676C376.737 171.65 373.515 174.872 369.541 174.872C365.567 174.872 362.345 171.65 362.345 167.676Z" stroke="black" stroke-miterlimit="10"/>
<path d="M212.007 96.4918L216.472 97.5105L217.526 92.8907L213.359 91.9396C213.368 91.7605 213.386 91.584 213.386 91.4022C213.386 89.9927 213.097 88.6509 212.577 87.4307L215.923 84.7618L212.969 81.0573L209.749 83.6261C208.569 82.6385 207.16 81.9226 205.615 81.5522V77.2427H200.876V81.5522C199.405 81.905 198.058 82.5729 196.914 83.4889L193.308 80.6139L190.354 84.3184L194.009 87.2333C193.456 88.4568 193.138 89.8068 193.114 91.2318L188.271 92.3371L189.326 96.9569L194.147 95.8563C194.731 97.0461 195.538 98.102 196.517 98.9734L194.297 103.585L198.566 105.641L200.7 101.208C201.515 101.418 202.365 101.543 203.246 101.543C203.74 101.543 204.222 101.496 204.698 101.427L206.847 105.888L211.116 103.832L209.109 99.6663C210.288 98.8274 211.276 97.7458 212.007 96.4918ZM196.05 91.4028C196.05 87.4286 199.271 84.2068 203.246 84.2068C207.22 84.2068 210.442 87.4286 210.442 91.4028C210.442 95.3771 207.22 98.5989 203.246 98.5989C199.271 98.5989 196.05 95.3771 196.05 91.4028Z" stroke="black" stroke-miterlimit="10"/>
<path d="M131.701 176.188L135.482 177.051L136.375 173.139L132.846 172.334C132.854 172.182 132.869 172.032 132.869 171.879C132.869 170.685 132.624 169.548 132.184 168.515L135.018 166.256L132.516 163.118L129.789 165.293C128.79 164.457 127.596 163.85 126.288 163.537V159.888H122.276V163.537C121.03 163.836 119.889 164.401 118.92 165.177L115.866 162.742L113.365 165.88L116.461 168.349C115.992 169.385 115.722 170.528 115.703 171.735L111.602 172.671L112.495 176.583L116.578 175.651C117.072 176.659 117.755 177.553 118.585 178.291L116.704 182.196L120.319 183.938L122.128 180.183C122.818 180.362 123.537 180.467 124.283 180.467C124.702 180.467 125.11 180.427 125.513 180.369L127.332 184.147L130.947 182.405L129.249 178.877C130.246 178.167 131.083 177.25 131.701 176.188ZM118.189 171.879C118.189 168.513 120.917 165.784 124.283 165.784C127.648 165.784 130.377 168.513 130.377 171.879C130.377 175.244 127.648 177.973 124.283 177.973C120.917 177.973 118.189 175.244 118.189 171.879Z" stroke="black" stroke-miterlimit="10"/>
<path d="M113.375 159.673L118.602 160.866L119.836 155.458L114.957 154.345C114.968 154.135 114.989 153.928 114.989 153.716C114.989 152.066 114.651 150.495 114.043 149.067L117.96 145.943L114.502 141.607L110.732 144.613C109.351 143.457 107.701 142.619 105.893 142.185V137.141H100.346V142.185C98.6231 142.598 97.046 143.381 95.7075 144.453L91.4866 141.086L88.0282 145.423L92.3073 148.835C91.6596 150.268 91.2872 151.848 91.2595 153.516L85.5898 154.81L86.8242 160.218L92.4681 158.929C93.1509 160.322 94.096 161.558 95.2424 162.578L92.6426 167.977L97.6402 170.383L100.139 165.194C101.093 165.441 102.088 165.586 103.119 165.586C103.698 165.586 104.263 165.53 104.82 165.451L107.335 170.672L112.332 168.265L109.984 163.389C111.362 162.407 112.52 161.141 113.375 159.673ZM94.6949 153.715C94.6949 149.063 98.4663 145.292 103.119 145.292C107.771 145.292 111.542 149.063 111.542 153.715C111.542 158.368 107.771 162.139 103.119 162.139C98.4663 162.14 94.6949 158.368 94.6949 153.715Z" stroke="black" stroke-miterlimit="10"/>
<path d="M92.9367 215.993L93.848 218.797H96.7953L94.4104 220.53L95.3217 223.333L92.9367 221.601L90.5518 223.333L91.4631 220.53L89.0781 218.797H92.0262L92.9367 215.993Z" stroke="black" stroke-miterlimit="10"/>
<path d="M102.466 215.993L103.377 218.797H106.325L103.94 220.53L104.851 223.333L102.466 221.601L100.081 223.333L100.992 220.53L98.6074 218.797H101.555L102.466 215.993Z" stroke="black" stroke-miterlimit="10"/>
<path d="M111.995 215.993L112.907 218.797H115.854L113.47 220.53L114.38 223.333L111.995 221.601L109.611 223.333L110.522 220.53L108.137 218.797H111.085L111.995 215.993Z" stroke="black" stroke-miterlimit="10"/>
<path d="M121.523 215.993L122.434 218.797H125.381L122.997 220.53L123.908 223.333L121.523 221.601L119.138 223.333L120.049 220.53L117.664 218.797H120.612L121.523 215.993Z" stroke="black" stroke-miterlimit="10"/>
<path d="M131.054 215.993L131.964 218.797H134.912L132.528 220.53L133.438 223.333L131.054 221.601L128.669 223.333L129.58 220.53L127.195 218.797H130.143L131.054 215.993Z" stroke="black" stroke-miterlimit="10"/>
<path d="M132.346 226.919H90.9489C88.1489 226.919 85.8789 224.649 85.8789 221.849V218.359C85.8789 215.559 88.1489 213.289 90.9489 213.289H132.346C135.146 213.289 137.416 215.559 137.416 218.359V221.849C137.416 224.649 135.146 226.919 132.346 226.919Z" stroke="black" stroke-miterlimit="10"/>
</g>
<path opacity="0.3" d="M351.033 99.1743H115.109V273.582H351.033V99.1743Z" fill="black"/>
<path d="M359.415 92.4146H120.953V267.613H359.415V92.4146Z" fill="white" stroke="#263238" stroke-miterlimit="10"/>
<path d="M160.241 92.4146H120.953V267.613H160.241V92.4146Z" fill="#52CEC7" stroke="#263238" stroke-miterlimit="10"/>
<path d="M359.415 92.4146H120.953V106.799H359.415V92.4146Z" fill="#263238" stroke="#263238" stroke-miterlimit="10" stroke-linecap="round" stroke-linejoin="round"/>
<path d="M131.965 126.471C131.965 124.284 130.192 122.511 128.005 122.511C125.817 122.511 124.045 124.283 124.045 126.471C124.045 128.658 125.818 130.431 128.005 130.431C130.192 130.431 131.965 128.658 131.965 126.471Z" fill="white" stroke="#263238" stroke-miterlimit="10" stroke-linecap="round" stroke-linejoin="round"/>
<path d="M135.264 126.801H154.733" stroke="#263238" stroke-miterlimit="10" stroke-linecap="round" stroke-linejoin="round"/>
<path d="M131.965 144.619C131.965 142.432 130.192 140.659 128.005 140.659C125.817 140.659 124.045 142.432 124.045 144.619C124.045 146.806 125.818 148.579 128.005 148.579C130.192 148.579 131.965 146.806 131.965 144.619Z" fill="white" stroke="#263238" stroke-miterlimit="10" stroke-linecap="round" stroke-linejoin="round"/>
<path d="M135.264 144.949H154.733" stroke="#263238" stroke-miterlimit="10" stroke-linecap="round" stroke-linejoin="round"/>
<path d="M131.965 162.769C131.965 160.582 130.192 158.809 128.005 158.809C125.817 158.809 124.045 160.582 124.045 162.769C124.045 164.955 125.818 166.729 128.005 166.729C130.192 166.729 131.965 164.955 131.965 162.769Z" fill="white" stroke="#263238" stroke-miterlimit="10" stroke-linecap="round" stroke-linejoin="round"/>
<path d="M135.264 163.099H154.733" stroke="#263238" stroke-miterlimit="10" stroke-linecap="round" stroke-linejoin="round"/>
<path d="M131.965 180.917C131.965 178.73 130.192 176.957 128.005 176.957C125.817 176.957 124.045 178.73 124.045 180.917C124.045 183.104 125.818 184.877 128.005 184.877C130.192 184.877 131.965 183.104 131.965 180.917Z" fill="white" stroke="#263238" stroke-miterlimit="10" stroke-linecap="round" stroke-linejoin="round"/>
<path d="M135.264 181.248H154.733" stroke="#263238" stroke-miterlimit="10" stroke-linecap="round" stroke-linejoin="round"/>
<path d="M131.965 199.066C131.965 196.88 130.192 195.106 128.005 195.106C125.817 195.106 124.045 196.88 124.045 199.066C124.045 201.253 125.818 203.026 128.005 203.026C130.192 203.026 131.965 201.253 131.965 199.066Z" fill="white" stroke="#263238" stroke-miterlimit="10" stroke-linecap="round" stroke-linejoin="round"/>
<path d="M135.264 199.396H154.733" stroke="#263238" stroke-miterlimit="10" stroke-linecap="round" stroke-linejoin="round"/>
<g opacity="0.05">
<path d="M321.28 212.011H165.182V217.61H321.28V212.011Z" fill="black"/>
<path d="M321.28 221.891H165.182V227.49H321.28V221.891Z" fill="black"/>
<path d="M321.28 231.77H165.182V237.369H321.28V231.77Z" fill="black"/>
<path d="M321.28 241.65H165.182V247.249H321.28V241.65Z" fill="black"/>
</g>
<path d="M239.105 226.376H230.154V252.518H239.105V226.376Z" fill="#52CEC7"/>
<path d="M229.159 215.587H220.209V252.517H229.159V215.587Z" fill="#263238"/>
<path d="M219.214 228.866H210.264V252.518H219.214V228.866Z" fill="#52CEC7"/>
<path d="M209.269 242.974H200.318V252.517H209.269V242.974Z" fill="#263238"/>
<path d="M199.323 224.301H190.373V252.517H199.323V224.301Z" fill="#52CEC7"/>
<path d="M189.38 230.11H180.43V252.517H189.38V230.11Z" fill="#263238"/>
<path d="M179.435 244.218H170.484V252.517H179.435V244.218Z" fill="#52CEC7"/>
<path d="M259.964 226.376H251.014V252.518H259.964V226.376Z" fill="#263238"/>
<path d="M269.909 215.587H260.959V252.517H269.909V215.587Z" fill="#52CEC7"/>
<path d="M279.853 228.866H270.902V252.518H279.853V228.866Z" fill="#263238"/>
<path d="M289.798 242.974H280.848V252.517H289.798V242.974Z" fill="#52CEC7"/>
<path d="M299.743 224.301H290.793V252.517H299.743V224.301Z" fill="#263238"/>
<path d="M309.689 230.11H300.738V252.517H309.689V230.11Z" fill="#52CEC7"/>
<path d="M319.634 244.218H310.684V252.517H319.634V244.218Z" fill="#263238"/>
<path d="M126.203 224.781H155.238" stroke="#263238" stroke-miterlimit="10" stroke-linecap="round" stroke-linejoin="round"/>
<path d="M126.203 229.992H155.238" stroke="#263238" stroke-miterlimit="10" stroke-linecap="round" stroke-linejoin="round"/>
<path d="M126.203 235.203H155.238" stroke="#263238" stroke-miterlimit="10" stroke-linecap="round" stroke-linejoin="round"/>
<path d="M126.203 240.416H155.238" stroke="#263238" stroke-miterlimit="10" stroke-linecap="round" stroke-linejoin="round"/>
<path d="M126.203 245.626H155.238" stroke="#263238" stroke-miterlimit="10" stroke-linecap="round" stroke-linejoin="round"/>
<path d="M126.203 250.838H155.238" stroke="#263238" stroke-miterlimit="10" stroke-linecap="round" stroke-linejoin="round"/>
<path d="M131.471 97.0044H144.214" stroke="white" stroke-miterlimit="10" stroke-linecap="round" stroke-linejoin="round"/>
<path d="M131.471 100.465H144.214" stroke="white" stroke-miterlimit="10" stroke-linecap="round" stroke-linejoin="round"/>
<path d="M131.471 103.927H144.214" stroke="white" stroke-miterlimit="10" stroke-linecap="round" stroke-linejoin="round"/>
<path opacity="0.05" d="M321.628 174.159H247.182V204.305H321.628V174.159Z" fill="black"/>
<path d="M321.628 199.095V204.305H247.182V187.556L259.09 184.209H275.839L282.545 192.766H294.452L303.759 199.095H321.628Z" fill="#52CEC7"/>
<path d="M299.293 179.74H317.16" stroke="#263238" stroke-miterlimit="10" stroke-linecap="round" stroke-linejoin="round"/>
<path d="M303.917 191.49V193.016H303.094V191.49H300.648V190.722L302.998 185.439H303.918V190.722H304.524V191.49H303.917ZM301.428 190.722H303.094V187.02L301.428 190.722Z" fill="#263238"/>
<path d="M306.017 188.525C306.255 188.113 306.635 187.897 307.143 187.897C308.116 187.897 308.55 188.611 308.55 189.693V191.176C308.55 192.334 307.998 193.092 306.84 193.092C305.681 193.092 305.141 192.334 305.141 191.176V190.667H305.93V191.231C305.93 191.913 306.212 192.324 306.818 192.324C307.423 192.324 307.705 191.913 307.705 191.231V189.758C307.705 189.077 307.423 188.665 306.818 188.665C306.352 188.665 306.038 188.925 305.963 189.477V189.65H305.173L305.379 185.44H308.366V186.198H306.137L306.017 188.525Z" fill="#263238"/>
<path d="M311.482 186.619V189.011C311.482 189.747 311.136 190.234 310.401 190.234C309.664 190.234 309.318 189.747 309.318 189.011V186.619C309.318 185.894 309.664 185.396 310.401 185.396C311.136 185.396 311.482 185.894 311.482 186.619ZM309.858 186.586V189.054C309.858 189.466 310.01 189.737 310.4 189.737C310.779 189.737 310.941 189.466 310.941 189.054V186.586C310.941 186.175 310.779 185.894 310.4 185.894C310.011 185.894 309.858 186.175 309.858 186.586ZM313.983 185.439L310.995 193.016H310.486L313.474 185.439H313.983ZM315.206 189.444V191.825C315.206 192.562 314.87 193.048 314.123 193.048C313.387 193.048 313.042 192.561 313.042 191.825V189.444C313.042 188.719 313.388 188.232 314.123 188.232C314.87 188.232 315.206 188.719 315.206 189.444ZM313.582 189.411V191.869C313.582 192.28 313.745 192.562 314.123 192.562C314.501 192.562 314.664 192.28 314.664 191.869V189.411C314.664 189 314.501 188.729 314.123 188.729C313.745 188.73 313.582 189 313.582 189.411Z" fill="#263238"/>
<path d="M165.642 120.369V115.4H164.623V114.839H167.27V115.4H166.251V120.369H165.642Z" fill="#263238"/>
<path d="M168.922 114.839C169.79 114.839 170.154 115.282 170.154 116.103V116.553C170.154 117.162 169.941 117.541 169.467 117.691C169.972 117.841 170.162 118.252 170.162 118.844V119.705C170.162 119.95 170.17 120.179 170.272 120.369H169.648C169.578 120.211 169.546 120.068 169.546 119.697V118.829C169.546 118.205 169.254 118.007 168.74 118.007H168.305V120.369H167.689V114.84H168.922V114.839ZM168.764 117.446C169.254 117.446 169.546 117.287 169.546 116.687V116.158C169.546 115.66 169.364 115.399 168.906 115.399H168.305V117.446H168.764Z" fill="#263238"/>
<path d="M172.772 117.287V117.84H171.421V119.807H173.079V120.369H170.805V114.839H173.079V115.4H171.421V117.288L172.772 117.287Z" fill="#263238"/>
<path d="M174.194 120.369H173.641V114.839H174.423L175.702 118.836V114.839H176.247V120.369H175.607L174.193 115.897V120.369H174.194Z" fill="#263238"/>
<path d="M178.177 114.839C179.037 114.839 179.433 115.36 179.433 116.213V119.002C179.433 119.847 179.038 120.368 178.177 120.368H176.881V114.838L178.177 114.839ZM178.169 119.808C178.611 119.808 178.824 119.531 178.824 119.026V116.182C178.824 115.677 178.611 115.4 178.161 115.4H177.497V119.808L178.169 119.808Z" fill="#263238"/>
<g opacity="0.3">
<path d="M164.561 161.344V158.677" stroke="black" stroke-width="0.5" stroke-miterlimit="10" stroke-linecap="round" stroke-linejoin="round"/>
<path opacity="0.3" d="M163.895 152.344H352.718" stroke="black" stroke-width="0.5" stroke-miterlimit="10" stroke-linecap="round" stroke-linejoin="round"/>
<path opacity="0.3" d="M163.895 158.511H352.718" stroke="black" stroke-width="0.5" stroke-miterlimit="10" stroke-linecap="round" stroke-linejoin="round"/>
<path opacity="0.3" d="M163.895 146.511H352.718" stroke="black" stroke-width="0.5" stroke-miterlimit="10" stroke-linecap="round" stroke-linejoin="round"/>
<path opacity="0.3" d="M163.895 140.678H352.718" stroke="black" stroke-width="0.5" stroke-miterlimit="10" stroke-linecap="round" stroke-linejoin="round"/>
<path opacity="0.3" d="M163.895 134.845H352.718" stroke="black" stroke-width="0.5" stroke-miterlimit="10" stroke-linecap="round" stroke-linejoin="round"/>
<path opacity="0.3" d="M163.895 129.012H352.718" stroke="black" stroke-width="0.5" stroke-miterlimit="10" stroke-linecap="round" stroke-linejoin="round"/>
<path opacity="0.3" d="M163.895 123.179H352.718" stroke="black" stroke-width="0.5" stroke-miterlimit="10" stroke-linecap="round" stroke-linejoin="round"/>
<path opacity="0.3" d="M180.115 161.344V158.677" stroke="black" stroke-width="0.5" stroke-miterlimit="10" stroke-linecap="round" stroke-linejoin="round"/>
<path d="M195.67 161.344V158.677" stroke="black" stroke-width="0.5" stroke-miterlimit="10" stroke-linecap="round" stroke-linejoin="round"/>
<path d="M211.225 161.344V158.677" stroke="black" stroke-width="0.5" stroke-miterlimit="10" stroke-linecap="round" stroke-linejoin="round"/>
<path d="M226.779 161.344V158.677" stroke="black" stroke-width="0.5" stroke-miterlimit="10" stroke-linecap="round" stroke-linejoin="round"/>
<path d="M242.334 161.344V158.677" stroke="black" stroke-width="0.5" stroke-miterlimit="10" stroke-linecap="round" stroke-linejoin="round"/>
<path d="M257.889 161.344V158.677" stroke="black" stroke-width="0.5" stroke-miterlimit="10" stroke-linecap="round" stroke-linejoin="round"/>
<path d="M273.445 161.344V158.677" stroke="black" stroke-width="0.5" stroke-miterlimit="10" stroke-linecap="round" stroke-linejoin="round"/>
<path d="M288.998 161.344V158.677" stroke="black" stroke-width="0.5" stroke-miterlimit="10" stroke-linecap="round" stroke-linejoin="round"/>
<path d="M304.553 161.344V158.677" stroke="black" stroke-width="0.5" stroke-miterlimit="10" stroke-linecap="round" stroke-linejoin="round"/>
<path d="M320.107 161.344V158.677" stroke="black" stroke-width="0.5" stroke-miterlimit="10" stroke-linecap="round" stroke-linejoin="round"/>
<path d="M335.662 161.344V158.677" stroke="black" stroke-width="0.5" stroke-miterlimit="10" stroke-linecap="round" stroke-linejoin="round"/>
<path d="M351.217 161.344V158.677" stroke="black" stroke-width="0.5" stroke-miterlimit="10" stroke-linecap="round" stroke-linejoin="round"/>
</g>
<path d="M350.26 157.543V124.301L350.345 121.32L340.385 123.346L327.886 127.345L312.72 129.012L296.888 133.678L281.889 131.845L264.889 127.012L248.557 134.49L235.724 129.678L218.558 131.845L204.226 125.845L187.727 149.011L172.228 130.512L164.523 138.133V157.543H350.26Z" fill="#52CEC7"/>
<path opacity="0.5" d="M350.26 157.543V124.301L350.345 121.32L340.385 123.346L327.886 127.345L312.72 129.012L296.888 133.678L281.889 131.845L264.889 127.012L248.557 134.49L235.724 129.678L218.558 131.845L204.226 125.845L187.727 149.011L172.228 130.512L164.523 138.133V157.543H350.26Z" fill="white"/>
<path opacity="0.15" d="M350.392 157.543V146.364L350.432 144.996L340.384 140.934L327.885 138.101L312.719 139.768L296.887 142.601L281.888 140.434L264.888 138.767L248.556 139.1L235.723 142.767L218.557 145.767L204.225 142.767L187.726 144.267L172.227 145.933L164.727 146.933H164.373V157.543H350.392Z" fill="black"/>
<path d="M172.228 146.934C172.78 146.934 173.228 146.486 173.228 145.934C173.228 145.382 172.78 144.934 172.228 144.934C171.676 144.934 171.229 145.382 171.229 145.934C171.229 146.486 171.676 146.934 172.228 146.934Z" fill="#263238"/>
<path d="M188.728 144.267C188.728 143.715 188.281 143.268 187.728 143.268C187.176 143.268 186.729 143.715 186.729 144.267C186.729 144.82 187.176 145.267 187.728 145.267C188.28 145.267 188.728 144.82 188.728 144.267Z" fill="#263238"/>
<path d="M204.226 143.767C204.779 143.767 205.226 143.32 205.226 142.767C205.226 142.215 204.779 141.768 204.226 141.768C203.674 141.768 203.227 142.215 203.227 142.767C203.227 143.32 203.674 143.767 204.226 143.767Z" fill="#263238"/>
<path d="M218.558 146.767C219.111 146.767 219.558 146.32 219.558 145.767C219.558 145.215 219.111 144.768 218.558 144.768C218.006 144.768 217.559 145.215 217.559 145.767C217.559 146.32 218.006 146.767 218.558 146.767Z" fill="#263238"/>
<path d="M235.724 143.767C236.277 143.767 236.724 143.32 236.724 142.767C236.724 142.215 236.277 141.768 235.724 141.768C235.172 141.768 234.725 142.215 234.725 142.767C234.725 143.32 235.172 143.767 235.724 143.767Z" fill="#263238"/>
<path d="M248.558 140.101C249.111 140.101 249.558 139.653 249.558 139.101C249.558 138.549 249.111 138.101 248.558 138.101C248.006 138.101 247.559 138.549 247.559 139.101C247.559 139.653 248.006 140.101 248.558 140.101Z" fill="#263238"/>
<path d="M264.89 139.767C265.443 139.767 265.89 139.32 265.89 138.767C265.89 138.215 265.443 137.768 264.89 137.768C264.338 137.768 263.891 138.215 263.891 138.767C263.891 139.32 264.338 139.767 264.89 139.767Z" fill="#263238"/>
<path d="M282.888 140.434C282.888 139.882 282.441 139.435 281.888 139.435C281.336 139.435 280.889 139.882 280.889 140.434C280.889 140.987 281.336 141.434 281.888 141.434C282.441 141.434 282.888 140.987 282.888 140.434Z" fill="#263238"/>
<path d="M296.888 143.601C297.441 143.601 297.888 143.153 297.888 142.601C297.888 142.049 297.441 141.601 296.888 141.601C296.336 141.601 295.889 142.049 295.889 142.601C295.889 143.153 296.336 143.601 296.888 143.601Z" fill="#263238"/>
<path d="M312.721 140.768C313.273 140.768 313.72 140.32 313.72 139.768C313.72 139.216 313.273 138.768 312.721 138.768C312.168 138.768 311.721 139.216 311.721 139.768C311.721 140.32 312.168 140.768 312.721 140.768Z" fill="#263238"/>
<path d="M327.887 139.101C328.439 139.101 328.886 138.653 328.886 138.101C328.886 137.549 328.439 137.101 327.887 137.101C327.334 137.101 326.887 137.549 326.887 138.101C326.887 138.653 327.334 139.101 327.887 139.101Z" fill="#263238"/>
<path d="M341.386 140.934C341.386 140.382 340.939 139.934 340.387 139.934C339.834 139.934 339.387 140.382 339.387 140.934C339.387 141.486 339.834 141.934 340.387 141.934C340.938 141.934 341.386 141.486 341.386 140.934Z" fill="#263238"/>
<g opacity="0.3">
<path d="M172.228 131.512C172.78 131.512 173.228 131.064 173.228 130.512C173.228 129.96 172.78 129.512 172.228 129.512C171.676 129.512 171.229 129.96 171.229 130.512C171.229 131.064 171.676 131.512 172.228 131.512Z" fill="black"/>
<path d="M187.728 150.01C188.28 150.01 188.728 149.563 188.728 149.011C188.728 148.458 188.28 148.011 187.728 148.011C187.176 148.011 186.729 148.458 186.729 149.011C186.729 149.563 187.176 150.01 187.728 150.01Z" fill="black"/>
<path d="M205.226 125.846C205.226 125.293 204.779 124.846 204.226 124.846C203.674 124.846 203.227 125.293 203.227 125.846C203.227 126.398 203.674 126.845 204.226 126.845C204.778 126.845 205.226 126.398 205.226 125.846Z" fill="black"/>
<path d="M218.558 132.845C219.111 132.845 219.558 132.397 219.558 131.845C219.558 131.293 219.111 130.845 218.558 130.845C218.006 130.845 217.559 131.293 217.559 131.845C217.559 132.397 218.006 132.845 218.558 132.845Z" fill="black"/>
<path d="M236.724 129.679C236.724 129.126 236.277 128.679 235.724 128.679C235.172 128.679 234.725 129.126 234.725 129.679C234.725 130.231 235.172 130.678 235.724 130.678C236.277 130.679 236.724 130.231 236.724 129.679Z" fill="black"/>
<path d="M248.558 135.093C249.111 135.093 249.558 134.645 249.558 134.093C249.558 133.541 249.111 133.093 248.558 133.093C248.006 133.093 247.559 133.541 247.559 134.093C247.559 134.645 248.006 135.093 248.558 135.093Z" fill="black"/>
<path d="M264.89 128.012C265.443 128.012 265.89 127.564 265.89 127.012C265.89 126.46 265.443 126.012 264.89 126.012C264.338 126.012 263.891 126.46 263.891 127.012C263.891 127.564 264.338 128.012 264.89 128.012Z" fill="black"/>
<path d="M281.888 132.845C282.441 132.845 282.888 132.397 282.888 131.845C282.888 131.293 282.441 130.845 281.888 130.845C281.336 130.845 280.889 131.293 280.889 131.845C280.889 132.397 281.336 132.845 281.888 132.845Z" fill="black"/>
<path d="M296.888 134.678C297.441 134.678 297.888 134.23 297.888 133.678C297.888 133.126 297.441 132.678 296.888 132.678C296.336 132.678 295.889 133.126 295.889 133.678C295.889 134.23 296.336 134.678 296.888 134.678Z" fill="black"/>
<path d="M312.721 130.011C313.273 130.011 313.72 129.564 313.72 129.012C313.72 128.459 313.273 128.012 312.721 128.012C312.168 128.012 311.721 128.459 311.721 129.012C311.721 129.564 312.168 130.011 312.721 130.011Z" fill="black"/>
<path d="M327.887 128.345C328.439 128.345 328.886 127.898 328.886 127.346C328.886 126.793 328.439 126.346 327.887 126.346C327.334 126.346 326.887 126.793 326.887 127.346C326.887 127.898 327.334 128.345 327.887 128.345Z" fill="black"/>
<path d="M340.385 124.345C340.937 124.345 341.384 123.898 341.384 123.346C341.384 122.793 340.937 122.346 340.385 122.346C339.832 122.346 339.385 122.793 339.385 123.346C339.385 123.898 339.832 124.345 340.385 124.345Z" fill="black"/>
</g>
<path d="M338.165 118.902V120.429H337.342V118.902H334.896V118.134L337.246 112.852H338.166V118.134H338.772V118.902H338.165ZM335.676 118.134H337.342V114.432L335.676 118.134Z" fill="#263238"/>
<path d="M340.265 115.937C340.503 115.525 340.883 115.309 341.391 115.309C342.365 115.309 342.798 116.023 342.798 117.105V118.588C342.798 119.747 342.246 120.504 341.088 120.504C339.929 120.504 339.389 119.746 339.389 118.588V118.08H340.178V118.643C340.178 119.325 340.46 119.736 341.066 119.736C341.672 119.736 341.953 119.325 341.953 118.643V117.17C341.953 116.488 341.672 116.077 341.066 116.077C340.6 116.077 340.286 116.337 340.211 116.889V117.062H339.421L339.627 112.852H342.615V113.61H340.385L340.265 115.937Z" fill="#263238"/>
<path d="M345.73 114.031V116.424C345.73 117.16 345.384 117.647 344.649 117.647C343.912 117.647 343.566 117.16 343.566 116.424V114.031C343.566 113.306 343.913 112.809 344.649 112.809C345.384 112.809 345.73 113.306 345.73 114.031ZM344.107 113.999V116.467C344.107 116.878 344.259 117.149 344.648 117.149C345.027 117.149 345.189 116.879 345.189 116.467V113.999C345.189 113.588 345.027 113.306 344.648 113.306C344.259 113.306 344.107 113.588 344.107 113.999ZM348.231 112.852L345.243 120.428H344.734L347.722 112.852H348.231ZM349.454 116.856V119.238C349.454 119.974 349.118 120.461 348.371 120.461C347.635 120.461 347.29 119.974 347.29 119.238V116.856C347.29 116.131 347.636 115.644 348.371 115.644C349.118 115.644 349.454 116.131 349.454 116.856ZM347.83 116.824V119.281C347.83 119.692 347.993 119.974 348.371 119.974C348.749 119.974 348.912 119.693 348.912 119.281V116.824C348.912 116.413 348.749 116.142 348.371 116.142C347.993 116.142 347.83 116.413 347.83 116.824Z" fill="#263238"/>
<path d="M338.502 147.65C338.502 149.934 335.936 150.756 335.925 152.499V152.617H338.414V153.386H335.092V152.736C335.092 150.29 337.657 149.813 337.657 147.681C337.657 146.902 337.398 146.491 336.77 146.491C336.152 146.491 335.883 146.935 335.883 147.606V148.276H335.092V147.659C335.092 146.501 335.623 145.732 336.792 145.732C337.971 145.734 338.502 146.492 338.502 147.65Z" fill="#263238"/>
<path d="M339.215 147.639C339.215 146.48 339.789 145.734 340.947 145.734C342.116 145.734 342.689 146.481 342.689 147.639V151.546C342.689 152.705 342.116 153.462 340.947 153.462C339.788 153.462 339.215 152.704 339.215 151.546V147.639ZM340.048 151.6C340.048 152.282 340.34 152.693 340.947 152.693C341.563 152.693 341.844 152.282 341.844 151.6V147.596C341.844 146.903 341.563 146.492 340.947 146.492C340.34 146.492 340.048 146.903 340.048 147.596V151.6Z" fill="#263238"/>
<path d="M345.611 146.989V149.381C345.611 150.118 345.265 150.604 344.53 150.604C343.793 150.604 343.447 150.118 343.447 149.381V146.989C343.447 146.264 343.793 145.766 344.53 145.766C345.265 145.766 345.611 146.264 345.611 146.989ZM343.987 146.957V149.425C343.987 149.836 344.139 150.106 344.529 150.106C344.907 150.106 345.07 149.836 345.07 149.425V146.957C345.07 146.546 344.907 146.264 344.529 146.264C344.139 146.264 343.987 146.546 343.987 146.957ZM348.112 145.809L345.124 153.386H344.615L347.603 145.809H348.112ZM349.335 149.814V152.196C349.335 152.932 348.999 153.418 348.253 153.418C347.517 153.418 347.171 152.931 347.171 152.196V149.814C347.171 149.089 347.517 148.602 348.253 148.602C348.999 148.602 349.335 149.089 349.335 149.814ZM347.711 149.782V152.239C347.711 152.65 347.874 152.932 348.252 152.932C348.631 152.932 348.793 152.651 348.793 152.239V149.782C348.793 149.371 348.63 149.1 348.252 149.1C347.874 149.1 347.711 149.371 347.711 149.782Z" fill="#263238"/>
<path d="M217.324 178.505H212.426V183.404H217.324V178.505Z" fill="#263238"/>
<path d="M220.385 180.955H240.284" stroke="#263238" stroke-miterlimit="10" stroke-linejoin="round"/>
<path d="M217.324 187.383H212.426V192.282H217.324V187.383Z" fill="#52CEC7"/>
<path d="M220.385 189.833H240.284" stroke="#263238" stroke-miterlimit="10" stroke-linejoin="round"/>
<path d="M217.324 196.262H212.426V201.16H217.324V196.262Z" fill="#7D7D7D"/>
<path d="M220.385 198.711H240.284" stroke="#263238" stroke-miterlimit="10" stroke-linejoin="round"/>
<path d="M191.875 204.388C198.138 201.739 202.533 195.537 202.533 188.309C202.533 184.148 201.077 180.327 198.646 177.329" stroke="#52CEC7" stroke-width="7" stroke-miterlimit="10" stroke-linejoin="round"/>
<path d="M170.471 197.852C173.586 202.613 178.967 205.759 185.083 205.759C187.492 205.759 189.788 205.271 191.876 204.388" stroke="#7D7D7D" stroke-width="7" stroke-miterlimit="10" stroke-linejoin="round"/>
<path d="M198.646 177.328C195.447 173.381 190.559 170.858 185.083 170.858C175.445 170.858 167.633 178.671 167.633 188.309C167.633 191.831 168.676 195.109 170.471 197.851" stroke="#263238" stroke-width="7" stroke-miterlimit="10" stroke-linejoin="round"/>
<path d="M177.709 186.404H192.984" stroke="#263238" stroke-miterlimit="10" stroke-linejoin="round"/>
<path d="M177.709 190.917H192.984" stroke="#263238" stroke-miterlimit="10" stroke-linejoin="round"/>
<path d="M330.5 184.896H350.589" stroke="#263238" stroke-miterlimit="10" stroke-linecap="round" stroke-linejoin="round"/>
<path d="M330.5 187.202H350.589" stroke="#263238" stroke-miterlimit="10" stroke-linecap="round" stroke-linejoin="round"/>
<path d="M348.965 174.146C347.561 172.215 345.832 170.958 343.561 170.221C341.291 169.483 339.153 169.483 336.883 170.221C334.612 170.958 332.883 172.215 331.48 174.146C330.076 176.077 329.416 178.11 329.416 180.498H340.222H351.028C351.028 178.11 350.367 176.077 348.965 174.146Z" fill="#52CEC7"/>
<path d="M340.223 180.498L348.965 174.146C350.368 176.077 351.029 178.11 351.029 180.498H340.223Z" stroke="white" stroke-width="0.5" stroke-miterlimit="10" stroke-linecap="round" stroke-linejoin="round"/>
<path d="M340.223 180.498L343.562 170.221C345.832 170.958 347.562 172.215 348.965 174.146L340.223 180.498Z" stroke="white" stroke-width="0.5" stroke-miterlimit="10" stroke-linecap="round" stroke-linejoin="round"/>
<path d="M340.222 180.498L336.883 170.221C339.153 169.483 341.291 169.483 343.561 170.221L340.222 180.498Z" stroke="white" stroke-width="0.5" stroke-miterlimit="10" stroke-linecap="round" stroke-linejoin="round"/>
<path d="M340.223 180.498L331.48 174.146C332.884 172.215 334.613 170.958 336.884 170.221L340.223 180.498Z" stroke="white" stroke-width="0.5" stroke-miterlimit="10" stroke-linecap="round" stroke-linejoin="round"/>
<path d="M340.222 180.498H329.416C329.416 178.111 330.076 176.077 331.48 174.146L340.222 180.498Z" stroke="white" stroke-width="0.5" stroke-miterlimit="10" stroke-linecap="round" stroke-linejoin="round"/>
<path d="M341.531 180.498C341.531 179.776 340.945 179.19 340.223 179.19C339.501 179.19 338.916 179.776 338.916 180.498C338.916 181.22 339.501 181.805 340.223 181.805C340.945 181.805 341.531 181.22 341.531 180.498Z" fill="#263238"/>
<path d="M340.223 180.498L344.661 174.029" stroke="#263238" stroke-miterlimit="10" stroke-linecap="round" stroke-linejoin="round"/>
<path d="M330.5 206.53H350.589" stroke="#263238" stroke-miterlimit="10" stroke-linecap="round" stroke-linejoin="round"/>
<path d="M330.5 208.835H350.589" stroke="#263238" stroke-miterlimit="10" stroke-linecap="round" stroke-linejoin="round"/>
<path d="M348.965 195.779C347.561 193.848 345.832 192.591 343.561 191.854C341.291 191.116 339.153 191.116 336.883 191.854C334.612 192.591 332.883 193.848 331.48 195.779C330.076 197.711 329.416 199.744 329.416 202.131H340.222H351.028C351.028 199.744 350.367 197.711 348.965 195.779Z" fill="#52CEC7"/>
<path d="M340.223 202.131L348.965 195.779C350.368 197.711 351.029 199.743 351.029 202.131H340.223Z" stroke="white" stroke-width="0.5" stroke-miterlimit="10" stroke-linecap="round" stroke-linejoin="round"/>
<path d="M340.223 202.131L343.562 191.854C345.832 192.592 347.562 193.848 348.965 195.78L340.223 202.131Z" stroke="white" stroke-width="0.5" stroke-miterlimit="10" stroke-linecap="round" stroke-linejoin="round"/>
<path d="M340.222 202.131L336.883 191.854C339.153 191.116 341.291 191.116 343.561 191.854L340.222 202.131Z" stroke="white" stroke-width="0.5" stroke-miterlimit="10" stroke-linecap="round" stroke-linejoin="round"/>
<path d="M340.223 202.131L331.48 195.78C332.884 193.848 334.613 192.592 336.884 191.854L340.223 202.131Z" stroke="white" stroke-width="0.5" stroke-miterlimit="10" stroke-linecap="round" stroke-linejoin="round"/>
<path d="M340.222 202.131H329.416C329.416 199.744 330.076 197.711 331.48 195.779L340.222 202.131Z" stroke="white" stroke-width="0.5" stroke-miterlimit="10" stroke-linecap="round" stroke-linejoin="round"/>
<path d="M341.529 202.131C341.529 201.409 340.943 200.824 340.221 200.824C339.499 200.824 338.914 201.409 338.914 202.131C338.914 202.853 339.499 203.438 340.221 203.438C340.943 203.438 341.529 202.853 341.529 202.131Z" fill="#263238"/>
<path d="M340.222 202.131L335.879 195.983" stroke="#263238" stroke-miterlimit="10" stroke-linecap="round" stroke-linejoin="round"/>
<path d="M349.944 228.164H329.855" stroke="#263238" stroke-miterlimit="10" stroke-linecap="round" stroke-linejoin="round"/>
<path d="M349.944 230.469H329.855" stroke="#263238" stroke-miterlimit="10" stroke-linecap="round" stroke-linejoin="round"/>
<path d="M331.481 217.413C332.884 215.482 334.613 214.225 336.883 213.488C339.153 212.75 341.291 212.75 343.561 213.488C345.831 214.225 347.561 215.482 348.964 217.413C350.367 219.345 351.028 221.377 351.028 223.765H340.222H329.416C329.417 221.378 330.077 219.345 331.481 217.413Z" fill="#52CEC7"/>
<path d="M340.222 223.765L331.48 217.413C330.076 219.344 329.416 221.377 329.416 223.765H340.222Z" stroke="white" stroke-width="0.5" stroke-miterlimit="10" stroke-linecap="round" stroke-linejoin="round"/>
<path d="M340.221 223.765L336.882 213.488C334.612 214.225 332.882 215.482 331.479 217.413L340.221 223.765Z" stroke="white" stroke-width="0.5" stroke-miterlimit="10" stroke-linecap="round" stroke-linejoin="round"/>
<path d="M340.222 223.765L343.561 213.488C341.29 212.75 339.153 212.75 336.883 213.488L340.222 223.765Z" stroke="white" stroke-width="0.5" stroke-miterlimit="10" stroke-linecap="round" stroke-linejoin="round"/>
<path d="M340.223 223.765L348.965 217.413C347.561 215.482 345.832 214.225 343.562 213.488L340.223 223.765Z" stroke="white" stroke-width="0.5" stroke-miterlimit="10" stroke-linecap="round" stroke-linejoin="round"/>
<path d="M340.223 223.765H351.029C351.029 221.378 350.368 219.344 348.965 217.413L340.223 223.765Z" stroke="white" stroke-width="0.5" stroke-miterlimit="10" stroke-linecap="round" stroke-linejoin="round"/>
<path d="M338.916 223.765C338.916 223.043 339.501 222.458 340.223 222.458C340.945 222.458 341.531 223.043 341.531 223.765C341.531 224.487 340.945 225.072 340.223 225.072C339.501 225.072 338.916 224.487 338.916 223.765Z" fill="#263238"/>
<path d="M340.223 223.765L332.271 220.574" stroke="#263238" stroke-miterlimit="10" stroke-linecap="round" stroke-linejoin="round"/>
<path d="M330.5 249.797H350.589" stroke="#263238" stroke-miterlimit="10" stroke-linecap="round" stroke-linejoin="round"/>
<path d="M330.5 252.102H350.589" stroke="#263238" stroke-miterlimit="10" stroke-linecap="round" stroke-linejoin="round"/>
<path d="M348.965 239.047C347.561 237.115 345.832 235.859 343.561 235.121C341.291 234.383 339.153 234.383 336.883 235.121C334.612 235.859 332.883 237.115 331.48 239.047C330.076 240.978 329.416 243.011 329.416 245.398H340.222H351.028C351.028 243.011 350.367 240.978 348.965 239.047Z" fill="#52CEC7"/>
<path d="M340.223 245.398L348.965 239.046C350.368 240.978 351.029 243.011 351.029 245.398H340.223Z" stroke="white" stroke-width="0.5" stroke-miterlimit="10" stroke-linecap="round" stroke-linejoin="round"/>
<path d="M340.223 245.398L343.562 235.121C345.832 235.859 347.562 237.115 348.965 239.047L340.223 245.398Z" stroke="white" stroke-width="0.5" stroke-miterlimit="10" stroke-linecap="round" stroke-linejoin="round"/>
<path d="M340.222 245.398L336.883 235.121C339.153 234.383 341.291 234.383 343.561 235.121L340.222 245.398Z" stroke="white" stroke-width="0.5" stroke-miterlimit="10" stroke-linecap="round" stroke-linejoin="round"/>
<path d="M340.223 245.398L331.48 239.047C332.884 237.115 334.613 235.859 336.884 235.121L340.223 245.398Z" stroke="white" stroke-width="0.5" stroke-miterlimit="10" stroke-linecap="round" stroke-linejoin="round"/>
<path d="M340.222 245.398H329.416C329.416 243.011 330.076 240.978 331.48 239.046L340.222 245.398Z" stroke="white" stroke-width="0.5" stroke-miterlimit="10" stroke-linecap="round" stroke-linejoin="round"/>
<path d="M341.529 245.398C341.529 244.676 340.943 244.091 340.221 244.091C339.499 244.091 338.914 244.676 338.914 245.398C338.914 246.12 339.499 246.706 340.221 246.706C340.943 246.706 341.529 246.12 341.529 245.398Z" fill="#263238"/>
<path d="M340.222 245.398L330.391 245.382" stroke="#263238" stroke-miterlimit="10" stroke-linecap="round" stroke-linejoin="round"/>
<path d="M350.2 217.149C350.2 217.149 348.585 219.059 348.144 220.234C347.703 221.409 347.41 223.025 346.822 223.906C346.234 224.788 344.178 224.493 344.178 225.816C344.178 227.138 345.059 228.606 345.059 228.606C345.059 228.606 345.5 232.866 346.087 233.894C346.675 234.922 352.843 233.894 352.843 233.894C352.843 233.894 355.193 230.369 355.193 226.697C355.194 223.025 352.551 217.443 350.2 217.149Z" fill="#F3BEB0" stroke="#263238" stroke-miterlimit="10"/>
<path d="M349.023 223.873C348.964 224.397 348.752 224.804 348.551 224.781C348.349 224.759 348.234 224.315 348.293 223.792C348.351 223.268 348.563 222.861 348.765 222.884C348.966 222.906 349.082 223.349 349.023 223.873Z" fill="#263238"/>
<path d="M348.732 221.262C348.732 221.262 350.348 220.822 350.348 222.878" stroke="#263238" stroke-miterlimit="10"/>
<path d="M364.008 318.199L363.42 330.39C363.42 330.39 367.386 337.586 367.533 344.343C367.68 351.099 370.764 366.962 370.764 366.962L371.352 376.068L369.883 376.215L368.708 373.865C368.708 373.865 368.12 376.362 367.68 376.362C367.239 376.362 363.714 376.068 363.567 375.04C363.421 374.012 363.127 373.424 364.008 373.278C364.89 373.131 367.386 367.256 367.386 367.256C367.386 367.256 361.218 353.009 360.043 350.219C358.868 347.428 357.693 342.875 357.693 342.875C357.693 342.875 356.812 338.028 355.784 333.034C354.756 328.04 353.875 318.934 353.875 318.934L364.008 318.199Z" fill="#F3BEB0" stroke="#263238" stroke-miterlimit="10"/>
<path d="M367.386 367.255C366.652 369.458 365.477 372.836 365.477 372.836L364.008 373.277C363.127 373.424 363.421 374.011 363.568 375.039C363.714 376.067 367.24 376.361 367.68 376.361C368.12 376.361 368.708 373.864 368.708 373.864L369.883 376.214L371.352 376.067L370.764 366.961C370.764 366.961 368.12 365.052 367.386 367.255Z" fill="#263238" stroke="#263238" stroke-miterlimit="10"/>
<path d="M344.62 317.171C344.62 317.171 344.767 321.136 345.795 323.046C346.823 324.955 347.851 331.565 347.851 331.565C347.851 331.565 347.705 341.993 349.32 347.134C350.936 352.274 353.139 369.018 353.139 369.018C353.139 369.018 348.733 374.306 348.145 374.893C347.558 375.48 344.18 376.949 344.914 377.537C345.648 378.124 349.761 378.565 351.083 378.418C352.404 378.272 356.664 375.187 357.104 374.894C357.545 374.6 357.692 378.712 357.692 378.712H359.454L359.895 372.544C359.895 372.544 360.189 370.341 359.748 369.313C359.307 368.284 358.279 366.815 358.279 366.815L359.013 348.456C359.013 348.456 360.188 342.287 359.307 338.175C358.426 334.063 357.251 327.453 357.251 327.453L357.839 318.64L358.279 312.912C358.279 312.912 356.517 311.59 352.111 311.59C347.705 311.59 343.592 312.324 343.592 312.324L344.62 317.171Z" fill="#F3BEB0" stroke="#263238" stroke-miterlimit="10"/>
<path d="M359.895 372.543C359.895 372.543 360.189 370.34 359.748 369.311C359.474 368.672 358.973 367.862 358.633 367.341C357.984 367.753 356.646 368.672 355.783 369.751C354.608 371.22 352.111 374.304 350.789 375.039C349.824 375.575 348.082 375.563 347.209 375.518C346.047 376.201 344.376 377.105 344.915 377.536C345.649 378.123 349.762 378.564 351.083 378.417C352.405 378.27 356.664 375.186 357.105 374.892C357.546 374.598 357.692 378.71 357.692 378.71H359.455L359.895 372.543Z" fill="#263238" stroke="#263238" stroke-miterlimit="10"/>
<path d="M341.242 285.593C341.242 285.593 340.507 297.049 340.654 302.924C340.801 308.799 341.536 318.346 341.536 318.346C341.536 318.346 344.179 319.227 345.795 319.668C347.411 320.109 348.145 320.109 348.145 320.109L350.054 316.731L351.376 320.403C351.376 320.403 354.46 320.696 358.426 320.696C362.391 320.696 366.063 318.934 366.357 318.493C366.651 318.052 367.385 317.318 367.385 317.318L366.064 303.365C366.064 303.365 368.707 296.462 368.854 292.937C369.001 289.412 367.239 285.153 367.239 285.153C367.239 285.153 360.335 287.356 354.754 286.328C349.173 285.299 341.389 283.537 341.389 283.537L341.242 285.593Z" fill="#52CEC7" stroke="#263238" stroke-miterlimit="10"/>
<path d="M365.917 260.918C365.917 260.918 368.707 273.108 368.561 274.872C368.414 276.634 365.183 282.068 365.183 282.068C365.183 282.068 361.658 275.606 361.07 271.934C360.482 268.262 361.07 265.471 361.804 264.149C362.538 262.828 364.595 259.449 364.595 259.449L365.917 260.918Z" fill="#52CEC7" stroke="#263238" stroke-miterlimit="10"/>
<path d="M347.41 247.846C347.41 247.846 341.976 257.246 341.976 259.743C341.976 262.24 342.123 272.081 341.242 275.018C340.36 277.955 339.186 286.328 339.186 286.328C339.186 286.328 341.242 289.118 348.733 290.146C356.223 291.174 365.329 287.943 366.211 287.649C367.092 287.355 368.708 286.474 368.708 286.474L369.589 286.18C369.589 286.18 366.799 281.187 365.624 278.837C364.449 276.487 362.099 272.668 362.687 269.437C363.274 266.206 366.652 261.065 368.121 256.365C369.59 251.665 369.003 245.643 366.799 242.706C364.596 239.769 355.931 239.769 352.112 241.972C348.292 244.174 347.41 247.846 347.41 247.846Z" fill="#52CEC7" stroke="#263238" stroke-miterlimit="10"/>
<path d="M352.438 210.274C350.1 211.286 348.263 213.122 348.88 215.681C349.908 219.94 352.993 222.731 352.993 226.403C352.993 230.075 351.23 237.272 348.733 240.062C346.236 242.853 344.18 251.812 346.383 252.106C348.586 252.399 347.852 248.728 350.936 245.937C354.021 243.147 358.133 245.35 359.161 249.462C360.189 253.575 358.427 257.246 360.63 259.89C362.833 262.534 367.973 261.506 369.883 258.274C371.792 255.043 370.176 252.253 371.352 250.931C372.527 249.609 375.171 247.406 374.289 244.028C373.408 240.65 367.827 240.062 368.414 235.509C369.002 230.956 372.38 224.934 370.911 221.262C369.442 217.59 366.652 213.331 364.301 211.715C362.404 210.411 359.869 209.688 357.609 209.413C356.128 209.233 354.148 209.533 352.438 210.274Z" fill="#263238" stroke="#263238" stroke-miterlimit="10"/>
<path d="M342.712 290.881C342.712 290.881 339.921 296.609 339.775 297.49C339.628 298.372 339.48 304.834 339.48 304.834C339.48 304.834 340.215 307.037 340.655 307.331C341.096 307.625 341.684 307.184 341.684 306.156C341.684 305.128 341.684 304.687 341.684 304.687C341.684 304.687 342.565 302.778 343.299 301.309C344.033 299.84 343.74 296.169 343.74 296.169L346.09 292.203L342.712 290.881Z" fill="#F3BEB0" stroke="#263238" stroke-miterlimit="10"/>
<path d="M341.537 292.79L345.209 295.287L346.678 292.202L342.713 290.881L341.537 292.79Z" fill="#F3BEB0" stroke="#263238" stroke-miterlimit="10"/>
<path d="M358.72 251.371C358.72 251.371 356.517 244.762 352.405 245.055C348.292 245.349 347.264 254.603 347.264 258.421C347.264 262.24 347.852 276.633 347.852 276.633L341.977 290.88L346.236 293.524C346.236 293.524 356.077 278.836 356.371 278.102C356.664 277.368 357.546 258.127 357.546 258.127" fill="#52CEC7"/>
<path d="M358.72 251.371C358.72 251.371 356.517 244.762 352.405 245.055C348.292 245.349 347.264 254.603 347.264 258.421C347.264 262.24 347.852 276.633 347.852 276.633L341.977 290.88L346.236 293.524C346.236 293.524 356.077 278.836 356.371 278.102C356.664 277.368 357.546 258.127 357.546 258.127" stroke="#263238" stroke-miterlimit="10"/>
<path d="M304.953 223.506C304.953 223.506 306.857 223.359 306.271 224.971C305.685 226.582 304.659 227.607 303.927 227.754C303.195 227.901 302.756 227.901 302.756 227.901L304.953 223.506Z" stroke="#263238" stroke-miterlimit="10"/>
<path d="M289.133 222.773C289.133 222.773 287.375 223.066 287.668 224.384C287.96 225.702 288.986 227.899 289.572 228.046C290.158 228.192 291.037 227.314 291.037 227.314L289.133 222.773Z" fill="#CE7A63" stroke="#263238" stroke-miterlimit="10"/>
<path d="M264.344 262.767C264.344 262.767 266.4 257.627 267.429 256.599C268.457 255.57 270.072 251.898 270.072 251.898L271.541 256.599L264.785 264.089C264.785 264.089 264.197 264.236 264.344 262.767Z" fill="white" stroke="#263238" stroke-miterlimit="10"/>
<path d="M266.063 242.236L269.715 257.094C269.929 257.964 270.833 258.473 271.687 258.205L280.576 255.419C281.358 255.173 281.815 254.362 281.619 253.566L278.051 239.074C277.842 238.229 276.98 237.72 276.139 237.947L267.166 240.365C266.352 240.586 265.861 241.417 266.063 242.236Z" fill="#263238" stroke="#263238" stroke-miterlimit="10"/>
<path d="M291.477 228.486L291.33 235.956L301.73 236.981L301.437 229.657L291.477 228.486Z" fill="#CE7A63" stroke="#263238" stroke-miterlimit="10"/>
<path d="M292.649 209.005C292.649 209.005 288.547 211.935 287.669 215.011C286.79 218.086 288.255 222.188 288.84 223.36C289.426 224.532 291.33 229.658 292.063 230.537C292.795 231.416 296.164 232.881 297.335 232.587C298.507 232.295 302.169 231.855 302.608 230.39C303.048 228.925 305.391 223.359 305.684 222.48C305.977 221.602 306.856 215.303 305.977 213.985C305.098 212.667 302.315 209.884 302.315 209.884C302.315 209.884 300.997 207.833 298.213 207.247C295.432 206.661 292.649 209.005 292.649 209.005Z" fill="#263238" stroke="#263238" stroke-miterlimit="10"/>
<path d="M287.083 237.421C287.083 237.421 288.84 234.345 292.941 234.345C297.043 234.345 300.997 234.491 302.023 234.784C303.048 235.077 304.953 238.739 304.953 238.739C304.953 238.739 294.406 238.007 291.477 238.007C288.547 238.007 285.764 238.446 285.764 238.446L287.083 237.421Z" fill="#61D2D2" stroke="#263238" stroke-miterlimit="10"/>
<path d="M309.054 229.511C309.054 229.511 307.003 227.168 306.563 226.289C306.124 225.41 306.416 224.239 306.856 223.945C307.295 223.652 308.027 223.506 308.027 223.506C308.027 223.506 308.467 219.405 308.32 218.818C308.173 218.232 308.759 218.086 309.492 218.232C310.224 218.379 310.517 221.748 310.517 221.748C310.517 221.748 311.543 222.04 312.421 222.919C313.3 223.798 313.447 225.702 313.447 226.288C313.447 226.874 313.447 228.632 313.447 228.632L313.74 230.682L309.638 231.708L309.054 229.511Z" fill="#CE7A63" stroke="#263238" stroke-miterlimit="10"/>
<path d="M310.226 241.961C310.226 241.961 309.348 231.562 309.348 230.976C309.348 230.39 310.519 229.365 311.691 229.365C312.864 229.365 314.035 230.536 314.035 230.536C314.035 230.536 318.283 242.987 319.162 244.158C320.041 245.33 321.798 250.164 321.798 251.629C321.798 253.094 316.525 251.482 315.061 250.164C313.596 248.846 310.667 243.426 310.667 243.426L310.226 241.961Z" fill="#61D2D2" stroke="#263238" stroke-miterlimit="10"/>
<path d="M280.353 282.155L279.031 296.696C279.031 296.696 277.71 330.623 277.71 332.974C277.71 335.323 278.151 352.214 278.738 356.62C279.325 361.026 279.179 368.958 279.179 368.958C279.179 368.958 277.416 369.839 277.416 370.72C277.416 371.602 277.416 372.336 277.416 372.336C277.416 372.336 275.213 373.658 274.479 374.392C273.745 375.126 272.864 376.742 273.892 377.624C274.92 378.505 282.263 381.442 283.292 381.442C284.32 381.442 286.964 381.001 287.551 379.973C288.139 378.945 287.698 374.245 287.698 374.245C287.698 374.245 289.02 372.188 289.02 371.454C289.02 370.72 288.873 369.692 288.873 368.517C288.873 367.342 289.461 353.683 289.461 353.683C289.461 353.683 291.517 325.042 291.811 324.602C292.104 324.161 293.426 304.186 293.426 304.186L295.923 304.48L299.301 329.008C299.301 329.008 303.854 351.92 304.002 352.654C304.148 353.388 306.351 365.579 306.351 365.579C306.351 365.579 306.351 368.223 306.351 369.398C306.351 370.573 307.82 372.923 307.82 372.923C307.82 372.923 307.526 376.595 308.261 377.917C308.995 379.238 311.933 379.386 314.136 378.651C316.339 377.917 315.898 374.979 315.898 373.511C315.898 372.042 315.752 370.574 315.752 370.574C315.752 370.574 315.605 368.37 315.752 366.901C315.898 365.433 314.577 361.173 314.577 360.439C314.577 359.705 315.018 341.933 314.724 338.114C314.429 334.295 311.933 322.252 311.933 322.252C311.933 322.252 310.464 299.633 310.464 299.045C310.464 298.458 310.521 282.828 310.521 282.828C310.521 282.828 304.589 284.358 294.602 283.33C284.615 282.301 280.208 281.42 280.208 281.42L280.353 282.155Z" fill="#1D1D1D" stroke="#263238" stroke-miterlimit="10"/>
<path d="M285.764 238.446C285.764 238.446 275.218 242.694 275.657 243.28C276.097 243.866 270.677 254.119 270.238 254.705C269.798 255.291 264.525 262.029 263.94 263.347C263.354 264.665 262.182 266.423 264.086 268.474C265.991 270.525 266.869 271.257 269.506 270.817C272.142 270.378 278.88 262.761 278.88 262.761C278.88 262.761 279.173 272.282 279.319 274.773C279.466 277.263 279.466 277.995 279.466 279.313C279.466 280.631 278.734 281.364 280.491 282.975C282.249 284.587 289.719 286.637 294.992 286.344C300.265 286.052 304.513 286.052 306.564 285.465C308.615 284.879 310.226 284.587 310.519 282.829C310.811 281.072 310.958 276.238 310.958 274.773C310.958 273.308 311.837 258.075 311.837 258.075C311.837 258.075 316.524 258.515 318.721 258.075C320.918 257.636 322.383 253.535 321.797 251.63C321.211 249.726 318.868 248.261 317.696 247.09C316.524 245.918 315.791 244.307 314.181 242.549C312.57 240.791 311.837 240.791 310.519 240.499C309.2 240.206 304.952 238.741 304.952 238.741C304.952 238.741 294.407 237.421 285.764 238.446Z" fill="#61D2D2" stroke="#263238" stroke-miterlimit="10"/>
<path d="M295.451 281.609C297.693 279.784 300.544 277.354 301.953 275.711L295.451 281.609Z" fill="#61D2D2"/>
<path d="M295.451 281.609C297.693 279.784 300.544 277.354 301.953 275.711" stroke="#263238" stroke-miterlimit="10"/>
<path d="M292.287 284.115C292.287 284.115 292.739 283.77 293.456 283.206L292.287 284.115Z" fill="#61D2D2"/>
<path d="M292.287 284.115C292.287 284.115 292.739 283.77 293.456 283.206" stroke="#263238" stroke-miterlimit="10"/>
<path d="M299.432 282.015L302.794 279.073" stroke="#263238" stroke-miterlimit="10"/>
<path d="M278.881 262.761L276.391 248.114" stroke="#263238" stroke-miterlimit="10"/>
<path d="M274.047 250.311L277.709 255.438" stroke="#263238" stroke-miterlimit="10"/>
<path d="M287.229 240.204C287.229 240.204 292.648 245.917 295.284 253.533L287.229 240.204Z" fill="#61D2D2"/>
<path d="M287.229 240.204C287.229 240.204 292.648 245.917 295.284 253.533" stroke="#263238" stroke-miterlimit="10"/>
<path d="M292.795 244.891C292.795 244.891 296.017 250.604 296.896 252.654L292.795 244.891Z" fill="#61D2D2"/>
<path d="M292.795 244.891C292.795 244.891 296.017 250.604 296.896 252.654" stroke="#263238" stroke-miterlimit="10"/>
<path d="M313.01 242.255C313.01 242.255 314.035 246.942 314.181 247.528L313.01 242.255Z" fill="#61D2D2"/>
<path d="M313.01 242.255C313.01 242.255 314.035 246.942 314.181 247.528" stroke="#263238" stroke-miterlimit="10"/>
<path d="M314.474 251.629C314.182 253.094 311.838 258.074 311.838 258.074C311.838 258.074 315.5 253.826 315.792 253.387" fill="#61D2D2"/>
<path d="M314.474 251.629C314.182 253.094 311.838 258.074 311.838 258.074C311.838 258.074 315.5 253.826 315.792 253.387" stroke="#263238" stroke-miterlimit="10"/>
<path d="M441 38.7207C441 34.8547 437.866 31.7207 434 31.7207H47C43.134 31.7207 40 34.8547 40 38.7207C40 42.5867 43.134 45.7207 47 45.7207H434C437.866 45.7207 441 42.5867 441 38.7207Z" fill="#28282E"/>
<path d="M75.3279 38.7208C75.3279 40.3502 76.6488 41.6711 78.2782 41.6711C79.9076 41.6711 81.2285 40.3502 81.2285 38.7208C81.2285 37.0914 79.9076 35.7705 78.2782 35.7705C76.6488 35.7705 75.3279 37.0914 75.3279 38.7208Z" fill="#3FCA90"/>
<path d="M64.3826 38.7208C64.3826 40.3502 65.7035 41.6711 67.3329 41.6711C68.9623 41.6711 70.2832 40.3502 70.2832 38.7208C70.2832 37.0914 68.9623 35.7705 67.3329 35.7705C65.7035 35.7705 64.3826 37.0914 64.3826 38.7208Z" fill="#FFE073"/>
<path d="M53.4294 38.7208C53.4294 40.3502 54.7503 41.6711 56.3798 41.6711C58.0092 41.6711 59.3301 40.3502 59.3301 38.7208C59.3301 37.0914 58.0092 35.7705 56.3798 35.7705C54.7503 35.7705 53.4294 37.0914 53.4294 38.7208Z" fill="#ED5050"/>
</svg>
