<?xml version="1.0" encoding="UTF-8"?>
<svg xmlns="http://www.w3.org/2000/svg" xmlns:xlink="http://www.w3.org/1999/xlink" width="1125pt" height="374.999991pt" viewBox="0 0 1125 374.999991" version="1.2">
<defs>
<g>
<symbol overflow="visible" id="glyph0-0">
<path style="stroke:none;" d="M 6.859375 -55.125 L 62.0625 -55.125 L 62.0625 0 L 6.859375 0 Z M 34.375 -23.53125 L 47.546875 -9.8125 L 51.921875 -14.203125 L 38.375 -27.59375 L 51.921875 -40.59375 L 47.296875 -45.0625 L 34.53125 -31.421875 L 21.53125 -45.140625 L 17.0625 -40.59375 L 30.46875 -27.4375 L 17.15625 -15.078125 L 21.78125 -9.8125 Z M 34.375 -23.53125 "/>
</symbol>
<symbol overflow="visible" id="glyph0-1">
<path style="stroke:none;" d="M 6.21875 -58.625 L 20.34375 -58.625 C 32.144531 -58.625 40.398438 -55.832031 45.109375 -50.25 C 49.816406 -44.664062 52.171875 -38.019531 52.171875 -30.3125 C 52.171875 -24.9375 51.160156 -19.972656 49.140625 -15.421875 C 47.117188 -10.878906 43.78125 -7.171875 39.125 -4.296875 C 34.46875 -1.429688 28.363281 0 20.8125 0 L 6.21875 0 Z M 21.78125 -7.890625 C 29.113281 -7.890625 34.441406 -9.976562 37.765625 -14.15625 C 41.085938 -18.332031 42.75 -23.582031 42.75 -29.90625 C 42.75 -36.082031 41.070312 -41.109375 37.71875 -44.984375 C 34.375 -48.867188 29.0625 -50.8125 21.78125 -50.8125 L 15.15625 -50.8125 L 15.15625 -7.890625 Z M 21.78125 -7.890625 "/>
</symbol>
<symbol overflow="visible" id="glyph0-2">
<path style="stroke:none;" d="M 6.296875 -36.609375 L 15.234375 -36.609375 L 15.234375 0 L 6.296875 0 Z M 10.6875 -43.46875 C 9.039062 -43.46875 7.660156 -44.023438 6.546875 -45.140625 C 5.429688 -46.265625 4.875 -47.648438 4.875 -49.296875 C 4.875 -50.785156 5.429688 -52.0625 6.546875 -53.125 C 7.660156 -54.1875 9.039062 -54.71875 10.6875 -54.71875 C 12.289062 -54.71875 13.648438 -54.1875 14.765625 -53.125 C 15.878906 -52.0625 16.4375 -50.785156 16.4375 -49.296875 C 16.4375 -47.648438 15.890625 -46.265625 14.796875 -45.140625 C 13.710938 -44.023438 12.34375 -43.46875 10.6875 -43.46875 Z M 10.6875 -43.46875 "/>
</symbol>
<symbol overflow="visible" id="glyph0-3">
<path style="stroke:none;" d="M 23.453125 19.140625 C 20.742188 19.140625 18.070312 18.765625 15.4375 18.015625 C 12.800781 17.273438 10.925781 16.585938 9.8125 15.953125 L 11.71875 7.96875 C 15.226562 10.257812 19.0625 11.40625 23.21875 11.40625 C 26.40625 11.40625 29.085938 10.632812 31.265625 9.09375 C 33.441406 7.550781 34.5625 4.546875 34.625 0.078125 L 34.625 -6.46875 C 33.5 -4.382812 31.6875 -2.648438 29.1875 -1.265625 C 26.6875 0.109375 23.925781 0.796875 20.90625 0.796875 C 17.707031 0.796875 14.78125 0.015625 12.125 -1.546875 C 9.46875 -3.117188 7.367188 -5.367188 5.828125 -8.296875 C 4.285156 -11.222656 3.515625 -14.625 3.515625 -18.5 C 3.515625 -22.226562 4.242188 -25.539062 5.703125 -28.4375 C 7.160156 -31.332031 9.242188 -33.578125 11.953125 -35.171875 C 14.671875 -36.765625 17.835938 -37.5625 21.453125 -37.5625 C 23.578125 -37.5625 25.570312 -37.191406 27.4375 -36.453125 C 29.300781 -35.710938 30.882812 -34.796875 32.1875 -33.703125 C 33.488281 -32.609375 34.351562 -31.53125 34.78125 -30.46875 L 34.9375 -36.609375 L 43.078125 -36.609375 L 43.078125 -0.234375 C 43.078125 5.984375 41.476562 10.765625 38.28125 14.109375 C 35.09375 17.460938 30.148438 19.140625 23.453125 19.140625 Z M 23.296875 -6.46875 C 26.328125 -6.46875 28.878906 -7.515625 30.953125 -9.609375 C 33.023438 -11.710938 34.0625 -14.46875 34.0625 -17.875 L 34.0625 -18.421875 C 34.0625 -20.710938 33.582031 -22.757812 32.625 -24.5625 C 31.664062 -26.375 30.363281 -27.785156 28.71875 -28.796875 C 27.070312 -29.804688 25.265625 -30.3125 23.296875 -30.3125 C 19.890625 -30.3125 17.253906 -29.207031 15.390625 -27 C 13.535156 -24.789062 12.609375 -21.929688 12.609375 -18.421875 C 12.609375 -14.859375 13.523438 -11.972656 15.359375 -9.765625 C 17.191406 -7.566406 19.835938 -6.46875 23.296875 -6.46875 Z M 23.296875 -6.46875 "/>
</symbol>
<symbol overflow="visible" id="glyph0-4">
<path style="stroke:none;" d="M 8.859375 -29.59375 L 2.390625 -29.59375 L 2.390625 -36.609375 L 8.859375 -36.609375 L 8.859375 -51.53125 L 17.546875 -53.4375 L 17.546875 -36.609375 L 26 -36.609375 L 26 -29.59375 L 17.546875 -29.59375 L 17.546875 0 L 8.859375 0 Z M 8.859375 -29.59375 "/>
</symbol>
<symbol overflow="visible" id="glyph0-5">
<path style="stroke:none;" d="M 21.859375 0.796875 C 18.554688 0.796875 15.507812 0.015625 12.71875 -1.546875 C 9.925781 -3.117188 7.691406 -5.351562 6.015625 -8.25 C 4.347656 -11.15625 3.515625 -14.546875 3.515625 -18.421875 C 3.515625 -22.253906 4.242188 -25.601562 5.703125 -28.46875 C 7.160156 -31.34375 9.242188 -33.578125 11.953125 -35.171875 C 14.671875 -36.765625 17.863281 -37.5625 21.53125 -37.5625 C 23.664062 -37.5625 25.660156 -37.191406 27.515625 -36.453125 C 29.378906 -35.710938 30.945312 -34.796875 32.21875 -33.703125 C 33.5 -32.609375 34.351562 -31.53125 34.78125 -30.46875 L 34.9375 -36.609375 L 43.15625 -36.609375 L 43.15625 0 L 35.015625 0 L 34.859375 -6.46875 C 33.953125 -4.550781 32.300781 -2.859375 29.90625 -1.390625 C 27.519531 0.0664062 24.835938 0.796875 21.859375 0.796875 Z M 23.296875 -6.375 C 26.328125 -6.375 28.878906 -7.425781 30.953125 -9.53125 C 33.023438 -11.632812 34.0625 -14.382812 34.0625 -17.78125 L 34.0625 -18.34375 C 34.0625 -20.632812 33.582031 -22.679688 32.625 -24.484375 C 31.664062 -26.296875 30.363281 -27.707031 28.71875 -28.71875 C 27.070312 -29.726562 25.265625 -30.234375 23.296875 -30.234375 C 19.890625 -30.234375 17.253906 -29.128906 15.390625 -26.921875 C 13.535156 -24.710938 12.609375 -21.851562 12.609375 -18.34375 C 12.609375 -14.78125 13.523438 -11.894531 15.359375 -9.6875 C 17.191406 -7.476562 19.835938 -6.375 23.296875 -6.375 Z M 23.296875 -6.375 "/>
</symbol>
<symbol overflow="visible" id="glyph0-6">
<path style="stroke:none;" d="M 6.375 -58.625 L 14.921875 -58.625 L 14.921875 0 L 6.375 0 Z M 6.375 -58.625 "/>
</symbol>
<symbol overflow="visible" id="glyph0-7">
<path style="stroke:none;" d="M 6.21875 -58.625 L 21.140625 -58.625 C 29.535156 -58.625 35.113281 -57.210938 37.875 -54.390625 C 40.644531 -51.578125 42.03125 -48.175781 42.03125 -44.1875 C 42.03125 -41.53125 41.445312 -39.019531 40.28125 -36.65625 C 39.113281 -34.289062 37.253906 -32.519531 34.703125 -31.34375 C 38.472656 -30.382812 41.25 -28.707031 43.03125 -26.3125 C 44.8125 -23.925781 45.703125 -21.113281 45.703125 -17.875 C 45.703125 -14.46875 45.171875 -11.488281 44.109375 -8.9375 C 43.046875 -6.382812 40.835938 -4.253906 37.484375 -2.546875 C 34.140625 -0.847656 29.300781 0 22.96875 0 L 6.21875 0 Z M 22.578125 -33.734375 C 26.347656 -33.734375 29.03125 -34.648438 30.625 -36.484375 C 32.21875 -38.328125 33.015625 -40.65625 33.015625 -43.46875 C 33.015625 -48.519531 29.398438 -51.046875 22.171875 -51.046875 L 15 -51.046875 L 15 -33.734375 Z M 24.171875 -7.5 C 29.003906 -7.5 32.257812 -8.46875 33.9375 -10.40625 C 35.613281 -12.351562 36.453125 -14.8125 36.453125 -17.78125 C 36.453125 -20.601562 35.492188 -22.785156 33.578125 -24.328125 C 31.660156 -25.867188 28.765625 -26.640625 24.890625 -26.640625 L 15 -26.640625 L 15 -7.5 Z M 24.171875 -7.5 "/>
</symbol>
<symbol overflow="visible" id="glyph0-8">
<path style="stroke:none;" d="M 22.734375 0.796875 C 19.117188 0.796875 15.859375 0.015625 12.953125 -1.546875 C 10.054688 -3.117188 7.757812 -5.378906 6.0625 -8.328125 C 4.363281 -11.285156 3.515625 -14.757812 3.515625 -18.75 C 3.515625 -22.519531 4.296875 -25.828125 5.859375 -28.671875 C 7.429688 -31.515625 9.640625 -33.707031 12.484375 -35.25 C 15.328125 -36.789062 18.609375 -37.5625 22.328125 -37.5625 C 25.148438 -37.5625 27.582031 -37.203125 29.625 -36.484375 C 31.675781 -35.773438 33.285156 -34.890625 34.453125 -33.828125 L 30.625 -26.875 C 28.394531 -29.113281 25.867188 -30.234375 23.046875 -30.234375 C 19.648438 -30.234375 17.0625 -29.195312 15.28125 -27.125 C 13.5 -25.050781 12.609375 -22.285156 12.609375 -18.828125 C 12.609375 -14.890625 13.523438 -11.828125 15.359375 -9.640625 C 17.191406 -7.460938 19.753906 -6.375 23.046875 -6.375 C 24.703125 -6.375 26.3125 -6.613281 27.875 -7.09375 C 29.445312 -7.570312 30.65625 -8.132812 31.5 -8.78125 L 34.625 -2.71875 C 33.445312 -1.8125 31.804688 -1 29.703125 -0.28125 C 27.609375 0.4375 25.285156 0.796875 22.734375 0.796875 Z M 22.734375 0.796875 "/>
</symbol>
<symbol overflow="visible" id="glyph0-9">
<path style="stroke:none;" d="M 38.765625 0 L 28.640625 0 L 21.21875 -11.96875 L 19.140625 -16.03125 L 14.359375 -10.84375 L 14.359375 0 L 6.0625 0 L 6.0625 -58.625 L 14.28125 -58.625 L 14.28125 -26.484375 L 14.125 -20.265625 L 28.078125 -36.609375 L 38.6875 -36.609375 L 24.890625 -21.296875 Z M 38.765625 0 "/>
</symbol>
<symbol overflow="visible" id="glyph0-10">
<path style="stroke:none;" d=""/>
</symbol>
<symbol overflow="visible" id="glyph1-0">
<path style="stroke:none;" d="M 46.988281 -181.273438 L 108.65625 -181.273438 L 108.65625 -200.226562 L 67.007812 -200.226562 Z M 67.007812 -178.601562 L 46.988281 -178.601562 L 46.988281 -136.152344 L 67.007812 -136.152344 Z M 108.921875 -133.484375 L 13.347656 -133.484375 L 13.347656 -114.53125 L 108.921875 -114.53125 Z M 67.007812 -111.859375 L 46.988281 -111.859375 L 46.988281 0 L 67.007812 0 Z M 67.007812 -111.859375 "/>
</symbol>
<symbol overflow="visible" id="glyph1-1">
<path style="stroke:none;" d="M 36.039062 -133.484375 L 16.019531 -133.484375 L 16.019531 0 L 36.039062 0 Z M 36.039062 -186.878906 L 16.019531 -186.878906 L 16.019531 -160.179688 L 36.039062 -160.179688 Z M 36.039062 -186.878906 "/>
</symbol>
<symbol overflow="visible" id="glyph1-2">
<path style="stroke:none;" d="M 13.347656 -114.53125 L 123.875 -114.53125 L 104.917969 -133.484375 L 33.371094 -133.484375 Z M 124.941406 -18.953125 L 36.039062 -18.953125 L 36.039062 0 L 104.382812 0 Z M 33.371094 -111.859375 L 13.347656 -111.859375 L 13.347656 -20.023438 L 33.371094 0 Z M 33.371094 -111.859375 "/>
</symbol>
<symbol overflow="visible" id="glyph1-3">
<path style="stroke:none;" d="M 124.941406 -18.953125 L 36.039062 -18.953125 L 36.039062 0 L 104.382812 0 Z M 13.347656 -114.53125 L 102.25 -114.53125 L 102.25 -133.484375 L 33.371094 -133.484375 Z M 33.371094 -111.859375 L 13.347656 -111.859375 L 13.347656 -20.023438 L 33.371094 0 Z M 104.917969 -74.75 L 124.941406 -74.75 L 124.941406 -113.460938 L 104.917969 -133.484375 Z M 124.941406 -72.082031 L 36.039062 -72.082031 L 36.039062 -53.125 L 104.382812 -53.125 Z M 124.941406 -72.082031 "/>
</symbol>
</g>
</defs>
<g id="surface1">
<rect x="0" y="0" width="1125" height="374.999991" style="fill:rgb(100%,100%,100%);fill-opacity:1;stroke:none;"/>
<path style=" stroke:none;fill-rule:nonzero;fill:rgb(32.939148%,32.939148%,32.939148%);fill-opacity:1;" d="M 266.9375 358.542969 C 221.234375 358.542969 178.199219 340.757812 145.90625 308.394531 C 113.542969 276.101562 95.753906 233.066406 95.753906 187.363281 C 95.753906 141.660156 113.542969 98.625 145.90625 66.332031 C 178.199219 33.96875 221.234375 16.179688 266.9375 16.179688 C 312.640625 16.179688 355.675781 33.96875 387.96875 66.332031 C 420.328125 98.691406 438.117188 141.660156 438.117188 187.363281 C 438.117188 233.066406 420.328125 276.101562 387.96875 308.394531 C 355.675781 340.757812 312.640625 358.542969 266.9375 358.542969 Z M 266.9375 26.445312 C 223.96875 26.445312 183.535156 43.207031 153.15625 73.582031 C 122.78125 103.960938 106.015625 144.398438 106.015625 187.363281 C 106.015625 230.328125 122.78125 270.765625 153.15625 301.140625 C 183.535156 331.519531 223.96875 348.28125 266.9375 348.28125 C 309.902344 348.28125 350.335938 331.519531 380.714844 301.140625 C 411.09375 270.765625 427.855469 230.328125 427.855469 187.363281 C 427.855469 144.398438 411.09375 103.960938 380.714844 73.582031 C 350.335938 43.207031 309.902344 26.445312 266.9375 26.445312 Z M 266.9375 26.445312 "/>
<g style="fill:rgb(32.939148%,32.939148%,32.939148%);fill-opacity:1;">
  <use xlink:href="#glyph0-1" x="152.160143" y="180.320408"/>
</g>
<g style="fill:rgb(32.939148%,32.939148%,32.939148%);fill-opacity:1;">
  <use xlink:href="#glyph0-2" x="204.650836" y="180.320408"/>
</g>
<g style="fill:rgb(32.939148%,32.939148%,32.939148%);fill-opacity:1;">
  <use xlink:href="#glyph0-3" x="223.796379" y="180.320408"/>
</g>
<g style="fill:rgb(32.939148%,32.939148%,32.939148%);fill-opacity:1;">
  <use xlink:href="#glyph0-2" x="269.825442" y="180.320408"/>
</g>
<g style="fill:rgb(32.939148%,32.939148%,32.939148%);fill-opacity:1;">
  <use xlink:href="#glyph0-4" x="288.970979" y="180.320408"/>
</g>
<g style="fill:rgb(32.939148%,32.939148%,32.939148%);fill-opacity:1;">
  <use xlink:href="#glyph0-5" x="313.939963" y="180.320408"/>
</g>
<g style="fill:rgb(32.939148%,32.939148%,32.939148%);fill-opacity:1;">
  <use xlink:href="#glyph0-6" x="360.607208" y="180.320408"/>
</g>
<g style="fill:rgb(32.939148%,32.939148%,32.939148%);fill-opacity:1;">
  <use xlink:href="#glyph0-7" x="174.016717" y="260.093475"/>
</g>
<g style="fill:rgb(32.939148%,32.939148%,32.939148%);fill-opacity:1;">
  <use xlink:href="#glyph0-5" x="221.561476" y="260.093475"/>
</g>
<g style="fill:rgb(32.939148%,32.939148%,32.939148%);fill-opacity:1;">
  <use xlink:href="#glyph0-8" x="268.228733" y="260.093475"/>
</g>
<g style="fill:rgb(32.939148%,32.939148%,32.939148%);fill-opacity:1;">
  <use xlink:href="#glyph0-9" x="303.009802" y="260.093475"/>
</g>
<g style="fill:rgb(32.939148%,32.939148%,32.939148%);fill-opacity:1;">
  <use xlink:href="#glyph0-10" x="340.58039" y="260.093475"/>
</g>
<g style="fill:rgb(32.939148%,32.939148%,32.939148%);fill-opacity:1;">
  <use xlink:href="#glyph1-0" x="441.532293" y="258.730105"/>
</g>
<g style="fill:rgb(32.939148%,32.939148%,32.939148%);fill-opacity:1;">
  <use xlink:href="#glyph1-0" x="555.794466" y="258.730105"/>
</g>
<g style="fill:rgb(32.939148%,32.939148%,32.939148%);fill-opacity:1;">
  <use xlink:href="#glyph1-1" x="670.05664" y="258.730105"/>
</g>
<g style="fill:rgb(32.939148%,32.939148%,32.939148%);fill-opacity:1;">
  <use xlink:href="#glyph1-2" x="716.775885" y="258.730105"/>
</g>
<g style="fill:rgb(32.939148%,32.939148%,32.939148%);fill-opacity:1;">
  <use xlink:href="#glyph1-3" x="847.056175" y="258.730105"/>
</g>
</g>
</svg>
