<?xml version="1.0" encoding="UTF-8"?>
<svg xmlns="http://www.w3.org/2000/svg" xmlns:xlink="http://www.w3.org/1999/xlink" width="1125pt" height="1124.99995pt" viewBox="0 0 1125 1124.99995" version="1.2">
<defs>
<g>
<symbol overflow="visible" id="glyph0-0">
<path style="stroke:none;" d="M 30.1875 -242.546875 L 273.078125 -242.546875 L 273.078125 0 L 30.1875 0 Z M 151.28125 -103.546875 L 209.203125 -43.171875 L 228.5 -62.484375 L 168.828125 -121.453125 L 228.5 -178.65625 L 208.140625 -198.3125 L 151.984375 -138.296875 L 94.765625 -198.671875 L 75.109375 -178.65625 L 134.078125 -120.75 L 75.46875 -66.34375 L 95.828125 -43.171875 Z M 151.28125 -103.546875 "/>
</symbol>
<symbol overflow="visible" id="glyph0-1">
<path style="stroke:none;" d="M 27.375 -257.984375 L 89.5 -257.984375 C 141.445312 -257.984375 177.773438 -245.695312 198.484375 -221.125 C 219.191406 -196.5625 229.546875 -167.3125 229.546875 -133.375 C 229.546875 -109.738281 225.097656 -87.914062 216.203125 -67.90625 C 207.316406 -47.90625 192.632812 -31.585938 172.15625 -18.953125 C 151.6875 -6.316406 124.835938 0 91.609375 0 L 27.375 0 Z M 95.828125 -34.75 C 128.117188 -34.75 151.578125 -43.929688 166.203125 -62.296875 C 180.828125 -80.671875 188.140625 -103.78125 188.140625 -131.625 C 188.140625 -158.769531 180.765625 -180.882812 166.015625 -197.96875 C 151.273438 -215.050781 127.878906 -223.59375 95.828125 -223.59375 L 66.6875 -223.59375 L 66.6875 -34.75 Z M 95.828125 -34.75 "/>
</symbol>
<symbol overflow="visible" id="glyph0-2">
<path style="stroke:none;" d="M 27.375 -257.984375 L 93.015625 -257.984375 C 129.984375 -257.984375 154.550781 -251.78125 166.71875 -239.375 C 178.894531 -226.976562 184.984375 -212.003906 184.984375 -194.453125 C 184.984375 -182.753906 182.40625 -171.695312 177.25 -161.28125 C 172.101562 -150.875 163.914062 -143.09375 152.6875 -137.9375 C 169.300781 -133.726562 181.523438 -126.359375 189.359375 -115.828125 C 197.203125 -105.296875 201.125 -92.894531 201.125 -78.625 C 201.125 -63.644531 198.78125 -50.539062 194.09375 -39.3125 C 189.414062 -28.082031 179.707031 -18.722656 164.96875 -11.234375 C 150.226562 -3.742188 128.9375 0 101.09375 0 L 27.375 0 Z M 99.328125 -148.46875 C 115.941406 -148.46875 127.757812 -152.503906 134.78125 -160.578125 C 141.800781 -168.648438 145.3125 -178.890625 145.3125 -191.296875 C 145.3125 -213.523438 129.398438 -224.640625 97.578125 -224.640625 L 65.984375 -224.640625 L 65.984375 -148.46875 Z M 106.359375 -33 C 127.648438 -33 141.976562 -37.265625 149.34375 -45.796875 C 156.71875 -54.335938 160.40625 -65.160156 160.40625 -78.265625 C 160.40625 -90.671875 156.191406 -100.265625 147.765625 -107.046875 C 139.347656 -113.835938 126.597656 -117.234375 109.515625 -117.234375 L 65.984375 -117.234375 L 65.984375 -33 Z M 106.359375 -33 "/>
</symbol>
<symbol overflow="visible" id="glyph1-0">
<path style="stroke:none;" d="M 8.6875 -69.796875 L 78.578125 -69.796875 L 78.578125 0 L 8.6875 0 Z M 43.53125 -29.796875 L 60.203125 -12.421875 L 65.75 -17.984375 L 48.578125 -34.953125 L 65.75 -51.40625 L 59.890625 -57.0625 L 43.734375 -39.796875 L 27.265625 -57.171875 L 21.609375 -51.40625 L 38.578125 -34.75 L 21.71875 -19.09375 L 27.578125 -12.421875 Z M 43.53125 -29.796875 "/>
</symbol>
<symbol overflow="visible" id="glyph1-1">
<path style="stroke:none;" d="M 7.875 -74.234375 L 25.75 -74.234375 C 40.695312 -74.234375 51.148438 -70.695312 57.109375 -63.625 C 63.066406 -56.5625 66.046875 -48.144531 66.046875 -38.375 C 66.046875 -31.570312 64.765625 -25.289062 62.203125 -19.53125 C 59.648438 -13.78125 55.425781 -9.085938 49.53125 -5.453125 C 43.644531 -1.816406 35.921875 0 26.359375 0 L 7.875 0 Z M 27.578125 -10 C 36.867188 -10 43.617188 -12.640625 47.828125 -17.921875 C 52.035156 -23.210938 54.140625 -29.863281 54.140625 -37.875 C 54.140625 -45.6875 52.015625 -52.050781 47.765625 -56.96875 C 43.523438 -61.882812 36.796875 -64.34375 27.578125 -64.34375 L 19.1875 -64.34375 L 19.1875 -10 Z M 27.578125 -10 "/>
</symbol>
<symbol overflow="visible" id="glyph1-2">
<path style="stroke:none;" d="M 7.984375 -46.359375 L 19.296875 -46.359375 L 19.296875 0 L 7.984375 0 Z M 13.546875 -55.046875 C 11.453125 -55.046875 9.695312 -55.75 8.28125 -57.15625 C 6.875 -58.570312 6.171875 -60.328125 6.171875 -62.421875 C 6.171875 -64.304688 6.875 -65.921875 8.28125 -67.265625 C 9.695312 -68.609375 11.453125 -69.28125 13.546875 -69.28125 C 15.554688 -69.28125 17.269531 -68.609375 18.6875 -67.265625 C 20.101562 -65.921875 20.8125 -64.304688 20.8125 -62.421875 C 20.8125 -60.328125 20.117188 -58.570312 18.734375 -57.15625 C 17.359375 -55.75 15.628906 -55.046875 13.546875 -55.046875 Z M 13.546875 -55.046875 "/>
</symbol>
<symbol overflow="visible" id="glyph1-3">
<path style="stroke:none;" d="M 29.6875 24.234375 C 26.257812 24.234375 22.878906 23.757812 19.546875 22.8125 C 16.210938 21.875 13.835938 21.003906 12.421875 20.203125 L 14.84375 10.09375 C 19.289062 12.988281 24.140625 14.4375 29.390625 14.4375 C 33.429688 14.4375 36.832031 13.457031 39.59375 11.5 C 42.351562 9.550781 43.765625 5.75 43.828125 0.09375 L 43.828125 -8.1875 C 42.421875 -5.550781 40.132812 -3.359375 36.96875 -1.609375 C 33.800781 0.140625 30.300781 1.015625 26.46875 1.015625 C 22.425781 1.015625 18.71875 0.0195312 15.34375 -1.96875 C 11.976562 -3.957031 9.316406 -6.800781 7.359375 -10.5 C 5.410156 -14.207031 4.4375 -18.519531 4.4375 -23.4375 C 4.4375 -28.144531 5.363281 -32.332031 7.21875 -36 C 9.070312 -39.675781 11.710938 -42.523438 15.140625 -44.546875 C 18.578125 -46.566406 22.585938 -47.578125 27.171875 -47.578125 C 29.859375 -47.578125 32.378906 -47.101562 34.734375 -46.15625 C 37.097656 -45.21875 39.101562 -44.054688 40.75 -42.671875 C 42.40625 -41.296875 43.5 -39.929688 44.03125 -38.578125 L 44.234375 -46.359375 L 54.546875 -46.359375 L 54.546875 -0.296875 C 54.546875 7.578125 52.523438 13.632812 48.484375 17.875 C 44.441406 22.113281 38.175781 24.234375 29.6875 24.234375 Z M 29.484375 -8.1875 C 33.328125 -8.1875 36.5625 -9.515625 39.1875 -12.171875 C 41.8125 -14.828125 43.125 -18.3125 43.125 -22.625 L 43.125 -23.328125 C 43.125 -26.222656 42.515625 -28.816406 41.296875 -31.109375 C 40.085938 -33.398438 38.441406 -35.179688 36.359375 -36.453125 C 34.273438 -37.734375 31.984375 -38.375 29.484375 -38.375 C 25.179688 -38.375 21.847656 -36.976562 19.484375 -34.1875 C 17.128906 -31.394531 15.953125 -27.773438 15.953125 -23.328125 C 15.953125 -18.816406 17.113281 -15.164062 19.4375 -12.375 C 21.757812 -9.582031 25.109375 -8.1875 29.484375 -8.1875 Z M 29.484375 -8.1875 "/>
</symbol>
<symbol overflow="visible" id="glyph1-4">
<path style="stroke:none;" d="M 11.21875 -37.46875 L 3.03125 -37.46875 L 3.03125 -46.359375 L 11.21875 -46.359375 L 11.21875 -65.25 L 22.21875 -67.671875 L 22.21875 -46.359375 L 32.921875 -46.359375 L 32.921875 -37.46875 L 22.21875 -37.46875 L 22.21875 0 L 11.21875 0 Z M 11.21875 -37.46875 "/>
</symbol>
<symbol overflow="visible" id="glyph1-5">
<path style="stroke:none;" d="M 27.671875 1.015625 C 23.492188 1.015625 19.640625 0.0195312 16.109375 -1.96875 C 12.578125 -3.957031 9.75 -6.785156 7.625 -10.453125 C 5.5 -14.117188 4.4375 -18.410156 4.4375 -23.328125 C 4.4375 -28.179688 5.363281 -32.425781 7.21875 -36.0625 C 9.070312 -39.695312 11.710938 -42.523438 15.140625 -44.546875 C 18.578125 -46.566406 22.617188 -47.578125 27.265625 -47.578125 C 29.960938 -47.578125 32.488281 -47.101562 34.84375 -46.15625 C 37.195312 -45.21875 39.179688 -44.054688 40.796875 -42.671875 C 42.421875 -41.296875 43.5 -39.929688 44.03125 -38.578125 L 44.234375 -46.359375 L 54.640625 -46.359375 L 54.640625 0 L 44.34375 0 L 44.140625 -8.1875 C 42.992188 -5.757812 40.90625 -3.617188 37.875 -1.765625 C 34.84375 0.0859375 31.441406 1.015625 27.671875 1.015625 Z M 29.484375 -8.078125 C 33.328125 -8.078125 36.5625 -9.40625 39.1875 -12.0625 C 41.8125 -14.726562 43.125 -18.210938 43.125 -22.515625 L 43.125 -23.234375 C 43.125 -26.128906 42.515625 -28.71875 41.296875 -31 C 40.085938 -33.289062 38.441406 -35.078125 36.359375 -36.359375 C 34.273438 -37.640625 31.984375 -38.28125 29.484375 -38.28125 C 25.179688 -38.28125 21.847656 -36.878906 19.484375 -34.078125 C 17.128906 -31.285156 15.953125 -27.671875 15.953125 -23.234375 C 15.953125 -18.722656 17.113281 -15.066406 19.4375 -12.265625 C 21.757812 -9.472656 25.109375 -8.078125 29.484375 -8.078125 Z M 29.484375 -8.078125 "/>
</symbol>
<symbol overflow="visible" id="glyph1-6">
<path style="stroke:none;" d="M 8.078125 -74.234375 L 18.890625 -74.234375 L 18.890625 0 L 8.078125 0 Z M 8.078125 -74.234375 "/>
</symbol>
<symbol overflow="visible" id="glyph1-7">
<path style="stroke:none;" d=""/>
</symbol>
<symbol overflow="visible" id="glyph1-8">
<path style="stroke:none;" d="M 7.875 -74.234375 L 26.765625 -74.234375 C 37.398438 -74.234375 44.46875 -72.445312 47.96875 -68.875 C 51.476562 -65.3125 53.234375 -61.003906 53.234375 -55.953125 C 53.234375 -52.585938 52.488281 -49.40625 51 -46.40625 C 49.519531 -43.414062 47.164062 -41.175781 43.9375 -39.6875 C 48.71875 -38.476562 52.234375 -36.359375 54.484375 -33.328125 C 56.742188 -30.296875 57.875 -26.726562 57.875 -22.625 C 57.875 -18.3125 57.195312 -14.539062 55.84375 -11.3125 C 54.5 -8.082031 51.707031 -5.390625 47.46875 -3.234375 C 43.226562 -1.078125 37.101562 0 29.09375 0 L 7.875 0 Z M 28.578125 -42.71875 C 33.359375 -42.71875 36.757812 -43.878906 38.78125 -46.203125 C 40.800781 -48.523438 41.8125 -51.472656 41.8125 -55.046875 C 41.8125 -61.441406 37.234375 -64.640625 28.078125 -64.640625 L 18.984375 -64.640625 L 18.984375 -42.71875 Z M 30.609375 -9.5 C 36.734375 -9.5 40.851562 -10.722656 42.96875 -13.171875 C 45.09375 -15.628906 46.15625 -18.742188 46.15625 -22.515625 C 46.15625 -26.085938 44.941406 -28.847656 42.515625 -30.796875 C 40.097656 -32.753906 36.429688 -33.734375 31.515625 -33.734375 L 18.984375 -33.734375 L 18.984375 -9.5 Z M 30.609375 -9.5 "/>
</symbol>
<symbol overflow="visible" id="glyph1-9">
<path style="stroke:none;" d="M 28.78125 1.015625 C 24.207031 1.015625 20.082031 0.0195312 16.40625 -1.96875 C 12.738281 -3.957031 9.828125 -6.816406 7.671875 -10.546875 C 5.515625 -14.285156 4.4375 -18.679688 4.4375 -23.734375 C 4.4375 -28.515625 5.429688 -32.707031 7.421875 -36.3125 C 9.410156 -39.914062 12.203125 -42.691406 15.796875 -44.640625 C 19.398438 -46.597656 23.5625 -47.578125 28.28125 -47.578125 C 31.851562 -47.578125 34.929688 -47.117188 37.515625 -46.203125 C 40.109375 -45.296875 42.144531 -44.171875 43.625 -42.828125 L 38.78125 -34.03125 C 35.957031 -36.863281 32.757812 -38.28125 29.1875 -38.28125 C 24.875 -38.28125 21.585938 -36.96875 19.328125 -34.34375 C 17.078125 -31.71875 15.953125 -28.21875 15.953125 -23.84375 C 15.953125 -18.851562 17.113281 -14.976562 19.4375 -12.21875 C 21.757812 -9.457031 25.007812 -8.078125 29.1875 -8.078125 C 31.269531 -8.078125 33.304688 -8.378906 35.296875 -8.984375 C 37.285156 -9.585938 38.816406 -10.296875 39.890625 -11.109375 L 43.828125 -3.4375 C 42.347656 -2.289062 40.28125 -1.257812 37.625 -0.34375 C 34.96875 0.5625 32.019531 1.015625 28.78125 1.015625 Z M 28.78125 1.015625 "/>
</symbol>
<symbol overflow="visible" id="glyph1-10">
<path style="stroke:none;" d="M 49.09375 0 L 36.265625 0 L 26.859375 -15.15625 L 24.234375 -20.296875 L 18.1875 -13.734375 L 18.1875 0 L 7.671875 0 L 7.671875 -74.234375 L 18.078125 -74.234375 L 18.078125 -33.53125 L 17.875 -25.65625 L 35.546875 -46.359375 L 48.984375 -46.359375 L 31.515625 -26.96875 Z M 49.09375 0 "/>
</symbol>
<symbol overflow="visible" id="glyph1-11">
<path style="stroke:none;" d="M 42.015625 1.015625 C 35.285156 1.015625 29.070312 -0.550781 23.375 -3.6875 C 17.6875 -6.820312 13.160156 -11.28125 9.796875 -17.0625 C 6.429688 -22.851562 4.75 -29.585938 4.75 -37.265625 C 4.75 -45.015625 6.429688 -51.765625 9.796875 -57.515625 C 13.160156 -63.273438 17.6875 -67.703125 23.375 -70.796875 C 29.070312 -73.898438 35.285156 -75.453125 42.015625 -75.453125 C 48.742188 -75.453125 54.953125 -73.898438 60.640625 -70.796875 C 66.335938 -67.703125 70.867188 -63.273438 74.234375 -57.515625 C 77.597656 -51.765625 79.28125 -45.015625 79.28125 -37.265625 C 79.28125 -29.585938 77.597656 -22.851562 74.234375 -17.0625 C 70.867188 -11.28125 66.335938 -6.820312 60.640625 -3.6875 C 54.953125 -0.550781 48.742188 1.015625 42.015625 1.015625 Z M 42.015625 -9.1875 C 46.660156 -9.1875 50.898438 -10.28125 54.734375 -12.46875 C 58.578125 -14.65625 61.625 -17.851562 63.875 -22.0625 C 66.132812 -26.269531 67.265625 -31.304688 67.265625 -37.171875 C 67.265625 -43.097656 66.132812 -48.164062 63.875 -52.375 C 61.625 -56.582031 58.597656 -59.757812 54.796875 -61.90625 C 50.992188 -64.0625 46.734375 -65.140625 42.015625 -65.140625 C 37.304688 -65.140625 33.03125 -64.0625 29.1875 -61.90625 C 25.351562 -59.757812 22.320312 -56.582031 20.09375 -52.375 C 17.875 -48.164062 16.765625 -43.097656 16.765625 -37.171875 C 16.765625 -31.304688 17.910156 -26.269531 20.203125 -22.0625 C 22.492188 -17.851562 25.570312 -14.65625 29.4375 -12.46875 C 33.3125 -10.28125 37.503906 -9.1875 42.015625 -9.1875 Z M 42.015625 -9.1875 "/>
</symbol>
<symbol overflow="visible" id="glyph1-12">
<path style="stroke:none;" d="M 11.515625 -37.671875 L 4.046875 -37.671875 L 4.046875 -46.359375 L 11.515625 -46.359375 L 11.515625 -56.359375 C 11.515625 -62.421875 12.976562 -67.117188 15.90625 -70.453125 C 18.832031 -73.785156 23.125 -75.453125 28.78125 -75.453125 C 31.070312 -75.453125 33.664062 -74.8125 36.5625 -73.53125 L 34.4375 -63.21875 C 33.96875 -63.757812 33.242188 -64.28125 32.265625 -64.78125 C 31.296875 -65.289062 30.238281 -65.546875 29.09375 -65.546875 C 24.582031 -65.546875 22.289062 -62.617188 22.21875 -56.765625 L 22.21875 -46.359375 L 33.125 -46.359375 L 33.125 -37.671875 L 22.21875 -37.671875 L 22.21875 0 L 11.515625 0 Z M 11.515625 -37.671875 "/>
</symbol>
<symbol overflow="visible" id="glyph1-13">
<path style="stroke:none;" d="M 29.09375 1.015625 C 23.570312 1.015625 18.957031 -0.078125 15.25 -2.265625 C 11.550781 -4.460938 8.820312 -7.394531 7.0625 -11.0625 C 5.3125 -14.726562 4.4375 -18.75 4.4375 -23.125 C 4.4375 -28.039062 5.460938 -32.347656 7.515625 -36.046875 C 9.578125 -39.753906 12.425781 -42.601562 16.0625 -44.59375 C 19.695312 -46.582031 23.800781 -47.578125 28.375 -47.578125 C 35.519531 -47.578125 40.820312 -45.601562 44.28125 -41.65625 C 47.75 -37.71875 49.484375 -32.179688 49.484375 -25.046875 C 49.484375 -23.234375 49.382812 -21.347656 49.1875 -19.390625 L 15.859375 -19.390625 C 16.597656 -15.285156 18.0625 -12.320312 20.25 -10.5 C 22.4375 -8.6875 25.484375 -7.78125 29.390625 -7.78125 C 32.617188 -7.78125 35.273438 -8.046875 37.359375 -8.578125 C 39.453125 -9.117188 41.375 -9.863281 43.125 -10.8125 L 46.453125 -3.03125 C 44.773438 -1.945312 42.488281 -1 39.59375 -0.1875 C 36.695312 0.613281 33.195312 1.015625 29.09375 1.015625 Z M 38.890625 -26.96875 C 38.953125 -31.144531 38.039062 -34.085938 36.15625 -35.796875 C 34.269531 -37.515625 31.578125 -38.375 28.078125 -38.375 C 21.003906 -38.375 16.929688 -34.570312 15.859375 -26.96875 Z M 38.890625 -26.96875 "/>
</symbol>
</g>
<clipPath id="clip1">
  <path d="M 189.859375 153.789062 L 910.609375 153.789062 L 910.609375 874.539062 L 189.859375 874.539062 Z M 189.859375 153.789062 "/>
</clipPath>
</defs>
<g id="surface1">
<rect x="0" y="0" width="1125" height="1124.99995" style="fill:rgb(100%,100%,100%);fill-opacity:1;stroke:none;"/>
<rect x="0" y="0" width="1125" height="1124.99995" style="fill:rgb(100%,100%,100%);fill-opacity:1;stroke:none;"/>
<rect x="0" y="0" width="1125" height="1124.99995" style="fill:rgb(85.099792%,85.099792%,85.099792%);fill-opacity:1;stroke:none;"/>
<g clip-path="url(#clip1)" clip-rule="nonzero">
<path style=" stroke:none;fill-rule:nonzero;fill:rgb(32.939148%,32.939148%,32.939148%);fill-opacity:1;" d="M 550.234375 189.828125 C 729.089844 189.828125 874.570312 335.308594 874.570312 514.164062 C 874.570312 693.019531 729.089844 838.5 550.234375 838.5 C 371.378906 838.5 225.898438 693.019531 225.898438 514.164062 C 225.898438 335.308594 371.378906 189.828125 550.234375 189.828125 M 550.234375 153.789062 C 351.199219 153.789062 189.859375 315.128906 189.859375 514.164062 C 189.859375 713.199219 351.199219 874.539062 550.234375 874.539062 C 749.269531 874.539062 910.609375 713.199219 910.609375 514.164062 C 910.609375 315.128906 749.269531 153.789062 550.234375 153.789062 Z M 550.234375 153.789062 "/>
</g>
<g style="fill:rgb(32.939148%,32.939148%,32.939148%);fill-opacity:1;">
  <use xlink:href="#glyph0-1" x="337.151523" y="646.057981"/>
</g>
<g style="fill:rgb(32.939148%,32.939148%,32.939148%);fill-opacity:1;">
  <use xlink:href="#glyph0-2" x="568.109068" y="646.057981"/>
</g>
<g style="fill:rgb(32.939148%,32.939148%,32.939148%);fill-opacity:1;">
  <use xlink:href="#glyph1-1" x="139.570325" y="1030.353059"/>
</g>
<g style="fill:rgb(32.939148%,32.939148%,32.939148%);fill-opacity:1;">
  <use xlink:href="#glyph1-2" x="209.052917" y="1030.353059"/>
</g>
<g style="fill:rgb(32.939148%,32.939148%,32.939148%);fill-opacity:1;">
  <use xlink:href="#glyph1-3" x="236.320798" y="1030.353059"/>
</g>
<g style="fill:rgb(32.939148%,32.939148%,32.939148%);fill-opacity:1;">
  <use xlink:href="#glyph1-2" x="297.623027" y="1030.353059"/>
</g>
<g style="fill:rgb(32.939148%,32.939148%,32.939148%);fill-opacity:1;">
  <use xlink:href="#glyph1-4" x="324.890909" y="1030.353059"/>
</g>
<g style="fill:rgb(32.939148%,32.939148%,32.939148%);fill-opacity:1;">
  <use xlink:href="#glyph1-5" x="359.531198" y="1030.353059"/>
</g>
<g style="fill:rgb(32.939148%,32.939148%,32.939148%);fill-opacity:1;">
  <use xlink:href="#glyph1-6" x="421.641346" y="1030.353059"/>
</g>
<g style="fill:rgb(32.939148%,32.939148%,32.939148%);fill-opacity:1;">
  <use xlink:href="#glyph1-7" x="448.707239" y="1030.353059"/>
</g>
<g style="fill:rgb(32.939148%,32.939148%,32.939148%);fill-opacity:1;">
  <use xlink:href="#glyph1-8" x="473.450302" y="1030.353059"/>
</g>
<g style="fill:rgb(32.939148%,32.939148%,32.939148%);fill-opacity:1;">
  <use xlink:href="#glyph1-5" x="536.671396" y="1030.353059"/>
</g>
<g style="fill:rgb(32.939148%,32.939148%,32.939148%);fill-opacity:1;">
  <use xlink:href="#glyph1-9" x="598.781544" y="1030.353059"/>
</g>
<g style="fill:rgb(32.939148%,32.939148%,32.939148%);fill-opacity:1;">
  <use xlink:href="#glyph1-10" x="645.843903" y="1030.353059"/>
</g>
<g style="fill:rgb(32.939148%,32.939148%,32.939148%);fill-opacity:1;">
  <use xlink:href="#glyph1-7" x="696.440976" y="1030.353059"/>
</g>
<g style="fill:rgb(32.939148%,32.939148%,32.939148%);fill-opacity:1;">
  <use xlink:href="#glyph1-11" x="721.184061" y="1030.353059"/>
</g>
<g style="fill:rgb(32.939148%,32.939148%,32.939148%);fill-opacity:1;">
  <use xlink:href="#glyph1-12" x="805.209506" y="1030.353059"/>
</g>
<g style="fill:rgb(32.939148%,32.939148%,32.939148%);fill-opacity:1;">
  <use xlink:href="#glyph1-12" x="841.768661" y="1030.353059"/>
</g>
<g style="fill:rgb(32.939148%,32.939148%,32.939148%);fill-opacity:1;">
  <use xlink:href="#glyph1-2" x="878.327816" y="1030.353059"/>
</g>
<g style="fill:rgb(32.939148%,32.939148%,32.939148%);fill-opacity:1;">
  <use xlink:href="#glyph1-9" x="905.595697" y="1030.353059"/>
</g>
<g style="fill:rgb(32.939148%,32.939148%,32.939148%);fill-opacity:1;">
  <use xlink:href="#glyph1-13" x="952.658056" y="1030.353059"/>
</g>
</g>
</svg>
