<svg width="40" height="40" viewBox="0 0 40 40" fill="none" xmlns="http://www.w3.org/2000/svg">
<path fill-rule="evenodd" clip-rule="evenodd" d="M35.0549 23.6448C33.6235 25.7754 31.8928 27.8863 29.8889 29.8879C27.0088 32.7702 23.9036 35.091 20.8441 36.7716C16.6091 39.0966 12.4416 40.198 9.02403 39.9708C6.46947 39.8025 4.29952 38.911 2.69358 37.3048C0.613186 35.2244 -0.274006 32.1673 0.0734531 28.575C0.165232 27.6158 1.02185 26.9077 1.9812 26.9995C2.94051 27.0913 3.64857 27.9479 3.55241 28.9094C3.31858 31.3285 3.76438 33.4307 5.1673 34.8337C6.48284 36.1492 8.42114 36.619 10.6567 36.4813C13.2309 36.3218 16.1679 35.3494 19.1594 33.7061C21.9521 32.1699 24.7866 30.048 27.4176 27.4171C29.7842 25.0505 31.74 22.52 33.2261 20.0003C31.7402 17.4807 29.7844 14.9502 27.4176 12.5835C26.8013 11.9672 26.1763 11.3816 25.5426 10.8222C24.8193 10.1863 24.7472 9.07839 25.3853 8.35506C26.0234 7.63391 27.1313 7.5618 27.8525 8.19991C28.543 8.80738 29.2226 9.44333 29.8891 10.1098C32.7692 12.9899 35.0878 16.0973 36.7684 19.1545L36.7705 19.1567C39.0979 23.3939 40.1992 27.5592 39.9698 30.9767C39.8015 33.5313 38.91 35.7034 37.306 37.3049C35.2256 39.3875 32.1663 40.2725 28.5739 39.9272C27.6146 39.8354 26.9109 38.981 27.0005 38.0195C27.0945 37.0579 27.9489 36.3521 28.9105 36.4483C31.3295 36.6777 33.4339 36.2363 34.8348 34.8334C36.1525 33.5178 36.6201 31.5774 36.4803 29.3441C36.3732 27.5806 35.8837 25.6488 35.0555 23.6447L35.0549 23.6448ZM3.23085 20.8433C0.903529 16.6061 -0.197812 12.4408 0.0316083 9.02328C0.199872 6.46874 1.08926 4.29662 2.69324 2.69288C4.77581 0.612502 7.83296 -0.272503 11.4253 0.0727721C12.3868 0.164551 13.0905 1.01898 13.0009 1.98051C12.9069 2.94204 12.0525 3.64568 11.0909 3.5517C8.67187 3.32007 6.56748 3.76148 5.16439 5.1644C3.84885 6.48211 3.38122 8.4204 3.5189 10.6559C3.62816 12.4194 4.11765 14.3512 4.9437 16.353C6.37722 14.2246 8.10792 12.1137 10.1118 10.1121C12.992 7.22984 16.0971 4.90908 19.1566 3.22847C23.3916 0.9034 27.5592 -0.197988 30.9767 0.0292492C33.5313 0.197512 35.7012 1.08907 37.3049 2.69304C39.3875 4.7756 40.2725 7.83272 39.9272 11.425C39.8333 12.3843 38.9788 13.0924 38.0195 13.0006C37.0602 12.9066 36.3521 12.0522 36.4461 11.0907C36.6821 8.67163 36.2363 6.56726 34.8334 5.16641C33.5178 3.85088 31.5774 3.38108 29.3418 3.51875C26.7698 3.67827 23.8328 4.65068 20.8414 6.29398C18.0486 7.83021 15.2124 9.95209 12.5832 12.583C10.2143 14.9496 8.25851 17.4801 6.77464 19.9998C8.2584 22.5194 10.2164 25.0499 12.5832 27.4166C13.1972 28.0329 13.8222 28.6163 14.4581 29.1757C15.1815 29.8138 15.2536 30.9195 14.6155 31.645C13.9752 32.3662 12.8694 32.4361 12.1461 31.8002C11.4577 31.1927 10.776 30.5546 10.1095 29.8881C7.23149 27.0101 4.9129 23.9028 3.23244 20.8456L3.23085 20.8433ZM21.058 14.2634C21.058 14.2634 22.1026 16.5907 22.7516 17.2418C23.4028 17.8931 25.7388 18.9442 25.7388 18.9442C26.1475 19.1343 26.4119 19.5473 26.4097 19.9996C26.4119 20.4542 26.1474 20.8672 25.7366 21.0573C25.7366 21.0573 23.4115 22.1018 22.756 22.7486C22.1047 23.402 21.0558 25.7381 21.0558 25.7381C20.8679 26.1467 20.4527 26.4089 19.9982 26.4089C19.548 26.4111 19.135 26.1467 18.9449 25.7381C18.9449 25.7381 17.8938 23.402 17.2425 22.7509C16.5913 22.1018 14.2641 21.0573 14.2641 21.0573C13.8532 20.865 13.5888 20.452 13.5888 19.9997C13.591 19.5473 13.8532 19.1321 14.2641 18.942C14.2641 18.942 16.5891 17.8975 17.2425 17.2485C17.896 16.5973 18.9427 14.2613 18.9427 14.2613C19.1328 13.8527 19.548 13.5905 20.0003 13.5883C20.4527 13.5883 20.8658 13.8526 21.058 14.2634Z" fill="#9747FF"/>
</svg>
