<svg  height="50" viewBox="0 0 66 64" fill="none" xmlns="http://www.w3.org/2000/svg">
<path d="M24.7877 31.017C28.1328 31.017 31.4793 31.013 34.8258 31.0089C37.0839 31.0062 39.3427 31.0035 41.5995 31.0035H41.6298C42.7114 31.0022 43.7917 31.0022 44.8719 31.0022C45.1278 31.0022 45.3716 31.107 45.5481 31.2949C47.8062 33.7006 50.8638 35.0258 54.1591 35.0258C60.6883 35.0258 66 29.6932 66 23.1374C66 19.5992 64.5689 16.4005 61.9673 14.1321C59.3946 11.8873 55.9424 10.8799 52.4922 11.3687C52.2417 11.4045 51.9885 11.3356 51.7898 11.1801C51.5911 11.0232 51.4652 10.7913 51.4396 10.5398C50.6712 2.87179 44.4436 -0.288442 38.9831 0.0205497C33.5415 0.326836 27.7261 4.17334 27.8197 11.892C27.8224 12.1409 27.7254 12.3802 27.5516 12.5573C27.3765 12.7345 27.1395 12.8339 26.8916 12.8339C23.6341 12.8339 20.9025 13.5526 18.9952 14.9096C16.828 16.4519 15.7296 18.8136 15.7296 21.9272C15.7302 26.9386 19.7939 31.017 24.7877 31.017ZM48.2406 27.7371C48.613 27.3835 49.2003 27.4004 49.5512 27.7757C50.7769 29.0806 52.3265 29.7425 54.1577 29.7425C57.785 29.7425 60.7368 26.7791 60.7368 23.1374C60.7368 21.155 59.9469 19.3734 58.5117 18.1226C57.0711 16.865 55.1928 16.3247 53.225 16.6047C52.7172 16.675 52.2484 16.3214 52.1764 15.8116C52.105 15.3018 52.4585 14.8312 52.9663 14.7588C55.438 14.4086 57.9029 15.1219 59.7293 16.7162C61.549 18.3038 62.5922 20.6439 62.5922 23.1374C62.5922 27.8061 58.8087 31.6053 54.1577 31.6053C51.7945 31.6053 49.7909 30.7473 48.2002 29.0536C47.8493 28.679 47.8668 28.0901 48.2406 27.7371ZM30.3512 50.1853V32.8771C29.7323 32.8771 29.1148 32.8784 28.4958 32.8784V49.2509L25.5218 49.2468C25.0793 46.4909 22.6926 44.3794 19.8256 44.3794C16.6448 44.3794 14.058 46.9778 14.058 50.1725C14.058 53.3672 16.6448 55.9655 19.8256 55.9655C22.6885 55.9655 25.0726 53.8594 25.5204 51.1089L29.4225 51.1157H29.4239C29.6704 51.1157 29.9061 51.017 30.0798 50.8432C30.2529 50.6694 30.3512 50.4328 30.3512 50.1853ZM19.8256 54.1035C17.6678 54.1035 15.9148 52.3408 15.9148 50.1731C15.9148 48.0055 17.6685 46.2428 19.8256 46.2428C21.9834 46.2428 23.7391 48.0055 23.7391 50.1731C23.7391 50.1745 23.7391 50.1745 23.7391 50.1759C23.7378 52.3422 21.982 54.1035 19.8256 54.1035ZM36.498 52.4923V32.8717C35.941 32.8717 35.3848 32.8717 34.8278 32.873H34.6412V52.4936C31.9002 52.9405 29.8024 55.3327 29.8024 58.2069C29.8024 61.4016 32.3892 64 35.57 64C38.7508 64 41.3402 61.4016 41.3402 58.2069C41.3409 55.332 39.2404 52.9392 36.498 52.4923ZM35.5706 62.1379C33.4128 62.1379 31.6598 60.3753 31.6598 58.2076C31.6598 56.0426 33.4135 54.2813 35.5706 54.2813C37.7284 54.2813 39.4842 56.0433 39.4842 58.2076C39.4842 60.3746 37.7284 62.1379 35.5706 62.1379ZM59.6175 39.2097C56.7519 39.2097 54.3678 41.3199 53.9254 44.0758L42.5437 44.0826V32.8663C41.9248 32.8663 41.3059 32.8663 40.687 32.8676V45.0129C40.687 45.2604 40.7853 45.497 40.9597 45.6728C41.1335 45.8473 41.3692 45.9453 41.6157 45.944L53.9267 45.9372C54.3732 48.689 56.7553 50.7952 59.6175 50.7952C62.7997 50.7952 65.3878 48.1968 65.3878 45.0021C65.3878 41.8081 62.799 39.2097 59.6175 39.2097ZM59.6175 48.9331C57.4624 48.9331 55.708 47.1718 55.7067 45.0055C55.7067 45.0041 55.7067 45.0041 55.7067 45.0028C55.7067 42.8351 57.4618 41.0724 59.6175 41.0724C61.7767 41.0724 63.5324 42.8351 63.5324 45.0028C63.5324 47.1705 61.776 48.9331 59.6175 48.9331ZM23.7735 42.042C24.0186 42.042 24.2543 41.9433 24.4294 41.7695C24.6032 41.5937 24.7008 41.3571 24.7008 41.1096V32.8784C24.0684 32.8744 23.4482 32.8162 22.8454 32.7053V40.1779L11.4624 40.1712C11.02 37.4153 8.63522 35.3051 5.77029 35.3051C2.58814 35.3057 0 37.9041 0 41.0988C0 44.2935 2.58814 46.8919 5.77029 46.8919C8.6332 46.8919 11.0146 44.7857 11.4611 42.0339L23.7721 42.042C23.7735 42.042 23.7735 42.042 23.7735 42.042ZM5.77029 45.0291C3.61114 45.0291 1.85541 43.2665 1.85541 41.0988C1.85541 38.9311 3.61114 37.1685 5.77029 37.1685C7.92673 37.1685 9.68112 38.9311 9.68112 41.0988C9.68112 41.1002 9.68112 41.1002 9.68112 41.1015C9.68045 43.2678 7.92539 45.0291 5.77029 45.0291Z" fill="#ED5050"/>
</svg>
