<svg width="41" height="41" viewBox="0 0 41 41" fill="none" xmlns="http://www.w3.org/2000/svg">
<g clip-path="url(#clip0_860_3532)">
<path d="M37.97 14.2666H3.80341C2.20341 14.2666 0.886719 15.5833 0.886719 17.1833V38.0166C0.886719 39.6166 2.20341 40.9333 3.80341 40.9333H37.9701C39.5701 40.9333 40.8868 39.6166 40.8868 38.0166V17.1833C40.8867 15.5833 39.57 14.2666 37.97 14.2666ZM35.8867 22.1833V33.0166C35.8867 34.6166 34.5867 35.9333 32.97 35.9333H23.8034C22.1867 35.9333 20.8867 34.6166 20.8867 33.0166V22.1833C20.8867 20.5833 22.1867 19.2666 23.8034 19.2666H32.9701C34.5867 19.2666 35.8867 20.5833 35.8867 22.1833ZM16.3034 28.4333H7.13672C6.45341 28.4333 5.88672 27.8666 5.88672 27.1833C5.88672 26.5 6.45341 25.9333 7.13672 25.9333H16.3034C16.9867 25.9333 17.5534 26.5 17.5534 27.1833C17.5534 27.8666 16.9867 28.4333 16.3034 28.4333ZM17.5534 32.1833C17.5534 32.8666 16.9867 33.4333 16.3034 33.4333H7.13672C6.45341 33.4333 5.88672 32.8666 5.88672 32.1833C5.88672 31.5 6.45341 30.9333 7.13672 30.9333H16.3034C16.9867 30.9333 17.5534 31.5 17.5534 32.1833ZM16.3034 23.4333H7.13672C6.45341 23.4333 5.88672 22.8666 5.88672 22.1833C5.88672 21.5 6.45341 20.9333 7.13672 20.9333H16.3034C16.9867 20.9333 17.5534 21.5 17.5534 22.1833C17.5534 22.8666 16.9867 23.4333 16.3034 23.4333Z" fill="#ED5050"/>
<path d="M37.9727 0.933105H17.1393C15.531 0.933105 14.2227 2.24145 14.2227 3.8498V8.01649C14.2227 9.62484 15.531 10.9332 17.1393 10.9332H37.9727C39.581 10.9331 40.8893 9.62476 40.8893 8.01641V3.8498C40.8893 2.24145 39.581 0.933105 37.9727 0.933105Z" fill="#ED5050"/>
<path d="M5.88672 10.9331C8.64814 10.9331 10.8867 8.69453 10.8867 5.93311C10.8867 3.17168 8.64814 0.933105 5.88672 0.933105C3.1253 0.933105 0.886719 3.17168 0.886719 5.93311C0.886719 8.69453 3.1253 10.9331 5.88672 10.9331Z" fill="#ED5050"/>
</g>
<defs>
<clipPath id="clip0_860_3532">
<rect width="40.0001" height="40.0003" fill="white" transform="translate(0.886719 0.933105)"/>
</clipPath>
</defs>
</svg>
