<svg height="40" viewBox="0 0 28 38" fill="none" xmlns="http://www.w3.org/2000/svg">
<path d="M0 21.7635V15.4475H3.60918C3.85526 10.6079 5.24972 6.99869 7.54648 4.45585C9.92526 1.91302 13.2063 0.682617 17.4717 0.682617H18.7021C22.3113 0.682617 25.3463 1.66694 27.561 3.63559L23.0496 7.98301C21.9012 7.3268 20.4247 6.99869 18.6201 6.99869H17.3897C16.0773 6.99869 15.0109 7.16274 14.1086 7.40882C13.2063 7.73693 12.3861 8.14706 11.8119 8.80328C11.1557 9.45949 10.7455 10.3618 10.4174 11.4281C10.0893 12.4945 9.92525 13.8069 9.84323 15.4475H21.1629V21.7635H9.92525V30.7865H27.6431V37.1846H0.0820256V30.7865H3.52716V21.7635H0Z" fill="#FFA629"/>
</svg>
