<svg width="40" height="40" viewBox="0 0 41 40" fill="none" xmlns="http://www.w3.org/2000/svg">
<path d="M16.7625 40H3.94113C3.56204 40 3.16606 39.7022 3.06055 39.3382L1.98815 35.6346C1.88264 35.2706 1.89543 34.6791 2.01555 34.3201L2.54079 32.7553C2.62666 32.5 2.83904 32.352 3.07471 32.352C3.17062 32.352 3.27019 32.3767 3.36702 32.4283L16.8442 39.6739C17.1781 39.8534 17.1411 40 16.7625 40ZM2.26767 28.4461H0.59512C0.216034 28.4461 -0.00730784 28.7439 0.098197 29.1079L1.12721 32.6617C1.18019 32.8453 1.25373 32.9371 1.32909 32.9371C1.40308 32.9371 1.47844 32.8485 1.53827 32.6704L2.73764 29.0992C2.85776 28.7402 2.64675 28.4461 2.26767 28.4461ZM27.4925 32.611C27.3924 32.3603 27.1659 32.2141 26.922 32.2141C26.8238 32.2141 26.7224 32.2379 26.626 32.2881L16.3724 37.6063C16.0363 37.7807 16.0308 38.0758 16.361 38.2617L18.8424 39.6611C19.1726 39.8475 19.7522 39.9995 20.1313 39.9995H29.7464C30.1255 39.9995 30.3205 39.7113 30.1803 39.3597L27.4925 32.611ZM3.68627 31.4815L14.1618 37.0418C14.3308 37.1313 14.5542 37.1765 14.7775 37.1765C14.9963 37.1765 15.2151 37.1331 15.3813 37.0463L26.2634 31.3756C26.5995 31.2006 26.7599 30.7699 26.6196 30.4178L26.0894 29.0855C25.9492 28.7334 25.5249 28.4456 25.1458 28.4456H11.6818C11.3027 28.4456 10.7875 28.6776 10.5363 28.9613C10.5363 28.9613 8.00695 31.8181 7.68175 31.8181C7.35702 31.8181 4.7532 28.9549 4.7532 28.9549C4.49834 28.6744 4.02974 28.3767 3.7694 29.0983L3.29714 30.505C3.17656 30.8649 3.35149 31.3038 3.68627 31.4815ZM38.6668 6.45678V7.72056H39.5255C39.9639 7.72056 40.3197 8.07635 40.3197 8.51481V12.73C40.3197 13.1684 39.9644 13.5238 39.5255 13.5238H38.6668V14.7876H39.5255C39.9639 14.7876 40.3197 15.1429 40.3197 15.5814V19.7965C40.3197 20.235 39.9644 20.5903 39.5255 20.5903H20.483C20.0445 20.5903 19.6887 20.235 19.6887 19.7965V15.5814C19.6887 15.1429 20.0441 14.7876 20.483 14.7876H21.3421V13.5238H20.483C20.0445 13.5238 19.6887 13.1684 19.6887 12.73V8.51481C19.6887 8.07635 20.0441 7.72056 20.483 7.72056H21.3421V6.45678H20.483C20.0445 6.45678 19.6887 6.10145 19.6887 5.66298V2.74037C18.884 3.22039 16.6775 4.48782 16.6775 4.48782C16.5976 4.53806 16.3181 4.58967 16.1801 4.50243C16.0294 4.40743 15.9276 4.25214 15.9276 4.07402V3.01532H8.41526V5.8338H9.47397C9.65209 5.8338 9.81606 5.93063 9.90238 6.08637C9.98825 6.24258 9.98276 6.43258 9.88776 6.58375L8.0951 9.42782C8.0613 9.48171 8.01562 9.52464 7.96538 9.56073C12.0687 9.7119 15.3621 13.0876 15.3621 17.227C15.3621 21.739 8.68839 30.906 7.6813 30.906C6.71623 30.906 0 21.7395 0 17.227C0 13.0876 3.29394 9.7119 7.39721 9.56073C7.34697 9.52464 7.3013 9.48171 7.2675 9.42782L5.47529 6.58375C5.38029 6.43258 5.37435 6.24258 5.46067 6.08637C5.54699 5.93063 5.71096 5.8338 5.88909 5.8338H6.94779V2.28181C6.94779 1.87669 7.27618 1.5483 7.6813 1.5483H15.9276V0.48914C15.9276 0.311015 16.0244 0.147048 16.1801 0.0607261C16.3359 -0.0251393 16.5263 -0.0196585 16.6775 0.0753415C16.6775 0.0753415 18.884 1.34323 19.6887 1.82279V1.44782C19.6887 1.00936 20.0441 0.654019 20.483 0.654019H39.5255C39.9639 0.654019 40.3197 1.00936 40.3197 1.44782V5.66298C40.3197 6.10145 39.9644 6.45678 39.5255 6.45678H38.6668ZM7.68175 13.4525C6.40108 13.4525 5.35882 14.4948 5.35882 15.7755C5.35882 17.0566 6.40108 18.0984 7.68175 18.0984C8.96288 18.0984 10.0047 17.0561 10.0047 15.7755C10.0047 14.4948 8.96243 13.4525 7.68175 13.4525ZM32.2141 3.72553C32.2141 3.90137 32.358 4.04525 32.5338 4.04525H34.5051C34.6809 4.04525 34.8248 3.90137 34.8248 3.72553V3.31037C34.8248 3.13452 34.6809 2.99065 34.5051 2.99065H32.5338C32.358 2.99065 32.2141 3.13452 32.2141 3.31037V3.72553ZM22.1213 7.75207H37.6077V6.42572H22.1213V7.75207ZM34.5051 10.0937H32.5338C32.358 10.0937 32.2141 10.2376 32.2141 10.4134V10.8286C32.2141 11.0045 32.358 11.1483 32.5338 11.1483H34.5051C34.6809 11.1483 34.8248 11.0045 34.8248 10.8286V10.4134C34.8248 10.2376 34.6809 10.0937 34.5051 10.0937ZM22.5735 14.7825H37.4359V13.5288H22.5735V14.7825ZM34.8248 17.517C34.8248 17.3411 34.6809 17.1973 34.5051 17.1973H32.5338C32.358 17.1973 32.2141 17.3411 32.2141 17.517V17.9321C32.2141 18.108 32.358 18.2519 32.5338 18.2519H34.5051C34.6809 18.2519 34.8248 18.108 34.8248 17.9321V17.517ZM38.5166 17.1973H36.5453C36.3695 17.1973 36.2256 17.3411 36.2256 17.517V17.9321C36.2256 18.108 36.3695 18.2519 36.5453 18.2519H38.5166C38.6924 18.2519 38.8363 18.108 38.8363 17.9321V17.517C38.8363 17.3411 38.6924 17.1973 38.5166 17.1973ZM38.5166 10.0937H36.5453C36.3695 10.0937 36.2256 10.2376 36.2256 10.4134V10.8286C36.2256 11.0045 36.3695 11.1483 36.5453 11.1483H38.5166C38.6924 11.1483 38.8363 11.0045 38.8363 10.8286V10.4134C38.8363 10.2376 38.6924 10.0937 38.5166 10.0937ZM38.8363 3.72553V3.31037C38.8363 3.13452 38.6924 2.99065 38.5166 2.99065H36.5453C36.3695 2.99065 36.2256 3.13452 36.2256 3.31037V3.72553C36.2256 3.90137 36.3695 4.04525 36.5453 4.04525H38.5166C38.6924 4.04525 38.8363 3.90137 38.8363 3.72553Z" fill="#FFA629"/>
</svg>
