<svg width="472" height="329" viewBox="0 0 472 329" fill="none" xmlns="http://www.w3.org/2000/svg">
<path d="M0 36.0811C0 16.1988 16.1178 0.0810547 36 0.0810547H436C455.882 0.0810547 472 16.1988 472 36.0811V292.081C472 311.963 455.882 328.081 436 328.081H36C16.1177 328.081 0 311.963 0 292.081V36.0811Z" fill="white" fill-opacity="0.06"/>
<path d="M84.7991 16.525C84.7991 18.1544 83.4782 19.4753 81.8488 19.4753C80.2193 19.4753 78.8984 18.1544 78.8984 16.525C78.8984 14.8956 80.2193 13.5747 81.8488 13.5747C83.4782 13.5747 84.7991 14.8956 84.7991 16.525Z" fill="#3FCA90"/>
<path d="M73.8616 16.525C73.8616 18.1544 72.5407 19.4753 70.9113 19.4753C69.2818 19.4753 67.9609 18.1544 67.9609 16.525C67.9609 14.8956 69.2818 13.5747 70.9113 13.5747C72.5407 13.5747 73.8616 14.8956 73.8616 16.525Z" fill="#FFE073"/>
<path d="M62.9006 16.525C62.9006 18.1544 61.5797 19.4753 59.9503 19.4753C58.3209 19.4753 57 18.1544 57 16.525C57 14.8956 58.3209 13.5747 59.9503 13.5747C61.5797 13.5747 62.9006 14.8956 62.9006 16.525Z" fill="#ED5050"/>
<path d="M138.175 63.976C116.535 83.1866 103.396 110.194 101.639 139.077C100.356 162.052 107.915 187.157 127.054 199.93C136.6 206.29 149.128 210.043 153.853 220.489C158.405 230.59 153.394 242.331 154.265 253.374C155.136 264.417 162.021 274.297 171.042 280.669C180.062 287.04 190.962 290.214 201.874 291.795C243.093 297.797 285.918 281.88 316.667 253.78C341.342 231.234 359.026 200.754 364.598 167.797C370.17 134.841 363.202 99.6172 344.057 72.2211C330.585 52.9508 297.856 33.1733 274.523 30.25C194.685 20.2509 158.913 45.7557 138.175 63.976Z" fill="#263238"/>
<path opacity="0.7" d="M364.598 167.797C359.026 200.754 341.342 231.234 316.667 253.78C298.805 270.126 277.31 281.987 253.958 288.383C239.838 292.243 225.171 293.711 210.567 292.726C207.667 292.515 204.77 292.201 201.874 291.784C190.962 290.191 180.044 287.011 171.042 280.657C162.039 274.303 155.136 264.358 154.265 253.362C153.394 242.367 158.399 230.578 153.853 220.477C149.146 210.031 136.582 206.278 127.054 199.918C107.915 187.145 100.356 162.04 101.639 139.065C103.399 110.186 116.538 83.1837 138.175 63.976C158.913 45.7557 194.685 20.2509 274.523 30.25C297.856 33.1733 330.603 52.9508 344.057 72.2211C363.202 99.6172 370.17 134.847 364.598 167.797Z" fill="#263238"/>
<path d="M323.661 226.497C318.237 229.174 311.971 229.587 306.243 227.644C300.514 225.702 295.792 221.564 293.115 216.14C292.586 215.062 292.141 213.945 291.784 212.799C291.784 212.799 291.784 212.799 291.784 212.769C290.185 207.588 290.484 202.007 292.628 197.026C294.772 192.046 298.621 187.993 303.484 185.594L313.572 206.045L324.908 186.244C328.501 188.295 331.469 191.285 333.494 194.893C335.518 198.502 336.523 202.593 336.4 206.729C336.278 210.865 335.032 214.889 332.798 218.371C330.563 221.854 327.423 224.662 323.714 226.497H323.661Z" stroke="#263238" stroke-linecap="round" stroke-linejoin="round"/>
<path d="M303.744 175.076C307.093 173.424 310.796 172.619 314.528 172.732C318.261 172.846 321.908 173.874 325.15 175.726L313.815 195.521L303.744 175.076Z" stroke="#263238" stroke-linecap="round" stroke-linejoin="round"/>
<path d="M303.744 175.076V180.027L313.833 200.473L325.15 180.678V175.726L313.833 195.527L303.744 175.076Z" stroke="#263238" stroke-linecap="round" stroke-linejoin="round"/>
<path d="M178.189 163.442H116.285C114.774 163.442 113.325 164.042 112.257 165.111C111.188 166.179 110.588 167.628 110.588 169.139V192.532C110.588 194.044 111.188 195.494 112.256 196.563C113.325 197.633 114.774 198.234 116.285 198.236H178.189C179.702 198.236 181.153 197.635 182.222 196.565C183.292 195.496 183.893 194.045 183.893 192.532V169.139C183.891 167.628 183.289 166.179 182.22 165.11C181.151 164.042 179.701 163.442 178.189 163.442ZM141.2 193.427C141.2 193.573 141.142 193.714 141.039 193.817C140.937 193.921 140.797 193.981 140.651 193.982H135.478C135.405 193.982 135.333 193.968 135.266 193.94C135.199 193.912 135.137 193.871 135.086 193.82C135.034 193.768 134.994 193.707 134.966 193.64C134.938 193.572 134.923 193.5 134.923 193.427V181.388C134.925 181.242 134.984 181.102 135.088 180.999C135.192 180.897 135.332 180.839 135.478 180.839H140.627C140.772 180.839 140.912 180.897 141.015 181C141.118 181.103 141.176 181.242 141.176 181.388L141.2 193.427ZM151.479 193.982H146.33C146.183 193.982 146.042 193.924 145.938 193.82C145.834 193.716 145.776 193.574 145.776 193.427V177.235C145.777 177.089 145.836 176.95 145.94 176.847C146.044 176.744 146.184 176.686 146.33 176.687H151.479C151.551 176.687 151.623 176.701 151.689 176.728C151.756 176.756 151.816 176.796 151.867 176.847C151.918 176.898 151.959 176.959 151.986 177.025C152.014 177.092 152.028 177.163 152.028 177.235V193.427C152.028 193.502 152.013 193.575 151.984 193.644C151.955 193.712 151.913 193.774 151.859 193.826C151.806 193.878 151.743 193.918 151.673 193.945C151.604 193.972 151.53 193.984 151.455 193.982H151.479ZM162.218 193.427C162.218 193.573 162.16 193.714 162.058 193.817C161.955 193.921 161.815 193.981 161.669 193.982H156.514C156.368 193.981 156.229 193.921 156.126 193.817C156.023 193.714 155.966 193.573 155.966 193.427V191.488C155.966 191.343 156.023 191.203 156.126 191.1C156.229 190.997 156.369 190.939 156.514 190.939H161.669C161.815 190.939 161.954 190.997 162.057 191.1C162.16 191.203 162.218 191.343 162.218 191.488V193.427ZM172.402 193.427C172.402 193.573 172.344 193.714 172.242 193.817C172.139 193.921 171.999 193.981 171.853 193.982H166.681C166.533 193.982 166.392 193.924 166.288 193.82C166.184 193.716 166.126 193.574 166.126 193.427V175.684L160.894 188.422C160.854 188.516 160.789 188.597 160.706 188.656C160.623 188.715 160.525 188.751 160.423 188.758C160.321 188.765 160.22 188.745 160.129 188.698C160.038 188.651 159.962 188.58 159.909 188.493L150.626 172.892C150.588 172.828 150.538 172.772 150.478 172.728C150.417 172.684 150.349 172.653 150.276 172.637C150.203 172.621 150.128 172.62 150.055 172.634C149.981 172.648 149.912 172.677 149.85 172.719L140.669 178.912C140.58 178.969 140.476 179 140.37 179C140.265 179 140.161 178.969 140.072 178.912L130.151 173.447V193.433C130.151 193.579 130.093 193.72 129.99 193.823C129.887 193.927 129.748 193.986 129.602 193.988H124.465C124.392 193.988 124.32 193.974 124.253 193.946C124.185 193.918 124.124 193.877 124.073 193.826C124.021 193.774 123.98 193.713 123.952 193.646C123.924 193.578 123.91 193.506 123.91 193.433V168.734C123.912 168.588 123.971 168.448 124.075 168.345C124.179 168.243 124.319 168.185 124.465 168.185H129.614C129.759 168.185 129.899 168.243 130.002 168.346C130.105 168.449 130.162 168.588 130.162 168.734V172.111L140.036 177.546C140.125 177.603 140.229 177.634 140.335 177.634C140.44 177.634 140.544 177.603 140.633 177.546L150.179 171.126C150.241 171.084 150.31 171.055 150.384 171.04C150.458 171.026 150.534 171.027 150.607 171.043C150.68 171.06 150.749 171.091 150.81 171.135C150.871 171.179 150.922 171.235 150.96 171.299L159.76 186.017C159.813 186.105 159.889 186.175 159.98 186.222C160.071 186.269 160.172 186.289 160.274 186.282C160.376 186.275 160.474 186.239 160.557 186.18C160.639 186.121 160.705 186.04 160.744 185.946L166.15 172.785V168.728C166.151 168.582 166.21 168.442 166.314 168.339C166.418 168.237 166.558 168.179 166.705 168.179H168.047L168.643 166.789C168.671 166.722 168.712 166.662 168.763 166.611C168.814 166.56 168.875 166.52 168.942 166.492C169.009 166.465 169.08 166.451 169.152 166.451C169.224 166.451 169.296 166.466 169.362 166.494C169.429 166.521 169.489 166.562 169.54 166.613C169.591 166.664 169.632 166.725 169.659 166.792C169.686 166.859 169.7 166.93 169.7 167.002C169.7 167.074 169.686 167.146 169.658 167.212L169.264 168.179H171.877C172.023 168.179 172.162 168.237 172.265 168.34C172.368 168.443 172.426 168.582 172.426 168.728L172.402 193.427Z" stroke="#A4E4E4" stroke-linecap="round" stroke-linejoin="round"/>
<path d="M140.627 180.839H135.473C135.17 180.839 134.924 181.085 134.924 181.388V193.433C134.924 193.736 135.17 193.982 135.473 193.982H140.627C140.931 193.982 141.176 193.736 141.176 193.433V181.388C141.176 181.085 140.931 180.839 140.627 180.839Z" stroke="#263238" stroke-linecap="round" stroke-linejoin="round"/>
<path d="M151.455 176.687H146.301C145.998 176.687 145.752 176.932 145.752 177.235V193.433C145.752 193.736 145.998 193.982 146.301 193.982H151.455C151.759 193.982 152.004 193.736 152.004 193.433V177.235C152.004 176.932 151.759 176.687 151.455 176.687Z" stroke="#263238" stroke-linecap="round" stroke-linejoin="round"/>
<path d="M161.645 190.939H156.49C156.187 190.939 155.941 191.185 155.941 191.488V193.433C155.941 193.736 156.187 193.982 156.49 193.982H161.645C161.948 193.982 162.194 193.736 162.194 193.433V191.488C162.194 191.185 161.948 190.939 161.645 190.939Z" stroke="#263238" stroke-linecap="round" stroke-linejoin="round"/>
<path d="M124.125 169.533V169.467C124.157 169.399 124.203 169.337 124.26 169.287C124.317 169.237 124.383 169.199 124.455 169.175C124.528 169.152 124.604 169.143 124.679 169.151C124.755 169.158 124.828 169.18 124.895 169.217L130.139 172.104V168.728C130.139 168.655 130.125 168.584 130.097 168.518C130.069 168.451 130.029 168.39 129.978 168.339C129.927 168.288 129.866 168.248 129.8 168.22C129.733 168.193 129.662 168.179 129.59 168.179H124.465C124.319 168.179 124.179 168.236 124.075 168.339C123.971 168.442 123.912 168.581 123.91 168.728V193.427C123.91 193.5 123.925 193.572 123.952 193.639C123.98 193.707 124.021 193.768 124.073 193.819C124.124 193.871 124.185 193.912 124.253 193.94C124.32 193.967 124.392 193.982 124.465 193.982H129.614C129.76 193.98 129.899 193.921 130.002 193.817C130.105 193.713 130.163 193.573 130.163 193.427V173.441L124.358 170.243C124.236 170.176 124.145 170.065 124.102 169.934C124.059 169.802 124.067 169.659 124.125 169.533Z" stroke="#A4E4E4" stroke-linecap="round" stroke-linejoin="round"/>
<path d="M171.829 168.173H169.215L166.125 175.678V193.421C166.125 193.568 166.183 193.709 166.288 193.813C166.392 193.918 166.533 193.976 166.68 193.976H171.829C171.975 193.974 172.114 193.915 172.217 193.811C172.32 193.708 172.377 193.567 172.377 193.421V168.722C172.377 168.576 172.32 168.437 172.217 168.334C172.114 168.231 171.974 168.173 171.829 168.173Z" stroke="#A4E4E4" stroke-linecap="round" stroke-linejoin="round"/>
<path d="M166.68 168.173C166.534 168.173 166.393 168.23 166.29 168.333C166.186 168.436 166.127 168.576 166.125 168.722V172.779L168.022 168.173H166.68Z" stroke="#A4E4E4" stroke-linecap="round" stroke-linejoin="round"/>
<path d="M151.455 176.687H146.301C145.998 176.687 145.752 176.932 145.752 177.235V193.433C145.752 193.736 145.998 193.982 146.301 193.982H151.455C151.759 193.982 152.004 193.736 152.004 193.433V177.235C152.004 176.932 151.759 176.687 151.455 176.687Z" stroke="#A4E4E4" stroke-linecap="round" stroke-linejoin="round"/>
<path d="M140.627 180.839H135.473C135.17 180.839 134.924 181.085 134.924 181.388V193.433C134.924 193.736 135.17 193.982 135.473 193.982H140.627C140.931 193.982 141.176 193.736 141.176 193.433V181.388C141.176 181.085 140.931 180.839 140.627 180.839Z" stroke="#A4E4E4" stroke-linecap="round" stroke-linejoin="round"/>
<path d="M161.645 190.939H156.49C156.187 190.939 155.941 191.185 155.941 191.488V193.433C155.941 193.736 156.187 193.982 156.49 193.982H161.645C161.948 193.982 162.194 193.736 162.194 193.433V191.488C162.194 191.185 161.948 190.939 161.645 190.939Z" stroke="#A4E4E4" stroke-linecap="round" stroke-linejoin="round"/>
<path d="M273.872 184.878L264.518 194.245C269.902 200.556 273.155 208.407 273.813 216.677H287.033C286.339 204.901 281.704 193.7 273.872 184.878Z" fill="#68D2D2"/>
<path opacity="0.2" d="M273.872 184.878L264.518 194.245C269.902 200.556 273.155 208.407 273.813 216.677H287.033C286.339 204.901 281.704 193.7 273.872 184.878Z" fill="white"/>
<path d="M204.248 245.487C198.167 238.335 194.828 229.253 194.828 219.866C194.828 210.478 198.167 201.397 204.248 194.245L194.899 184.878C186.354 194.525 181.637 206.967 181.637 219.854C181.637 232.741 186.354 245.183 194.899 254.83L204.248 245.487Z" fill="#68D2D2"/>
<g opacity="0.4">
<path d="M204.248 245.487C198.167 238.335 194.828 229.253 194.828 219.866C194.828 210.478 198.167 201.397 204.248 194.245L194.899 184.878C186.354 194.525 181.637 206.967 181.637 219.854C181.637 232.741 186.354 245.183 194.899 254.83L204.248 245.487Z" fill="white"/>
</g>
<path d="M208.761 189.728C215.914 183.648 224.997 180.31 234.385 180.31C243.773 180.31 252.856 183.648 260.009 189.728L269.358 180.379C259.712 171.837 247.273 167.121 234.388 167.121C221.503 167.121 209.064 171.837 199.418 180.379L208.761 189.728Z" fill="#68D2D2"/>
<path opacity="0.2" d="M208.761 189.728C215.914 183.648 224.997 180.31 234.385 180.31C243.773 180.31 252.856 183.648 260.009 189.728L269.358 180.379C259.712 171.837 247.273 167.121 234.388 167.121C221.503 167.121 209.064 171.837 199.418 180.379L208.761 189.728Z" fill="black"/>
<path d="M287.035 223.061H273.814C273.23 230.316 270.654 237.269 266.37 243.154C262.087 249.039 256.262 253.628 249.538 256.414C242.813 259.201 235.45 260.077 228.26 258.947C221.069 257.817 214.33 254.724 208.784 250.009L199.43 259.358C206.832 265.912 215.928 270.254 225.679 271.887C235.431 273.521 245.445 272.38 254.579 268.595C263.713 264.811 271.6 258.535 277.339 250.483C283.077 242.432 286.437 232.93 287.035 223.061Z" fill="#68D2D2"/>
<path d="M316.284 156.074H163.339C161.703 156.074 160.134 155.424 158.977 154.267C157.82 153.111 157.17 151.541 157.17 149.905V50.702C157.17 49.8922 157.33 49.0903 157.64 48.3422C157.95 47.5941 158.404 46.9144 158.977 46.342C159.55 45.7697 160.23 45.3158 160.979 45.0065C161.727 44.6971 162.529 44.5383 163.339 44.5391H316.284C317.094 44.5383 317.896 44.6971 318.645 45.0065C319.393 45.3158 320.073 45.7697 320.646 46.342C321.219 46.9144 321.673 47.5941 321.984 48.3422C322.294 49.0903 322.453 49.8922 322.453 50.702V149.905C322.453 151.541 321.803 153.111 320.646 154.267C319.49 155.424 317.92 156.074 316.284 156.074Z" fill="#263238"/>
<path d="M316.284 152.506H163.339C161.703 152.506 160.134 151.856 158.977 150.7C157.82 149.543 157.17 147.974 157.17 146.338V47.1341C157.172 45.4991 157.822 43.9315 158.979 42.7759C160.136 41.6203 161.704 40.9712 163.339 40.9712H316.284C317.919 40.9712 319.488 41.6203 320.644 42.7759C321.801 43.9315 322.452 45.4991 322.453 47.1341V146.338C322.453 147.974 321.803 149.543 320.646 150.7C319.49 151.856 317.92 152.506 316.284 152.506Z" fill="#68D2D2"/>
<path d="M322.704 50.3856V46.806C322.704 45.9962 322.544 45.1943 322.234 44.4462C321.924 43.6981 321.469 43.0184 320.896 42.446C320.323 41.8737 319.643 41.4198 318.895 41.1105C318.147 40.8011 317.344 40.6423 316.535 40.6431H163.571C162.761 40.6423 161.959 40.8011 161.211 41.1105C160.463 41.4198 159.782 41.8737 159.21 42.446C158.637 43.0184 158.182 43.6981 157.872 44.4462C157.562 45.1943 157.402 45.9962 157.402 46.806V146.021V149.601C157.402 151.237 158.052 152.806 159.209 153.963C160.366 155.12 161.935 155.77 163.571 155.77H316.535C318.171 155.77 319.74 155.12 320.897 153.963C322.054 152.806 322.704 151.237 322.704 149.601V50.3856Z" stroke="#263238" stroke-miterlimit="10"/>
<path d="M167.002 50.8149V142.024H311.977V50.8149H167.002ZM310.366 68.7131H294.049V52.4317H310.366V68.7131ZM204.445 88.2638H220.762V104.581H204.445V88.2638ZM202.84 104.581H186.529V88.2638H202.84V104.581ZM256.606 86.6828H240.301V70.3299H256.612L256.606 86.6828ZM258.199 70.3299H274.51V86.647H258.199V70.3299ZM240.301 88.228H256.618V104.545H240.301V88.228ZM238.696 104.545H222.367V88.2638H238.684L238.696 104.545ZM238.696 86.647H222.367V70.3299H238.684L238.696 86.647ZM220.798 86.647H204.445V70.3299H220.762L220.798 86.647ZM220.798 106.174V122.485H204.445V106.186L220.798 106.174ZM222.403 106.174H238.72V122.485H222.367L222.403 106.174ZM240.301 106.174H256.618V122.485H240.301V106.174ZM258.199 106.174H274.51V122.485H258.199V106.174ZM258.199 104.569V88.2638H274.51V104.581L258.199 104.569ZM276.097 88.2519H292.444V104.569H276.127L276.097 88.2519ZM276.097 86.647V70.3299H292.444V86.647H276.097ZM276.097 68.7489V52.4317H292.444V68.7369L276.097 68.7489ZM274.492 68.7489H258.199V52.4317H274.51L274.492 68.7489ZM256.594 68.7489H240.301V52.4317H256.612L256.594 68.7489ZM238.696 68.7489H222.367V52.4317H238.684L238.696 68.7489ZM220.798 68.7489H204.445V52.4317H220.762L220.798 68.7489ZM202.9 68.7489H186.529V52.4317H202.84L202.9 68.7489ZM202.9 70.3537V86.6709H186.529V70.3299L202.9 70.3537ZM185.002 86.6709H168.607V70.3299H184.924L185.002 86.6709ZM185.002 88.2757V104.593H168.607V88.2638L185.002 88.2757ZM185.002 106.174V122.485H168.607V106.186L185.002 106.174ZM186.606 106.174H202.918V122.485H186.529L186.606 106.174ZM202.918 124.072V140.389H186.529V124.102L202.918 124.072ZM204.522 124.072H220.84V140.389H204.445L204.522 124.072ZM222.421 124.072H238.738V140.389H222.367L222.421 124.072ZM240.319 124.072H256.636V140.389H240.301L240.319 124.072ZM258.217 124.072H274.528V140.389H258.199L258.217 124.072ZM276.115 124.072H292.444V140.389H276.127L276.115 124.072ZM276.115 122.467V106.186H292.444V122.497L276.115 122.467ZM294.013 106.156H310.33V122.467H294.049L294.013 106.156ZM294.013 104.551V88.2638H310.33V104.581L294.013 104.551ZM294.013 86.653V70.3299H310.33V86.647L294.013 86.653ZM184.924 52.4317V68.7369H168.607V52.4317H184.924ZM168.607 124.102H184.924V140.419H168.607V124.102ZM294.049 140.419V124.102H310.366V140.419H294.049Z" fill="white"/>
<path opacity="0.8" d="M167.002 50.8149V142.024H311.977V50.8149H167.002ZM310.366 68.7131H294.049V52.4317H310.366V68.7131ZM204.445 88.2638H220.762V104.581H204.445V88.2638ZM202.84 104.581H186.529V88.2638H202.84V104.581ZM256.606 86.6828H240.301V70.3299H256.612L256.606 86.6828ZM258.199 70.3299H274.51V86.647H258.199V70.3299ZM240.301 88.228H256.618V104.545H240.301V88.228ZM238.696 104.545H222.367V88.2638H238.684L238.696 104.545ZM238.696 86.647H222.367V70.3299H238.684L238.696 86.647ZM220.798 86.647H204.445V70.3299H220.762L220.798 86.647ZM220.798 106.174V122.485H204.445V106.186L220.798 106.174ZM222.403 106.174H238.72V122.485H222.367L222.403 106.174ZM240.301 106.174H256.618V122.485H240.301V106.174ZM258.199 106.174H274.51V122.485H258.199V106.174ZM258.199 104.569V88.2638H274.51V104.581L258.199 104.569ZM276.097 88.2519H292.444V104.569H276.127L276.097 88.2519ZM276.097 86.647V70.3299H292.444V86.647H276.097ZM276.097 68.7489V52.4317H292.444V68.7369L276.097 68.7489ZM274.492 68.7489H258.199V52.4317H274.51L274.492 68.7489ZM256.594 68.7489H240.301V52.4317H256.612L256.594 68.7489ZM238.696 68.7489H222.367V52.4317H238.684L238.696 68.7489ZM220.798 68.7489H204.445V52.4317H220.762L220.798 68.7489ZM202.9 68.7489H186.529V52.4317H202.84L202.9 68.7489ZM202.9 70.3537V86.6709H186.529V70.3299L202.9 70.3537ZM185.002 86.6709H168.607V70.3299H184.924L185.002 86.6709ZM185.002 88.2757V104.593H168.607V88.2638L185.002 88.2757ZM185.002 106.174V122.485H168.607V106.186L185.002 106.174ZM186.606 106.174H202.918V122.485H186.529L186.606 106.174ZM202.918 124.072V140.389H186.529V124.102L202.918 124.072ZM204.522 124.072H220.84V140.389H204.445L204.522 124.072ZM222.421 124.072H238.738V140.389H222.367L222.421 124.072ZM240.319 124.072H256.636V140.389H240.301L240.319 124.072ZM258.217 124.072H274.528V140.389H258.199L258.217 124.072ZM276.115 124.072H292.444V140.389H276.127L276.115 124.072ZM276.115 122.467V106.186H292.444V122.497L276.115 122.467ZM294.013 106.156H310.33V122.467H294.049L294.013 106.156ZM294.013 104.551V88.2638H310.33V104.581L294.013 104.551ZM294.013 86.653V70.3299H310.33V86.647L294.013 86.653ZM184.924 52.4317V68.7369H168.607V52.4317H184.924ZM168.607 124.102H184.924V140.419H168.607V124.102ZM294.049 140.419V124.102H310.366V140.419H294.049Z" fill="white"/>
<path d="M240.213 105.947L238.918 104.814L240.213 103.68L241.507 104.814L240.213 105.947Z" fill="#263238"/>
<path d="M244.09 102.547L242.795 101.413L245.384 99.1462L246.673 100.28L244.09 102.547ZM249.262 98.0127L247.967 96.8732L250.551 94.6061L251.845 95.7396L249.262 98.0127ZM254.429 93.4725L253.134 92.339L255.723 90.0719L257.006 91.2114L254.429 93.4725ZM259.601 88.9383L258.307 87.8048L259.446 86.8025L261.54 85.8837L262.358 87.3215L260.532 88.121L259.601 88.9383ZM265.627 85.8837L264.81 84.4519L268.079 83.014L268.896 84.4519L265.627 85.8837ZM272.19 83.02L271.325 81.5822L274.594 80.1444L275.411 81.5822L272.19 83.02ZM278.752 80.1503L277.887 78.7125L279.874 77.8415L280.679 77.1375L281.974 78.271L280.96 79.16L278.752 80.1503ZM284.605 76.0039L283.31 74.8704L285.9 72.5973L287.188 73.7368L284.605 76.0039ZM289.778 71.4638L288.435 70.3302L291.013 68.0631L292.307 69.1967L289.778 71.4638ZM294.944 66.9296L293.65 65.796L296.239 63.5289L297.527 64.6625L294.944 66.9296ZM300.117 62.3954L298.768 61.2618L301.352 58.9948L302.646 60.1283L300.117 62.3954ZM305.283 57.8612L303.989 56.7217L306.578 54.4546L307.873 55.5881L305.283 57.8612Z" fill="#263238"/>
<path d="M311.97 57.5152H310.139V52.4202H304.34V50.8213H311.97V57.5152Z" fill="#263238"/>
<g opacity="0.5">
<path d="M288.227 93.5976L287.094 92.464L289.331 90.2268L290.465 91.3603L288.227 93.5976ZM292.702 89.123L291.568 87.9895L293.806 85.7522L294.939 86.8858L292.702 89.123ZM297.176 84.6485L296.043 83.5149L298.28 81.2777L299.414 82.4112L297.176 84.6485ZM301.651 80.174L300.517 79.0404L302.755 76.8031L303.888 77.9367L301.651 80.174ZM306.125 75.6994L304.992 74.5659L307.229 72.3286L308.363 73.4622L306.125 75.6994Z" fill="black"/>
<path d="M284.619 97.225H282.686V95.6201H283.956L284.857 94.7192L285.991 95.8528L284.619 97.225Z" fill="black"/>
<path d="M257.74 106.186H256.189V104.581H257.072L258.116 103.537L259.249 104.671L257.74 106.186ZM253.17 106.186H250.151V104.581H253.17V106.186ZM247.132 106.186H244.107V104.581H247.132V106.186ZM261.385 102.547L260.252 101.413L262.375 99.2654L263.509 100.399L261.385 102.547ZM265.657 98.281L264.523 97.1415L266.033 95.6321H267.578V97.2369H266.701L265.657 98.281ZM279.677 97.225H276.658V95.6201H279.677V97.225ZM273.639 97.225H270.621V95.6201H273.639V97.225Z" fill="black"/>
<path d="M241.089 104.582H239.484V106.186H241.089V104.582Z" fill="black"/>
<path d="M311.971 75.4312H310.366V70.3422H305.271L305.277 68.7373H311.971V75.4312Z" fill="black"/>
<g opacity="0.2">
<path d="M288.227 93.5976L287.094 92.464L289.331 90.2268L290.465 91.3603L288.227 93.5976ZM292.702 89.123L291.568 87.9895L293.806 85.7522L294.939 86.8858L292.702 89.123ZM297.176 84.6485L296.043 83.5149L298.28 81.2777L299.414 82.4112L297.176 84.6485ZM301.651 80.174L300.517 79.0404L302.755 76.8031L303.888 77.9367L301.651 80.174ZM306.125 75.6994L304.992 74.5659L307.229 72.3286L308.363 73.4622L306.125 75.6994Z" fill="black"/>
<path d="M284.619 97.225H282.686V95.6201H283.956L284.857 94.7192L285.991 95.8528L284.619 97.225Z" fill="black"/>
<path d="M257.74 106.186H256.189V104.581H257.072L258.116 103.537L259.249 104.671L257.74 106.186ZM253.17 106.186H250.151V104.581H253.17V106.186ZM247.132 106.186H244.107V104.581H247.132V106.186ZM261.385 102.547L260.252 101.413L262.375 99.2654L263.509 100.399L261.385 102.547ZM265.657 98.281L264.523 97.1415L266.033 95.6321H267.578V97.2369H266.701L265.657 98.281ZM279.677 97.225H276.658V95.6201H279.677V97.225ZM273.639 97.225H270.621V95.6201H273.639V97.225Z" fill="black"/>
<path d="M241.089 104.582H239.484V106.186H241.089V104.582Z" fill="black"/>
<path d="M311.971 75.4312H310.366V70.3422H305.271L305.277 68.7373H311.971V75.4312Z" fill="black"/>
</g>
</g>
<g opacity="0.3">
<path d="M240.053 104.819L238.918 105.954L240.053 107.088L241.188 105.954L240.053 104.819Z" fill="black"/>
<path d="M264.038 115.147H260.703V113.542H264.032L264.038 115.147ZM257.374 115.147H254.021V113.542H257.356L257.374 115.147ZM250.71 115.147H248.108L247.118 114.151L248.258 113.017L248.777 113.542H250.71V115.147ZM267.641 114.198L266.508 113.065L268.864 110.708L269.998 111.842L267.641 114.198ZM244.761 111.812L242.375 109.461L243.515 108.322L245.871 110.678L244.761 111.812ZM272.354 109.503L271.221 108.37L273.577 105.983L274.711 107.123L272.354 109.503ZM293.576 106.204H290.318V104.599H292.913L292.967 104.539L293.021 104.599H293.241V104.82L294.101 105.679L293.576 106.204ZM287.013 106.204H283.678V104.599H287.013V106.204ZM280.349 106.204H276.99V104.599H280.325L280.349 106.204ZM296.457 103.322L295.324 102.183L297.68 99.8321L298.814 100.966L296.457 103.322ZM301.17 98.6091L300.037 97.4755L302.393 95.1189L303.527 96.2525L301.17 98.6091ZM305.884 93.8959L304.75 92.7624L307.136 90.4058L308.27 91.5393L305.884 93.8959Z" fill="black"/>
<path d="M311.969 93.3531H310.365V88.264H305.27V86.6592H311.969V93.3531Z" fill="black"/>
<g opacity="0.3">
<path d="M240.053 104.818L238.918 105.953L240.053 107.088L241.188 105.953L240.053 104.818Z" fill="black"/>
<path d="M264.038 115.147H260.703V113.542H264.032L264.038 115.147ZM257.374 115.147H254.021V113.542H257.356L257.374 115.147ZM250.71 115.147H248.108L247.118 114.151L248.258 113.017L248.777 113.542H250.71V115.147ZM267.641 114.198L266.508 113.065L268.864 110.708L269.998 111.842L267.641 114.198ZM244.761 111.812L242.375 109.461L243.515 108.322L245.871 110.678L244.761 111.812ZM272.354 109.503L271.221 108.37L273.577 105.983L274.711 107.123L272.354 109.503ZM293.576 106.204H290.318V104.599H292.913L292.967 104.539L293.021 104.599H293.241V104.82L294.101 105.679L293.576 106.204ZM287.013 106.204H283.678V104.599H287.013V106.204ZM280.349 106.204H276.99V104.599H280.325L280.349 106.204ZM296.457 103.322L295.324 102.183L297.68 99.8321L298.814 100.966L296.457 103.322ZM301.17 98.6091L300.037 97.4755L302.393 95.1189L303.527 96.2525L301.17 98.6091ZM305.884 93.8959L304.75 92.7624L307.136 90.4058L308.27 91.5393L305.884 93.8959Z" fill="black"/>
<path d="M311.967 93.3531H310.363V88.264H305.268V86.6592H311.967V93.3531Z" fill="black"/>
</g>
</g>
<path d="M177.263 142.024H167.807V140.419H176.266L185.066 122.825L194.35 113.542H212.272L221.233 104.581H239.483V106.186H221.895L212.934 115.147H195.018L186.385 123.78L177.263 142.024Z" fill="#68D2D2"/>
<g opacity="0.3">
<path d="M177.265 142.024H167.809V140.419H176.268L185.068 122.825L194.352 113.542H212.274L221.235 104.581H239.485V106.186H221.897L212.936 115.147H195.02L186.387 123.78L177.265 142.024Z" fill="#263238"/>
</g>
<path d="M200.961 127.288H191.445C189.88 127.288 188.611 128.557 188.611 130.122V139.638C188.611 141.203 189.88 142.472 191.445 142.472H200.961C202.526 142.472 203.795 141.203 203.795 139.638V130.122C203.795 128.557 202.526 127.288 200.961 127.288Z" fill="#68D2D2"/>
<path opacity="0.3" d="M200.961 127.288H191.445C189.88 127.288 188.611 128.557 188.611 130.122V139.638C188.611 141.203 189.88 142.472 191.445 142.472H200.961C202.526 142.472 203.795 141.203 203.795 139.638V130.122C203.795 128.557 202.526 127.288 200.961 127.288Z" fill="black"/>
<path d="M200.961 126.226H191.445C189.88 126.226 188.611 127.495 188.611 129.06V138.576C188.611 140.141 189.88 141.41 191.445 141.41H200.961C202.526 141.41 203.795 140.141 203.795 138.576V129.06C203.795 127.495 202.526 126.226 200.961 126.226Z" fill="#68D2D2"/>
<path opacity="0.8" d="M200.961 126.226H191.445C189.88 126.226 188.611 127.495 188.611 129.06V138.576C188.611 140.141 189.88 141.41 191.445 141.41H200.961C202.526 141.41 203.795 140.141 203.795 138.576V129.06C203.795 127.495 202.526 126.226 200.961 126.226Z" fill="white"/>
<path d="M192.179 131.536C192.141 130.986 192.321 130.444 192.68 130.026C193.078 129.684 193.586 129.495 194.112 129.495C194.637 129.495 195.145 129.684 195.544 130.026C195.903 130.444 196.083 130.986 196.045 131.536V135.712C196.058 136.104 195.974 136.493 195.8 136.845C195.809 136.876 195.824 136.905 195.844 136.93C195.865 136.955 195.891 136.975 195.92 136.989C195.997 137.011 196.078 137.021 196.158 137.018H196.272V138.152H196.099C195.858 138.162 195.618 138.113 195.4 138.009C195.225 137.92 195.085 137.775 195.001 137.597C194.865 137.646 194.725 137.682 194.583 137.705C194.428 137.734 194.27 137.748 194.112 137.746C193.85 137.765 193.586 137.728 193.34 137.637C193.093 137.547 192.868 137.405 192.68 137.221C192.322 136.803 192.142 136.261 192.179 135.712V131.536ZM193.45 135.825C193.431 136.04 193.495 136.253 193.629 136.422C193.762 136.537 193.932 136.601 194.109 136.601C194.285 136.601 194.456 136.537 194.589 136.422C194.722 136.253 194.786 136.04 194.768 135.825V131.452C194.785 131.238 194.721 131.025 194.589 130.856C194.456 130.74 194.285 130.677 194.109 130.677C193.932 130.677 193.762 130.74 193.629 130.856C193.497 131.025 193.433 131.238 193.45 131.452V135.825Z" fill="black"/>
<path d="M197.649 130.587C197.85 130.592 198.052 130.566 198.245 130.509C198.389 130.464 198.521 130.389 198.633 130.289C198.73 130.196 198.811 130.087 198.872 129.967C198.937 129.84 198.993 129.708 199.039 129.573H199.892V137.687H198.621V131.512H197.637L197.649 130.587Z" fill="black"/>
<path d="M254.816 127.885H245.301C243.736 127.885 242.467 129.154 242.467 130.719V140.234C242.467 141.8 243.736 143.068 245.301 143.068H254.816C256.382 143.068 257.65 141.8 257.65 140.234V130.719C257.65 129.154 256.382 127.885 254.816 127.885Z" fill="#68D2D2"/>
<path opacity="0.3" d="M254.816 127.885H245.301C243.736 127.885 242.467 129.154 242.467 130.719V140.234C242.467 141.8 243.736 143.068 245.301 143.068H254.816C256.382 143.068 257.65 141.8 257.65 140.234V130.719C257.65 129.154 256.382 127.885 254.816 127.885Z" fill="black"/>
<path d="M254.816 126.823H245.301C243.736 126.823 242.467 128.092 242.467 129.657V139.172C242.467 140.738 243.736 142.006 245.301 142.006H254.816C256.382 142.006 257.65 140.738 257.65 139.172V129.657C257.65 128.092 256.382 126.823 254.816 126.823Z" fill="#68D2D2"/>
<path opacity="0.8" d="M254.816 126.823H245.301C243.736 126.823 242.467 128.092 242.467 129.657V139.172C242.467 140.738 243.736 142.006 245.301 142.006H254.816C256.382 142.006 257.65 140.738 257.65 139.172V129.657C257.65 128.092 256.382 126.823 254.816 126.823Z" fill="white"/>
<path d="M246.201 132.24C246.162 131.691 246.34 131.15 246.696 130.73C247.097 130.392 247.606 130.206 248.131 130.206C248.656 130.206 249.164 130.392 249.566 130.73C249.919 131.151 250.097 131.692 250.061 132.24V136.416C250.074 136.808 249.99 137.198 249.816 137.55C249.826 137.582 249.842 137.612 249.863 137.637C249.885 137.663 249.911 137.684 249.941 137.699C250.019 137.711 250.097 137.711 250.174 137.699H250.293V138.832H250.12C249.88 138.842 249.64 138.793 249.422 138.689C249.246 138.601 249.105 138.456 249.023 138.277C248.886 138.325 248.747 138.363 248.605 138.391C248.447 138.418 248.288 138.431 248.128 138.433C247.865 138.449 247.602 138.411 247.355 138.319C247.109 138.228 246.884 138.085 246.696 137.902C246.339 137.483 246.161 136.941 246.201 136.392V132.24ZM247.46 136.553C247.443 136.767 247.507 136.98 247.639 137.15C247.772 137.265 247.942 137.329 248.119 137.329C248.295 137.329 248.466 137.265 248.599 137.15C248.731 136.98 248.795 136.767 248.778 136.553V132.18C248.796 131.966 248.732 131.752 248.599 131.584C248.466 131.468 248.295 131.405 248.119 131.405C247.942 131.405 247.772 131.468 247.639 131.584C247.505 131.752 247.441 131.966 247.46 132.18V136.553Z" fill="black"/>
<path d="M253.428 132.288C253.457 132.029 253.394 131.769 253.249 131.554C253.188 131.488 253.114 131.437 253.032 131.404C252.949 131.371 252.86 131.357 252.771 131.363C252.683 131.358 252.594 131.372 252.511 131.402C252.428 131.433 252.352 131.481 252.288 131.542C252.155 131.711 252.091 131.924 252.109 132.138V133.009H250.916V132.222C250.878 131.676 251.048 131.137 251.393 130.712C251.787 130.373 252.29 130.187 252.81 130.187C253.33 130.187 253.833 130.373 254.227 130.712C254.572 131.137 254.743 131.676 254.704 132.222C254.712 132.628 254.645 133.033 254.508 133.415C254.377 133.756 254.207 134.08 254 134.382C253.807 134.666 253.591 134.936 253.356 135.187C253.123 135.432 252.915 135.664 252.73 135.879C252.538 136.083 252.371 136.309 252.235 136.553C252.127 136.763 252.091 137.002 252.133 137.233H254.52V138.391H250.844V137.394C250.836 137.04 250.899 136.687 251.029 136.356C251.149 136.061 251.305 135.783 251.495 135.527C251.679 135.281 251.879 135.046 252.091 134.823C252.303 134.601 252.502 134.368 252.688 134.125C252.879 133.874 253.035 133.6 253.153 133.308C253.313 132.99 253.407 132.643 253.428 132.288Z" fill="black"/>
<path d="M308.856 127.288H299.34C297.775 127.288 296.506 128.557 296.506 130.122V139.638C296.506 141.203 297.775 142.472 299.34 142.472H308.856C310.421 142.472 311.689 141.203 311.689 139.638V130.122C311.689 128.557 310.421 127.288 308.856 127.288Z" fill="#68D2D2"/>
<path opacity="0.3" d="M308.856 127.288H299.34C297.775 127.288 296.506 128.557 296.506 130.122V139.638C296.506 141.203 297.775 142.472 299.34 142.472H308.856C310.421 142.472 311.689 141.203 311.689 139.638V130.122C311.689 128.557 310.421 127.288 308.856 127.288Z" fill="black"/>
<path d="M308.856 126.226H299.34C297.775 126.226 296.506 127.495 296.506 129.06V138.576C296.506 140.141 297.775 141.41 299.34 141.41H308.856C310.421 141.41 311.689 140.141 311.689 138.576V129.06C311.689 127.495 310.421 126.226 308.856 126.226Z" fill="#68D2D2"/>
<path opacity="0.8" d="M308.856 126.226H299.34C297.775 126.226 296.506 127.495 296.506 129.06V138.576C296.506 140.141 297.775 141.41 299.34 141.41H308.856C310.421 141.41 311.689 140.141 311.689 138.576V129.06C311.689 127.495 310.421 126.226 308.856 126.226Z" fill="white"/>
<path d="M300.247 131.643C300.211 131.095 300.389 130.554 300.742 130.134C301.144 129.795 301.652 129.609 302.177 129.609C302.702 129.609 303.21 129.795 303.612 130.134C303.965 130.554 304.143 131.095 304.107 131.643V135.819C304.124 136.212 304.04 136.602 303.862 136.953C303.884 137.017 303.929 137.07 303.988 137.102C304.067 137.115 304.147 137.115 304.226 137.102H304.34V138.236H304.167C303.926 138.245 303.686 138.196 303.469 138.092C303.292 138.005 303.151 137.859 303.069 137.681C302.933 137.728 302.793 137.766 302.651 137.794C302.494 137.821 302.334 137.835 302.174 137.836C301.911 137.853 301.648 137.814 301.402 137.722C301.155 137.631 300.93 137.489 300.742 137.305C300.388 136.885 300.21 136.344 300.247 135.795V131.643ZM301.518 135.933C301.501 136.147 301.565 136.36 301.697 136.529C301.83 136.645 302.001 136.708 302.177 136.708C302.353 136.708 302.524 136.645 302.657 136.529C302.789 136.36 302.853 136.147 302.836 135.933V131.56C302.855 131.345 302.791 131.132 302.657 130.963C302.524 130.848 302.353 130.784 302.177 130.784C302.001 130.784 301.83 130.848 301.697 130.963C301.563 131.132 301.499 131.345 301.518 131.56V135.933Z" fill="black"/>
<path d="M307.382 131.691C307.412 131.433 307.348 131.172 307.203 130.957C307.142 130.891 307.067 130.839 306.983 130.806C306.9 130.773 306.81 130.759 306.72 130.766C306.632 130.762 306.545 130.776 306.463 130.807C306.381 130.837 306.306 130.884 306.243 130.945C306.109 131.114 306.045 131.327 306.064 131.542V132.067H304.87V131.625C304.834 131.079 305.007 130.539 305.354 130.116C305.747 129.777 306.249 129.59 306.768 129.59C307.287 129.59 307.788 129.777 308.182 130.116C308.529 130.539 308.701 131.079 308.665 131.625V131.834C308.665 132.693 308.366 133.254 307.776 133.498C308.077 133.618 308.321 133.845 308.462 134.137C308.607 134.472 308.676 134.834 308.665 135.199V135.831C308.703 136.378 308.53 136.918 308.182 137.34C307.79 137.683 307.288 137.872 306.768 137.872C306.247 137.872 305.745 137.683 305.354 137.34C305.005 136.918 304.833 136.378 304.87 135.831V135.181H306.064V135.956C306.047 136.171 306.111 136.383 306.243 136.553C306.306 136.613 306.381 136.66 306.463 136.691C306.545 136.722 306.632 136.736 306.72 136.732C306.809 136.735 306.897 136.721 306.98 136.689C307.064 136.657 307.139 136.609 307.203 136.547C307.347 136.333 307.411 136.075 307.382 135.819V135.181C307.408 134.9 307.339 134.618 307.185 134.381C307.098 134.298 306.994 134.235 306.879 134.197C306.764 134.16 306.642 134.15 306.523 134.167H306.093V132.973H306.595C306.798 132.983 306.998 132.917 307.155 132.788C307.232 132.695 307.29 132.588 307.325 132.472C307.36 132.356 307.371 132.234 307.358 132.114L307.382 131.691Z" fill="black"/>
<path d="M336.653 219.583L337.661 228.293C337.661 251.74 336.838 253.482 334.875 261.625C334.189 264.465 333.347 267.627 332.369 270.461C332.059 271.362 331.838 272.291 331.707 273.235V273.277C331.591 274.043 331.531 274.817 331.528 275.592C331.51 278.598 331.052 281.585 330.168 284.457C329.123 288.037 327.781 292.106 326.284 296.419C312.164 300.28 297.497 301.748 282.893 300.763L296.853 275.001C298.305 272.323 298.802 269.23 298.261 266.231C296.471 256.322 294.204 241.335 293.775 226.694C293.106 203.874 294.628 208.003 295.314 197.24C295.393 195.948 295.735 194.686 296.317 193.53C296.9 192.374 297.711 191.349 298.703 190.516L299.538 189.824L307.998 172.284C308.546 171.146 309.328 170.136 310.292 169.319C311.256 168.503 312.38 167.898 313.593 167.543C314.806 167.189 316.079 167.093 317.331 167.262C318.583 167.432 319.785 167.862 320.86 168.525L329.302 173.734C329.486 173.847 329.641 174 329.757 174.182C329.873 174.364 329.946 174.57 329.971 174.784L331.104 184.478C331.104 184.478 337.249 193.726 337.667 197.305C337.798 198.499 336.533 201.881 336.533 201.881L336.653 219.583Z" fill="white"/>
<mask id="mask0_1519_1132" style="mask-type:luminance" maskUnits="userSpaceOnUse" x="282" y="167" width="56" height="135">
<path d="M336.653 219.583L337.661 228.294C337.661 251.74 336.838 253.482 334.875 261.626C334.189 264.466 333.347 267.628 332.369 270.462C332.059 271.363 331.838 272.292 331.707 273.236V273.278C331.591 274.044 331.531 274.817 331.528 275.592C331.51 278.598 331.052 281.585 330.168 284.458C329.123 288.038 327.781 292.106 326.284 296.42C312.164 300.28 297.497 301.748 282.893 300.763L296.853 275.002C298.305 272.323 298.802 269.23 298.261 266.232C296.471 256.322 294.204 241.335 293.775 226.695C293.106 203.875 294.628 208.003 295.314 197.24C295.393 195.948 295.735 194.686 296.317 193.53C296.9 192.374 297.711 191.349 298.703 190.517L299.538 189.825L307.998 172.284C308.546 171.146 309.328 170.136 310.292 169.32C311.256 168.503 312.38 167.898 313.593 167.544C314.806 167.189 316.079 167.094 317.331 167.263C318.583 167.432 319.785 167.862 320.86 168.526L329.302 173.734C329.486 173.847 329.641 174 329.757 174.182C329.873 174.364 329.946 174.57 329.971 174.784L331.104 184.479C331.104 184.479 337.249 193.726 337.667 197.306C337.798 198.499 336.533 201.882 336.533 201.882L336.653 219.583Z" fill="white"/>
</mask>
<g mask="url(#mask0_1519_1132)">
<path d="M296.041 276.684C309.584 264.627 306.314 251.668 301.022 244.109C296.786 238.066 299.346 230.596 299.292 223.861C299.19 218.942 298.69 214.04 297.795 209.202C297.377 206.78 296.9 204.364 296.417 201.953C296.226 201.017 296.243 200.098 296.076 199.185C295.909 198.272 295.313 197.461 295.432 196.53C295.432 196.53 293.642 210.515 293.642 211.72C293.595 214.703 293.642 218.545 293.642 221.54C293.696 227.882 294.066 232.183 294.466 238.507C295.188 249.879 297.753 262.288 298.493 267.58C298.845 270.08 297.025 274.501 296.041 276.684Z" fill="#68D2D2"/>
<g opacity="0.2">
<path d="M296.041 276.684C309.584 264.627 306.314 251.668 301.022 244.109C296.786 238.066 299.346 230.596 299.292 223.861C299.19 218.942 298.69 214.04 297.795 209.202C297.377 206.78 296.9 204.364 296.417 201.953C296.226 201.017 296.243 200.098 296.076 199.185C295.909 198.272 295.313 197.461 295.432 196.53C295.432 196.53 293.642 210.515 293.642 211.72C293.595 214.703 293.642 218.545 293.642 221.54C293.696 227.882 294.066 232.183 294.466 238.507C295.188 249.879 297.753 262.288 298.493 267.58C298.845 270.08 297.025 274.501 296.041 276.684Z" fill="white"/>
</g>
<path d="M317.298 173.179C316.654 171.694 314.262 171.884 313.265 173.179C312.269 174.474 312.257 176.216 312.311 177.833C312.365 179.449 312.4 181.209 311.446 182.522C310.849 183.327 309.948 183.882 309.471 184.759C307.747 187.969 312.973 192.247 310.664 195.08C309.59 196.405 307.228 196.602 306.816 198.26C306.351 200.098 308.689 201.202 310.115 202.437C312.502 204.507 312.418 208.737 309.984 210.735C313.767 212.436 314.5 218.831 313.856 227.106C316.404 223.526 317.036 212.99 316.756 208.611C316.475 204.232 315.437 199.925 315.061 195.552C314.482 188.673 315.563 181.755 318.211 175.381L317.298 173.179Z" fill="#68D2D2"/>
<g opacity="0.2">
<path d="M317.296 173.179C316.652 171.694 314.26 171.884 313.263 173.179C312.267 174.474 312.255 176.216 312.309 177.833C312.363 179.449 312.398 181.209 311.444 182.522C310.847 183.327 309.946 183.882 309.469 184.759C307.745 187.969 312.971 192.247 310.662 195.08C309.588 196.405 307.226 196.602 306.814 198.26C306.349 200.098 308.687 201.202 310.113 202.437C312.5 204.507 312.416 208.737 309.982 210.735C313.765 212.436 314.498 218.831 313.854 227.106C316.402 223.526 317.034 212.99 316.754 208.611C316.473 204.232 315.435 199.925 315.059 195.552C314.48 188.673 315.561 181.755 318.209 175.381L317.296 173.179Z" fill="white"/>
</g>
<path d="M330.833 205.706C330.559 207.496 331.144 209.333 331.722 211.075C333.536 216.516 335.346 221.959 337.152 227.404C337.247 220.478 337.444 213.545 337.444 206.625C337.444 204.775 337.981 201.5 335.6 200.969C333.405 200.48 331.096 204.012 330.833 205.706Z" fill="#68D2D2"/>
<path opacity="0.2" d="M330.833 205.706C330.559 207.496 331.144 209.333 331.722 211.075C333.536 216.516 335.346 221.959 337.152 227.404C337.247 220.478 337.444 213.545 337.444 206.625C337.444 204.775 337.981 201.5 335.6 200.969C333.405 200.48 331.096 204.012 330.833 205.706Z" fill="white"/>
</g>
<path d="M363.989 107.618C363.989 108.054 363.989 108.489 363.989 108.931C363.993 112.689 363.485 116.43 362.48 120.052C361.516 123.551 360.091 126.908 358.244 130.033H358.381C357.957 130.761 357.51 131.471 357.044 132.169H356.901C351.217 140.6 342.647 146.664 332.804 149.22L331.987 149.416L331.522 149.524C328.52 150.202 325.453 150.542 322.376 150.538C320.22 150.54 318.068 150.374 315.938 150.043C314.595 149.836 313.263 149.561 311.947 149.22C310.939 148.957 309.949 148.665 308.964 148.331V148.42C308.2 148.166 307.449 147.885 306.709 147.579C299.792 144.748 293.763 140.109 289.252 134.149C288.709 133.445 288.202 132.723 287.719 131.984C287.397 131.5 287.087 131.005 286.788 130.504C286.311 129.717 285.858 128.917 285.434 128.118C285.213 127.694 285.004 127.27 284.802 126.841C284.688 126.62 284.587 126.393 284.485 126.167C284.336 125.839 284.193 125.51 284.05 125.176C281.915 120.075 280.818 114.599 280.822 109.068C280.822 108.269 280.822 107.475 280.888 106.682C280.942 105.775 281.019 104.892 281.133 103.979C281.808 98.4659 283.581 93.144 286.348 88.3278C289.114 83.5116 292.818 79.2989 297.241 75.9386C300.042 73.8031 303.101 72.0292 306.345 70.6587C307.246 70.2828 308.165 69.9308 309.095 69.6206C318.011 66.6119 327.681 66.7023 336.539 69.8771C337.438 70.1993 338.325 70.5533 339.2 70.9391C340.616 71.559 341.997 72.2581 343.334 73.0331H343.406C343.812 73.2658 344.217 73.5104 344.599 73.7729C344.981 74.0354 345.405 74.286 345.793 74.5545L345.87 74.6857C346.709 75.2585 347.527 75.8551 348.322 76.4755C351.032 78.6319 353.464 81.1147 355.565 83.8675C355.971 84.3985 356.358 84.9414 356.758 85.4902L356.955 85.7826C357.277 86.2658 357.599 86.7431 357.904 87.2383C358.279 87.8349 358.643 88.4733 358.989 89.1057L359.019 89.1653C359.135 89.3588 359.24 89.5579 359.335 89.7619C359.389 89.8693 359.443 89.9827 359.502 90.0901C359.67 90.4182 359.831 90.7523 359.986 91.0864C359.988 91.1022 359.988 91.1183 359.986 91.1341V91.1699L360.022 91.2415L360.051 91.3012L360.093 91.3966C360.095 91.4125 360.095 91.4285 360.093 91.4444L360.266 91.8202C361.942 95.4832 363.07 99.373 363.613 103.365L363.72 104.629C363.762 105.053 363.798 105.482 363.834 105.906C363.87 106.33 363.882 106.682 363.899 107.099C363.899 107.135 363.899 107.171 363.899 107.207C363.983 107.326 363.989 107.475 363.989 107.618Z" fill="#263238"/>
<path d="M363.989 107.618C363.989 108.054 363.989 108.489 363.989 108.931C363.993 112.689 363.485 116.43 362.48 120.052C361.516 123.551 360.091 126.908 358.244 130.033H358.381C357.957 130.761 357.51 131.471 357.044 132.169H356.901C351.217 140.6 342.647 146.664 332.804 149.22L331.987 149.416L331.522 149.524C328.52 150.202 325.453 150.542 322.376 150.538C320.22 150.54 318.068 150.374 315.938 150.043C314.595 149.836 313.263 149.561 311.947 149.22C310.939 148.957 309.949 148.665 308.964 148.331V148.42C308.2 148.166 307.449 147.885 306.709 147.579C299.792 144.748 293.763 140.109 289.252 134.149C288.709 133.445 288.202 132.723 287.719 131.984C287.397 131.5 287.087 131.005 286.788 130.504C286.311 129.717 285.858 128.917 285.434 128.118C285.213 127.694 285.004 127.27 284.802 126.841C284.688 126.62 284.587 126.393 284.485 126.167C284.336 125.839 284.193 125.51 284.05 125.176C281.915 120.075 280.818 114.599 280.822 109.068C280.822 108.269 280.822 107.475 280.888 106.682C280.942 105.775 281.019 104.892 281.133 103.979C281.808 98.4659 283.581 93.144 286.348 88.3278C289.114 83.5116 292.818 79.2989 297.241 75.9386C300.042 73.8031 303.101 72.0292 306.345 70.6587C307.246 70.2828 308.165 69.9308 309.095 69.6206C318.011 66.6119 327.681 66.7023 336.539 69.8771C337.438 70.1993 338.325 70.5533 339.2 70.9391C340.616 71.559 341.997 72.2581 343.334 73.0331H343.406C343.812 73.2658 344.217 73.5104 344.599 73.7729C344.981 74.0354 345.405 74.286 345.793 74.5545L345.87 74.6857C346.709 75.2585 347.527 75.8551 348.322 76.4755C351.032 78.6319 353.464 81.1147 355.565 83.8675C355.971 84.3985 356.358 84.9414 356.758 85.4902L356.955 85.7826C357.277 86.2658 357.599 86.7431 357.904 87.2383C358.279 87.8349 358.643 88.4733 358.989 89.1057L359.019 89.1653L359.992 91.0864C359.994 91.1022 359.994 91.1183 359.992 91.1341V91.1699L360.027 91.2415L360.057 91.3012L360.099 91.3966C360.101 91.4125 360.101 91.4285 360.099 91.4444L360.272 91.8202C361.948 95.4832 363.076 99.373 363.619 103.365L363.726 104.629C363.768 105.053 363.804 105.482 363.84 105.906C363.876 106.33 363.888 106.682 363.905 107.099C363.905 107.135 363.905 107.171 363.905 107.207C363.983 107.326 363.989 107.475 363.989 107.618Z" fill="#68D2D2"/>
<path d="M328.738 104.039H327.896H326.166H320.988H315.767H310.786H310.523C310.523 104.379 310.523 104.725 310.523 105.065C310.523 105.453 310.523 105.84 310.523 106.222L310.684 106.377C310.631 106.437 310.577 106.485 310.523 106.538V106.771C312.265 106.771 314.013 106.771 315.75 106.771H316.197H320.97L326.131 106.729L331.231 106.67L336.261 106.598C336.291 105.697 336.321 104.808 336.344 103.89H337.025L328.738 104.039ZM363.979 107.183C363.979 107.35 363.949 107.517 363.937 107.684C363.603 111.956 363.126 116.114 362.505 120.052C363.511 116.43 364.018 112.689 364.015 108.931C364.015 108.489 364.015 108.054 364.015 107.618C363.991 107.475 363.985 107.326 363.979 107.183ZM328.738 104.039H327.896H326.166H320.988H315.767H310.786H310.523C310.523 104.379 310.523 104.725 310.523 105.065C310.523 105.453 310.523 105.84 310.523 106.222L310.684 106.377C310.631 106.437 310.577 106.485 310.523 106.538V106.771C312.265 106.771 314.013 106.771 315.75 106.771H316.197H320.97L326.131 106.729L331.231 106.67L336.261 106.598C336.291 105.697 336.321 104.808 336.344 103.89H337.025L328.738 104.039ZM328.738 104.039H327.896H326.166H320.988H315.767H310.786H310.523C310.523 104.379 310.523 104.725 310.523 105.065C310.523 105.453 310.523 105.84 310.523 106.222L310.684 106.377C310.631 106.437 310.577 106.485 310.523 106.538V106.771C312.265 106.771 314.013 106.771 315.75 106.771H316.197H320.97L326.131 106.729L331.231 106.67L336.261 106.598C336.291 105.697 336.321 104.808 336.344 103.89H337.025L328.738 104.039ZM328.738 104.039H327.896H326.166H320.988H315.767H310.786H310.523C310.523 104.379 310.523 104.725 310.523 105.065C310.523 105.453 310.523 105.84 310.523 106.222L310.684 106.377C310.631 106.437 310.577 106.485 310.523 106.538V106.771C312.265 106.771 314.013 106.771 315.75 106.771H316.197H320.97L326.131 106.729L331.231 106.67L336.261 106.598C336.291 105.697 336.321 104.808 336.344 103.89H337.025L328.738 104.039ZM328.738 104.039H327.896H326.166H320.988H315.767H310.786H310.523C310.523 104.379 310.523 104.725 310.523 105.065C310.523 105.453 310.523 105.84 310.523 106.222L310.684 106.377C310.631 106.437 310.577 106.485 310.523 106.538V106.771C312.265 106.771 314.013 106.771 315.75 106.771H316.197H320.97L326.131 106.729L331.231 106.67L336.261 106.598C336.291 105.697 336.321 104.808 336.344 103.89H337.025L328.738 104.039ZM328.738 104.039H327.896H326.166H320.988H315.767H310.786H310.523C310.523 104.379 310.523 104.725 310.523 105.065C310.523 105.453 310.523 105.84 310.523 106.222L310.684 106.377C310.631 106.437 310.577 106.485 310.523 106.538V106.771C312.265 106.771 314.013 106.771 315.75 106.771H316.197H320.97L326.131 106.729L331.231 106.67L336.261 106.598C336.291 105.697 336.321 104.808 336.344 103.89H337.025L328.738 104.039ZM328.738 104.039H327.896H326.166H320.988H315.767H310.786H310.523C310.523 104.379 310.523 104.725 310.523 105.065C310.523 105.453 310.523 105.84 310.523 106.222L310.684 106.377C310.631 106.437 310.577 106.485 310.523 106.538V106.771C312.265 106.771 314.013 106.771 315.75 106.771H316.197H320.97L326.131 106.729L331.231 106.67L336.261 106.598C336.291 105.697 336.321 104.808 336.344 103.89H337.025L328.738 104.039ZM328.738 104.039H327.896H326.166H320.988H315.767H310.786H310.523C310.523 104.379 310.523 104.725 310.523 105.065C310.523 105.453 310.523 105.84 310.523 106.222L310.684 106.377C310.631 106.437 310.577 106.485 310.523 106.538V106.771C312.265 106.771 314.013 106.771 315.75 106.771H316.197H320.97L326.131 106.729L331.231 106.67L336.261 106.598C336.291 105.697 336.321 104.808 336.344 103.89H337.025L328.738 104.039ZM328.738 104.039H327.896H326.166H320.988H315.767H310.786H310.523C310.523 104.379 310.523 104.725 310.523 105.065C310.523 105.453 310.523 105.84 310.523 106.222L310.684 106.377L310.517 106.538V106.777C312.259 106.777 314.007 106.777 315.744 106.777H316.191H320.964L326.125 106.735L331.226 106.676L336.255 106.604C336.285 105.703 336.315 104.814 336.338 103.895H337.019L328.738 104.039ZM328.738 104.039H327.896H326.166H320.988H315.767H310.786H310.523C310.523 104.379 310.523 104.725 310.523 105.065C310.523 105.453 310.523 105.84 310.523 106.222L310.684 106.377L310.517 106.538V106.777C312.259 106.777 314.007 106.777 315.744 106.777H316.191H320.964L326.125 106.735L331.226 106.676L336.255 106.604C336.285 105.703 336.315 104.814 336.338 103.895H337.019L328.738 104.039ZM336.326 103.955H337.007L328.738 104.051H327.896H326.166H320.988H315.767H310.786H310.523C310.523 104.391 310.523 104.737 310.523 105.077C310.523 105.465 310.523 105.852 310.523 106.234L310.684 106.389L310.517 106.55V106.789H309.127V107.917C309.127 116.788 309.127 125.188 309.08 132.264C317.85 132.264 326.614 132.055 334.978 131.667C335.408 128.38 335.784 124.812 336.088 121.042C336.153 120.219 336.219 119.389 336.279 118.548C336.559 114.7 336.774 110.679 336.923 106.562H336.243C336.273 105.763 336.303 104.862 336.326 103.955ZM337.042 81.6839C337.042 81.2782 337.042 80.8725 337.013 80.4907C336.965 79.035 336.917 77.5971 336.857 76.1713C327.908 75.9803 318.53 75.8789 309.121 75.873C309.121 84.5536 309.121 93.7711 309.121 102.72V104.164H309.372C309.483 104.17 309.595 104.17 309.706 104.164H309.968H314.95H320.17H325.349H327.079H327.92L336.189 104.068C337.221 96.593 337.233 89.0162 337.042 81.6839ZM328.738 104.039H327.896H326.166H320.988H315.767H310.786H310.523C310.523 104.379 310.523 104.725 310.523 105.065C310.523 105.453 310.523 105.84 310.523 106.222L310.684 106.377L310.517 106.538V106.777C312.259 106.777 314.007 106.777 315.744 106.777H316.191H320.964L326.125 106.735L331.226 106.676L336.255 106.604C336.285 105.703 336.315 104.814 336.338 103.895H337.019L328.738 104.039ZM328.738 104.039H327.896H326.166H320.988H315.767H310.786H310.523C310.523 104.379 310.523 104.725 310.523 105.065C310.523 105.453 310.523 105.84 310.523 106.222L310.684 106.377L310.517 106.538V106.777C312.259 106.777 314.007 106.777 315.744 106.777H316.191H320.964L326.125 106.735L331.226 106.676L336.255 106.604C336.285 105.703 336.315 104.814 336.338 103.895H337.019L328.738 104.039ZM328.738 104.039H327.896H326.166H320.988H315.767H310.786H310.523C310.523 104.379 310.523 104.725 310.523 105.065C310.523 105.453 310.523 105.84 310.523 106.222L310.684 106.377L310.517 106.538V106.777C312.259 106.777 314.007 106.777 315.744 106.777H316.191H320.964L326.125 106.735L331.226 106.676L336.255 106.604C336.285 105.703 336.315 104.814 336.338 103.895H337.019L328.738 104.039ZM328.738 104.039H327.896H326.166H320.988H315.767H310.786H310.523C310.523 104.379 310.523 104.725 310.523 105.065C310.523 105.453 310.523 105.84 310.523 106.222L310.684 106.377C310.631 106.437 310.577 106.485 310.523 106.538V106.771C312.265 106.771 314.013 106.771 315.75 106.771H316.197H320.97L326.131 106.729L331.231 106.67L336.261 106.598C336.291 105.697 336.321 104.808 336.344 103.89H337.025L328.738 104.039ZM328.738 104.039H327.896H326.166H320.988H315.767H310.786H310.523C310.523 104.379 310.523 104.725 310.523 105.065C310.523 105.453 310.523 105.84 310.523 106.222L310.684 106.377C310.631 106.437 310.577 106.485 310.523 106.538V106.771C312.265 106.771 314.013 106.771 315.75 106.771H316.197H320.97L326.131 106.729L331.231 106.67L336.261 106.598C336.291 105.697 336.321 104.808 336.344 103.89H337.025L328.738 104.039ZM328.738 104.039H327.896H326.166H320.988H315.767H310.786H310.523C310.523 104.379 310.523 104.725 310.523 105.065C310.523 105.453 310.523 105.84 310.523 106.222L310.684 106.377C310.631 106.437 310.577 106.485 310.523 106.538V106.771C312.265 106.771 314.013 106.771 315.75 106.771H316.197H320.97L326.131 106.729L331.231 106.67L336.261 106.598C336.291 105.697 336.321 104.808 336.344 103.89H337.025L328.738 104.039ZM328.738 104.039H327.896H326.166H320.988H315.767H310.786H310.523C310.523 104.379 310.523 104.725 310.523 105.065C310.523 105.453 310.523 105.84 310.523 106.222L310.684 106.377C310.631 106.437 310.577 106.485 310.523 106.538V106.771C312.265 106.771 314.013 106.771 315.75 106.771H316.197H320.97L326.131 106.729L331.231 106.67L336.261 106.598C336.291 105.697 336.321 104.808 336.344 103.89H337.025L328.738 104.039ZM328.738 104.039H327.896H326.166H320.988H315.767H310.786H310.523C310.523 104.379 310.523 104.725 310.523 105.065C310.523 105.453 310.523 105.84 310.523 106.222L310.684 106.377C310.631 106.437 310.577 106.485 310.523 106.538V106.771C312.265 106.771 314.013 106.771 315.75 106.771H316.197H320.97L326.131 106.729L331.231 106.67L336.261 106.598C336.291 105.697 336.321 104.808 336.344 103.89H337.025L328.738 104.039ZM328.738 104.039H327.896H326.166H320.988H315.767H310.786H310.523C310.523 104.379 310.523 104.725 310.523 105.065C310.523 105.453 310.523 105.84 310.523 106.222L310.684 106.377C310.631 106.437 310.577 106.485 310.523 106.538V106.771C312.265 106.771 314.013 106.771 315.75 106.771H316.197H320.97L326.131 106.729L331.231 106.67L336.261 106.598C336.291 105.697 336.321 104.808 336.344 103.89H337.025L328.738 104.039ZM328.738 104.039H327.896H326.166H320.988H315.767H310.786H310.523C310.523 104.379 310.523 104.725 310.523 105.065C310.523 105.453 310.523 105.84 310.523 106.222L310.684 106.377C310.631 106.437 310.577 106.485 310.523 106.538V106.771C312.265 106.771 314.013 106.771 315.75 106.771H316.197H320.97L326.131 106.729L331.231 106.67L336.261 106.598C336.291 105.697 336.321 104.808 336.344 103.89H337.025L328.738 104.039ZM363.794 104.635L363.687 103.37H363.621C356.832 103.597 349.225 103.776 341.165 103.901H339.62C339.62 103.37 339.656 102.834 339.667 102.297C339.906 93.61 339.834 84.6609 339.453 76.2071H340.461L342.937 76.2727L348.306 76.4338C347.511 75.8014 346.693 75.2048 345.854 74.644L345.777 74.5127C345.377 74.2442 344.977 73.9817 344.583 73.7311H344.464L341.845 73.6476L339.351 73.582C339.304 72.6931 339.256 71.7922 339.202 70.939C338.331 70.5413 337.444 70.1873 336.541 69.8771C336.613 71.0703 336.678 72.2834 336.738 73.5164C327.843 73.2956 318.488 73.1823 309.121 73.1763C309.121 71.9831 309.121 70.7899 309.121 69.5967C308.191 69.9069 307.272 70.2589 306.371 70.6348C306.371 71.47 306.371 72.3053 306.371 73.1524H301.336C299.943 73.9729 298.6 74.8753 297.315 75.8551C300.298 75.8551 303.34 75.8193 306.365 75.8133C306.335 84.9592 306.329 94.7078 306.365 104.08C298.084 104.08 289.839 104.021 281.904 103.919H281.17C281.057 104.808 280.979 105.709 280.926 106.622C281.278 106.622 281.636 106.622 281.994 106.622C286.498 106.694 291.11 106.747 295.781 106.777H297.392H300.125H302.815H306.347C306.347 116.066 306.425 124.878 306.496 132.246C300.19 132.246 293.896 132.103 287.769 131.882C288.252 132.622 288.759 133.344 289.302 134.048C294.946 134.251 300.721 134.358 306.502 134.376C306.562 139.745 306.639 144.214 306.729 147.382V147.561C307.469 147.867 308.22 148.148 308.984 148.402V148.313C309.02 145.121 309.044 140.324 309.062 134.465C317.73 134.465 326.393 134.251 334.668 133.869C334.457 135.313 334.23 136.687 333.988 137.991C333.916 138.409 333.839 138.815 333.761 139.214C332.89 143.689 331.846 147.251 330.635 149.524C325.826 149.786 320.904 149.965 315.952 150.043C318.082 150.374 320.234 150.54 322.39 150.538C325.467 150.542 328.534 150.202 331.536 149.524L332.001 149.416L332.818 149.22C334.572 146.058 336.004 140.605 337.102 133.738C344.094 133.356 350.776 132.831 356.915 132.169H357.058C357.524 131.471 357.971 130.761 358.395 130.033H358.258C351.838 130.719 344.804 131.226 337.418 131.638C338.543 123.326 339.25 114.963 339.536 106.58C347.769 106.425 355.549 106.21 362.511 105.93H363.036L363.896 105.894C363.872 105.471 363.836 105.041 363.794 104.605V104.635Z" fill="#68D2D2"/>
<path opacity="0.8" d="M328.738 104.039H327.896H326.166H320.988H315.767H310.786H310.523C310.523 104.379 310.523 104.725 310.523 105.065C310.523 105.453 310.523 105.84 310.523 106.222L310.684 106.377C310.631 106.437 310.577 106.485 310.523 106.538V106.771C312.265 106.771 314.013 106.771 315.75 106.771H316.197H320.97L326.131 106.729L331.231 106.67L336.261 106.598C336.291 105.697 336.321 104.808 336.344 103.89H337.025L328.738 104.039ZM363.991 107.618C363.991 107.475 363.991 107.326 363.991 107.183C363.991 107.35 363.961 107.517 363.949 107.684C363.615 111.956 363.138 116.114 362.517 120.052C363.523 116.43 364.03 112.689 364.027 108.931C364.015 108.489 364.009 108.054 363.991 107.618ZM328.738 104.039H327.896H326.166H320.988H315.767H310.786H310.523C310.523 104.379 310.523 104.725 310.523 105.065C310.523 105.453 310.523 105.84 310.523 106.222L310.684 106.377C310.631 106.437 310.577 106.485 310.523 106.538V106.771C312.265 106.771 314.013 106.771 315.75 106.771H316.197H320.97L326.131 106.729L331.231 106.67L336.261 106.598C336.291 105.697 336.321 104.808 336.344 103.89H337.025L328.738 104.039ZM328.738 104.039H327.896H326.166H320.988H315.767H310.786H310.523C310.523 104.379 310.523 104.725 310.523 105.065C310.523 105.453 310.523 105.84 310.523 106.222L310.684 106.377C310.631 106.437 310.577 106.485 310.523 106.538V106.771C312.265 106.771 314.013 106.771 315.75 106.771H316.197H320.97L326.131 106.729L331.231 106.67L336.261 106.598C336.291 105.697 336.321 104.808 336.344 103.89H337.025L328.738 104.039ZM328.738 104.039H327.896H326.166H320.988H315.767H310.786H310.523C310.523 104.379 310.523 104.725 310.523 105.065C310.523 105.453 310.523 105.84 310.523 106.222L310.684 106.377C310.631 106.437 310.577 106.485 310.523 106.538V106.771C312.265 106.771 314.013 106.771 315.75 106.771H316.197H320.97L326.131 106.729L331.231 106.67L336.261 106.598C336.291 105.697 336.321 104.808 336.344 103.89H337.025L328.738 104.039ZM328.738 104.039H327.896H326.166H320.988H315.767H310.786H310.523C310.523 104.379 310.523 104.725 310.523 105.065C310.523 105.453 310.523 105.84 310.523 106.222L310.684 106.377C310.631 106.437 310.577 106.485 310.523 106.538V106.771C312.265 106.771 314.013 106.771 315.75 106.771H316.197H320.97L326.131 106.729L331.231 106.67L336.261 106.598C336.291 105.697 336.321 104.808 336.344 103.89H337.025L328.738 104.039ZM328.738 104.039H327.896H326.166H320.988H315.767H310.786H310.523C310.523 104.379 310.523 104.725 310.523 105.065C310.523 105.453 310.523 105.84 310.523 106.222L310.684 106.377C310.631 106.437 310.577 106.485 310.523 106.538V106.771C312.265 106.771 314.013 106.771 315.75 106.771H316.197H320.97L326.131 106.729L331.231 106.67L336.261 106.598C336.291 105.697 336.321 104.808 336.344 103.89H337.025L328.738 104.039ZM328.738 104.039H327.896H326.166H320.988H315.767H310.786H310.523C310.523 104.379 310.523 104.725 310.523 105.065C310.523 105.453 310.523 105.84 310.523 106.222L310.684 106.377C310.631 106.437 310.577 106.485 310.523 106.538V106.771C312.265 106.771 314.013 106.771 315.75 106.771H316.197H320.97L326.131 106.729L331.231 106.67L336.261 106.598C336.291 105.697 336.321 104.808 336.344 103.89H337.025L328.738 104.039ZM328.738 104.039H327.896H326.166H320.988H315.767H310.786H310.523C310.523 104.379 310.523 104.725 310.523 105.065C310.523 105.453 310.523 105.84 310.523 106.222L310.684 106.377C310.631 106.437 310.577 106.485 310.523 106.538V106.771C312.265 106.771 314.013 106.771 315.75 106.771H316.197H320.97L326.131 106.729L331.231 106.67L336.261 106.598C336.291 105.697 336.321 104.808 336.344 103.89H337.025L328.738 104.039ZM328.738 104.039H327.896H326.166H320.988H315.767H310.786H310.523C310.523 104.379 310.523 104.725 310.523 105.065C310.523 105.453 310.523 105.84 310.523 106.222L310.684 106.377L310.517 106.538V106.777C312.259 106.777 314.007 106.777 315.744 106.777H316.191H320.964L326.125 106.735L331.226 106.676L336.255 106.604C336.285 105.703 336.315 104.814 336.338 103.895H337.019L328.738 104.039ZM328.738 104.039H327.896H326.166H320.988H315.767H310.786H310.523C310.523 104.379 310.523 104.725 310.523 105.065C310.523 105.453 310.523 105.84 310.523 106.222L310.684 106.377L310.517 106.538V106.777C312.259 106.777 314.007 106.777 315.744 106.777H316.191H320.964L326.125 106.735L331.226 106.676L336.255 106.604C336.285 105.703 336.315 104.814 336.338 103.895H337.019L328.738 104.039ZM328.738 104.039H327.896H326.166H320.988H315.767H310.786H310.523C310.523 104.379 310.523 104.725 310.523 105.065C310.523 105.453 310.523 105.84 310.523 106.222L310.684 106.377L310.517 106.538V106.777C312.259 106.777 314.007 106.777 315.744 106.777H316.191H320.964L326.125 106.735L331.226 106.676L336.255 106.604C336.285 105.703 336.315 104.814 336.338 103.895H337.019L328.738 104.039ZM328.738 104.039H327.896H326.166H320.988H315.767H310.786H310.523C310.523 104.379 310.523 104.725 310.523 105.065C310.523 105.453 310.523 105.84 310.523 106.222L310.684 106.377L310.517 106.538V106.777C312.259 106.777 314.007 106.777 315.744 106.777H316.191H320.964L326.125 106.735L331.226 106.676L336.255 106.604C336.285 105.703 336.315 104.814 336.338 103.895H337.019L328.738 104.039ZM328.738 104.039H327.896H326.166H320.988H315.767H310.786H310.523C310.523 104.379 310.523 104.725 310.523 105.065C310.523 105.453 310.523 105.84 310.523 106.222L310.684 106.377L310.517 106.538V106.777C312.259 106.777 314.007 106.777 315.744 106.777H316.191H320.964L326.125 106.735L331.226 106.676L336.255 106.604C336.285 105.703 336.315 104.814 336.338 103.895H337.019L328.738 104.039ZM328.738 104.039H327.896H326.166H320.988H315.767H310.786H310.523C310.523 104.379 310.523 104.725 310.523 105.065C310.523 105.453 310.523 105.84 310.523 106.222L310.684 106.377L310.517 106.538V106.777C312.259 106.777 314.007 106.777 315.744 106.777H316.191H320.964L326.125 106.735L331.226 106.676L336.255 106.604C336.285 105.703 336.315 104.814 336.338 103.895H337.019L328.738 104.039ZM328.738 104.039H327.896H326.166H320.988H315.767H310.786H310.523C310.523 104.379 310.523 104.725 310.523 105.065C310.523 105.453 310.523 105.84 310.523 106.222L310.684 106.377C310.631 106.437 310.577 106.485 310.523 106.538V106.771C312.265 106.771 314.013 106.771 315.75 106.771H316.197H320.97L326.131 106.729L331.231 106.67L336.261 106.598C336.291 105.697 336.321 104.808 336.344 103.89H337.025L328.738 104.039ZM328.738 104.039H327.896H326.166H320.988H315.767H310.786H310.523C310.523 104.379 310.523 104.725 310.523 105.065C310.523 105.453 310.523 105.84 310.523 106.222L310.684 106.377C310.631 106.437 310.577 106.485 310.523 106.538V106.771C312.265 106.771 314.013 106.771 315.75 106.771H316.197H320.97L326.131 106.729L331.231 106.67L336.261 106.598C336.291 105.697 336.321 104.808 336.344 103.89H337.025L328.738 104.039ZM328.738 104.039H327.896H326.166H320.988H315.767H310.786H310.523C310.523 104.379 310.523 104.725 310.523 105.065C310.523 105.453 310.523 105.84 310.523 106.222L310.684 106.377C310.631 106.437 310.577 106.485 310.523 106.538V106.771C312.265 106.771 314.013 106.771 315.75 106.771H316.197H320.97L326.131 106.729L331.231 106.67L336.261 106.598C336.291 105.697 336.321 104.808 336.344 103.89H337.025L328.738 104.039ZM328.738 104.039H327.896H326.166H320.988H315.767H310.786H310.523C310.523 104.379 310.523 104.725 310.523 105.065C310.523 105.453 310.523 105.84 310.523 106.222L310.684 106.377C310.631 106.437 310.577 106.485 310.523 106.538V106.771C312.265 106.771 314.013 106.771 315.75 106.771H316.197H320.97L326.131 106.729L331.231 106.67L336.261 106.598C336.291 105.697 336.321 104.808 336.344 103.89H337.025L328.738 104.039ZM328.738 104.039H327.896H326.166H320.988H315.767H310.786H310.523C310.523 104.379 310.523 104.725 310.523 105.065C310.523 105.453 310.523 105.84 310.523 106.222L310.684 106.377C310.631 106.437 310.577 106.485 310.523 106.538V106.771C312.265 106.771 314.013 106.771 315.75 106.771H316.197H320.97L326.131 106.729L331.231 106.67L336.261 106.598C336.291 105.697 336.321 104.808 336.344 103.89H337.025L328.738 104.039ZM328.738 104.039H327.896H326.166H320.988H315.767H310.786H310.523C310.523 104.379 310.523 104.725 310.523 105.065C310.523 105.453 310.523 105.84 310.523 106.222L310.684 106.377C310.631 106.437 310.577 106.485 310.523 106.538V106.771C312.265 106.771 314.013 106.771 315.75 106.771H316.197H320.97L326.131 106.729L331.231 106.67L336.261 106.598C336.291 105.697 336.321 104.808 336.344 103.89H337.025L328.738 104.039ZM328.738 104.039H327.896H326.166H320.988H315.767H310.786H310.523C310.523 104.379 310.523 104.725 310.523 105.065C310.523 105.453 310.523 105.84 310.523 106.222L310.684 106.377C310.631 106.437 310.577 106.485 310.523 106.538V106.771C312.265 106.771 314.013 106.771 315.75 106.771H316.197H320.97L326.131 106.729L331.231 106.67L336.261 106.598C336.291 105.697 336.321 104.808 336.344 103.89H337.025L328.738 104.039ZM363.794 104.635L363.687 103.37H363.621C356.832 103.597 349.225 103.776 341.165 103.901H339.62C339.62 103.37 339.656 102.834 339.667 102.297C339.906 93.61 339.834 84.6609 339.453 76.2071H340.461L342.937 76.2727L348.306 76.4338C347.511 75.8014 346.693 75.2048 345.854 74.644L345.777 74.5127C345.377 74.2442 344.977 73.9817 344.583 73.7311H344.464L341.845 73.6476L339.351 73.582C339.304 72.6931 339.256 71.7922 339.202 70.939C338.331 70.5413 337.444 70.1873 336.541 69.8771C336.613 71.0703 336.678 72.2834 336.738 73.5164C327.843 73.2956 318.488 73.1823 309.121 73.1763C309.121 71.9831 309.121 70.7899 309.121 69.5967C308.191 69.9069 307.272 70.2589 306.371 70.6348C306.371 71.47 306.371 72.3053 306.371 73.1524H301.336C299.943 73.9729 298.6 74.8753 297.315 75.8551C300.298 75.8551 303.34 75.8193 306.365 75.8133C306.335 84.9592 306.329 94.7078 306.365 104.08C298.084 104.08 289.839 104.021 281.904 103.919H281.17C281.057 104.808 280.979 105.709 280.926 106.622C281.278 106.622 281.636 106.622 281.994 106.622C286.498 106.694 291.11 106.747 295.781 106.777H297.392H300.125H302.815H306.347C306.347 116.066 306.425 124.878 306.496 132.246C300.19 132.246 293.896 132.103 287.769 131.882C288.252 132.622 288.759 133.344 289.302 134.048C294.946 134.251 300.721 134.358 306.502 134.376C306.562 139.745 306.639 144.214 306.729 147.382V147.561C307.469 147.867 308.22 148.148 308.984 148.402V148.313C309.02 145.121 309.044 140.324 309.062 134.465C317.73 134.465 326.393 134.251 334.668 133.869C334.457 135.313 334.23 136.687 333.988 137.991C333.916 138.409 333.839 138.815 333.761 139.214C332.89 143.689 331.846 147.251 330.635 149.524C325.826 149.786 320.904 149.965 315.952 150.043C318.082 150.374 320.234 150.54 322.39 150.538C325.467 150.542 328.534 150.202 331.536 149.524L332.001 149.416L332.818 149.22C334.572 146.058 336.004 140.605 337.102 133.738C344.094 133.356 350.776 132.831 356.915 132.169H357.058C357.524 131.471 357.971 130.761 358.395 130.033H358.258C351.838 130.719 344.804 131.226 337.418 131.638C338.543 123.326 339.25 114.963 339.536 106.58C347.769 106.425 355.549 106.21 362.511 105.93H363.036L363.896 105.894C363.872 105.471 363.836 105.041 363.794 104.605V104.635ZM336.279 118.655C336.219 119.497 336.153 120.326 336.088 121.149C335.784 124.92 335.408 128.488 334.978 131.775C326.626 132.169 317.85 132.371 309.08 132.371C309.08 125.296 309.115 116.895 309.127 108.024V106.896H310.523C312.265 106.896 314.013 106.896 315.75 106.896H316.197H320.97L326.131 106.855L331.231 106.795L336.261 106.723H336.941C336.774 110.768 336.559 114.789 336.279 118.638V118.655ZM337.007 103.961L328.738 104.057H327.896H326.166H320.988H315.767H310.786H310.523C310.412 104.063 310.301 104.063 310.189 104.057H309.927V102.613C309.927 93.6637 309.927 84.4641 309.927 75.7656C319.335 75.7656 328.732 75.873 337.663 76.0639C337.723 77.4898 337.77 78.9276 337.818 80.3833C337.818 80.783 337.818 81.1887 337.848 81.5765C337.233 89.0162 337.221 96.593 337.007 103.943V103.961Z" fill="white"/>
<path d="M336.92 106.652C336.771 110.768 336.556 114.79 336.275 118.638C336.216 119.479 336.15 120.308 336.084 121.131C335.78 124.902 335.404 128.47 334.975 131.757C326.622 132.151 317.846 132.354 309.076 132.354C309.076 125.278 309.112 116.878 309.124 108.006V106.879H310.52C312.262 106.879 314.01 106.879 315.746 106.879H316.194H320.967L326.127 106.837L331.228 106.777L336.257 106.706L336.92 106.652Z" fill="#68D2D2"/>
<path d="M337.006 103.943L328.737 104.039H327.896H326.165H320.987H315.767H310.785H310.522C310.411 104.045 310.3 104.045 310.188 104.039H309.926V102.595C309.926 93.6457 309.926 84.4461 309.926 75.7476C319.334 75.7476 328.731 75.8549 337.662 76.0459C337.722 77.4717 337.769 78.9096 337.817 80.3653C337.817 80.765 337.817 81.1707 337.847 81.5585C337.232 89.016 337.22 96.5929 337.006 103.943Z" fill="#68D2D2"/>
<path d="M308.987 106.478L306.738 104.534L308.987 102.577L311.237 104.534L308.987 106.478Z" fill="#263238"/>
<path d="M345.894 74.6555L345.816 74.5243C345.416 74.2558 345.017 73.9933 344.623 73.7427C344.229 73.4921 343.817 73.2356 343.43 73.0029H343.358L341.902 73.5995L341.389 73.8203L339.629 75.4072L340.512 76.1828L341.807 77.3283L343 76.2485L343.251 76.0217L346.061 74.8285L345.894 74.6555ZM337.01 80.4724L335.507 79.142C334.123 80.3909 332.713 81.6517 331.277 82.9245L333.49 84.9171L337.04 81.7134L337.702 81.1168L337.01 80.4724ZM326.933 86.7905L322.507 90.7161L324.738 92.6909C326.225 91.3783 327.699 90.0698 329.159 88.7652L326.933 86.7905ZM318.02 94.6716L313.504 98.639L315.747 100.608L320.257 96.6523L318.02 94.6716Z" fill="#263238"/>
<g opacity="0.5">
<path d="M354.571 88.7412H352.226L349.899 91.235L351.647 93.1442C352.184 92.5475 352.715 91.9509 353.24 91.4021H354.571C354.589 90.5191 354.583 89.6302 354.571 88.7412ZM346.558 94.8385C345.421 96.0317 344.265 97.2468 343.092 98.4838C343.697 99.1201 344.293 99.7545 344.882 100.387C346.051 99.1699 347.203 97.9568 348.336 96.7476C347.74 96.1152 347.155 95.4769 346.558 94.8385ZM315.768 104.116C315.768 105.034 315.768 105.953 315.768 106.866H316.215H320.988C320.988 105.959 320.988 105.04 321.024 104.122L315.768 104.116ZM328.738 104.038H327.897H326.166C326.166 104.957 326.131 105.864 326.113 106.771L331.214 106.711C331.243 105.81 331.267 104.921 331.285 103.99L328.738 104.038ZM341.189 103.883L339.691 102.302L339.542 102.147C338.946 102.744 338.349 103.34 337.782 103.937H337.007H336.327C336.327 104.844 336.273 105.727 336.243 106.645H336.923L338.779 106.615L341.332 104.032L341.189 103.883Z" fill="black"/>
<path d="M310.522 106.884H307.736V104.127H310.522C310.522 105.052 310.522 105.965 310.522 106.884Z" fill="black"/>
<g opacity="0.2">
<path d="M354.571 88.7412H352.226L349.899 91.235L351.647 93.1442C352.184 92.5475 352.715 91.9509 353.24 91.4021H354.571C354.589 90.5191 354.583 89.6302 354.571 88.7412ZM346.558 94.8385C345.421 96.0317 344.265 97.2468 343.092 98.4838C343.697 99.1201 344.293 99.7545 344.882 100.387C346.051 99.1699 347.203 97.9568 348.336 96.7476C347.74 96.1152 347.155 95.4769 346.558 94.8385ZM315.768 104.116C315.768 105.034 315.768 105.953 315.768 106.866H316.215H320.988C320.988 105.959 320.988 105.04 321.024 104.122L315.768 104.116ZM328.738 104.038H327.897H326.166C326.166 104.957 326.131 105.864 326.113 106.771L331.214 106.711C331.243 105.81 331.267 104.921 331.285 103.99L328.738 104.038ZM341.189 103.883L339.691 102.302L339.542 102.147C338.946 102.744 338.349 103.34 337.782 103.937H337.007H336.327C336.327 104.844 336.273 105.727 336.243 106.645H336.923L338.779 106.615L341.332 104.032L341.189 103.883Z" fill="black"/>
<path d="M310.522 106.884H307.736V104.127H310.522C310.522 105.052 310.522 105.965 310.522 106.884Z" fill="black"/>
</g>
</g>
<g opacity="0.3">
<path d="M308.731 108.418L306.762 106.479L308.731 104.534L310.699 106.479L308.731 108.418Z" fill="black"/>
<path d="M363.976 107.182C363.976 107.147 363.976 107.111 363.976 107.075L363.022 105.93C362.944 105.834 362.867 105.733 362.783 105.637L362.497 105.953C361.429 107.147 360.331 108.34 359.221 109.533C359.71 110.13 360.188 110.673 360.659 111.239C361.763 110.046 362.855 108.853 363.911 107.66C363.932 107.641 363.95 107.619 363.964 107.594C363.988 107.475 363.982 107.326 363.976 107.182ZM314.732 110.464L312.764 112.373C314.1 113.673 315.425 114.958 316.737 116.227L318.706 114.36C317.393 113.079 316.069 111.78 314.732 110.464ZM355.54 113.405C354.283 114.698 352.999 115.98 351.686 117.253C352.187 117.802 352.677 118.351 353.16 118.894C354.448 117.629 355.719 116.358 356.972 115.081L355.54 113.405ZM323.419 118.924L322.578 118.106L320.615 119.938L322.208 121.459L326.509 121.382C326.551 120.552 326.593 119.711 326.635 118.864L323.419 118.924ZM336.276 118.613C334.904 118.661 333.514 118.703 332.1 118.739C332.046 119.58 331.992 120.415 331.933 121.238C333.321 121.203 334.697 121.159 336.061 121.107L337.29 121.065C337.362 120.242 337.427 119.413 337.493 118.578C337.105 118.613 336.693 118.631 336.276 118.637V118.613ZM342.791 118.381C342.719 119.216 342.642 120.039 342.558 120.851C344.282 120.779 345.989 120.696 347.665 120.606C347.755 119.795 347.844 118.977 347.928 118.154C346.239 118.261 344.527 118.327 342.791 118.405V118.381Z" fill="black"/>
<g opacity="0.3">
<path d="M308.731 108.418L306.762 106.479L308.731 104.534L310.699 106.479L308.731 108.418Z" fill="black"/>
<path d="M363.976 107.182C363.976 107.147 363.976 107.111 363.976 107.075L363.022 105.93C362.944 105.834 362.867 105.733 362.783 105.637L362.497 105.953C361.429 107.147 360.331 108.34 359.221 109.533C359.71 110.13 360.188 110.673 360.659 111.239C361.763 110.046 362.855 108.853 363.911 107.66C363.932 107.641 363.95 107.619 363.964 107.594C363.988 107.475 363.982 107.326 363.976 107.182ZM314.732 110.464L312.764 112.373C314.1 113.673 315.425 114.958 316.737 116.227L318.706 114.36C317.393 113.079 316.069 111.78 314.732 110.464ZM355.54 113.405C354.283 114.698 352.999 115.98 351.686 117.253C352.187 117.802 352.677 118.351 353.16 118.894C354.448 117.629 355.719 116.358 356.972 115.081L355.54 113.405ZM323.419 118.924L322.578 118.106L320.615 119.938L322.208 121.459L326.509 121.382C326.551 120.552 326.593 119.711 326.635 118.864L323.419 118.924ZM336.276 118.613C334.904 118.661 333.514 118.703 332.1 118.739C332.046 119.58 331.992 120.415 331.933 121.238C333.321 121.203 334.697 121.159 336.061 121.107L337.29 121.065C337.362 120.242 337.427 119.413 337.493 118.578C337.105 118.613 336.693 118.631 336.276 118.637V118.613ZM342.791 118.381C342.719 119.216 342.642 120.039 342.558 120.851C344.282 120.779 345.989 120.696 347.665 120.606C347.755 119.795 347.844 118.977 347.928 118.154C346.239 118.261 344.527 118.327 342.791 118.405V118.381Z" fill="black"/>
</g>
</g>
<path d="M334.78 141.517C334.649 142.084 334.506 142.621 334.363 143.146V143.259L334.22 143.778C334.041 144.411 333.862 145.013 333.671 145.568C333.635 145.652 333.611 145.735 333.581 145.819L333.474 146.129C333.444 146.23 333.402 146.332 333.366 146.433C333.32 146.579 333.266 146.722 333.205 146.863C332.955 147.525 332.698 148.128 332.43 148.653C332.322 148.879 332.209 149.094 332.096 149.303L332.042 149.381L331.577 149.488C328.575 150.166 325.508 150.506 322.431 150.502C320.275 150.504 318.123 150.338 315.993 150.007C314.65 149.8 313.318 149.526 312.002 149.184C312.002 148.981 312.002 148.772 312.044 148.551C312.085 148.331 312.08 147.99 312.097 147.692C312.115 147.394 312.133 147.096 312.151 146.761C312.169 146.427 312.187 146.105 312.199 145.759C312.199 145.586 312.199 145.413 312.199 145.234C312.241 144.303 312.282 143.295 312.324 142.215C312.372 140.581 314.376 139.071 316.799 139.035C321.685 138.952 326.523 138.803 331.26 138.582C332.142 138.509 333.023 138.718 333.778 139.179C334.181 139.402 334.498 139.753 334.679 140.176C334.861 140.6 334.896 141.072 334.78 141.517Z" fill="#68D2D2"/>
<g opacity="0.3">
<path d="M334.78 141.517C334.649 142.084 334.506 142.621 334.363 143.146V143.259L334.22 143.778C334.041 144.411 333.862 145.013 333.671 145.568C333.635 145.652 333.611 145.735 333.581 145.819L333.474 146.129C333.444 146.23 333.402 146.332 333.366 146.433C333.32 146.579 333.266 146.722 333.205 146.863C332.955 147.525 332.698 148.128 332.43 148.653C332.322 148.879 332.209 149.094 332.096 149.303L332.042 149.381L331.577 149.488C328.575 150.166 325.508 150.506 322.431 150.502C320.275 150.504 318.123 150.338 315.993 150.007C314.65 149.8 313.318 149.526 312.002 149.184C312.002 148.981 312.002 148.772 312.044 148.551C312.085 148.331 312.08 147.99 312.097 147.692C312.115 147.394 312.133 147.096 312.151 146.761C312.169 146.427 312.187 146.105 312.199 145.759C312.199 145.586 312.199 145.413 312.199 145.234C312.241 144.303 312.282 143.295 312.324 142.215C312.372 140.581 314.376 139.071 316.799 139.035C321.685 138.952 326.523 138.803 331.26 138.582C332.142 138.509 333.023 138.718 333.778 139.179C334.181 139.402 334.498 139.753 334.679 140.176C334.861 140.6 334.896 141.072 334.78 141.517Z" fill="black"/>
</g>
<path d="M335.043 140.402C334.959 140.783 334.87 141.159 334.78 141.523C334.649 142.09 334.506 142.627 334.363 143.152V143.265L334.22 143.784C334.041 144.417 333.862 145.019 333.671 145.574C333.605 145.765 333.545 145.95 333.474 146.135C333.402 146.32 333.402 146.338 333.366 146.439C333.32 146.585 333.266 146.728 333.205 146.869C332.955 147.531 332.698 148.134 332.43 148.659C332.227 149.01 331.932 149.299 331.577 149.494C328.575 150.172 325.508 150.512 322.431 150.508C320.275 150.51 318.123 150.344 315.993 150.013C314.65 149.806 313.318 149.531 312.002 149.19C312.002 148.987 312.002 148.778 312.044 148.557C312.085 148.336 312.08 147.996 312.097 147.698C312.115 147.4 312.133 147.101 312.151 146.767C312.169 146.433 312.187 146.111 312.199 145.765C312.199 145.592 312.199 145.419 312.199 145.24C312.241 144.309 312.282 143.301 312.324 142.221C312.324 141.851 312.336 141.475 312.36 141.094C312.408 139.393 314.43 137.83 316.876 137.794C321.798 137.711 326.684 137.562 331.463 137.341C332.352 137.268 333.241 137.477 334.005 137.938C334.422 138.18 334.749 138.551 334.936 138.996C335.124 139.44 335.161 139.934 335.043 140.402Z" fill="#68D2D2"/>
<g opacity="0.8">
<path d="M335.043 140.402C334.959 140.783 334.87 141.159 334.78 141.523C334.649 142.09 334.506 142.627 334.363 143.152V143.265L334.22 143.784C334.041 144.417 333.862 145.019 333.671 145.574C333.605 145.765 333.545 145.95 333.474 146.135C333.402 146.32 333.402 146.338 333.366 146.439C333.32 146.585 333.266 146.728 333.205 146.869C332.955 147.531 332.698 148.134 332.43 148.659C332.227 149.01 331.932 149.299 331.577 149.494C328.575 150.172 325.508 150.512 322.431 150.508C320.275 150.51 318.123 150.344 315.993 150.013C314.65 149.806 313.318 149.531 312.002 149.19C312.002 148.987 312.002 148.778 312.044 148.557C312.085 148.336 312.08 147.996 312.097 147.698C312.115 147.4 312.133 147.101 312.151 146.767C312.169 146.433 312.187 146.111 312.199 145.765C312.199 145.592 312.199 145.419 312.199 145.24C312.241 144.309 312.282 143.301 312.324 142.221C312.324 141.851 312.336 141.475 312.36 141.094C312.408 139.393 314.43 137.83 316.876 137.794C321.798 137.711 326.684 137.562 331.463 137.341C332.352 137.268 333.241 137.477 334.005 137.938C334.422 138.18 334.749 138.551 334.936 138.996C335.124 139.44 335.161 139.934 335.043 140.402Z" fill="white"/>
</g>
<path d="M322.77 147.245C323.009 146.159 323.241 144.924 323.456 143.558C323.522 143.285 323.509 143 323.418 142.734C323.327 142.469 323.162 142.235 322.943 142.06C322.331 141.662 321.599 141.487 320.873 141.565C320.096 141.542 319.33 141.75 318.671 142.162C318.418 142.336 318.206 142.564 318.052 142.83C317.898 143.097 317.806 143.394 317.782 143.701C317.647 145.069 317.504 146.296 317.353 147.382C317.306 147.595 317.332 147.817 317.426 148.014C317.52 148.211 317.677 148.371 317.872 148.468C318.467 148.733 319.121 148.84 319.769 148.778C320.002 148.778 320.223 148.778 320.425 148.736C320.628 148.695 320.825 148.683 321.022 148.647C321.149 148.78 321.317 148.868 321.499 148.897C321.803 148.961 322.114 148.983 322.424 148.963H322.657C322.728 148.718 322.8 148.462 322.866 148.193H322.71C322.603 148.2 322.496 148.2 322.388 148.193C322.358 148.189 322.33 148.177 322.305 148.159C322.28 148.142 322.259 148.119 322.245 148.092C322.511 147.877 322.696 147.578 322.77 147.245ZM321.607 143.534C321.41 144.96 321.201 146.242 320.98 147.364C320.965 147.465 320.926 147.56 320.866 147.643C320.805 147.725 320.726 147.791 320.634 147.835C320.418 147.937 320.181 147.988 319.942 147.985C319.721 148.006 319.498 147.967 319.298 147.871C319.222 147.825 319.165 147.754 319.134 147.671C319.104 147.587 319.103 147.496 319.131 147.412C319.322 146.296 319.501 145.025 319.668 143.588C319.675 143.47 319.709 143.355 319.767 143.251C319.825 143.148 319.905 143.059 320.002 142.991C320.223 142.857 320.477 142.789 320.736 142.794C320.976 142.768 321.218 142.825 321.422 142.955C321.502 143.026 321.561 143.117 321.593 143.219C321.626 143.321 321.631 143.43 321.607 143.534Z" fill="black"/>
<path d="M329.774 141.791C329.193 141.399 328.487 141.235 327.793 141.332C327.018 141.323 326.258 141.545 325.609 141.97C325.354 142.15 325.138 142.38 324.974 142.645C324.81 142.911 324.701 143.207 324.655 143.516C324.613 143.772 324.565 144.023 324.523 144.267L326.26 144.202C326.313 143.927 326.367 143.653 326.421 143.366C326.439 143.247 326.482 143.133 326.545 143.031C326.609 142.928 326.692 142.839 326.791 142.77C327.013 142.634 327.269 142.561 327.53 142.561C327.763 142.534 327.998 142.591 328.193 142.722C328.342 142.841 328.378 143.086 328.306 143.438C328.232 143.801 328.068 144.14 327.829 144.422C327.584 144.711 327.303 144.968 326.993 145.186C326.672 145.421 326.337 145.638 325.991 145.836C325.651 146.028 325.32 146.238 325.001 146.463C324.705 146.66 324.433 146.89 324.189 147.149C323.971 147.367 323.813 147.639 323.73 147.936C323.67 148.181 323.605 148.414 323.539 148.634C325.21 148.575 326.868 148.503 328.515 148.42C328.616 148.163 328.712 147.889 328.807 147.602C327.715 147.656 326.618 147.71 325.514 147.752C325.522 147.65 325.552 147.551 325.601 147.461C325.651 147.372 325.718 147.294 325.8 147.232C326.035 147.032 326.286 146.853 326.552 146.696C326.854 146.505 327.194 146.306 327.572 146.099C327.952 145.879 328.317 145.633 328.664 145.365C329.006 145.102 329.317 144.8 329.589 144.464C329.863 144.133 330.054 143.74 330.143 143.319C330.239 143.056 330.255 142.771 330.189 142.499C330.123 142.228 329.979 141.981 329.774 141.791Z" fill="black"/>
<path d="M307.731 104.128V106.884H306.347H302.815H300.125H297.392H295.781C291.11 106.854 286.498 106.801 281.994 106.729C281.636 106.729 281.278 106.729 280.926 106.729C280.979 105.822 281.057 104.939 281.17 104.026H281.886C289.797 104.128 298.042 104.176 306.347 104.187L307.731 104.128Z" fill="#263238"/>
<path d="M307.728 108.489C309.346 108.489 310.657 107.178 310.657 105.56C310.657 103.942 309.346 102.63 307.728 102.63C306.11 102.63 304.799 103.942 304.799 105.56C304.799 107.178 306.11 108.489 307.728 108.489Z" fill="#263238"/>
<path opacity="0.2" d="M364.066 108.979C364.057 119.114 360.339 128.896 353.614 136.479C346.889 144.062 337.622 148.922 327.56 150.143C317.499 151.364 307.338 148.861 298.995 143.107C290.651 137.352 284.702 128.744 282.269 118.905C279.835 109.065 281.086 98.6761 285.786 89.6959C290.485 80.7156 298.308 73.7652 307.779 70.1556C317.249 66.5459 327.714 66.5264 337.198 70.1008C346.682 73.6752 354.531 80.5964 359.264 89.5591C362.42 95.5455 364.068 102.211 364.066 108.979Z" fill="white"/>
<path opacity="0.2" d="M364.066 108.979C364.066 120.015 359.682 130.599 351.878 138.403C344.074 146.207 333.49 150.592 322.453 150.592L364.066 108.979Z" fill="white"/>
<path opacity="0.2" d="M281.998 118.733C280.298 111.644 280.488 104.233 282.55 97.2402C284.612 90.2477 288.473 83.9188 293.747 78.8858C299.02 73.8528 305.523 70.2921 312.604 68.5594C319.685 66.8267 327.097 66.9827 334.099 69.0119L281.998 118.733Z" fill="white"/>
<path opacity="0.2" d="M359.265 89.5591L301.92 145.175C298.464 143.208 295.308 140.757 292.547 137.896L352.046 79.7271C354.924 82.6307 357.357 85.9438 359.265 89.5591Z" fill="white"/>
<path d="M346.361 151.027L329.578 163.317H315.331L298.555 151.027H346.361Z" fill="#C9CCCD" stroke="#263238" stroke-linecap="round" stroke-linejoin="round"/>
<path d="M322.454 60.6177C311.779 60.6179 301.404 64.1496 292.946 70.6625C284.488 77.1754 278.422 86.3034 275.694 96.6239C272.966 106.944 273.729 117.878 277.864 127.719C281.999 137.561 289.273 145.758 298.554 151.033C304.992 154.692 312.184 156.825 319.576 157.265C326.968 157.706 334.362 156.444 341.189 153.575C348.016 150.707 354.094 146.309 358.953 140.721C363.812 135.133 367.323 128.504 369.215 121.345C371.108 114.186 371.331 106.687 369.868 99.4283C368.405 92.1691 365.294 85.3428 360.777 79.4756C356.259 73.6083 350.454 68.8568 343.81 65.5873C337.165 62.3178 329.859 60.6175 322.454 60.6177ZM322.454 150.592C314.223 150.592 306.178 148.151 299.335 143.579C292.492 139.006 287.158 132.507 284.008 124.903C280.859 117.299 280.035 108.932 281.64 100.86C283.246 92.7879 287.209 85.3732 293.029 79.5535C298.849 73.7338 306.263 69.7705 314.335 68.1649C322.408 66.5592 330.775 67.3833 338.378 70.5329C345.982 73.6825 352.481 79.0162 357.054 85.8594C361.626 92.7027 364.067 100.748 364.067 108.978C364.068 114.443 362.992 119.855 360.901 124.904C358.81 129.953 355.745 134.541 351.881 138.405C348.016 142.269 343.428 145.335 338.379 147.426C333.33 149.517 327.919 150.592 322.454 150.592Z" fill="#C9CCCD" stroke="#263238" stroke-linecap="round" stroke-linejoin="round"/>
<path d="M328.941 163.317H315.332V248.071H328.941V163.317Z" fill="#263238"/>
<path d="M313.312 73.1822C316.184 72.4898 319.128 72.1413 322.083 72.1441" stroke="#263238" stroke-miterlimit="10"/>
<path d="M284.922 109.301C284.921 102.158 286.978 95.1667 290.848 89.1632C294.717 83.1597 300.235 78.3984 306.74 75.4492" stroke="#263238" stroke-miterlimit="10"/>
<path d="M336.175 221.844C329.809 204.292 329.839 201.446 329.469 190.821C329.349 187.504 329.415 184.145 328.628 180.917C327.84 177.689 325.865 173.466 322.578 172.976C320.162 172.612 317.775 174.17 316.487 176.252C315.198 178.334 314.804 180.828 314.572 183.262C313.808 191.033 314.404 198.879 316.332 206.446C313.987 211.845 314.882 215.884 313.408 224.111V258.714H334.606C334.606 258.714 340.285 233.251 336.175 221.844Z" fill="white"/>
<path d="M335.616 258.673C335.616 258.673 340.288 233.251 336.147 221.844C329.782 204.292 329.811 201.446 329.441 190.821C329.322 187.504 329.388 184.145 328.6 180.917C327.813 177.689 325.838 173.466 322.551 172.976C320.134 172.612 317.748 174.17 316.459 176.252C315.171 178.334 314.777 180.828 314.544 183.262C313.781 191.033 314.376 198.879 316.304 206.446C313.96 211.845 314.854 215.884 313.381 224.111" stroke="#263238" stroke-linecap="round" stroke-linejoin="round"/>
<path d="M331.105 184.55C331.349 185.532 331.329 186.561 331.049 187.533C330.768 188.505 330.236 189.386 329.506 190.087" fill="white"/>
<path d="M331.105 184.55C331.349 185.532 331.329 186.561 331.049 187.533C330.768 188.505 330.236 189.386 329.506 190.087" stroke="#263238" stroke-linecap="round" stroke-linejoin="round"/>
<path d="M325.358 176.49C325.582 178.177 325.582 179.886 325.358 181.573C322.769 182.455 319.978 182.552 317.334 181.854C316.888 180.353 316.831 178.765 317.167 177.236" fill="white"/>
<path d="M325.358 176.49C325.582 178.177 325.582 179.886 325.358 181.573C322.769 182.455 319.978 182.552 317.334 181.854C316.888 180.353 316.831 178.765 317.167 177.236" stroke="#263238" stroke-linecap="round" stroke-linejoin="round"/>
<path d="M317.896 212.74C318.147 213.736 318.302 214.351 318.493 215.066L317.896 212.74Z" fill="white"/>
<path d="M317.896 212.74C318.147 213.736 318.302 214.351 318.493 215.066" stroke="#263238" stroke-linecap="round" stroke-linejoin="round"/>
<path d="M315.891 204.835C316.088 205.64 316.905 208.868 317.621 211.738L315.891 204.835Z" fill="white"/>
<path d="M315.891 204.835C316.088 205.64 316.905 208.868 317.621 211.738" stroke="#263238" stroke-linecap="round" stroke-linejoin="round"/>
<path d="M330.031 212.621C330.031 213.879 330.097 215.007 330.18 215.991L330.031 212.621Z" fill="white"/>
<path d="M330.031 212.621C330.031 213.879 330.097 215.007 330.18 215.991" stroke="#263238" stroke-linecap="round" stroke-linejoin="round"/>
<path d="M329.732 196.816C330.084 201.201 329.935 205.992 329.995 210.604L329.732 196.816Z" fill="white"/>
<path d="M329.732 196.816C330.084 201.201 329.935 205.992 329.995 210.604" stroke="#263238" stroke-linecap="round" stroke-linejoin="round"/>
<path d="M336.635 201.017C334.995 203.192 333.234 205.273 331.361 207.251L336.635 201.017Z" fill="white"/>
<path d="M336.635 201.017C334.995 203.192 333.234 205.273 331.361 207.251" stroke="#263238" stroke-linecap="round" stroke-linejoin="round"/>
<path d="M333.592 214.171C334.692 213.398 335.637 212.424 336.378 211.302L333.592 214.171Z" fill="white"/>
<path d="M333.592 214.171C334.692 213.398 335.637 212.424 336.378 211.302" stroke="#263238" stroke-linecap="round" stroke-linejoin="round"/>
<path d="M296.233 211.505C297.295 215.681 294.867 220.078 295.344 224.386" stroke="#263238" stroke-linecap="round" stroke-linejoin="round"/>
<path d="M295.01 201.852C295.266 204.327 295.457 206.219 295.714 208.695" stroke="#263238" stroke-linecap="round" stroke-linejoin="round"/>
<path d="M304.555 249.908C305.02 250.612 305.485 251.298 305.957 251.961" stroke="#263238" stroke-linecap="round" stroke-linejoin="round"/>
<path d="M295.811 229.295C295.954 234.104 299.223 241.305 303.173 247.713" stroke="#263238" stroke-linecap="round" stroke-linejoin="round"/>
<path d="M318.229 185.356L324.869 184.849" stroke="#263238" stroke-linecap="round" stroke-linejoin="round"/>
<path d="M315.957 188.935C314.126 189.884 323.176 186.74 323.582 186.704" stroke="#263238" stroke-linecap="round" stroke-linejoin="round"/>
<path d="M317.68 191.376C317.012 191.728 324.207 190.093 325.711 190.504" stroke="#263238" stroke-linecap="round" stroke-linejoin="round"/>
<path d="M317.467 196.774C320.408 197.065 323.369 196.475 325.974 195.08" stroke="#263238" stroke-linecap="round" stroke-linejoin="round"/>
<path d="M314.102 171.556C315.02 173.179 316.267 174.301 316.303 176.162" stroke="#263238" stroke-linecap="round" stroke-linejoin="round"/>
<path d="M310.473 181.49C311.731 182.488 312.916 183.577 314.016 184.747" stroke="#263238" stroke-linecap="round" stroke-linejoin="round"/>
<path d="M329.732 196.083C330.421 195.76 331.176 195.606 331.936 195.634C332.695 195.662 333.437 195.871 334.1 196.244" fill="white"/>
<path d="M329.732 196.083C330.421 195.76 331.176 195.606 331.936 195.634C332.695 195.662 333.437 195.871 334.1 196.244" stroke="#263238" stroke-linecap="round" stroke-linejoin="round"/>
<path d="M308.463 196.816C310.253 197.413 312.4 198.791 314.942 199.68" stroke="#263238" stroke-linecap="round" stroke-linejoin="round"/>
<path d="M314.586 204.662L310.457 207.818" stroke="#263238" stroke-linecap="round" stroke-linejoin="round"/>
<path d="M322.848 297.309C326.682 289.641 329.654 281.571 331.707 273.248L322.848 297.309Z" fill="white"/>
<path d="M322.848 297.309C326.682 289.641 329.654 281.571 331.707 273.248" stroke="#263238" stroke-linecap="round" stroke-linejoin="round"/>
<mask id="mask1_1519_1132" style="mask-type:luminance" maskUnits="userSpaceOnUse" x="282" y="167" width="56" height="134">
<path d="M326.276 296.42C327.779 292.106 329.116 288.019 330.16 284.458C331.044 281.585 331.503 278.598 331.52 275.592C331.523 274.817 331.583 274.043 331.699 273.277V273.236C331.83 272.292 332.052 271.363 332.361 270.461C333.34 267.627 334.181 264.465 334.867 261.626C336.83 253.482 337.647 251.74 337.653 228.293L336.645 219.583L336.52 201.905C336.52 201.905 337.785 198.499 337.653 197.33C337.242 193.75 331.091 184.503 331.091 184.503L329.957 174.808C329.932 174.594 329.859 174.388 329.744 174.206C329.628 174.024 329.472 173.871 329.289 173.758L320.847 168.549C319.772 167.885 318.57 167.454 317.317 167.284C316.065 167.115 314.791 167.21 313.579 167.564C312.366 167.919 311.241 168.524 310.277 169.342C309.313 170.159 308.532 171.169 307.984 172.308L299.524 189.848L298.689 190.54C297.7 191.369 296.889 192.391 296.305 193.542C295.722 194.694 295.378 195.952 295.294 197.24C294.608 207.979 293.087 203.874 293.755 226.694C294.185 241.335 296.44 256.322 298.242 266.231C298.783 269.23 298.286 272.323 296.834 275.001L282.873 300.763" fill="white"/>
</mask>
<g mask="url(#mask1_1519_1132)">
<path d="M333.489 266.583C332.576 269.489 330.16 278.921 329.838 279.362C329.925 275.369 330.254 271.384 330.822 267.43C331.155 265.039 331.79 262.699 332.714 260.468C333.937 257.485 335.935 252.456 337.809 246.859C337.809 246.853 336.305 257.64 333.489 266.583Z" fill="#263238"/>
</g>
<path d="M326.278 296.42C327.781 292.106 329.118 288.019 330.162 284.458C331.046 281.585 331.504 278.598 331.522 275.592C331.525 274.817 331.585 274.043 331.701 273.277V273.236C331.832 272.292 332.054 271.363 332.363 270.461C333.342 267.627 334.183 264.465 334.869 261.626C336.832 253.482 337.649 251.74 337.655 228.293L336.647 219.583L336.522 201.905C336.522 201.905 337.786 198.499 337.655 197.33C337.244 193.75 331.093 184.503 331.093 184.503L329.959 174.808C329.934 174.594 329.861 174.388 329.746 174.206C329.63 174.024 329.474 173.871 329.291 173.758L320.849 168.549C319.774 167.885 318.572 167.454 317.319 167.284C316.067 167.115 314.793 167.21 313.581 167.564C312.368 167.919 311.243 168.524 310.279 169.342C309.315 170.159 308.534 171.169 307.986 172.308L299.526 189.848L298.691 190.54C297.701 191.369 296.89 192.391 296.307 193.542C295.724 194.694 295.38 195.952 295.296 197.24C294.61 207.979 293.089 203.874 293.757 226.694C294.187 241.335 296.442 256.322 298.244 266.231C298.784 269.23 298.288 272.323 296.836 275.001L282.875 300.763" stroke="#263238" stroke-linecap="round" stroke-linejoin="round"/>
</svg>
