<svg width="50" height="40" viewBox="0 0 50 40" fill="none" xmlns="http://www.w3.org/2000/svg">
<path d="M35.013 14.8026H26.3516C27.139 13.0179 28.1364 10.2882 28.1364 7.34858C28.1364 4.56644 26.6141 2.36173 23.8844 1.10189C22.8346 0.629449 21.6272 0.629449 20.6298 1.10189C19.58 1.57433 18.8451 2.51921 18.5826 3.62156L18.0577 5.6688C17.1128 9.34333 15.1181 12.4929 12.4409 14.6451C11.916 15.0651 11.391 15.38 10.8661 15.695C10.4462 15.1701 9.76374 14.8551 9.02884 14.8551H2.41469C1.10236 14.8551 0 15.9575 0 17.2698V36.9023C0 38.2146 1.10236 39.317 2.41469 39.317H8.97634C9.81624 39.317 10.4986 38.897 10.9711 38.2671C14.9606 39.422 18.6876 39.9994 22.6771 39.9994H32.2833C34.593 39.9994 36.4828 38.1096 36.4828 35.7999C36.4828 35.065 36.2728 34.3301 35.9054 33.7002C37.0602 32.9653 37.8476 31.653 37.8476 30.1831C37.8476 29.4482 37.6377 28.7133 37.2702 28.0834C38.425 27.3485 39.2124 26.0362 39.2124 24.5664C39.2124 23.464 38.7925 22.5191 38.1101 21.7842C38.7925 21.0493 39.2124 20.0519 39.2124 19.0021C39.2124 16.6924 37.3227 14.8026 35.013 14.8026ZM5.72176 35.9049C4.72439 35.9049 3.93699 35.1175 3.93699 34.1201C3.93699 33.1228 4.72439 32.3354 5.72176 32.3354C6.71913 32.3354 7.50653 33.1228 7.50653 34.1201C7.50653 35.1175 6.71913 35.9049 5.72176 35.9049ZM32.3883 23.149H35.013C35.8004 23.149 36.4303 23.779 36.4303 24.5664C36.4303 25.3538 35.8004 25.9837 35.013 25.9837H31.8634C31.076 25.9837 30.4986 26.6136 30.4986 27.3485C30.4986 28.1359 31.1285 28.7133 31.8634 28.7133H33.6482C34.4356 28.7133 35.0655 29.3433 35.0655 30.1307C35.0655 30.9181 34.4356 31.548 33.6482 31.548H30.866C30.1311 31.548 29.5012 32.1779 29.5012 32.9128C29.5012 33.7002 30.1311 34.2776 30.866 34.2776H32.2833C33.0707 34.2776 33.7007 34.9075 33.7007 35.6949C33.7007 36.4823 33.0707 37.1123 32.2833 37.1123H22.6771C18.8451 37.1123 15.328 36.5348 11.4435 35.38V18.5296C12.3359 18.0572 13.2808 17.5323 14.1207 16.7974C17.2703 14.2777 19.6325 10.6032 20.6823 6.35121L21.2073 4.30398C21.3123 3.88403 21.6272 3.67406 21.7847 3.62156C21.9422 3.51658 22.3096 3.41159 22.7296 3.62156C24.5143 4.46146 25.3542 5.6688 25.3542 7.34858C25.3542 11.548 22.9395 15.38 22.8871 15.4325C22.6246 15.8525 22.6246 16.3774 22.8346 16.8499C23.097 17.2698 23.517 17.5848 24.0419 17.5848H35.013C35.8004 17.5848 36.4303 18.2147 36.4303 19.0021C36.4303 19.7895 35.8004 20.4194 35.013 20.4194H32.3883C31.6009 20.4194 31.0235 21.0493 31.0235 21.7842C31.0235 22.5191 31.6534 23.149 32.3883 23.149Z" fill="#9747FF"/>
<path d="M48.5043 14.8027H43.5699C42.835 14.8027 42.2051 15.4327 42.2051 16.1676C42.2051 16.9025 42.835 17.5324 43.5699 17.5324H48.5043C49.2392 17.5324 49.8691 16.9025 49.8691 16.1676C49.8691 15.3802 49.2392 14.8027 48.5043 14.8027Z" fill="#9747FF"/>
<path d="M45.1443 4.72427C44.6193 4.19933 43.7269 4.19933 43.202 4.72427L39.7374 8.18882C39.2125 8.71375 39.2125 9.60614 39.7374 10.1311C39.9999 10.3935 40.3674 10.551 40.6823 10.551C41.0498 10.551 41.3647 10.3935 41.6272 10.1311L45.0918 6.66652C45.7217 6.14158 45.7217 5.30169 45.1443 4.72427Z" fill="#9747FF"/>
<path d="M33.8073 7.66401C34.5422 7.66401 35.1722 7.03409 35.1722 6.29919V1.36482C35.1722 0.629919 34.5422 0 33.8073 0C33.0724 0 32.4425 0.629919 32.4425 1.36482V6.29919C32.39 7.08659 33.0199 7.66401 33.8073 7.66401Z" fill="#9747FF"/>
</svg>
