<svg width="62" height="40" viewBox="0 0 62 40" fill="none" xmlns="http://www.w3.org/2000/svg">
<path d="M38.426 12.3348C38.1663 12.3347 37.9139 12.2489 37.7079 12.0907C34.9445 9.96878 29.7953 9.42319 27.7117 9.28679C26.7941 9.2268 25.8739 9.35217 25.0058 9.65543C18.8199 11.8039 16.0049 10.2187 15.7012 10.0307L16.9546 8.0297L16.9295 8.01496C16.9509 8.02675 19.1414 9.19463 24.2287 7.42512C25.3957 7.01754 26.6331 6.85002 27.8665 6.93261C30.722 7.11915 35.9848 7.79451 39.1471 10.2224C39.3415 10.373 39.484 10.5806 39.5547 10.8161C39.6254 11.0517 39.6207 11.3034 39.5412 11.5362C39.4618 11.7689 39.3116 11.971 39.1116 12.1142C38.9117 12.2574 38.672 12.3345 38.426 12.3348Z" fill="#FFA629"/>
<path d="M15.4696 29.7734C14.1056 29.7734 13.1044 29.345 12.488 28.4957C11.2707 26.8183 12.3221 24.3602 12.4459 24.0852C12.5272 23.9049 12.6524 23.748 12.8102 23.6288C12.8485 23.6001 16.6662 20.7187 20.6513 18.0106C23.0106 16.4092 24.9667 15.1765 26.4759 14.347C28.9444 12.9882 30.1852 12.6852 31.0545 13.2293C31.361 13.4272 31.7052 13.5595 32.0653 13.6178C33.4267 13.8253 34.669 14.5125 35.5682 15.5555C36.2074 16.2927 37.0428 16.7668 38.0595 16.9725C38.9575 17.1539 39.4751 17.0957 39.7516 17.0146C39.7869 17.0039 39.8193 16.9854 39.8465 16.9605C39.8736 16.9356 39.8949 16.905 39.9086 16.8708C39.9262 16.8309 39.9346 16.7877 39.9332 16.7441C39.9318 16.7006 39.9206 16.658 39.9005 16.6194L37.379 11.6965C37.3052 11.5583 37.2596 11.4068 37.245 11.2508C37.2304 11.0949 37.2469 10.9375 37.2937 10.788C37.3406 10.6386 37.4167 10.4999 37.5177 10.3801C37.6187 10.2604 37.7425 10.1619 37.8819 10.0905C38.0214 10.0192 38.1736 9.97626 38.3298 9.96435C38.486 9.95244 38.643 9.97177 38.7917 10.0212C38.9403 10.0706 39.0777 10.1492 39.1956 10.2522C39.3136 10.3553 39.4099 10.4808 39.4788 10.6215L41.9996 15.5444C42.1779 15.892 42.277 16.2748 42.2897 16.6653C42.3025 17.0558 42.2286 17.4442 42.0733 17.8027C41.9225 18.1558 41.6954 18.4711 41.4084 18.726C41.1213 18.981 40.7814 19.1692 40.413 19.2773C39.6388 19.5037 38.6884 19.5059 37.5884 19.2832C36.074 18.9765 34.7594 18.2222 33.7854 17.1023C33.2564 16.4847 32.5244 16.0763 31.721 15.9506C31.1137 15.8578 30.529 15.6523 29.9972 15.3446C29.5268 15.4264 27.6792 16.0472 21.4173 20.3434C18.2875 22.4904 15.3671 24.6603 14.4956 25.3128C14.2811 25.9247 14.1484 26.7667 14.399 27.1096C14.5701 27.3433 15.0832 27.4487 15.7925 27.4045L23.5754 22.7942C23.8444 22.6381 24.1642 22.5945 24.4651 22.673C24.7661 22.7515 25.0239 22.9456 25.1824 23.2132C25.341 23.4808 25.3874 23.8002 25.3117 24.1018C25.2359 24.4035 25.0441 24.663 24.7779 24.824L16.7643 29.5684C16.6195 29.6541 16.4581 29.7078 16.2909 29.7262C16.0182 29.7566 15.744 29.7724 15.4696 29.7734Z" fill="#FFA629"/>
<path d="M19.0347 33.5595C17.5911 33.5595 16.4896 33.1289 15.7508 32.2729C14.4038 30.7135 14.9575 28.4913 15.0253 28.2428L17.3013 28.8629V28.8563C17.218 29.1777 17.0802 30.2144 17.538 30.7356C17.9443 31.2001 18.8113 31.2414 19.5412 31.178L26.0678 27.5653C26.3415 27.4136 26.6643 27.3769 26.9651 27.4633C27.2659 27.5496 27.5201 27.7519 27.6717 28.0257C27.8234 28.2995 27.8601 28.6223 27.7737 28.9231C27.6874 29.2239 27.4851 29.478 27.2113 29.6297L20.4747 33.3611C20.3415 33.4349 20.1953 33.4822 20.0441 33.5005C19.7091 33.5399 19.372 33.5596 19.0347 33.5595Z" fill="#FFA629"/>
<path d="M22.8527 37.1488H22.8298C21.0161 37.1142 19.7384 36.5531 19.0342 35.4826C18.0175 33.9343 18.7268 32.0851 18.8131 31.8794L20.9969 32.7708L21.0006 32.762C20.9107 32.9942 20.719 33.7551 21.0109 34.1908C21.2321 34.5211 21.7888 34.7261 22.5939 34.7807L28.4613 31.785C28.7397 31.6453 29.062 31.6213 29.358 31.7184C29.654 31.8154 29.8995 32.0255 30.0412 32.3029C30.1828 32.5804 30.209 32.9025 30.114 33.1992C30.019 33.4958 29.8105 33.7428 29.534 33.8863L23.3894 37.0198C23.2232 37.1047 23.0393 37.1489 22.8527 37.1488Z" fill="#FFA629"/>
<path d="M49.7983 26.5654C49.5806 26.5653 49.3671 26.505 49.1816 26.3911C48.996 26.2772 48.8456 26.1141 48.747 25.92C48.6484 25.7259 48.6054 25.5083 48.6228 25.2913C48.6403 25.0743 48.7174 24.8663 48.8457 24.6904L51.2051 21.4574L44.1057 9.64817C42.9135 10.572 40.7672 11.6389 37.2488 11.5732C37.0939 11.5702 36.9411 11.5368 36.7991 11.4747C36.6572 11.4126 36.5288 11.3232 36.4214 11.2116C36.314 11.0999 36.2296 10.9682 36.1731 10.8239C36.1166 10.6796 36.089 10.5256 36.092 10.3707C36.095 10.2158 36.1285 10.063 36.1906 9.92102C36.2526 9.77904 36.342 9.65068 36.4537 9.54326C36.5654 9.43584 36.6971 9.35147 36.8414 9.29496C36.9856 9.23845 37.1396 9.2109 37.2945 9.21391C41.7441 9.30017 43.2143 7.29694 43.3345 7.12515C43.435 6.94963 43.5802 6.8038 43.7552 6.70242C43.9303 6.60104 44.129 6.54772 44.3313 6.54785C44.5378 6.54845 44.7405 6.60324 44.9192 6.70675C45.0978 6.81026 45.2462 6.95886 45.3495 7.13769L53.6263 20.9111C53.7457 21.1097 53.8039 21.3392 53.7937 21.5708C53.7835 21.8023 53.7053 22.0257 53.5688 22.2131L50.7531 26.0788C50.6437 26.2295 50.5001 26.3522 50.3341 26.4367C50.1682 26.5213 49.9846 26.5654 49.7983 26.5654Z" fill="#FFA629"/>
<path d="M26.3644 39.9999C23.1439 39.9999 21.8064 36.5346 21.7489 36.3835C21.639 36.0901 21.6501 35.7652 21.7798 35.4801C21.9095 35.195 22.1472 34.9731 22.4405 34.8632C22.7338 34.7533 23.0588 34.7644 23.3439 34.8941C23.629 35.0238 23.8509 35.2614 23.9608 35.5547C23.9674 35.5717 24.8389 37.7666 26.5479 37.6332C26.9055 37.6044 27.224 37.5816 27.5145 37.5594C29.3231 37.4334 29.9306 37.3906 32.8061 36.2972C33.0977 36.1899 33.4198 36.2019 33.7026 36.3307C33.9853 36.4595 34.2058 36.6947 34.3162 36.9851C34.4266 37.2755 34.418 37.5978 34.2922 37.8819C34.1664 38.166 33.9336 38.389 33.6444 38.5024C30.4475 39.7175 29.5804 39.7794 27.679 39.9136C27.3951 39.9335 27.0847 39.9549 26.7352 39.9837C26.6084 39.9947 26.4845 39.9999 26.3644 39.9999Z" fill="#FFA629"/>
<path d="M13.4272 25.9621C13.2249 25.9621 13.026 25.9098 12.8499 25.8102C12.4724 25.5978 9.12582 23.672 7.94246 21.4388C7.84576 21.2567 7.79848 21.0524 7.80534 20.8463C7.8122 20.6402 7.87295 20.4395 7.98154 20.2643L15.3183 8.42186C15.48 8.15397 15.7414 7.96125 16.0451 7.8861C16.3488 7.81095 16.6699 7.85953 16.9378 8.02114C17.2057 8.18276 17.3984 8.44418 17.4736 8.74788C17.5487 9.05159 17.5001 9.37272 17.3385 9.64061L17.3312 9.65314C17.3312 9.65757 17.326 9.66125 17.3238 9.66494L10.3829 20.8718C11.3547 22.1009 13.3085 23.3646 14.0067 23.7583C14.2339 23.8863 14.4123 24.086 14.514 24.3262C14.6157 24.5663 14.6349 24.8334 14.5687 25.0856C14.5025 25.3379 14.3545 25.5611 14.148 25.7203C13.9415 25.8795 13.688 25.9659 13.4272 25.9658V25.9621Z" fill="#FFA629"/>
<path d="M39.6769 36.772C39.0848 36.7758 38.5001 36.641 37.9693 36.3786C37.4386 36.1162 36.9766 35.7333 36.6201 35.2606L34.1391 31.9199C33.8489 31.5329 33.6405 31.0909 33.5264 30.6208C33.4124 30.1507 33.395 29.6623 33.4755 29.1853C33.5562 28.7003 33.7345 28.2368 33.9998 27.8228C34.2651 27.4089 34.6117 27.0532 35.0187 26.7773C36.6938 25.6242 39.0347 26.0031 40.2372 27.6215L42.7182 30.9622C43.0084 31.3492 43.2168 31.7912 43.3309 32.2613C43.4449 32.7314 43.4623 33.2198 43.3818 33.6968C43.3011 34.1818 43.1228 34.6453 42.8575 35.0593C42.5922 35.4732 42.2456 35.8289 41.8386 36.1048C41.2024 36.5413 40.4485 36.774 39.6769 36.772ZM37.1885 28.462C36.8903 28.4615 36.5989 28.5518 36.3532 28.7208C36.2081 28.8177 36.0843 28.9431 35.9893 29.0894C35.8942 29.2357 35.8299 29.3997 35.8002 29.5716C35.773 29.7361 35.7796 29.9044 35.8195 30.0663C35.8594 30.2282 35.9319 30.3802 36.0325 30.5132L38.5142 33.8538C38.9684 34.465 39.8597 34.6029 40.5049 34.1613C40.6498 34.0642 40.7735 33.9388 40.8686 33.7925C40.9636 33.6463 41.028 33.4823 41.0578 33.3104C41.0847 33.1459 41.078 32.9776 41.0379 32.8158C40.9979 32.654 40.9254 32.5019 40.8249 32.3689L38.3439 29.0282C38.2089 28.8502 38.0341 28.7062 37.8335 28.6079C37.6328 28.5096 37.412 28.4596 37.1885 28.462Z" fill="#FFA629"/>
<path d="M35.4756 39.6638C34.8836 39.6676 34.2988 39.5328 33.7681 39.2704C33.2373 39.008 32.7753 38.6251 32.4188 38.1524L31.0961 36.3711C30.806 35.984 30.5975 35.542 30.4835 35.0719C30.3694 34.6018 30.3521 34.1135 30.4326 33.6365C30.5132 33.1515 30.6916 32.6879 30.9569 32.274C31.2221 31.8601 31.5688 31.5043 31.9757 31.2285C33.6508 30.0753 35.9917 30.4543 37.1943 32.0727L38.517 33.854C38.8073 34.2409 39.0159 34.6829 39.1299 35.153C39.244 35.6232 39.2612 36.1116 39.1805 36.5886C39.1001 37.0735 38.9218 37.5371 38.6567 37.951C38.3915 38.365 38.045 38.7207 37.6381 38.9966C37.0016 39.4331 36.2474 39.6658 35.4756 39.6638ZM34.1485 32.9132C33.8503 32.9127 33.5589 33.003 33.3132 33.172C33.1681 33.2689 33.0443 33.3943 32.9492 33.5406C32.8542 33.6868 32.7899 33.8509 32.7602 34.0228C32.733 34.1873 32.7395 34.3556 32.7795 34.5175C32.8194 34.6793 32.8919 34.8314 32.9924 34.9643L34.3159 36.7456C34.77 37.3568 35.6607 37.4947 36.3021 37.0531C36.4472 36.9561 36.571 36.8307 36.6662 36.6844C36.7614 36.5382 36.8259 36.3741 36.8559 36.2022C36.8827 36.0377 36.876 35.8694 36.8359 35.7076C36.7959 35.5458 36.7234 35.3937 36.6229 35.2607L35.3002 33.4794C35.1653 33.3015 34.9906 33.1576 34.7901 33.0592C34.5896 32.9609 34.3689 32.9109 34.1456 32.9132H34.1485Z" fill="#FFA629"/>
<path d="M43.8806 33.8802C43.2885 33.8838 42.7038 33.749 42.1731 33.4866C41.6424 33.2242 41.1803 32.8414 40.8238 32.3687L36.7163 26.839C36.4442 26.4769 36.2486 26.0633 36.1415 25.6232C36.0344 25.1831 36.018 24.7258 36.0933 24.2792C36.1689 23.8262 36.3357 23.3934 36.5836 23.0068C36.8315 22.6203 37.1553 22.2881 37.5354 22.0304L37.7382 21.8911C39.4126 20.7379 41.7542 21.1169 42.956 22.7353L46.919 28.0703C47.2091 28.4574 47.4176 28.8994 47.5316 29.3695C47.6457 29.8396 47.663 30.3279 47.5825 30.8049C47.5021 31.29 47.3238 31.7536 47.0585 32.1676C46.7932 32.5816 46.4465 32.9372 46.0394 33.2129C45.4041 33.6491 44.6512 33.8819 43.8806 33.8802ZM39.9103 23.5758C39.6123 23.5761 39.3214 23.6672 39.0764 23.8368L38.8736 23.9761C38.7553 24.0552 38.6543 24.1575 38.5766 24.2767C38.4989 24.396 38.4462 24.5297 38.4217 24.6699C38.4 24.8036 38.4056 24.9402 38.4381 25.0716C38.4707 25.203 38.5296 25.3265 38.6112 25.4345L42.7186 30.9642C43.1728 31.5754 44.0642 31.7133 44.7093 31.2716C44.8544 31.1748 44.9782 31.0494 45.0733 30.9031C45.1683 30.7568 45.2326 30.5927 45.2623 30.4208C45.2895 30.2563 45.2829 30.088 45.243 29.9262C45.2031 29.7643 45.1306 29.6122 45.03 29.4793L41.0671 24.1442C40.9322 23.9656 40.7573 23.821 40.5563 23.7223C40.3554 23.6236 40.1341 23.5734 39.9103 23.5758Z" fill="#FFA629"/>
<path d="M48.0798 30.9885C47.4878 30.992 46.9032 30.8571 46.3725 30.5945C45.8419 30.332 45.38 29.949 45.0237 29.4763L41.7877 25.1211C41.4974 24.7341 41.2888 24.2921 41.1748 23.822C41.0607 23.3519 41.0435 22.8635 41.1242 22.3865C41.2047 21.9015 41.3829 21.438 41.648 21.024C41.9132 20.6101 42.2597 20.2544 42.6666 19.9785C44.3417 18.8253 46.6826 19.2043 47.8852 20.8227L51.1211 25.1786C51.4112 25.5657 51.6195 26.0077 51.7336 26.4778C51.8477 26.9479 51.865 27.4362 51.7847 27.9132C51.7046 28.3989 51.5264 28.8631 51.2611 29.2777C50.9958 29.6924 50.6489 30.0486 50.2415 30.3249C49.605 30.7603 48.851 30.9918 48.0798 30.9885ZM44.8357 21.6624C44.5381 21.6618 44.2473 21.7516 44.0018 21.9198C43.8569 22.0168 43.7332 22.1423 43.6381 22.2885C43.5431 22.4347 43.4787 22.5987 43.4489 22.7706C43.422 22.9351 43.4288 23.1034 43.4688 23.2652C43.5088 23.4271 43.5813 23.5791 43.6818 23.7121L46.9171 28.068C47.3713 28.6793 48.2626 28.8171 48.9078 28.3762C49.0529 28.2794 49.1768 28.1541 49.2719 28.0078C49.367 27.8615 49.4312 27.6974 49.4607 27.5254C49.488 27.3609 49.4814 27.1926 49.4415 27.0307C49.4015 26.8689 49.3291 26.7168 49.2285 26.5839L45.9888 22.2294C45.8543 22.0518 45.6801 21.9081 45.4801 21.8098C45.2802 21.7115 45.06 21.6613 44.8372 21.6632L44.8357 21.6624Z" fill="#FFA629"/>
<path d="M5.14349 26.4537C4.58949 26.4531 4.04539 26.3069 3.56568 26.0298L1.58089 24.8892C1.2141 24.6779 0.893551 24.395 0.638321 24.0573C0.38309 23.7197 0.19839 23.3341 0.0952088 22.9236C-0.00797221 22.513 -0.027526 22.0859 0.0377107 21.6677C0.102948 21.2495 0.251643 20.8486 0.474948 20.489L12.251 1.49711C12.6801 0.798803 13.3651 0.2958 14.1599 0.0953903C14.9546 -0.105019 15.7962 0.0130267 16.5052 0.424352L18.49 1.57084C18.8571 1.78181 19.178 2.06449 19.4336 2.40203C19.6892 2.73958 19.8742 3.1251 19.9778 3.53565C20.0813 3.9462 20.1012 4.37338 20.0362 4.79176C19.9712 5.21015 19.8227 5.61119 19.5996 5.97101L7.8206 24.957C7.5392 25.4143 7.14545 25.7918 6.67684 26.0538C6.20823 26.3158 5.68036 26.4535 5.14349 26.4537ZM14.9318 2.36564C14.7963 2.3657 14.663 2.40042 14.5447 2.46649C14.4263 2.53256 14.3269 2.62779 14.2557 2.74314L2.4767 21.7329C2.42026 21.8236 2.38269 21.9248 2.36624 22.0305C2.34979 22.1361 2.35478 22.2439 2.38093 22.3476C2.40708 22.4512 2.45385 22.5485 2.51844 22.6337C2.58303 22.7188 2.66412 22.7901 2.75687 22.8432L4.74166 23.9846C4.92066 24.0882 5.13305 24.1178 5.33357 24.0671C5.5341 24.0165 5.70691 23.8895 5.81516 23.7132L17.5949 4.72424C17.6511 4.63336 17.6886 4.53209 17.7049 4.42647C17.7213 4.32084 17.7162 4.21301 17.6901 4.10937C17.664 4.00573 17.6173 3.9084 17.5528 3.82315C17.4883 3.73791 17.4073 3.66649 17.3147 3.61314L15.3329 2.47255C15.2109 2.40221 15.0726 2.36533 14.9318 2.36564Z" fill="#FFA629"/>
<path d="M56.2025 26.8115C55.6577 26.8115 55.1223 26.6697 54.6488 26.4002C54.1753 26.1307 53.78 25.7427 53.5018 25.2743L42.0339 6.15552C41.8162 5.79267 41.6737 5.38975 41.6147 4.97071C41.5558 4.55168 41.5817 4.12507 41.691 3.71625C41.8002 3.30743 41.9905 2.92474 42.2505 2.59092C42.5106 2.2571 42.8351 1.97896 43.2048 1.77305L45.1829 0.673741C45.8981 0.272634 46.7416 0.16686 47.5336 0.378984C48.3257 0.591108 49.0034 1.10434 49.4224 1.80917L60.8924 20.9287C61.1104 21.2916 61.2532 21.6946 61.3122 22.1139C61.3711 22.5331 61.3452 22.9599 61.2358 23.3689C61.1264 23.7778 60.9359 24.1606 60.6755 24.4944C60.4151 24.8282 60.0902 25.1062 59.7201 25.3119L57.7427 26.4112C57.2719 26.6738 56.7417 26.8117 56.2025 26.8115ZM46.7194 2.63494C46.5833 2.63496 46.4495 2.67 46.3309 2.73669L44.3535 3.83525C44.2603 3.8873 44.1784 3.95754 44.1129 4.0418C44.0474 4.12607 43.9994 4.22264 43.9719 4.32579C43.9444 4.42895 43.9379 4.53657 43.9528 4.64229C43.9677 4.748 44.0036 4.84965 44.0586 4.94119L55.5249 24.0585C55.6305 24.2365 55.8015 24.3662 56.0014 24.4198C56.2013 24.4733 56.4143 24.4466 56.5948 24.3453L58.5729 23.2475C58.6662 23.1955 58.7481 23.1253 58.8137 23.041C58.8793 22.9568 58.9273 22.8602 58.9548 22.757C58.9823 22.6538 58.9888 22.5462 58.9738 22.4404C58.9589 22.3347 58.9229 22.233 58.8678 22.1415L47.4014 3.02276C47.3311 2.90459 47.2312 2.80672 47.1117 2.73874C46.9921 2.67076 46.857 2.63499 46.7194 2.63494Z" fill="#FFA629"/>
</svg>
