<svg width="474" height="333" viewBox="0 0 474 333" fill="none" xmlns="http://www.w3.org/2000/svg">
<path d="M0.548828 36.2139C0.548828 16.3316 16.6666 0.213867 36.5488 0.213867H437.549C457.431 0.213867 473.549 16.3316 473.549 36.2139V296.214C473.549 316.096 457.431 332.214 437.549 332.214H36.5488C16.6666 332.214 0.548828 316.096 0.548828 296.214V36.2139Z" fill="white" fill-opacity="0.06"/>
<path d="M217.426 189.995H98.1477C95.6981 189.995 93.7051 188.002 93.7051 185.553V93.0166H221.868V185.553C221.868 188.002 219.876 189.995 217.426 189.995ZM95.2055 94.5166V185.553C95.2055 187.175 96.5257 188.495 98.1477 188.495H217.426C219.048 188.495 220.368 187.176 220.368 185.553V94.5166H95.2055Z" fill="#30BABA"/>
<g opacity="0.8">
<path d="M217.426 189.995H98.1477C95.6981 189.995 93.7051 188.002 93.7051 185.553V93.0166H221.868V185.553C221.868 188.002 219.876 189.995 217.426 189.995ZM95.2055 94.5166V185.553C95.2055 187.175 96.5257 188.495 98.1477 188.495H217.426C219.048 188.495 220.368 187.176 220.368 185.553V94.5166H95.2055Z" fill="white"/>
</g>
<path d="M95.2051 94.5161V185.552C95.2051 187.175 96.5253 188.495 98.1473 188.495H217.425C219.048 188.495 220.368 187.175 220.368 185.552V94.5161H95.2051Z" fill="white"/>
<path d="M175.311 147.578L200.311 118.078L192.811 135.578L185.811 144.078L179.811 146.578L175.311 147.578Z" fill="white"/>
<path d="M224.763 92.0781H90.8105V95.4534H224.763V92.0781Z" fill="#30BABA"/>
<path opacity="0.5" d="M224.763 92.0781H90.8105V93.7658H224.763V92.0781Z" fill="white"/>
<path d="M107.104 172.355C107.104 172.355 181.755 170.961 204.745 105.908L203.953 172.503L107.104 172.355Z" fill="#CF5C5C"/>
<g opacity="0.7">
<path d="M107.168 174.025C107.168 174.025 181.82 172.632 204.809 107.578L204.018 174.173L107.168 174.025Z" fill="white"/>
</g>
<path d="M111.576 172.755V176.389" stroke="#30BABA" stroke-width="2" stroke-miterlimit="10" stroke-linecap="round" stroke-linejoin="round"/>
<path d="M126.76 172.769V176.403" stroke="#30BABA" stroke-width="2" stroke-miterlimit="10" stroke-linecap="round" stroke-linejoin="round"/>
<path d="M141.941 172.783V176.417" stroke="#30BABA" stroke-width="2" stroke-miterlimit="10" stroke-linecap="round" stroke-linejoin="round"/>
<path d="M157.125 172.798V176.432" stroke="#30BABA" stroke-width="2" stroke-miterlimit="10" stroke-linecap="round" stroke-linejoin="round"/>
<path d="M172.309 172.812V176.446" stroke="#30BABA" stroke-width="2" stroke-miterlimit="10" stroke-linecap="round" stroke-linejoin="round"/>
<path d="M187.492 172.827V176.46" stroke="#30BABA" stroke-width="2" stroke-miterlimit="10" stroke-linecap="round" stroke-linejoin="round"/>
<path d="M202.676 172.841V176.475" stroke="#30BABA" stroke-width="2" stroke-miterlimit="10" stroke-linecap="round" stroke-linejoin="round"/>
<path d="M105.322 109.514H107.282" stroke="#30BABA" stroke-width="2" stroke-miterlimit="10" stroke-linecap="round" stroke-linejoin="round"/>
<path d="M105.322 119.04H107.282" stroke="#30BABA" stroke-width="2" stroke-miterlimit="10" stroke-linecap="round" stroke-linejoin="round"/>
<path d="M105.322 128.566H107.282" stroke="#30BABA" stroke-width="2" stroke-miterlimit="10" stroke-linecap="round" stroke-linejoin="round"/>
<path d="M105.322 138.092H107.282" stroke="#30BABA" stroke-width="2" stroke-miterlimit="10" stroke-linecap="round" stroke-linejoin="round"/>
<path d="M105.322 147.617H107.282" stroke="#30BABA" stroke-width="2" stroke-miterlimit="10" stroke-linecap="round" stroke-linejoin="round"/>
<path d="M105.322 157.143H107.282" stroke="#30BABA" stroke-width="2" stroke-miterlimit="10" stroke-linecap="round" stroke-linejoin="round"/>
<path d="M105.322 166.669H107.282" stroke="#30BABA" stroke-width="2" stroke-miterlimit="10" stroke-linecap="round" stroke-linejoin="round"/>
<path d="M207.656 172.754H107.682V105.753" stroke="#30BABA" stroke-width="2" stroke-miterlimit="10" stroke-linecap="round" stroke-linejoin="round"/>
<path d="M147.863 123.007H123.699V124.688H147.863V123.007Z" fill="#30BABA"/>
<path d="M147.863 127.054H119.648V128.735H147.863V127.054Z" fill="#30BABA"/>
<path d="M147.863 130.998H119.648V132.679H147.863V130.998Z" fill="#30BABA"/>
<path d="M141.627 134.941H119.648V136.622H141.627V134.941Z" fill="#30BABA"/>
<path d="M369.426 188.995H250.148C247.698 188.995 245.705 187.002 245.705 184.553V92.0166H373.868V184.553C373.868 187.002 371.876 188.995 369.426 188.995ZM247.205 93.5166V184.553C247.205 186.175 248.526 187.495 250.148 187.495H369.426C371.048 187.495 372.368 186.176 372.368 184.553V93.5166H247.205Z" fill="#30BABA"/>
<g opacity="0.8">
<path d="M369.426 188.995H250.148C247.698 188.995 245.705 187.002 245.705 184.553V92.0166H373.868V184.553C373.868 187.002 371.876 188.995 369.426 188.995ZM247.205 93.5166V184.553C247.205 186.175 248.526 187.495 250.148 187.495H369.426C371.048 187.495 372.368 186.176 372.368 184.553V93.5166H247.205Z" fill="white"/>
</g>
<path d="M247.205 93.5161V184.552C247.205 186.175 248.525 187.495 250.147 187.495H369.425C371.048 187.495 372.368 186.175 372.368 184.552V93.5161H247.205Z" fill="white"/>
<path d="M376.763 91.0781H242.811V94.4534H376.763V91.0781Z" fill="#30BABA"/>
<path opacity="0.5" d="M376.763 91.0781H242.811V92.7658H376.763V91.0781Z" fill="white"/>
<path d="M259.104 171.355C259.104 171.355 333.755 169.961 356.745 104.908L355.953 171.503L259.104 171.355Z" fill="#30BABA"/>
<g opacity="0.7">
<path d="M259.104 171.355C259.104 171.355 333.755 169.961 356.745 104.908L355.953 171.503L259.104 171.355Z" fill="white"/>
</g>
<path d="M259.684 171.293C267.929 170.903 334.932 165.89 356.489 104.876" stroke="#30BABA" stroke-width="2" stroke-miterlimit="10" stroke-linecap="round" stroke-linejoin="round"/>
<path d="M263.576 171.754V175.388" stroke="#30BABA" stroke-width="2" stroke-miterlimit="10" stroke-linecap="round" stroke-linejoin="round"/>
<path d="M278.76 171.769V175.402" stroke="#30BABA" stroke-width="2" stroke-miterlimit="10" stroke-linecap="round" stroke-linejoin="round"/>
<path d="M293.941 171.783V175.417" stroke="#30BABA" stroke-width="2" stroke-miterlimit="10" stroke-linecap="round" stroke-linejoin="round"/>
<path d="M309.125 171.797V175.431" stroke="#30BABA" stroke-width="2" stroke-miterlimit="10" stroke-linecap="round" stroke-linejoin="round"/>
<path d="M324.309 171.812V175.445" stroke="#30BABA" stroke-width="2" stroke-miterlimit="10" stroke-linecap="round" stroke-linejoin="round"/>
<path d="M339.492 171.826V175.46" stroke="#30BABA" stroke-width="2" stroke-miterlimit="10" stroke-linecap="round" stroke-linejoin="round"/>
<path d="M354.676 171.841V175.475" stroke="#30BABA" stroke-width="2" stroke-miterlimit="10" stroke-linecap="round" stroke-linejoin="round"/>
<path d="M257.322 108.514H259.282" stroke="#30BABA" stroke-width="2" stroke-miterlimit="10" stroke-linecap="round" stroke-linejoin="round"/>
<path d="M257.322 118.04H259.282" stroke="#30BABA" stroke-width="2" stroke-miterlimit="10" stroke-linecap="round" stroke-linejoin="round"/>
<path d="M257.322 127.566H259.282" stroke="#30BABA" stroke-width="2" stroke-miterlimit="10" stroke-linecap="round" stroke-linejoin="round"/>
<path d="M257.322 137.092H259.282" stroke="#30BABA" stroke-width="2" stroke-miterlimit="10" stroke-linecap="round" stroke-linejoin="round"/>
<path d="M257.322 146.617H259.282" stroke="#30BABA" stroke-width="2" stroke-miterlimit="10" stroke-linecap="round" stroke-linejoin="round"/>
<path d="M257.322 156.143H259.282" stroke="#30BABA" stroke-width="2" stroke-miterlimit="10" stroke-linecap="round" stroke-linejoin="round"/>
<path d="M257.322 165.669H259.282" stroke="#30BABA" stroke-width="2" stroke-miterlimit="10" stroke-linecap="round" stroke-linejoin="round"/>
<path d="M359.656 171.754H259.682V104.753" stroke="#30BABA" stroke-width="2" stroke-miterlimit="10" stroke-linecap="round" stroke-linejoin="round"/>
<path d="M299.863 122.007H275.699V123.688H299.863V122.007Z" fill="#30BABA"/>
<path d="M299.863 126.054H271.648V127.735H299.863V126.054Z" fill="#30BABA"/>
<path d="M299.863 129.998H271.648V131.679H299.863V129.998Z" fill="#30BABA"/>
<path d="M293.627 133.941H271.648V135.622H293.627V133.941Z" fill="#30BABA"/>
<path d="M366.172 174.402C365.824 174.666 365.568 174.855 365.261 175.072C364.955 175.291 364.676 175.477 364.379 175.67C363.792 176.066 363.184 176.431 362.578 176.792C361.342 177.519 360.066 178.173 358.754 178.751C357.387 179.365 355.972 179.864 354.522 180.246C353.747 180.452 352.959 180.606 352.163 180.707C351.755 180.761 351.332 180.781 350.902 180.814L350.24 180.826L349.818 180.816C349.661 180.813 349.512 180.796 349.362 180.784C348.311 180.659 347.295 180.335 346.365 179.83C345.608 179.426 344.894 178.947 344.232 178.401C343.08 177.43 342.032 176.342 341.104 175.155C339.382 172.942 337.932 170.53 336.787 167.972L339.951 166.001C341.6 167.865 343.351 169.635 345.197 171.304C346.037 172.059 346.942 172.738 347.901 173.334C348.287 173.577 348.699 173.778 349.128 173.932C349.374 174.031 349.638 174.074 349.902 174.06C349.902 174.06 349.902 174.06 349.919 174.034L349.986 174.023L350.31 173.976C350.535 173.931 350.76 173.894 351.02 173.823C351.493 173.707 351.988 173.556 352.492 173.381C353.554 172.988 354.59 172.532 355.597 172.014C356.641 171.468 357.687 170.891 358.719 170.261C359.221 169.975 359.743 169.621 360.257 169.3L361.014 168.811L363.059 167.448L366.172 174.402Z" fill="#30BABA"/>
<path opacity="0.2" d="M366.172 174.402C365.824 174.666 365.568 174.855 365.261 175.072C364.955 175.291 364.676 175.477 364.379 175.67C363.792 176.066 363.184 176.431 362.578 176.792C361.342 177.519 360.066 178.173 358.754 178.751C357.387 179.365 355.972 179.864 354.522 180.246C353.747 180.452 352.959 180.606 352.163 180.707C351.755 180.761 351.332 180.781 350.902 180.814L350.24 180.826L349.818 180.816C349.661 180.813 349.512 180.796 349.362 180.784C348.311 180.659 347.295 180.335 346.365 179.83C345.608 179.426 344.894 178.947 344.232 178.401C343.08 177.43 342.032 176.342 341.104 175.155C339.382 172.942 337.932 170.53 336.787 167.972L339.951 166.001C341.6 167.865 343.351 169.635 345.197 171.304C346.037 172.059 346.942 172.738 347.901 173.334C348.287 173.577 348.699 173.778 349.128 173.932C349.374 174.031 349.638 174.074 349.902 174.06C349.902 174.06 349.902 174.06 349.919 174.034L349.986 174.023L350.31 173.976C350.535 173.931 350.76 173.894 351.02 173.823C351.493 173.707 351.988 173.556 352.492 173.381C353.554 172.988 354.59 172.532 355.597 172.014C356.641 171.468 357.687 170.891 358.719 170.261C359.221 169.975 359.743 169.621 360.257 169.3L361.014 168.811L363.059 167.448L366.172 174.402Z" fill="black"/>
<path d="M338.193 168.253L335.232 166.83L337.616 163.146C337.616 163.146 340.125 165.216 340.385 167.314L338.193 168.253Z" fill="#FF8B7B"/>
<path d="M332.02 164.439L334.025 162.161L337.626 163.152L335.233 166.83L332.02 164.439Z" fill="#FF8B7B"/>
<path d="M394.608 298.937C394.929 298.185 395.375 297.491 395.925 296.887C395.925 296.887 398.158 293.058 396.432 286.394L399.5 283.696C400.301 283.609 401.117 284.1 401.735 284.618C402.152 285.204 402.471 285.367 402.807 286.002C403.932 287.933 406.393 292.354 406.393 292.354L405.936 292.612C405.129 291.299 404.243 290.035 403.285 288.828C402.279 287.7 402.298 289.713 402.672 291.424C403.046 293.136 401.941 295.831 399.021 297.603C395.638 299.681 394.138 300.346 394.608 298.937Z" fill="#263238"/>
<path d="M400.23 289.808C400.23 290.942 400.993 292.935 399.983 294.427C399.074 295.821 397.58 296.724 395.928 296.888C395.928 296.888 397.674 293.907 396.888 288.623C396.788 287.923 396.635 287.179 396.435 286.396C396.435 286.396 399.096 284.428 400.322 284.152L400.968 285.908C400.885 287.11 400.577 288.454 400.296 289.336C400.247 289.468 400.227 289.625 400.23 289.808Z" fill="#FF8B7B"/>
<path d="M400.968 285.908C400.886 287.11 400.577 288.454 400.296 289.336C400.248 289.468 400.228 289.626 400.231 289.808L397.718 290.875L396.889 288.623L393.943 280.602L398.335 278.736L400.322 284.152L400.968 285.908Z" fill="#FF8B7B"/>
<path opacity="0.2" d="M398.334 278.742L393.941 280.603L395.44 284.681L395.496 284.684C397.14 284.763 398.737 284.126 399.875 282.937L398.334 278.742Z" fill="black"/>
<path d="M361.119 296.422C361.796 295.965 362.546 295.624 363.337 295.414C363.337 295.414 367.279 293.393 369.417 286.849L373.54 286.018C374.265 286.374 374.812 287.013 375.051 287.785C375.088 288.503 375.075 289.224 375.014 289.941C374.942 292.185 374.577 297.994 374.577 297.994L374.048 297.968C374.071 296.435 374.04 294.142 373.88 292.616C373.641 291.124 372.572 292.821 371.962 294.468C371.352 296.114 368.975 297.784 365.554 297.704C361.556 297.595 359.941 297.34 361.119 296.422Z" fill="#263238"/>
<path d="M372.872 289.278C372.412 290.085 371.811 290.805 371.093 291.41C370.271 292.034 369.996 294.702 368.079 295.53C366.559 296.206 364.819 296.164 363.338 295.416C363.338 295.416 366.31 293.892 368.493 289.198C368.997 288.113 369.139 286.891 368.906 285.718L367.403 278.137L372.401 277.483L373.661 286.58C373.671 287.879 373.386 288.724 372.872 289.278Z" fill="#FF8B7B"/>
<path opacity="0.2" d="M367.004 275.247L368.158 281.944L368.593 282.043C370.094 282.384 371.669 282.059 372.912 281.15L372.064 274.667L367.004 275.247Z" fill="black"/>
<path d="M383.664 170.803C383.66 170.612 383.647 170.421 383.624 170.23C383.23 166.816 380.143 164.368 376.729 164.762L376.621 164.757C376.197 164.808 375.767 164.865 375.343 164.932C372.443 165.311 369.574 165.893 366.757 166.676C366.278 166.802 365.787 166.958 365.307 167.12C364.654 167.34 364.005 167.565 363.388 167.792C360.468 168.86 358.783 171.919 359.443 174.957C360.151 178.205 361.06 183.397 364.585 190.371C365.396 191.977 365.52 195.227 366.207 197.206L385.112 193.375L385.141 193.413C384.204 187.499 383.818 177.396 383.664 170.803Z" fill="#263238"/>
<path d="M366.208 197.208C366.208 197.208 365.154 221.351 364.217 239.893C363.473 254.635 366.35 279.812 366.35 279.812C366.35 279.812 370.089 281.015 374.054 278.748C374.166 279.93 375.189 255.56 374.048 241.52C379.353 220.99 387.143 201.581 381.397 194.026L366.208 197.208Z" fill="#263238"/>
<path opacity="0.3" d="M375.2 211.377L382.997 206.927C381.944 214.248 379.085 223.443 376.301 233.266C374.134 225.471 373.129 217.331 375.2 211.377Z" fill="black"/>
<path d="M369.596 197.796C369.596 197.796 374.769 216.504 378.1 234.428C379.55 247.312 393.409 282.534 393.409 282.534L395.796 282.076C396.929 281.858 397.979 281.33 398.83 280.551L399.636 279.813C399.636 279.813 395.526 254.288 391.546 244.35C391.643 223.577 392.027 201.195 384.221 194.224L369.596 197.796Z" fill="#263238"/>
<path d="M375.752 164.772C375.752 164.772 373.774 186.882 378.785 215.61C387.032 215.12 392.103 212.836 392.103 212.836C392.103 212.836 390.411 197.254 385.34 189.314C384.468 183.741 385.248 171.862 384.728 167.524C384.534 165.96 383.311 164.724 381.749 164.512C380.175 164.302 377.981 164.5 375.752 164.772Z" fill="#30BABA"/>
<path opacity="0.1" d="M375.752 164.772C375.752 164.772 373.774 186.882 378.785 215.61C387.032 215.12 392.103 212.836 392.103 212.836C392.103 212.836 390.411 197.254 385.34 189.314C384.468 183.741 385.248 171.862 384.728 167.524C384.534 165.96 383.311 164.724 381.749 164.512C380.175 164.302 377.981 164.5 375.752 164.772Z" fill="black"/>
<path d="M366.674 166.369C366.674 166.369 365.592 176.849 372.327 216.152C369.664 217.565 363.96 217.084 363.96 217.084C363.96 217.084 364.055 203.989 364.948 193.535C365.382 188.453 361.698 187.7 359.617 182.084C358.595 175.579 359.21 170.288 360.136 169.543C361.618 168.34 364.062 166.7 366.674 166.369Z" fill="#30BABA"/>
<path opacity="0.1" d="M366.674 166.369C366.674 166.369 365.592 176.849 372.327 216.152C369.664 217.565 363.96 217.084 363.96 217.084C363.96 217.084 364.055 203.989 364.948 193.535C365.382 188.453 361.698 187.7 359.617 182.084C358.595 175.579 359.21 170.288 360.136 169.543C361.618 168.34 364.062 166.7 366.674 166.369Z" fill="black"/>
<path opacity="0.7" d="M375.657 164.711C375.657 164.711 375.273 173.758 375.414 180.382C376.103 175.697 377.754 171.212 377.712 169.735C377.232 169.481 376.772 169.193 376.335 168.872C376.862 168.435 377.439 168.063 378.054 167.762C378.086 167.091 378.205 164.634 378.102 164.429C376.786 164.545 375.657 164.711 375.657 164.711Z" fill="white"/>
<path opacity="0.7" d="M366.76 166.291C366.76 166.291 366.449 171.966 367.457 181.966C365.999 177.784 364.11 173.791 364.284 172.221C365.044 171.585 365.715 170.882 365.715 170.882C365.23 170.581 364.696 170.367 364.137 170.251C364.16 169.081 364.249 167.913 364.404 166.753C365.677 166.465 366.76 166.291 366.76 166.291Z" fill="white"/>
<path d="M382.503 167.934C381.213 170.205 381.947 173.083 384.159 174.471C384.172 174.479 384.185 174.487 384.199 174.496C385.54 175.338 386.872 176.186 388.148 177.062C389.422 177.939 390.675 178.834 391.809 179.737C392.373 180.187 392.891 180.645 393.332 181.082C393.552 181.296 393.739 181.5 393.881 181.666C394.023 181.832 394.088 181.955 394.073 181.875L393.889 180.938C393.958 181.531 393.837 182.131 393.544 182.653C393.114 183.552 392.59 184.403 391.979 185.192C391.304 186.086 390.583 186.945 389.819 187.764C389.052 188.609 388.199 189.461 387.417 190.252L389.439 193.373C390.636 192.825 391.792 192.19 392.897 191.473C394.02 190.751 395.087 189.945 396.087 189.061C397.187 188.106 398.158 187.012 398.978 185.808C399.506 185.008 399.932 184.144 400.243 183.236C400.541 182.367 400.672 181.449 400.654 180.532L400.647 180.156L400.482 179.667C400.28 179.068 400.01 178.492 399.671 177.958C399.321 177.404 398.932 176.877 398.506 176.379C397.883 175.651 397.214 174.964 396.504 174.321C395.211 173.136 393.853 172.023 392.437 170.988C391.065 169.964 389.656 169.015 388.248 168.097C386.839 167.179 385.421 166.321 383.893 165.485L382.503 167.934Z" fill="#30BABA"/>
<path d="M389.803 190.348C388.31 189.837 386.683 189.883 385.221 190.474L386.949 195.705L389.643 193.365L389.803 190.348Z" fill="#FF8B7B"/>
<path d="M386.95 195.704L385.221 190.474L382.566 193.398L384.803 197.015L386.95 195.704Z" fill="#FF8B7B"/>
<path d="M364.192 164.251C363.595 160.38 363.013 153.178 366.8 145.249C370.069 138.404 383.698 143.174 381.639 154.704C380.427 161.488 377.525 160.336 382.652 164.866C385.608 167.478 376.884 168.158 376.168 166.413C376.168 166.413 373.054 166.709 370.892 164.961C370.892 164.961 364.739 167.801 364.192 164.251Z" fill="#263238"/>
<path d="M369.48 171.085C372.446 171.563 374.351 167.766 375.103 165.888C374.991 165.884 374.883 165.878 374.768 165.875C373.914 163.506 374.522 159.654 375.071 157.376L369.591 161.693C369.932 163.449 369.985 165.274 368.361 166.25C368.031 166.305 367.703 166.37 367.379 166.44C367.023 168.196 366.984 170.683 369.48 171.085Z" fill="#FF8B7B"/>
<path opacity="0.2" d="M372.73 159.164L369.471 161.716C369.584 162.225 369.652 162.744 369.675 163.264C370.867 163.138 372.702 162.153 372.877 160.912C372.932 160.325 372.882 159.733 372.73 159.164Z" fill="black"/>
<path d="M378.005 153.341C376.257 157.667 375.612 159.536 372.626 161.056C368.132 163.346 363.202 160.257 363.618 155.496C363.994 151.211 366.784 144.86 371.692 144.544C375.197 144.301 378.236 146.945 378.479 150.451C378.549 151.439 378.386 152.428 378.005 153.341Z" fill="#FF8B7B"/>
<path d="M367.71 151.958C367.116 152.673 366.428 153.302 365.662 153.828C365.942 154.218 366.38 154.464 366.859 154.499L367.71 151.958Z" fill="#D85B5B"/>
<path d="M372.231 151.328C372.263 151.331 372.295 151.326 372.325 151.314C372.419 151.274 372.462 151.165 372.421 151.071C372.42 151.069 372.42 151.069 372.419 151.067C372.153 150.416 371.585 149.935 370.897 149.779C370.797 149.766 370.704 149.834 370.686 149.933C370.67 150.031 370.737 150.125 370.835 150.143C371.4 150.281 371.864 150.682 372.083 151.22C372.111 151.28 372.166 151.32 372.231 151.328Z" fill="#263238"/>
<path d="M365.493 148.618C365.525 148.621 365.558 148.616 365.587 148.605C366.118 148.375 366.727 148.413 367.225 148.707C367.308 148.767 367.424 148.747 367.483 148.665L367.485 148.663C367.541 148.577 367.52 148.462 367.435 148.403C366.834 148.037 366.092 147.984 365.445 148.261C365.349 148.295 365.298 148.402 365.333 148.498C365.359 148.565 365.421 148.612 365.493 148.618Z" fill="#263238"/>
<path d="M370.445 152.212C370.327 152.57 370.038 152.797 369.8 152.719C369.562 152.642 369.473 152.289 369.597 151.927C369.722 151.565 370.004 151.343 370.237 151.419C370.47 151.496 370.565 151.85 370.445 152.212Z" fill="#263238"/>
<path d="M366.381 150.856C366.262 151.213 365.974 151.44 365.741 151.363C365.507 151.286 365.413 150.932 365.532 150.57C365.652 150.208 365.939 149.986 366.172 150.063C366.406 150.139 366.505 150.493 366.381 150.856Z" fill="#263238"/>
<path d="M366.268 150.116L365.488 149.581C365.488 149.581 365.709 150.402 366.268 150.116Z" fill="#263238"/>
<path d="M370.335 151.473L369.555 150.938C369.555 150.938 369.775 151.758 370.335 151.473Z" fill="#263238"/>
<path d="M369.522 157.073C369.766 157.014 370.005 156.932 370.235 156.829C370.301 156.8 370.332 156.723 370.303 156.657C370.303 156.655 370.302 156.654 370.301 156.653C370.272 156.588 370.197 156.557 370.131 156.584C369.107 157.062 367.917 157.027 366.922 156.489C366.861 156.448 366.779 156.465 366.738 156.526C366.696 156.587 366.713 156.669 366.774 156.71C367.609 157.182 368.594 157.312 369.522 157.073Z" fill="#263238"/>
<path d="M370.117 145.875C370.117 145.875 368.616 147.118 369.508 148.317C370.401 149.515 373.158 148.996 373.687 151.298C374.216 153.599 373.213 155.373 374.88 156.114C376.548 156.855 378.146 154.563 378.146 154.563C378.146 154.563 380.772 149.217 377.534 146.328C374.295 143.438 370.513 142.438 368.254 143.74C365.995 145.042 364.737 145.985 365.575 146.547C366.414 147.109 367.712 147.51 368.277 146.949C369.216 146.016 370.117 145.875 370.117 145.875Z" fill="#263238"/>
<path d="M377.884 157.182C377.364 157.921 376.574 158.422 375.685 158.577C374.505 158.772 374.044 157.687 374.48 156.64C374.87 155.702 375.956 154.464 377.09 154.745C377.909 154.975 378.387 155.825 378.158 156.644C378.102 156.84 378.009 157.023 377.884 157.182Z" fill="#FF8B7B"/>
<path d="M366.679 166.526C366.679 166.526 367.398 166.08 368.055 166.185C368.055 166.185 366.728 170.409 369.762 170.649C372.796 170.889 375.073 165.708 375.073 165.708C375.073 165.708 375.729 165.425 376.35 165.832C376.35 165.832 373.952 171.841 369.774 171.671C365.596 171.501 366.679 166.526 366.679 166.526Z" fill="#30BABA"/>
<path opacity="0.7" d="M366.679 166.526C366.679 166.526 367.398 166.08 368.055 166.185C368.055 166.185 366.728 170.409 369.762 170.649C372.796 170.889 375.073 165.708 375.073 165.708C375.073 165.708 375.729 165.425 376.35 165.832C376.35 165.832 373.952 171.841 369.774 171.671C365.596 171.501 366.679 166.526 366.679 166.526Z" fill="white"/>
<path d="M375.381 153.523L372.469 152.392C372.373 151.568 371.325 151.159 370.881 150.986C370.418 150.807 369.303 150.377 368.687 151.022L367.671 150.627C367.653 149.735 366.54 149.3 366.077 149.12C365.535 148.909 364.095 148.349 363.615 149.586C363.234 150.566 363.813 151.709 364.906 152.133C365.999 152.558 367.198 152.107 367.579 151.126C367.606 151.057 367.624 150.991 367.64 150.926L368.509 151.264C368.477 151.322 368.446 151.383 368.419 151.451C368.038 152.432 368.617 153.575 369.71 153.999C370.803 154.424 372.001 153.972 372.382 152.992C372.422 152.889 372.445 152.793 372.459 152.699L375.275 153.793C375.659 153.943 375.982 154.223 376.183 154.582L376.436 154.441C376.203 154.023 375.828 153.697 375.381 153.523ZM365.012 151.862C364.069 151.496 363.564 150.522 363.886 149.691C364.149 149.015 364.772 148.925 365.972 149.391C367.171 149.857 367.571 150.344 367.308 151.021C366.985 151.851 365.955 152.229 365.012 151.862ZM369.815 153.729C368.872 153.363 368.367 152.388 368.689 151.558C368.952 150.881 369.576 150.792 370.775 151.257C371.974 151.723 372.373 152.21 372.11 152.887C371.788 153.718 370.758 154.095 369.815 153.729Z" fill="#263238"/>
<g clip-path="url(#clip0_1497_1134)">
<path d="M349.366 299.796H326.645V299.967H349.366V299.796Z" fill="#EBEBEB"/>
<path d="M267.952 301.658H261.988V301.829H267.952V301.658Z" fill="#EBEBEB"/>
<path d="M325.959 293.426H312.793V293.597H325.959V293.426Z" fill="#EBEBEB"/>
<path d="M106.351 294.578H76.7207V294.75H106.351V294.578Z" fill="#EBEBEB"/>
<path d="M116.803 294.578H112.459V294.75H116.803V294.578Z" fill="#EBEBEB"/>
<path d="M195.186 297.475H130.924V297.647H195.186V297.475Z" fill="#EBEBEB"/>
<path d="M203.327 258.16H70.861C68.7022 258.16 66.9453 256.403 66.9453 254.244V68.0417C66.9453 65.8828 68.7022 64.126 70.861 64.126H203.327C205.485 64.126 207.242 65.8828 207.242 68.0417V254.244C207.242 256.403 205.485 258.16 203.327 258.16ZM70.861 64.2982C68.7961 64.2982 67.1168 65.9775 67.1168 68.0424V254.245C67.1168 256.31 68.7961 257.989 70.861 257.989H203.327C205.391 257.989 207.07 256.31 207.07 254.245V68.0417C207.07 65.9775 205.391 64.2975 203.327 64.2975L70.861 64.2982Z" fill="#EBEBEB"/>
<path d="M388.692 249.429H285.776C284.099 249.429 282.734 247.672 282.734 245.514V59.3437C282.734 57.1853 284.099 55.4287 285.776 55.4287H388.692C390.37 55.4287 391.734 57.1853 391.734 59.3437V245.514C391.735 247.672 390.37 249.429 388.692 249.429ZM285.776 55.6009C284.172 55.6009 282.868 57.2799 282.868 59.3444V245.514C282.868 247.579 284.172 249.258 285.776 249.258H388.692C390.296 249.258 391.601 247.579 391.601 245.514V59.3437C391.601 57.2799 390.296 55.6002 388.692 55.6002L285.776 55.6009Z" fill="#EBEBEB"/>
<path d="M383.734 288.754H40.7344V288.925H383.734V288.754Z" fill="#EBEBEB"/>
<path d="M317.232 98.4287V102.572C319.904 102.785 322.336 103.845 324.262 105.484L327.191 102.554C324.507 100.175 321.044 98.6565 317.232 98.4287Z" fill="#C1F8F5"/>
<path d="M315.233 127.283C309.184 126.8 304.361 121.977 303.878 115.927H299.734C300.232 124.261 306.9 130.929 315.233 131.426V127.283Z" fill="#52CEC7"/>
<path d="M303.877 113.928C304.361 107.879 309.183 103.056 315.232 102.573V98.4297C306.9 98.927 300.232 105.596 299.734 113.928L303.877 113.928Z" fill="#7BE3DD"/>
<path d="M328.605 103.969L325.676 106.898C327.518 109.062 328.631 111.864 328.631 114.928C328.631 121.438 323.612 126.773 317.232 127.282V131.426C325.897 130.909 332.764 123.721 332.764 114.927C332.764 110.722 331.191 106.886 328.605 103.969Z" fill="#58E1D9"/>
<path d="M252.467 164.429V180.816L258.545 196.035C264.265 193.426 268.242 187.663 268.242 180.967C268.242 172.084 261.248 164.837 252.467 164.429Z" fill="#A4EAE6"/>
<path d="M251.029 180.609V165.642V164.429C242.515 164.825 235.734 171.851 235.734 180.463C235.734 180.663 235.742 180.862 235.749 181.06C235.742 181.265 235.734 181.469 235.734 181.675C235.734 190.541 242.922 197.728 251.787 197.728C253.625 197.728 255.388 197.415 257.032 196.847L251.029 180.609Z" fill="#8DD9D4"/>
<path d="M72.8892 159.495C72.8892 159.495 67.3402 159.905 64.3177 166.27C61.2945 172.635 59.2262 184.568 66.386 184.887C73.5464 185.205 72.8892 183.454 72.8892 183.454L72.905 180.272L68.3164 178.895C67.3519 178.605 66.8243 177.568 67.1584 176.618L69.5676 169.77L72.8892 159.495Z" fill="#30BABA"/>
<path opacity="0.2" d="M72.8892 159.495C72.8892 159.495 67.3402 159.905 64.3177 166.27C61.2945 172.635 59.2262 184.568 66.386 184.887C73.5464 185.205 72.8892 183.454 72.8892 183.454L72.905 180.272L68.3164 178.895C67.3519 178.605 66.8243 177.568 67.1584 176.618L69.5676 169.77L72.8892 159.495Z" fill="black"/>
<path d="M87.3584 143.014C87.591 142.973 87.8359 143.217 87.9072 143.569C87.9786 143.921 87.8537 144.25 87.6205 144.292C87.3879 144.334 87.143 144.089 87.0717 143.737C86.9825 143.373 87.1259 143.056 87.3584 143.014Z" fill="#263238"/>
<path d="M88.0337 147.681C88.6449 147.713 89.2397 147.473 89.6568 147.025C88.7725 146.24 88.0001 145.339 87.3594 144.345L88.0337 147.681Z" fill="#EC837E"/>
<path d="M85.532 142.001C85.8791 141.585 86.4059 141.363 86.9465 141.404C86.9691 141.411 86.9925 141.415 87.0165 141.415C87.1352 141.416 87.2319 141.32 87.2326 141.201C87.2333 141.083 87.1372 140.986 87.0185 140.986C86.3442 140.915 85.6767 141.175 85.2288 141.684C85.1945 141.723 85.1753 141.772 85.1739 141.823C85.1711 141.942 85.2651 142.04 85.3838 142.042C85.4366 142.048 85.4894 142.033 85.532 142.001Z" fill="#263238"/>
<path d="M84.0697 153.982C83.431 156.524 83.4077 159.681 86.1819 160.546C86.1819 160.546 89.6489 163.452 82.9714 163.452C76.903 163.452 76.0078 160.14 76.0078 160.14C78.2929 157.956 77.9053 153.433 77.2666 150.163L84.0697 153.982Z" fill="#FFC2BC"/>
<path d="M73.5273 159.578C73.5273 159.578 74.6311 156.671 76.1211 155.808C77.6118 154.946 83.9038 156.228 84.8786 156.666C85.8527 157.103 86.7418 159.443 86.7418 159.443L73.5273 159.578Z" fill="#30BABA"/>
<path opacity="0.2" d="M73.5273 159.578C73.5273 159.578 74.6311 156.671 76.1211 155.808C77.6118 154.946 83.9038 156.228 84.8786 156.666C85.8527 157.103 86.7418 159.443 86.7418 159.443L73.5273 159.578Z" fill="black"/>
<path d="M83.1032 294.436C83.0586 294.428 83.0243 294.391 83.0195 294.347C83.0113 294.304 83.0298 294.261 83.0675 294.239C83.1512 294.203 84.7146 293.314 85.4548 293.517C85.5982 293.546 85.7223 293.635 85.7951 293.762C85.8938 293.9 85.8938 294.085 85.7951 294.222C85.6098 294.485 85.0789 294.562 84.4821 294.562C84.0197 294.559 83.558 294.517 83.1032 294.436ZM85.1914 293.684C84.5747 293.759 83.9792 293.954 83.4373 294.257C84.2667 294.37 85.3944 294.365 85.6037 294.078C85.6517 294.036 85.675 293.976 85.6037 293.845C85.5604 293.766 85.4836 293.711 85.3944 293.696C85.3272 293.687 85.2586 293.687 85.1914 293.696V293.684Z" fill="#30BABA"/>
<path d="M83.061 294.412C83.0315 294.389 83.0144 294.354 83.0137 294.317C83.0198 294.263 83.1152 293.063 83.712 292.592C83.8773 292.452 84.0934 292.388 84.3088 292.413C84.6011 292.443 84.7026 292.592 84.7026 292.712C84.7863 293.231 83.7182 294.18 83.1749 294.424H83.133C83.1083 294.429 83.0823 294.424 83.061 294.412ZM84.2368 292.616C84.0962 292.618 83.9617 292.674 83.8609 292.771C83.5261 293.16 83.3183 293.64 83.2641 294.149C83.819 293.815 84.5407 293.057 84.4934 292.753C84.4872 292.729 84.4755 292.634 84.2841 292.634H84.2245L84.2368 292.616Z" fill="#30BABA"/>
<path d="M78.6706 283.975H83.1337L82.6865 294.317H78.2227L78.6706 283.975Z" fill="#FFC2BC"/>
<path d="M83.7368 294.149C86.7566 296.011 87.6868 296.095 91.184 296.858C91.9475 297.026 91.4406 298.881 89.609 298.881C86.5775 298.881 86.2613 298.738 83.6778 298.738C81.4641 298.738 78.9218 298.84 77.1615 298.869C77.1073 298.87 77.0531 298.864 77.001 298.852C76.6545 298.77 76.4412 298.422 76.5235 298.075L77.4009 294.107C77.4421 293.929 77.6005 293.803 77.783 293.802H82.6639C83.046 293.817 83.4178 293.937 83.7368 294.149Z" fill="#263238"/>
<path d="M89.1649 159.511C88.1846 159.348 79.1953 158.972 75.8188 159.201C74.6574 159.283 73.498 159.398 72.3435 159.544C69.9151 159.852 68.2371 162.117 68.6398 164.531C71.2878 180.408 69.9569 195.977 69.592 199.104L93.4593 198.881C95.9549 179.237 95.2895 169.331 94.3319 164.519C93.8167 161.938 91.7601 159.945 89.1649 159.511Z" fill="#30BABA"/>
<path opacity="0.1" d="M89.1649 159.511C88.1846 159.348 79.1953 158.972 75.8188 159.201C74.6574 159.283 73.498 159.398 72.3435 159.544C69.9151 159.852 68.2371 162.117 68.6398 164.531C71.2878 180.408 69.9569 195.977 69.592 199.104L93.4593 198.881C95.9549 179.237 95.2895 169.331 94.3319 164.519C93.8167 161.938 91.7601 159.945 89.1649 159.511Z" fill="black"/>
<path opacity="0.2" d="M78.6639 283.981L78.4375 289.31H82.9068L83.1332 283.981H78.6639Z" fill="black"/>
<path d="M75.0288 142.61C75.66 139.329 78.832 137.18 82.1132 137.811C86.708 138.676 88.6055 144.989 88.4683 149.077C88.3372 153.612 83.3603 156.685 79.3863 154.012C76.7486 152.228 76.289 149.668 75.1434 145.384C74.8909 144.48 74.8518 143.531 75.0288 142.61Z" fill="#FFC2BC"/>
<path d="M69.9418 197.451C69.9418 197.451 65.3682 212.113 61.8237 227.031C57.211 246.484 46.082 286.231 46.082 286.231L53.9587 287.962C53.9587 287.962 70.2011 241.698 74.468 227.753C78.3707 215.019 85.3548 197.451 85.3548 197.451H69.9418Z" fill="#263238"/>
<path opacity="0.3" d="M79.4496 213.761C72.4263 232.862 70.9397 238.597 70.832 238.966C71.6854 227.343 75.1847 214.369 79.4496 213.761C79.7487 213.713 79.1601 213.67 79.4496 213.761Z" fill="black"/>
<path d="M78.1162 197.451C78.1162 197.451 77.6003 213.707 77.2662 228.876C76.9616 242.791 77.2662 288.278 77.2662 288.278H84.8328C84.8328 288.278 90.6446 241.871 92.184 227.723C93.6699 214.124 93.8276 197.451 93.8276 197.451H78.1162Z" fill="#263238"/>
<path d="M76.1523 285.604L76.4034 288.403H85.6047C85.6047 288.403 86.0644 285.264 86.0287 285.264L76.1523 285.604Z" fill="#30BABA"/>
<path d="M45.8633 294.383C45.8564 294.425 45.8228 294.459 45.7796 294.466C45.7357 294.476 45.6911 294.453 45.6719 294.413C45.6301 294.335 44.7527 292.766 44.9619 292.026C44.9969 291.887 45.0847 291.767 45.2068 291.692C45.346 291.593 45.5333 291.593 45.6726 291.692C45.9291 291.883 46.0012 292.414 46.0012 293.011C45.9943 293.47 45.9484 293.93 45.8633 294.383ZM45.1348 292.294C45.202 292.908 45.3865 293.503 45.6781 294.048C45.8036 293.219 45.8036 292.091 45.5169 291.882C45.4812 291.834 45.4153 291.81 45.2843 291.882C45.2047 291.925 45.1498 292.002 45.1354 292.091C45.1252 292.158 45.1252 292.227 45.1348 292.294Z" fill="#30BABA"/>
<path d="M45.8561 294.424C45.8356 294.456 45.7978 294.472 45.7608 294.466C45.7128 294.46 44.5075 294.358 44.0485 293.762C43.9065 293.597 43.842 293.381 43.8695 293.165C43.899 292.878 44.0485 292.777 44.1679 292.777C44.6748 292.699 45.6298 293.774 45.8685 294.311C45.8705 294.325 45.8705 294.339 45.8685 294.353C45.874 294.377 45.8699 294.403 45.8561 294.424ZM44.0602 293.255C44.0664 293.392 44.1185 293.523 44.2097 293.625C44.5959 293.959 45.0748 294.167 45.5824 294.222C45.2545 293.667 44.5027 292.939 44.1981 292.986C44.1741 292.986 44.0787 292.999 44.0787 293.189C44.0787 293.213 44.0787 293.255 44.0787 293.255H44.0602Z" fill="#30BABA"/>
<path d="M47.8137 285.809L52.1664 286.14L50.1585 294.693L45.7969 294.383L47.8137 285.809Z" fill="#FFC2BC"/>
<path opacity="0.2" d="M47.8666 285.571L46.9844 289.334L51.3405 289.644L52.2282 285.871L47.8666 285.571Z" fill="black"/>
<path d="M44.7464 293.809C43.5712 295.2 42.9504 295.916 39.5369 296.989C38.785 297.222 39.4594 299.024 41.2855 298.863C44.3046 298.595 42.6403 298.6 45.2121 298.374C47.4142 298.177 49.9558 298.057 51.7106 297.932C51.7696 297.93 51.8286 297.92 51.8849 297.902C52.2272 297.793 52.4158 297.427 52.3074 297.085L51.0781 293.206C51.0246 293.031 50.8545 292.918 50.6727 292.938L45.8151 293.367C45.4138 293.367 45.029 293.526 44.7464 293.809Z" fill="#263238"/>
<path d="M45.1395 284.769L45.0977 287.585L54.5672 288.6C54.5672 288.6 55.3787 285.526 55.3431 285.526L45.1395 284.769Z" fill="#30BABA"/>
<path d="M76.4973 136.887C78.7632 136.017 79.1021 135.807 80.4219 133.77C81.156 132.637 81.0538 131.638 83.2874 131.275C85.6287 130.895 88.1374 132.352 88.9668 134.574C89.7968 136.796 88.857 139.541 86.8395 140.788C85.6692 141.512 87.4006 139.766 86.1308 140.297C84.8611 140.827 85.1416 140.219 85.0662 141.592C85.0085 142.645 85.6465 143.589 86.054 144.561C86.4615 145.533 86.561 146.845 85.7089 147.465C85.9484 146.664 83.9939 148.856 84.068 149.689C84.2745 152.005 82.2172 154.133 79.9143 154.451C74.8564 155.147 71.5273 149.263 70.0633 145.22C68.124 139.862 71.1575 138.939 76.4973 136.887Z" fill="#263238"/>
<path d="M84.7753 143.498C86.0464 143.887 86.6906 145.772 86.7324 146.965C86.7805 148.284 85.8907 149.108 84.7513 148.213C83.8931 147.523 83.2853 146.572 83.0205 145.504C82.7221 144.208 83.5041 143.111 84.7753 143.498Z" fill="#FFC2BC"/>
<path opacity="0.1" d="M89.2277 159.877C89.2277 159.877 93.5131 159.451 95.2631 163.905C96.5315 167.134 99.054 174.291 100.346 177.986C100.654 178.866 101.86 178.954 102.296 178.13L104.014 174.884C104.014 174.884 106.56 175.362 107.515 177.589C108.47 179.817 102.742 185.874 99.7187 185.863C96.3621 185.851 91.9964 177.651 90.8082 173.877C88.3983 166.224 89.2277 159.877 89.2277 159.877Z" fill="white"/>
<path d="M104.016 175.936L105.985 172.589C105.985 172.589 104.871 170.511 105.602 169.165C106.334 167.819 107.05 168.904 107.752 168.494C108.455 168.084 110.044 165.167 110.804 166.631C111.565 168.094 112.516 170.614 108.595 173.598L106.474 178.921L104.016 175.936Z" fill="#FFC2BC"/>
<path d="M104.308 174.527C105.061 174.669 107.071 175.292 107.941 177.952C107.949 177.975 107.954 177.996 107.958 178.021C108.012 178.327 108.398 180.615 107.952 180.652C107.492 180.691 106.884 178.509 103.273 176.606C103.054 176.49 102.969 176.216 103.097 176.003L103.868 174.729C103.96 174.577 104.134 174.494 104.308 174.527Z" fill="#30BABA"/>
<path d="M104.308 174.527C105.061 174.669 107.071 175.292 107.941 177.952C107.949 177.975 107.954 177.996 107.958 178.021C108.012 178.327 108.398 180.615 107.952 180.652C107.492 180.691 106.884 178.509 103.273 176.606C103.054 176.49 102.969 176.216 103.097 176.003L103.868 174.729C103.96 174.577 104.134 174.494 104.308 174.527Z" fill="#30BABA"/>
<path d="M89.2277 159.877C89.2277 159.877 93.5131 159.451 95.2631 163.905C96.5315 167.134 99.054 174.291 100.346 177.986C100.654 178.866 101.86 178.954 102.296 178.13L104.014 174.884C104.014 174.884 106.56 175.362 107.515 177.589C108.47 179.817 102.742 185.874 99.7187 185.863C96.3621 185.851 91.9964 177.651 90.8082 173.877C88.3983 166.224 89.2277 159.877 89.2277 159.877Z" fill="#30BABA"/>
<path opacity="0.1" d="M89.2277 159.877C89.2277 159.877 93.5131 159.451 95.2631 163.905C96.5315 167.134 99.054 174.291 100.346 177.986C100.654 178.866 101.86 178.954 102.296 178.13L104.014 174.884C104.014 174.884 106.56 175.362 107.515 177.589C108.47 179.817 102.742 185.874 99.7187 185.863C96.3621 185.851 91.9964 177.651 90.8082 173.877C88.3983 166.224 89.2277 159.877 89.2277 159.877Z" fill="white"/>
<path d="M243.67 68.4365C236.164 63.7101 221.425 63.0099 211.919 74.6669C220.425 70.6624 230.57 71.2244 238.623 76.3945L236.196 80.3827L250.603 78.306L246.202 64.3602L243.67 68.4365Z" fill="#30BABA"/>
<path d="M119.756 108.896V112.43H117.739V102.798H124.842V104.356H119.756V107.337H124.685V108.896H119.756ZM127.925 109.101C127.925 109.821 128.057 110.365 128.321 110.734C128.59 111.099 128.971 111.281 129.463 111.281C129.8 111.281 130.076 111.208 130.29 111.062C130.509 110.912 130.661 110.691 130.748 110.399L132.56 110.557C132.035 111.896 130.971 112.566 129.367 112.566C128.255 112.566 127.401 112.238 126.804 111.582C126.207 110.921 125.908 109.96 125.908 108.697C125.908 107.476 126.211 106.537 126.817 105.881C127.424 105.225 128.283 104.896 129.395 104.896C130.456 104.896 131.268 105.25 131.828 105.956C132.389 106.658 132.669 107.688 132.669 109.046V109.101H127.925ZM130.81 107.897C130.773 107.3 130.63 106.854 130.379 106.558C130.128 106.257 129.791 106.106 129.367 106.106C128.916 106.106 128.567 106.264 128.321 106.578C128.08 106.893 127.952 107.332 127.938 107.897H130.81ZM135.718 109.101C135.718 109.821 135.85 110.365 136.114 110.734C136.383 111.099 136.764 111.281 137.256 111.281C137.593 111.281 137.869 111.208 138.083 111.062C138.302 110.912 138.454 110.691 138.541 110.399L140.353 110.557C139.828 111.896 138.764 112.566 137.16 112.566C136.048 112.566 135.194 112.238 134.597 111.582C134 110.921 133.701 109.96 133.701 108.697C133.701 107.476 134.004 106.537 134.61 105.881C135.216 105.225 136.076 104.896 137.188 104.896C138.249 104.896 139.061 105.25 139.621 105.956C140.182 106.658 140.462 107.688 140.462 109.046V109.101H135.718ZM138.603 107.897C138.566 107.3 138.423 106.854 138.172 106.558C137.921 106.257 137.584 106.106 137.16 106.106C136.709 106.106 136.36 106.264 136.114 106.578C135.873 106.893 135.745 107.332 135.731 107.897H138.603ZM146.717 112.43C146.708 112.384 146.694 112.288 146.676 112.143C146.658 111.997 146.642 111.837 146.628 111.664C146.619 111.491 146.614 111.345 146.614 111.227H146.587C146.377 111.673 146.076 112.008 145.685 112.231C145.293 112.455 144.805 112.566 144.222 112.566C143.36 112.566 142.695 112.231 142.226 111.562C141.756 110.887 141.521 109.946 141.521 108.738C141.521 107.512 141.768 106.567 142.26 105.901C142.757 105.231 143.458 104.896 144.365 104.896C144.889 104.896 145.34 105.006 145.719 105.225C146.102 105.443 146.396 105.769 146.601 106.202H146.614L146.601 104.985V102.285H148.521V110.816C148.521 111.044 148.526 111.293 148.535 111.562C148.544 111.83 148.558 112.12 148.576 112.43H146.717ZM143.524 108.738C143.524 109.577 143.65 110.206 143.9 110.625C144.156 111.044 144.534 111.254 145.035 111.254C145.541 111.254 145.933 111.033 146.211 110.591C146.489 110.144 146.628 109.511 146.628 108.69C146.628 107.893 146.493 107.28 146.225 106.852C145.96 106.419 145.568 106.202 145.049 106.202C144.534 106.202 144.151 106.412 143.9 106.831C143.65 107.246 143.524 107.882 143.524 108.738ZM157.483 108.704C157.483 109.925 157.237 110.876 156.745 111.555C156.257 112.229 155.558 112.566 154.646 112.566C154.122 112.566 153.669 112.452 153.286 112.225C152.903 111.997 152.609 111.669 152.404 111.24H152.391C152.391 111.345 152.386 111.482 152.377 111.65C152.368 111.819 152.356 111.979 152.343 112.129C152.329 112.275 152.313 112.375 152.295 112.43H150.429C150.447 112.215 150.461 111.969 150.47 111.691C150.479 111.409 150.483 111.092 150.483 110.741V102.285H152.404V105.115C152.404 105.316 152.4 105.516 152.391 105.717C152.386 105.917 152.382 106.118 152.377 106.318H152.404C152.618 105.844 152.924 105.489 153.32 105.252C153.717 105.015 154.2 104.896 154.77 104.896C155.645 104.896 156.314 105.229 156.779 105.895C157.249 106.555 157.483 107.492 157.483 108.704ZM155.48 108.704C155.48 107.866 155.357 107.243 155.111 106.838C154.865 106.432 154.485 106.229 153.97 106.229C153.45 106.229 153.054 106.448 152.78 106.886C152.511 107.319 152.377 107.945 152.377 108.766C152.377 109.549 152.509 110.16 152.773 110.598C153.042 111.035 153.437 111.254 153.956 111.254C154.466 111.254 154.847 111.042 155.098 110.618C155.353 110.194 155.48 109.556 155.48 108.704ZM160.751 112.566C160.035 112.566 159.477 112.373 159.076 111.985C158.675 111.593 158.475 111.044 158.475 110.338C158.475 109.572 158.723 108.991 159.22 108.595C159.721 108.198 160.446 107.991 161.394 107.973L162.986 107.945V107.569C162.986 107.086 162.902 106.729 162.733 106.496C162.565 106.259 162.289 106.141 161.906 106.141C161.551 106.141 161.289 106.223 161.12 106.387C160.956 106.546 160.854 106.813 160.812 107.187L158.81 107.091C159.06 105.628 160.12 104.896 161.988 104.896C162.923 104.896 163.643 105.127 164.148 105.587C164.654 106.047 164.907 106.701 164.907 107.549V110.242C164.907 110.657 164.953 110.944 165.044 111.104C165.14 111.258 165.297 111.336 165.516 111.336C165.661 111.336 165.803 111.322 165.939 111.295V112.334C165.702 112.393 165.5 112.437 165.331 112.464C165.162 112.496 164.955 112.512 164.709 112.512C164.226 112.512 163.868 112.393 163.636 112.156C163.408 111.919 163.271 111.571 163.226 111.11H163.185C162.916 111.593 162.578 111.958 162.173 112.204C161.767 112.446 161.293 112.566 160.751 112.566ZM162.986 109.005L162.002 109.019C161.551 109.041 161.234 109.089 161.052 109.162C160.865 109.244 160.721 109.367 160.621 109.531C160.525 109.695 160.478 109.914 160.478 110.188C160.478 110.538 160.557 110.8 160.717 110.974C160.881 111.142 161.097 111.227 161.366 111.227C161.667 111.227 161.943 111.145 162.193 110.98C162.439 110.816 162.633 110.591 162.774 110.304C162.916 110.012 162.986 109.704 162.986 109.381V109.005ZM169.918 112.566C168.797 112.566 167.931 112.234 167.32 111.568C166.71 110.898 166.404 109.966 166.404 108.772C166.404 107.551 166.712 106.601 167.327 105.922C167.942 105.238 168.815 104.896 169.945 104.896C170.816 104.896 171.536 105.115 172.105 105.553C172.675 105.99 173.033 106.594 173.179 107.364L171.244 107.46C171.189 107.082 171.053 106.781 170.834 106.558C170.615 106.33 170.305 106.216 169.904 106.216C169.408 106.216 169.036 106.423 168.79 106.838C168.544 107.248 168.421 107.868 168.421 108.697C168.421 109.549 168.546 110.19 168.797 110.618C169.052 111.042 169.43 111.254 169.932 111.254C170.296 111.254 170.602 111.14 170.848 110.912C171.094 110.68 171.246 110.336 171.306 109.88L173.233 109.969C173.165 110.488 172.98 110.944 172.68 111.336C172.383 111.723 171.998 112.026 171.524 112.245C171.05 112.459 170.515 112.566 169.918 112.566ZM176.549 109.654V112.43H174.628V102.285H176.549V108.096L179.188 105.033H181.252L178.654 107.918L181.45 112.43H179.352L177.376 109.08L176.549 109.654Z" fill="#30BABA"/>
</g>
<path d="M444.279 26.4287C444.279 22.5627 441.145 19.4287 437.279 19.4287H50.2793C46.4133 19.4287 43.2793 22.5627 43.2793 26.4287C43.2793 30.2947 46.4133 33.4287 50.2793 33.4287H437.279C441.145 33.4287 444.279 30.2947 444.279 26.4287Z" fill="#28282E"/>
<path d="M78.6072 26.4288C78.6072 28.0583 79.9281 29.3792 81.5575 29.3792C83.1869 29.3792 84.5078 28.0583 84.5078 26.4288C84.5078 24.7994 83.1869 23.4785 81.5575 23.4785C79.9281 23.4785 78.6072 24.7994 78.6072 26.4288Z" fill="#3FCA90"/>
<path d="M67.6619 26.4288C67.6619 28.0583 68.9828 29.3792 70.6122 29.3792C72.2416 29.3792 73.5625 28.0583 73.5625 26.4288C73.5625 24.7994 72.2416 23.4785 70.6122 23.4785C68.9828 23.4785 67.6619 24.7994 67.6619 26.4288Z" fill="#FFE073"/>
<path d="M56.7087 26.4288C56.7087 28.0583 58.0296 29.3792 59.6591 29.3792C61.2885 29.3792 62.6094 28.0583 62.6094 26.4288C62.6094 24.7994 61.2885 23.4785 59.6591 23.4785C58.0296 23.4785 56.7087 24.7994 56.7087 26.4288Z" fill="#ED5050"/>
<defs>
<clipPath id="clip0_1497_1134">
<rect width="343" height="306" fill="white" transform="translate(40.7344 26.4287)"/>
</clipPath>
</defs>
</svg>
