<svg width="652" height="651" viewBox="0 0 652 651" fill="none" xmlns="http://www.w3.org/2000/svg">
<g clip-path="url(#clip0_860_5557)">
<path d="M276.417 60.7148C276.417 60.7148 359.597 50.1348 425.827 110.385C492.057 170.635 511.317 265.725 528.967 342.385C546.617 419.045 512.277 485.585 447.397 505.175C382.517 524.765 353.557 468.635 272.927 448.635C192.297 428.635 167.927 435.425 110.627 374.875C53.3273 314.325 64.8273 203.405 135.417 134.925C206.007 66.4448 276.417 60.7148 276.417 60.7148Z" fill="#263238" fill-opacity="0.3"/>
<path opacity="0.75" d="M276.417 60.7148C276.417 60.7148 359.597 50.1348 425.827 110.385C492.057 170.635 511.317 265.725 528.967 342.385C546.617 419.045 512.277 485.585 447.397 505.175C382.517 524.765 353.557 468.635 272.927 448.635C192.297 428.635 167.927 435.425 110.627 374.875C53.3273 314.325 64.8273 203.405 135.417 134.925C206.007 66.4448 276.417 60.7148 276.417 60.7148Z" fill="#263238" fill-opacity="0.3"/>
<path d="M586.271 518.839H543.146V519.164H586.271V518.839Z" fill="#EBEBEB"/>
<path d="M431.748 522.373H420.43V522.698H431.748V522.373Z" fill="#EBEBEB"/>
<path d="M541.843 506.749H516.855V507.074H541.843V506.749Z" fill="#EBEBEB"/>
<path d="M125.038 508.936H68.8008V509.261H125.038V508.936Z" fill="#EBEBEB"/>
<path d="M144.878 508.936H136.633V509.261H144.878V508.936Z" fill="#EBEBEB"/>
<path d="M293.642 514.434H171.676V514.76H293.642V514.434Z" fill="#EBEBEB"/>
<path d="M309.093 439.815H57.6779C53.5805 439.815 50.2461 436.481 50.2461 432.383V78.9789C50.2461 74.8815 53.5805 71.5471 57.6779 71.5471H309.093C313.189 71.5471 316.523 74.8815 316.523 78.9789V432.383C316.523 436.481 313.189 439.815 309.093 439.815ZM57.6779 71.8739C53.7589 71.8739 50.5716 75.0612 50.5716 78.9802V432.385C50.5716 436.304 53.7589 439.491 57.6779 439.491H309.093C313.011 439.491 316.198 436.304 316.198 432.385V78.9789C316.198 75.0612 313.011 71.8726 309.093 71.8726L57.6779 71.8739Z" fill="#EBEBEB"/>
<path d="M590.709 439.815H339.296C335.198 439.815 331.865 436.481 331.865 432.383V78.9789C331.865 74.8815 335.2 71.5471 339.296 71.5471H590.709C594.808 71.5471 598.141 74.8815 598.141 78.9789V432.383C598.142 436.481 594.808 439.815 590.709 439.815ZM339.296 71.8739C335.378 71.8739 332.191 75.0612 332.191 78.9802V432.385C332.191 436.304 335.378 439.491 339.296 439.491H590.709C594.628 439.491 597.816 436.304 597.816 432.385V78.9789C597.816 75.0612 594.628 71.8726 590.709 71.8726L339.296 71.8739Z" fill="#EBEBEB"/>
<path d="M651.5 497.882H0.5V498.207H651.5V497.882Z" fill="#EBEBEB"/>
<path d="M214.276 499.399H209.259C208.406 499.399 207.715 498.707 207.715 497.855V380.197H215.82V497.855C215.82 498.707 215.128 499.399 214.276 499.399Z" fill="#F0F0F0"/>
<path d="M458.615 369.598H388.363V380.197H458.615V369.598Z" fill="#E6E6E6"/>
<path d="M264.489 499.399H259.472C258.619 499.399 257.928 498.707 257.928 497.855V380.197H266.033V497.855C266.031 498.707 265.341 499.399 264.489 499.399Z" fill="#E6E6E6"/>
<path d="M452.385 499.399H447.368C446.516 499.399 445.824 498.707 445.824 497.855V380.197H453.929V497.855C453.929 498.707 453.238 499.399 452.385 499.399Z" fill="#E6E6E6"/>
<path d="M408.4 369.598H203.029V380.197H408.4V369.598Z" fill="#F5F5F5"/>
<path d="M402.172 499.399H397.156C396.303 499.399 395.611 498.707 395.611 497.855V380.197H403.716V497.855C403.715 498.707 403.025 499.399 402.172 499.399Z" fill="#F0F0F0"/>
<path d="M309.321 387.021H224.865V499.399H309.321V387.021Z" fill="#F5F5F5"/>
<path d="M325.431 387.021H309.32V499.399H325.431V387.021Z" fill="#E6E6E6"/>
<path d="M303.837 395.358H230.779V422.65H303.837V395.358Z" fill="#FAFAFA"/>
<path d="M257.783 395.358L258.102 398.996C258.208 400.197 259.213 401.117 260.417 401.117H274.203C275.407 401.117 276.412 400.197 276.518 398.996L276.837 395.358H257.783Z" fill="#EBEBEB"/>
<path d="M303.837 425.631H230.779V452.923H303.837V425.631Z" fill="#FAFAFA"/>
<path d="M257.783 425.63L258.102 429.268C258.208 430.468 259.213 431.389 260.417 431.389H274.203C275.407 431.389 276.412 430.468 276.518 429.268L276.837 425.63H257.783Z" fill="#EBEBEB"/>
<path d="M303.837 455.903H230.779V483.194H303.837V455.903Z" fill="#FAFAFA"/>
<path d="M257.783 455.903L258.102 459.541C258.208 460.741 259.213 461.662 260.417 461.662H274.203C275.407 461.662 276.412 460.741 276.518 459.541L276.837 455.903H257.783Z" fill="#EBEBEB"/>
<path d="M496.136 366.546H162.079C159.289 366.546 157.027 364.285 157.027 361.495V117.627C157.027 114.837 159.289 112.576 162.079 112.576H496.137C498.927 112.576 501.188 114.837 501.188 117.627V361.495C501.188 364.285 498.926 366.546 496.136 366.546Z" fill="#2FB7B8"/>
<path opacity="0.6" d="M496.136 366.546H162.079C159.289 366.546 157.027 364.285 157.027 361.495V117.627C157.027 114.837 159.289 112.576 162.079 112.576H496.137C498.927 112.576 501.188 114.837 501.188 117.627V361.495C501.188 364.285 498.926 366.546 496.136 366.546Z" fill="white"/>
<path opacity="0.3" d="M224.089 112.576H163.467C159.91 112.576 157.027 115.458 157.027 119.015V360.107C157.027 363.664 159.91 366.546 163.467 366.546H224.089V112.576Z" fill="white"/>
<path d="M494.748 112.576H163.467C159.91 112.576 157.027 115.458 157.027 119.015V135.815H501.188V119.015C501.188 115.458 498.304 112.576 494.748 112.576Z" fill="#263238"/>
<path d="M168.271 120.819C167.65 120.819 167.146 120.315 167.146 119.694C167.146 119.073 167.65 118.569 168.271 118.569H177.142C177.763 118.569 178.267 119.073 178.267 119.694C178.267 120.315 177.763 120.819 177.142 120.819H168.271Z" fill="white"/>
<path d="M168.271 125.321C167.65 125.321 167.146 124.817 167.146 124.196C167.146 123.575 167.65 123.071 168.271 123.071H177.142C177.763 123.071 178.267 123.575 178.267 124.196C178.267 124.817 177.763 125.321 177.142 125.321H168.271Z" fill="white"/>
<path d="M168.271 129.822C167.65 129.822 167.146 129.318 167.146 128.697C167.146 128.076 167.65 127.572 168.271 127.572H177.142C177.763 127.572 178.267 128.076 178.267 128.697C178.267 129.318 177.763 129.822 177.142 129.822H168.271Z" fill="white"/>
<path opacity="0.7" d="M235.938 153.608V228.282C235.938 229.858 237.215 231.136 238.791 231.136H262.093C263.669 231.136 264.947 229.858 264.947 228.282V153.608C264.947 152.033 263.67 150.754 262.093 150.754H238.791C237.216 150.754 235.938 152.031 235.938 153.608Z" fill="#92E3A9"/>
<path opacity="0.4" d="M272.199 153.608V228.282C272.199 229.858 273.476 231.136 275.053 231.136H298.355C299.932 231.136 301.209 229.858 301.209 228.282V153.608C301.209 152.033 299.932 150.754 298.355 150.754H275.053C273.478 150.754 272.199 152.031 272.199 153.608Z" fill="white"/>
<path opacity="0.7" d="M308.461 153.608V228.282C308.461 229.858 309.738 231.136 311.315 231.136H334.617C336.194 231.136 337.471 229.858 337.471 228.282V153.608C337.471 152.033 336.194 150.754 334.617 150.754H311.315C309.74 150.754 308.461 152.031 308.461 153.608Z" fill="#FFA629"/>
<path opacity="0.4" d="M344.725 153.608V228.282C344.725 229.858 346.002 231.136 347.579 231.136H370.88C372.457 231.136 373.734 229.858 373.734 228.282V153.608C373.734 152.033 372.457 150.754 370.88 150.754H347.579C346.003 150.754 344.725 152.031 344.725 153.608Z" fill="white"/>
<path opacity="0.7" d="M380.986 153.608V228.282C380.986 229.858 382.264 231.136 383.84 231.136H407.142C408.719 231.136 409.996 229.858 409.996 228.282V153.608C409.996 152.033 408.719 150.754 407.142 150.754H383.84C382.265 150.754 380.986 152.031 380.986 153.608Z" fill="#3F7FCA"/>
<path opacity="0.4" d="M417.248 153.608V228.282C417.248 229.858 418.525 231.136 420.102 231.136H443.404C444.979 231.136 446.258 229.858 446.258 228.282V153.608C446.258 152.033 444.981 150.754 443.404 150.754H420.102C418.527 150.754 417.248 152.031 417.248 153.608Z" fill="#FF0D0D"/>
<path opacity="0.7" d="M453.51 153.608V228.282C453.51 229.858 454.787 231.136 456.364 231.136H479.666C481.242 231.136 482.52 229.858 482.52 228.282V153.608C482.52 152.033 481.242 150.754 479.666 150.754H456.364C454.787 150.754 453.51 152.031 453.51 153.608Z" fill="white"/>
<path d="M311.597 280.422H310.563V281.754H309.129V280.422H305.713V279.433L308.705 275.409H310.245L307.472 279.225H309.176V278.038H310.564V279.225H311.598L311.597 280.422Z" fill="black"/>
<path d="M316.169 278.327C316.595 278.683 316.808 279.161 316.808 279.759C316.808 280.147 316.712 280.498 316.518 280.815C316.324 281.132 316.03 281.386 315.635 281.576C315.239 281.767 314.751 281.862 314.17 281.862C313.723 281.862 313.284 281.803 312.851 281.685C312.419 281.567 312.052 281.399 311.75 281.181L312.331 280.057C312.572 280.238 312.85 280.379 313.165 280.479C313.479 280.579 313.802 280.629 314.134 280.629C314.502 280.629 314.793 280.557 315.005 280.411C315.216 280.267 315.323 280.064 315.323 279.803C315.323 279.531 315.212 279.325 314.991 279.187C314.771 279.048 314.389 278.978 313.845 278.978H312.221L312.548 275.406H316.419V276.585H313.772L313.672 277.79H314.189C315.083 277.792 315.743 277.97 316.169 278.327Z" fill="black"/>
<path d="M317.648 278.358C317.355 278.042 317.209 277.616 317.209 277.085C317.209 276.553 317.356 276.128 317.648 275.81C317.941 275.494 318.321 275.335 318.786 275.335C319.251 275.335 319.628 275.494 319.918 275.81C320.209 276.128 320.353 276.552 320.353 277.085C320.353 277.616 320.207 278.04 319.918 278.358C319.628 278.676 319.251 278.834 318.786 278.834C318.321 278.834 317.941 278.677 317.648 278.358ZM319.271 277.837C319.389 277.668 319.448 277.417 319.448 277.085C319.448 276.753 319.39 276.501 319.271 276.332C319.153 276.163 318.991 276.078 318.786 276.078C318.586 276.078 318.426 276.165 318.305 276.337C318.184 276.51 318.124 276.759 318.124 277.086C318.124 277.411 318.184 277.661 318.305 277.835C318.426 278.006 318.586 278.092 318.786 278.092C318.991 278.091 319.153 278.006 319.271 277.837ZM322.565 275.408H323.645L319.312 281.754H318.232L322.565 275.408ZM322.28 281.614C322.041 281.472 321.856 281.268 321.723 281.002C321.59 280.737 321.524 280.428 321.524 280.078C321.524 279.726 321.59 279.419 321.723 279.154C321.856 278.888 322.042 278.683 322.28 278.542C322.519 278.4 322.789 278.328 323.091 278.328C323.556 278.328 323.936 278.487 324.229 278.803C324.522 279.121 324.668 279.545 324.668 280.078C324.668 280.609 324.521 281.034 324.229 281.351C323.936 281.669 323.556 281.826 323.091 281.826C322.789 281.826 322.519 281.755 322.28 281.614ZM323.577 280.825C323.696 280.652 323.754 280.403 323.754 280.077C323.754 279.75 323.696 279.501 323.577 279.328C323.46 279.156 323.297 279.069 323.093 279.069C322.894 279.069 322.733 279.153 322.612 279.323C322.491 279.492 322.431 279.743 322.431 280.075C322.431 280.407 322.492 280.659 322.612 280.828C322.733 280.997 322.894 281.082 323.093 281.082C323.297 281.083 323.459 280.997 323.577 280.825Z" fill="black"/>
<path d="M409.987 278.02C410.319 278.182 410.582 278.414 410.775 278.712C410.969 279.012 411.065 279.358 411.065 279.75C411.065 280.173 410.96 280.545 410.749 280.866C410.537 281.186 410.248 281.432 409.882 281.604C409.517 281.777 409.11 281.863 408.663 281.863C407.775 281.863 407.08 281.591 406.579 281.048C406.077 280.504 405.826 279.726 405.826 278.717C405.826 277.999 405.963 277.382 406.235 276.867C406.506 276.354 406.885 275.965 407.372 275.698C407.859 275.432 408.422 275.298 409.063 275.298C409.401 275.298 409.726 275.336 410.039 275.412C410.351 275.488 410.615 275.595 410.832 275.733L410.288 276.813C409.973 276.602 409.579 276.496 409.102 276.496C408.564 276.496 408.137 276.654 407.823 276.968C407.508 277.283 407.34 277.738 407.316 278.336C407.691 277.961 408.214 277.775 408.883 277.775C409.286 277.775 409.655 277.857 409.987 278.02ZM409.349 280.512C409.546 280.342 409.642 280.113 409.642 279.823C409.642 279.532 409.545 279.302 409.349 279.129C409.151 278.956 408.891 278.87 408.564 278.87C408.243 278.87 407.981 278.958 407.775 279.137C407.57 279.315 407.468 279.544 407.468 279.822C407.468 280.1 407.568 280.325 407.767 280.501C407.967 280.677 408.237 280.764 408.583 280.764C408.896 280.765 409.151 280.682 409.349 280.512Z" fill="black"/>
<path d="M415.757 278.327C416.183 278.684 416.397 279.161 416.397 279.759C416.397 280.147 416.3 280.499 416.107 280.815C415.913 281.133 415.619 281.387 415.223 281.577C414.826 281.767 414.338 281.862 413.758 281.862C413.31 281.862 412.872 281.803 412.441 281.685C412.008 281.568 411.641 281.4 411.338 281.181L411.919 280.057C412.161 280.238 412.439 280.379 412.753 280.479C413.066 280.579 413.39 280.629 413.723 280.629C414.092 280.629 414.381 280.557 414.594 280.411C414.805 280.267 414.912 280.064 414.912 279.803C414.912 279.531 414.801 279.326 414.58 279.187C414.36 279.048 413.978 278.978 413.434 278.978H411.812L412.137 275.406H416.008V276.585H413.361L413.262 277.79H413.779C414.67 277.792 415.331 277.97 415.757 278.327Z" fill="black"/>
<path d="M417.236 278.358C416.943 278.042 416.797 277.616 416.797 277.085C416.797 276.553 416.943 276.128 417.236 275.81C417.529 275.494 417.909 275.335 418.374 275.335C418.838 275.335 419.216 275.494 419.506 275.81C419.797 276.128 419.941 276.552 419.941 277.085C419.941 277.616 419.797 278.04 419.506 278.358C419.216 278.676 418.838 278.834 418.374 278.834C417.909 278.834 417.529 278.677 417.236 278.358ZM418.858 277.837C418.976 277.668 419.035 277.417 419.035 277.085C419.035 276.753 418.976 276.501 418.858 276.332C418.739 276.163 418.579 276.078 418.374 276.078C418.174 276.078 418.014 276.165 417.892 276.337C417.772 276.51 417.712 276.759 417.712 277.086C417.712 277.411 417.772 277.661 417.892 277.835C418.013 278.006 418.174 278.092 418.374 278.092C418.579 278.091 418.739 278.006 418.858 277.837ZM422.153 275.408H423.231L418.898 281.754H417.82L422.153 275.408ZM421.868 281.614C421.629 281.472 421.444 281.268 421.311 281.002C421.178 280.737 421.112 280.428 421.112 280.078C421.112 279.726 421.178 279.419 421.311 279.154C421.444 278.888 421.629 278.683 421.868 278.542C422.106 278.4 422.377 278.328 422.678 278.328C423.143 278.328 423.523 278.487 423.816 278.803C424.109 279.121 424.255 279.545 424.255 280.078C424.255 280.609 424.109 281.034 423.816 281.351C423.523 281.669 423.143 281.826 422.678 281.826C422.377 281.826 422.106 281.755 421.868 281.614ZM423.164 280.825C423.282 280.652 423.341 280.403 423.341 280.077C423.341 279.75 423.282 279.501 423.164 279.328C423.046 279.156 422.885 279.069 422.679 279.069C422.48 279.069 422.32 279.153 422.2 279.323C422.079 279.492 422.019 279.743 422.019 280.075C422.019 280.407 422.079 280.659 422.2 280.828C422.32 280.997 422.48 281.082 422.679 281.082C422.885 281.083 423.046 280.997 423.164 280.825Z" fill="black"/>
<path d="M247.722 241.186V247.532H246.254V242.364H244.984V241.186H247.722Z" fill="black"/>
<path d="M249.227 241.186H252.109C252.798 241.186 253.407 241.318 253.936 241.581C254.464 241.844 254.876 242.213 255.169 242.691C255.462 243.169 255.608 243.725 255.608 244.359C255.608 244.993 255.462 245.549 255.169 246.027C254.876 246.505 254.464 246.874 253.936 247.137C253.407 247.4 252.798 247.532 252.109 247.532H249.227V241.186ZM252.038 246.325C252.672 246.325 253.178 246.148 253.556 245.795C253.933 245.442 254.122 244.963 254.122 244.358C254.122 243.754 253.933 243.274 253.556 242.922C253.178 242.567 252.672 242.39 252.038 242.39H250.695V246.325H252.038Z" fill="black"/>
<path d="M282.459 241.186V247.532H280.99V242.364H279.721V241.186H282.459Z" fill="black"/>
<path d="M293.555 241.186L291.48 247.532H289.902L288.506 243.234L287.065 247.532H285.496L283.41 241.186H284.933L286.366 245.647L287.862 241.186H289.222L290.673 245.682L292.15 241.186H293.555Z" fill="black"/>
<path d="M319.662 241.186V247.532H318.193V242.364H316.924V241.186H319.662Z" fill="black"/>
<path d="M326.942 247.532L326.933 243.724L325.066 246.86H324.403L322.545 243.806V247.532H321.168V241.186H322.383L324.759 245.13L327.097 241.186H328.303L328.321 247.532H326.942Z" fill="black"/>
<path d="M365.805 251.783H352.651C349.775 251.783 347.443 249.451 347.443 246.575V242.487C347.443 239.61 349.775 237.279 352.651 237.279H365.805C368.682 237.279 371.013 239.61 371.013 242.487V246.575C371.013 249.451 368.683 251.783 365.805 251.783Z" fill="#2FB7B8"/>
<path d="M356.812 244.39C357.108 244.713 357.256 245.114 357.256 245.591C357.256 245.96 357.159 246.301 356.966 246.612C356.772 246.923 356.478 247.172 356.082 247.36C355.686 247.547 355.2 247.641 354.627 247.641C354.18 247.641 353.741 247.582 353.309 247.464C352.876 247.347 352.509 247.179 352.207 246.96L352.777 245.836C353.019 246.017 353.299 246.158 353.616 246.258C353.933 246.358 354.258 246.408 354.59 246.408C354.958 246.408 355.248 246.337 355.461 246.194C355.672 246.052 355.778 245.852 355.778 245.591C355.778 245.072 355.383 244.813 354.59 244.813H353.919V243.843L355.224 242.365H352.522V241.187H356.965V242.139L355.532 243.77C356.091 243.86 356.515 244.067 356.812 244.39Z" fill="white"/>
<path d="M364.11 247.532L364.101 243.723L362.234 246.86H361.571L359.713 243.805V247.532H358.336V241.186H359.551L361.926 245.13L364.264 241.186H365.47L365.488 247.532H364.11Z" fill="white"/>
<path d="M392.789 243.796C393.121 243.959 393.384 244.191 393.578 244.489C393.772 244.788 393.869 245.135 393.869 245.527C393.869 245.95 393.762 246.322 393.552 246.643C393.34 246.963 393.051 247.209 392.687 247.381C392.321 247.554 391.914 247.64 391.468 247.64C390.58 247.64 389.885 247.368 389.383 246.825C388.882 246.281 388.631 245.503 388.631 244.494C388.631 243.776 388.768 243.158 389.04 242.644C389.312 242.131 389.691 241.742 390.176 241.475C390.663 241.209 391.227 241.075 391.866 241.075C392.205 241.075 392.529 241.113 392.842 241.188C393.153 241.265 393.417 241.372 393.634 241.51L393.09 242.589C392.776 242.378 392.381 242.273 391.903 242.273C391.365 242.273 390.938 242.431 390.624 242.744C390.309 243.059 390.14 243.515 390.116 244.113C390.491 243.738 391.014 243.552 391.684 243.552C392.088 243.552 392.457 243.634 392.789 243.796ZM392.15 246.29C392.347 246.12 392.444 245.891 392.444 245.601C392.444 245.311 392.347 245.08 392.15 244.907C391.954 244.734 391.692 244.648 391.365 244.648C391.045 244.648 390.782 244.736 390.576 244.915C390.37 245.093 390.267 245.322 390.267 245.6C390.267 245.878 390.368 246.104 390.567 246.279C390.766 246.455 391.038 246.542 391.382 246.542C391.698 246.544 391.954 246.459 392.15 246.29Z" fill="black"/>
<path d="M400.577 247.532L400.568 243.723L398.701 246.86H398.039L396.18 243.805V247.532H394.803V241.186H396.018L398.394 245.13L400.732 241.186H401.938L401.956 247.532H400.577Z" fill="black"/>
<path d="M429.713 241.186V247.532H428.244V242.364H426.975V241.186H429.713Z" fill="black"/>
<path d="M434.263 245.283V247.532H432.796V245.265L430.338 241.186H431.898L433.593 244.005L435.288 241.186H436.729L434.263 245.283Z" fill="black"/>
<path d="M466.908 244.39C467.203 244.713 467.352 245.114 467.352 245.592C467.352 245.96 467.254 246.301 467.062 246.612C466.868 246.924 466.573 247.172 466.178 247.36C465.782 247.547 465.296 247.641 464.723 247.641C464.275 247.641 463.837 247.582 463.404 247.464C462.972 247.347 462.605 247.179 462.303 246.96L462.873 245.836C463.115 246.017 463.395 246.158 463.711 246.258C464.029 246.359 464.353 246.408 464.685 246.408C465.054 246.408 465.344 246.338 465.555 246.194C465.767 246.053 465.873 245.852 465.873 245.592C465.873 245.072 465.477 244.813 464.684 244.813H464.014V243.843L465.318 242.365H462.617V241.187H467.059V242.139L465.627 243.77C466.185 243.86 466.611 244.067 466.908 244.39Z" fill="black"/>
<path d="M471.386 245.283V247.532H469.919V245.265L467.461 241.186H469.021L470.716 244.005L472.411 241.186H473.852L471.386 245.283Z" fill="black"/>
<path d="M232.311 207.566C232.163 206.576 232.845 205.653 233.835 205.503L268.082 200.366L304.594 185.219L341.286 180.328L377.288 192.929L413.244 177.348H449.588L483.85 165.926C484.799 165.61 485.826 166.123 486.143 167.072C486.459 168.023 485.946 169.05 484.996 169.366L450.174 180.972H413.994L377.426 196.819L340.903 184.036L305.308 188.782L268.839 203.919L234.37 209.089C233.383 209.237 232.461 208.555 232.311 207.566Z" fill="#2FB7B8"/>
<path d="M268.061 215.531L232.569 186.546C231.793 185.913 231.678 184.772 232.311 183.996C232.944 183.22 234.086 183.105 234.862 183.738L269.085 211.685L304.37 205.804L340.473 192.567L376.892 174.991L413.502 165.229L449.693 170.054L483.835 158.104C484.78 157.773 485.814 158.271 486.145 159.216C486.476 160.161 485.978 161.196 485.033 161.527L450.073 173.763L413.739 168.918L377.993 178.452L341.886 195.902L305.133 209.355L268.061 215.531Z" fill="#263238"/>
<path d="M200.171 158.624C201.423 153.322 198.14 148.009 192.838 146.757C187.536 145.505 182.224 148.788 180.972 154.09C179.72 159.392 183.003 164.705 188.305 165.956C193.606 167.208 198.919 163.925 200.171 158.624Z" fill="#2FB7B8"/>
<path opacity="0.5" d="M214.4 187.189H166.742C165.635 187.189 164.738 186.292 164.738 185.187V175.167C164.738 174.06 165.635 173.163 166.742 173.163H214.4C215.507 173.163 216.404 174.06 216.404 175.167V185.187C216.404 186.294 215.507 187.189 214.4 187.189Z" fill="white"/>
<path d="M171.442 182.263L169.383 183.345L169.777 181.052L168.111 179.428L170.412 179.094L171.442 177.009L172.472 179.094L174.772 179.428L173.107 181.052L173.5 183.345L171.442 182.263Z" fill="#2FB7B8"/>
<path d="M181.006 182.263L178.948 183.345L179.341 181.052L177.676 179.428L179.978 179.094L181.006 177.009L182.036 179.094L184.338 179.428L182.673 181.052L183.066 183.345L181.006 182.263Z" fill="#2FB7B8"/>
<path d="M190.572 182.263L188.514 183.345L188.907 181.052L187.24 179.428L189.542 179.094L190.572 177.009L191.601 179.094L193.903 179.428L192.237 181.052L192.631 183.345L190.572 182.263Z" fill="#2FB7B8"/>
<path opacity="0.9" d="M200.135 182.263L198.077 183.345L198.47 181.052L196.805 179.428L199.107 179.094L200.135 177.009L201.165 179.094L203.467 179.428L201.802 181.052L202.195 183.345L200.135 182.263Z" fill="white"/>
<path opacity="0.9" d="M209.701 182.263L207.641 183.345L208.034 181.052L206.369 179.428L208.671 179.094L209.701 177.009L210.73 179.094L213.031 179.428L211.366 181.052L211.759 183.345L209.701 182.263Z" fill="white"/>
<path d="M200.169 212.916C201.421 207.615 198.138 202.302 192.836 201.05C187.534 199.798 182.222 203.081 180.97 208.383C179.718 213.685 183.001 218.997 188.303 220.249C193.604 221.501 198.917 218.218 200.169 212.916Z" fill="#263238"/>
<path opacity="0.7" d="M200.169 212.916C201.421 207.615 198.138 202.302 192.836 201.05C187.534 199.798 182.222 203.081 180.97 208.383C179.718 213.685 183.001 218.997 188.303 220.249C193.604 221.501 198.917 218.218 200.169 212.916Z" fill="white"/>
<path opacity="0.5" d="M214.4 241.48H166.742C165.635 241.48 164.738 240.583 164.738 239.478V229.457C164.738 228.351 165.635 227.454 166.742 227.454H214.4C215.507 227.454 216.404 228.351 216.404 229.457V239.478C216.404 240.583 215.507 241.48 214.4 241.48Z" fill="white"/>
<path d="M171.442 236.552L169.383 237.634L169.777 235.343L168.111 233.719L170.412 233.384L171.442 231.299L172.472 233.384L174.772 233.719L173.107 235.343L173.5 237.634L171.442 236.552Z" fill="#2FB7B8"/>
<path d="M181.006 236.552L178.948 237.634L179.341 235.343L177.676 233.719L179.978 233.384L181.006 231.299L182.036 233.384L184.338 233.719L182.673 235.343L183.066 237.634L181.006 236.552Z" fill="#2FB7B8"/>
<path opacity="0.9" d="M190.572 236.552L188.514 237.634L188.907 235.343L187.24 233.719L189.542 233.384L190.572 231.299L191.601 233.384L193.903 233.719L192.237 235.343L192.631 237.634L190.572 236.552Z" fill="white"/>
<path opacity="0.9" d="M200.135 236.552L198.077 237.634L198.47 235.343L196.805 233.719L199.107 233.384L200.135 231.299L201.165 233.384L203.467 233.719L201.802 235.343L202.195 237.634L200.135 236.552Z" fill="white"/>
<path opacity="0.9" d="M209.701 236.552L207.641 237.634L208.034 235.343L206.369 233.719L208.671 233.384L209.701 231.299L210.73 233.384L213.031 233.719L211.366 235.343L211.759 237.634L209.701 236.552Z" fill="white"/>
<path d="M197.544 271.894C201.396 268.042 201.396 261.797 197.544 257.945C193.691 254.093 187.446 254.093 183.594 257.945C179.742 261.797 179.742 268.042 183.594 271.894C187.446 275.746 193.691 275.746 197.544 271.894Z" fill="#2FB7B8"/>
<path opacity="0.3" d="M197.544 271.894C201.396 268.042 201.396 261.797 197.544 257.945C193.691 254.093 187.446 254.093 183.594 257.945C179.742 261.797 179.742 268.042 183.594 271.894C187.446 275.746 193.691 275.746 197.544 271.894Z" fill="white"/>
<path opacity="0.5" d="M214.4 295.77H166.742C165.635 295.77 164.738 294.873 164.738 293.767V283.747C164.738 282.64 165.635 281.743 166.742 281.743H214.4C215.507 281.743 216.404 282.64 216.404 283.747V293.767C216.404 294.873 215.507 295.77 214.4 295.77Z" fill="white"/>
<path d="M171.442 290.841L169.383 291.925L169.777 289.632L168.111 288.008L170.412 287.674L171.442 285.588L172.472 287.674L174.772 288.008L173.107 289.632L173.5 291.925L171.442 290.841Z" fill="#2FB7B8"/>
<path d="M181.006 290.841L178.948 291.925L179.341 289.632L177.676 288.008L179.978 287.674L181.006 285.588L182.036 287.674L184.338 288.008L182.673 289.632L183.066 291.925L181.006 290.841Z" fill="#2FB7B8"/>
<path d="M190.572 290.841L188.514 291.925L188.907 289.632L187.24 288.008L189.542 287.674L190.572 285.588L191.601 287.674L193.903 288.008L192.237 289.632L192.631 291.925L190.572 290.841Z" fill="#2FB7B8"/>
<path d="M200.135 290.841L198.077 291.925L198.47 289.632L196.805 288.008L199.107 287.674L200.135 285.588L201.165 287.674L203.467 288.008L201.802 289.632L202.195 291.925L200.135 290.841Z" fill="#2FB7B8"/>
<path opacity="0.9" d="M209.701 290.841L207.641 291.925L208.034 289.632L206.369 288.008L208.671 287.674L209.701 285.588L210.73 287.674L213.031 288.008L211.366 289.632L211.759 291.925L209.701 290.841Z" fill="white"/>
<path d="M197.542 326.184C201.394 322.331 201.394 316.086 197.542 312.234C193.69 308.382 187.444 308.382 183.592 312.234C179.74 316.086 179.74 322.331 183.592 326.184C187.444 330.036 193.69 330.036 197.542 326.184Z" fill="#263238"/>
<path opacity="0.5" d="M197.542 326.184C201.394 322.331 201.394 316.086 197.542 312.234C193.69 308.382 187.444 308.382 183.592 312.234C179.74 316.086 179.74 322.331 183.592 326.184C187.444 330.036 193.69 330.036 197.542 326.184Z" fill="white"/>
<path opacity="0.5" d="M214.4 350.059H166.742C165.635 350.059 164.738 349.162 164.738 348.055V338.035C164.738 336.929 165.635 336.031 166.742 336.031H214.4C215.507 336.031 216.404 336.929 216.404 338.035V348.055C216.404 349.162 215.507 350.059 214.4 350.059Z" fill="white"/>
<path d="M171.442 345.132L169.383 346.214L169.777 343.921L168.111 342.298L170.412 341.963L171.442 339.877L172.472 341.963L174.772 342.298L173.107 343.921L173.5 346.214L171.442 345.132Z" fill="#2FB7B8"/>
<path d="M181.006 345.132L178.948 346.214L179.341 343.921L177.676 342.298L179.978 341.963L181.006 339.877L182.036 341.963L184.338 342.298L182.673 343.921L183.066 346.214L181.006 345.132Z" fill="#2FB7B8"/>
<path opacity="0.9" d="M190.572 345.132L188.514 346.214L188.907 343.921L187.24 342.298L189.542 341.963L190.572 339.877L191.601 341.963L193.903 342.298L192.237 343.921L192.631 346.214L190.572 345.132Z" fill="white"/>
<path d="M190.572 345.132L188.514 346.214L188.907 343.921L187.24 342.298L189.542 341.963L190.572 339.877V345.132Z" fill="#2FB7B8"/>
<path opacity="0.9" d="M200.135 345.132L198.077 346.214L198.47 343.921L196.805 342.298L199.107 341.963L200.135 339.877L201.165 341.963L203.467 342.298L201.802 343.921L202.195 346.214L200.135 345.132Z" fill="white"/>
<path opacity="0.9" d="M209.701 345.132L207.641 346.214L208.034 343.921L206.369 342.298L208.671 341.963L209.701 339.877L210.73 341.963L213.031 342.298L211.366 343.921L211.759 346.214L209.701 345.132Z" fill="white"/>
<path d="M246.498 328.044H235.938V348.027H246.498V328.044Z" fill="#2FB7B8"/>
<path d="M271.988 320.407H261.428V348.025H271.988V320.407Z" fill="#2FB7B8"/>
<path d="M297.478 306.381H286.918V348.026H297.478V306.381Z" fill="#2FB7B8"/>
<path d="M259.244 316.563H248.684V348.026H259.244V316.563Z" fill="#263238"/>
<path d="M284.732 313.395H274.172V348.026H284.732V313.395Z" fill="#263238"/>
<path d="M310.225 314.214H299.664V348.025H310.225V314.214Z" fill="#263238"/>
<g opacity="0.6">
<path d="M259.244 316.563H248.684V348.026H259.244V316.563Z" fill="white"/>
<path d="M284.732 313.395H274.172V348.026H284.732V313.395Z" fill="white"/>
<path d="M310.225 314.214H299.664V348.025H310.225V314.214Z" fill="white"/>
</g>
<path d="M322.967 302.377H312.406V348.026H322.967V302.377Z" fill="#2FB7B8"/>
<path d="M424.499 348.027H337.471L343.365 328.044L355.496 316.563L368.241 334.217L380.985 313.395L393.73 327.204L406.475 314.214L419.219 302.377H424.499V348.027Z" fill="#2FB7B8"/>
<path opacity="0.8" d="M424.499 348.027H337.471L343.365 334.683L355.496 324.863L368.241 334.217L380.985 323.354L393.73 327.204L406.475 324.174L419.219 318.977L424.499 302.377V348.027Z" fill="white"/>
<path d="M460.697 282.208H481.912C481.912 270.492 472.414 260.993 460.697 260.993C448.98 260.993 439.482 270.492 439.482 282.208H460.697Z" fill="#2FB7B8"/>
<path opacity="0.5" d="M460.697 282.208H481.912C481.912 270.492 472.414 260.993 460.697 260.993C448.98 260.993 439.482 270.492 439.482 282.208H460.697Z" fill="white"/>
<path opacity="0.7" d="M475.7 267.207C471.86 263.367 466.557 260.993 460.699 260.993C448.982 260.993 439.484 270.492 439.484 282.208H460.699L475.7 267.207Z" fill="white"/>
<path opacity="0.2" d="M445.697 267.178L460.698 282.178V260.963C454.84 260.963 449.537 263.338 445.697 267.178Z" fill="black"/>
<path d="M445.697 267.178L460.698 282.178V260.963C454.84 260.963 449.537 263.338 445.697 267.178Z" fill="#2FB7B8"/>
<path opacity="0.5" d="M445.697 267.178L460.698 282.178V260.963C454.84 260.963 449.537 263.338 445.697 267.178Z" fill="white"/>
<path d="M472.398 272.033L470.874 270.504L461.276 280.078C461.087 280.026 460.903 279.961 460.698 279.961C459.474 279.961 458.48 280.953 458.48 282.178C458.48 283.402 459.473 284.395 460.698 284.395C461.922 284.395 462.914 283.403 462.914 282.178C462.914 281.975 462.85 281.793 462.798 281.607L472.398 272.033Z" fill="black"/>
<path d="M460.697 315.547H481.912C481.912 303.83 472.414 294.332 460.697 294.332C448.98 294.332 439.482 303.83 439.482 315.547H460.697Z" fill="#2FB7B8"/>
<path opacity="0.5" d="M460.697 315.547H481.912C481.912 303.83 472.414 294.332 460.697 294.332C448.98 294.332 439.482 303.83 439.482 315.547H460.697Z" fill="white"/>
<path opacity="0.7" d="M475.7 300.547C471.86 296.707 466.557 294.334 460.699 294.334C448.982 294.334 439.484 303.832 439.484 315.549H460.699L475.7 300.547Z" fill="white"/>
<path d="M445.697 300.517L460.698 315.517V294.304C454.84 294.304 449.537 296.677 445.697 300.517Z" fill="#2FB7B8"/>
<path opacity="0.5" d="M445.697 300.517L460.698 315.517V294.304C454.84 294.304 449.537 296.677 445.697 300.517Z" fill="white"/>
<path d="M461.776 313.62V301.289H459.618V313.62C458.951 314.002 458.48 314.693 458.48 315.517C458.48 316.741 459.473 317.735 460.698 317.735C461.922 317.735 462.914 316.742 462.914 315.517C462.914 314.693 462.444 314.003 461.776 313.62Z" fill="black"/>
<path d="M460.697 348.886H481.912C481.912 337.169 472.414 327.671 460.697 327.671C448.98 327.671 439.482 337.169 439.482 348.886H460.697Z" fill="#2FB7B8"/>
<path opacity="0.5" d="M460.697 348.886H481.912C481.912 337.169 472.414 327.671 460.697 327.671C448.98 327.671 439.482 337.169 439.482 348.886H460.697Z" fill="white"/>
<path opacity="0.7" d="M475.7 333.886C471.86 330.046 466.557 327.673 460.699 327.673C448.982 327.673 439.484 337.171 439.484 348.887H460.699L475.7 333.886Z" fill="white"/>
<path d="M445.697 333.856L460.698 348.856V327.641C454.84 327.643 449.537 330.018 445.697 333.856Z" fill="#2FB7B8"/>
<path opacity="0.5" d="M445.697 333.856L460.698 348.856V327.641C454.84 327.643 449.537 330.018 445.697 333.856Z" fill="white"/>
<path d="M472.398 338.712L470.874 337.184L461.276 346.757C461.087 346.705 460.903 346.64 460.698 346.64C459.474 346.64 458.48 347.632 458.48 348.857C458.48 350.081 459.473 351.075 460.698 351.075C461.922 351.075 462.914 350.083 462.914 348.857C462.914 348.654 462.85 348.472 462.798 348.286L472.398 338.712Z" fill="black"/>
<path d="M489.546 133.923L475.29 134.078C473.331 134.099 471.759 135.706 471.781 137.665L471.91 149.593C471.931 151.548 473.53 153.117 475.486 153.103L479.61 153.072L481.392 155.829C481.996 156.764 483.372 156.742 483.945 155.787L485.64 152.956L489.741 152.925C491.706 152.91 493.284 151.302 493.262 149.338L493.133 137.434C493.111 135.473 491.505 133.901 489.546 133.923Z" fill="#2FB7B8"/>
<path d="M478.584 143.578C478.828 143.696 479.019 143.867 479.161 144.086C479.302 144.304 479.373 144.558 479.373 144.846C479.373 145.156 479.295 145.428 479.142 145.662C478.985 145.898 478.776 146.078 478.506 146.204C478.238 146.33 477.943 146.393 477.614 146.393C476.962 146.393 476.453 146.193 476.086 145.795C475.72 145.397 475.535 144.828 475.535 144.089C475.535 143.562 475.635 143.112 475.835 142.735C476.034 142.359 476.311 142.073 476.668 141.879C477.025 141.683 477.436 141.586 477.906 141.586C478.153 141.586 478.39 141.613 478.62 141.669C478.849 141.724 479.041 141.803 479.2 141.905L478.803 142.694C478.573 142.539 478.282 142.462 477.932 142.462C477.539 142.462 477.226 142.577 476.997 142.807C476.767 143.037 476.642 143.371 476.625 143.81C476.901 143.535 477.282 143.398 477.775 143.398C478.071 143.399 478.34 143.458 478.584 143.578ZM478.117 145.404C478.26 145.281 478.333 145.112 478.333 144.899C478.333 144.687 478.26 144.518 478.117 144.392C477.973 144.267 477.781 144.203 477.542 144.203C477.308 144.203 477.116 144.268 476.965 144.399C476.814 144.53 476.739 144.697 476.739 144.901C476.739 145.104 476.812 145.27 476.958 145.399C477.104 145.527 477.303 145.591 477.556 145.591C477.786 145.589 477.973 145.528 478.117 145.404Z" fill="white"/>
<path d="M480.727 146.108C480.428 145.917 480.191 145.641 480.02 145.281C479.85 144.92 479.764 144.49 479.764 143.989C479.764 143.488 479.85 143.058 480.02 142.698C480.191 142.337 480.428 142.061 480.727 141.872C481.029 141.682 481.373 141.586 481.757 141.586C482.142 141.586 482.485 141.681 482.787 141.872C483.089 142.062 483.323 142.337 483.494 142.698C483.664 143.06 483.75 143.489 483.75 143.989C483.75 144.489 483.664 144.92 483.494 145.281C483.323 145.641 483.089 145.917 482.787 146.108C482.485 146.298 482.144 146.393 481.757 146.393C481.373 146.393 481.029 146.298 480.727 146.108ZM482.425 145.118C482.586 144.875 482.666 144.498 482.666 143.989C482.666 143.48 482.586 143.104 482.425 142.86C482.262 142.617 482.041 142.496 481.757 142.496C481.478 142.496 481.258 142.617 481.097 142.86C480.935 143.104 480.853 143.48 480.853 143.989C480.853 144.498 480.934 144.875 481.097 145.118C481.257 145.361 481.478 145.484 481.757 145.484C482.041 145.484 482.262 145.361 482.425 145.118Z" fill="white"/>
<path d="M484.516 143.826C484.303 143.593 484.193 143.284 484.193 142.894C484.193 142.505 484.301 142.194 484.516 141.962C484.73 141.729 485.01 141.613 485.35 141.613C485.691 141.613 485.967 141.729 486.179 141.962C486.391 142.195 486.498 142.506 486.498 142.894C486.498 143.284 486.391 143.595 486.179 143.826C485.967 144.06 485.689 144.175 485.35 144.175C485.008 144.175 484.73 144.06 484.516 143.826ZM485.705 143.445C485.791 143.321 485.835 143.138 485.835 142.894C485.835 142.651 485.791 142.467 485.705 142.343C485.619 142.22 485.501 142.157 485.35 142.157C485.204 142.157 485.087 142.221 484.998 142.346C484.908 142.472 484.865 142.655 484.865 142.894C484.865 143.134 484.909 143.316 484.998 143.442C485.087 143.569 485.204 143.631 485.35 143.631C485.501 143.631 485.619 143.569 485.705 143.445ZM488.118 141.666H488.909L485.735 146.313H484.943L488.118 141.666ZM487.909 146.21C487.735 146.106 487.598 145.957 487.5 145.763C487.403 145.569 487.355 145.342 487.355 145.085C487.355 144.829 487.403 144.604 487.5 144.408C487.598 144.214 487.734 144.063 487.909 143.961C488.085 143.856 488.282 143.804 488.504 143.804C488.844 143.804 489.121 143.921 489.338 144.153C489.551 144.385 489.658 144.696 489.658 145.085C489.658 145.475 489.551 145.786 489.338 146.018C489.121 146.251 488.844 146.367 488.504 146.367C488.282 146.367 488.084 146.315 487.909 146.21ZM488.858 145.632C488.944 145.506 488.989 145.324 488.989 145.084C488.989 144.846 488.944 144.662 488.858 144.537C488.773 144.411 488.653 144.347 488.503 144.347C488.357 144.347 488.239 144.41 488.151 144.533C488.063 144.657 488.019 144.841 488.019 145.084C488.019 145.328 488.063 145.513 488.151 145.635C488.239 145.759 488.357 145.821 488.503 145.821C488.653 145.822 488.773 145.759 488.858 145.632Z" fill="white"/>
<path d="M475.533 196.301L489.788 196.146C491.748 196.125 493.319 194.518 493.297 192.559L493.168 180.631C493.147 178.676 491.548 177.107 489.593 177.121L485.468 177.152L483.687 174.395C483.083 173.46 481.707 173.482 481.134 174.438L479.439 177.267L475.337 177.298C473.374 177.312 471.795 178.92 471.817 180.885L471.946 192.789C471.966 194.75 473.573 196.322 475.533 196.301Z" fill="#263238"/>
<path d="M478.719 187.421C479.03 187.683 479.187 188.032 479.187 188.47C479.187 188.753 479.116 189.011 478.974 189.244C478.834 189.477 478.618 189.662 478.327 189.801C478.037 189.94 477.679 190.011 477.254 190.011C476.928 190.011 476.606 189.968 476.288 189.882C475.972 189.795 475.704 189.672 475.482 189.513L475.907 188.691C476.084 188.823 476.288 188.926 476.517 188.999C476.747 189.072 476.985 189.108 477.227 189.108C477.497 189.108 477.71 189.055 477.864 188.95C478.02 188.843 478.097 188.696 478.097 188.504C478.097 188.305 478.016 188.154 477.853 188.053C477.692 187.951 477.412 187.899 477.014 187.899H475.825L476.063 185.283H478.898V186.146H476.959L476.886 187.029H477.265C477.924 187.029 478.407 187.161 478.719 187.421Z" fill="white"/>
<path d="M480.587 189.726C480.287 189.536 480.05 189.26 479.88 188.899C479.709 188.538 479.623 188.109 479.623 187.607C479.623 187.107 479.709 186.676 479.88 186.316C480.05 185.955 480.287 185.679 480.587 185.49C480.889 185.3 481.232 185.204 481.616 185.204C482.002 185.204 482.344 185.3 482.646 185.49C482.948 185.68 483.183 185.955 483.353 186.316C483.524 186.678 483.61 187.107 483.61 187.607C483.61 188.107 483.524 188.538 483.353 188.899C483.183 189.26 482.948 189.536 482.646 189.726C482.344 189.916 482.003 190.011 481.616 190.011C481.232 190.011 480.889 189.916 480.587 189.726ZM482.284 188.736C482.447 188.493 482.527 188.116 482.527 187.607C482.527 187.098 482.447 186.722 482.284 186.479C482.123 186.235 481.9 186.114 481.616 186.114C481.338 186.114 481.116 186.235 480.956 186.479C480.794 186.722 480.713 187.098 480.713 187.607C480.713 188.116 480.794 188.493 480.956 188.736C481.116 188.98 481.338 189.102 481.616 189.102C481.9 189.102 482.122 188.98 482.284 188.736Z" fill="white"/>
<path d="M484.376 187.445C484.162 187.211 484.053 186.902 484.053 186.511C484.053 186.122 484.161 185.811 484.376 185.577C484.589 185.344 484.869 185.229 485.209 185.229C485.549 185.229 485.826 185.344 486.038 185.577C486.251 185.811 486.357 186.122 486.357 186.511C486.357 186.9 486.251 187.211 486.038 187.445C485.826 187.678 485.549 187.793 485.209 187.793C484.868 187.793 484.589 187.678 484.376 187.445ZM485.563 187.063C485.649 186.939 485.693 186.756 485.693 186.512C485.693 186.269 485.649 186.085 485.563 185.962C485.477 185.838 485.359 185.775 485.208 185.775C485.062 185.775 484.945 185.839 484.856 185.964C484.766 186.09 484.723 186.273 484.723 186.512C484.723 186.752 484.768 186.934 484.856 187.06C484.945 187.187 485.062 187.249 485.208 187.249C485.36 187.248 485.477 187.187 485.563 187.063ZM487.977 185.283H488.769L485.594 189.931H484.803L487.977 185.283ZM487.769 189.828C487.594 189.724 487.457 189.575 487.36 189.381C487.262 189.187 487.214 188.96 487.214 188.704C487.214 188.447 487.262 188.222 487.36 188.027C487.457 187.833 487.593 187.681 487.769 187.579C487.943 187.474 488.141 187.422 488.364 187.422C488.705 187.422 488.981 187.54 489.197 187.771C489.41 188.003 489.519 188.314 489.519 188.704C489.519 189.093 489.412 189.404 489.197 189.637C488.982 189.87 488.705 189.986 488.364 189.986C488.141 189.985 487.943 189.933 487.769 189.828ZM488.718 189.25C488.804 189.125 488.848 188.942 488.848 188.702C488.848 188.464 488.804 188.28 488.718 188.155C488.632 188.029 488.512 187.965 488.362 187.965C488.217 187.965 488.098 188.028 488.011 188.151C487.921 188.275 487.878 188.459 487.878 188.702C487.878 188.946 487.922 189.131 488.011 189.253C488.098 189.377 488.217 189.439 488.362 189.439C488.512 189.44 488.632 189.377 488.718 189.25Z" fill="white"/>
<path d="M339.999 278.223C339.054 278.223 338.287 277.456 338.287 276.51C338.287 275.565 339.054 274.798 339.999 274.798H392.962C393.907 274.798 394.674 275.565 394.674 276.51C394.674 277.456 393.907 278.223 392.962 278.223H339.999Z" fill="#263238"/>
<path d="M339.999 290.568C339.054 290.568 338.287 289.801 338.287 288.856C338.287 287.911 339.054 287.144 339.999 287.144H382.638C383.584 287.144 384.351 287.911 384.351 288.856C384.351 289.801 383.584 290.568 382.638 290.568H339.999Z" fill="#263238"/>
<path d="M339.999 284.395C339.054 284.395 338.287 283.629 338.287 282.683C338.287 281.738 339.054 280.971 339.999 280.971H378.282C379.227 280.971 379.994 281.738 379.994 282.683C379.994 283.629 379.227 284.395 378.282 284.395H339.999Z" fill="#263238"/>
<g opacity="0.5">
<path d="M339.999 278.223C339.054 278.223 338.287 277.456 338.287 276.51C338.287 275.565 339.054 274.798 339.999 274.798H392.962C393.907 274.798 394.674 275.565 394.674 276.51C394.674 277.456 393.907 278.223 392.962 278.223H339.999Z" fill="white"/>
<path d="M339.999 290.568C339.054 290.568 338.287 289.801 338.287 288.856C338.287 287.911 339.054 287.144 339.999 287.144H382.638C383.584 287.144 384.351 287.911 384.351 288.856C384.351 289.801 383.584 290.568 382.638 290.568H339.999Z" fill="white"/>
<path d="M339.999 284.395C339.054 284.395 338.287 283.629 338.287 282.683C338.287 281.738 339.054 280.971 339.999 280.971H378.282C379.227 280.971 379.994 281.738 379.994 282.683C379.994 283.629 379.227 284.395 378.282 284.395H339.999Z" fill="white"/>
</g>
<path d="M237.65 278.223C236.704 278.223 235.938 277.456 235.938 276.51C235.938 275.565 236.704 274.798 237.65 274.798H290.612C291.558 274.798 292.325 275.565 292.325 276.51C292.325 277.456 291.558 278.223 290.612 278.223H237.65Z" fill="#263238"/>
<path d="M237.65 290.568C236.704 290.568 235.938 289.801 235.938 288.856C235.938 287.911 236.704 287.144 237.65 287.144H268.67C269.615 287.144 270.382 287.911 270.382 288.856C270.382 289.801 269.615 290.568 268.67 290.568H237.65Z" fill="#263238"/>
<path d="M237.65 284.395C236.704 284.395 235.938 283.629 235.938 282.683C235.938 281.738 236.704 280.971 237.65 280.971H282.571C283.516 280.971 284.283 281.738 284.283 282.683C284.283 283.629 283.516 284.395 282.571 284.395H237.65Z" fill="#263238"/>
<g opacity="0.5">
<path d="M237.65 278.223C236.704 278.223 235.938 277.456 235.938 276.51C235.938 275.565 236.704 274.798 237.65 274.798H290.612C291.558 274.798 292.325 275.565 292.325 276.51C292.325 277.456 291.558 278.223 290.612 278.223H237.65Z" fill="white"/>
<path d="M237.65 290.568C236.704 290.568 235.938 289.801 235.938 288.856C235.938 287.911 236.704 287.144 237.65 287.144H268.67C269.615 287.144 270.382 287.911 270.382 288.856C270.382 289.801 269.615 290.568 268.67 290.568H237.65Z" fill="white"/>
<path d="M237.65 284.395C236.704 284.395 235.938 283.629 235.938 282.683C235.938 281.738 236.704 280.971 237.65 280.971H282.571C283.516 280.971 284.283 281.738 284.283 282.683C284.283 283.629 283.516 284.395 282.571 284.395H237.65Z" fill="white"/>
</g>
<path d="M162.73 258.03C161.248 256.779 158.983 257.229 158.041 258.924C152.755 268.447 137.573 297.22 142.408 305.227C148.231 314.87 175.881 314.097 175.881 314.097L177.216 305.916L159.471 296.733C159.471 296.733 164.939 285.825 166.603 282.116C169.166 276.412 172.978 266.683 162.73 258.03Z" fill="#263238"/>
<path opacity="0.4" d="M159.473 296.733C159.473 296.733 164.94 285.825 166.607 282.116C168.455 277.995 170.957 271.773 168.34 265.375L163.81 260.568L159.473 261.94C159.473 261.94 150.682 304.317 159.502 313.011C162.521 313.485 165.504 313.761 168.08 313.916C171.179 312.118 173.439 308.233 174.935 304.735L159.473 296.733Z" fill="black"/>
<path d="M188.708 217.935C188.463 217.076 188.719 216.25 189.28 216.089C189.841 215.928 190.495 216.495 190.741 217.353C190.985 218.212 190.73 219.038 190.168 219.198C189.608 219.359 188.954 218.793 188.708 217.935Z" fill="#263238"/>
<path d="M189.838 219.238L196.396 223.444C196.396 223.444 195.094 225.82 191.865 226.109L189.838 219.238Z" fill="#A24E3F"/>
<path d="M159.333 227.266C163.733 237.654 165.375 242.155 172.661 245.709C182.815 248.364 195.44 243.38 194.226 231.879C193.139 221.53 186.141 206.318 174.224 205.707C165.729 205.274 158.491 211.81 158.059 220.305C157.937 222.694 158.373 225.076 159.333 227.266Z" fill="#B97964"/>
<path d="M186.626 216.341C186.793 216.289 186.926 216.161 186.982 215.996C187.333 214.711 188.282 213.675 189.532 213.214C189.804 213.132 189.961 212.847 189.885 212.573C189.802 212.298 189.517 212.137 189.238 212.21C187.652 212.77 186.436 214.064 185.975 215.682C185.878 215.945 186.012 216.24 186.276 216.337C186.284 216.34 186.293 216.344 186.301 216.346C186.406 216.383 186.522 216.381 186.626 216.341Z" fill="#263238"/>
<path opacity="0.2" d="M183.538 240.827C183.538 240.827 191.092 242.363 194.077 235.766C193.063 241.06 188.66 244.436 183.359 245.759L181.539 244.488L182.523 241.801L183.538 240.827Z" fill="black"/>
<path d="M168.904 260.265C168.904 260.265 176.193 256.697 170.939 242.802C170.939 242.802 176.758 237.029 182.808 239.478C188.857 241.927 183.78 254.725 190.9 256.698C190.9 256.698 187.182 261.846 168.904 260.265Z" fill="#B97964"/>
<path d="M170.285 253.267C170.285 253.267 168.966 248.537 177.058 246.554C185.148 244.571 191.876 247.006 192.954 250.551C194.032 254.098 170.285 253.267 170.285 253.267Z" fill="#263238"/>
<path opacity="0.2" d="M170.285 253.267C170.285 253.267 168.966 248.537 177.058 246.554C185.148 244.571 191.876 247.006 192.954 250.551C194.032 254.098 170.285 253.267 170.285 253.267Z" fill="white"/>
<path d="M186.629 224.713C186.629 224.713 189.285 222.507 186.629 220.069C183.973 217.63 180.089 215.554 181.232 212.192C182.375 208.83 177.174 206.506 177.174 206.506C177.174 206.506 182.265 203.186 179.277 200.53C176.203 197.797 174.936 202.854 167.766 205.687C159.51 208.95 150.279 216.8 155.923 227.092C161.567 237.385 166.548 246.018 173.299 244.358C180.05 242.698 183.261 229.637 183.261 229.637L186.629 224.713Z" fill="#263238"/>
<path d="M184.771 221.178C186.647 222.517 187.914 224.547 188.291 226.821C188.767 229.842 185.972 231.024 183.305 229.912C180.889 228.907 177.759 226.123 178.502 223.215C179.246 220.307 182.459 219.569 184.771 221.178Z" fill="#B97964"/>
<path d="M200.656 510.99L203.217 528.358L213.666 527.975L214.451 510.001L200.656 510.99Z" fill="#B97964"/>
<path d="M213.091 526.737L202.793 526.954C202.345 526.962 201.961 527.28 201.872 527.72L199.898 537.438C199.717 538.299 200.267 539.144 201.128 539.324C201.239 539.348 201.352 539.36 201.464 539.358C205.751 539.206 209.561 538.901 214.901 538.81C221.202 538.697 219.616 539.479 227.026 539.451C231.491 539.429 232.215 534.339 230.318 534.124C221.636 533.192 219.088 530.593 215.691 527.553C214.954 526.972 214.028 526.682 213.091 526.737Z" fill="#263238"/>
<path d="M149.724 510.99L149.047 526.381L159.894 527.802L163.517 510.001L149.724 510.99Z" fill="#B97964"/>
<path d="M159.263 525.016L148.984 524.37C148.536 524.34 148.129 524.625 148.001 525.055L145.22 534.574C144.967 535.416 145.445 536.304 146.288 536.557C146.396 536.589 146.508 536.61 146.62 536.619C150.904 536.826 154.726 536.842 160.055 537.198C166.344 537.614 164.698 538.261 172.084 538.852C176.534 539.203 177.683 534.193 175.81 533.82C167.237 532.164 164.917 529.36 161.785 526.047C161.1 525.408 160.202 525.039 159.263 525.016Z" fill="#263238"/>
<path d="M174.593 306.342L180.978 307.877L191.787 305.146L193.533 309.919L194.877 316.61L186.28 318.08L179.216 313.822L170.205 313.64L174.593 306.342Z" fill="#B97964"/>
<path d="M159.317 259.769L164.591 333.897L221.258 334.34C221.258 334.34 228.172 313.868 219.628 284.867L211.282 256.892C210.581 254.538 208.695 252.727 206.31 252.138C197.908 250.066 177.481 247.587 161.541 255.819C160.079 256.573 159.201 258.126 159.317 259.769Z" fill="#263238"/>
<path d="M163.316 334.481C160.142 349.174 159.31 359.468 159.354 366.343C159.37 368.776 159.495 370.781 159.664 372.4C160.175 377.274 160.353 382.18 160.05 387.073L159.972 388.332C159.098 402.441 158.947 416.858 158.97 426.362C158.97 426.428 158.97 426.496 158.97 426.562C158.987 432.8 158.011 438.983 156.073 444.877C155.771 445.797 155.481 446.737 155.201 447.699C147.195 475.159 147.88 518.99 147.88 518.99L163.415 519.865L206.169 331.796H166.492C164.967 331.795 163.656 332.913 163.316 334.481Z" fill="#2FB7B8"/>
<path opacity="0.2" d="M186.543 362.974L181.222 361.749L177.936 357.766C177.936 357.766 178.269 387.539 186.9 416.547L195.312 379.543L186.543 362.974Z" fill="black"/>
<path d="M146.504 515.967L146.732 520.542L164.414 521.267L165.199 516.624L146.504 515.967Z" fill="#2FB7B8"/>
<path opacity="0.3" d="M146.504 515.967L146.732 520.542L164.414 521.267L165.199 516.624L146.504 515.967Z" fill="black"/>
<path d="M178.923 331.793C175.297 353.532 177.53 365.925 179.941 372.407C180.177 373.041 180.414 373.618 180.648 374.141C182.402 378.068 183.644 382.22 184.204 386.52C184.23 386.724 184.257 386.927 184.285 387.131C186.525 403.995 190.818 421.689 193.396 431.488C193.409 431.536 193.421 431.583 193.434 431.631C194.568 435.935 194.901 440.432 194.292 444.853C194.093 446.297 193.94 447.845 193.83 449.48C192.117 474.791 200.438 520.93 200.438 520.93L215.645 519.529L222.291 333.987C222.334 332.79 221.424 331.793 220.287 331.793H178.923Z" fill="#2FB7B8"/>
<path d="M198.473 518.601L199.772 523.066L216.858 521.583L217.108 516.873L198.473 518.601Z" fill="#2FB7B8"/>
<path opacity="0.3" d="M198.473 518.601L199.772 523.066L216.858 521.583L217.108 516.873L198.473 518.601Z" fill="black"/>
<g opacity="0.7">
<path d="M207.937 334.949H179.23V338.934H207.937V334.949Z" fill="white"/>
<path d="M175.435 334.949H164.409L163.809 338.934H175.435V334.949Z" fill="white"/>
<path d="M220.559 334.949H211.812V338.934H220.559V334.949Z" fill="white"/>
</g>
<path opacity="0.4" d="M219.627 284.867L215.121 269.761L212.037 265.46L208.053 262.398L206.168 267.046C206.168 267.046 207.331 281.659 221.486 292.102C220.968 289.756 220.357 287.345 219.627 284.867Z" fill="black"/>
<path d="M246.66 259.742L249.403 253.775L248.917 244.493C248.854 243.306 249.254 242.139 250.031 241.239L251.617 239.402C253.463 237.266 256.779 237.276 258.611 239.424L259.52 240.489C260.257 241.355 260.649 242.462 260.62 243.599L260.485 248.839C260.456 249.943 260.032 251 259.29 251.818L254.895 256.655L252.97 265.459L246.66 259.742Z" fill="#B97964"/>
<path d="M211.02 253.539L237.758 275.064L247.103 256.982L255.126 260.34C255.126 260.34 249.413 292.444 242.101 292.959C234.788 293.473 216.493 284.812 208.959 274.518C203.482 267.033 205.97 258.465 207.736 254.347C208.29 253.052 209.924 252.657 211.02 253.539Z" fill="#263238"/>
</g>
<defs>
<clipPath id="clip0_860_5557">
<rect width="651" height="651" fill="white" transform="translate(0.5 -0.000488281)"/>
</clipPath>
</defs>
</svg>
