<svg width="50" height="50" viewBox="0 0 52 52" fill="none" xmlns="http://www.w3.org/2000/svg">
<path d="M25.6719 0.496582C11.5885 0.496582 0.171875 11.9132 0.171875 25.9966C0.171875 40.08 11.5885 51.4966 25.6719 51.4966C39.7553 51.4966 51.1719 40.08 51.1719 25.9966C51.1719 11.9132 39.7553 0.496582 25.6719 0.496582ZM34.6971 30.7077C34.6971 33.6189 32.3286 35.9874 29.4173 35.9874H27.7764V40.495H23.957V35.9874H18.1906V32.168H29.4173C30.2226 32.168 30.8777 31.5129 30.8777 30.7077V29.3943C30.8777 28.589 30.2226 27.9339 29.4173 27.9339H22.3158C19.4045 27.9339 17.036 25.5654 17.036 22.6542V21.0891C17.036 18.1779 19.4045 15.8094 22.3158 15.8094H23.957V11.1756H27.7764V15.8094H33.5425V19.6288H22.3158C21.5105 19.6288 20.8554 20.2839 20.8554 21.0891V22.6542C20.8554 23.4594 21.5105 24.1145 22.3158 24.1145H29.4173C32.3286 24.1145 34.6971 26.483 34.6971 29.3943V30.7077Z" fill="#FFA629"/>
</svg>
