<svg width="43" height="50" viewBox="0 0 43 50" fill="none" xmlns="http://www.w3.org/2000/svg">
<path d="M25.9183 2.84131H6.93054C5.67157 2.84131 4.46417 3.30731 3.57394 4.1368C2.68372 4.96629 2.18359 6.09133 2.18359 7.2644V42.6492C2.18359 43.8222 2.68372 44.9473 3.57394 45.7768C4.46417 46.6063 5.67157 47.0723 6.93054 47.0723H35.4122C36.6712 47.0723 37.8786 46.6063 38.7688 45.7768C39.6591 44.9473 40.1592 43.8222 40.1592 42.6492V16.1106L25.9183 2.84131Z" stroke="#14AE5C" stroke-width="4" stroke-linecap="round" stroke-linejoin="round"/>
<path d="M25.918 2.84131V16.1106H40.1588" stroke="#14AE5C" stroke-width="4" stroke-linecap="round" stroke-linejoin="round"/>
<path d="M30.6655 27.1685H11.6777" stroke="#14AE5C" stroke-width="4" stroke-linecap="round" stroke-linejoin="round"/>
<path d="M30.6655 36.0146H11.6777" stroke="#14AE5C" stroke-width="4" stroke-linecap="round" stroke-linejoin="round"/>
<path d="M16.4247 18.3223H14.0512H11.6777" stroke="#14AE5C" stroke-width="4" stroke-linecap="round" stroke-linejoin="round"/>
</svg>
