<svg width="473" height="328" viewBox="0 0 473 328" fill="none" xmlns="http://www.w3.org/2000/svg">
<path d="M143.303 80.1606C121.664 99.3711 108.525 126.378 106.767 155.261C105.485 178.236 113.044 203.342 132.183 216.115C141.728 222.475 154.257 226.227 158.982 236.674C163.534 246.774 158.523 258.516 159.394 269.559C160.265 280.602 167.15 290.482 176.17 296.853C185.191 303.225 196.091 306.399 207.003 307.98C248.222 313.982 291.047 298.064 321.796 269.964C346.471 247.419 364.155 216.938 369.727 183.982C375.299 151.025 368.331 115.802 349.186 88.4057C335.714 69.1354 302.985 49.3579 279.651 46.4346C199.814 36.4355 164.041 61.9403 143.303 80.1606Z" fill="#263238"/>
<path opacity="0.7" d="M369.727 183.982C364.155 216.938 346.471 247.419 321.796 269.964C303.934 286.311 282.439 298.172 259.087 304.567C244.967 308.428 230.3 309.896 215.695 308.911C212.796 308.7 209.898 308.386 207.003 307.968C196.091 306.375 185.173 303.195 176.17 296.841C167.168 290.488 160.265 280.542 159.394 269.547C158.523 258.551 163.528 246.762 158.982 236.662C154.275 226.215 141.711 222.463 132.183 216.103C113.044 203.33 105.485 178.224 106.767 155.249C108.528 126.371 121.667 99.3683 143.303 80.1606C164.041 61.9403 199.814 36.4355 279.651 46.4346C302.985 49.3579 335.732 69.1354 349.186 88.4057C368.331 115.802 375.299 151.031 369.727 183.982Z" fill="#263238"/>
<path d="M178.886 87.1177H55.8262V133.754H178.886V87.1177Z" fill="white"/>
<path d="M168.504 98.1457C168.504 98.2323 147.591 98.2958 121.799 98.2958C96.0069 98.2958 75.0938 98.2323 75.0938 98.1457C75.0938 98.0591 96.0011 97.9956 121.799 97.9956C147.597 97.9956 168.504 98.0649 168.504 98.1457Z" fill="#EBEBEB"/>
<path d="M168.504 103.666C168.504 103.752 147.591 103.816 121.799 103.816C96.0069 103.816 75.0938 103.752 75.0938 103.666C75.0938 103.579 96.0011 103.516 121.799 103.516C147.597 103.516 168.504 103.585 168.504 103.666Z" fill="#EBEBEB"/>
<path d="M168.504 109.186C168.504 109.267 147.591 109.336 121.799 109.336C96.0069 109.336 75.0938 109.267 75.0938 109.186C75.0938 109.105 96.0011 109.036 121.799 109.036C147.597 109.036 168.504 109.099 168.504 109.186Z" fill="#EBEBEB"/>
<path d="M168.504 114.711C168.504 114.792 147.591 114.861 121.799 114.861C96.0069 114.861 75.0938 114.792 75.0938 114.711C75.0938 114.63 96.0011 114.555 121.799 114.555C147.597 114.555 168.504 114.619 168.504 114.711Z" fill="#EBEBEB"/>
<path d="M168.504 120.219C168.504 120.306 147.591 120.37 121.799 120.37C96.0069 120.37 75.0938 120.306 75.0938 120.219C75.0938 120.133 96.0011 120.069 121.799 120.069C147.597 120.069 168.504 120.139 168.504 120.219Z" fill="#EBEBEB"/>
<path d="M160.387 113.793C160.387 113.793 160.318 113.88 160.179 114.036C159.952 114.253 159.686 114.423 159.394 114.538C158.818 114.719 158.206 114.756 157.612 114.646C157.019 114.536 156.461 114.283 155.987 113.909C155.318 113.353 154.772 112.665 154.382 111.888C153.932 111.051 153.579 110.081 153.158 109.07C152.747 107.983 152.127 106.986 151.333 106.137C150.887 105.695 150.343 105.362 149.745 105.167C149.11 104.979 148.44 104.943 147.788 105.063C146.383 105.35 145.09 106.035 144.064 107.038C142.95 108.042 141.974 109.278 140.773 110.398C139.569 111.633 137.977 112.416 136.263 112.615C135.351 112.678 134.443 112.437 133.682 111.928C132.934 111.382 132.318 110.673 131.881 109.855C130.951 108.25 130.484 106.391 129.277 104.925C128.717 104.166 127.921 103.616 127.014 103.36C126.552 103.258 126.073 103.263 125.613 103.373C125.153 103.483 124.724 103.696 124.358 103.995C123.604 104.615 123.01 105.407 122.625 106.304C122.254 107.237 121.977 108.204 121.8 109.191C121.616 110.218 121.342 111.227 120.98 112.205C120.783 112.703 120.531 113.178 120.229 113.62C119.908 114.047 119.538 114.434 119.126 114.775C118.299 115.463 117.322 115.95 116.274 116.195C115.245 116.459 114.169 116.474 113.133 116.241C112.118 115.996 111.169 115.528 110.356 114.873C109.536 114.261 108.791 113.585 108.012 112.979C107.277 112.348 106.417 111.879 105.488 111.605C104.577 111.369 103.609 111.493 102.786 111.951C101.985 112.422 101.297 113.063 100.771 113.828C100.258 114.59 99.8026 115.389 99.4084 116.218C99.0184 117.04 98.5668 117.832 98.0573 118.586C97.5504 119.33 96.8911 119.958 96.1231 120.427C95.3684 120.898 94.4779 121.101 93.5941 121.005C92.7381 120.873 91.9578 120.438 91.3942 119.781C90.8555 119.166 90.4452 118.449 90.1875 117.673C89.9359 116.937 89.7429 116.182 89.6101 115.416C89.3387 113.938 89.0731 112.494 88.311 111.374C87.9941 110.813 87.5633 110.324 87.0462 109.939C86.5291 109.554 85.9372 109.282 85.3085 109.139C84.7224 109.057 84.125 109.131 83.5763 109.353C83.0633 109.574 82.594 109.885 82.1906 110.271C80.6143 111.778 79.881 113.603 78.6858 114.659C77.4906 115.716 76.3763 116.264 75.5506 116.236C75.2375 116.236 74.9267 116.181 74.6325 116.074L74.3496 115.947C74.7316 116.1 75.1392 116.178 75.5506 116.178C76.3589 116.178 77.5195 115.67 78.605 114.579C79.6905 113.487 80.4757 111.692 82.0693 110.15C82.484 109.743 82.9718 109.418 83.507 109.191C84.0831 108.951 84.7127 108.867 85.3316 108.949C85.9904 109.089 86.6119 109.368 87.1553 109.766C87.6987 110.164 88.1516 110.673 88.4842 111.259C88.8717 111.865 89.1656 112.527 89.356 113.222C89.5581 113.926 89.6909 114.659 89.8295 115.398C89.9659 116.151 90.1589 116.892 90.4069 117.616C90.6567 118.358 91.049 119.044 91.5617 119.636C92.0864 120.252 92.8129 120.661 93.6114 120.791C94.4394 120.871 95.27 120.668 95.9672 120.214C96.7048 119.765 97.337 119.162 97.8206 118.447C98.3179 117.711 98.7599 116.939 99.1428 116.137C99.5398 115.293 100.001 114.48 100.523 113.707C101.074 112.906 101.793 112.236 102.63 111.744C103.508 111.251 104.542 111.115 105.517 111.362C106.486 111.647 107.385 112.13 108.156 112.783C108.947 113.401 109.686 114.076 110.465 114.677C111.246 115.305 112.154 115.754 113.127 115.993C114.12 116.215 115.15 116.199 116.135 115.947C117.136 115.708 118.069 115.241 118.861 114.584C119.259 114.259 119.612 113.882 119.912 113.464C120.204 113.045 120.446 112.594 120.633 112.119C120.99 111.155 121.26 110.162 121.442 109.151C121.618 108.136 121.903 107.143 122.29 106.189C122.691 105.237 123.322 104.4 124.127 103.752C124.525 103.428 124.992 103.198 125.492 103.079C125.991 102.96 126.512 102.955 127.014 103.065C127.984 103.335 128.836 103.923 129.433 104.734C130.686 106.258 131.165 108.152 132.06 109.705C132.48 110.49 133.072 111.169 133.792 111.692C134.503 112.169 135.351 112.398 136.206 112.344C137.861 112.15 139.4 111.394 140.565 110.202C141.749 109.105 142.73 107.892 143.868 106.853C144.929 105.826 146.264 105.126 147.713 104.838C148.397 104.72 149.099 104.763 149.763 104.965C150.389 105.173 150.958 105.522 151.426 105.987C152.234 106.858 152.862 107.88 153.273 108.995C153.689 110.017 154.036 110.976 154.469 111.807C154.841 112.573 155.368 113.253 156.016 113.805C156.476 114.173 157.017 114.426 157.595 114.542C158.173 114.657 158.77 114.632 159.336 114.469C159.736 114.332 160.096 114.1 160.387 113.793Z" fill="#DCDCDC"/>
<path d="M166.28 112.506H165.957C165.847 112.506 165.715 112.471 165.559 112.454C165.381 112.403 165.208 112.339 165.039 112.263C163.958 111.684 163.01 110.886 162.256 109.919C161.994 109.619 161.729 109.295 161.459 108.949C161.196 108.577 160.908 108.222 160.599 107.887C159.852 107.168 158.883 106.726 157.85 106.634C157.282 106.577 156.708 106.648 156.17 106.841C155.607 107.071 155.098 107.415 154.675 107.852C153.794 108.864 152.973 109.926 152.215 111.033C151.769 111.619 151.238 112.135 150.639 112.563C149.995 113 149.257 113.277 148.485 113.372C146.855 113.48 145.225 113.174 143.745 112.483C142.197 111.836 140.713 110.953 139.045 110.381C138.212 110.077 137.338 109.902 136.452 109.861C135.547 109.843 134.65 110.04 133.837 110.439C132.168 111.241 130.863 112.696 129.293 113.903C128.499 114.523 127.61 115.011 126.66 115.346C125.688 115.676 124.671 115.851 123.646 115.866C121.532 115.898 119.454 115.323 117.658 114.209C115.825 113.06 114.273 111.515 113.114 109.688C111.896 107.863 111.232 105.796 110.354 103.914C109.936 102.969 109.394 102.084 108.743 101.281C108.095 100.508 107.288 99.8836 106.376 99.4509C105.489 99.0233 104.48 98.9172 103.524 99.1506C102.595 99.418 101.769 99.9618 101.156 100.71C100.549 101.438 100.076 102.269 99.759 103.164C99.4474 104.051 99.2023 104.96 99.0258 105.883C98.8294 106.801 98.6562 107.708 98.4079 108.597C98.1643 109.473 97.8234 110.319 97.3917 111.12C96.5579 112.654 95.3848 113.977 93.962 114.989C92.6395 115.946 91.1036 116.566 89.4872 116.796C87.9935 116.983 86.4767 116.809 85.0644 116.288C83.8431 115.867 82.7311 115.179 81.8092 114.274C80.8873 113.369 80.1787 112.27 79.7351 111.056C79.3655 109.983 79.1577 108.949 78.9152 108.025C78.7012 107.176 78.3291 106.375 77.8181 105.664C77.4678 105.173 77.0051 104.773 76.4687 104.498C75.9323 104.223 75.3378 104.08 74.7349 104.082C74.3208 104.124 73.9238 104.268 73.5801 104.503C73.9046 104.224 74.3086 104.055 74.7349 104.018C75.3524 104.005 75.964 104.14 76.5179 104.414C77.0717 104.687 77.5514 105.09 77.9163 105.589C78.4352 106.309 78.8115 107.123 79.0249 107.985C79.302 108.914 79.4984 109.948 79.8679 110.999C80.3117 112.182 81.0128 113.252 81.9204 114.132C82.828 115.012 83.9196 115.679 85.1164 116.086C86.4966 116.59 87.9776 116.756 89.4353 116.571C91.0111 116.336 92.5068 115.724 93.7946 114.786C95.1818 113.793 96.3234 112.495 97.1319 110.993C97.998 109.457 98.3618 107.661 98.7313 105.825C98.91 104.889 99.157 103.966 99.4703 103.065C99.8035 102.134 100.3 101.27 100.937 100.513C101.588 99.7218 102.464 99.1461 103.449 98.8619C104.471 98.6101 105.549 98.7224 106.497 99.1795C107.45 99.627 108.293 100.277 108.968 101.085C109.637 101.907 110.194 102.814 110.626 103.781C111.515 105.698 112.173 107.736 113.368 109.555C114.502 111.344 116.021 112.857 117.814 113.984C119.561 115.066 121.58 115.627 123.634 115.601C124.63 115.586 125.618 115.417 126.562 115.098C127.482 114.775 128.343 114.305 129.114 113.707C130.655 112.552 132.001 111.068 133.733 110.242C134.588 109.833 135.528 109.635 136.475 109.665C137.389 109.708 138.291 109.891 139.149 110.208C140.846 110.785 142.336 111.692 143.86 112.327C145.301 113.006 146.889 113.312 148.479 113.216C149.217 113.127 149.923 112.866 150.541 112.454C151.122 112.04 151.637 111.542 152.071 110.976C152.839 109.865 153.672 108.801 154.565 107.788C155.009 107.337 155.542 106.983 156.13 106.749C156.685 106.555 157.276 106.484 157.862 106.541C158.93 106.643 159.93 107.108 160.697 107.858C161.009 108.201 161.298 108.563 161.563 108.943C161.829 109.29 162.089 109.619 162.348 109.919C163.084 110.883 164.007 111.688 165.062 112.286C165.442 112.465 165.862 112.54 166.28 112.506Z" fill="#DCDCDC"/>
<path d="M68.6783 98.4231C68.2836 98.5684 67.8606 98.6198 67.4427 98.5733C67.0247 98.6198 66.6017 98.5684 66.207 98.4231C66.6017 98.2778 67.0247 98.2264 67.4427 98.273C67.8606 98.2264 68.2836 98.2778 68.6783 98.4231Z" fill="#DCDCDC"/>
<path d="M68.6783 103.666C68.2844 103.814 67.8606 103.866 67.4427 103.816C67.0247 103.866 66.6009 103.814 66.207 103.666C66.6017 103.521 67.0247 103.469 67.4427 103.516C67.8606 103.469 68.2836 103.521 68.6783 103.666Z" fill="#DCDCDC"/>
<path d="M68.6783 108.937C68.2844 109.086 67.8606 109.137 67.4427 109.087C67.0247 109.137 66.6009 109.086 66.207 108.937C66.6017 108.792 67.0247 108.741 67.4427 108.787C67.8606 108.741 68.2836 108.792 68.6783 108.937Z" fill="#DCDCDC"/>
<path d="M68.6783 114.134C68.2836 114.279 67.8606 114.331 67.4427 114.284C67.0247 114.331 66.6017 114.279 66.207 114.134C66.6009 113.985 67.0247 113.934 67.4427 113.984C67.8606 113.934 68.2844 113.985 68.6783 114.134Z" fill="#DCDCDC"/>
<path d="M68.6783 119.4C68.2836 119.545 67.8606 119.596 67.4427 119.55C67.0247 119.596 66.6017 119.545 66.207 119.4C66.6009 119.251 67.0247 119.2 67.4427 119.249C67.8606 119.2 68.2844 119.251 68.6783 119.4Z" fill="#DCDCDC"/>
<path d="M80.0305 126.138C79.2175 126.286 78.3899 126.336 77.565 126.288C76.7382 126.336 75.9086 126.286 75.0938 126.138C75.9086 125.989 76.7382 125.939 77.565 125.988C78.3899 125.939 79.2175 125.99 80.0305 126.138Z" fill="#DCDCDC"/>
<path d="M101.816 126.138C101.001 126.286 100.171 126.336 99.3443 126.288C98.5175 126.336 97.6879 126.286 96.873 126.138C97.6879 125.99 98.5175 125.94 99.3443 125.988C100.171 125.94 101.001 125.99 101.816 126.138Z" fill="#DCDCDC"/>
<path d="M123.595 126.138C122.78 126.286 121.95 126.336 121.124 126.288C120.297 126.336 119.467 126.286 118.652 126.138C119.467 125.99 120.297 125.94 121.124 125.988C121.95 125.94 122.78 125.99 123.595 126.138Z" fill="#DCDCDC"/>
<path d="M145.374 126.138C144.559 126.286 143.73 126.336 142.903 126.288C142.078 126.336 141.25 126.286 140.438 126.138C141.25 125.99 142.078 125.939 142.903 125.988C143.73 125.939 144.559 125.989 145.374 126.138Z" fill="#DCDCDC"/>
<path d="M167.159 126.138C165.518 126.338 163.858 126.338 162.217 126.138C163.858 125.938 165.518 125.938 167.159 126.138Z" fill="#DCDCDC"/>
<path d="M326.254 260.867C326.254 260.936 307.264 260.994 283.845 260.994C260.426 260.994 241.436 260.936 241.436 260.867C241.436 260.797 260.42 260.74 283.845 260.74C307.27 260.74 326.254 260.792 326.254 260.867Z" fill="#DCDCDC"/>
<path d="M326.254 246.513C326.254 246.582 307.264 246.64 283.845 246.64C260.426 246.64 241.436 246.582 241.436 246.513C241.436 246.443 260.42 246.38 283.845 246.38C307.27 246.38 326.254 246.438 326.254 246.513Z" fill="#DCDCDC"/>
<path d="M326.254 232.153C326.254 232.222 307.264 232.28 283.845 232.28C260.426 232.28 241.436 232.222 241.436 232.153C241.436 232.084 260.42 232.026 283.845 232.026C307.27 232.026 326.254 232.084 326.254 232.153Z" fill="#DCDCDC"/>
<path d="M326.254 218.509C326.254 218.579 307.264 218.636 283.845 218.636C260.426 218.636 241.436 218.579 241.436 218.509C241.436 218.44 260.42 218.382 283.845 218.382C307.27 218.382 326.254 218.44 326.254 218.509Z" fill="#DCDCDC"/>
<path d="M416.373 59.2876H341.809V126H416.373V59.2876Z" fill="white"/>
<path d="M416.379 125.999C416.379 125.999 416.379 125.566 416.379 124.758C416.379 123.949 416.379 122.743 416.379 121.184C416.379 118.054 416.379 113.476 416.333 107.644C416.333 95.9864 416.287 79.3517 416.247 59.2873L416.42 59.4548L341.855 59.4836L342.057 59.2873C342.057 83.5378 342.057 106.397 342.057 125.999L341.878 125.82L395.813 125.913L411.021 125.959H415.063H416.102C416.333 125.959 416.46 125.959 416.46 125.959H416.12H415.098H411.108L395.934 126.005L341.89 126.092H341.717V125.918C341.717 106.287 341.717 83.4743 341.717 59.2065V59.0044H341.919L416.483 59.0333H416.651V59.2815C416.616 79.369 416.581 96.0614 416.564 107.742C416.564 113.556 416.53 118.135 416.518 121.247C416.518 122.795 416.518 123.978 416.518 124.787C416.518 125.595 416.379 125.999 416.379 125.999Z" fill="#DCDCDC"/>
<path d="M370.401 71.1411C370.401 71.2508 366.474 71.3374 361.636 71.3374C356.797 71.3374 352.871 71.2508 352.871 71.1411C352.871 71.0313 356.792 70.939 361.636 70.939C366.48 70.939 370.401 71.0256 370.401 71.1411Z" fill="#DCDCDC"/>
<path d="M401.996 76.147C401.996 76.2567 391.216 76.3491 377.913 76.3491C364.61 76.3491 353.812 76.2567 353.812 76.147C353.812 76.0373 364.592 75.9507 377.89 75.9507C391.187 75.9507 401.996 76.0257 401.996 76.147Z" fill="#DCDCDC"/>
<path d="M356.139 84.6348H352.998V87.7758H356.139V84.6348Z" fill="#DCDCDC"/>
<path d="M363.871 84.6348H360.73V87.7758H363.871V84.6348Z" fill="#DCDCDC"/>
<path d="M371.746 84.4907H368.605V87.6317H371.746V84.4907Z" fill="#DCDCDC"/>
<path d="M379.338 84.6348H376.197V87.7758H379.338V84.6348Z" fill="#DCDCDC"/>
<path d="M387.071 84.6348H383.93V87.7758H387.071V84.6348Z" fill="#DCDCDC"/>
<path d="M394.801 84.6348H391.66V87.7758H394.801V84.6348Z" fill="#DCDCDC"/>
<path d="M402.537 84.6348H399.396V87.7758H402.537V84.6348Z" fill="#EBEBEB"/>
<path d="M356.139 91.3096H352.998V94.4506H356.139V91.3096Z" fill="#EBEBEB"/>
<path d="M363.871 91.3096H360.73V94.4506H363.871V91.3096Z" fill="#DCDCDC"/>
<path d="M371.602 91.3096H368.461V94.4506H371.602V91.3096Z" fill="#EBEBEB"/>
<path d="M379.338 91.3096H376.197V94.4506H379.338V91.3096Z" fill="#DCDCDC"/>
<path d="M387.071 91.3096H383.93V94.4506H387.071V91.3096Z" fill="#DCDCDC"/>
<path d="M394.946 91.1709H391.805V94.3119H394.946V91.1709Z" fill="#DCDCDC"/>
<path d="M402.537 91.3096H399.396V94.4506H402.537V91.3096Z" fill="#DCDCDC"/>
<path d="M356.139 97.9897H352.998V101.131H356.139V97.9897Z" fill="#DCDCDC"/>
<path d="M364.016 97.8457H360.875V100.987H364.016V97.8457Z" fill="#DCDCDC"/>
<path d="M371.602 97.9897H368.461V101.131H371.602V97.9897Z" fill="#DCDCDC"/>
<path d="M379.338 97.9897H376.197V101.131H379.338V97.9897Z" fill="#EBEBEB"/>
<path d="M387.071 97.9897H383.93V101.131H387.071V97.9897Z" fill="#DCDCDC"/>
<path d="M394.801 97.9897H391.66V101.131H394.801V97.9897Z" fill="#DCDCDC"/>
<path d="M402.537 97.9897H399.396V101.131H402.537V97.9897Z" fill="#DCDCDC"/>
<path d="M356.139 104.67H352.998V107.811H356.139V104.67Z" fill="#DCDCDC"/>
<path d="M363.871 104.67H360.73V107.811H363.871V104.67Z" fill="#DCDCDC"/>
<path d="M371.602 104.67H368.461V107.811H371.602V104.67Z" fill="#DCDCDC"/>
<path d="M379.477 104.526H376.336V107.667H379.477V104.526Z" fill="#DCDCDC"/>
<path d="M387.071 104.67H383.93V107.811H387.071V104.67Z" fill="#DCDCDC"/>
<path d="M394.801 104.67H391.66V107.811H394.801V104.67Z" fill="#EBEBEB"/>
<path d="M402.537 104.67H399.396V107.811H402.537V104.67Z" fill="#DCDCDC"/>
<path d="M356.139 111.345H352.998V114.486H356.139V111.345Z" fill="#DCDCDC"/>
<path d="M363.871 111.345H360.73V114.486H363.871V111.345Z" fill="#EBEBEB"/>
<path d="M371.602 111.345H368.461V114.486H371.602V111.345Z" fill="#DCDCDC"/>
<path d="M379.338 111.345H376.197V114.486H379.338V111.345Z" fill="#DCDCDC"/>
<path d="M387.071 111.345H383.93V114.486H387.071V111.345Z" fill="#DCDCDC"/>
<path d="M394.946 111.207H391.805V114.348H394.946V111.207Z" fill="#DCDCDC"/>
<path d="M402.537 111.345H399.396V114.486H402.537V111.345Z" fill="#DCDCDC"/>
<path d="M312.339 65.3208C312.339 65.3208 321.167 65.4421 317.391 82.9255C313.615 100.409 314.1 103.712 314.1 110.64C314.047 112.902 314.632 115.132 315.787 117.077C316.941 119.022 318.62 120.603 320.63 121.64H308.655L299.85 80.8238V65.3208H312.339Z" fill="#DCDCDC"/>
<path d="M314.937 202.931H194.037L195.117 84.6521L308.99 78.6992L314.937 202.931Z" fill="#DCDCDC"/>
<path d="M310.787 199.876H189.887L190.966 81.5974L308.356 79.3052L310.787 199.876Z" fill="#EBEBEB"/>
<path d="M308.281 196.58H187.629V78.301L308.356 78.0181L308.281 196.58Z" fill="white"/>
<path d="M308.281 196.579C308.281 195.477 308.281 149.135 308.223 78.0176L308.356 78.1504L187.82 78.4507H187.629L187.779 78.3006C187.779 121.57 187.779 162.144 187.779 196.579L187.652 196.452L308.327 196.579L187.652 196.712H187.525V196.579C187.525 162.144 187.525 121.57 187.525 78.3006V78.1504H187.86L308.402 77.8906H308.529V78.0176C308.362 149.135 308.281 195.477 308.281 196.579Z" fill="#263238"/>
<path d="M308.355 77.7001C302.12 70.4423 309.354 65.0726 311.82 64.9571L196.919 64.8936C195.507 64.8922 194.113 65.1996 192.833 65.7942C191.553 66.3888 190.418 67.2562 189.509 68.3355C188.599 69.4149 187.937 70.6801 187.569 72.0425C187.2 73.4048 187.134 74.8313 187.374 76.222C187.49 76.8304 187.646 77.4303 187.842 78.0177" fill="#F5F5F5"/>
<path d="M311.398 121.64H311.56H312.022H313.823L320.631 121.599V121.778C319.6 121.459 318.652 120.917 317.854 120.19C316.973 119.354 316.27 118.348 315.786 117.234C315.246 116.021 314.83 114.755 314.545 113.458C314.389 112.782 314.251 112.095 314.124 111.391C314.05 111.034 313.994 110.674 313.956 110.311C313.906 109.944 313.879 109.574 313.875 109.203C313.836 107.661 313.886 106.119 314.025 104.584C314.141 103.013 314.32 101.402 314.51 99.7565C314.903 96.4712 315.394 93.0472 315.977 89.5367C316.22 88.0412 316.52 86.5573 316.768 85.1081C317.016 83.6588 317.201 82.2211 317.386 80.7892C317.571 79.3572 317.721 77.9715 317.888 76.6031C317.963 75.9218 318.056 75.2462 318.073 74.5822C318.089 73.924 318.052 73.2656 317.963 72.6133C317.795 71.3397 317.423 70.1017 316.86 68.9469C316.357 67.8646 315.594 66.9241 314.637 66.21C313.719 65.5835 312.594 65.3334 311.496 65.5114C310.478 65.6376 309.512 66.0366 308.702 66.6662C307.985 67.2621 307.396 67.9966 306.97 68.8256C306.584 69.5672 306.3 70.3577 306.127 71.1756C305.845 72.4952 306.005 73.8709 306.583 75.0903C306.936 75.8657 307.361 76.6061 307.853 77.3017L308.246 77.8387C308.332 77.96 308.373 78.0292 308.373 78.0292C308.373 78.0292 308.315 77.9773 308.217 77.8618L307.807 77.3364C307.287 76.6528 306.841 75.9153 306.479 75.1365C305.869 73.8986 305.686 72.4936 305.959 71.141C306.13 70.3058 306.414 69.4978 306.802 68.739C307.238 67.8786 307.845 67.1162 308.586 66.4987C309.423 65.8417 310.419 65.4192 311.473 65.2746C312.63 65.0844 313.817 65.3447 314.788 66.0022C315.782 66.7395 316.576 67.7141 317.097 68.8372C317.666 70.0103 318.04 71.2681 318.206 72.5613C318.299 73.2289 318.339 73.9026 318.327 74.5764C318.327 75.2635 318.217 75.9391 318.142 76.6262C317.992 77.9946 317.83 79.3919 317.646 80.818C317.461 82.2442 317.27 83.705 317.034 85.1485C316.797 86.592 316.485 88.0759 316.248 89.5771C315.671 93.0819 315.169 96.5058 314.77 99.7796C314.58 101.419 314.401 103.025 314.279 104.595C314.139 106.111 314.083 107.634 314.112 109.156C314.116 109.519 314.141 109.882 314.187 110.242C314.216 110.6 314.291 110.958 314.349 111.31C314.476 112.009 314.609 112.696 314.764 113.366C315.037 114.648 315.44 115.9 315.965 117.101C316.435 118.187 317.116 119.168 317.969 119.988C318.74 120.701 319.659 121.236 320.66 121.553L321.237 121.738H320.66L313.852 121.697H312.051H311.589L311.398 121.64Z" fill="#263238"/>
<path d="M236.99 68.5716C237.036 68.6063 236.69 69.0624 236.349 69.9054C236.154 70.3955 236.009 70.9044 235.916 71.4239C235.814 72.0633 235.783 72.712 235.824 73.3582C235.879 74.0023 236.009 74.6378 236.211 75.2521C236.379 75.755 236.599 76.2389 236.869 76.6955C237.337 77.4692 237.747 77.8503 237.706 77.9138C237.666 77.9773 237.579 77.833 237.394 77.654C237.128 77.3991 236.891 77.1143 236.69 76.8052C236.385 76.3502 236.137 75.8596 235.951 75.3444C235.485 74.0757 235.379 72.7029 235.645 71.3778C235.752 70.8399 235.923 70.3166 236.153 69.8188C236.308 69.482 236.502 69.1642 236.73 68.8719C236.875 68.6698 236.973 68.5601 236.99 68.5716Z" fill="#263238"/>
<path d="M234.119 64.478C233.55 65.0472 233.039 65.672 232.595 66.343C231.537 67.982 231.146 69.9639 231.504 71.8817C231.862 73.7995 232.94 75.5076 234.517 76.6552C235.172 77.1205 235.87 77.5208 236.602 77.8504C236.384 77.8188 236.171 77.7606 235.967 77.6772C235.403 77.4658 234.87 77.1825 234.379 76.8342C233.55 76.2676 232.841 75.5427 232.293 74.7011C231.746 73.8596 231.37 72.918 231.187 71.9306C231.005 70.9432 231.019 69.9295 231.23 68.9477C231.441 67.966 231.844 67.0356 232.416 66.2102C232.74 65.7093 233.128 65.2531 233.571 64.8533C233.735 64.7035 233.92 64.5772 234.119 64.478Z" fill="#263238"/>
<path d="M299.053 156.815H298.678H297.569L293.302 156.844L277.597 156.919L225.857 156.965H203.396V156.82C203.396 142.039 203.437 129.325 203.454 120.295C203.454 115.791 203.483 112.211 203.495 109.74C203.495 108.522 203.495 107.575 203.495 106.922C203.495 106.61 203.495 106.374 203.495 106.2C203.495 106.027 203.495 105.952 203.495 105.952C203.495 105.952 203.495 106.033 203.495 106.2C203.495 106.368 203.495 106.61 203.495 106.922C203.495 107.575 203.495 108.522 203.495 109.74C203.495 112.211 203.495 115.791 203.535 120.295C203.535 129.325 203.57 142.039 203.593 156.82L203.448 156.676H225.765L277.505 156.722L293.187 156.768L297.454 156.797H298.562L299.053 156.815Z" fill="#263238"/>
<path d="M220.972 144.245H211.324V153.893H220.972V144.245Z" fill="#61D2D2"/>
<path d="M235.113 137.351H225.465V153.893H235.113V137.351Z" fill="#61D2D2"/>
<path d="M249.312 129.516H239.664V153.893H249.312V129.516Z" fill="#61D2D2"/>
<path d="M263.076 120.797H253.428V153.893H263.076V120.797Z" fill="#61D2D2"/>
<path d="M277.158 109.636H267.51V153.893H277.158V109.636Z" fill="#61D2D2"/>
<path d="M291.138 101.119H281.49V153.437H291.138V101.119Z" fill="#61D2D2"/>
<path d="M211.324 134.342C211.36 134.305 211.401 134.272 211.445 134.244L211.821 133.984L213.293 133.003L218.819 129.36L237.959 116.847L238.185 116.703V116.969C238.185 118.337 238.185 119.798 238.185 121.288L237.954 121.166L245.494 116.108L272.112 98.3247L280.196 92.9607L282.401 91.5172L282.979 91.1477L283.181 91.0322C283.123 91.084 283.062 91.1303 282.996 91.1708L282.419 91.5692L280.242 93.0589L272.239 98.5441L245.679 116.403L238.133 121.455L237.902 121.611V116.992L238.127 117.113L218.923 129.533L213.351 133.107L211.855 134.048L211.469 134.29L211.324 134.342Z" fill="#263238"/>
<path d="M283.194 95.1318C283.111 94.741 283.077 94.3416 283.09 93.9424C283.09 93.2033 283.05 92.1755 283.044 91.0554L283.194 91.2055H282.824C281.589 91.2055 280.469 91.2055 279.66 91.1593C279.221 91.1724 278.781 91.1375 278.35 91.0554C278.781 90.969 279.221 90.9322 279.66 90.9457C280.469 90.9457 281.589 90.9053 282.824 90.9053H283.344V91.0381C283.344 92.1929 283.344 93.2148 283.298 93.925C283.313 94.33 283.278 94.7353 283.194 95.1318Z" fill="#263238"/>
<path d="M232.221 164.592C232.221 164.679 229.242 164.742 225.564 164.742C221.886 164.742 218.906 164.679 218.906 164.592C218.906 164.505 221.886 164.442 225.564 164.442C229.242 164.442 232.221 164.511 232.221 164.592Z" fill="#263238"/>
<path d="M225.384 169.154C225.184 168.124 225.184 167.065 225.384 166.036C225.585 167.065 225.585 168.124 225.384 169.154Z" fill="#263238"/>
<path d="M241.701 170.718C241.701 170.799 233.692 170.868 223.802 170.868C213.911 170.868 205.902 170.799 205.902 170.718C205.902 170.637 213.905 170.568 223.802 170.568C233.698 170.568 241.701 170.631 241.701 170.718Z" fill="#263238"/>
<path d="M206.185 175.152C205.985 173.72 205.985 172.266 206.185 170.833C206.386 172.266 206.386 173.72 206.185 175.152Z" fill="#263238"/>
<path d="M218.906 174.673C218.706 173.442 218.706 172.186 218.906 170.955C219.106 172.186 219.106 173.442 218.906 174.673Z" fill="#263238"/>
<path d="M231.984 174.91C231.784 173.558 231.784 172.185 231.984 170.833C232.184 172.185 232.184 173.558 231.984 174.91Z" fill="#263238"/>
<path d="M241.939 174.91C241.739 173.518 241.739 172.104 241.939 170.712C242.139 172.104 242.139 173.518 241.939 174.91Z" fill="#263238"/>
<path d="M210.62 176.354C209.186 176.502 207.743 176.552 206.301 176.504C204.86 176.552 203.417 176.502 201.982 176.354C203.417 176.202 204.86 176.151 206.301 176.203C207.743 176.151 209.186 176.202 210.62 176.354Z" fill="#263238"/>
<path d="M221.666 176.354C219.471 176.554 217.262 176.554 215.066 176.354C217.262 176.154 219.471 176.154 221.666 176.354Z" fill="#263238"/>
<path d="M235.702 176.712C233.347 176.912 230.978 176.912 228.623 176.712C230.978 176.511 233.347 176.511 235.702 176.712Z" fill="#263238"/>
<path d="M247.099 176.111C244.584 176.311 242.056 176.311 239.541 176.111C242.056 175.911 244.584 175.911 247.099 176.111Z" fill="#263238"/>
<path d="M206.306 180.534C206.106 179.706 206.106 178.843 206.306 178.016C206.507 178.843 206.507 179.706 206.306 180.534Z" fill="#263238"/>
<path d="M214.517 180.534C214.517 180.615 211.024 180.684 206.722 180.684C202.421 180.684 198.922 180.615 198.922 180.534C198.922 180.453 202.415 180.384 206.722 180.384C211.03 180.384 214.517 180.465 214.517 180.534Z" fill="#263238"/>
<path d="M214.517 184.148C214.317 182.958 214.317 181.742 214.517 180.551C214.717 181.742 214.717 182.958 214.517 184.148Z" fill="#263238"/>
<path d="M198.924 184.391C198.723 183.119 198.723 181.823 198.924 180.551C199.124 181.823 199.124 183.119 198.924 184.391Z" fill="#263238"/>
<path d="M232.3 180.534C232.1 179.706 232.1 178.843 232.3 178.016C232.501 178.843 232.501 179.706 232.3 180.534Z" fill="#263238"/>
<path d="M251.262 180.534C251.262 180.615 245.361 180.684 238.086 180.684C230.811 180.684 224.916 180.615 224.916 180.534C224.916 180.453 230.811 180.384 238.086 180.384C245.361 180.384 251.262 180.465 251.262 180.534Z" fill="#263238"/>
<path d="M240.511 184.148C240.311 182.958 240.311 181.742 240.511 180.551C240.712 181.742 240.712 182.958 240.511 184.148Z" fill="#263238"/>
<path d="M251.801 184.148C251.6 182.958 251.6 181.742 251.801 180.551C252.001 181.742 252.001 182.958 251.801 184.148Z" fill="#263238"/>
<path d="M224.916 184.391C224.716 183.119 224.716 181.823 224.916 180.551C225.116 181.823 225.116 183.119 224.916 184.391Z" fill="#263238"/>
<path d="M201.993 186.602C199.95 186.802 197.893 186.802 195.85 186.602C197.893 186.402 199.95 186.402 201.993 186.602Z" fill="#263238"/>
<path d="M217.271 186.163C215.06 186.363 212.836 186.363 210.625 186.163C212.836 185.963 215.06 185.963 217.271 186.163Z" fill="#263238"/>
<path d="M228.306 186.163C226.361 186.363 224.402 186.363 222.457 186.163C224.402 185.963 226.361 185.963 228.306 186.163Z" fill="#263238"/>
<path d="M243.185 186.164C241.073 186.364 238.946 186.364 236.834 186.164C238.946 185.963 241.073 185.963 243.185 186.164Z" fill="#263238"/>
<path d="M255.078 185.765C252.935 185.965 250.778 185.965 248.635 185.765C250.778 185.565 252.935 185.565 255.078 185.765Z" fill="#263238"/>
<path d="M298.962 188.103H258.238V162.883H298.962V188.103ZM258.261 188.074H298.962V162.912H258.267L258.261 188.074Z" fill="#263238"/>
<path d="M289.146 181.111C286.323 180.043 283.078 182.999 280.306 181.792C278.701 181.094 277.968 179.269 277.177 177.705C276.386 176.14 275.029 174.477 273.285 174.662C271.541 174.846 270.098 176.885 268.395 176.394C267.321 176.082 266.789 174.893 266.518 173.807C266.247 172.722 266.062 171.526 265.242 170.764C264.422 170.002 262.725 170.187 262.592 171.342V184.697H294.423C294.423 184.697 290.105 181.481 289.146 181.111Z" fill="#61D2D2"/>
<path d="M295.256 184.674C295.256 184.702 287.542 184.726 278.026 184.726C268.511 184.726 260.797 184.726 260.797 184.674C260.797 184.622 268.511 184.622 278.026 184.622C287.542 184.622 295.256 184.645 295.256 184.674Z" fill="#DCDCDC"/>
<path d="M295.256 178.842C295.256 178.871 287.542 178.894 278.026 178.894C268.511 178.894 260.797 178.894 260.797 178.842C260.797 178.79 268.511 178.79 278.026 178.79C287.542 178.79 295.256 178.802 295.256 178.842Z" fill="#263238"/>
<path d="M295.256 173.028C295.256 173.028 287.542 173.074 278.026 173.074C268.511 173.074 260.797 173.074 260.797 173.028C260.797 172.982 268.511 172.976 278.026 172.976C287.542 172.976 295.256 172.982 295.256 173.028Z" fill="#263238"/>
<path d="M295.256 167.462C295.256 167.462 287.542 167.514 278.026 167.514C268.511 167.514 260.797 167.514 260.797 167.462C260.797 167.41 268.511 167.41 278.026 167.41C287.542 167.41 295.256 167.433 295.256 167.462Z" fill="#263238"/>
<path d="M203.569 86.5863C203.569 86.5863 203.569 86.5863 203.627 86.5863H203.789C204.002 86.5852 204.214 86.6046 204.424 86.6441C204.758 86.7032 205.082 86.8142 205.382 86.9732C205.783 87.1875 206.132 87.4871 206.404 87.8508C206.742 88.2928 206.973 88.8065 207.08 89.3521C207.171 89.9875 207.089 90.6356 206.843 91.2286C206.716 91.5504 206.56 91.8597 206.375 92.1524C206.183 92.4543 206.008 92.7666 205.85 93.0878C205.514 93.7645 205.277 94.4859 205.146 95.2299V95.2819H205.094L203.587 95.2472L202.005 95.2068H201.958V95.1491C201.919 94.4015 201.695 93.6753 201.306 93.0358C201.138 92.7125 200.948 92.4122 200.769 92.1062C200.587 91.8175 200.421 91.5187 200.272 91.2113C200.013 90.6228 199.955 89.9656 200.105 89.3405C200.215 88.8018 200.438 88.2924 200.757 87.8451C201.024 87.4879 201.37 87.1974 201.768 86.9963C202.068 86.8441 202.389 86.7352 202.72 86.673C202.928 86.6281 203.138 86.601 203.35 86.5921H203.512C203.552 86.5921 203.569 86.5921 203.569 86.5921H203.512H203.35C203.142 86.6084 202.935 86.6413 202.732 86.6903C202.407 86.7602 202.092 86.8728 201.797 87.0252C201.404 87.2291 201.062 87.5193 200.798 87.8739C200.492 88.3165 200.281 88.8179 200.18 89.3463C200.035 89.9507 200.094 90.5859 200.347 91.1535C200.496 91.4569 200.662 91.7519 200.844 92.0369C201.023 92.3372 201.213 92.6432 201.387 92.9665C201.787 93.6228 202.016 94.3695 202.051 95.1375L201.999 95.074L203.581 95.1144L205.088 95.1548L205.03 95.201C205.166 94.4475 205.407 93.7167 205.746 93.03C205.907 92.7066 206.087 92.3924 206.283 92.0889C206.465 91.802 206.62 91.4985 206.745 91.1824C206.992 90.6061 207.076 89.9729 206.987 89.3521C206.886 88.8214 206.667 88.3203 206.347 87.8855C206.081 87.5227 205.743 87.2198 205.353 86.9963C205.06 86.8373 204.745 86.7225 204.418 86.6556C204.21 86.615 204 86.5899 203.789 86.5806H203.621L203.569 86.5863Z" fill="#263238"/>
<path d="M204.009 95.0797C204.01 95.0624 204.01 95.0451 204.009 95.0278V94.8892C204.009 94.7622 203.974 94.5774 203.945 94.3118C203.899 93.8326 203.824 93.157 203.789 92.2852C203.789 92.0715 203.789 91.8463 203.789 91.6154C203.789 91.3844 203.789 91.1361 203.789 90.8821C203.807 90.6192 203.875 90.3622 203.992 90.1257C204.117 89.8664 204.333 89.6614 204.598 89.5483C204.74 89.4978 204.893 89.4894 205.04 89.5242C205.186 89.5591 205.319 89.6356 205.423 89.7446C205.477 89.8004 205.519 89.8665 205.547 89.9389C205.575 90.0113 205.588 90.0886 205.585 90.1661C205.574 90.3251 205.514 90.4767 205.412 90.5992C205.307 90.7201 205.177 90.8167 205.031 90.8821C204.884 90.9437 204.731 90.9883 204.575 91.0149C203.932 91.1188 203.277 91.1188 202.635 91.0149C202.478 90.9885 202.326 90.9378 202.184 90.8648C202.041 90.7955 201.913 90.6972 201.809 90.5761C201.704 90.4584 201.632 90.3149 201.601 90.1603C201.576 90.0061 201.602 89.8477 201.676 89.71C201.747 89.5721 201.866 89.4652 202.011 89.4097C202.082 89.3863 202.157 89.3777 202.232 89.3847C202.306 89.3916 202.379 89.4139 202.444 89.4502C202.572 89.5161 202.68 89.616 202.756 89.7389C202.828 89.8574 202.877 89.9887 202.9 90.1257C202.938 90.3837 202.954 90.6445 202.946 90.9052C202.946 91.4075 202.946 91.881 202.946 92.3082C202.946 93.1628 202.946 93.8557 202.946 94.3349V95.0797C202.948 95.0644 202.948 95.0489 202.946 95.0335V94.8892C202.946 94.7622 202.946 94.5697 202.946 94.3118C202.946 93.8326 202.946 93.157 202.912 92.2852C202.912 91.8579 202.912 91.3902 202.912 90.8821C202.919 90.6233 202.904 90.3644 202.866 90.1084C202.843 89.9776 202.796 89.8523 202.727 89.7389C202.653 89.6228 202.55 89.529 202.427 89.4675C202.367 89.4334 202.3 89.4126 202.231 89.4066C202.163 89.4006 202.093 89.4096 202.028 89.4328C201.896 89.4843 201.787 89.583 201.722 89.71C201.653 89.8368 201.629 89.9833 201.653 90.1257C201.684 90.273 201.751 90.41 201.849 90.5241C202.062 90.751 202.345 90.8995 202.652 90.9456C202.968 91.0036 203.289 91.0326 203.61 91.0322C203.932 91.0393 204.253 91.0141 204.569 90.9571C204.724 90.936 204.876 90.8933 205.019 90.8301C205.158 90.7692 205.283 90.6786 205.383 90.5645C205.478 90.45 205.534 90.3087 205.545 90.1603C205.548 90.0881 205.537 90.0158 205.511 89.9482C205.485 89.8806 205.446 89.8191 205.395 89.7677C205.297 89.6658 205.172 89.5941 205.035 89.5613C204.898 89.5285 204.754 89.5361 204.621 89.583C204.369 89.6875 204.163 89.8805 204.043 90.1257C203.926 90.3557 203.858 90.6072 203.841 90.8648C203.841 91.113 203.841 91.3555 203.813 91.5923C203.784 91.829 203.813 92.0484 203.813 92.2621C203.841 93.1166 203.911 93.8095 203.951 94.2829C203.951 94.5197 203.992 94.7044 204.009 94.8603V94.9989V95.0797Z" fill="#263238"/>
<path d="M201.999 95.0796C201.999 95.0796 201.999 95.2701 201.999 95.5877C201.999 95.9053 201.999 96.396 201.999 96.9099L202.981 98.134H202.929H204.118H204.072L204.69 97.4354L205.002 97.0889V97.1351C205.002 96.4365 205.002 95.7782 205.036 95.1777L205.1 95.2413L202.877 95.172H202.236H201.999C202.068 95.1626 202.138 95.1626 202.207 95.172H202.837H205.146V95.2355C205.146 95.8129 205.146 96.4942 205.146 97.1928L204.834 97.5451L204.217 98.2379H204.188H202.993L201.959 96.9619C201.959 96.4365 201.988 95.9861 201.999 95.605C201.985 95.4302 201.985 95.2544 201.999 95.0796Z" fill="#263238"/>
<path d="M204.997 96.9392L204.882 96.8873C204.785 96.8359 204.684 96.7915 204.581 96.7545C204.241 96.6194 203.879 96.5489 203.513 96.5466C203.149 96.5425 202.787 96.6051 202.445 96.7314C202.34 96.7672 202.238 96.8096 202.139 96.8584L202.023 96.9104C202.054 96.8823 202.09 96.8589 202.127 96.8411L202.433 96.6967C202.778 96.5634 203.144 96.4949 203.513 96.4946C203.884 96.5006 204.25 96.577 204.593 96.7198C204.696 96.7639 204.796 96.814 204.893 96.8699C204.931 96.8878 204.966 96.9112 204.997 96.9392Z" fill="#263238"/>
<path d="M205.015 96.4657L204.905 96.408L204.599 96.2752C204.257 96.1456 203.896 96.0753 203.531 96.0673C203.166 96.0676 202.805 96.1321 202.463 96.2578C202.358 96.2937 202.256 96.3361 202.157 96.3849L202.047 96.431L202.151 96.3675C202.246 96.3105 202.347 96.2622 202.451 96.2232C202.797 96.0866 203.165 96.018 203.537 96.0211C203.906 96.0277 204.27 96.1041 204.61 96.2463C204.715 96.288 204.815 96.3382 204.911 96.3964C204.949 96.4143 204.984 96.4376 205.015 96.4657Z" fill="#263238"/>
<path d="M205.003 96.0092C204.965 95.9961 204.928 95.9786 204.893 95.9573C204.794 95.9062 204.692 95.8618 204.587 95.8245C203.899 95.5625 203.139 95.5625 202.451 95.8245C202.324 95.8707 202.22 95.9168 202.145 95.9515L202.035 96.0035L202.139 95.9342C202.208 95.8995 202.312 95.8476 202.439 95.7956C202.784 95.6573 203.153 95.5886 203.525 95.5935C203.896 95.5956 204.262 95.6702 204.605 95.8129C204.732 95.8707 204.836 95.9226 204.905 95.963L205.003 96.0092Z" fill="#263238"/>
<path d="M216.032 108.441C216.032 108.441 214.877 119.094 216.361 124.925L230.593 124.302C230.593 124.302 227.545 113.799 229.439 109.145L216.032 108.441Z" fill="#EBEBEB"/>
<path d="M216.088 108.1C216.088 108.1 216.186 119.602 216.769 123.112L231.204 122.431C231.204 122.431 229.934 111.126 230.425 108.106L216.088 108.1Z" fill="#61D2D2"/>
<path d="M228.236 112.932C228.236 112.984 226.076 113.158 223.403 113.319C220.73 113.481 218.564 113.568 218.559 113.51C218.553 113.452 220.718 113.285 223.391 113.123C226.065 112.961 228.236 112.875 228.236 112.932Z" fill="#FBFBFB"/>
<path d="M228.242 115.363C228.242 115.421 226.082 115.594 223.409 115.75C220.735 115.906 218.564 115.999 218.564 115.947C218.564 115.895 220.724 115.721 223.397 115.56C226.071 115.398 228.236 115.288 228.242 115.363Z" fill="#FBFBFB"/>
<path d="M225.789 117.76C225.527 117.829 225.258 117.868 224.987 117.875C224.49 117.921 223.803 117.973 223.041 118.02C222.279 118.066 221.586 118.095 221.09 118.106C220.819 118.142 220.546 118.142 220.275 118.106C220.537 118.034 220.807 117.996 221.078 117.991C221.58 117.945 222.267 117.893 223.03 117.846C223.792 117.8 224.479 117.766 224.981 117.754C225.25 117.721 225.521 117.723 225.789 117.76Z" fill="#FBFBFB"/>
<path d="M248.972 89.427C248.972 89.5136 240.536 89.5771 230.131 89.5771C219.727 89.5771 211.291 89.5136 211.291 89.427C211.291 89.3404 219.727 89.2769 230.131 89.2769C240.536 89.2769 248.972 89.3461 248.972 89.427Z" fill="#263238"/>
<path d="M225.131 92.8625C225.131 92.9491 221.967 93.0126 218.063 93.0126C214.16 93.0126 210.996 92.9491 210.996 92.8625C210.996 92.7759 214.16 92.7124 218.063 92.7124C221.967 92.7124 225.131 92.7701 225.131 92.8625Z" fill="#263238"/>
<path d="M232.636 92.8624C230.825 93.0625 228.997 93.0625 227.186 92.8624C228.997 92.6624 230.825 92.6624 232.636 92.8624Z" fill="#263238"/>
<path d="M311.399 129.088C311.393 129.044 311.393 129 311.399 128.956C311.399 128.852 311.399 128.725 311.365 128.569C311.336 128.205 311.295 127.708 311.243 127.085C311.157 125.763 311.03 123.903 310.874 121.617C310.585 116.969 310.187 110.6 309.748 103.562C309.309 96.5235 308.986 90.1491 308.714 85.5011C308.599 83.1915 308.506 81.3496 308.437 80.0274C308.437 79.4038 308.391 78.9073 308.379 78.5377C308.379 78.3818 308.379 78.2548 308.379 78.1509C308.371 78.107 308.371 78.0619 308.379 78.0181C308.382 78.0623 308.382 78.1066 308.379 78.1509L308.414 78.5377C308.443 78.9015 308.483 79.398 308.53 80.0216C308.622 81.3438 308.749 83.2031 308.905 85.4895C309.194 90.1087 309.592 96.5062 310.025 103.545C310.458 110.583 310.793 116.957 311.059 121.6C311.18 123.909 311.272 125.757 311.341 127.079C311.341 127.703 311.388 128.199 311.399 128.569C311.399 128.725 311.399 128.852 311.399 128.956C311.408 128.999 311.408 129.045 311.399 129.088Z" fill="#263238"/>
<path d="M308.357 64.9571H308.022H307.04H303.258H289.372L243.533 64.9629L196.1 64.8128C193.742 65.3931 191.631 66.7097 190.072 68.5716C188.906 69.9683 188.102 71.6298 187.728 73.4102C187.488 74.5268 187.412 75.6725 187.503 76.811C187.537 77.1978 187.572 77.4923 187.607 77.6886C187.625 77.7879 187.639 77.8881 187.647 77.9889C187.55 77.6097 187.482 77.2237 187.445 76.8341C187.329 75.6887 187.387 74.5322 187.618 73.4044C187.972 71.6014 188.765 69.9136 189.928 68.4908C191.499 66.5848 193.64 65.233 196.037 64.6338L243.475 64.6915L289.291 64.8359L303.183 64.9167L306.959 64.9514H307.941L308.357 64.9571Z" fill="#263238"/>
<path d="M130.141 266.987L128.473 297.883L139.668 300.585L141.897 270.405L130.141 266.987Z" fill="#AA6550"/>
<path d="M128.144 297.624L126.238 306.007H139.114L139.668 300.545L128.144 297.624Z" fill="#61D2D2"/>
<path d="M139.381 304.789C138.76 304.886 138.132 304.921 137.504 304.893C136.35 304.893 134.744 304.893 132.978 304.812L128.457 304.621C127.83 304.623 127.204 304.572 126.586 304.471C127.206 304.37 127.835 304.336 128.462 304.367C129.617 304.367 131.222 304.367 132.989 304.454L137.51 304.644C138.137 304.636 138.763 304.685 139.381 304.789Z" fill="#263238"/>
<path d="M133.922 299.257C134.02 299.257 134.014 300.476 133.922 301.971C133.829 303.467 133.662 304.668 133.564 304.662C133.466 304.656 133.466 303.438 133.564 301.948C133.662 300.458 133.824 299.246 133.922 299.257Z" fill="#263238"/>
<g opacity="0.6">
<path d="M126.238 306.007H139.114L139.241 304.789L126.469 304.471L126.238 305.863" fill="#FBFBFB"/>
</g>
<path d="M172.637 282.011L175.356 302.479L185.259 301.792L183.18 283.021L172.637 282.011Z" fill="#AA6550"/>
<path d="M185.363 299.569C185.363 299.569 196.495 303.328 196.68 305.343L175.398 305.978L175.207 300.418L175.992 300.574C179.145 301.199 182.414 300.849 185.363 299.569Z" fill="#61D2D2"/>
<g opacity="0.6">
<path d="M177.707 301.388C177.503 301.455 177.33 301.595 177.223 301.782C177.117 301.969 177.083 302.188 177.13 302.398C177.189 302.604 177.326 302.779 177.511 302.886C177.696 302.994 177.915 303.026 178.123 302.976C178.333 302.9 178.509 302.749 178.615 302.552C178.722 302.355 178.752 302.125 178.7 301.908C178.615 301.699 178.453 301.532 178.247 301.442C178.041 301.351 177.808 301.344 177.597 301.423" fill="#FBFBFB"/>
</g>
<g opacity="0.6">
<path d="M175.396 305.978V304.246L195.802 304.298C195.802 304.298 196.76 304.685 196.673 305.355L175.396 305.978Z" fill="#FBFBFB"/>
</g>
<path d="M185.704 299.477C185.704 299.581 185.19 299.638 184.688 299.991C184.185 300.343 183.926 300.782 183.827 300.747C183.729 300.712 183.868 300.1 184.486 299.69C185.104 299.28 185.727 299.356 185.704 299.477Z" fill="#263238"/>
<path d="M187.968 300.309C187.968 300.407 187.546 300.597 187.205 301.048C186.865 301.498 186.778 301.966 186.674 301.966C186.57 301.966 186.489 301.388 186.922 300.811C187.355 300.234 187.962 300.21 187.968 300.309Z" fill="#263238"/>
<path d="M189.312 302.941C189.22 302.941 189.058 302.45 189.312 301.873C189.566 301.296 190.045 301.053 190.092 301.14C190.138 301.226 189.843 301.538 189.647 302.012C189.451 302.485 189.416 302.941 189.312 302.941Z" fill="#263238"/>
<path d="M185.472 299.396C185.126 299.505 184.756 299.515 184.404 299.425C184.019 299.367 183.643 299.263 183.284 299.113C183.069 299.027 182.86 298.925 182.66 298.807C182.54 298.743 182.429 298.661 182.331 298.564C182.26 298.494 182.216 298.401 182.204 298.301C182.193 298.202 182.215 298.101 182.268 298.016C182.318 297.942 182.385 297.88 182.463 297.836C182.541 297.792 182.629 297.766 182.718 297.762C182.853 297.755 182.987 297.77 183.117 297.808C183.346 297.855 183.571 297.924 183.786 298.016C184.149 298.168 184.486 298.374 184.785 298.628C185.293 299.073 185.472 299.459 185.438 299.477C185.403 299.494 185.143 299.194 184.629 298.83C184.33 298.621 184.006 298.451 183.665 298.322C183.464 298.249 183.258 298.193 183.047 298.155C182.822 298.103 182.626 298.103 182.574 298.206C182.522 298.31 182.574 298.258 182.574 298.328C182.643 298.398 182.723 298.456 182.811 298.501C182.998 298.613 183.19 298.715 183.388 298.807C183.722 298.961 184.07 299.083 184.427 299.171C184.78 299.225 185.129 299.3 185.472 299.396Z" fill="#263238"/>
<path d="M185.341 299.552C185.134 299.252 185.027 298.894 185.035 298.53C185.006 298.142 185.043 297.751 185.144 297.375C185.204 297.149 185.289 296.93 185.399 296.723C185.448 296.576 185.536 296.446 185.652 296.344C185.769 296.243 185.911 296.174 186.062 296.146C186.157 296.145 186.249 296.171 186.329 296.222C186.408 296.272 186.472 296.343 186.513 296.428C186.571 296.551 186.612 296.681 186.634 296.815C186.671 297.054 186.671 297.298 186.634 297.537C186.585 297.937 186.441 298.319 186.213 298.651C185.808 299.229 185.381 299.35 185.37 299.315C185.358 299.281 185.693 299.05 185.993 298.513C186.168 298.203 186.273 297.858 186.299 297.502C186.316 297.296 186.305 297.088 186.265 296.885C186.224 296.659 186.132 296.48 186.051 296.509C185.97 296.538 185.768 296.682 185.687 296.867C185.589 297.053 185.506 297.246 185.439 297.445C185.331 297.793 185.273 298.154 185.266 298.519C185.277 299.148 185.398 299.535 185.341 299.552Z" fill="#263238"/>
<path d="M138.445 178.375C138.445 178.375 130.563 191.504 130.563 199.351L128.629 294.967L141.043 297.929L150.512 204.484C150.512 204.484 173.446 298.172 174.185 298.172C174.924 298.172 186.212 296.145 186.212 296.145L169.087 178.802L138.445 178.375Z" fill="#263238"/>
<path d="M143.305 201.897C143.314 201.978 143.314 202.059 143.305 202.14C143.305 202.313 143.248 202.55 143.207 202.844C143.103 203.48 142.959 204.386 142.774 205.541C142.393 207.879 141.862 211.263 141.227 215.455C139.968 223.815 138.392 235.421 137.069 248.302C135.747 261.184 134.945 272.853 134.489 281.318C134.258 285.55 134.09 288.974 133.992 291.341C133.94 292.496 133.894 293.426 133.865 294.067C133.865 294.367 133.83 294.598 133.825 294.777C133.823 294.858 133.813 294.94 133.796 295.019C133.789 294.939 133.789 294.857 133.796 294.777C133.796 294.598 133.796 294.361 133.796 294.067C133.796 293.42 133.83 292.508 133.859 291.336C133.917 288.968 134.044 285.562 134.246 281.306C134.644 272.836 135.401 261.144 136.729 248.268C138.057 235.392 139.662 223.792 140.99 215.42C141.654 211.234 142.22 207.85 142.647 205.518C142.855 204.363 143.022 203.462 143.138 202.833C143.196 202.538 143.236 202.307 143.271 202.134C143.277 202.055 143.288 201.975 143.305 201.897Z" fill="#455A64"/>
<path d="M162.955 203.497C163.047 203.497 166.835 224.468 171.414 250.364C175.992 276.26 179.63 297.277 179.538 297.294C179.445 297.312 175.657 276.329 171.079 250.422C166.5 224.514 162.862 203.514 162.955 203.497Z" fill="#455A64"/>
<path d="M150.073 204.323C150.073 204.323 150.015 204.248 149.94 204.086C149.865 203.925 149.756 203.688 149.623 203.376C149.265 202.496 148.959 201.595 148.705 200.68C147.874 197.644 147.573 194.487 147.816 191.349C147.879 190.425 148.006 189.536 148.145 188.681C148.283 187.827 148.52 187.013 148.722 186.245C149.155 184.715 149.611 183.358 150.004 182.203C150.397 181.048 150.731 180.153 150.974 179.53L151.263 178.808C151.294 178.724 151.332 178.643 151.378 178.565C151.372 178.657 151.351 178.747 151.315 178.831L151.084 179.57C150.858 180.251 150.564 181.164 150.206 182.267C149.848 183.369 149.409 184.772 148.988 186.308C148.78 187.07 148.566 187.879 148.41 188.716C148.254 189.553 148.156 190.448 148.093 191.355C147.86 194.457 148.127 197.576 148.884 200.593C149.178 201.748 149.496 202.666 149.709 203.301C149.851 203.634 149.973 203.975 150.073 204.323Z" fill="#455A64"/>
<path d="M153.589 188.266V188.445C153.589 188.583 153.589 188.751 153.618 188.953C153.618 189.42 153.665 190.055 153.699 190.841C153.757 192.481 153.838 194.761 153.93 197.492L153.849 197.377L158.63 199.323H158.497L162.377 196.961L162.631 196.805L162.556 196.921C162.851 193.768 163.134 190.8 163.365 188.26L163.492 188.404L156.344 188.329L154.305 188.294H153.763H153.566C153.794 188.267 154.024 188.255 154.254 188.26L156.257 188.225L163.486 188.162H163.63V188.306C163.405 190.864 163.145 193.832 162.862 196.967V197.042L162.799 197.082L162.545 197.232L158.653 199.588L158.59 199.629L158.526 199.6L153.757 197.619L153.682 197.59V197.504C153.641 194.738 153.607 192.429 153.584 190.766C153.584 189.992 153.584 189.368 153.584 188.906C153.569 188.693 153.571 188.479 153.589 188.266Z" fill="#455A64"/>
<path d="M135.621 185.73C135.621 185.73 135.621 185.967 135.534 186.377C135.447 186.787 135.378 187.399 135.268 188.109C135.02 189.628 134.691 191.735 134.275 194.259L134.223 194.132L137.832 196.805H137.705L142.093 195.587L142.318 195.523L142.214 195.627C143.052 192.74 143.843 190.078 144.524 187.757L144.622 187.925L138.138 186.377L136.29 185.921C135.863 185.811 135.626 185.748 135.621 185.736C135.832 185.762 136.043 185.801 136.25 185.852L138.08 186.233L144.68 187.665L144.813 187.699L144.778 187.832L142.486 195.708V195.789H142.405L142.18 195.852L137.792 197.065H137.722L137.665 197.024L134.067 194.391L134.004 194.339V194.264C134.472 191.718 134.858 189.587 135.159 188.057C135.297 187.347 135.407 186.776 135.488 186.325C135.517 186.124 135.561 185.925 135.621 185.73Z" fill="#455A64"/>
<path d="M160.692 202.475C158.959 203.006 157.197 203.439 155.415 203.774C153.652 204.206 151.868 204.542 150.068 204.779C151.804 204.248 153.568 203.814 155.351 203.48C157.112 203.048 158.895 202.712 160.692 202.475Z" fill="#455A64"/>
<path d="M145.257 202.885C144.808 202.945 144.354 202.945 143.905 202.885C142.817 202.797 141.736 202.629 140.672 202.383C139.608 202.142 138.564 201.822 137.548 201.424C137.117 201.291 136.706 201.097 136.33 200.847C136.769 200.942 137.2 201.074 137.618 201.239C138.409 201.493 139.506 201.817 140.741 202.1C141.977 202.383 143.103 202.573 143.929 202.677C144.377 202.707 144.821 202.776 145.257 202.885Z" fill="#455A64"/>
<path d="M143.882 103.273C144.309 104.509 142.843 105.583 141.572 105.854C140.302 106.126 138.755 106.328 138.172 107.5C137.663 108.516 138.172 109.81 137.715 110.843C136.838 112.812 133.293 112.402 132.6 114.446C132.092 115.866 133.431 117.293 133.246 118.753C133.102 120.018 131.942 120.884 130.937 121.64C129.932 122.397 128.847 123.465 129.003 124.735C129.187 126.196 130.977 127.206 130.81 128.673C130.642 130.139 128.708 130.786 128.425 132.212C128.096 133.898 130.209 134.984 130.891 136.566C131.41 137.773 131.087 139.332 131.965 140.313C132.842 141.295 134.459 141.116 135.775 140.839L148.923 138.05C148.033 135.977 148.865 133.54 150.135 131.67C151.405 129.799 153.086 128.205 154.177 126.242C155.268 124.279 155.62 121.623 154.177 119.856" fill="#263238"/>
<path d="M166.997 113.782C166.906 113.079 166.761 112.384 166.564 111.703C166.462 111.381 166.281 111.09 166.038 110.855C165.778 110.606 165.461 110.762 165.23 111.114C164.844 111.95 164.644 112.859 164.644 113.779C164.644 114.699 164.844 115.609 165.23 116.444C165.444 116.802 165.807 116.958 166.038 116.709C166.28 116.471 166.46 116.178 166.564 115.855C166.76 115.176 166.905 114.483 166.997 113.782C167.046 113.97 167.062 114.166 167.043 114.359C167.034 114.894 166.95 115.424 166.795 115.936C166.689 116.31 166.49 116.652 166.217 116.929C166.126 117.016 166.013 117.078 165.89 117.106C165.767 117.135 165.639 117.129 165.519 117.09C165.28 117.002 165.077 116.838 164.941 116.623C164.508 115.738 164.283 114.767 164.283 113.782C164.283 112.797 164.508 111.826 164.941 110.941C165.077 110.726 165.28 110.562 165.519 110.474C165.639 110.435 165.767 110.429 165.89 110.458C166.013 110.486 166.126 110.548 166.217 110.635C166.49 110.912 166.689 111.254 166.795 111.628C166.949 112.138 167.033 112.666 167.043 113.199C167.062 113.394 167.046 113.592 166.997 113.782Z" fill="#263238"/>
<path d="M145.553 125.884C143.174 121.842 142.492 116.513 141.892 111.888C141.609 109.705 141.113 106.605 142.643 105.242C144.288 103.781 144.444 101.53 146.332 100.404C148.22 99.2777 150.778 99.1853 152.556 100.473" fill="#263238"/>
<path d="M152.14 140.117C153.002 140.184 153.87 140.076 154.69 139.799C155.51 139.523 156.267 139.084 156.913 138.509C157.56 137.934 158.084 137.234 158.455 136.452C158.825 135.67 159.034 134.821 159.068 133.956C159.218 130.446 159.345 126.9 159.345 126.9C159.345 126.9 164.663 126.415 165.067 121.126C165.472 115.838 165.327 103.712 165.327 103.712C162.414 102.237 159.159 101.566 155.9 101.769C152.641 101.972 149.495 103.042 146.787 104.867L147.058 123.39L147.03 133.356C147.105 136.71 148.837 139.851 152.14 140.117Z" fill="#AA6550"/>
<path d="M159.859 114.711C158.958 113.585 157.48 113.135 156.267 113.92C155.67 114.332 155.238 114.942 155.049 115.642C154.86 116.342 154.925 117.086 155.234 117.743C155.506 118.229 155.875 118.654 156.32 118.991C156.764 119.328 157.273 119.569 157.815 119.7C158.299 119.808 158.727 120.089 159.018 120.492C159.308 120.894 159.441 121.389 159.391 121.883C159.235 123.199 157.035 123.69 156.036 124.77C154.489 126.467 151.105 127.177 148.825 127.437C146.544 127.697 146.85 127.72 145.551 125.872C144.678 124.622 144.233 123.124 144.281 121.6C144.215 117.716 144.148 113.834 144.079 109.954C143.991 108.556 144.084 107.153 144.356 105.779C144.625 104.385 145.416 103.146 146.567 102.315C147.849 101.472 149.454 101.408 150.932 100.941C152.757 100.363 154.31 99.1507 156.013 98.2846C157.717 97.4185 159.818 96.8988 161.527 97.7649C162.751 98.3885 163.571 99.6126 164.767 100.3C166.464 101.27 168.808 101.056 169.599 103.562C169.877 104.435 169.864 105.375 169.565 106.241C168.41 109.642 164.178 110.999 161.146 109.521C161.089 110.098 161.649 111.38 161.037 113.204C160.84 113.782 160.771 114.671 159.882 114.683" fill="#263238"/>
<path d="M158.907 117.997C158.907 117.997 158.907 118.095 158.838 118.222C158.768 118.309 158.681 118.381 158.581 118.432C158.482 118.483 158.372 118.511 158.261 118.517C157.891 118.494 157.544 118.331 157.291 118.06C157.039 117.789 156.9 117.432 156.904 117.062C156.89 116.859 156.918 116.657 156.984 116.465C157.051 116.274 157.155 116.098 157.291 115.947C157.51 115.708 157.799 115.542 158.116 115.474C158.659 115.364 158.971 115.566 158.948 115.595C158.925 115.624 158.624 115.595 158.191 115.728C157.917 115.813 157.679 115.986 157.512 116.219C157.345 116.453 157.259 116.734 157.267 117.021C157.267 117.305 157.364 117.58 157.543 117.799C157.722 118.019 157.971 118.171 158.249 118.228C158.694 118.28 158.873 117.962 158.907 117.997Z" fill="#995037"/>
<path d="M167.008 113.557C165.854 113.92 164.669 114.173 163.468 114.313C162.284 114.561 161.08 114.7 159.871 114.729C159.871 114.631 161.442 114.296 163.411 113.972C164.594 113.722 165.798 113.583 167.008 113.557Z" fill="#263238"/>
<path d="M145.95 131.023C146.119 131.341 146.396 131.589 146.731 131.723C147.066 131.858 147.437 131.869 147.78 131.756C148.458 131.507 149.065 131.094 149.547 130.555C150.022 130.019 150.615 129.6 151.279 129.331C152.682 128.904 154.403 129.839 155.58 128.967C156.654 128.176 156.516 126.38 157.572 125.56C158.15 125.127 158.912 125.07 159.484 124.648C160.552 123.863 160.373 122.102 159.484 121.12C158.594 120.139 157.238 119.746 155.962 119.388L144.65 124.209L145.95 131.023Z" fill="#263238"/>
<path d="M159.409 110.583C159.409 110.583 159.38 110.612 159.316 110.652C159.22 110.715 159.12 110.771 159.016 110.82C158.621 111.012 158.207 111.161 157.78 111.264C157.104 111.425 156.417 111.535 155.725 111.593C154.817 111.657 153.914 111.781 153.023 111.963C151.953 112.162 150.976 112.698 150.234 113.493C149.472 114.376 149.183 115.647 148.594 116.882C148.298 117.534 147.845 118.103 147.278 118.539C146.677 118.965 146.012 119.293 145.309 119.509C143.917 119.971 142.387 120.254 141.232 121.242C140.662 121.702 140.288 122.363 140.187 123.089C140.124 123.821 140.124 124.557 140.187 125.289C140.25 126.036 140.104 126.786 139.766 127.454C139.398 128.075 138.87 128.584 138.236 128.927C137.081 129.625 135.816 129.995 134.829 130.624C134.348 130.909 133.932 131.293 133.611 131.75C133.335 132.181 133.176 132.677 133.149 133.188C133.148 134.091 133.27 134.991 133.513 135.861C133.681 136.541 133.745 137.241 133.703 137.94C133.677 138.385 133.549 138.817 133.328 139.204C133.25 139.339 133.153 139.462 133.039 139.568C133.365 139.084 133.549 138.518 133.57 137.934C133.589 137.25 133.507 136.568 133.328 135.907C133.06 135.021 132.918 134.102 132.906 133.176C132.926 132.62 133.092 132.079 133.385 131.606C133.723 131.113 134.162 130.697 134.673 130.388C135.701 129.718 136.948 129.337 138.074 128.655C138.681 128.346 139.179 127.857 139.497 127.254C139.815 126.652 139.939 125.965 139.852 125.289C139.786 124.538 139.786 123.783 139.852 123.032C139.966 122.226 140.378 121.492 141.007 120.976C142.266 119.919 143.848 119.648 145.199 119.192C145.87 118.988 146.505 118.68 147.081 118.28C147.611 117.874 148.033 117.345 148.311 116.738C148.888 115.583 149.189 114.255 150.014 113.308C150.802 112.475 151.84 111.922 152.971 111.732C153.874 111.558 154.789 111.448 155.707 111.403C156.394 111.359 157.077 111.27 157.751 111.137C158.321 111.008 158.876 110.822 159.409 110.583Z" fill="#455A64"/>
<path d="M156.344 112.471C156.344 112.506 155.934 112.471 155.241 112.627C154.263 112.864 153.38 113.392 152.707 114.14C152.242 114.648 151.897 115.254 151.696 115.912C151.506 116.684 151.436 117.481 151.488 118.274C151.561 119.193 151.427 120.116 151.096 120.976C150.876 121.43 150.534 121.814 150.108 122.085C149.699 122.346 149.275 122.583 148.838 122.795C148.415 122.982 148.034 123.253 147.718 123.592C147.442 123.937 147.285 124.362 147.273 124.804C147.21 125.682 147.4 126.658 146.973 127.501C146.562 128.233 145.951 128.834 145.212 129.233C144.548 129.625 143.901 129.92 143.359 130.249C142.859 130.522 142.416 130.889 142.054 131.329C141.778 131.666 141.58 132.06 141.476 132.484C141.399 132.843 141.399 133.215 141.476 133.575C141.417 133.495 141.378 133.402 141.361 133.303C141.289 133.028 141.278 132.741 141.326 132.46C141.41 132.015 141.593 131.594 141.863 131.231C142.231 130.765 142.683 130.373 143.197 130.076C143.774 129.724 144.392 129.418 145.027 129.025C145.712 128.643 146.275 128.074 146.65 127.385C147.025 126.658 146.852 125.757 146.904 124.804C146.918 124.291 147.098 123.797 147.418 123.395C147.764 123.019 148.185 122.718 148.653 122.512C149.537 122.079 150.432 121.686 150.795 120.861C151.106 120.048 151.234 119.176 151.171 118.309C151.13 117.484 151.216 116.659 151.425 115.86C151.645 115.168 152.022 114.535 152.528 114.013C153.244 113.248 154.184 112.729 155.213 112.529C155.488 112.477 155.769 112.458 156.05 112.471C156.147 112.456 156.247 112.456 156.344 112.471Z" fill="#455A64"/>
<path d="M160.657 131.814L159.289 129.002L147.4 128.551L145.535 132.206H160.467" fill="#61D2D2"/>
<path d="M201.525 157.248C201.438 156.821 204.666 140.03 205.567 135.422C205.593 135.282 205.588 135.137 205.552 134.998C205.516 134.859 205.45 134.73 205.358 134.62C205.267 134.51 205.152 134.421 205.023 134.36C204.893 134.299 204.751 134.268 204.608 134.268H180.797C180.576 134.266 180.362 134.339 180.188 134.476C180.015 134.612 179.894 134.803 179.844 135.018L174.971 155.568L162.955 156.463L163.377 157.254L201.525 157.248Z" fill="#455A64"/>
<path d="M200.478 155.758L204.33 135.405L180.928 135.543L175.789 155.787L200.478 155.758Z" fill="#EBEBEB"/>
<path d="M175.773 155.798L180.912 135.549L204.331 135.405L200.474 155.769L175.773 155.798ZM180.941 135.59L175.808 155.798L200.469 155.769L204.314 135.445L180.941 135.59Z" fill="#263238"/>
<path d="M200.456 155.897C200.456 155.978 193.608 156.047 185.166 156.047C176.725 156.047 169.871 155.978 169.871 155.897C169.871 155.816 176.713 155.747 185.166 155.747C193.619 155.747 200.456 155.816 200.456 155.897Z" fill="#263238"/>
<path d="M198.839 150.758C198.74 150.774 198.638 150.774 198.539 150.758L197.661 150.787L194.434 150.833C191.708 150.833 187.95 150.879 183.792 150.879H180.189L180.236 150.7C181.067 147.496 181.789 144.695 182.32 142.617C182.58 141.647 182.793 140.885 182.955 140.261C183.023 139.976 183.111 139.696 183.221 139.424C183.188 139.717 183.132 140.006 183.053 140.29C182.915 140.867 182.73 141.681 182.476 142.663C181.974 144.719 181.286 147.525 180.495 150.746L180.357 150.568H183.769C187.927 150.568 191.685 150.567 194.411 150.614L197.638 150.66H198.516C198.629 150.673 198.738 150.706 198.839 150.758Z" fill="#455A64"/>
<path d="M181.893 149.984L182.326 148.021H185.34L184.953 149.984H181.893Z" fill="#61D2D2"/>
<path d="M185.986 149.984L186.893 146.122H189.907L189.052 149.984H185.986Z" fill="#61D2D2"/>
<path d="M190.08 149.984L190.519 148.021H193.533L193.146 149.984H190.08Z" fill="#61D2D2"/>
<path d="M194.174 149.984L195.9 142.478H198.914L197.24 149.984H194.174Z" fill="#61D2D2"/>
<path d="M184.255 152.178C183.866 152.322 183.448 152.369 183.037 152.317C182.367 152.317 181.824 152.242 181.824 152.155C182.622 151.955 183.457 151.955 184.255 152.155V152.178Z" fill="#455A64"/>
<path d="M188.222 152.173C187.834 152.313 187.419 152.361 187.009 152.311C186.596 152.353 186.179 152.298 185.791 152.15C186.18 152.008 186.598 151.96 187.009 152.011C187.421 151.966 187.837 152.022 188.222 152.173Z" fill="#455A64"/>
<path d="M192.194 152.167C191.805 152.307 191.388 152.354 190.976 152.305C190.565 152.347 190.15 152.292 189.764 152.144C190.153 152.001 190.571 151.954 190.982 152.005C191.393 151.96 191.809 152.016 192.194 152.167Z" fill="#455A64"/>
<path d="M196.185 152.161C195.385 152.361 194.548 152.361 193.748 152.161C194.548 151.961 195.385 151.961 196.185 152.161Z" fill="#455A64"/>
<path d="M190.322 138.592C189.207 138.741 188.08 138.791 186.956 138.743C185.83 138.791 184.701 138.741 183.584 138.592C184.701 138.444 185.83 138.394 186.956 138.442C188.08 138.394 189.207 138.444 190.322 138.592Z" fill="#455A64"/>
<path d="M186.784 137.755C185.798 137.963 184.779 137.963 183.793 137.755C184.78 137.554 185.797 137.554 186.784 137.755Z" fill="#455A64"/>
<path d="M180.328 169.621L194.105 159.65L193.591 158.818C192.838 157.593 191.707 156.644 190.369 156.116L188.215 156.503L175.443 158.449L180.328 169.621Z" fill="#61D2D2"/>
<path d="M131.349 167.329L142.799 162.779L140.241 153.304L130.916 156.474L131.349 167.329Z" fill="#61D2D2"/>
<path d="M179.849 169.887C182.701 168.472 183.435 165.072 182.043 162.208L170.201 136.86C169.928 136.234 169.52 135.676 169.006 135.226C167.675 134.041 166.122 133.134 164.437 132.557C162.751 131.98 160.967 131.745 159.19 131.866L146.822 131.542C146.822 131.542 137.105 131.542 133.461 139.199C133.196 139.776 127.549 150.96 123.825 158.339C123.418 159.143 123.187 160.024 123.145 160.923C123.104 161.823 123.253 162.721 123.584 163.559C123.914 164.397 124.419 165.155 125.063 165.784C125.708 166.413 126.478 166.898 127.324 167.208C128.84 167.773 130.515 167.739 132.007 167.111C133.498 166.483 134.694 165.31 135.349 163.83L139.391 154.811L141.909 167.728L138.242 178.375L168.907 178.796L166.552 164.552L165.807 154.401L172.049 167.254C172.38 167.946 172.847 168.565 173.42 169.075C173.994 169.584 174.664 169.974 175.39 170.222C176.116 170.47 176.885 170.571 177.65 170.518C178.416 170.465 179.163 170.261 179.849 169.916V169.887Z" fill="#61D2D2"/>
<g opacity="0.2">
<path d="M142.963 167.479C145.273 169.211 148.708 168.634 151.566 168.166C154.466 167.746 157.125 166.314 159.072 164.125C159.979 163.171 160.478 161.901 160.464 160.585C160.348 159.286 159.199 158.033 157.906 158.189C156.428 158.368 155.712 160.031 155.019 161.342C153.846 163.397 152.066 165.04 149.924 166.046C147.781 167.052 145.38 167.371 143.05 166.96C143.05 166.96 142.553 167.173 142.963 167.479Z" fill="black"/>
</g>
<g opacity="0.2">
<path d="M161.904 147.524C162.626 153.356 162.303 152.917 163.521 158.668C164.098 161.492 164.843 164.442 166.795 166.578L165.831 154.401L161.904 147.524Z" fill="black"/>
</g>
<path d="M138.264 178.374L137.387 175.817L139.673 174.292L167.804 171.971L169.784 175.701L168.93 178.796L138.264 178.374Z" fill="#61D2D2"/>
<path d="M144.074 130.11C143.486 130.339 142.958 130.696 142.528 131.157C142.098 131.617 141.778 132.168 141.59 132.77C141.403 133.371 141.353 134.007 141.445 134.63C141.537 135.254 141.769 135.848 142.122 136.369C142.416 136.69 142.604 137.093 142.659 137.524C142.601 138.564 140.927 138.592 140.396 139.487C140.256 139.807 140.225 140.162 140.306 140.501C140.387 140.84 140.577 141.143 140.846 141.364C141.389 141.798 141.969 142.184 142.578 142.519C142.88 142.692 143.135 142.937 143.321 143.232C143.506 143.527 143.616 143.863 143.641 144.21C144.218 144.21 144.576 143.483 144.489 142.906C144.331 142.339 144.087 141.8 143.768 141.306C143.61 141.059 143.519 140.775 143.506 140.482C143.493 140.189 143.557 139.898 143.693 139.637C144.074 139.089 144.847 139.06 145.482 138.823C146.077 138.565 146.547 138.085 146.794 137.486C147.041 136.887 147.044 136.215 146.805 135.613C146.424 134.77 145.546 133.916 145.973 133.096C146.21 132.639 146.758 132.466 147.209 132.212C147.676 131.955 148.072 131.586 148.361 131.139C148.65 130.691 148.823 130.178 148.865 129.647C148.906 129.115 148.815 128.582 148.6 128.095C148.385 127.607 148.051 127.181 147.63 126.854" fill="#263238"/>
<path d="M139.31 156.047C139.153 156.547 138.944 157.028 138.687 157.485C138.259 158.356 137.636 159.54 136.885 160.816C136.134 162.092 135.39 163.201 134.83 163.998C134.553 164.441 134.232 164.855 133.871 165.233C134.091 164.758 134.354 164.304 134.656 163.876C135.164 163.056 135.875 161.925 136.625 160.66C137.376 159.396 138.023 158.229 138.496 157.386C138.725 156.916 138.998 156.467 139.31 156.047Z" fill="#263238"/>
<path d="M136.614 160.903C136.703 161.616 136.636 162.34 136.416 163.024C136.197 163.708 135.831 164.336 135.343 164.864C135.268 164.812 135.788 164.021 136.129 162.929C136.469 161.838 136.521 160.903 136.614 160.903Z" fill="#263238"/>
<path d="M181.541 161.295C181.466 161.33 179.064 156.307 176.182 150.082C173.301 143.858 171.02 138.777 171.096 138.742C171.171 138.708 173.573 143.725 176.454 149.955C179.335 156.185 181.616 161.261 181.541 161.295Z" fill="#263238"/>
<path d="M166.932 135.405C166.932 135.451 166.413 135.642 165.65 136.115C164.654 136.73 163.805 137.556 163.162 138.535C162.52 139.513 162.1 140.621 161.932 141.78C161.799 142.669 161.84 143.235 161.788 143.24C161.665 142.754 161.641 142.247 161.718 141.751C161.834 140.543 162.242 139.381 162.908 138.367C163.574 137.353 164.478 136.516 165.541 135.931C165.964 135.663 166.437 135.484 166.932 135.405Z" fill="#263238"/>
<path d="M141.909 167.831C141.828 167.831 140.448 161.977 138.825 154.707C137.203 147.438 135.938 141.537 136.037 141.52C136.135 141.502 137.497 147.374 139.12 154.644C140.742 161.913 141.978 167.831 141.909 167.831Z" fill="#263238"/>
<path d="M194.105 159.65L199.694 157.242H192.246L193.874 159.355" fill="#AA6550"/>
<path d="M182.615 160.274C182.122 159.893 181.668 159.466 181.258 158.998C180.78 158.599 180.34 158.159 179.941 157.681C180.528 157.927 181.049 158.304 181.466 158.784C181.954 159.189 182.347 159.698 182.615 160.274Z" fill="#263238"/>
<path d="M172.307 167.698C172.125 167.454 171.967 167.193 171.834 166.919C171.545 166.411 171.147 165.666 170.679 164.742C169.709 162.889 168.416 160.308 167.007 157.455C165.598 154.603 164.299 152.022 163.335 150.169C162.878 149.28 162.492 148.541 162.18 147.975C162.029 147.712 161.9 147.438 161.793 147.155C161.978 147.394 162.143 147.649 162.284 147.917C162.584 148.419 163.005 149.153 163.508 150.071C164.518 151.901 165.846 154.465 167.255 157.323C168.664 160.181 169.911 162.721 170.852 164.644L171.938 166.867C172.084 167.133 172.208 167.411 172.307 167.698Z" fill="#263238"/>
<path d="M161.252 159.852C161.252 159.852 161.252 159.927 161.252 160.054C161.23 160.248 161.197 160.441 161.154 160.632C160.994 161.332 160.735 162.007 160.386 162.635C159.185 164.685 157.366 166.302 155.189 167.254C153.037 168.164 150.756 168.732 148.428 168.94C147.545 169.038 146.823 169.096 146.326 169.131C146.069 169.161 145.81 169.161 145.553 169.131C145.803 169.065 146.058 169.021 146.315 168.998L148.399 168.709C150.691 168.45 152.935 167.867 155.062 166.977C157.173 166.047 158.957 164.507 160.184 162.554C160.659 161.705 161.018 160.796 161.252 159.852Z" fill="#263238"/>
<path d="M155.084 174.76C155.084 174.841 151.285 175.176 146.585 175.505C141.885 175.834 138.074 176.036 138.068 175.95C138.063 175.863 141.868 175.534 146.568 175.205C151.268 174.876 155.078 174.645 155.084 174.76Z" fill="#263238"/>
<path d="M159.988 172.451C160.605 174.325 160.814 176.309 160.6 178.271C160.513 178.271 160.478 176.96 160.305 175.384C160.132 173.808 159.907 172.451 159.988 172.451Z" fill="#263238"/>
<path d="M161.961 170.615C162.104 170.985 162.189 171.374 162.215 171.77C162.457 173.677 162.322 175.613 161.817 177.468C161.739 177.86 161.599 178.236 161.401 178.583C161.309 178.583 161.852 176.851 161.979 174.616C162.106 172.382 161.869 170.626 161.961 170.615Z" fill="#263238"/>
<path d="M160.692 132.033C158.644 132.073 156.595 132.01 154.554 131.843C151.17 131.652 148.434 131.427 148.434 131.346C148.434 131.265 151.188 131.346 154.571 131.542C157.955 131.739 160.692 131.935 160.692 132.033Z" fill="#263238"/>
<path d="M216.636 231.264C216.474 231.29 216.31 231.301 216.146 231.298L214.737 231.327L209.569 231.379L192.513 231.425H191.139V231.264C191.139 224.912 191.173 219.185 191.191 215.022C191.191 212.983 191.225 211.326 191.237 210.143C191.237 209.594 191.237 209.149 191.266 208.82C191.263 208.666 191.274 208.511 191.3 208.358C191.313 208.512 191.313 208.667 191.3 208.82C191.3 209.149 191.3 209.594 191.329 210.143C191.329 211.326 191.358 212.983 191.381 215.022C191.381 219.185 191.381 224.895 191.433 231.264L191.271 231.102H192.484L209.54 231.154L214.708 231.2L216.117 231.235C216.29 231.231 216.464 231.24 216.636 231.264Z" fill="#263238"/>
<path d="M213.819 213.918C213.586 214.178 213.333 214.419 213.062 214.64L210.926 216.517C209.107 218.093 206.59 220.252 203.789 222.62L203.362 222.978L203.258 223.07L203.154 222.972L199.979 220.021H200.175L195.515 223.867L194.164 224.947C194.008 225.085 193.838 225.207 193.656 225.31C193.788 225.149 193.937 225.002 194.101 224.872L195.4 223.717L199.984 219.785L200.083 219.698L200.181 219.785L203.368 222.718H203.16L203.582 222.36C206.382 219.993 208.922 217.862 210.776 216.332L212.982 214.53C213.245 214.306 213.525 214.101 213.819 213.918Z" fill="#263238"/>
<path d="M213.82 219.219C213.733 218.697 213.696 218.167 213.71 217.637C213.681 216.662 213.664 215.328 213.658 213.786L213.82 213.948H213.548C211.972 213.948 210.546 213.948 209.506 213.902C208.946 213.919 208.385 213.88 207.832 213.786C208.386 213.7 208.946 213.663 209.506 213.676C210.54 213.642 211.966 213.625 213.548 213.625H213.981V213.786C213.981 215.299 213.981 216.673 213.929 217.637C213.943 218.167 213.906 218.697 213.82 219.219Z" fill="#263238"/>
<path d="M107.148 142.317C107.942 142.421 108.718 142.628 109.458 142.934L111.19 141.497L114.135 143.737L113.211 145.775C113.708 146.412 114.116 147.113 114.423 147.86L116.652 148.056L117.149 151.728L115.053 152.508C114.952 153.301 114.746 154.078 114.441 154.817L115.878 156.549L113.632 159.494L111.606 158.593C110.965 159.089 110.262 159.498 109.516 159.812L109.319 162.04L105.653 162.537L104.868 160.441C104.074 160.337 103.298 160.129 102.558 159.823L100.826 161.261L97.8812 159.021L98.805 156.982C98.3082 156.346 97.9003 155.645 97.5925 154.898L95.3637 154.702L94.8672 151.029L96.9631 150.25C97.0624 149.447 97.2683 148.66 97.5752 147.912L96.1375 146.179L98.3835 143.235L100.416 144.164C101.057 143.669 101.759 143.259 102.506 142.946L102.702 140.717L106.369 140.221L107.154 142.317H107.148ZM105.641 147.409C104.863 147.514 104.133 147.848 103.544 148.368C102.955 148.888 102.534 149.571 102.333 150.33C102.132 151.09 102.161 151.892 102.416 152.635C102.671 153.378 103.14 154.029 103.765 154.505C104.39 154.981 105.142 155.262 105.926 155.311C106.71 155.36 107.491 155.175 108.17 154.78C108.849 154.385 109.396 153.798 109.741 153.092C110.087 152.387 110.215 151.594 110.11 150.816C110.041 150.299 109.87 149.8 109.608 149.349C109.345 148.898 108.997 148.503 108.582 148.187C108.167 147.87 107.693 147.639 107.189 147.505C106.684 147.372 106.158 147.339 105.641 147.409Z" fill="#61D2D2"/>
<path d="M105.641 147.409C105.72 147.377 105.804 147.36 105.889 147.357C106.132 147.329 106.379 147.329 106.622 147.357C107.539 147.437 108.401 147.833 109.059 148.477C109.449 148.859 109.759 149.314 109.97 149.817C110.182 150.319 110.291 150.859 110.291 151.405C110.291 151.95 110.182 152.49 109.97 152.993C109.759 153.495 109.449 153.951 109.059 154.332C108.429 154.945 107.619 155.34 106.748 155.459C105.877 155.577 104.991 155.413 104.22 154.99C103.742 154.728 103.322 154.373 102.983 153.946C102.644 153.519 102.394 153.029 102.247 152.504C102.1 151.979 102.06 151.43 102.128 150.89C102.196 150.349 102.371 149.827 102.644 149.355C103.107 148.558 103.831 147.946 104.694 147.623C104.924 147.535 105.165 147.475 105.41 147.444C105.494 147.429 105.58 147.429 105.664 147.444C105.664 147.478 105.317 147.513 104.74 147.756C103.935 148.109 103.269 148.718 102.846 149.488C102.411 150.289 102.276 151.219 102.464 152.111C102.653 153.003 103.154 153.799 103.876 154.355C104.599 154.911 105.496 155.192 106.406 155.146C107.317 155.101 108.182 154.732 108.845 154.107C109.392 153.585 109.77 152.911 109.931 152.173C110.069 151.546 110.049 150.895 109.873 150.278C109.696 149.661 109.369 149.098 108.92 148.639C108.301 148.006 107.488 147.6 106.611 147.484C105.993 147.386 105.641 147.444 105.641 147.409Z" fill="#61D2D2"/>
<path d="M107.149 142.317C107.149 142.317 107.149 142.276 107.092 142.19L106.93 141.803C106.785 141.427 106.578 140.908 106.318 140.238L106.37 140.273L102.709 140.798L102.778 140.729C102.721 141.404 102.657 142.155 102.594 142.957V143.004H102.542C101.806 143.316 101.115 143.724 100.486 144.216L100.434 144.257L100.376 144.228L98.3382 143.31L98.471 143.275L96.2423 146.231V146.07L97.6858 147.802L97.7378 147.86V147.935C97.4352 148.675 97.2314 149.451 97.1315 150.244V150.325L97.0507 150.354L94.9547 151.145L95.0471 150.989C95.2088 152.144 95.3762 153.385 95.5494 154.655L95.4166 154.528L97.6454 154.725H97.7378L97.7724 154.811C98.0806 155.543 98.4844 156.23 98.9734 156.855L99.0311 156.93L98.9907 157.017C98.702 157.658 98.4133 158.351 98.0611 159.055L98.0149 158.865L100.965 161.105H100.763L102.495 159.667L102.571 159.604L102.663 159.644C103.404 159.938 104.18 160.132 104.972 160.222C105.03 160.268 104.84 160.123 105.1 160.325V160.354V160.424L105.146 160.556L105.244 160.816L105.44 161.342C105.573 161.694 105.7 162.04 105.833 162.387L105.66 162.283L109.332 161.786L109.193 161.931C109.263 161.18 109.326 160.441 109.39 159.702V159.609L109.476 159.569C110.209 159.265 110.899 158.865 111.526 158.38L111.601 158.322L111.688 158.362L113.72 159.292L113.535 159.338L115.781 156.393V156.578L114.349 154.846L114.292 154.782L114.326 154.702C114.633 153.963 114.839 153.186 114.938 152.392V152.311H115.019L117.115 151.532L117.028 151.676C116.861 150.383 116.699 149.164 116.543 148.004L116.653 148.108L114.43 147.906H114.355V147.842C114.053 147.102 113.651 146.406 113.16 145.775L113.119 145.723V145.665L114.055 143.633L114.084 143.748L111.156 141.491H111.243L109.511 142.917C108.952 142.681 108.372 142.499 107.779 142.374L107.34 142.288C107.236 142.288 107.19 142.259 107.195 142.253H107.346C107.444 142.253 107.594 142.282 107.79 142.317C108.383 142.422 108.964 142.589 109.522 142.813H109.47L111.203 141.358L111.249 141.323L111.295 141.358L114.251 143.581L114.315 143.627L114.28 143.697L113.362 145.735V145.631C113.867 146.273 114.285 146.98 114.603 147.733L114.505 147.663L116.734 147.854H116.832V147.952C116.994 149.107 117.161 150.331 117.34 151.618V151.728L117.236 151.763L115.146 152.554L115.233 152.438C115.133 153.253 114.925 154.051 114.615 154.811V154.661C115.083 155.239 115.568 155.816 116.053 156.393L116.128 156.486L116.058 156.578L113.818 159.529L113.749 159.627L113.633 159.575L111.595 158.651H111.757C111.109 159.157 110.396 159.575 109.638 159.892L109.736 159.76C109.667 160.493 109.603 161.238 109.54 161.988V162.115H109.413L105.746 162.612H105.619L105.573 162.496C105.44 162.15 105.313 161.798 105.18 161.451L104.984 160.926L104.886 160.66L104.84 160.528L104.811 160.464V160.429C105.071 160.631 104.886 160.481 104.944 160.528C104.129 160.424 103.331 160.214 102.571 159.904L102.738 159.875L101.006 161.313L100.908 161.394L100.804 161.319L97.859 159.072L97.7608 158.997L97.8128 158.882C98.1304 158.183 98.4479 157.485 98.7424 156.85V157.005C98.2395 156.356 97.824 155.644 97.5068 154.886L97.6338 154.979L95.4109 154.782H95.2896V154.661C95.1222 153.391 94.9547 152.144 94.7988 150.995V150.879L94.9085 150.839L97.0045 150.059L96.9179 150.175C97.0182 149.361 97.23 148.564 97.5472 147.808V147.94C97.0449 147.363 96.5541 146.757 96.1153 146.208L96.046 146.133L96.1095 146.052L98.3613 143.113L98.4191 143.038L98.4999 143.079L100.532 144.014H100.423C101.072 143.519 101.782 143.11 102.536 142.796L102.478 142.877C102.553 142.074 102.628 141.323 102.692 140.648V140.584H102.755L106.428 140.117H106.468V140.157C106.71 140.827 106.903 141.347 107.045 141.716C107.103 141.884 107.149 142.022 107.19 142.126C107.181 142.19 107.167 142.254 107.149 142.317Z" fill="#61D2D2"/>
<path d="M99.3889 170.274L99.5448 170.239C99.6983 170.221 99.8533 170.221 100.007 170.239C100.582 170.289 101.123 170.535 101.537 170.938C101.977 171.375 102.245 171.956 102.291 172.575C102.337 173.194 102.159 173.808 101.788 174.306C101.417 174.803 100.879 175.15 100.272 175.282C99.6663 175.415 99.0327 175.324 98.4882 175.026C98.0365 174.784 97.6698 174.409 97.4374 173.952C97.2394 173.569 97.141 173.143 97.1511 172.712C97.1612 172.281 97.2795 171.86 97.4951 171.487C97.7847 170.986 98.2401 170.602 98.7827 170.401C98.9269 170.35 99.0758 170.313 99.2273 170.291H99.3889C99.3889 170.291 99.1695 170.338 98.8115 170.488C98.3043 170.708 97.8841 171.089 97.6163 171.573C97.4238 171.928 97.3229 172.325 97.3229 172.728C97.3229 173.131 97.4238 173.528 97.6163 173.883C97.836 174.304 98.1783 174.648 98.5979 174.87C99.045 175.115 99.5587 175.21 100.064 175.141C100.569 175.073 101.038 174.844 101.404 174.489C101.75 174.164 101.988 173.741 102.085 173.276C102.173 172.884 102.161 172.475 102.051 172.088C101.941 171.701 101.737 171.348 101.456 171.059C101.07 170.665 100.564 170.41 100.018 170.332C99.6141 170.257 99.3889 170.297 99.3889 170.274Z" fill="#263238"/>
<path d="M100.336 167.075L100.301 167L100.197 166.752C100.105 166.521 99.9776 166.175 99.8159 165.77H99.8448L97.5352 166.1L97.5756 166.053C97.541 166.481 97.5063 166.948 97.4659 167.456V167.491H97.4313C96.9688 167.688 96.534 167.944 96.1379 168.253H96.1033L94.8215 167.676H94.9081L93.4819 169.564V169.466L94.3826 170.54L94.4173 170.574V170.626C94.2254 171.088 94.0972 171.574 94.0362 172.07V172.122H93.99L92.6736 172.618L92.7313 172.52C92.8295 173.242 92.9392 174.027 93.0489 174.83L92.9623 174.749L94.3595 174.87H94.4173V174.922C94.6095 175.384 94.864 175.817 95.1737 176.21L95.2083 176.256V176.308L94.6309 177.59V177.468L96.4786 178.877H96.2938C96.6287 178.589 96.9982 178.3 97.3678 177.971L97.414 177.93H97.4717C97.9314 178.122 98.4151 178.25 98.9094 178.311L98.9902 178.375V178.404V178.45L99.0191 178.531L99.0826 178.698L99.2039 179.027C99.2847 179.247 99.3713 179.466 99.4521 179.68L99.3424 179.616L101.652 179.305L101.565 179.397C101.606 178.923 101.652 178.456 101.692 177.994V177.936H101.744C102.207 177.748 102.64 177.495 103.032 177.186L103.078 177.151H103.136L104.412 177.728L104.296 177.763C104.776 177.128 105.249 176.516 105.705 175.909V176.025L104.805 174.951L104.77 174.905V174.859C104.962 174.397 105.092 173.911 105.157 173.415V173.363H105.203L106.525 172.872L106.467 172.959C106.364 172.151 106.26 171.383 106.161 170.649L106.231 170.719L104.833 170.592H104.787V170.551C104.595 170.087 104.342 169.651 104.037 169.252V169.223V169.183C104.256 168.721 104.447 168.305 104.614 167.907V167.982L102.772 166.561H102.824L101.739 167.451C101.388 167.304 101.025 167.19 100.653 167.11L100.376 167.058L100.659 167.098C101.037 167.161 101.407 167.266 101.762 167.41H101.727L102.795 166.498H102.824L104.683 167.889H104.724V167.936C104.545 168.334 104.36 168.75 104.146 169.217V169.148C104.464 169.552 104.726 169.997 104.926 170.47L104.862 170.43L106.265 170.545H106.323V170.609C106.421 171.337 106.531 172.099 106.641 172.919V172.982H106.577L105.261 173.479L105.318 173.409C105.254 173.921 105.122 174.422 104.926 174.899V174.807L105.827 175.881L105.879 175.938L105.832 175.996L104.423 177.85L104.377 177.907H104.308L103.032 177.33H103.13C102.722 177.647 102.273 177.909 101.796 178.109L101.86 178.023C101.821 178.485 101.781 178.952 101.739 179.426V179.507H101.664L99.354 179.824H99.2732L99.2443 179.749L99.0018 179.091L98.8748 178.762L98.8112 178.594V178.514V178.473V178.438L98.8921 178.502C98.3809 178.435 97.8803 178.303 97.4024 178.109H97.5006L96.4266 179.01L96.3631 179.062L96.2996 179.016L94.4519 177.647L94.3884 177.595L94.4231 177.526L95.0005 176.244V176.348C94.6846 175.94 94.4245 175.491 94.2267 175.015L94.3018 175.072L92.9045 174.945H92.8295V174.87C92.7255 174.073 92.6216 173.294 92.5234 172.561V172.491H92.5927L93.9092 172.001L93.8514 172.07C93.9175 171.56 94.0515 171.061 94.2498 170.586V170.667L93.3607 169.564L93.3145 169.518L93.3549 169.466L94.7695 167.618L94.8041 167.578H94.8561L96.1321 168.155H96.0629C96.4709 167.843 96.9172 167.585 97.3909 167.387L97.3562 167.439L97.489 166.042V165.996H97.5294L99.839 165.701L100.185 166.683L100.272 166.937C100.3 166.979 100.322 167.026 100.336 167.075Z" fill="#263238"/>
<path d="M168.116 80.0657C174.761 78.0875 178.543 71.0975 176.565 64.4532C174.587 57.8089 167.597 54.0263 160.952 56.0045C154.308 57.9828 150.526 64.9727 152.504 71.617C154.482 78.2613 161.472 82.044 168.116 80.0657Z" fill="#F5F5F5"/>
<path d="M152.009 67.2094C152.014 67.2767 152.014 67.3442 152.009 67.4115C152.009 67.5616 152.009 67.7637 152.009 67.9889V68.4277C152.009 68.5894 152.009 68.7626 152.055 68.9531C152.087 69.3937 152.148 69.8316 152.24 70.2638C152.465 71.4708 152.876 72.6356 153.458 73.7166C154.18 75.1188 155.159 76.3724 156.345 77.4119C157.806 78.6817 159.544 79.5914 161.42 80.0679C163.575 80.6095 165.835 80.5677 167.968 79.9467C168.536 79.7849 169.092 79.5823 169.631 79.3404C170.178 79.0885 170.707 78.7971 171.213 78.4686C171.728 78.13 172.224 77.7618 172.697 77.3657C173.166 76.947 173.61 76.4997 174.025 76.0262C174.864 75.042 175.538 73.9287 176.022 72.7293C177.05 70.2475 177.236 67.4976 176.554 64.8998C176.228 63.6474 175.706 62.4546 175.006 61.3662C174.66 60.8396 174.28 60.3362 173.869 59.8592C173.455 59.4011 173.011 58.971 172.541 58.5716C172.082 58.1801 171.598 57.8194 171.091 57.4919C170.586 57.1877 170.061 56.9158 169.521 56.6778C167.487 55.7818 165.25 55.445 163.043 55.702C161.29 55.9143 159.602 56.4947 158.09 57.4052C156.577 58.3157 155.274 59.5357 154.266 60.9851C153.569 61.9688 153.025 63.0534 152.655 64.2012C152.508 64.6156 152.39 65.0402 152.303 65.4715C152.263 65.6562 152.217 65.8294 152.188 65.9911C152.159 66.1528 152.147 66.2914 152.13 66.4242C152.095 66.6705 152.066 66.863 152.043 67.0015C152.039 67.0699 152.027 67.1377 152.009 67.2036C152 67.1366 152 67.0686 152.009 67.0015C152.009 66.8514 152.043 66.6551 152.066 66.4242C152.066 66.2914 152.095 66.1412 152.107 65.9853C152.118 65.8294 152.176 65.6504 152.211 65.4599C152.291 65.0238 152.401 64.5936 152.54 64.1723C152.895 63.0041 153.429 61.8978 154.122 60.8927C155.136 59.4116 156.452 58.1622 157.983 57.2267C159.515 56.2911 161.227 55.6908 163.008 55.4652C165.26 55.1881 167.544 55.5191 169.625 56.4237C170.178 56.664 170.715 56.9418 171.23 57.2552C171.752 57.5845 172.25 57.9512 172.72 58.3522C173.71 59.1686 174.556 60.1443 175.226 61.2392C175.946 62.3488 176.482 63.5674 176.813 64.8479C177.517 67.4993 177.332 70.3081 176.288 72.8448C175.788 74.0619 175.098 75.1922 174.244 76.1936C173.827 76.6834 173.38 77.1462 172.904 77.5794C172.421 77.9963 171.912 78.382 171.38 78.7342C170.863 79.0685 170.323 79.3657 169.763 79.6233C169.211 79.8682 168.642 80.0728 168.06 80.2354C165.232 81.0542 162.206 80.8583 159.506 79.6816C156.807 78.5048 154.604 76.4213 153.279 73.7917C152.719 72.703 152.329 71.5345 152.124 70.3273C152.041 69.8908 151.989 69.449 151.968 69.0051C151.968 68.8146 151.968 68.6356 151.934 68.4739V68.0351C151.934 67.781 151.934 67.5847 151.934 67.4577C151.947 67.3718 151.972 67.2882 152.009 67.2094Z" fill="#263238"/>
<path d="M170.237 68.4159C170.091 68.4416 169.942 68.4532 169.793 68.4506H168.574C167.535 68.4506 166.092 68.4506 164.463 68.4506H164.383V67.6018C164.383 65.783 164.383 64.1374 164.383 62.948C164.383 62.3706 164.383 61.8972 164.383 61.5392C164.38 61.3655 164.39 61.1919 164.411 61.0195C164.437 61.1915 164.449 61.3653 164.446 61.5392C164.446 61.8972 164.446 62.3706 164.446 62.948C164.446 64.1374 164.446 65.783 164.446 67.6018V68.4159L164.365 68.3409C165.993 68.3409 167.437 68.3409 168.476 68.3409H169.695C169.877 68.3537 170.058 68.3788 170.237 68.4159Z" fill="#263238"/>
<path d="M164.503 57.5493C164.584 57.8953 164.611 58.2517 164.584 58.6059C164.611 58.9602 164.584 59.3166 164.503 59.6626C164.422 59.3166 164.395 58.9602 164.422 58.6059C164.395 58.2517 164.422 57.8953 164.503 57.5493Z" fill="#263238"/>
<path d="M170.201 59.2354C170.015 59.5319 169.785 59.7986 169.52 60.0264C169.294 60.2928 169.027 60.5209 168.729 60.7019C168.914 60.4054 169.144 60.1386 169.41 59.9109C169.635 59.6445 169.902 59.4164 170.201 59.2354Z" fill="#263238"/>
<path d="M173.567 62.8901C173.303 63.1164 173.012 63.3103 172.701 63.4675C172.418 63.67 172.112 63.8386 171.789 63.9699C172.022 63.7026 172.304 63.483 172.621 63.3232C172.905 63.1184 173.227 62.9713 173.567 62.8901Z" fill="#263238"/>
<path d="M175.531 68.3121C174.572 68.4204 173.604 68.4204 172.645 68.3121C173.604 68.2039 174.572 68.2039 175.531 68.3121Z" fill="#263238"/>
<path d="M155.589 68.1157C155.141 68.197 154.686 68.2242 154.232 68.1965C153.78 68.223 153.326 68.1959 152.881 68.1157C153.331 68.0379 153.788 68.0108 154.244 68.0348C154.694 68.0115 155.145 68.0386 155.589 68.1157Z" fill="#263238"/>
<path d="M156.997 72.1577C156.692 72.5061 156.347 72.818 155.97 73.0873C155.627 73.398 155.249 73.6674 154.844 73.8899C155.149 73.5415 155.494 73.2296 155.872 72.9603C156.214 72.6496 156.592 72.3802 156.997 72.1577Z" fill="#263238"/>
<path d="M160.477 75.2754C160.283 75.6949 160.059 76.1002 159.807 76.4879C159.591 76.8926 159.342 77.2788 159.062 77.6427C159.201 77.1917 159.405 76.7637 159.669 76.3724C159.883 75.969 160.155 75.5994 160.477 75.2754Z" fill="#263238"/>
<path d="M164.501 79.3055C164.42 78.8289 164.393 78.3447 164.421 77.862C164.393 77.3813 164.42 76.8989 164.501 76.4243C164.583 76.8989 164.61 77.3813 164.582 77.862C164.61 78.3447 164.583 78.8289 164.501 79.3055Z" fill="#263238"/>
<path d="M170.704 77.3887C170.267 77.1956 169.865 76.9301 169.515 76.6034C169.135 76.3073 168.809 75.9479 168.551 75.541C168.925 75.8255 169.283 76.13 169.625 76.4533C170.001 76.7455 170.362 77.0577 170.704 77.3887Z" fill="#263238"/>
<path d="M173.608 74.2533C173.257 74.017 172.939 73.7355 172.661 73.4161C172.342 73.1345 172.059 72.8145 171.818 72.4634C172.17 72.7013 172.49 72.9826 172.771 73.3006C173.09 73.5808 173.371 73.9011 173.608 74.2533Z" fill="#263238"/>
<path d="M156.864 64.2531C156.553 64.0497 156.271 63.8049 156.026 63.5256C155.745 63.2811 155.5 62.9971 155.299 62.6826C155.613 62.8833 155.897 63.1284 156.142 63.4101C156.423 63.6538 156.666 63.9379 156.864 64.2531Z" fill="#263238"/>
<path d="M160.454 60.471C160.148 60.2726 159.87 60.0337 159.628 59.7608C159.351 59.5255 159.111 59.249 158.918 58.9409C159.226 59.1339 159.505 59.3712 159.744 59.6453C160.021 59.8824 160.261 60.1609 160.454 60.471Z" fill="#263238"/>
<path d="M0.238281 36C0.238281 16.1178 16.356 0 36.2383 0H436.238C456.121 0 472.238 16.1178 472.238 36V292C472.238 311.882 456.121 328 436.238 328H36.2383C16.356 328 0.238281 311.882 0.238281 292V36Z" fill="white" fill-opacity="0.06"/>
<path d="M83.6253 21.7116C83.6253 23.341 82.3043 24.6619 80.6749 24.6619C79.0455 24.6619 77.7246 23.341 77.7246 21.7116C77.7246 20.0821 79.0455 18.7612 80.6749 18.7612C82.3043 18.7612 83.6253 20.0821 83.6253 21.7116Z" fill="#3FCA90"/>
<path d="M72.6878 21.7116C72.6878 23.341 71.3668 24.6619 69.7374 24.6619C68.108 24.6619 66.7871 23.341 66.7871 21.7116C66.7871 20.0821 68.108 18.7612 69.7374 18.7612C71.3668 18.7612 72.6878 20.0821 72.6878 21.7116Z" fill="#FFE073"/>
<path d="M61.7268 21.7116C61.7268 23.341 60.4059 24.6619 58.7765 24.6619C57.1471 24.6619 55.8262 23.341 55.8262 21.7116C55.8262 20.0821 57.1471 18.7612 58.7765 18.7612C60.4059 18.7612 61.7268 20.0821 61.7268 21.7116Z" fill="#ED5050"/>
</svg>
