<svg width="474" height="353" viewBox="0 0 474 353" fill="none" xmlns="http://www.w3.org/2000/svg">
<path d="M0.5 36.3203C0.5 16.4381 16.6178 0.320312 36.5 0.320312H437.5C457.382 0.320312 473.5 16.4381 473.5 36.3203V296.32C473.5 316.203 457.382 332.32 437.5 332.32H36.5C16.6178 332.32 0.5 316.203 0.5 296.32V36.3203Z" fill="white" fill-opacity="0.06"/>
<path d="M436.5 29.3203C436.5 25.4543 433.366 22.3203 429.5 22.3203H42.5C38.634 22.3203 35.5 25.4543 35.5 29.3203C35.5 33.1863 38.634 36.3203 42.5 36.3203H429.5C433.366 36.3203 436.5 33.1863 436.5 29.3203Z" fill="#28282E"/>
<path d="M62.5837 29.4855C62.5837 31.1149 63.9046 32.4358 65.5341 32.4358C67.1635 32.4358 68.4844 31.1149 68.4844 29.4855C68.4844 27.8561 67.1635 26.5352 65.5341 26.5352C63.9046 26.5352 62.5837 27.8561 62.5837 29.4855Z" fill="#3FCA90"/>
<path d="M51.6384 29.4855C51.6384 31.1149 52.9593 32.4358 54.5887 32.4358C56.2182 32.4358 57.5391 31.1149 57.5391 29.4855C57.5391 27.8561 56.2182 26.5352 54.5887 26.5352C52.9593 26.5352 51.6384 27.8561 51.6384 29.4855Z" fill="#FFE073"/>
<path d="M40.6853 29.4855C40.6853 31.1149 42.0062 32.4358 43.6356 32.4358C45.265 32.4358 46.5859 31.1149 46.5859 29.4855C46.5859 27.8561 45.265 26.5352 43.6356 26.5352C42.0062 26.5352 40.6853 27.8561 40.6853 29.4855Z" fill="#ED5050"/>
<path d="M402 274.703H72V274.868H402V274.703Z" fill="#EBEBEB"/>
<path d="M368.935 285.327H347.074V285.492H368.935V285.327Z" fill="#EBEBEB"/>
<path d="M290.605 287.118H284.867V287.283H290.605V287.118Z" fill="#EBEBEB"/>
<path d="M346.413 279.198H333.746V279.363H346.413V279.198Z" fill="#EBEBEB"/>
<path d="M135.13 280.307H106.623V280.472H135.13V280.307Z" fill="#EBEBEB"/>
<path d="M145.188 280.307H141.008V280.472H145.188V280.307Z" fill="#EBEBEB"/>
<path d="M220.598 283.094H158.771V283.259H220.598V283.094Z" fill="#EBEBEB"/>
<path d="M228.429 245.269H100.984C98.9071 245.269 97.2168 243.578 97.2168 241.501V62.3561C97.2168 60.2791 98.9071 58.5889 100.984 58.5889H228.429C230.506 58.5889 232.196 60.2791 232.196 62.3561V241.501C232.196 243.578 230.506 245.269 228.429 245.269ZM100.984 58.7545C98.9975 58.7545 97.3818 60.3702 97.3818 62.3568V241.502C97.3818 243.489 98.9975 245.104 100.984 245.104H228.429C230.415 245.104 232.031 243.489 232.031 241.502V62.3561C232.031 60.3702 230.415 58.7539 228.429 58.7539L100.984 58.7545Z" fill="#EBEBEB"/>
<path d="M371.184 245.269H243.739C241.662 245.269 239.973 243.578 239.973 241.501V62.3561C239.973 60.2791 241.663 58.5889 243.739 58.5889H371.184C373.262 58.5889 374.951 60.2791 374.951 62.3561V241.501C374.952 243.578 373.262 245.269 371.184 245.269ZM243.739 58.7545C241.753 58.7545 240.138 60.3702 240.138 62.3568V241.502C240.138 243.489 241.753 245.104 243.739 245.104H371.184C373.171 245.104 374.786 243.489 374.786 241.502V62.3561C374.786 60.3702 373.171 58.7539 371.184 58.7539L243.739 58.7545Z" fill="#EBEBEB"/>
<path d="M270.724 204.091H342.537V74.3229H270.724V204.091Z" fill="#E6E6E6"/>
<path d="M267.411 204.091H340.988V74.3229H267.411V204.091Z" fill="#F0F0F0"/>
<path d="M270.724 207.169H342.537V204.091H270.724V207.169Z" fill="#E6E6E6"/>
<path d="M266.217 207.169H339.795V204.091H266.217V207.169Z" fill="#F0F0F0"/>
<path d="M336.35 199.452V78.9614L272.05 78.9614V199.452H336.35Z" fill="#FAFAFA"/>
<path d="M290.236 199.451L308.338 78.9614H321.191L303.089 199.451H290.236Z" fill="white"/>
<path d="M292.277 199.451L310.378 78.9614H323.231L305.13 199.451H292.277Z" fill="white"/>
<path d="M305.85 199.451L323.951 78.9614H328.962L310.861 199.451H305.85Z" fill="white"/>
<path d="M272.639 199.452V78.9619H272.05V199.452H272.639Z" fill="#E6E6E6"/>
<path opacity="0.6" d="M266.312 82.4575H338.124L338.551 80.7646H266.74L266.312 82.4575Z" fill="#EBEBEB"/>
<path opacity="0.6" d="M266.312 85.2351H338.124L338.551 83.5415H266.74L266.312 85.2351Z" fill="#EBEBEB"/>
<path opacity="0.6" d="M266.312 88.0114H338.124L338.551 86.3179H266.74L266.312 88.0114Z" fill="#EBEBEB"/>
<path opacity="0.6" d="M266.312 90.7881H338.124L338.551 89.0952H266.74L266.312 90.7881Z" fill="#EBEBEB"/>
<path opacity="0.6" d="M266.312 93.565H338.124L338.551 91.8721H266.74L266.312 93.565Z" fill="#EBEBEB"/>
<path opacity="0.6" d="M266.312 96.3413H338.124L338.551 94.6484H266.74L266.312 96.3413Z" fill="#EBEBEB"/>
<path d="M356.754 66.5405H253.189V69.0426H356.754V66.5405Z" fill="#F0F0F0"/>
<path opacity="0.8" d="M354.884 64.4336H349.439V224.705H354.884V64.4336Z" fill="#FAFAFA"/>
<path opacity="0.8" d="M350.849 64.4336H349.439V224.705H350.849V64.4336Z" fill="#F0F0F0"/>
<path opacity="0.8" d="M349.44 64.4336H343.996V224.705H349.44V64.4336Z" fill="#FAFAFA"/>
<path opacity="0.8" d="M345.406 64.4336H343.996V224.705H345.406V64.4336Z" fill="#F0F0F0"/>
<path opacity="0.8" d="M343.995 64.4336H338.551V224.705H343.995V64.4336Z" fill="#FAFAFA"/>
<path opacity="0.8" d="M270.722 64.4336H265.277V224.705H270.722V64.4336Z" fill="#FAFAFA"/>
<path opacity="0.8" d="M266.686 64.4336H265.277V224.705H266.686V64.4336Z" fill="#F0F0F0"/>
<path opacity="0.8" d="M265.276 64.4336H259.832V224.705H265.276V64.4336Z" fill="#FAFAFA"/>
<path opacity="0.8" d="M261.241 64.4336H259.832V224.705H261.241V64.4336Z" fill="#F0F0F0"/>
<path opacity="0.8" d="M259.833 64.4336H254.389V224.705H259.833V64.4336Z" fill="#FAFAFA"/>
<path d="M128.324 204.091H200.137L200.137 74.3229H128.324V204.091Z" fill="#E6E6E6"/>
<path d="M125.012 204.091H198.59L198.59 74.3229H125.012L125.012 204.091Z" fill="#F0F0F0"/>
<path d="M128.324 207.169H200.137V204.091H128.324V207.169Z" fill="#E6E6E6"/>
<path d="M123.819 207.169H197.396V204.091H123.819V207.169Z" fill="#F0F0F0"/>
<path d="M193.951 199.452L193.951 78.9619L129.651 78.9619L129.651 199.452H193.951Z" fill="#FAFAFA"/>
<path d="M147.838 199.451L165.94 78.9614H178.793L160.691 199.451H147.838Z" fill="white"/>
<path d="M149.879 199.451L167.981 78.9614H180.834L162.732 199.451H149.879Z" fill="white"/>
<path d="M163.453 199.451L181.555 78.9614H186.566L168.464 199.451H163.453Z" fill="white"/>
<path d="M130.24 199.452L130.24 78.9614H129.652L129.652 199.452H130.24Z" fill="#E6E6E6"/>
<path opacity="0.6" d="M123.914 82.4575H195.727L196.153 80.7646H124.341L123.914 82.4575Z" fill="#EBEBEB"/>
<path opacity="0.6" d="M123.914 85.2351H195.727L196.153 83.5415H124.341L123.914 85.2351Z" fill="#EBEBEB"/>
<path opacity="0.6" d="M123.914 88.0114H195.727L196.153 86.3179H124.341L123.914 88.0114Z" fill="#EBEBEB"/>
<path opacity="0.6" d="M123.914 90.7881H195.727L196.153 89.0952H124.341L123.914 90.7881Z" fill="#EBEBEB"/>
<path opacity="0.6" d="M123.914 93.565H195.727L196.153 91.8721H124.341L123.914 93.565Z" fill="#EBEBEB"/>
<path opacity="0.6" d="M123.914 96.3413H195.727L196.153 94.6484H124.341L123.914 96.3413Z" fill="#EBEBEB"/>
<path d="M214.358 66.5405H110.793V69.0426H214.358V66.5405Z" fill="#F0F0F0"/>
<path opacity="0.8" d="M212.487 64.4336H207.043V224.705H212.487V64.4336Z" fill="#FAFAFA"/>
<path opacity="0.8" d="M208.452 64.4336H207.043V224.705H208.452V64.4336Z" fill="#F0F0F0"/>
<path opacity="0.8" d="M207.044 64.4336H201.6V224.705H207.044V64.4336Z" fill="#FAFAFA"/>
<path opacity="0.8" d="M203.009 64.4336H201.6V224.705H203.009V64.4336Z" fill="#F0F0F0"/>
<path opacity="0.8" d="M201.599 64.4336H196.154V224.705H201.599V64.4336Z" fill="#FAFAFA"/>
<path opacity="0.8" d="M128.325 64.4336H122.881V224.705H128.325V64.4336Z" fill="#FAFAFA"/>
<path opacity="0.8" d="M124.29 64.4336H122.881V224.705H124.29V64.4336Z" fill="#F0F0F0"/>
<path opacity="0.8" d="M122.882 64.4336H117.438V224.705H122.882V64.4336Z" fill="#FAFAFA"/>
<path opacity="0.8" d="M118.847 64.4336H117.438V224.705H118.847V64.4336Z" fill="#F0F0F0"/>
<path opacity="0.8" d="M117.437 64.4336H111.992V224.705H117.437V64.4336Z" fill="#FAFAFA"/>
<path d="M320.006 270.222H331.104V214.784H320.006V270.222Z" fill="#F0F0F0"/>
<path d="M233.03 274.703H327.053V270.222H233.03V274.703Z" fill="#F0F0F0"/>
<path d="M320.006 214.784H228.98V270.222H320.006V214.784Z" fill="#F5F5F5"/>
<path d="M311.714 220.656H237.273V239.094H311.714V220.656Z" fill="#F0F0F0"/>
<path d="M311.714 243.324H237.273V261.761H311.714V243.324Z" fill="#F0F0F0"/>
<path d="M265.669 223.198H283.316C284.19 223.198 284.906 222.482 284.906 221.607C284.906 220.733 284.191 220.017 283.316 220.017H265.669C264.794 220.017 264.078 220.732 264.078 221.607C264.079 222.482 264.794 223.198 265.669 223.198Z" fill="#F5F5F5"/>
<path d="M265.669 245.866H283.316C284.19 245.866 284.906 245.151 284.906 244.276C284.906 243.401 284.191 242.685 283.316 242.685H265.669C264.794 242.685 264.078 243.401 264.078 244.276C264.079 245.15 264.794 245.866 265.669 245.866Z" fill="#F5F5F5"/>
<path d="M226.17 214.785H320.006V212.621H226.17V214.785Z" fill="#F0F0F0"/>
<path d="M334.051 212.62H320.006V214.784H334.051V212.62Z" fill="#E6E6E6"/>
<path d="M143.502 271.027C140.879 271.027 138.732 268.88 138.732 266.257V219.554C138.732 216.93 140.879 214.784 143.502 214.784C146.126 214.784 148.272 216.93 148.272 219.554V266.257C148.272 268.88 146.126 271.027 143.502 271.027Z" fill="#F5F5F5"/>
<path d="M146.233 269.148C144.46 269.148 143.01 267.698 143.01 265.925V219.887C143.01 218.114 144.46 216.663 146.233 216.663C148.006 216.663 149.457 218.114 149.457 219.887V265.925C149.457 267.698 148.007 269.148 146.233 269.148Z" fill="#EBEBEB"/>
<path d="M150.43 271.027C147.806 271.027 145.66 268.88 145.66 266.257V219.554C145.66 216.93 147.806 214.784 150.43 214.784C153.053 214.784 155.2 216.93 155.2 219.554V266.257C155.2 268.88 153.053 271.027 150.43 271.027Z" fill="#F5F5F5"/>
<path d="M153.161 269.148C151.388 269.148 149.938 267.698 149.938 265.925V219.887C149.938 218.114 151.388 216.663 153.161 216.663C154.934 216.663 156.384 218.114 156.384 219.887V265.925C156.384 267.698 154.934 269.148 153.161 269.148Z" fill="#EBEBEB"/>
<path d="M157.36 271.027C154.736 271.027 152.59 268.88 152.59 266.257V219.554C152.59 216.93 154.736 214.784 157.36 214.784C159.983 214.784 162.129 216.93 162.129 219.554V266.257C162.129 268.88 159.983 271.027 157.36 271.027Z" fill="#F5F5F5"/>
<path d="M160.091 269.148C158.318 269.148 156.867 267.698 156.867 265.925V219.887C156.867 218.114 158.318 216.663 160.091 216.663C161.863 216.663 163.314 218.114 163.314 219.887V265.925C163.314 267.698 161.863 269.148 160.091 269.148Z" fill="#EBEBEB"/>
<path d="M164.289 271.027C161.666 271.027 159.52 268.88 159.52 266.257V219.554C159.52 216.93 161.666 214.784 164.289 214.784C166.913 214.784 169.059 216.93 169.059 219.554V266.257C169.059 268.88 166.913 271.027 164.289 271.027Z" fill="#F5F5F5"/>
<path d="M167.02 269.148C165.248 269.148 163.797 267.698 163.797 265.925V219.887C163.797 218.114 165.248 216.663 167.02 216.663C168.793 216.663 170.244 218.114 170.244 219.887V265.925C170.244 267.698 168.794 269.148 167.02 269.148Z" fill="#EBEBEB"/>
<path d="M171.219 271.027C168.596 271.027 166.449 268.88 166.449 266.257V219.554C166.449 216.93 168.596 214.784 171.219 214.784C173.843 214.784 175.989 216.93 175.989 219.554V266.257C175.989 268.88 173.842 271.027 171.219 271.027Z" fill="#F5F5F5"/>
<path d="M173.95 269.148C172.177 269.148 170.727 267.698 170.727 265.925V219.887C170.727 218.114 172.177 216.663 173.95 216.663C175.723 216.663 177.173 218.114 177.173 219.887V265.925C177.173 267.698 175.723 269.148 173.95 269.148Z" fill="#EBEBEB"/>
<path d="M178.147 271.027C175.523 271.027 173.377 268.88 173.377 266.257V219.554C173.377 216.93 175.523 214.784 178.147 214.784C180.77 214.784 182.917 216.93 182.917 219.554V266.257C182.917 268.88 180.77 271.027 178.147 271.027Z" fill="#F5F5F5"/>
<path d="M180.878 269.148C179.105 269.148 177.654 267.698 177.654 265.925V219.887C177.654 218.114 179.105 216.663 180.878 216.663C182.65 216.663 184.101 218.114 184.101 219.887V265.925C184.101 267.698 182.65 269.148 180.878 269.148Z" fill="#EBEBEB"/>
<path d="M185.076 271.027C182.453 271.027 180.307 268.88 180.307 266.257V219.554C180.307 216.93 182.453 214.784 185.076 214.784C187.7 214.784 189.846 216.93 189.846 219.554V266.257C189.846 268.88 187.7 271.027 185.076 271.027Z" fill="#F5F5F5"/>
<path d="M190.924 264.774H176.934C176.352 264.774 175.877 264.299 175.877 263.718C175.877 263.136 176.352 262.661 176.934 262.661H190.924C191.506 262.661 191.981 263.136 191.981 263.718C191.981 264.299 191.505 264.774 190.924 264.774Z" fill="#F5F5F5"/>
<path d="M190.924 224.53H176.934C176.352 224.53 175.877 224.054 175.877 223.473C175.877 222.892 176.352 222.417 176.934 222.417H190.924C191.506 222.417 191.981 222.892 191.981 223.473C191.981 224.055 191.505 224.53 190.924 224.53Z" fill="#F5F5F5"/>
<path d="M342.491 186.438H184.734C181.127 186.438 178.359 183.487 178.583 179.88L184.364 86.7682C184.588 83.1613 187.722 80.2104 191.329 80.2104H349.085C352.692 80.2104 355.46 83.1613 355.236 86.7682L349.455 179.88C349.233 183.487 346.098 186.438 342.491 186.438Z" fill="#52CEC7"/>
<path opacity="0.8" d="M342.491 186.438H184.734C181.127 186.438 178.359 183.487 178.583 179.88L184.364 86.7682C184.588 83.1613 187.722 80.2104 191.329 80.2104H349.085C352.692 80.2104 355.46 83.1613 355.236 86.7682L349.455 179.88C349.233 183.487 346.098 186.438 342.491 186.438Z" fill="white"/>
<path opacity="0.4" d="M204.965 107.041H186.18C185.153 107.041 184.372 106.208 184.435 105.18L184.969 96.5793C185.033 95.5517 185.918 94.7188 186.945 94.7188H205.731L204.965 107.041Z" fill="white"/>
<path d="M348.984 81.8501H211.448C208.732 81.8501 206.393 84.0525 206.224 86.7684L204.898 108.134H186.113C185.085 108.134 184.201 108.967 184.137 109.994L183.636 118.049C183.572 119.077 184.354 119.91 185.382 119.91H204.167L200.444 179.881C200.275 182.597 202.341 184.799 205.057 184.799H342.594C345.31 184.799 347.648 182.596 347.817 179.881L353.598 86.7684C353.766 84.0519 351.701 81.8501 348.984 81.8501Z" fill="white"/>
<path opacity="0.4" d="M203.368 132.778H184.583C183.555 132.778 182.774 131.945 182.838 130.918L183.338 122.863C183.402 121.835 184.286 121.002 185.314 121.002H204.099L203.368 132.778Z" fill="white"/>
<path opacity="0.4" d="M202.569 145.646H183.784C182.756 145.646 181.975 144.813 182.039 143.786L182.539 135.731C182.603 134.704 183.487 133.871 184.515 133.871H203.301L202.569 145.646Z" fill="white"/>
<path opacity="0.4" d="M201.771 158.515H182.985C181.957 158.515 181.177 157.682 181.24 156.654L181.74 148.6C181.804 147.572 182.689 146.739 183.716 146.739H202.502L201.771 158.515Z" fill="white"/>
<path opacity="0.4" d="M200.971 171.384H182.186C181.159 171.384 180.378 170.551 180.441 169.523L180.941 161.468C181.005 160.441 181.89 159.608 182.917 159.608H201.703L200.971 171.384Z" fill="white"/>
<path opacity="0.2" d="M185.934 118.408C185.715 118.408 185.517 118.325 185.375 118.174C185.233 118.022 185.162 117.818 185.176 117.597L185.615 110.525C185.645 110.042 186.078 109.634 186.561 109.634H202.485C202.704 109.634 202.902 109.717 203.044 109.867C203.186 110.019 203.256 110.223 203.243 110.444L202.803 117.516C202.774 117.999 202.341 118.407 201.858 118.407H185.934V118.408Z" fill="#52CEC7"/>
<path opacity="0.3" d="M238.965 92.9438H216.255C214.518 92.9438 213.185 91.5228 213.293 89.7863C213.401 88.0499 214.91 86.6289 216.647 86.6289H239.357C241.093 86.6289 242.426 88.0499 242.318 89.7863C242.211 91.5228 240.701 92.9438 238.965 92.9438Z" fill="#52CEC7"/>
<path d="M347.194 89.7863C347.086 91.5301 345.584 92.9438 343.841 92.9438C342.097 92.9438 340.771 91.5301 340.879 89.7863C340.987 88.0426 342.489 86.6289 344.233 86.6289C345.976 86.6289 347.302 88.0426 347.194 89.7863Z" fill="#52CEC7"/>
<path opacity="0.4" d="M282.894 146.954H215.867C212.416 146.954 209.782 144.146 209.997 140.695L212.019 108.128C212.233 104.676 215.215 101.868 218.667 101.868H285.694C289.146 101.868 291.78 104.676 291.565 108.128L289.543 140.695C289.329 144.146 286.346 146.954 282.894 146.954ZM218.65 102.141C215.349 102.141 212.497 104.827 212.292 108.128L210.27 140.695C210.065 143.995 212.584 146.681 215.884 146.681H282.911C286.213 146.681 289.065 143.995 289.27 140.695L291.292 108.128C291.497 104.827 288.978 102.141 285.677 102.141H218.65Z" fill="#52CEC7"/>
<path d="M224.021 123.528L233.636 129.746C235.558 126.941 238.132 124.608 241.113 122.974L235.946 112.727C231.191 115.334 227.086 119.055 224.021 123.528Z" fill="#52CEC7"/>
<path opacity="0.8" d="M224.021 123.528L233.636 129.746C235.558 126.941 238.132 124.608 241.113 122.974L235.946 112.727C231.191 115.334 227.086 119.055 224.021 123.528Z" fill="white"/>
<path d="M218.225 140.199H230.002C230.24 136.361 231.558 132.78 233.637 129.746L224.022 123.528C220.706 128.367 218.605 134.077 218.225 140.199Z" fill="#263238"/>
<path d="M251.76 108.623C246.101 108.623 240.701 110.119 235.945 112.727L241.112 122.973C244.094 121.339 247.48 120.4 251.029 120.4C261.964 120.4 270.277 129.265 269.599 140.199H281.376C282.458 122.76 269.199 108.623 251.76 108.623Z" fill="#52CEC7"/>
<path d="M244.117 158.931H209.601C209.269 158.931 209.018 158.663 209.038 158.331L209.189 155.903C209.209 155.571 209.494 155.303 209.826 155.303H244.342L244.117 158.931Z" fill="#52CEC7"/>
<path opacity="0.2" d="M244.115 158.931H287.673C288.004 158.931 288.289 158.663 288.309 158.331L288.46 155.903C288.48 155.571 288.229 155.303 287.898 155.303H244.34L244.115 158.931Z" fill="#52CEC7"/>
<path d="M267.56 168.519H209.005C208.674 168.519 208.422 168.251 208.443 167.919L208.593 165.491C208.614 165.159 208.899 164.891 209.23 164.891H267.785L267.56 168.519Z" fill="#52CEC7"/>
<path opacity="0.2" d="M267.561 168.519H287.079C287.411 168.519 287.696 168.251 287.716 167.919L287.867 165.491C287.887 165.159 287.636 164.891 287.304 164.891H267.786L267.561 168.519Z" fill="#52CEC7"/>
<path d="M215.287 178.107H208.409C208.078 178.107 207.826 177.838 207.847 177.508L207.998 175.079C208.018 174.748 208.304 174.479 208.635 174.479H215.513L215.287 178.107Z" fill="#52CEC7"/>
<path opacity="0.2" d="M215.287 178.107H286.483C286.815 178.107 287.1 177.838 287.12 177.508L287.271 175.079C287.292 174.748 287.04 174.479 286.709 174.479H215.512L215.287 178.107Z" fill="#52CEC7"/>
<path d="M302.186 178.38C302.035 178.38 301.92 178.258 301.93 178.107L306.655 102.005C306.664 101.854 306.794 101.732 306.946 101.732C307.097 101.732 307.211 101.854 307.202 102.005L302.477 178.107C302.468 178.258 302.338 178.38 302.186 178.38Z" fill="#52CEC7"/>
<path d="M307.513 121.939C307.45 122.945 306.584 123.761 305.578 123.761C304.572 123.761 303.807 122.945 303.869 121.939C303.931 120.933 304.797 120.118 305.803 120.118C306.81 120.118 307.575 120.933 307.513 121.939Z" fill="white"/>
<path d="M305.561 124.034C304.406 124.034 303.524 123.094 303.596 121.939C303.668 120.784 304.666 119.844 305.821 119.844C306.976 119.844 307.858 120.784 307.786 121.939C307.714 123.094 306.716 124.034 305.561 124.034ZM305.786 120.391C304.932 120.391 304.195 121.085 304.142 121.939C304.089 122.793 304.74 123.487 305.594 123.487C306.448 123.487 307.186 122.793 307.239 121.939C307.292 121.085 306.64 120.391 305.786 120.391Z" fill="#52CEC7"/>
<path d="M306.496 138.334C306.434 139.34 305.568 140.156 304.562 140.156C303.556 140.156 302.791 139.34 302.853 138.334C302.916 137.328 303.782 136.513 304.788 136.513C305.793 136.513 306.558 137.328 306.496 138.334Z" fill="white"/>
<path d="M304.543 140.429C303.388 140.429 302.506 139.489 302.578 138.334C302.65 137.179 303.648 136.239 304.803 136.239C305.958 136.239 306.84 137.179 306.768 138.334C306.697 139.489 305.699 140.429 304.543 140.429ZM304.77 136.785C303.915 136.785 303.178 137.48 303.125 138.334C303.072 139.188 303.723 139.883 304.577 139.883C305.432 139.883 306.169 139.188 306.222 138.334C306.275 137.48 305.624 136.785 304.77 136.785Z" fill="#52CEC7"/>
<path d="M304.177 146.307L301.766 150.077H306.12L304.177 146.307Z" fill="white"/>
<path d="M306.104 150.35H301.749C301.651 150.35 301.564 150.298 301.521 150.214C301.477 150.129 301.484 150.025 301.538 149.94L303.95 146.169C304.058 146 304.336 146 304.423 146.169L306.366 149.94C306.409 150.025 306.403 150.129 306.349 150.214C306.295 150.298 306.201 150.35 306.104 150.35ZM302.257 149.804H305.664L304.144 146.852L302.257 149.804Z" fill="#52CEC7"/>
<path d="M334.975 178.38C334.824 178.38 334.71 178.258 334.719 178.107L339.444 102.005C339.453 101.854 339.583 101.732 339.735 101.732C339.886 101.732 340 101.854 339.991 102.005L335.266 178.107C335.257 178.258 335.126 178.38 334.975 178.38Z" fill="#52CEC7"/>
<path d="M338.426 152.149C338.489 151.143 337.724 150.328 336.717 150.328C335.712 150.328 334.845 151.143 334.783 152.149C334.72 153.155 335.485 153.971 336.492 153.971C337.497 153.971 338.363 153.155 338.426 152.149Z" fill="white"/>
<path d="M336.475 154.244C335.32 154.244 334.438 153.304 334.51 152.149C334.582 150.994 335.58 150.054 336.735 150.054C337.89 150.054 338.772 150.994 338.7 152.149C338.628 153.304 337.63 154.244 336.475 154.244ZM336.701 150.6C335.846 150.6 335.109 151.295 335.056 152.149C335.003 153.003 335.654 153.698 336.508 153.698C337.362 153.698 338.1 153.003 338.153 152.149C338.206 151.295 337.555 150.6 336.701 150.6Z" fill="#52CEC7"/>
<path d="M340.972 111.155C341.034 110.149 340.269 109.333 339.263 109.333C338.257 109.333 337.391 110.149 337.328 111.155C337.265 112.161 338.03 112.977 339.037 112.977C340.043 112.977 340.91 112.162 340.972 111.155Z" fill="white"/>
<path d="M339.02 113.25C337.865 113.25 336.983 112.31 337.055 111.155C337.127 110 338.125 109.06 339.28 109.06C340.435 109.06 341.317 110 341.245 111.155C341.173 112.31 340.175 113.25 339.02 113.25ZM339.246 109.607C338.392 109.607 337.655 110.301 337.601 111.155C337.549 112.009 338.2 112.703 339.054 112.703C339.908 112.703 340.646 112.009 340.699 111.155C340.752 110.302 340.1 109.607 339.246 109.607Z" fill="#52CEC7"/>
<path d="M337.744 133.806L335.801 130.035H340.155L337.744 133.806Z" fill="white"/>
<path d="M337.727 134.079C337.63 134.079 337.543 134.027 337.499 133.942L335.556 130.171C335.512 130.087 335.519 129.982 335.573 129.898C335.627 129.813 335.721 129.761 335.818 129.761H340.173C340.27 129.761 340.357 129.813 340.401 129.898C340.445 129.982 340.438 130.087 340.384 130.171L337.972 133.942C337.918 134.027 337.825 134.079 337.727 134.079ZM336.258 130.308L337.778 133.259L339.665 130.308H336.258Z" fill="#52CEC7"/>
<path d="M318.581 178.38C318.43 178.38 318.316 178.258 318.325 178.107L323.05 102.005C323.059 101.854 323.189 101.732 323.34 101.732C323.491 101.732 323.606 101.854 323.596 102.005L318.871 178.107C318.862 178.258 318.732 178.38 318.581 178.38Z" fill="#52CEC7"/>
<path d="M323.617 126.615C323.555 127.62 322.689 128.436 321.683 128.436C320.677 128.436 319.912 127.62 319.974 126.615C320.037 125.609 320.903 124.793 321.909 124.793C322.915 124.793 323.68 125.609 323.617 126.615Z" fill="white"/>
<path d="M321.666 128.709C320.511 128.709 319.629 127.769 319.701 126.614C319.773 125.459 320.771 124.52 321.926 124.52C323.081 124.52 323.963 125.459 323.891 126.614C323.82 127.769 322.821 128.709 321.666 128.709ZM321.893 125.066C321.039 125.066 320.301 125.76 320.248 126.614C320.195 127.468 320.846 128.163 321.701 128.163C322.555 128.163 323.292 127.468 323.345 126.614C323.397 125.76 322.746 125.066 321.893 125.066Z" fill="#52CEC7"/>
<path d="M321.352 163.07C321.29 164.075 320.424 164.891 319.417 164.891C318.411 164.891 317.647 164.075 317.709 163.07C317.771 162.064 318.637 161.248 319.643 161.248C320.65 161.248 321.414 162.064 321.352 163.07Z" fill="white"/>
<path d="M319.401 165.165C318.246 165.165 317.364 164.225 317.436 163.069C317.508 161.914 318.506 160.975 319.661 160.975C320.816 160.975 321.697 161.914 321.625 163.069C321.554 164.225 320.556 165.165 319.401 165.165ZM319.627 161.521C318.773 161.521 318.035 162.215 317.982 163.069C317.929 163.923 318.581 164.618 319.435 164.618C320.289 164.618 321.027 163.923 321.08 163.069C321.132 162.215 320.481 161.521 319.627 161.521Z" fill="#52CEC7"/>
<path d="M323.102 105.562L320.691 109.333H325.045L323.102 105.562Z" fill="white"/>
<path d="M325.03 109.606H320.675C320.577 109.606 320.49 109.554 320.447 109.47C320.403 109.385 320.41 109.281 320.464 109.196L322.875 105.425C322.984 105.256 323.261 105.256 323.349 105.425L325.292 109.196C325.335 109.281 325.329 109.385 325.274 109.47C325.22 109.555 325.127 109.606 325.03 109.606ZM321.182 109.06H324.59L323.069 106.108L321.182 109.06Z" fill="#52CEC7"/>
<path d="M145.615 125.153L144.945 128.369L144.287 131.665C143.854 133.86 143.482 136.053 143.144 138.203C142.978 139.28 142.845 140.343 142.731 141.391C142.602 142.439 142.517 143.458 142.465 144.438C142.407 145.418 142.424 146.35 142.456 147.134C142.48 147.906 142.623 148.565 142.592 148.639L142.151 147.88C141.95 147.68 141.59 147.499 141.529 147.584C141.46 147.649 141.7 147.822 142.121 147.932C142.539 148.043 143.131 148.125 143.78 148.16C144.436 148.191 145.154 148.159 145.906 148.106C147.416 148.004 149.035 147.75 150.68 147.446C151.503 147.289 152.34 147.129 153.173 146.941L155.642 146.406L155.971 146.335C157.839 145.929 159.683 147.116 160.088 148.985C160.385 150.355 159.823 151.713 158.767 152.499L157.537 153.411L156.317 154.239C155.492 154.767 154.651 155.282 153.782 155.757C152.042 156.712 150.21 157.557 148.195 158.254C147.184 158.598 146.122 158.883 144.982 159.115C143.835 159.339 142.614 159.507 141.23 159.475C139.854 159.444 138.294 159.264 136.572 158.588C134.861 157.941 133.035 156.59 131.823 154.887C131.694 154.705 131.579 154.516 131.48 154.323L131.382 154.127C130.342 152.061 129.988 150.382 129.696 148.822C129.418 147.265 129.328 145.834 129.274 144.454C129.227 143.074 129.23 141.734 129.277 140.427C129.34 139.122 129.429 137.835 129.549 136.569C129.776 134.033 130.15 131.562 130.578 129.115C130.804 127.894 131.03 126.677 131.305 125.467C131.441 124.862 131.573 124.257 131.723 123.651L132.207 121.781C133.162 118.087 136.932 115.866 140.627 116.821C144.209 117.748 146.405 121.319 145.666 124.902L145.615 125.153Z" fill="#52CEC7"/>
<path opacity="0.2" d="M145.615 125.153L144.945 128.369L144.287 131.665C143.854 133.86 143.482 136.053 143.144 138.203C142.978 139.28 142.845 140.343 142.731 141.391C142.602 142.439 142.517 143.458 142.465 144.438C142.407 145.418 142.424 146.35 142.456 147.134C142.48 147.906 142.623 148.565 142.592 148.639L142.151 147.88C141.95 147.68 141.59 147.499 141.529 147.584C141.46 147.649 141.7 147.822 142.121 147.932C142.539 148.043 143.131 148.125 143.78 148.16C144.436 148.191 145.154 148.159 145.906 148.106C147.416 148.004 149.035 147.75 150.68 147.446C151.503 147.289 152.34 147.129 153.173 146.941L155.642 146.406L155.971 146.335C157.839 145.929 159.683 147.116 160.088 148.985C160.385 150.355 159.823 151.713 158.767 152.499L157.537 153.411L156.317 154.239C155.492 154.767 154.651 155.282 153.782 155.757C152.042 156.712 150.21 157.557 148.195 158.254C147.184 158.598 146.122 158.883 144.982 159.115C143.835 159.339 142.614 159.507 141.23 159.475C139.854 159.444 138.294 159.264 136.572 158.588C134.861 157.941 133.035 156.59 131.823 154.887C131.694 154.705 131.579 154.516 131.48 154.323L131.382 154.127C130.342 152.061 129.988 150.382 129.696 148.822C129.418 147.265 129.328 145.834 129.274 144.454C129.227 143.074 129.23 141.734 129.277 140.427C129.34 139.122 129.429 137.835 129.549 136.569C129.776 134.033 130.15 131.562 130.578 129.115C130.804 127.894 131.03 126.677 131.305 125.467C131.441 124.862 131.573 124.257 131.723 123.651L132.207 121.781C133.162 118.087 136.932 115.866 140.627 116.821C144.209 117.748 146.405 121.319 145.666 124.902L145.615 125.153Z" fill="black"/>
<path d="M128.915 293.96C128.915 293.96 122.667 288.294 122.803 286.504L117.611 283.845L114.523 289.179L117.392 290.783L118.171 290.545L118.694 291.45C121.283 292.776 126.931 295.35 128.907 295.278C129.288 294.421 128.915 293.96 128.915 293.96Z" fill="#263238"/>
<path d="M129.36 227.331C133.136 200.294 131.903 183.857 135.868 170.531L160.421 168.556C160.421 168.556 149.539 211.452 144.55 229.313C139.541 247.244 123.938 287.671 123.938 287.671L117.104 284.172C117.104 284.172 122.712 248.248 129.36 227.331Z" fill="#263238"/>
<path opacity="0.2" d="M149.384 188.552C147.713 192.416 144.454 217.214 144.467 229.596C144.493 229.504 144.52 229.406 144.546 229.313C146.298 223.037 148.782 213.664 151.264 204.148L149.384 188.552Z" fill="black"/>
<path d="M168.359 294.849C168.359 294.849 158.176 292.538 157.709 290.883H151.248L150.711 297.037H154.302L154.965 296.47L155.765 297.037C158.674 297.037 167.068 297.062 168.874 295.984C168.889 295.053 168.359 294.849 168.359 294.849Z" fill="#263238"/>
<path d="M151.116 228.089C145.723 191.449 145.723 168.767 145.723 168.767L169.749 168.38C169.749 168.38 166.864 212.073 165.861 230.373C164.82 249.401 158.88 291.279 158.88 291.279H150.505C150.505 291.279 148.588 251.614 151.116 228.089Z" fill="#263238"/>
<path d="M148.508 99.9849C147.369 107.167 145.294 111.027 143.904 114.597C146.328 116.85 151.517 119.646 156.753 119.57C161.99 119.494 161.032 115.953 159.627 114.129C155.875 112.236 155.73 110.322 156.647 108.639L148.508 99.9849Z" fill="#7F3E3B"/>
<path d="M139.529 115.614C139.529 115.614 142.871 111.685 144.188 111.027C145.504 110.369 155.493 111.719 157.852 112.158C160.21 112.597 163.078 116.107 163.078 116.107L139.529 115.614Z" fill="#263238"/>
<path d="M165.046 99.3806C164.94 99.8538 165.105 100.291 165.415 100.358C165.726 100.425 166.064 100.095 166.17 99.6221C166.276 99.1489 166.11 98.7113 165.8 98.6446C165.489 98.5786 165.152 98.908 165.046 99.3806Z" fill="#263238"/>
<path d="M164.87 100.036C164.87 100.036 165.336 102.997 166.228 104.57C165.213 105.17 163.865 104.506 163.865 104.506L164.87 100.036Z" fill="#630F0F"/>
<path d="M166.684 96.6565C166.607 96.7067 166.507 96.7186 166.416 96.679C165.269 96.1774 164.402 96.7265 164.366 96.7496C164.234 96.8354 164.059 96.7984 163.974 96.6664C163.889 96.5344 163.925 96.3589 164.056 96.2718C164.104 96.2414 165.207 95.5246 166.644 96.1536C166.787 96.2163 166.853 96.3846 166.79 96.5298C166.768 96.5839 166.73 96.6268 166.684 96.6565Z" fill="#263238"/>
<path d="M149.341 94.5628C148.394 100.45 147.539 103.85 149.813 107.467C153.234 112.906 161.027 111.794 163.721 106.293C166.146 101.342 167.288 92.5459 162.101 89.005C156.992 85.5175 150.289 88.675 149.341 94.5628Z" fill="#7F3E3B"/>
<path d="M160.037 100.2C164.803 101.227 163.415 95.3392 162.278 94.7531C165.138 96.4718 167.04 94.4806 166.868 92.684C169.056 92.3177 168.947 88.6877 167.443 88.6138C166.49 86.1203 162.049 84.0308 161.226 85.5706C158.827 82.784 152.416 83.2606 153.348 85.2775C150.907 84.801 145.723 85.0208 147.46 88.6877C143.757 89.1643 143.931 95.5029 146.351 96.1629C143.821 97.5621 146.269 102.34 147.357 105.336C148.424 108.273 159.323 105.664 160.037 100.2Z" fill="#263238"/>
<path d="M157.323 99.5989C157.105 101.007 157.489 102.333 158.107 103.2C159.036 104.503 160.475 103.692 161.032 102.104C161.533 100.675 161.654 98.2743 160.329 97.5549C159.023 96.846 157.572 97.9878 157.323 99.5989Z" fill="#7F3E3B"/>
<path d="M139.869 114.952C147.986 113.951 159.5 114.043 167.143 115.376C171.035 116.054 173.951 119.304 174.272 123.242C175.221 134.901 172.642 155.285 170.415 175.802C152.429 181.836 134.172 175.72 134.172 175.72C133.771 171.58 136.001 158.02 137.39 150.778C136.369 143.302 133.778 134.742 132.314 124.815C131.604 119.993 135.033 115.548 139.869 114.952Z" fill="#52CEC7"/>
<path opacity="0.2" d="M164.297 131.28C165.521 138.304 169.412 146.671 172.967 152.208C173.454 147.356 173.862 142.735 174.125 138.476L164.297 131.28Z" fill="black"/>
<path d="M223.756 115.009C218.183 111.695 210.98 113.526 207.666 119.099C204.473 124.468 206.068 131.342 211.174 134.801C209.998 136.386 206.566 141.044 205.501 142.836C204.209 145.008 203.52 146.961 204.432 147.502C205.343 148.044 206.73 146.506 208.021 144.334C209.086 142.544 211.54 137.304 212.371 135.514C217.848 138.351 224.649 136.468 227.843 131.097C231.155 125.524 229.328 118.322 223.756 115.009ZM226.573 130.342C223.677 135.214 217.381 136.81 212.513 133.916C207.641 131.02 206.037 124.725 208.934 119.853C211.831 114.981 218.127 113.384 222.999 116.281C227.867 119.176 229.47 125.47 226.573 130.342Z" fill="#52CEC7"/>
<path opacity="0.2" d="M227.053 130.627C223.999 135.764 217.361 137.448 212.228 134.396C207.091 131.341 205.4 124.704 208.455 119.568C211.509 114.431 218.148 112.747 223.285 115.801C228.418 118.853 230.108 125.49 227.053 130.627Z" fill="#52CEC7"/>
<path d="M210.222 140.898L208.793 139.63C208.255 139.153 207.521 138.965 206.821 139.126L203.548 139.877C202.24 140.178 201.158 141.093 200.646 142.333L200.328 143.101C202.554 145.365 206.628 146.172 206.628 146.172L207.764 146.532C208.776 146.85 209.804 146.347 210.125 145.373L210.866 143.132C211.122 142.358 210.866 141.469 210.222 140.898Z" fill="#7F3E3B"/>
<path d="M173.952 120.852L175.284 123.747L176.677 126.703C177.608 128.667 178.589 130.591 179.573 132.459C180.07 133.39 180.58 134.299 181.102 135.171C181.611 136.052 182.135 136.897 182.664 137.675C183.186 138.454 183.738 139.159 184.213 139.733C184.675 140.304 185.154 140.709 185.162 140.774L184.348 140.442C184.878 140.735 185.959 141.059 187.226 141.166C188.492 141.281 189.941 141.312 191.431 141.22C192.93 141.154 194.485 140.997 196.065 140.809C196.854 140.712 197.655 140.617 198.451 140.499L200.81 140.181L201.138 140.137C203.037 139.881 204.785 141.213 205.041 143.113C205.224 144.475 204.587 145.761 203.514 146.473L202.312 147.266L201.129 147.981C200.331 148.434 199.524 148.876 198.695 149.28C197.865 149.679 197.022 150.074 196.157 150.43C195.289 150.779 194.402 151.107 193.491 151.415C191.661 151.988 189.744 152.505 187.621 152.736C185.51 152.964 183.159 153.031 180.451 152.299C180.278 152.252 180.113 152.191 179.956 152.118L179.638 151.966C177.582 150.99 176.279 149.884 175.111 148.835C173.955 147.78 173.029 146.706 172.158 145.652C170.427 143.543 169.009 141.428 167.706 139.289C166.392 137.161 165.239 134.997 164.147 132.821C163.612 131.726 163.079 130.636 162.591 129.523C162.345 128.967 162.097 128.411 161.863 127.846L161.155 126.083C159.734 122.542 161.452 118.519 164.994 117.097C168.423 115.72 172.305 117.288 173.838 120.605L173.952 120.852Z" fill="#52CEC7"/>
</svg>
