<svg width="474" height="334" viewBox="0 0 474 334" fill="none" xmlns="http://www.w3.org/2000/svg">
<path d="M0.765625 36.8936C0.765625 17.0113 16.8834 0.893555 36.7656 0.893555H437.766C457.648 0.893555 473.766 17.0113 473.766 36.8936V296.894C473.766 316.776 457.648 332.894 437.766 332.894H36.7656C16.8834 332.894 0.765625 316.776 0.765625 296.894V36.8936Z" fill="white" fill-opacity="0.06"/>
<path d="M436.766 29.8936C436.766 26.0276 433.632 22.8936 429.766 22.8936H42.7656C38.8996 22.8936 35.7656 26.0276 35.7656 29.8936C35.7656 33.7595 38.8996 36.8936 42.7656 36.8936H429.766C433.632 36.8936 436.766 33.7595 436.766 29.8936Z" fill="#28282E"/>
<path d="M62.8494 30.0587C62.8494 31.6881 64.1703 33.009 65.7997 33.009C67.4291 33.009 68.75 31.6881 68.75 30.0587C68.75 28.4293 67.4291 27.1084 65.7997 27.1084C64.1703 27.1084 62.8494 28.4293 62.8494 30.0587Z" fill="#3FCA90"/>
<path d="M51.904 30.0587C51.904 31.6881 53.2249 33.009 54.8544 33.009C56.4838 33.009 57.8047 31.6881 57.8047 30.0587C57.8047 28.4293 56.4838 27.1084 54.8544 27.1084C53.2249 27.1084 51.904 28.4293 51.904 30.0587Z" fill="#FFE073"/>
<path d="M40.9509 30.0587C40.9509 31.6881 42.2718 33.009 43.9012 33.009C45.5307 33.009 46.8516 31.6881 46.8516 30.0587C46.8516 28.4293 45.5307 27.1084 43.9012 27.1084C42.2718 27.1084 40.9509 28.4293 40.9509 30.0587Z" fill="#ED5050"/>
<path d="M222.326 190.675H103.048C100.598 190.675 98.6055 188.682 98.6055 186.232V93.6963H226.768V186.232C226.768 188.682 224.776 190.675 222.326 190.675ZM100.106 95.1963V186.232C100.106 187.855 101.426 189.175 103.048 189.175H222.326C223.949 189.175 225.268 187.855 225.268 186.232V95.1963H100.106Z" fill="#30BABA"/>
<g opacity="0.8">
<path d="M222.326 190.675H103.048C100.598 190.675 98.6055 188.682 98.6055 186.232V93.6963H226.768V186.232C226.768 188.682 224.776 190.675 222.326 190.675ZM100.106 95.1963V186.232C100.106 187.855 101.426 189.175 103.048 189.175H222.326C223.949 189.175 225.268 187.855 225.268 186.232V95.1963H100.106Z" fill="white"/>
</g>
<path d="M100.105 95.1958V186.232C100.105 187.854 101.426 189.175 103.048 189.175H222.326C223.948 189.175 225.268 187.855 225.268 186.232V95.1958H100.105Z" fill="white"/>
<path d="M180.211 148.258L205.211 118.758L197.711 136.258L190.711 144.758L184.711 147.258L180.211 148.258Z" fill="white"/>
<path d="M229.663 92.7578H95.7109V96.1331H229.663V92.7578Z" fill="#30BABA"/>
<path opacity="0.5" d="M229.663 92.7578H95.7109V94.4454H229.663V92.7578Z" fill="white"/>
<path d="M112.004 173.034C112.004 173.034 186.656 171.641 209.645 106.587L208.854 173.183L112.004 173.034Z" fill="#CF5C5C"/>
<g opacity="0.7">
<path d="M112.068 174.705C112.068 174.705 186.72 173.312 209.709 108.258L208.918 174.853L112.068 174.705Z" fill="white"/>
</g>
<path d="M116.477 173.435V177.068" stroke="#30BABA" stroke-width="2" stroke-miterlimit="10" stroke-linecap="round" stroke-linejoin="round"/>
<path d="M131.66 173.449V177.083" stroke="#30BABA" stroke-width="2" stroke-miterlimit="10" stroke-linecap="round" stroke-linejoin="round"/>
<path d="M146.842 173.463V177.097" stroke="#30BABA" stroke-width="2" stroke-miterlimit="10" stroke-linecap="round" stroke-linejoin="round"/>
<path d="M162.025 173.478V177.111" stroke="#30BABA" stroke-width="2" stroke-miterlimit="10" stroke-linecap="round" stroke-linejoin="round"/>
<path d="M177.209 173.492V177.126" stroke="#30BABA" stroke-width="2" stroke-miterlimit="10" stroke-linecap="round" stroke-linejoin="round"/>
<path d="M192.393 173.506V177.14" stroke="#30BABA" stroke-width="2" stroke-miterlimit="10" stroke-linecap="round" stroke-linejoin="round"/>
<path d="M207.576 173.521V177.155" stroke="#30BABA" stroke-width="2" stroke-miterlimit="10" stroke-linecap="round" stroke-linejoin="round"/>
<path d="M110.223 110.194H112.183" stroke="#30BABA" stroke-width="2" stroke-miterlimit="10" stroke-linecap="round" stroke-linejoin="round"/>
<path d="M110.223 119.719H112.183" stroke="#30BABA" stroke-width="2" stroke-miterlimit="10" stroke-linecap="round" stroke-linejoin="round"/>
<path d="M110.223 129.246H112.183" stroke="#30BABA" stroke-width="2" stroke-miterlimit="10" stroke-linecap="round" stroke-linejoin="round"/>
<path d="M110.223 138.771H112.183" stroke="#30BABA" stroke-width="2" stroke-miterlimit="10" stroke-linecap="round" stroke-linejoin="round"/>
<path d="M110.223 148.297H112.183" stroke="#30BABA" stroke-width="2" stroke-miterlimit="10" stroke-linecap="round" stroke-linejoin="round"/>
<path d="M110.223 157.823H112.183" stroke="#30BABA" stroke-width="2" stroke-miterlimit="10" stroke-linecap="round" stroke-linejoin="round"/>
<path d="M110.223 167.349H112.183" stroke="#30BABA" stroke-width="2" stroke-miterlimit="10" stroke-linecap="round" stroke-linejoin="round"/>
<path d="M212.556 173.434H112.582V106.433" stroke="#30BABA" stroke-width="2" stroke-miterlimit="10" stroke-linecap="round" stroke-linejoin="round"/>
<path d="M152.763 123.687H128.6V125.367H152.763V123.687Z" fill="#30BABA"/>
<path d="M152.763 127.733H124.549V129.414H152.763V127.733Z" fill="#30BABA"/>
<path d="M152.763 131.678H124.549V133.359H152.763V131.678Z" fill="#30BABA"/>
<path d="M146.528 135.621H124.549V137.302H146.528V135.621Z" fill="#30BABA"/>
<path d="M374.326 189.675H255.048C252.598 189.675 250.605 187.682 250.605 185.232V92.6963H378.768V185.232C378.768 187.682 376.776 189.675 374.326 189.675ZM252.106 94.1963V185.232C252.106 186.855 253.426 188.175 255.048 188.175H374.326C375.949 188.175 377.268 186.855 377.268 185.232V94.1963H252.106Z" fill="#30BABA"/>
<g opacity="0.8">
<path d="M374.326 189.675H255.048C252.598 189.675 250.605 187.682 250.605 185.232V92.6963H378.768V185.232C378.768 187.682 376.776 189.675 374.326 189.675ZM252.106 94.1963V185.232C252.106 186.855 253.426 188.175 255.048 188.175H374.326C375.949 188.175 377.268 186.855 377.268 185.232V94.1963H252.106Z" fill="white"/>
</g>
<path d="M252.105 94.1958V185.232C252.105 186.854 253.426 188.175 255.048 188.175H374.326C375.948 188.175 377.268 186.855 377.268 185.232V94.1958H252.105Z" fill="white"/>
<path d="M381.663 91.7578H247.711V95.1331H381.663V91.7578Z" fill="#30BABA"/>
<path opacity="0.5" d="M381.663 91.7578H247.711V93.4454H381.663V91.7578Z" fill="white"/>
<path d="M264.004 172.034C264.004 172.034 338.656 170.641 361.645 105.587L360.854 172.183L264.004 172.034Z" fill="#30BABA"/>
<g opacity="0.7">
<path d="M264.004 172.034C264.004 172.034 338.656 170.641 361.645 105.587L360.854 172.183L264.004 172.034Z" fill="white"/>
</g>
<path d="M264.584 171.972C272.83 171.583 339.832 166.57 361.389 105.556" stroke="#30BABA" stroke-width="2" stroke-miterlimit="10" stroke-linecap="round" stroke-linejoin="round"/>
<path d="M268.477 172.434V176.068" stroke="#30BABA" stroke-width="2" stroke-miterlimit="10" stroke-linecap="round" stroke-linejoin="round"/>
<path d="M283.66 172.448V176.082" stroke="#30BABA" stroke-width="2" stroke-miterlimit="10" stroke-linecap="round" stroke-linejoin="round"/>
<path d="M298.842 172.462V176.097" stroke="#30BABA" stroke-width="2" stroke-miterlimit="10" stroke-linecap="round" stroke-linejoin="round"/>
<path d="M314.025 172.477V176.111" stroke="#30BABA" stroke-width="2" stroke-miterlimit="10" stroke-linecap="round" stroke-linejoin="round"/>
<path d="M329.209 172.491V176.125" stroke="#30BABA" stroke-width="2" stroke-miterlimit="10" stroke-linecap="round" stroke-linejoin="round"/>
<path d="M344.393 172.506V176.14" stroke="#30BABA" stroke-width="2" stroke-miterlimit="10" stroke-linecap="round" stroke-linejoin="round"/>
<path d="M359.576 172.521V176.154" stroke="#30BABA" stroke-width="2" stroke-miterlimit="10" stroke-linecap="round" stroke-linejoin="round"/>
<path d="M262.223 109.194H264.183" stroke="#30BABA" stroke-width="2" stroke-miterlimit="10" stroke-linecap="round" stroke-linejoin="round"/>
<path d="M262.223 118.719H264.183" stroke="#30BABA" stroke-width="2" stroke-miterlimit="10" stroke-linecap="round" stroke-linejoin="round"/>
<path d="M262.223 128.246H264.183" stroke="#30BABA" stroke-width="2" stroke-miterlimit="10" stroke-linecap="round" stroke-linejoin="round"/>
<path d="M262.223 137.771H264.183" stroke="#30BABA" stroke-width="2" stroke-miterlimit="10" stroke-linecap="round" stroke-linejoin="round"/>
<path d="M262.223 147.297H264.183" stroke="#30BABA" stroke-width="2" stroke-miterlimit="10" stroke-linecap="round" stroke-linejoin="round"/>
<path d="M262.223 156.823H264.183" stroke="#30BABA" stroke-width="2" stroke-miterlimit="10" stroke-linecap="round" stroke-linejoin="round"/>
<path d="M262.223 166.349H264.183" stroke="#30BABA" stroke-width="2" stroke-miterlimit="10" stroke-linecap="round" stroke-linejoin="round"/>
<path d="M364.556 172.434H264.582V105.433" stroke="#30BABA" stroke-width="2" stroke-miterlimit="10" stroke-linecap="round" stroke-linejoin="round"/>
<path d="M304.763 122.687H280.6V124.367H304.763V122.687Z" fill="#30BABA"/>
<path d="M304.763 126.733H276.549V128.414H304.763V126.733Z" fill="#30BABA"/>
<path d="M304.763 130.678H276.549V132.359H304.763V130.678Z" fill="#30BABA"/>
<path d="M298.528 134.621H276.549V136.302H298.528V134.621Z" fill="#30BABA"/>
<path d="M371.072 175.082C370.725 175.346 370.468 175.535 370.161 175.752C369.855 175.97 369.576 176.156 369.28 176.35C368.693 176.746 368.084 177.111 367.478 177.471C366.243 178.198 364.966 178.853 363.655 179.431C362.287 180.044 360.872 180.544 359.423 180.925C358.647 181.132 357.859 181.286 357.064 181.386C356.655 181.44 356.233 181.46 355.802 181.493L355.14 181.506L354.718 181.496C354.562 181.493 354.413 181.476 354.262 181.464C353.212 181.338 352.195 181.014 351.265 180.51C350.509 180.105 349.794 179.627 349.133 179.081C347.98 178.11 346.932 177.022 346.004 175.834C344.282 173.622 342.832 171.21 341.688 168.651L344.851 166.681C346.5 168.544 348.252 170.315 350.098 171.983C350.938 172.739 351.842 173.418 352.801 174.014C353.188 174.257 353.599 174.458 354.029 174.612C354.274 174.711 354.538 174.754 354.802 174.74C354.802 174.74 354.802 174.74 354.819 174.714L354.887 174.703L355.211 174.655C355.435 174.611 355.661 174.574 355.921 174.503C356.393 174.387 356.888 174.236 357.393 174.061C358.454 173.668 359.491 173.212 360.497 172.694C361.542 172.147 362.588 171.57 363.619 170.941C364.122 170.654 364.644 170.301 365.158 169.979L365.914 169.49L367.959 168.128L371.072 175.082Z" fill="#30BABA"/>
<path opacity="0.2" d="M371.072 175.082C370.725 175.346 370.468 175.535 370.161 175.752C369.855 175.97 369.576 176.156 369.28 176.35C368.693 176.746 368.084 177.111 367.478 177.471C366.243 178.198 364.966 178.853 363.655 179.431C362.287 180.044 360.872 180.544 359.423 180.925C358.647 181.132 357.859 181.286 357.064 181.386C356.655 181.44 356.233 181.46 355.802 181.493L355.14 181.506L354.718 181.496C354.562 181.493 354.413 181.476 354.262 181.464C353.212 181.338 352.195 181.014 351.265 180.51C350.509 180.105 349.794 179.627 349.133 179.081C347.98 178.11 346.932 177.022 346.004 175.834C344.282 173.622 342.832 171.21 341.688 168.651L344.851 166.681C346.5 168.544 348.252 170.315 350.098 171.983C350.938 172.739 351.842 173.418 352.801 174.014C353.188 174.257 353.599 174.458 354.029 174.612C354.274 174.711 354.538 174.754 354.802 174.74C354.802 174.74 354.802 174.74 354.819 174.714L354.887 174.703L355.211 174.655C355.435 174.611 355.661 174.574 355.921 174.503C356.393 174.387 356.888 174.236 357.393 174.061C358.454 173.668 359.491 173.212 360.497 172.694C361.542 172.147 362.588 171.57 363.619 170.941C364.122 170.654 364.644 170.301 365.158 169.979L365.914 169.49L367.959 168.128L371.072 175.082Z" fill="black"/>
<path d="M343.094 168.932L340.133 167.51L342.516 163.826C342.516 163.826 345.025 165.895 345.285 167.994L343.094 168.932Z" fill="#FF8B7B"/>
<path d="M336.92 165.118L338.926 162.841L342.526 163.831L340.133 167.51L336.92 165.118Z" fill="#FF8B7B"/>
<path d="M399.508 299.617C399.829 298.864 400.275 298.171 400.826 297.566C400.826 297.566 403.058 293.738 401.333 287.074L404.4 284.375C405.201 284.288 406.017 284.78 406.636 285.298C407.052 285.884 407.371 286.046 407.707 286.682C408.832 288.613 411.294 293.033 411.294 293.033L410.836 293.291C410.029 291.978 409.144 290.715 408.185 289.507C407.18 288.38 407.198 290.392 407.572 292.104C407.947 293.816 406.841 296.511 403.922 298.283C400.538 300.361 399.038 301.026 399.508 299.617Z" fill="#263238"/>
<path d="M405.131 290.488C405.131 291.621 405.894 293.614 404.883 295.107C403.975 296.501 402.481 297.404 400.828 297.568C400.828 297.568 402.575 294.587 401.789 289.303C401.688 288.603 401.535 287.859 401.336 287.075C401.336 287.075 403.996 285.108 405.222 284.832L405.868 286.588C405.786 287.79 405.477 289.134 405.197 290.016C405.147 290.148 405.127 290.305 405.131 290.488Z" fill="#FF8B7B"/>
<path d="M405.868 286.587C405.786 287.79 405.477 289.134 405.197 290.016C405.148 290.148 405.128 290.306 405.132 290.488L402.619 291.555L401.789 289.303L398.844 281.281L403.236 279.416L405.222 284.831L405.868 286.587Z" fill="#FF8B7B"/>
<path opacity="0.2" d="M403.234 279.421L398.842 281.283L400.341 285.361L400.396 285.364C402.04 285.443 403.638 284.806 404.776 283.616L403.234 279.421Z" fill="black"/>
<path d="M366.019 297.102C366.697 296.645 367.447 296.304 368.237 296.094C368.237 296.094 372.179 294.072 374.318 287.528L378.44 286.698C379.166 287.054 379.712 287.693 379.952 288.465C379.988 289.183 379.976 289.903 379.915 290.62C379.843 292.865 379.477 298.673 379.477 298.673L378.948 298.648C378.971 297.115 378.94 294.821 378.78 293.296C378.541 291.804 377.473 293.501 376.863 295.147C376.253 296.794 373.875 298.464 370.455 298.384C366.456 298.275 364.841 298.02 366.019 297.102Z" fill="#263238"/>
<path d="M377.772 289.958C377.313 290.764 376.712 291.485 375.994 292.09C375.171 292.714 374.896 295.382 372.979 296.209C371.46 296.886 369.719 296.844 368.238 296.096C368.238 296.096 371.21 294.572 373.394 289.877C373.898 288.793 374.039 287.57 373.807 286.397L372.304 278.816L377.301 278.163L378.561 287.26C378.571 288.558 378.287 289.404 377.772 289.958Z" fill="#FF8B7B"/>
<path opacity="0.2" d="M371.904 275.927L373.058 282.624L373.494 282.723C374.995 283.064 376.57 282.738 377.813 281.83L376.964 275.347L371.904 275.927Z" fill="black"/>
<path d="M388.564 171.483C388.56 171.292 388.547 171.1 388.525 170.91C388.13 167.495 385.043 165.048 381.629 165.442L381.521 165.437C381.097 165.488 380.668 165.544 380.243 165.612C377.343 165.99 374.475 166.573 371.657 167.355C371.178 167.482 370.687 167.637 370.207 167.799C369.554 168.019 368.906 168.245 368.288 168.472C365.368 169.54 363.684 172.598 364.344 175.637C365.052 178.884 365.96 184.077 369.485 191.051C370.297 192.656 370.42 195.907 371.107 197.886L390.013 194.055L390.041 194.092C389.104 188.179 388.719 178.075 388.564 171.483Z" fill="#263238"/>
<path d="M371.106 197.887C371.106 197.887 370.053 222.031 369.115 240.572C368.371 255.314 371.248 280.492 371.248 280.492C371.248 280.492 374.988 281.695 378.952 279.427C379.064 280.61 380.088 256.24 378.947 242.199C384.252 221.669 392.042 202.261 386.295 194.706L371.106 197.887Z" fill="#263238"/>
<path opacity="0.3" d="M380.101 212.056L387.898 207.607C386.845 214.927 383.985 224.123 381.202 233.945C379.034 226.15 378.029 218.011 380.101 212.056Z" fill="black"/>
<path d="M374.496 198.476C374.496 198.476 379.669 217.183 383 235.108C384.45 247.992 398.309 283.214 398.309 283.214L400.696 282.755C401.829 282.538 402.879 282.01 403.73 281.231L404.536 280.493C404.536 280.493 400.426 254.967 396.446 245.029C396.543 224.257 396.928 201.875 389.122 194.903L374.496 198.476Z" fill="#263238"/>
<path d="M380.653 165.452C380.653 165.452 378.674 187.562 383.685 216.29C391.933 215.8 397.004 213.516 397.004 213.516C397.004 213.516 395.311 197.933 390.24 189.994C389.368 184.421 390.148 172.542 389.628 168.204C389.434 166.64 388.211 165.403 386.649 165.192C385.075 164.982 382.882 165.18 380.653 165.452Z" fill="#30BABA"/>
<path opacity="0.1" d="M380.653 165.452C380.653 165.452 378.674 187.562 383.685 216.29C391.933 215.8 397.004 213.516 397.004 213.516C397.004 213.516 395.311 197.933 390.24 189.994C389.368 184.421 390.148 172.542 389.628 168.204C389.434 166.64 388.211 165.403 386.649 165.192C385.075 164.982 382.882 165.18 380.653 165.452Z" fill="black"/>
<path d="M371.574 167.049C371.574 167.049 370.492 177.529 377.228 216.832C374.564 218.245 368.861 217.764 368.861 217.764C368.861 217.764 368.955 204.669 369.849 194.215C370.283 189.133 366.598 188.38 364.518 182.764C363.495 176.258 364.111 170.967 365.036 170.223C366.519 169.02 368.963 167.38 371.574 167.049Z" fill="#30BABA"/>
<path opacity="0.1" d="M371.574 167.049C371.574 167.049 370.492 177.529 377.228 216.832C374.564 218.245 368.861 217.764 368.861 217.764C368.861 217.764 368.955 204.669 369.849 194.215C370.283 189.133 366.598 188.38 364.518 182.764C363.495 176.258 364.111 170.967 365.036 170.223C366.519 169.02 368.963 167.38 371.574 167.049Z" fill="black"/>
<path opacity="0.7" d="M380.558 165.391C380.558 165.391 380.174 174.438 380.314 181.062C381.003 176.376 382.654 171.892 382.612 170.414C382.133 170.161 381.672 169.872 381.235 169.551C381.762 169.115 382.339 168.743 382.955 168.442C382.987 167.771 383.105 165.314 383.003 165.109C381.686 165.225 380.558 165.391 380.558 165.391Z" fill="white"/>
<path opacity="0.7" d="M371.66 166.971C371.66 166.971 371.35 172.646 372.357 182.646C370.9 178.463 369.01 174.471 369.184 172.901C369.945 172.265 370.616 171.562 370.616 171.562C370.131 171.261 369.596 171.047 369.037 170.93C369.06 169.761 369.15 168.592 369.304 167.432C370.578 167.144 371.66 166.971 371.66 166.971Z" fill="white"/>
<path d="M387.403 168.614C386.113 170.884 386.847 173.763 389.059 175.15C389.073 175.159 389.086 175.167 389.099 175.176C390.441 176.018 391.773 176.866 393.048 177.742C394.323 178.618 395.575 179.514 396.709 180.417C397.273 180.866 397.792 181.325 398.233 181.762C398.452 181.975 398.639 182.18 398.781 182.346C398.923 182.512 398.989 182.635 398.973 182.554L398.79 181.617C398.858 182.211 398.738 182.811 398.445 183.332C398.015 184.232 397.491 185.083 396.879 185.872C396.204 186.766 395.483 187.625 394.719 188.444C393.953 189.289 393.099 190.141 392.317 190.932L394.339 194.052C395.537 193.504 396.693 192.87 397.797 192.153C398.92 191.431 399.987 190.625 400.988 189.741C402.087 188.785 403.059 187.692 403.879 186.488C404.407 185.687 404.832 184.824 405.144 183.915C405.441 183.047 405.572 182.129 405.554 181.211L405.547 180.836L405.382 180.347C405.181 179.747 404.91 179.172 404.571 178.637C404.221 178.084 403.832 177.556 403.407 177.058C402.784 176.331 402.115 175.644 401.404 175.001C400.112 173.816 398.753 172.703 397.338 171.668C395.966 170.643 394.557 169.695 393.148 168.777C391.74 167.859 390.322 167.001 388.793 166.165L387.403 168.614Z" fill="#30BABA"/>
<path d="M394.704 191.027C393.211 190.517 391.584 190.562 390.121 191.154L391.85 196.385L394.543 194.044L394.704 191.027Z" fill="#FF8B7B"/>
<path d="M391.85 196.384L390.122 191.153L387.467 194.078L389.704 197.695L391.85 196.384Z" fill="#FF8B7B"/>
<path d="M369.092 164.93C368.495 161.06 367.913 153.858 371.7 145.928C374.97 139.083 388.598 143.854 386.539 155.384C385.328 162.168 382.425 161.015 387.552 165.546C390.508 168.157 381.784 168.838 381.068 167.093C381.068 167.093 377.954 167.388 375.792 165.64C375.792 165.64 369.64 168.481 369.092 164.93Z" fill="#263238"/>
<path d="M374.38 171.765C377.346 172.243 379.251 168.446 380.003 166.567C379.891 166.563 379.784 166.558 379.668 166.554C378.814 164.186 379.422 160.334 379.971 158.056L374.492 162.372C374.832 164.129 374.885 165.953 373.261 166.93C372.931 166.985 372.604 167.05 372.279 167.12C371.923 168.876 371.884 171.363 374.38 171.765Z" fill="#FF8B7B"/>
<path opacity="0.2" d="M377.63 159.844L374.371 162.396C374.484 162.905 374.552 163.423 374.576 163.944C375.767 163.818 377.602 162.833 377.778 161.592C377.832 161.005 377.782 160.413 377.63 159.844Z" fill="black"/>
<path d="M382.905 154.021C381.157 158.347 380.513 160.215 377.526 161.736C373.032 164.026 368.102 160.937 368.519 156.175C368.895 151.891 371.685 145.54 376.592 145.224C380.098 144.981 383.137 147.625 383.38 151.131C383.449 152.118 383.286 153.108 382.905 154.021Z" fill="#FF8B7B"/>
<path d="M372.61 152.638C372.017 153.352 371.328 153.981 370.562 154.508C370.842 154.898 371.281 155.143 371.76 155.179L372.61 152.638Z" fill="#D85B5B"/>
<path d="M377.131 152.008C377.163 152.01 377.196 152.006 377.226 151.994C377.319 151.953 377.362 151.844 377.321 151.75C377.321 151.749 377.321 151.748 377.32 151.747C377.053 151.095 376.485 150.614 375.798 150.459C375.697 150.446 375.605 150.514 375.586 150.612C375.571 150.711 375.637 150.804 375.735 150.823C376.3 150.961 376.765 151.361 376.984 151.9C377.011 151.96 377.067 152 377.131 152.008Z" fill="#263238"/>
<path d="M370.393 149.298C370.425 149.301 370.458 149.296 370.488 149.284C371.019 149.055 371.628 149.092 372.126 149.387C372.209 149.446 372.324 149.427 372.384 149.345L372.385 149.343C372.441 149.257 372.42 149.142 372.336 149.083C371.734 148.717 370.993 148.664 370.345 148.941C370.249 148.975 370.199 149.081 370.234 149.177C370.259 149.245 370.321 149.292 370.393 149.298Z" fill="#263238"/>
<path d="M375.346 152.892C375.227 153.25 374.939 153.477 374.701 153.399C374.462 153.322 374.373 152.968 374.498 152.607C374.622 152.245 374.905 152.022 375.138 152.099C375.37 152.176 375.465 152.529 375.346 152.892Z" fill="#263238"/>
<path d="M371.281 151.535C371.163 151.893 370.874 152.12 370.641 152.043C370.407 151.966 370.313 151.612 370.433 151.25C370.552 150.888 370.839 150.665 371.073 150.742C371.306 150.818 371.405 151.173 371.281 151.535Z" fill="#263238"/>
<path d="M371.169 150.796L370.389 150.261C370.389 150.261 370.61 151.081 371.169 150.796Z" fill="#263238"/>
<path d="M375.235 152.153L374.455 151.618C374.455 151.618 374.675 152.438 375.235 152.153Z" fill="#263238"/>
<path d="M374.422 157.753C374.667 157.693 374.905 157.612 375.135 157.509C375.202 157.48 375.233 157.403 375.204 157.337C375.203 157.335 375.202 157.334 375.202 157.332C375.173 157.267 375.097 157.237 375.032 157.264C374.007 157.741 372.817 157.706 371.822 157.169C371.761 157.128 371.679 157.144 371.638 157.206C371.597 157.267 371.613 157.349 371.674 157.39C372.509 157.862 373.494 157.992 374.422 157.753Z" fill="#263238"/>
<path d="M375.018 146.555C375.018 146.555 373.516 147.798 374.409 148.996C375.301 150.195 378.058 149.676 378.587 151.978C379.116 154.278 378.114 156.052 379.781 156.793C381.448 157.534 383.046 155.242 383.046 155.242C383.046 155.242 385.673 149.897 382.434 147.008C379.196 144.118 375.414 143.117 373.154 144.419C370.895 145.721 369.638 146.665 370.476 147.226C371.314 147.788 372.613 148.19 373.177 147.629C374.116 146.695 375.018 146.555 375.018 146.555Z" fill="#263238"/>
<path d="M382.784 157.862C382.265 158.6 381.474 159.102 380.585 159.257C379.406 159.452 378.945 158.367 379.38 157.32C379.77 156.382 380.856 155.144 381.99 155.425C382.809 155.655 383.288 156.505 383.058 157.324C383.003 157.52 382.91 157.702 382.784 157.862Z" fill="#FF8B7B"/>
<path d="M371.579 167.205C371.579 167.205 372.298 166.759 372.955 166.864C372.955 166.864 371.629 171.089 374.662 171.329C377.696 171.569 379.973 166.388 379.973 166.388C379.973 166.388 380.629 166.105 381.25 166.512C381.25 166.512 378.852 172.52 374.674 172.351C370.497 172.181 371.579 167.205 371.579 167.205Z" fill="#30BABA"/>
<path opacity="0.7" d="M371.579 167.205C371.579 167.205 372.298 166.759 372.955 166.864C372.955 166.864 371.629 171.089 374.662 171.329C377.696 171.569 379.973 166.388 379.973 166.388C379.973 166.388 380.629 166.105 381.25 166.512C381.25 166.512 378.852 172.52 374.674 172.351C370.497 172.181 371.579 167.205 371.579 167.205Z" fill="white"/>
<path d="M380.281 154.203L377.37 153.072C377.274 152.248 376.225 151.839 375.781 151.666C375.319 151.486 374.204 151.056 373.588 151.702L372.572 151.307C372.553 150.415 371.441 149.979 370.978 149.799C370.436 149.589 368.996 149.029 368.515 150.265C368.135 151.246 368.714 152.388 369.807 152.813C370.899 153.238 372.098 152.786 372.479 151.805C372.506 151.737 372.524 151.671 372.54 151.606L373.409 151.943C373.377 152.002 373.346 152.063 373.32 152.131C372.939 153.111 373.518 154.254 374.611 154.679C375.703 155.104 376.902 154.652 377.283 153.671C377.322 153.568 377.345 153.472 377.359 153.379L380.175 154.473C380.56 154.623 380.882 154.903 381.083 155.262L381.337 155.121C381.104 154.703 380.728 154.377 380.281 154.203ZM369.912 152.542C368.969 152.176 368.464 151.202 368.786 150.371C369.049 149.695 369.673 149.605 370.873 150.07C372.072 150.536 372.471 151.023 372.208 151.7C371.886 152.531 370.855 152.908 369.912 152.542ZM374.716 154.409C373.772 154.042 373.267 153.068 373.59 152.238C373.853 151.561 374.476 151.471 375.675 151.937C376.874 152.403 377.274 152.89 377.011 153.567C376.688 154.398 375.659 154.775 374.716 154.409Z" fill="#263238"/>
<g clip-path="url(#clip0_1456_4318)">
<path d="M354.267 300.476H331.545V300.647H354.267V300.476Z" fill="#EBEBEB"/>
<path d="M272.852 302.337H266.889V302.509H272.852V302.337Z" fill="#EBEBEB"/>
<path d="M330.859 294.105H317.693V294.277H330.859V294.105Z" fill="#EBEBEB"/>
<path d="M111.251 295.258H81.6211V295.429H111.251V295.258Z" fill="#EBEBEB"/>
<path d="M121.704 295.258H117.359V295.429H121.704V295.258Z" fill="#EBEBEB"/>
<path d="M200.086 298.155H135.824V298.326H200.086V298.155Z" fill="#EBEBEB"/>
<path d="M208.227 258.839H75.7614C73.6025 258.839 71.8457 257.083 71.8457 254.924V68.7214C71.8457 66.5625 73.6025 64.8057 75.7614 64.8057H208.227C210.385 64.8057 212.142 66.5625 212.142 68.7214V254.924C212.142 257.083 210.385 258.839 208.227 258.839ZM75.7614 64.9778C73.6965 64.9778 72.0172 66.6572 72.0172 68.722V254.924C72.0172 256.989 73.6965 258.669 75.7614 258.669H208.227C210.291 258.669 211.971 256.989 211.971 254.924V68.7214C211.971 66.6572 210.291 64.9772 208.227 64.9772L75.7614 64.9778Z" fill="#EBEBEB"/>
<path d="M393.593 250.108H290.676C288.999 250.108 287.635 248.352 287.635 246.193V60.0234C287.635 57.8649 289 56.1084 290.676 56.1084H393.593C395.27 56.1084 396.635 57.8649 396.635 60.0234V246.193C396.635 248.352 395.27 250.108 393.593 250.108ZM290.676 56.2806C289.073 56.2806 287.768 57.9596 287.768 60.0241V246.194C287.768 248.259 289.073 249.938 290.676 249.938H393.593C395.197 249.938 396.502 248.259 396.502 246.194V60.0234C396.502 57.9596 395.197 56.2799 393.593 56.2799L290.676 56.2806Z" fill="#EBEBEB"/>
<path d="M388.635 289.434H45.6348V289.605H388.635V289.434Z" fill="#EBEBEB"/>
<path d="M322.133 99.1084V103.252C324.805 103.465 327.237 104.524 329.162 106.163L332.091 103.234C329.407 100.855 325.944 99.3362 322.133 99.1084Z" fill="#C1F8F5"/>
<path d="M320.134 127.962C314.084 127.479 309.262 122.657 308.778 116.607H304.635C305.132 124.94 311.801 131.608 320.134 132.106V127.962Z" fill="#52CEC7"/>
<path d="M308.778 114.607C309.261 108.558 314.084 103.736 320.133 103.253V99.1094C311.8 99.6067 305.132 106.275 304.635 114.608L308.778 114.607Z" fill="#7BE3DD"/>
<path d="M333.505 104.648L330.576 107.578C332.418 109.741 333.531 112.544 333.531 115.607C333.531 122.118 328.512 127.452 322.133 127.962V132.106C330.797 131.588 337.665 124.401 337.665 115.607C337.665 111.401 336.092 107.565 333.505 104.648Z" fill="#58E1D9"/>
<path d="M257.367 165.109V181.496L263.446 196.714C269.165 194.106 273.142 188.342 273.142 181.646C273.142 172.764 266.148 165.517 257.367 165.109Z" fill="#A4EAE6"/>
<path d="M255.93 181.288V166.321V165.108C247.416 165.504 240.635 172.531 240.635 181.142C240.635 181.343 240.642 181.542 240.65 181.74C240.642 181.944 240.635 182.149 240.635 182.354C240.635 191.22 247.822 198.408 256.688 198.408C258.525 198.408 260.288 198.095 261.932 197.527L255.93 181.288Z" fill="#8DD9D4"/>
<path d="M77.7896 160.175C77.7896 160.175 72.2406 160.585 69.2181 166.95C66.1949 173.314 64.1266 185.248 71.2864 185.566C78.4468 185.885 77.7896 184.134 77.7896 184.134L77.8054 180.952L73.2168 179.574C72.2522 179.285 71.7247 178.247 72.0588 177.297L74.468 170.45L77.7896 160.175Z" fill="#30BABA"/>
<path opacity="0.2" d="M77.7896 160.175C77.7896 160.175 72.2406 160.585 69.2181 166.95C66.1949 173.314 64.1266 185.248 71.2864 185.566C78.4468 185.885 77.7896 184.134 77.7896 184.134L77.8054 180.952L73.2168 179.574C72.2522 179.285 71.7247 178.247 72.0588 177.297L74.468 170.45L77.7896 160.175Z" fill="black"/>
<path d="M92.2588 143.694C92.4914 143.652 92.7363 143.897 92.8076 144.249C92.879 144.601 92.7541 144.93 92.5209 144.971C92.2883 145.013 92.0434 144.768 91.9721 144.416C91.8829 144.052 92.0263 143.736 92.2588 143.694Z" fill="#263238"/>
<path d="M92.9341 148.361C93.5453 148.393 94.1401 148.152 94.5572 147.704C93.6729 146.92 92.9005 146.018 92.2598 145.025L92.9341 148.361Z" fill="#EC837E"/>
<path d="M90.4324 142.68C90.7795 142.265 91.3063 142.042 91.8469 142.084C91.8695 142.091 91.8929 142.095 91.9169 142.095C92.0356 142.096 92.1323 142 92.133 141.881C92.1336 141.762 92.0376 141.666 91.9189 141.666C91.2446 141.595 90.5771 141.855 90.1292 142.364C90.0949 142.402 90.0756 142.451 90.0743 142.503C90.0715 142.621 90.1655 142.719 90.2842 142.722C90.337 142.728 90.3898 142.713 90.4324 142.68Z" fill="#263238"/>
<path d="M88.9701 154.662C88.3314 157.204 88.3081 160.361 91.0823 161.226C91.0823 161.226 94.5493 164.131 87.8718 164.131C81.8034 164.131 80.9082 160.819 80.9082 160.819C83.1933 158.635 82.8057 154.112 82.167 150.842L88.9701 154.662Z" fill="#FFC2BC"/>
<path d="M78.4277 160.257C78.4277 160.257 79.5315 157.35 81.0215 156.488C82.5122 155.626 88.8042 156.908 89.779 157.345C90.7531 157.783 91.6422 160.122 91.6422 160.122L78.4277 160.257Z" fill="#30BABA"/>
<path opacity="0.2" d="M78.4277 160.257C78.4277 160.257 79.5315 157.35 81.0215 156.488C82.5122 155.626 88.8042 156.908 89.779 157.345C90.7531 157.783 91.6422 160.122 91.6422 160.122L78.4277 160.257Z" fill="black"/>
<path d="M88.0036 295.116C87.959 295.108 87.9247 295.071 87.9199 295.026C87.9117 294.984 87.9302 294.941 87.9679 294.919C88.0516 294.883 89.615 293.994 90.3552 294.197C90.4986 294.226 90.6227 294.315 90.6955 294.442C90.7942 294.579 90.7942 294.764 90.6955 294.902C90.5102 295.164 89.9793 295.242 89.3825 295.242C88.9201 295.238 88.4584 295.197 88.0036 295.116ZM90.0918 294.364C89.4751 294.439 88.8796 294.633 88.3377 294.937C89.1671 295.05 90.2948 295.044 90.5041 294.758C90.5521 294.716 90.5754 294.656 90.5041 294.525C90.4608 294.445 90.384 294.391 90.2948 294.376C90.2276 294.367 90.159 294.367 90.0918 294.376V294.364Z" fill="#30BABA"/>
<path d="M87.9614 295.092C87.9319 295.069 87.9147 295.034 87.9141 294.996C87.9202 294.943 88.0156 293.743 88.6124 293.272C88.7777 293.132 88.9938 293.067 89.2092 293.093C89.5015 293.123 89.603 293.272 89.603 293.391C89.6867 293.911 88.6186 294.859 88.0753 295.103H88.0334C88.0087 295.109 87.9827 295.104 87.9614 295.092ZM89.1372 293.296C88.9966 293.298 88.8621 293.354 88.7613 293.451C88.4265 293.839 88.2187 294.32 88.1645 294.829C88.7194 294.495 89.4411 293.737 89.3938 293.433C89.3876 293.409 89.3759 293.314 89.1845 293.314H89.1249L89.1372 293.296Z" fill="#30BABA"/>
<path d="M83.571 284.655H88.0341L87.5869 294.996H83.123L83.571 284.655Z" fill="#FFC2BC"/>
<path d="M88.6372 294.829C91.657 296.691 92.5872 296.775 96.0844 297.538C96.8479 297.705 96.341 299.561 94.5094 299.561C91.4779 299.561 91.1617 299.418 88.5782 299.418C86.3645 299.418 83.8222 299.519 82.0619 299.549C82.0077 299.549 81.9535 299.544 81.9014 299.532C81.5549 299.449 81.3416 299.101 81.4239 298.755L82.3013 294.787C82.3425 294.609 82.5009 294.483 82.6834 294.482H87.5643C87.9464 294.496 88.3182 294.616 88.6372 294.829Z" fill="#263238"/>
<path d="M94.0653 160.191C93.085 160.027 84.0957 159.652 80.7192 159.88C79.5578 159.963 78.3984 160.077 77.2439 160.224C74.8155 160.532 73.1375 162.797 73.5402 165.211C76.1881 181.087 74.8573 196.657 74.4924 199.784L98.3597 199.561C100.855 179.916 100.19 170.011 99.2323 165.198C98.7171 162.618 96.6604 160.625 94.0653 160.191Z" fill="#30BABA"/>
<path opacity="0.1" d="M94.0653 160.191C93.085 160.027 84.0957 159.652 80.7192 159.88C79.5578 159.963 78.3984 160.077 77.2439 160.224C74.8155 160.532 73.1375 162.797 73.5402 165.211C76.1881 181.087 74.8573 196.657 74.4924 199.784L98.3597 199.561C100.855 179.916 100.19 170.011 99.2323 165.198C98.7171 162.618 96.6604 160.625 94.0653 160.191Z" fill="black"/>
<path opacity="0.2" d="M83.5643 284.661L83.3379 289.99H87.8072L88.0336 284.661H83.5643Z" fill="black"/>
<path d="M79.9292 143.29C80.5603 140.008 83.7324 137.86 87.0135 138.491C91.6084 139.356 93.5059 145.669 93.3687 149.757C93.2376 154.292 88.2607 157.365 84.2867 154.692C81.649 152.908 81.1894 150.348 80.0438 146.064C79.7913 145.16 79.7522 144.211 79.9292 143.29Z" fill="#FFC2BC"/>
<path d="M74.8422 198.13C74.8422 198.13 70.2686 212.793 66.7241 227.711C62.1114 247.164 50.9824 286.911 50.9824 286.911L58.8591 288.641C58.8591 288.641 75.1015 242.378 79.3684 228.432C83.2711 215.699 90.2552 198.13 90.2552 198.13H74.8422Z" fill="#263238"/>
<path opacity="0.3" d="M84.35 214.441C77.3267 233.542 75.8401 239.276 75.7324 239.646C76.5858 228.023 80.0851 215.048 84.35 214.441C84.6491 214.392 84.0605 214.349 84.35 214.441Z" fill="black"/>
<path d="M83.0166 198.13C83.0166 198.13 82.5007 214.387 82.1666 229.555C81.862 243.471 82.1666 288.957 82.1666 288.957H89.7332C89.7332 288.957 95.545 242.551 97.0844 228.403C98.5703 214.804 98.728 198.13 98.728 198.13H83.0166Z" fill="#263238"/>
<path d="M81.0527 286.284L81.3038 289.082H90.5051C90.5051 289.082 90.9648 285.944 90.9291 285.944L81.0527 286.284Z" fill="#30BABA"/>
<path d="M50.7637 295.062C50.7568 295.105 50.7232 295.139 50.68 295.146C50.6361 295.156 50.5915 295.133 50.5723 295.093C50.5304 295.015 49.653 293.446 49.8623 292.706C49.8973 292.567 49.9851 292.447 50.1072 292.372C50.2464 292.272 50.4337 292.272 50.573 292.372C50.8295 292.563 50.9016 293.094 50.9016 293.69C50.8947 294.15 50.8487 294.61 50.7637 295.062ZM50.0351 292.974C50.1024 293.588 50.2869 294.183 50.5785 294.728C50.704 293.898 50.704 292.771 50.4172 292.561C50.3816 292.514 50.3157 292.49 50.1847 292.561C50.1051 292.605 50.0502 292.681 50.0358 292.771C50.0255 292.838 50.0255 292.906 50.0351 292.974Z" fill="#30BABA"/>
<path d="M50.7565 295.104C50.7359 295.135 50.6982 295.152 50.6612 295.146C50.6131 295.139 49.4078 295.038 48.9489 294.442C48.8069 294.277 48.7424 294.06 48.7699 293.845C48.7994 293.558 48.9489 293.457 49.0683 293.457C49.5752 293.379 50.5301 294.453 50.7689 294.991C50.7709 295.004 50.7709 295.019 50.7689 295.032C50.7744 295.057 50.7702 295.083 50.7565 295.104ZM48.9606 293.935C48.9667 294.071 49.0189 294.202 49.1101 294.305C49.4963 294.639 49.9752 294.846 50.4828 294.901C50.1549 294.346 49.403 293.619 49.0985 293.666C49.0745 293.666 48.9791 293.678 48.9791 293.869C48.9791 293.893 48.9791 293.935 48.9791 293.935H48.9606Z" fill="#30BABA"/>
<path d="M52.7141 286.489L57.0668 286.819L55.0588 295.372L50.6973 295.062L52.7141 286.489Z" fill="#FFC2BC"/>
<path opacity="0.2" d="M52.767 286.25L51.8848 290.014L56.2409 290.324L57.1286 286.551L52.767 286.25Z" fill="black"/>
<path d="M49.6467 294.489C48.4716 295.879 47.8508 296.595 44.4373 297.669C43.6854 297.902 44.3597 299.704 46.1859 299.542C49.205 299.274 47.5407 299.28 50.1125 299.053C52.3146 298.856 54.8562 298.737 56.611 298.612C56.67 298.61 56.729 298.599 56.7853 298.581C57.1276 298.472 57.3162 298.107 57.2078 297.764L55.9785 293.886C55.925 293.711 55.7549 293.598 55.5731 293.617L50.7155 294.047C50.3142 294.046 49.9294 294.205 49.6467 294.489Z" fill="#263238"/>
<path d="M50.0399 285.449L49.998 288.265L59.4676 289.279C59.4676 289.279 60.2791 286.206 60.2435 286.206L50.0399 285.449Z" fill="#30BABA"/>
<path d="M81.3977 137.567C83.6636 136.696 84.0025 136.486 85.3223 134.45C86.0564 133.316 85.9541 132.318 88.1878 131.955C90.5291 131.575 93.0378 133.032 93.8671 135.254C94.6972 137.476 93.7574 140.22 91.7399 141.467C90.5695 142.191 92.301 140.446 91.0312 140.976C89.7614 141.507 90.042 140.899 89.9666 142.272C89.9089 143.325 90.5469 144.268 90.9544 145.24C91.3619 146.213 91.4613 147.525 90.6093 148.144C90.8487 147.344 88.8943 149.536 88.9684 150.368C89.1749 152.684 87.1176 154.813 84.8147 155.131C79.7568 155.827 76.4277 149.942 74.9637 145.9C73.0244 140.541 76.0579 139.619 81.3977 137.567Z" fill="#263238"/>
<path d="M89.6757 144.178C90.9468 144.566 91.591 146.452 91.6328 147.645C91.6809 148.964 90.7911 149.788 89.6517 148.892C88.7935 148.203 88.1857 147.251 87.9209 146.183C87.6225 144.888 88.4045 143.791 89.6757 144.178Z" fill="#FFC2BC"/>
<path opacity="0.1" d="M94.1281 160.557C94.1281 160.557 98.4135 160.13 100.164 164.585C101.432 167.814 103.954 174.97 105.247 178.666C105.554 179.545 106.761 179.633 107.196 178.81L108.915 175.564C108.915 175.564 111.461 176.041 112.415 178.269C113.37 180.496 107.642 186.554 104.619 186.543C101.262 186.531 96.8968 178.331 95.7086 174.557C93.2987 166.904 94.1281 160.557 94.1281 160.557Z" fill="white"/>
<path d="M108.916 176.616L110.886 173.269C110.886 173.269 109.771 171.19 110.503 169.844C111.234 168.498 111.95 169.584 112.653 169.173C113.355 168.764 114.944 165.847 115.705 167.31C116.465 168.774 117.416 171.293 113.495 174.278L111.374 179.601L108.916 176.616Z" fill="#FFC2BC"/>
<path d="M109.208 175.207C109.962 175.349 111.971 175.972 112.842 178.631C112.849 178.655 112.855 178.676 112.859 178.701C112.912 179.007 113.299 181.295 112.853 181.332C112.392 181.371 111.784 179.189 108.173 177.285C107.954 177.17 107.87 176.896 107.998 176.683L108.768 175.409C108.86 175.257 109.034 175.174 109.208 175.207Z" fill="#30BABA"/>
<path d="M109.208 175.207C109.962 175.349 111.971 175.972 112.842 178.631C112.849 178.655 112.855 178.676 112.859 178.701C112.912 179.007 113.299 181.295 112.853 181.332C112.392 181.371 111.784 179.189 108.173 177.285C107.954 177.17 107.87 176.896 107.998 176.683L108.768 175.409C108.86 175.257 109.034 175.174 109.208 175.207Z" fill="#30BABA"/>
<path d="M94.1281 160.557C94.1281 160.557 98.4135 160.13 100.164 164.585C101.432 167.814 103.954 174.97 105.247 178.666C105.554 179.545 106.761 179.633 107.196 178.81L108.915 175.564C108.915 175.564 111.461 176.041 112.415 178.269C113.37 180.496 107.642 186.554 104.619 186.543C101.262 186.531 96.8968 178.331 95.7086 174.557C93.2987 166.904 94.1281 160.557 94.1281 160.557Z" fill="#30BABA"/>
<path opacity="0.1" d="M94.1281 160.557C94.1281 160.557 98.4135 160.13 100.164 164.585C101.432 167.814 103.954 174.97 105.247 178.666C105.554 179.545 106.761 179.633 107.196 178.81L108.915 175.564C108.915 175.564 111.461 176.041 112.415 178.269C113.37 180.496 107.642 186.554 104.619 186.543C101.262 186.531 96.8968 178.331 95.7086 174.557C93.2987 166.904 94.1281 160.557 94.1281 160.557Z" fill="white"/>
<path d="M248.57 69.1161C241.064 64.3898 226.325 63.6896 216.82 75.3466C225.326 71.3421 235.47 71.9041 243.523 77.0742L241.097 81.0624L255.504 78.9857L251.103 65.0399L248.57 69.1161Z" fill="#30BABA"/>
<path d="M124.656 109.575V113.109H122.64V103.478H129.742V105.036H124.656V108.017H129.585V109.575H124.656ZM132.825 109.78C132.825 110.5 132.957 111.045 133.222 111.414C133.491 111.779 133.871 111.961 134.363 111.961C134.701 111.961 134.976 111.888 135.19 111.742C135.409 111.592 135.562 111.371 135.648 111.079L137.46 111.236C136.936 112.576 135.872 113.246 134.268 113.246C133.156 113.246 132.301 112.918 131.704 112.262C131.107 111.601 130.809 110.639 130.809 109.377C130.809 108.156 131.112 107.217 131.718 106.561C132.324 105.904 133.183 105.576 134.295 105.576C135.357 105.576 136.168 105.929 136.729 106.636C137.289 107.338 137.569 108.368 137.569 109.726V109.78H132.825ZM135.71 108.577C135.674 107.98 135.53 107.534 135.279 107.237C135.029 106.937 134.691 106.786 134.268 106.786C133.816 106.786 133.468 106.943 133.222 107.258C132.98 107.572 132.853 108.012 132.839 108.577H135.71ZM140.618 109.78C140.618 110.5 140.75 111.045 141.015 111.414C141.284 111.779 141.664 111.961 142.156 111.961C142.493 111.961 142.769 111.888 142.983 111.742C143.202 111.592 143.355 111.371 143.441 111.079L145.253 111.236C144.729 112.576 143.665 113.246 142.061 113.246C140.949 113.246 140.094 112.918 139.497 112.262C138.9 111.601 138.602 110.639 138.602 109.377C138.602 108.156 138.905 107.217 139.511 106.561C140.117 105.904 140.976 105.576 142.088 105.576C143.15 105.576 143.961 105.929 144.521 106.636C145.082 107.338 145.362 108.368 145.362 109.726V109.78H140.618ZM143.503 108.577C143.466 107.98 143.323 107.534 143.072 107.237C142.822 106.937 142.484 106.786 142.061 106.786C141.609 106.786 141.261 106.943 141.015 107.258C140.773 107.572 140.646 108.012 140.632 108.577H143.503ZM151.617 113.109C151.608 113.064 151.594 112.968 151.576 112.822C151.558 112.676 151.542 112.517 151.528 112.344C151.519 112.171 151.515 112.025 151.515 111.906H151.487C151.278 112.353 150.977 112.688 150.585 112.911C150.193 113.134 149.705 113.246 149.122 113.246C148.261 113.246 147.595 112.911 147.126 112.241C146.657 111.567 146.422 110.626 146.422 109.418C146.422 108.192 146.668 107.246 147.16 106.581C147.657 105.911 148.359 105.576 149.266 105.576C149.79 105.576 150.241 105.686 150.619 105.904C151.002 106.123 151.296 106.449 151.501 106.882H151.515L151.501 105.665V102.965H153.422V111.496C153.422 111.724 153.426 111.972 153.436 112.241C153.445 112.51 153.458 112.799 153.477 113.109H151.617ZM148.425 109.418C148.425 110.257 148.55 110.885 148.801 111.305C149.056 111.724 149.434 111.934 149.936 111.934C150.441 111.934 150.833 111.713 151.111 111.271C151.389 110.824 151.528 110.19 151.528 109.37C151.528 108.573 151.394 107.96 151.125 107.531C150.861 107.098 150.469 106.882 149.949 106.882C149.434 106.882 149.051 107.091 148.801 107.511C148.55 107.925 148.425 108.561 148.425 109.418ZM162.384 109.384C162.384 110.605 162.138 111.555 161.646 112.234C161.158 112.909 160.458 113.246 159.547 113.246C159.023 113.246 158.569 113.132 158.187 112.904C157.804 112.676 157.51 112.348 157.305 111.92H157.291C157.291 112.025 157.286 112.161 157.277 112.33C157.268 112.499 157.257 112.658 157.243 112.809C157.229 112.954 157.214 113.055 157.195 113.109H155.329C155.347 112.895 155.361 112.649 155.37 112.371C155.379 112.089 155.384 111.772 155.384 111.421V102.965H157.305V105.795C157.305 105.995 157.3 106.196 157.291 106.396C157.286 106.597 157.282 106.798 157.277 106.998H157.305C157.519 106.524 157.824 106.169 158.221 105.932C158.617 105.695 159.1 105.576 159.67 105.576C160.545 105.576 161.215 105.909 161.68 106.574C162.149 107.235 162.384 108.172 162.384 109.384ZM160.381 109.384C160.381 108.545 160.258 107.923 160.012 107.518C159.766 107.112 159.385 106.909 158.87 106.909C158.351 106.909 157.954 107.128 157.681 107.565C157.412 107.998 157.277 108.625 157.277 109.445C157.277 110.229 157.41 110.84 157.674 111.277C157.943 111.715 158.337 111.934 158.856 111.934C159.367 111.934 159.747 111.722 159.998 111.298C160.253 110.874 160.381 110.236 160.381 109.384ZM165.651 113.246C164.936 113.246 164.378 113.052 163.977 112.665C163.576 112.273 163.375 111.724 163.375 111.018C163.375 110.252 163.623 109.671 164.12 109.274C164.621 108.878 165.346 108.671 166.294 108.652L167.887 108.625V108.249C167.887 107.766 167.802 107.408 167.634 107.176C167.465 106.939 167.189 106.82 166.807 106.82C166.451 106.82 166.189 106.902 166.021 107.066C165.856 107.226 165.754 107.493 165.713 107.866L163.71 107.771C163.961 106.308 165.02 105.576 166.889 105.576C167.823 105.576 168.543 105.806 169.049 106.267C169.555 106.727 169.808 107.381 169.808 108.229V110.922C169.808 111.337 169.853 111.624 169.944 111.783C170.04 111.938 170.197 112.016 170.416 112.016C170.562 112.016 170.703 112.002 170.84 111.975V113.014C170.603 113.073 170.4 113.116 170.231 113.144C170.063 113.175 169.855 113.191 169.609 113.191C169.126 113.191 168.769 113.073 168.536 112.836C168.308 112.599 168.172 112.25 168.126 111.79H168.085C167.816 112.273 167.479 112.638 167.073 112.884C166.668 113.125 166.194 113.246 165.651 113.246ZM167.887 109.685L166.902 109.698C166.451 109.721 166.134 109.769 165.952 109.842C165.765 109.924 165.622 110.047 165.521 110.211C165.426 110.375 165.378 110.594 165.378 110.867C165.378 111.218 165.458 111.48 165.617 111.653C165.781 111.822 165.998 111.906 166.267 111.906C166.567 111.906 166.843 111.824 167.094 111.66C167.34 111.496 167.534 111.271 167.675 110.983C167.816 110.692 167.887 110.384 167.887 110.061V109.685ZM174.818 113.246C173.697 113.246 172.831 112.913 172.221 112.248C171.61 111.578 171.305 110.646 171.305 109.452C171.305 108.231 171.612 107.281 172.228 106.602C172.843 105.918 173.715 105.576 174.846 105.576C175.716 105.576 176.436 105.795 177.006 106.232C177.576 106.67 177.933 107.274 178.079 108.044L176.145 108.14C176.09 107.761 175.953 107.461 175.734 107.237C175.516 107.009 175.206 106.896 174.805 106.896C174.308 106.896 173.937 107.103 173.69 107.518C173.444 107.928 173.321 108.548 173.321 109.377C173.321 110.229 173.447 110.869 173.697 111.298C173.952 111.722 174.331 111.934 174.832 111.934C175.197 111.934 175.502 111.82 175.748 111.592C175.994 111.359 176.147 111.015 176.206 110.56L178.134 110.648C178.065 111.168 177.881 111.624 177.58 112.016C177.284 112.403 176.899 112.706 176.425 112.925C175.951 113.139 175.415 113.246 174.818 113.246ZM181.449 110.334V113.109H179.528V102.965H181.449V108.775L184.088 105.713H186.152L183.555 108.598L186.351 113.109H184.252L182.276 109.76L181.449 110.334Z" fill="#30BABA"/>
</g>
<defs>
<clipPath id="clip0_1456_4318">
<rect width="343" height="306" fill="white" transform="translate(45.6348 27.1084)"/>
</clipPath>
</defs>
</svg>
