<svg width="584" height="585" viewBox="0 0 584 585" fill="none" xmlns="http://www.w3.org/2000/svg">
<g clip-path="url(#clip0_860_4597)">
<path d="M259.488 72.4989C259.488 72.4989 342.668 61.9189 408.898 122.169C475.128 182.419 494.388 277.509 512.038 354.169C529.688 430.829 495.348 497.369 430.468 516.959C365.588 536.549 336.628 480.419 255.998 460.419C175.368 440.419 150.998 447.209 93.6976 386.659C36.3976 326.109 47.8976 215.189 118.488 146.709C189.078 78.2289 259.488 72.4989 259.488 72.4989Z" fill="#263238" fill-opacity="0.3"/>
<path opacity="0.75" d="M259.488 72.4989C259.488 72.4989 342.668 61.9189 408.898 122.169C475.128 182.419 494.388 277.509 512.038 354.169C529.688 430.829 495.348 497.369 430.468 516.959C365.588 536.549 336.628 480.419 255.998 460.419C175.368 440.419 150.998 447.209 93.6976 386.659C36.3976 326.109 47.8976 215.189 118.488 146.709C189.078 78.2289 259.488 72.4989 259.488 72.4989Z" fill="#263238" fill-opacity="0.3"/>
<path d="M524.823 465.662H486.203V465.954H524.823V465.662Z" fill="#EBEBEB"/>
<path d="M386.441 468.832H376.305V469.124H386.441V468.832Z" fill="#EBEBEB"/>
<path d="M485.036 454.816H462.658V455.108H485.036V454.816Z" fill="#EBEBEB"/>
<path d="M111.769 456.778H61.4062V457.07H111.769V456.778Z" fill="#EBEBEB"/>
<path d="M129.535 456.778H122.15V457.07H129.535V456.778Z" fill="#EBEBEB"/>
<path d="M262.759 461.711H153.533V462.003H262.759V461.711Z" fill="#EBEBEB"/>
<path d="M278.213 394.771H53.0598C49.3904 394.771 46.4043 391.78 46.4043 388.105V71.072C46.4043 67.3963 49.3904 64.405 53.0598 64.405H278.213C281.882 64.405 284.868 67.3963 284.868 71.072V388.105C284.868 391.78 281.882 394.771 278.213 394.771ZM53.0598 64.6982C49.5502 64.6982 46.6958 67.5575 46.6958 71.0731V388.106C46.6958 391.621 49.5502 394.481 53.0598 394.481H278.213C281.722 394.481 284.576 391.621 284.576 388.106V71.072C284.576 67.5575 281.722 64.697 278.213 64.697L53.0598 64.6982Z" fill="#EBEBEB"/>
<path d="M530.415 394.771H305.262C301.594 394.771 298.607 391.78 298.607 388.105V71.072C298.607 67.3963 301.594 64.405 305.262 64.405H530.415C534.086 64.405 537.071 67.3963 537.071 71.072V388.105C537.071 391.78 534.085 394.771 530.415 394.771ZM305.262 64.6982C301.753 64.6982 298.899 67.5575 298.899 71.0731V388.106C298.899 391.621 301.753 394.481 305.262 394.481H530.415C533.925 394.481 536.779 391.621 536.779 388.106V71.072C536.779 67.5575 533.925 64.697 530.415 64.697L305.262 64.6982Z" fill="#EBEBEB"/>
<path d="M583.238 446.862H0.238281V447.154H583.238V446.862Z" fill="#EBEBEB"/>
<path d="M198.002 145.375H113.285V252.917H198.002V145.375Z" fill="#F0F0F0"/>
<path d="M189.568 156.081H121.719V242.211H189.568V156.081Z" fill="#FAFAFA"/>
<path d="M106.732 252.917H113.285L113.285 145.376H106.732L106.732 252.917Z" fill="#E0E0E0"/>
<path d="M165.515 200.472C173.097 208.068 173.097 220.383 165.515 227.979C157.932 235.574 145.638 235.574 138.055 227.979C130.472 220.383 157.932 192.876 165.515 200.472Z" fill="#F5F5F5"/>
<path d="M145.24 198.971C139.274 192.995 139.274 183.305 145.24 177.327C151.207 171.351 160.88 171.351 166.848 177.327C172.814 183.304 151.207 204.948 145.24 198.971Z" fill="#EBEBEB"/>
<path d="M455.533 296.565H445.471V447.564H455.533V296.565Z" fill="#F0F0F0"/>
<path d="M459.919 296.565H451.162V447.564H459.919V296.565Z" fill="#E6E6E6"/>
<path d="M354.08 296.565H344.018V447.564H354.08V296.565Z" fill="#F0F0F0"/>
<path d="M358.464 296.565H349.707V447.564H358.464V296.565Z" fill="#E6E6E6"/>
<path d="M493.686 296.565H483.623V447.564H493.686V296.565Z" fill="#F0F0F0"/>
<path d="M498.057 296.565H489.301V447.564H498.057V296.565Z" fill="#E6E6E6"/>
<path d="M392.233 296.565H382.17V447.564H392.233V296.565Z" fill="#F0F0F0"/>
<path d="M498.07 286.871H344.029V298.971H498.07V286.871Z" fill="#F0F0F0"/>
<path d="M387.859 286.871H344.029V298.971H387.859V286.871Z" fill="#E0E0E0"/>
<path d="M396.616 296.565H387.859V447.564H396.616V296.565Z" fill="#E6E6E6"/>
<path d="M143.15 287.638H78.7129V447.564H143.15V287.638Z" fill="#E6E6E6"/>
<path d="M263.664 287.638H129.076V447.564H263.664V287.638Z" fill="#F5F5F5"/>
<path d="M257.26 439.624H200.348V315.23C200.348 305.567 208.168 297.733 217.814 297.733H239.795C249.441 297.733 257.261 305.567 257.261 315.23V439.624H257.26Z" fill="#EBEBEB"/>
<path d="M193.713 439.624H136.801V315.23C136.801 305.567 144.621 297.733 154.267 297.733H176.248C185.894 297.733 193.714 305.567 193.714 315.23V439.624H193.713Z" fill="#EBEBEB"/>
<path d="M188.593 367.602C188.593 370.921 186.065 373.612 182.946 373.612C179.827 373.612 177.299 370.921 177.299 367.602C177.299 364.282 179.827 361.591 182.946 361.591C186.064 361.591 188.593 364.282 188.593 367.602Z" fill="#E0E0E0"/>
<path d="M217.712 367.602C217.712 370.921 215.184 373.612 212.065 373.612C208.946 373.612 206.418 370.921 206.418 367.602C206.418 364.282 208.946 361.591 212.065 361.591C215.183 361.591 217.712 364.282 217.712 367.602Z" fill="#E0E0E0"/>
<path d="M445.037 304.345H361.89C357.786 304.345 354.75 301.012 355.109 296.9L359.59 245.601C359.949 241.489 363.567 238.156 367.671 238.156H450.818C454.922 238.156 457.958 241.489 457.599 245.601L453.118 296.9C452.759 301.012 449.141 304.345 445.037 304.345Z" fill="#263238"/>
<path d="M396.037 267.114C395.382 274.615 388.781 280.695 381.293 280.695C373.805 280.695 368.266 274.615 368.922 267.114C369.577 259.613 376.178 253.532 383.666 253.532L384.272 246.589C372.956 246.589 362.98 255.777 361.99 267.113C361 278.448 369.37 287.637 380.686 287.637C392.002 287.637 401.979 278.448 402.969 267.113L396.037 267.114Z" fill="#2FB7B8"/>
<path d="M405.399 264.104C406.389 252.768 398.018 243.58 386.702 243.58L386.096 250.524C393.584 250.524 399.122 256.604 398.467 264.105L405.399 264.104Z" fill="#2FB7B8"/>
<path opacity="0.7" d="M405.399 264.104C406.389 252.768 398.018 243.58 386.702 243.58L386.096 250.524C393.584 250.524 399.122 256.604 398.467 264.105L405.399 264.104Z" fill="white"/>
<path d="M388.42 267.115C388.121 270.529 385.118 273.296 381.709 273.296C378.301 273.296 375.78 270.529 376.079 267.115C376.377 263.701 379.381 260.934 382.789 260.934L383.066 257.773C377.915 257.773 373.375 261.956 372.925 267.115C372.475 272.274 376.284 276.456 381.434 276.456C386.584 276.456 391.125 272.273 391.575 267.115H388.42Z" fill="#2FB7B8"/>
<path opacity="0.7" d="M388.42 267.115C388.121 270.529 385.118 273.296 381.709 273.296C378.301 273.296 375.78 270.529 376.079 267.115C376.377 263.701 379.381 260.934 382.789 260.934L383.066 257.773C377.915 257.773 373.375 261.956 372.925 267.115C372.475 272.274 376.284 276.456 381.434 276.456C386.584 276.456 391.125 272.273 391.575 267.115H388.42Z" fill="white"/>
<path d="M392.68 265.745C393.132 260.586 389.321 256.405 384.171 256.405L383.895 259.565C387.303 259.565 389.824 262.332 389.525 265.746L392.68 265.745Z" fill="#2FB7B8"/>
<path d="M432.651 246.59L432.044 253.534C439.533 253.534 445.071 259.614 444.416 267.115C443.76 274.616 437.16 280.697 429.672 280.697C422.184 280.697 416.645 274.616 417.3 267.115C417.628 263.365 419.442 259.969 422.11 257.512L417.637 252.602C413.605 256.316 410.864 261.447 410.369 267.114C409.379 278.449 417.749 287.638 429.065 287.638C440.381 287.638 450.358 278.449 451.348 267.114C452.338 255.778 443.967 246.59 432.651 246.59Z" fill="#2FB7B8"/>
<path opacity="0.7" d="M432.651 246.59L432.044 253.534C439.533 253.534 445.071 259.614 444.416 267.115C443.76 274.616 437.16 280.697 429.672 280.697C422.184 280.697 416.645 274.616 417.3 267.115C417.628 263.365 419.442 259.969 422.11 257.512L417.637 252.602C413.605 256.316 410.864 261.447 410.369 267.114C409.379 278.449 417.749 287.638 429.065 287.638C440.381 287.638 450.358 278.449 451.348 267.114C452.338 255.778 443.967 246.59 432.651 246.59Z" fill="white"/>
<path d="M416.305 248.797L420.777 253.708C423.445 251.25 426.968 249.729 430.712 249.729L431.318 242.786C425.66 242.787 420.337 245.083 416.305 248.797Z" fill="#2FB7B8"/>
<path opacity="0.3" d="M416.305 248.797L420.777 253.708C423.445 251.25 426.968 249.729 430.712 249.729L431.318 242.786C425.66 242.787 420.337 245.083 416.305 248.797Z" fill="black"/>
<path d="M431.73 257.135L431.441 260.453C435.018 260.453 437.665 263.359 437.352 266.942C437.04 270.526 433.884 273.432 430.307 273.432C426.729 273.432 424.083 270.526 424.396 266.942C424.552 265.15 425.419 263.528 426.694 262.353L424.556 260.007C422.63 261.782 421.32 264.234 421.083 266.941C420.61 272.357 424.61 276.749 430.017 276.749C435.424 276.749 440.19 272.358 440.664 266.941C441.137 261.524 437.136 257.135 431.73 257.135Z" fill="#2FB7B8"/>
<path d="M423.918 258.19L426.055 260.537C427.33 259.363 429.013 258.637 430.802 258.637L431.092 255.318C428.388 255.317 425.844 256.415 423.918 258.19Z" fill="#2FB7B8"/>
<path opacity="0.3" d="M423.918 258.19L426.055 260.537C427.33 259.363 429.013 258.637 430.802 258.637L431.092 255.318C428.388 255.317 425.844 256.415 423.918 258.19Z" fill="black"/>
<path d="M371.235 296.629C370.028 296.629 369.135 295.649 369.241 294.441C369.347 293.232 370.411 292.252 371.617 292.252C372.824 292.252 373.717 293.232 373.611 294.441C373.506 295.649 372.442 296.629 371.235 296.629Z" fill="white"/>
<path d="M393.597 295.554H377.294C376.681 295.554 376.226 295.055 376.28 294.44C376.333 293.825 376.874 293.327 377.489 293.327H393.792C394.405 293.327 394.86 293.826 394.806 294.44C394.751 295.055 394.21 295.554 393.597 295.554Z" fill="white"/>
<path d="M389.116 299.932H376.911C376.298 299.932 375.843 299.434 375.897 298.819C375.951 298.205 376.492 297.706 377.106 297.706H389.311C389.924 297.706 390.379 298.205 390.325 298.819C390.271 299.434 389.73 299.932 389.116 299.932Z" fill="white"/>
<path d="M418.502 296.629C417.296 296.629 416.402 295.649 416.509 294.441C416.615 293.232 417.678 292.252 418.885 292.252C420.092 292.252 420.985 293.232 420.879 294.441C420.774 295.649 419.709 296.629 418.502 296.629Z" fill="white"/>
<path d="M440.865 295.554H424.562C423.947 295.554 423.494 295.055 423.547 294.44C423.601 293.825 424.142 293.327 424.756 293.327H441.059C441.673 293.327 442.127 293.826 442.074 294.44C442.02 295.055 441.478 295.554 440.865 295.554Z" fill="white"/>
<path d="M436.383 299.932H424.179C423.566 299.932 423.111 299.434 423.164 298.819C423.218 298.205 423.759 297.706 424.374 297.706H436.578C437.191 297.706 437.646 298.205 437.593 298.819C437.539 299.434 436.998 299.932 436.383 299.932Z" fill="white"/>
<path d="M337.696 332.322H213.123C209.018 332.322 205.982 328.989 206.341 324.877L213.265 245.601C213.624 241.489 217.242 238.156 221.347 238.156H345.92C350.024 238.156 353.06 241.489 352.701 245.601L345.777 324.877C345.418 328.989 341.8 332.322 337.696 332.322Z" fill="#2FB7B8"/>
<path opacity="0.7" d="M337.696 332.322H213.123C209.018 332.322 205.982 328.989 206.341 324.877L213.265 245.601C213.624 241.489 217.242 238.156 221.347 238.156H345.92C350.024 238.156 353.06 241.489 352.701 245.601L345.777 324.877C345.418 328.989 341.8 332.322 337.696 332.322Z" fill="white"/>
<path d="M218.331 308.62H215.168L219.399 260.174H222.563L218.331 308.62Z" fill="#2FB7B8"/>
<path d="M222.811 308.62H219.648L222.76 272.987H225.923L222.811 308.62Z" fill="#263238"/>
<path d="M229.928 308.62H226.766L228.799 285.333H231.962L229.928 308.62Z" fill="#2FB7B8"/>
<path d="M234.408 308.62H231.246L233.671 280.843H236.835L234.408 308.62Z" fill="#263238"/>
<path d="M241.524 308.62H238.361L241.977 267.224H245.139L241.524 308.62Z" fill="#2FB7B8"/>
<path d="M246.005 308.62H242.842L245.954 272.987H249.117L246.005 308.62Z" fill="#263238"/>
<path d="M253.121 308.62H249.959L253.071 272.987H256.233L253.121 308.62Z" fill="#2FB7B8"/>
<path d="M257.603 308.62H254.439L258.336 264.008H261.498L257.603 308.62Z" fill="#263238"/>
<path d="M264.718 308.62H261.555L263.671 284.397H266.833L264.718 308.62Z" fill="#2FB7B8"/>
<path d="M269.197 308.62H266.035L269.147 272.987H272.311L269.197 308.62Z" fill="#263238"/>
<path d="M276.316 308.62H273.152L276.768 267.224H279.93L276.316 308.62Z" fill="#2FB7B8"/>
<path d="M280.795 308.62H277.633L282.019 258.396H285.181L280.795 308.62Z" fill="#263238"/>
<path d="M287.912 308.62H284.75L285.901 295.432H289.064L287.912 308.62Z" fill="#2FB7B8"/>
<path d="M292.392 308.62H289.229L291.361 284.21H294.523L292.392 308.62Z" fill="#263238"/>
<path d="M299.508 308.62H296.346L298.379 285.333H301.541L299.508 308.62Z" fill="#2FB7B8"/>
<path d="M303.99 308.62H300.826L304.821 262.886H307.983L303.99 308.62Z" fill="#263238"/>
<path d="M311.105 308.62H307.941L310.564 278.598H313.726L311.105 308.62Z" fill="#2FB7B8"/>
<path d="M315.586 308.62H312.424L317.496 250.54H320.659L315.586 308.62Z" fill="#263238"/>
<path d="M322.702 308.62H319.539L322.945 269.619H326.108L322.702 308.62Z" fill="#2FB7B8"/>
<path d="M327.182 308.62H324.02L327.132 272.987H330.294L327.182 308.62Z" fill="#263238"/>
<path d="M334.299 308.62H331.137L335.425 259.519H338.587L334.299 308.62Z" fill="#2FB7B8"/>
<path d="M338.779 308.62H335.617L338.14 279.72H341.304L338.779 308.62Z" fill="#263238"/>
<path d="M217.122 321.845C215.405 321.845 214.135 320.451 214.286 318.73C214.436 317.01 215.949 315.615 217.667 315.615C219.384 315.615 220.654 317.01 220.504 318.73C220.353 320.452 218.84 321.845 217.122 321.845Z" fill="#263238"/>
<path d="M248.937 320.315H225.743C224.869 320.315 224.223 319.606 224.299 318.731C224.376 317.857 225.146 317.148 226.019 317.148H249.212C250.085 317.148 250.731 317.857 250.655 318.731C250.581 319.606 249.81 320.315 248.937 320.315Z" fill="#263238"/>
<path d="M242.564 326.544H225.2C224.326 326.544 223.68 325.835 223.756 324.961C223.833 324.086 224.603 323.377 225.476 323.377H242.839C243.712 323.377 244.358 324.086 244.282 324.961C244.207 325.835 243.437 326.544 242.564 326.544Z" fill="#263238"/>
<path opacity="0.3" d="M248.937 320.315H225.743C224.869 320.315 224.223 319.606 224.299 318.731C224.376 317.857 225.146 317.148 226.019 317.148H249.212C250.085 317.148 250.731 317.857 250.655 318.731C250.581 319.606 249.81 320.315 248.937 320.315Z" fill="white"/>
<path opacity="0.3" d="M242.564 326.544H225.2C224.326 326.544 223.68 325.835 223.756 324.961C223.833 324.086 224.603 323.377 225.476 323.377H242.839C243.712 323.377 244.358 324.086 244.282 324.961C244.207 325.835 243.437 326.544 242.564 326.544Z" fill="white"/>
<path d="M262.982 321.845C261.264 321.845 259.994 320.451 260.145 318.73C260.295 317.01 261.809 315.615 263.526 315.615C265.244 315.615 266.514 317.01 266.363 318.73C266.213 320.452 264.699 321.845 262.982 321.845Z" fill="#2FB7B8"/>
<path opacity="0.3" d="M262.982 321.845C261.264 321.845 259.994 320.451 260.145 318.73C260.295 317.01 261.809 315.615 263.526 315.615C265.244 315.615 266.514 317.01 266.363 318.73C266.213 320.452 264.699 321.845 262.982 321.845Z" fill="black"/>
<path d="M294.797 320.315H271.604C270.731 320.315 270.085 319.606 270.16 318.731C270.237 317.857 271.007 317.148 271.88 317.148H295.074C295.948 317.148 296.594 317.857 296.518 318.731C296.441 319.606 295.67 320.315 294.797 320.315Z" fill="#263238"/>
<path d="M288.423 326.544H271.059C270.186 326.544 269.54 325.835 269.615 324.961C269.692 324.086 270.462 323.377 271.335 323.377H288.699C289.573 323.377 290.219 324.086 290.143 324.961C290.066 325.835 289.296 326.544 288.423 326.544Z" fill="#263238"/>
<path opacity="0.3" d="M294.797 320.315H271.604C270.731 320.315 270.085 319.606 270.16 318.731C270.237 317.857 271.007 317.148 271.88 317.148H295.074C295.948 317.148 296.594 317.857 296.518 318.731C296.441 319.606 295.67 320.315 294.797 320.315Z" fill="white"/>
<path opacity="0.3" d="M288.423 326.544H271.059C270.186 326.544 269.54 325.835 269.615 324.961C269.692 324.086 270.462 323.377 271.335 323.377H288.699C289.573 323.377 290.219 324.086 290.143 324.961C290.066 325.835 289.296 326.544 288.423 326.544Z" fill="white"/>
<path d="M308.843 321.845C307.126 321.845 305.856 320.451 306.006 318.73C306.157 317.01 307.67 315.615 309.388 315.615C311.105 315.615 312.375 317.01 312.225 318.73C312.074 320.452 310.561 321.845 308.843 321.845Z" fill="#2FB7B8"/>
<path d="M340.657 320.315H317.463C316.59 320.315 315.944 319.606 316.02 318.731C316.097 317.857 316.866 317.148 317.74 317.148H340.934C341.807 317.148 342.453 317.857 342.376 318.731C342.301 319.606 341.531 320.315 340.657 320.315Z" fill="#263238"/>
<path d="M334.284 326.544H316.92C316.047 326.544 315.401 325.835 315.477 324.961C315.554 324.086 316.323 323.377 317.197 323.377H334.561C335.434 323.377 336.08 324.086 336.003 324.961C335.927 325.835 335.158 326.544 334.284 326.544Z" fill="#263238"/>
<path opacity="0.3" d="M340.657 320.315H317.463C316.59 320.315 315.944 319.606 316.02 318.731C316.097 317.857 316.866 317.148 317.74 317.148H340.934C341.807 317.148 342.453 317.857 342.376 318.731C342.301 319.606 341.531 320.315 340.657 320.315Z" fill="white"/>
<path opacity="0.3" d="M334.284 326.544H316.92C316.047 326.544 315.401 325.835 315.477 324.961C315.554 324.086 316.323 323.377 317.197 323.377H334.561C335.434 323.377 336.08 324.086 336.003 324.961C335.927 325.835 335.158 326.544 334.284 326.544Z" fill="white"/>
<path d="M464.022 230.704H391.594C387.489 230.704 384.453 227.37 384.812 223.259L388.661 179.197C389.02 175.086 392.638 171.752 396.743 171.752H469.171C473.275 171.752 476.312 175.086 475.952 179.197L472.103 223.259C471.744 227.37 468.126 230.704 464.022 230.704Z" fill="#FFA629"/>
<path d="M422.901 198.39C422.253 205.808 415.724 211.822 408.319 211.822C400.914 211.822 395.436 205.808 396.083 198.39C396.731 190.972 403.26 184.958 410.665 184.958C418.072 184.958 423.549 190.972 422.901 198.39Z" fill="#FFA629"/>
<path opacity="0.7" d="M422.901 198.39C422.253 205.808 415.724 211.822 408.319 211.822C400.914 211.822 395.436 205.808 396.083 198.39C396.731 190.972 403.26 184.958 410.665 184.958C418.072 184.958 423.549 190.972 422.901 198.39Z" fill="white"/>
<path d="M413.55 196.014C413.294 198.956 412.171 201.342 409.234 201.342C406.296 201.342 405.591 198.956 405.847 196.014C406.104 193.072 407.227 190.687 410.164 190.687C413.102 190.686 413.808 193.071 413.55 196.014Z" fill="#263238"/>
<path d="M409.091 202.992C402.939 202.992 399.604 204.363 398.031 206.375C400.186 209.674 403.904 211.822 408.32 211.822C412.736 211.822 416.828 209.674 419.56 206.375C418.337 204.363 415.243 202.992 409.091 202.992Z" fill="#263238"/>
<path d="M454.491 183.401H432.725C431.706 183.401 430.952 182.573 431.04 181.552C431.129 180.531 432.028 179.703 433.048 179.703H454.814C455.833 179.703 456.587 180.531 456.499 181.552C456.409 182.573 455.51 183.401 454.491 183.401Z" fill="white"/>
<path d="M460.297 197.028H431.536C430.517 197.028 429.762 196.2 429.851 195.179C429.941 194.158 430.838 193.33 431.859 193.33H460.62C461.639 193.33 462.394 194.158 462.305 195.179C462.215 196.2 461.316 197.028 460.297 197.028Z" fill="white"/>
<path d="M465.532 203.841H430.94C429.92 203.841 429.167 203.013 429.255 201.992C429.344 200.971 430.243 200.143 431.263 200.143H465.855C466.875 200.143 467.628 200.971 467.54 201.992C467.45 203.013 466.551 203.841 465.532 203.841Z" fill="white"/>
<path d="M462.604 210.654H430.344C429.325 210.654 428.571 209.826 428.659 208.805C428.749 207.784 429.647 206.956 430.667 206.956H462.927C463.946 206.956 464.7 207.784 464.612 208.805C464.523 209.827 463.624 210.654 462.604 210.654Z" fill="white"/>
<path d="M458.512 217.468H429.751C428.73 217.468 427.977 216.64 428.066 215.619C428.155 214.598 429.053 213.77 430.074 213.77H458.835C459.854 213.77 460.609 214.598 460.52 215.619C460.43 216.64 459.531 217.468 458.512 217.468Z" fill="white"/>
<path d="M461.415 224.281H429.155C428.136 224.281 427.381 223.453 427.47 222.432C427.559 221.411 428.458 220.583 429.478 220.583H461.738C462.757 220.583 463.511 221.411 463.422 222.432C463.333 223.453 462.434 224.281 461.415 224.281Z" fill="white"/>
<path d="M369.844 230.704H245.269C241.165 230.704 238.129 227.37 238.488 223.259L245.412 143.982C245.771 139.871 249.389 136.537 253.493 136.537H378.066C382.17 136.537 385.207 139.871 384.848 143.982L377.924 223.259C377.566 227.37 373.948 230.704 369.844 230.704Z" fill="#3F7FCA"/>
<path opacity="0.7" d="M369.844 230.704H245.269C241.165 230.704 238.129 227.37 238.488 223.259L245.412 143.982C245.771 139.871 249.389 136.537 253.493 136.537H378.066C382.17 136.537 385.207 139.871 384.848 143.982L377.924 223.259C377.566 227.37 373.948 230.704 369.844 230.704Z" fill="white"/>
<path d="M382.235 173.923C379.815 165.201 376.008 156.465 370.457 156.465C359.979 156.465 354.864 172.906 349.449 190.313C344.692 205.609 339.771 221.425 332.094 221.425C322.356 221.425 319.689 201.861 317.109 182.941C314.218 161.742 311.486 141.719 298.948 141.719C286.409 141.719 280.18 161.742 273.587 182.941C267.702 201.861 261.616 221.425 251.879 221.425C247.325 221.425 243.09 207.955 240.872 195.964L239.85 207.667C242.271 216.323 246.063 224.929 251.573 224.929C264.111 224.929 270.339 204.906 276.933 183.707C282.818 164.787 288.903 145.223 298.642 145.223C308.379 145.223 311.048 164.787 313.627 183.707C316.518 204.906 319.25 224.929 331.788 224.929C342.266 224.929 347.38 208.487 352.795 191.079C357.553 175.783 362.472 159.967 370.15 159.967C374.738 159.967 379.002 173.64 381.206 185.696L382.235 173.923Z" fill="#2FB7B8"/>
<path d="M304.463 142.885C304.219 145.673 301.766 147.935 298.982 147.935C296.198 147.935 294.139 145.675 294.383 142.885C294.627 140.097 297.08 137.836 299.864 137.836C302.649 137.836 304.707 140.097 304.463 142.885Z" fill="#263238"/>
<path d="M301.083 144.614C302.127 143.613 302.23 142.025 301.315 141.067C300.399 140.109 298.811 140.144 297.767 141.145C296.723 142.146 296.619 143.734 297.535 144.692C298.451 145.65 300.039 145.615 301.083 144.614Z" fill="#2FB7B8"/>
<path d="M310.023 121.518H292.555C290.697 121.518 289.06 123.026 288.897 124.887L288.618 128.076C288.456 129.937 289.83 131.445 291.687 131.445H297.463L299.201 134.073C299.639 134.735 300.631 134.735 301.183 134.073L303.381 131.445H309.155C311.013 131.445 312.65 129.937 312.813 128.076L313.092 124.887C313.254 123.026 311.879 121.518 310.023 121.518Z" fill="#2FB7B8"/>
<path d="M308.657 125.752H292.77C292.287 125.752 291.929 125.36 291.972 124.876C292.014 124.392 292.44 124 292.924 124H308.81C309.293 124 309.651 124.392 309.608 124.876C309.565 125.36 309.139 125.752 308.657 125.752Z" fill="#263238"/>
<path d="M299.766 128.92H292.492C292.01 128.92 291.652 128.527 291.695 128.044C291.737 127.56 292.162 127.168 292.646 127.168H299.92C300.403 127.168 300.761 127.56 300.717 128.044C300.675 128.527 300.25 128.92 299.766 128.92Z" fill="#263238"/>
<path d="M336.381 220.951C336.137 223.739 333.684 226 330.9 226C328.115 226 326.057 223.74 326.301 220.951C326.545 218.163 328.998 215.902 331.782 215.902C334.567 215.902 336.625 218.163 336.381 220.951Z" fill="#263238"/>
<path d="M333.847 220.951C333.726 222.336 332.506 223.46 331.123 223.46C329.74 223.46 328.717 222.336 328.838 220.951C328.959 219.565 330.179 218.442 331.562 218.442C332.945 218.442 333.968 219.565 333.847 220.951Z" fill="#2FB7B8"/>
<path d="M341.942 199.583H324.473C322.615 199.583 320.978 201.09 320.815 202.951L320.536 206.141C320.374 208.001 321.748 209.509 323.605 209.509H329.381L331.119 212.137C331.557 212.8 332.549 212.8 333.101 212.137L335.299 209.509H341.073C342.931 209.509 344.568 208.001 344.731 206.141L345.01 202.951C345.174 201.092 343.799 199.583 341.942 199.583Z" fill="#263238"/>
<path d="M340.576 203.816H324.69C324.207 203.816 323.849 203.424 323.892 202.94C323.934 202.457 324.36 202.064 324.844 202.064H340.73C341.213 202.064 341.571 202.457 341.528 202.94C341.485 203.424 341.059 203.816 340.576 203.816Z" fill="white"/>
<path d="M331.686 206.985H324.412C323.93 206.985 323.572 206.593 323.615 206.109C323.657 205.626 324.082 205.233 324.566 205.233H331.84C332.323 205.233 332.681 205.626 332.637 206.109C332.594 206.593 332.169 206.985 331.686 206.985Z" fill="white"/>
<path d="M375.41 157.906C375.167 160.694 372.713 162.955 369.929 162.955C367.144 162.955 365.086 160.695 365.33 157.906C365.574 155.118 368.027 152.857 370.811 152.857C373.595 152.858 375.654 155.118 375.41 157.906Z" fill="#263238"/>
<path d="M372.874 157.906C372.753 159.291 371.533 160.415 370.151 160.415C368.767 160.415 367.744 159.291 367.865 157.906C367.986 156.521 369.206 155.397 370.589 155.397C371.972 155.397 372.994 156.521 372.874 157.906Z" fill="#2FB7B8"/>
<path d="M380.97 136.539H363.502C361.645 136.539 360.008 138.046 359.844 139.907L359.566 143.097C359.404 144.958 360.777 146.465 362.635 146.465H368.41L370.148 149.093C370.586 149.756 371.578 149.756 372.131 149.093L374.328 146.465H380.102C381.96 146.465 383.597 144.958 383.76 143.097L384.039 139.907C384.201 138.046 382.827 136.539 380.97 136.539Z" fill="#2FB7B8"/>
<path d="M379.604 140.773H363.717C363.234 140.773 362.876 140.38 362.92 139.897C362.962 139.413 363.387 139.021 363.871 139.021H379.758C380.24 139.021 380.598 139.413 380.555 139.897C380.513 140.38 380.087 140.773 379.604 140.773Z" fill="#263238"/>
<path d="M370.715 143.94H363.442C362.959 143.94 362.601 143.548 362.644 143.064C362.686 142.581 363.112 142.188 363.596 142.188H370.869C371.352 142.188 371.71 142.581 371.667 143.064C371.624 143.548 371.198 143.94 370.715 143.94Z" fill="#263238"/>
<path d="M258.21 221.528C257.966 224.316 255.513 226.577 252.729 226.577C249.944 226.577 247.886 224.317 248.129 221.528C248.372 218.74 250.827 216.479 253.61 216.479C256.393 216.479 258.454 218.74 258.21 221.528Z" fill="#263238"/>
<path d="M255.675 221.528C255.554 222.913 254.334 224.037 252.951 224.037C251.567 224.037 250.545 222.913 250.666 221.528C250.787 220.143 252.007 219.019 253.39 219.019C254.773 219.019 255.796 220.143 255.675 221.528Z" fill="#2FB7B8"/>
<path d="M263.771 200.159H246.303C244.445 200.159 242.808 201.667 242.645 203.528L242.367 206.718C242.204 208.578 243.578 210.086 245.435 210.086H251.211L252.949 212.714C253.388 213.377 254.379 213.377 254.931 212.714L257.129 210.086H262.903C264.761 210.086 266.398 208.578 266.561 206.718L266.84 203.528C267.002 201.668 265.628 200.159 263.771 200.159Z" fill="#263238"/>
<path d="M262.405 204.393H246.518C246.035 204.393 245.677 204.001 245.72 203.517C245.762 203.034 246.188 202.641 246.672 202.641H262.559C263.041 202.641 263.399 203.034 263.356 203.517C263.314 204.002 262.888 204.393 262.405 204.393Z" fill="white"/>
<path d="M253.516 207.562H246.242C245.76 207.562 245.402 207.17 245.445 206.686C245.487 206.203 245.912 205.81 246.396 205.81H253.67C254.153 205.81 254.511 206.203 254.467 206.686C254.424 207.17 253.999 207.562 253.516 207.562Z" fill="white"/>
<path d="M173.321 201.665L169.958 207.535L166.663 213.531C164.493 217.536 162.42 221.574 160.528 225.631C159.586 227.666 158.689 229.691 157.872 231.727L157.72 232.095C157.707 232.124 157.691 232.153 157.671 232.183C157.618 232.242 157.6 232.294 157.572 232.344C157.508 232.447 157.468 232.546 157.413 232.679C157.326 232.942 157.36 233.391 157.553 233.988C157.924 235.201 159.019 236.781 160.362 238.253C161.678 239.734 163.382 241.247 164.914 242.575L162.182 248.407C160.794 248.01 159.638 247.61 158.414 247.073C157.202 246.562 156.028 245.943 154.854 245.244C152.537 243.811 150.21 242.039 148.282 239.139C147.345 237.687 146.543 235.891 146.227 233.811C146.083 232.775 146.032 231.692 146.165 230.636C146.223 230.106 146.301 229.578 146.432 229.079L146.622 228.32L146.767 227.859C147.516 225.471 148.293 223.107 149.202 220.828C150.975 216.244 152.971 211.814 155.15 207.502C156.238 205.344 157.365 203.213 158.555 201.114C159.75 198.997 160.914 196.955 162.281 194.822L173.321 201.665Z" fill="#FFC3BD"/>
<path d="M161.987 241.917L168.114 240.321L168.465 250.229C168.465 250.229 163.673 250.943 160.738 248.005L161.987 241.917Z" fill="#FFC3BD"/>
<path d="M176.796 238.651L175.414 247.349L168.466 250.229L168.115 240.321L176.796 238.651Z" fill="#FFC3BD"/>
<path d="M202.138 154.972C202.275 155.65 202.745 156.127 203.188 156.037C203.631 155.947 203.878 155.325 203.741 154.646C203.603 153.967 203.133 153.491 202.69 153.581C202.248 153.671 202 154.294 202.138 154.972Z" fill="#263238"/>
<path d="M202.686 156.14C202.686 156.14 205.019 159.738 207.097 161.281C206.126 162.646 203.986 162.549 203.986 162.549L202.686 156.14Z" fill="#ED847E"/>
<path d="M198.896 151.711C198.797 151.711 198.698 151.675 198.621 151.603C198.456 151.452 198.446 151.193 198.598 151.029C200.122 149.377 201.97 149.67 202.05 149.684C202.271 149.722 202.419 149.932 202.382 150.153C202.344 150.374 202.133 150.522 201.916 150.486C201.855 150.476 200.409 150.264 199.193 151.581C199.114 151.667 199.005 151.711 198.896 151.711Z" fill="#263238"/>
<path d="M182.852 164.512C184.081 170.789 185.306 182.291 180.922 186.48C180.922 186.48 182.635 192.848 194.28 192.848C207.083 192.848 200.399 186.481 200.399 186.481C193.411 184.809 193.592 179.615 194.808 174.739L182.852 164.512Z" fill="#FFC3BD"/>
<path d="M178.397 187.643C177.46 185.899 176.429 183.903 178.562 183.278C180.908 182.59 195.977 181.315 200.405 182.605C199.044 185.029 201.347 188.007 201.347 188.007L178.397 187.643Z" fill="#263238"/>
<path d="M140.462 480.288C141.321 480.475 142.18 480.523 142.594 480.171C142.768 480.023 142.943 479.739 142.79 479.227C142.711 478.959 142.535 478.757 142.268 478.629C141.111 478.076 138.453 479.161 138.34 479.208C138.266 479.238 138.217 479.309 138.215 479.39C138.213 479.47 138.257 479.544 138.329 479.579C138.737 479.775 139.599 480.101 140.462 480.288ZM141.856 478.917C141.944 478.935 142.024 478.962 142.094 478.996C142.255 479.073 142.357 479.187 142.403 479.343C142.512 479.709 142.376 479.824 142.332 479.862C141.872 480.254 140.161 479.892 138.957 479.41C139.773 479.121 141.095 478.752 141.856 478.917Z" fill="#2FB7B8"/>
<path d="M138.376 479.594C138.408 479.601 138.442 479.6 138.476 479.591C139.444 479.307 141.516 477.833 141.541 476.86C141.546 476.684 141.484 476.364 141.022 476.202C140.723 476.097 140.421 476.123 140.123 476.275C138.978 476.86 138.256 479.237 138.225 479.337C138.204 479.408 138.223 479.487 138.275 479.539C138.303 479.567 138.338 479.586 138.376 479.594ZM140.8 476.561C140.829 476.567 140.859 476.576 140.888 476.587C141.139 476.674 141.136 476.797 141.134 476.849C141.12 477.424 139.753 478.582 138.75 479.05C139.001 478.364 139.573 477.012 140.307 476.637C140.474 476.55 140.637 476.525 140.8 476.561Z" fill="#2FB7B8"/>
<path d="M203.705 481.728C204.804 481.728 205.867 481.576 206.222 481.082C206.347 480.909 206.445 480.614 206.205 480.194C206.071 479.959 205.854 479.798 205.562 479.719C204.136 479.331 201.143 481.04 201.016 481.112C200.943 481.155 200.903 481.237 200.917 481.322C200.931 481.406 200.995 481.471 201.078 481.489C201.623 481.596 202.681 481.728 203.705 481.728ZM205.063 480.064C205.207 480.064 205.338 480.078 205.455 480.11C205.643 480.162 205.772 480.254 205.853 480.394C205.996 480.646 205.943 480.771 205.892 480.844C205.493 481.399 203.328 481.411 201.737 481.186C202.531 480.777 204.063 480.064 205.063 480.064Z" fill="#2FB7B8"/>
<path d="M201.118 481.491C201.146 481.491 201.174 481.485 201.201 481.473C202.235 481.009 204.282 479.153 204.126 478.183C204.089 477.955 203.928 477.672 203.371 477.615C202.954 477.573 202.578 477.691 202.245 477.964C201.156 478.861 200.926 481.171 200.915 481.269C200.908 481.34 200.94 481.411 200.999 481.454C201.035 481.478 201.076 481.491 201.118 481.491ZM203.207 478.013C203.247 478.013 203.288 478.015 203.329 478.018C203.694 478.056 203.717 478.199 203.724 478.247C203.818 478.83 202.426 480.288 201.371 480.923C201.481 480.248 201.786 478.865 202.502 478.278C202.719 478.099 202.951 478.013 203.207 478.013Z" fill="#2FB7B8"/>
<path d="M191.699 481.288H200.265L201.118 461.417H192.552L191.699 481.288Z" fill="#FFC3BD"/>
<path d="M128.828 477.315L137.2 479.13L145.606 460.622L137.234 458.807L128.828 477.315Z" fill="#FFC3BD"/>
<path d="M138.004 478.288L128.6 476.249C128.257 476.174 127.909 476.348 127.764 476.667L124.499 483.763C124.161 484.498 124.608 485.362 125.402 485.519C128.699 486.175 130.335 486.328 134.472 487.225C137.016 487.777 142.761 489.179 146.275 489.94C149.712 490.685 151.001 487.322 149.63 486.694C143.485 483.882 140.917 481.406 139.254 479.099C138.952 478.683 138.505 478.397 138.004 478.288Z" fill="#263238"/>
<path d="M200.208 480.294H190.853C190.503 480.294 190.2 480.538 190.123 480.88L188.431 488.507C188.256 489.298 188.855 490.048 189.663 490.034C193.038 489.976 197.914 489.778 202.155 489.778C207.114 489.778 211.396 490.049 217.212 490.049C220.729 490.049 221.705 486.488 220.232 486.165C213.531 484.697 208.06 484.539 202.269 480.963C201.642 480.574 200.947 480.294 200.208 480.294Z" fill="#263238"/>
<path d="M165.585 188.419C157.557 190.262 150.938 210.793 150.938 210.793L167.06 223.102C167.06 223.102 172.977 217.513 175.61 207.244C178.369 196.484 173.793 186.533 165.585 188.419Z" fill="#2FB7B8"/>
<path opacity="0.2" d="M172.465 203.517C168.104 207.839 166.682 215.711 166.344 222.556L167.055 223.105C167.055 223.105 172.978 217.51 175.613 207.243C175.777 206.601 175.917 205.958 176.033 205.328L172.465 203.517Z" fill="black"/>
<path d="M213.574 188.861C213.574 188.861 220.149 195.312 217.666 229.588C217.01 238.656 213.55 249.67 211.749 263.026C197.945 263.026 178.481 263.026 171.763 263.026C171.447 255.981 172.369 221.613 165.586 188.419C165.586 188.419 173.439 186.84 180.923 186.479C186.778 186.196 195.254 186.009 200.399 186.48C207.184 187.1 213.574 188.861 213.574 188.861Z" fill="#263238"/>
<path opacity="0.6" d="M218.206 217.565C217.453 212.585 216.652 208.237 215.838 204.486L215.587 204.332L203.035 209.602C203.64 217.406 211.893 225.301 217.631 229.903C217.639 229.8 217.657 229.69 217.664 229.588C217.989 225.121 218.156 221.136 218.206 217.565Z" fill="black"/>
<path opacity="0.2" d="M201.115 461.422L200.676 471.665H192.107L192.546 461.422H201.115Z" fill="black"/>
<path opacity="0.2" d="M137.229 458.812L145.604 460.628L141.268 470.167L132.893 468.351L137.229 458.812Z" fill="black"/>
<path d="M179.264 158.132C181.464 166.357 182.335 171.284 187.403 174.704C195.025 179.849 204.515 173.945 204.812 165.226C205.079 157.378 201.435 145.245 192.624 143.587C183.942 141.956 177.062 149.907 179.264 158.132Z" fill="#FFC3BD"/>
<path d="M197.829 263.026C197.829 263.026 188.108 328.6 182.771 353.166C176.927 380.069 145.59 469.074 145.59 469.074L130.256 465.749C130.256 465.749 152.168 393.215 157.074 355.605C159.259 338.849 159.569 310.386 162.381 289.433C164.418 274.261 171.763 263.026 171.763 263.026H197.829Z" fill="#2FB7B8"/>
<path d="M149.26 463.948C149.326 463.962 146.403 469.503 146.403 469.503L129.15 465.761L130.604 460.566L149.26 463.948Z" fill="#2FB7B8"/>
<path opacity="0.6" d="M191.685 286.39C180.445 288.598 181.634 330.588 182.987 352.184C186.228 336.918 190.974 307.543 194.216 286.694C193.469 286.32 192.63 286.204 191.685 286.39Z" fill="black"/>
<path d="M211.748 263.026C211.748 263.026 215.26 327.181 214.329 353.347C213.36 380.564 203.87 469.681 203.87 469.681H189.359C189.359 469.681 188.826 382.155 188.181 355.425C187.477 326.285 183.965 263.027 183.965 263.027H211.748V263.026Z" fill="#2FB7B8"/>
<path d="M206.661 463.892C206.728 463.892 205.843 469.927 205.843 469.927H188.192L187.715 464.541L206.661 463.892Z" fill="#2FB7B8"/>
<path d="M217.799 196.688C219.114 198.743 220.616 201.05 222.116 203.182C223.644 205.334 225.171 207.483 226.78 209.549C229.966 213.686 233.345 217.661 236.985 220.959C237.886 221.794 238.808 222.568 239.74 223.281L240.439 223.809C240.376 223.772 240.154 223.697 240.029 223.669C239.725 223.611 239.577 223.663 239.658 223.705C239.835 223.796 240.687 223.649 241.577 223.263C242.481 222.878 243.508 222.357 244.526 221.729C248.626 219.183 252.862 215.626 256.843 212.169L261.846 216.217C258.742 221.226 255.326 225.757 250.633 229.921C249.44 230.948 248.163 231.968 246.624 232.875C245.078 233.768 243.321 234.683 240.741 235.063C239.453 235.231 237.894 235.198 236.283 234.684C235.496 234.452 234.667 234.035 234.017 233.636L233.006 232.994C231.671 232.129 230.401 231.217 229.196 230.265C224.374 226.438 220.349 222.124 216.637 217.636C214.81 215.372 213.037 213.081 211.397 210.703C209.735 208.299 208.174 206.001 206.629 203.324L217.799 196.688Z" fill="#FFC3BD"/>
<path d="M200.972 201.84C198.232 213.344 219.011 224.609 219.011 224.609L232.507 208.769C232.507 208.769 226.362 199.441 218.718 192.092C209.277 183.014 203.058 193.083 200.972 201.84Z" fill="#2FB7B8"/>
<path d="M255.484 214.561L258.67 204.314L267.053 208.499C267.053 208.499 265.831 215.975 259.73 217.272L255.484 214.561Z" fill="#FFC3BD"/>
<path d="M262.031 201.473L269.593 203.558L267.052 208.499L258.67 204.315L262.031 201.473Z" fill="#FFC3BD"/>
<path d="M187.91 170.262C187.91 170.262 194.927 169.094 196.763 161.307C196.763 161.307 194.93 156.385 198.49 153.034C202.049 149.683 200.271 146.003 196.763 145.334C193.254 144.664 187.91 148.878 187.91 148.878L183.635 156.539L185.376 164.27L187.91 170.262Z" fill="#263238"/>
<path opacity="0.3" d="M187.91 170.262C187.91 170.262 194.927 169.094 196.763 161.307C196.763 161.307 194.93 156.385 198.49 153.034C202.049 149.683 200.271 146.003 196.763 145.334C193.254 144.664 187.91 148.878 187.91 148.878L183.635 156.539L185.376 164.27L187.91 170.262Z" fill="white"/>
<path d="M193.235 158.477C193.794 160.637 195.21 162.493 196.692 163.598C198.922 165.258 200.587 163.623 200.428 161.097C200.286 158.823 198.954 155.217 196.495 154.543C194.071 153.879 192.596 156.008 193.235 158.477Z" fill="#FFC3BD"/>
<path d="M189.112 167.968C187.023 162.982 183.176 150.071 196.763 145.334C196.763 145.334 195.78 132.886 202.388 137.948C202.388 137.948 196.073 129.869 195.198 138.143C195.198 138.143 193.644 135.32 195.976 133.471C195.976 133.471 183.538 129.286 183.83 138.727C183.83 138.727 182.567 135.467 184.704 132.864C184.704 132.864 181.999 132.693 180.923 136.975C179.847 141.258 169.352 140.377 170.275 150.113C170.275 150.113 160.996 161.857 183.345 171.901C183.345 171.901 180.403 173.718 182.082 176.623C182.082 176.623 182.86 173.44 186.066 171.901C186.066 171.901 184.609 175.228 187.718 176.201C187.718 176.201 186.595 173.318 188.645 171.079C189.403 170.246 189.547 169.009 189.112 167.968Z" fill="#263238"/>
<path opacity="0.1" d="M197.14 173.085C194.175 173.221 194.353 176.124 194.397 176.561C196.954 176.332 199.358 175.185 201.211 173.382C200.138 173.592 198.992 173.001 197.14 173.085Z" fill="black"/>
<path d="M195.635 144.08C195.635 144.08 197.161 138.447 200.042 139.56C202.922 140.673 200.881 145.248 202.387 147.389C202.387 147.389 200.224 146.634 199.8 143.969C199.375 141.306 196.762 145.334 196.762 145.334L195.635 144.08Z" fill="#263238"/>
<path d="M196.764 166.674L199.541 163.485L198.48 162.55H195.047L193.986 163.485L196.764 166.674Z" fill="#2FB7B8"/>
<path opacity="0.2" d="M196.382 162.55H195.045L193.984 163.485L196.763 166.674L195.321 163.485L196.382 162.55Z" fill="white"/>
</g>
<defs>
<clipPath id="clip0_860_4597">
<rect width="583" height="584" fill="white" transform="translate(0.238281 0.221191)"/>
</clipPath>
</defs>
</svg>
