<svg width="50" height="50" viewBox="0 0 50 50" fill="none" xmlns="http://www.w3.org/2000/svg">
<path d="M41.8896 0.951172C37.761 0.951172 34.4017 4.30967 34.4017 8.43904C34.4017 10.0914 34.9448 11.6169 35.8545 12.8557L25.8103 23.0185C24.2599 21.7916 22.3026 21.0564 20.176 21.0564C18.5767 21.0564 17.0785 21.4784 15.7726 22.2063L11.2014 13.0638C12.8897 11.85 13.9923 9.86908 13.9923 7.63483C13.9923 3.9494 10.9941 0.951172 7.30866 0.951172C3.62323 0.951172 0.625 3.9494 0.625 7.63483C0.625 11.3203 3.62323 14.3185 7.30866 14.3185C8.00906 14.3185 8.68151 14.2046 9.31411 14.0038L14.0398 23.4552C12.2261 25.1177 11.0797 27.5013 11.0797 30.1526C11.0797 32.2814 11.8168 34.2407 13.0458 35.7921L8.46132 40.3766C7.66657 39.8582 6.71939 39.5531 5.70024 39.5531C2.90105 39.5531 0.625 41.8292 0.625 44.6284C0.625 47.4276 2.90105 49.7036 5.70024 49.7036C8.49944 49.7036 10.7755 47.4276 10.7755 44.6284C10.7755 43.6092 10.4704 42.662 9.95202 41.8673L14.5365 37.2828C16.0879 38.5118 18.0473 39.2489 20.176 39.2489C23.4835 39.2489 26.3786 37.4715 27.97 34.8261L34.4072 38.0448C34.4043 38.091 34.4017 38.1418 34.4017 38.1947C34.4017 42.3241 37.761 45.6826 41.8896 45.6826C46.0181 45.6826 49.3774 42.3241 49.3774 38.1947C49.3774 34.0653 46.0181 30.7068 41.8896 30.7068C38.5711 30.7068 35.7569 32.8785 34.7772 35.8725L28.8381 32.9026C29.1155 32.0353 29.2723 31.1135 29.2723 30.1526C29.2723 28.0219 28.534 26.0606 27.3022 24.5088L37.3232 14.3693C38.5878 15.3445 40.1717 15.9269 41.8896 15.9269C46.0181 15.9269 49.3774 12.5684 49.3774 8.43904C49.3774 4.30967 46.0181 0.951172 41.8896 0.951172ZM2.73341 7.63483C2.73341 5.11178 4.78561 3.05959 7.30866 3.05959C9.83171 3.05959 11.8839 5.11178 11.8839 7.63483C11.8839 10.1579 9.83171 12.2101 7.30866 12.2101C4.78561 12.2101 2.73341 10.1579 2.73341 7.63483ZM41.8896 32.8153C44.8557 32.8153 47.269 35.2293 47.269 38.1947C47.269 41.1601 44.8557 43.5742 41.8896 43.5742C38.9234 43.5742 36.5101 41.1601 36.5101 38.1947C36.5101 35.2293 38.9234 32.8153 41.8896 32.8153ZM5.70024 47.5952C4.06423 47.5952 2.73341 46.2644 2.73341 44.6284C2.73341 42.9924 4.06423 41.6615 5.70024 41.6615C7.33625 41.6615 8.66707 42.9924 8.66707 44.6284C8.66707 46.2644 7.33625 47.5952 5.70024 47.5952ZM20.176 37.1405C16.3236 37.1405 13.1881 34.0058 13.1881 30.1526C13.1881 26.2994 16.3236 23.1648 20.176 23.1648C24.0284 23.1648 27.1638 26.2994 27.1638 30.1526C27.1638 34.0058 24.0284 37.1405 20.176 37.1405ZM41.8896 13.8185C38.9234 13.8185 36.5101 11.4044 36.5101 8.43904C36.5101 5.47365 38.9234 3.05959 41.8896 3.05959C44.8557 3.05959 47.269 5.47365 47.269 8.43904C47.269 11.4044 44.8557 13.8185 41.8896 13.8185Z" fill="#14AE5C" stroke="#14AE5C" stroke-width="0.5"/>
<path d="M31.6847 5.22221C31.6847 2.86694 29.7689 0.951172 27.4136 0.951172C25.0583 0.951172 23.1426 2.86694 23.1426 5.22221C23.1426 7.57748 25.0583 9.49325 27.4136 9.49325C29.7689 9.49325 31.6847 7.57748 31.6847 5.22221ZM25.251 5.22221C25.251 4.03012 26.2215 3.05959 27.4136 3.05959C28.6057 3.05959 29.5762 4.03012 29.5762 5.22221C29.5762 6.4143 28.6057 7.38483 27.4136 7.38483C26.2215 7.38483 25.251 6.4143 25.251 5.22221Z" fill="#14AE5C" stroke="#14AE5C" stroke-width="0.5"/>
<path d="M23.6436 14.8726C23.6436 12.5173 21.7279 10.6016 19.3726 10.6016C17.0173 10.6016 15.1016 12.5173 15.1016 14.8726C15.1016 17.2279 17.0173 19.1436 19.3726 19.1436C21.7279 19.1436 23.6436 17.2279 23.6436 14.8726ZM17.21 14.8726C17.21 13.6805 18.1805 12.71 19.3726 12.71C20.5647 12.71 21.5352 13.6805 21.5352 14.8726C21.5352 16.0647 20.5647 17.0352 19.3726 17.0352C18.1805 17.0352 17.21 16.0647 17.21 14.8726Z" fill="#14AE5C" stroke="#14AE5C" stroke-width="0.5"/>
<path d="M2.23438 32.1631C2.23438 34.2964 3.97 36.0321 6.10331 36.0321C8.23662 36.0321 9.97224 34.2964 9.97224 32.1631C9.97224 30.0298 8.23662 28.2942 6.10331 28.2942C3.97 28.2942 2.23438 30.0298 2.23438 32.1631ZM6.10331 30.4026C7.0735 30.4026 7.86383 31.1923 7.86383 32.1631C7.86383 33.134 7.0735 33.9236 6.10331 33.9236C5.13312 33.9236 4.34279 33.134 4.34279 32.1631C4.34279 31.1923 5.13312 30.4026 6.10331 30.4026Z" fill="#14AE5C" stroke="#14AE5C" stroke-width="0.5"/>
<path d="M3.28762 18.6437C1.81939 18.6437 0.625 19.8381 0.625 21.3063C0.625 22.7745 1.81939 23.9689 3.28762 23.9689C4.75585 23.9689 5.95024 22.7745 5.95024 21.3063C5.95024 19.8381 4.75585 18.6437 3.28762 18.6437ZM3.28762 21.8605C2.98241 21.8605 2.73341 21.612 2.73341 21.3063C2.73341 21.0006 2.98241 20.7521 3.28762 20.7521C3.59283 20.7521 3.84183 21.0006 3.84183 21.3063C3.84183 21.612 3.59283 21.8605 3.28762 21.8605Z" fill="#14AE5C" stroke="#14AE5C" stroke-width="0.5"/>
<path d="M31.9883 25.3274C31.9883 28.1266 34.2643 30.4027 37.0635 30.4027C39.8627 30.4027 42.1388 28.1266 42.1388 25.3274C42.1388 22.5282 39.8627 20.2522 37.0635 20.2522C34.2643 20.2522 31.9883 22.5282 31.9883 25.3274ZM40.0304 25.3274C40.0304 26.9635 38.6995 28.2943 37.0635 28.2943C35.4275 28.2943 34.0967 26.9635 34.0967 25.3274C34.0967 23.6914 35.4275 22.3606 37.0635 22.3606C38.6995 22.3606 40.0304 23.6914 40.0304 25.3274Z" fill="#14AE5C" stroke="#14AE5C" stroke-width="0.5"/>
<path d="M25.8057 39.5532C23.0065 39.5532 20.7305 41.8293 20.7305 44.6285C20.7305 47.4277 23.0065 49.7037 25.8057 49.7037C28.6049 49.7037 30.881 47.4277 30.881 44.6285C30.881 41.8293 28.6049 39.5532 25.8057 39.5532ZM25.8057 47.5953C24.1697 47.5953 22.8389 46.2645 22.8389 44.6285C22.8389 42.9925 24.1697 41.6616 25.8057 41.6616C27.4417 41.6616 28.7725 42.9925 28.7725 44.6285C28.7725 46.2645 27.4417 47.5953 25.8057 47.5953Z" fill="#14AE5C" stroke="#14AE5C" stroke-width="0.5"/>
<path d="M42.4434 19.698C42.4434 21.6102 43.998 23.1649 45.9102 23.1649C47.8223 23.1649 49.377 21.6102 49.377 19.698C49.377 17.7859 47.8223 16.2312 45.9102 16.2312C43.998 16.2312 42.4434 17.7859 42.4434 19.698ZM47.2686 19.698C47.2686 20.447 46.6592 21.0564 45.9102 21.0564C45.1612 21.0564 44.5518 20.447 44.5518 19.698C44.5518 18.9491 45.1612 18.3396 45.9102 18.3396C46.6592 18.3396 47.2686 18.9491 47.2686 19.698Z" fill="#14AE5C" stroke="#14AE5C" stroke-width="0.5"/>
</svg>
