<svg width="120" height="36" viewBox="0 0 120 36" fill="none" xmlns="http://www.w3.org/2000/svg">
<path d="M46.272 23.664C46.272 25.008 46.656 26.064 47.424 26.832C48.192 27.6 49.248 27.984 50.592 27.984C51.936 27.984 52.992 27.6 53.76 26.832C54.528 26.064 54.912 25.008 54.912 23.664V12.336H58.56V23.664C58.56 26.16 57.84 28.128 56.4 29.568C54.96 31.008 52.992 31.728 50.496 31.728C48 31.728 46.032 31.008 44.592 29.568C43.152 28.128 42.432 26.16 42.432 23.664V12.336H46.272V23.664Z" fill="#0078D4"/>
<path d="M62.88 31.44V12.336H71.712C73.536 12.336 74.976 12.816 76.032 13.776C77.088 14.736 77.616 16.032 77.616 17.664C77.616 18.72 77.376 19.68 76.896 20.544C76.416 21.408 75.744 22.08 74.88 22.56C75.936 22.944 76.752 23.568 77.328 24.432C77.904 25.296 78.192 26.304 78.192 27.456C78.192 29.184 77.616 30.528 76.464 31.488C75.312 32.448 73.728 32.928 71.712 32.928H62.88V31.44ZM66.528 21.456H71.04C72.096 21.456 72.912 21.216 73.488 20.736C74.064 20.256 74.352 19.584 74.352 18.72C74.352 17.856 74.064 17.184 73.488 16.704C72.912 16.224 72.096 15.984 71.04 15.984H66.528V21.456ZM66.528 24.864V29.28H71.424C72.576 29.28 73.488 29.04 74.16 28.56C74.832 28.08 75.168 27.36 75.168 26.4C75.168 25.44 74.832 24.72 74.16 24.24C73.488 23.76 72.576 23.52 71.424 23.52H66.528V24.864Z" fill="#0078D4"/>
<path d="M82.08 31.44V12.336H95.136V15.984H85.728V20.448H93.84V24.096H85.728V28.752H95.52V32.4H82.08V31.44Z" fill="#0078D4"/>
<path d="M24 6L12 30H18L21.6 21.6H30.24L33.84 30H39.84L27.84 6H24ZM23.28 17.28L25.92 11.04L28.56 17.28H23.28Z" fill="#0078D4"/>
<path d="M0 30L12 6H18L6 30H0Z" fill="#50E6FF"/>
<path d="M6 30H12L18 18L12 6H6L12 18L6 30Z" fill="#0078D4"/>
<path d="M12 30H18L24 18L18 6H12L18 18L12 30Z" fill="#0078D4" fill-opacity="0.8"/>
<path d="M103.2 31.728C101.376 31.728 99.84 31.296 98.592 30.432C97.344 29.568 96.384 28.416 95.712 26.976C95.04 25.536 94.704 23.952 94.704 22.224C94.704 20.496 95.04 18.912 95.712 17.472C96.384 16.032 97.344 14.88 98.592 14.016C99.84 13.152 101.376 12.72 103.2 12.72C105.024 12.72 106.56 13.152 107.808 14.016C109.056 14.88 110.016 16.032 110.688 17.472C111.36 18.912 111.696 20.496 111.696 22.224C111.696 23.952 111.36 25.536 110.688 26.976C110.016 28.416 109.056 29.568 107.808 30.432C106.56 31.296 105.024 31.728 103.2 31.728ZM103.2 28.08C104.352 28.08 105.312 27.744 106.08 27.072C106.848 26.4 107.424 25.536 107.808 24.48C108.192 23.424 108.384 22.32 108.384 21.168C108.384 20.016 108.192 18.912 107.808 17.856C107.424 16.8 106.848 15.936 106.08 15.264C105.312 14.592 104.352 14.256 103.2 14.256C102.048 14.256 101.088 14.592 100.32 15.264C99.552 15.936 98.976 16.8 98.592 17.856C98.208 18.912 98.016 20.016 98.016 21.168C98.016 22.32 98.208 23.424 98.592 24.48C98.976 25.536 99.552 26.4 100.32 27.072C101.088 27.744 102.048 28.08 103.2 28.08Z" fill="#0078D4"/>
<path d="M115.2 31.44V12.336H118.848V28.752H120V31.44H115.2Z" fill="#0078D4"/>
</svg>
