<svg xmlns="http://www.w3.org/2000/svg" width="32" height="32"><path d="M16 26.533c-1.733 1.867-3.733 3.733-6.267 4-.133 0-.267.133-.4.133-3.733.533-6.667-2.533-6.667-6.267 0-3.067 3.867-9.733 8.133-18.4.933-2.4 2-4.667 5.2-4.667s4.267 2.133 5.6 5.067c7.867 15.6 7.867 16.533 7.867 18.133 0 1.867-.8 3.6-2.133 4.8-2.667 2.133-6.8 2.133-11.333-2.8zM27.6 24.4c0-2.4-3.733-8.933-7.733-17.2-1.067-2.133-1.733-4-3.867-4-2 0-2.533 1.2-3.733 3.6C8.267 15.2 4.4 22 4.4 24.533c0 2.4 1.867 4.667 5.067 4.267 2.133-.267 3.867-2.133 5.2-3.6-13.6-17.467 16-17.467 2.4 0 5.6 6.267 10.533 3.2 10.533-.8zm-14.667-7.333C12.933 18.8 14 20.934 16 23.6c2-2.667 3.067-4.933 3.067-6.533 0-4.4-6.133-4.4-6.133 0z"/></svg>