<svg xmlns="http://www.w3.org/2000/svg" width="32" height="32"><path d="M5.333 6.933c-.533 0-1.067.533-1.067 1.067s.533 1.067 1.067 1.067h21.333c.533 0 1.067-.4 1.067-1.067s-.533-1.067-1.067-1.067H5.333zm0 10.667c-.533 0-1.067.4-1.067 1.067s.4 1.067 1.067 1.067h21.333c.533 0 1.067-.4 1.067-1.067s-.4-1.067-1.067-1.067H5.333zm-1.066-4.267c0-.533.4-1.067 1.067-1.067h21.333c.533 0 1.067.4 1.067 1.067 0 .533-.4 1.067-1.067 1.067H5.334c-.533 0-1.067-.533-1.067-1.067zm1.066 9.6c-.533 0-1.067.4-1.067 1.067s.4 1.067 1.067 1.067h21.333c.533 0 1.067-.4 1.067-1.067s-.4-1.067-1.067-1.067H5.333z"/></svg>