<svg xmlns="http://www.w3.org/2000/svg" width="32" height="32"><path d="M16 4.533c-1.467 0-2.8 1.2-2.8 2.8s1.2 2.8 2.8 2.8 2.8-1.2 2.8-2.8-1.333-2.8-2.8-2.8zm4.8 2.8c0 2.267-1.6 4.133-3.733 4.667v15.6c2.8-.267 5.2-1.333 7.2-3.333s3.067-4.533 3.333-7.2h-4.133c-.533 0-.933-.4-.933-.933s.4-.933.933-.933H28.4c.533 0 .933.4.933.933 0 3.6-1.333 6.933-3.867 9.467s-6 3.867-9.467 3.867c-3.6 0-6.933-1.333-9.467-3.867s-3.867-6-3.867-9.467c0-.267.133-.533.267-.667s.4-.267.667-.267h4.933c.533 0 .933.4.933.933s-.667.933-1.067.933h-4c.267 2.667 1.333 5.2 3.333 7.067 2 2 4.533 3.067 7.2 3.333v-15.6c-1.867-.4-3.6-2.4-3.6-4.533a4.78 4.78 0 0 1 4.8-4.8c2.533 0 4.667 2.133 4.667 4.8z"/></svg>