<svg xmlns="http://www.w3.org/2000/svg" width="32" height="32"><path d="M22.133 0h.267c.133 2.267-.667 4-1.733 5.2S18.267 7.6 16 7.467c-.133-2.267.667-3.733 1.733-5.067.933-1.2 2.667-2.133 4.4-2.4zm6.934 23.467c-.667 2-1.6 3.6-2.667 5.2C25.333 30 24.133 32 21.867 32c-1.867 0-3.2-1.333-5.2-1.333-2.133 0-3.2 1.067-5.067 1.333h-.667C9.6 31.733 8.4 30.667 7.6 29.733c-2.4-2.933-4.267-6.8-4.667-11.6v-1.467c.133-3.467 1.867-6.267 4.133-7.733 1.2-.667 2.8-1.333 4.667-1.067.8.133 1.6.4 2.267.667s1.467.667 2.267.667c.533 0 1.067-.267 1.6-.533 1.6-.533 3.067-1.2 5.067-.933 2.4.4 4.133 1.467 5.2 3.067-2 1.333-3.733 3.333-3.467 6.667.4 3.2 2.133 4.933 4.4 6z"/></svg>