<svg xmlns="http://www.w3.org/2000/svg" width="32" height="32"><path d="M6 5.733h20c.8 0 1.467.8 1.467 1.467S26.934 8.667 26 8.667H6C5.2 8.667 4.533 8 4.533 7.2S5.066 5.733 6 5.733zm-3.467 1.6c0 1.6.933 2.8 2.533 3.2V24.8c0 .933.4 1.733.933 2.4.667.667 1.467.933 2.4.933h14.933c.933 0 1.733-.4 2.4-.933.667-.667.933-1.467.933-2.4V10.533c1.467-.4 2.533-1.733 2.533-3.2 0-1.867-1.467-3.467-3.467-3.467H5.998c-1.867-.133-3.467 1.6-3.467 3.467zm4.534 17.334V10.8H25.2v14c0 .4-.133.8-.533 1.067-.4.4-.8.533-1.067.533H8.533c-.4 0-.8-.133-1.067-.533s-.4-.8-.4-1.2zm4-10.934h10c.533 0 .933.267.933.933 0 .533-.4.933-.933.933h-10c-.533 0-.933-.267-.933-.933 0-.533.4-.933.933-.933z"/></svg>