<svg xmlns="http://www.w3.org/2000/svg" width="32" height="32"><path d="M27.867 11.733A13.108 13.108 0 0 0 20.8 4.666a14.023 14.023 0 0 0-10.4 0c-3.067 1.333-5.6 3.867-7.067 7.067-.667 1.6-.933 3.333-.933 5.067s.4 3.6.933 5.2a13.108 13.108 0 0 0 7.067 7.067c1.6.8 3.333.933 5.2.933 1.733 0 3.467-.4 5.2-.933.533-.267.8-.8.533-1.2-.267-.533-.8-.8-1.2-.533-2.8 1.2-6 1.2-8.933 0-2.667-1.067-4.933-3.333-6-6-.667-1.333-.8-2.933-.8-4.4s.267-3.067.8-4.4c1.067-2.667 3.333-4.933 6-6 2.8-1.2 6-1.2 8.933 0 2.667 1.067 4.933 3.333 6 6 .667 1.333.8 2.933.8 4.4v1.2c0 .8-.267 1.467-.8 2-.933.933-2.8.933-4 0-.533-.533-.8-1.2-.8-2v-6.267c0-.533-.4-.933-.933-.933-.667 0-.667.533-.667.933v.8c-1.067-.933-2.533-1.6-4.133-1.6-3.2 0-5.867 2.533-5.867 5.867s2.667 5.733 6 5.733c1.867 0 3.6-.8 4.667-2.4.267.4.4.8.8.933 1.733 1.733 4.8 1.733 6.533 0 .8-.8 1.333-2.133 1.333-3.333v-1.2a16.65 16.65 0 0 0-1.2-4.933zm-12.267 9.2c-2.267 0-4-1.867-4-4s1.867-4.133 4-4.133 4.133 1.867 4.133 4-1.867 4.133-4.133 4.133z"/></svg>