<svg xmlns="http://www.w3.org/2000/svg" width="32" height="32"><path d="M9.067 10.667c0 2 .8 3.733 2 5.067.133 0 .267.133.4.267 1.2 1.067 2.667 1.6 4.4 1.6s3.333-.533 4.533-1.6c.133-.133.267-.133.4-.267 1.333-1.333 2.133-3.067 2.133-5.067 0-3.733-3.067-6.933-6.933-6.933-3.733 0-6.933 3.067-6.933 6.933zm.533 6.4a9.067 9.067 0 0 1-2.667-6.4c0-4.933 4-9.067 9.067-9.067 4.933 0 9.067 4 9.067 9.067 0 2.533-1.067 4.8-2.667 6.4V28c0 .4-.133.667-.533.8a1.14 1.14 0 0 1-.933 0l-4.933-2.4-4.933 2.4c-.267.133-.667.133-.933 0s-.533-.533-.533-.8V17.067zm2.133 1.466V26.4l3.867-2a1.14 1.14 0 0 1 .933 0l3.867 2v-7.867c-1.333.667-2.8 1.067-4.267 1.067s-3.2-.4-4.4-1.067z"/></svg>