<svg xmlns="http://www.w3.org/2000/svg" width="32" height="32"><path d="M2.667 2.933c.533 0 1.067.4 1.067 1.067v24c0 .533-.4 1.067-1.067 1.067S1.6 28.534 1.6 28V4c0-.533.533-1.067 1.067-1.067zm6.666 5.334c.533 0 1.067.4 1.067 1.067v18.667c0 .533-.4 1.067-1.067 1.067s-1.067-.533-1.067-1.067V9.334c0-.533.533-1.067 1.067-1.067zm7.734 6.4c0-.533-.4-1.067-1.067-1.067s-1.067.4-1.067 1.067V28c0 .533.4 1.067 1.067 1.067s1.067-.4 1.067-1.067V14.667zm5.6 2.933c.533 0 1.067.4 1.067 1.067V28c0 .533-.4 1.067-1.067 1.067S21.6 28.667 21.6 28v-9.333c0-.533.533-1.067 1.067-1.067zm7.733 5.067c0-.533-.4-1.067-1.067-1.067s-1.067.4-1.067 1.067V28c0 .533.4 1.067 1.067 1.067S30.4 28.667 30.4 28v-5.333z"/></svg>