<svg xmlns="http://www.w3.org/2000/svg" width="32" height="32"><path d="M29.333 2.933c.533 0 1.067.4 1.067 1.067v24c0 .533-.4 1.067-1.067 1.067s-1.067-.4-1.067-1.067V4c0-.533.533-1.067 1.067-1.067zm-6.666 5.334c.533 0 1.067.4 1.067 1.067v18.667c0 .533-.4 1.067-1.067 1.067s-1.067-.4-1.067-1.067V9.334c0-.533.533-1.067 1.067-1.067zm-5.6 6.4c0-.533-.4-1.067-1.067-1.067s-1.067.4-1.067 1.067V28c0 .533.4 1.067 1.067 1.067s1.067-.4 1.067-1.067V14.667zM9.333 17.6c.533 0 1.067.4 1.067 1.067V28c0 .533-.4 1.067-1.067 1.067S8.266 28.534 8.266 28v-9.333c0-.533.533-1.067 1.067-1.067zm-5.6 5.067c0-.533-.4-1.067-1.067-1.067s-1.067.533-1.067 1.067V28c0 .533.4 1.067 1.067 1.067s1.067-.4 1.067-1.067v-5.333z"/></svg>