<svg xmlns="http://www.w3.org/2000/svg" width="32" height="32"><path d="M16 2.933c.533 0 1.067.4 1.067 1.067v24c0 .533-.4 1.067-1.067 1.067s-1.067-.4-1.067-1.067V4c0-.533.533-1.067 1.067-1.067zm6.667 9.334c.533 0 1.067.4 1.067 1.067v14.667c0 .533-.4 1.067-1.067 1.067s-1.067-.4-1.067-1.067V13.334c0-.533.533-1.067 1.067-1.067zM10.4 9.333c0-.533-.4-1.067-1.067-1.067s-1.067.533-1.067 1.067V28c0 .533.4 1.067 1.067 1.067S10.4 28.667 10.4 28V9.333zm-7.733 5.6c.533 0 1.067.4 1.067 1.067v12c0 .533-.4 1.067-1.067 1.067S1.6 28.534 1.6 28V16c0-.533.533-1.067 1.067-1.067zm27.733 6.4c0-.533-.4-1.067-1.067-1.067s-1.067.4-1.067 1.067V28c0 .533.4 1.067 1.067 1.067S30.4 28.667 30.4 28v-6.667z"/></svg>