<svg xmlns="http://www.w3.org/2000/svg" width="32" height="32"><path d="M16.533 7.2c-.4-.4-1.067-.267-1.467.133l-.533.933h-9.2c-.933 0-1.867.4-2.533 1.2a3.642 3.642 0 0 0-1.067 2.533v8c0 .933.4 1.867 1.067 2.533s1.6 1.067 2.533 1.067h7.733l-.667 1.2c-.267.4 0 1.067.4 1.333s1.067.133 1.333-.4l5.333-9.333c.133-.267.133-.533 0-.933s-.4-.533-.8-.533h-6.133l4.267-6.4c.267-.4.133-1.067-.267-1.333zm.4 9.867-2.667 4.667H5.333c-.4 0-.8-.133-1.2-.533-.267-.267-.533-.8-.533-1.2v-8c0-.4.133-.8.533-1.2.4-.267.8-.4 1.2-.4H13.2l-3.467 5.067c-.267.267-.267.667 0 1.067.133.267.533.533.933.533h6.267zm4.4-8.667h2.8c.933 0 1.867.4 2.533 1.067s1.067 1.6 1.067 2.533v.667h1.6c.667 0 1.067.533 1.067 1.067v5.333c0 .667-.533 1.067-1.067 1.067H27.6v.267c0 .933-.4 1.867-1.067 2.533s-1.6 1.067-2.533 1.067h-2.667c-.667 0-1.067-.4-1.067-1.067s.533-1.067 1.067-1.067H24c.4 0 .8-.133 1.2-.533s.533-.8.533-1.2v-8c0-.4-.267-.933-.533-1.2-.4-.4-.8-.533-1.2-.533h-2.667c-.667 0-1.067-.4-1.067-1.067s.533-1.067 1.067-1.067zm6.4 6v3.333h.667V14.4h-.667z"/></svg>