<svg xmlns="http://www.w3.org/2000/svg" width="32" height="32"><path d="M5.333 9.067H24c.8 0 1.6.667 1.6 1.6v10.667c0 .8-.667 1.6-1.6 1.6H5.333c-.8 0-1.6-.667-1.6-1.6V10.667c0-.933.667-1.6 1.6-1.6zm22.4 3.2v-1.6c0-2-1.6-3.733-3.733-3.733H5.333c-2 0-3.733 1.733-3.733 3.733v10.667c0 2 1.6 3.733 3.733 3.733H24c2 0 3.733-1.6 3.733-3.733v-1.6h1.6c.533 0 1.067-.4 1.067-1.067v-5.333c0-.533-.4-1.067-1.067-1.067h-1.6zm0 2.133h.667v3.333h-.667V14.4zm-18.4-2.133c-.533 0-1.067.533-1.067 1.067v5.333c0 .533.4 1.067 1.067 1.067s1.067-.533 1.067-1.067v-5.333c0-.667-.533-1.067-1.067-1.067z"/></svg>