<svg xmlns="http://www.w3.org/2000/svg" width="32" height="32"><path d="M16.533 19.867c0-2.4-1.2-4.267-3.6-4.933 1.733-.8 2.667-2.133 2.667-4.133 0-3.867-2.933-4.8-6.267-4.8H0v19.6h9.6c3.467 0 6.933-1.733 6.933-5.733zM4.267 9.333h4c1.6 0 2.933.4 2.933 2.267 0 1.6-1.067 2.4-2.667 2.4H4.266V9.333zm0 12.934V16.8h4.667c1.867 0 3.067.8 3.067 2.8s-1.467 2.667-3.2 2.667H4.268zM25.067 26c3.467 0 5.6-1.467 6.667-4.8h-3.467c-.4 1.2-1.867 1.867-3.067 1.867-2.267 0-3.467-1.333-3.467-3.6H32c.267-4.533-2.267-8.4-6.933-8.4-4.4 0-7.333 3.2-7.333 7.467 0 4.4 2.8 7.467 7.333 7.467zm-.134-12c2 0 2.933 1.2 3.067 3.067h-6.4C21.867 15.2 23.067 14 24.933 14zm-4-6.933h8v1.867h-8V7.067z"/></svg>