<svg xmlns="http://www.w3.org/2000/svg" width="32" height="32"><path d="m3.333 2 21.333 21.333 5.333 5.333c.4.4.4 1.067 0 1.467s-1.067.4-1.467 0l-5.067-5.067h-1.333c-.133 1.333-.8 2.533-1.733 3.467-1.2 1.2-2.8 1.867-4.533 1.867s-3.333-.667-4.533-1.867C10.4 27.6 9.866 26.4 9.6 25.066H6.133l-.4-.133c-.133-.133-.4-.133-.533-.267l-.267-.133c0-.133-.133-.133-.133-.133l-.267-.267L4.4 24l-.267-.267c-.133-.133-.133-.267-.267-.4s-.133-.267-.267-.4c0-.133-.133-.267-.133-.4s-.133-.267-.133-.4v-1.599c0-.133 0-.4.133-.533s.133-.4.267-.533c0-.133.133-.267.267-.4l.133-.133.133-.133v-.133c0-.133.133-.133.133-.267l.133-.133.133-.133.133-.133.4-.4.133-.267v-5.867c0-.4.133-.8.133-.933v-.133c.133-.4.267-.8.267-1.067.133-.267.267-.667.4-.933 0-.267.133-.4.133-.533l-4.4-4.4c-.4-.4-.4-1.067 0-1.467s1.067-.4 1.467 0zM21.6 22.933 7.867 9.333c0 .133-.133.4-.133.533-.133.267-.133.533-.267.8V17.6c0 .267 0 .4-.133.533l-.133.133-.133.133-.133.133-.133.267-.267.267-.267.267s0 .133-.133.133c0 .133-.133.267-.267.4v.133l-.133.133-.267.267-.133.133v1.466c0 .134 0 .133.133.267 0 0 0 .133.133.133s.133.133.133.133l.133.133.267.133H21.6zm-5.867-19.2h-.8c-.267 0-.533.133-.8.133-.267.133-.533.133-.8.267l-.8.4c-.133 0-.267.133-.533.267l-.133.133c-.4.267-1.067.133-1.333-.4s-.133-1.2.4-1.333c0-.133.133-.133.133-.133.133-.133.4-.267.667-.4s.533-.267.933-.4a1.14 1.14 0 0 1 .933 0C14 2.134 14.4 2 14.667 2c.4-.133.8-.133 1.067-.133h1.067c.267 0 .8 0 1.2.133.267.133.667.133.933.267.267 0 .667.133.933.267s.667.267.933.4c.4.133.667.4.933.533s.533.4.8.533.533.4.8.667c.267.133.4.4.667.667s.4.4.533.667c.133 0 .133.133.133.133.267.4.4.667.533.933s.267.667.4.933c.133.267.267.667.4.933s.133.667.267.933c0 .4.133.667.133 1.067V17.2c0 .667-.533 1.067-1.067 1.067-.667 0-1.067-.533-1.067-1.067v-6.133c0-.267-.133-.533-.133-.8-.133-.267-.133-.533-.267-.8 0-.267-.133-.533-.267-.8-.133-.133-.133-.4-.267-.533-.133 0-.133-.133-.133-.133-.133-.267-.267-.533-.4-.667-.133 0-.133-.133-.133-.133-.133-.267-.267-.4-.4-.533-.133-.267-.4-.533-.533-.667s-.267-.4-.533-.533c-.267-.267-.4-.4-.667-.533-.133-.133-.4-.267-.667-.4l-.8-.4c-.267-.133-.533-.133-.8-.267-.267 0-.533-.133-.8-.133h-1.733zm-2.8 23.334c.8.8 1.733 1.333 2.933 1.333s2.267-.533 3.067-1.333c.667-.533 1.067-1.2 1.2-2h-8.4c.267.667.667 1.467 1.2 2z"/></svg>