<svg xmlns="http://www.w3.org/2000/svg" width="32" height="32"><path d="m28 19.067-1.6-2v-5.066c0-1.333-.267-2.8-.8-4-.533-1.333-1.333-2.4-2.4-3.333-.933-.933-2.133-1.733-3.467-2.267s-2.667-.8-4-.667c-2.667.133-5.333 1.333-7.2 3.333S5.6 9.6 5.6 12.4v4.533s0 .133-.133.133l-1.467 2c-.4.533-.667 1.2-.8 1.867s0 1.333.267 2 .8 1.2 1.333 1.467c.533.4 1.2.533 2 .533h2.933c.267 1.333.8 2.533 1.733 3.467 1.2 1.2 2.8 1.867 4.533 1.867s3.333-.667 4.533-1.867c.933-.933 1.6-2.133 1.733-3.467h2.933c.667 0 1.333-.267 2-.533.533-.4 1.067-.933 1.333-1.467.267-.667.4-1.333.267-2s-.4-1.333-.8-1.867zm-8.933 8c-.8.8-1.867 1.333-3.067 1.333s-2.267-.4-3.067-1.333c-.533-.533-.933-1.333-1.2-2h8.4c-.133.667-.533 1.467-1.067 2zm7.6-5.067c-.133.267-.4.533-.667.667s-.533.267-.933.267H6.934c-.267 0-.667-.133-.933-.267s-.533-.4-.667-.667c-.133-.267-.133-.533-.133-.933 0-.267.133-.667.4-.8l1.6-2c.267-.4.533-.933.533-1.467v-4.4c0-2.267.8-4.4 2.267-6s3.6-2.667 5.733-2.667c1.067 0 2.267.133 3.333.533s2 1.067 2.8 1.733c.8.8 1.467 1.733 1.867 2.667.4 1.067.667 2.133.667 3.2v4.933c0 .533.133 1.067.533 1.467l1.6 2c.267.267.267.533.4.8-.133.4-.133.667-.267.933z"/></svg>