<svg xmlns="http://www.w3.org/2000/svg" width="32" height="32"><path d="M9.2 29.2c.933.133 11.733.267 12.933 0 1.867-.267 3.467-1.067 4.933-2.4 1.067-1.067 1.6-2.267 2.133-3.733.267-.933.267-8.533.133-8.933-.133-.4-.4-.933-.8-1.067-.133-.133-.8-.133-1.467-.133-1.2 0-1.333-.133-1.6-.267-.533-.4-.8-.8-.8-1.733 0-2-.8-3.733-2.4-5.467-1.067-1.2-2.4-2-3.867-2.4-.533-.267-1.333-.4-4-.4-4 0-4.933 0-6.4.533-2.533 1.067-4.4 3.2-5.067 6-.133.533-.267 1.467-.267 6.267 0 6 0 6.933.267 8.133 1.067 2.933 3.733 5.067 6.267 5.6zm12.533-9.467c.667.667.533 1.867-.267 2.4l-.933.133c-2.533 0-9.467.267-10-.133-.4-.267-.8-.667-.933-1.067s.133-1.067.4-1.333c.4-.267.667-.267 5.867-.267 5.467-.133 5.467-.133 5.867.267zm-11.6-9.466c.4-.533.533-.533 3.467-.533 2.667 0 2.667 0 3.067.267.533.267.8.667.8 1.333 0 .533-.267 1.067-.8 1.333-.267 0-.4 0-2.933.133-1.6 0-2.8-.133-3.067-.133-1.067-.4-1.333-1.733-.533-2.4z"/></svg>