<svg xmlns="http://www.w3.org/2000/svg" width="32" height="32"><path d="M16.133 6h-.266l-.133.133v8.533l7.067-4.4.133-.133v-.266l-.133-.133-6.667-3.733zm-2.4 7.733V6.266c0-.4.133-.8.267-1.2.267-.4.533-.667.8-.8.4-.267.8-.267 1.2-.267s.8.133 1.2.267l6.667 3.733c.4.267.667.533.8.8.267.4.267.8.267 1.2s-.133.8-.267 1.2c-.267.4-.533.667-.8.8l-6.533 4 6.533 4c.4.267.667.533.8.8.267.4.267.8.267 1.2s-.133.8-.267 1.2-.533.667-.8.8L17.2 27.732c-.4.267-.8.4-1.2.4s-.8-.133-1.2-.267c-.4-.267-.667-.533-.933-.933s-.267-.8-.267-1.2v-7.467l-6.533 4c-.533.267-1.067.133-1.333-.4s-.133-1.067.4-1.333l7.333-4.533-7.333-4.533c-.4-.267-.667-.8-.267-1.333.267-.533.933-.667 1.333-.4l6.533 4zm2 3.6v8.533l.133.133h.266l6.667-3.733.133-.133v-.266l-.133-.133-7.067-4.4z"/></svg>