<svg xmlns="http://www.w3.org/2000/svg" width="32" height="32"><path d="M28 21.067c-.133-2.533-1.2-5.333-2.4-7.467-2.133-3.867-2-8.4-.533-12.267.133-.533 0-1.067-.533-1.2s-1.067 0-1.2.533c-1.6 4.133-1.733 9.067.267 13.2-4.267 2-11.467 1.867-15.2.133 2-4.133 1.867-8.933.267-13.2-.133-.667-.8-.933-1.2-.8-.533.267-.8.8-.533 1.333 1.467 4 1.6 8.533-.533 12.267-1.6 2.667-2.4 5.467-2.4 7.467-.133 3.867.8 7.467 2.667 10.533.267.4.8.533 1.333.267.4-.267.533-.8.267-1.333-2.133-3.333-2.8-7.6-2.267-10.933 4.533.667 8.133 4.667 8.933 5.6v5.733c0 .533.4.933.933.933s.933-.4.933-.933v-5.6c.8-1.067 4.4-4.933 9.067-5.6.667 3.333-.133 7.6-2.267 10.933-.267.4-.133 1.067.267 1.333s1.067.133 1.333-.267c2-3.2 2.933-6.8 2.8-10.667zm-12 2.4c-1.467-1.6-4.933-4.933-9.467-5.733.267-.8.533-1.6.933-2.4 4.4 2.267 12.4 2 16.933-.133.4.8.8 1.6 1.067 2.4-4.533.933-8 4.267-9.467 5.867z"/><path d="M16 11.333c.533 0 .933-.4.933-.933s-.4-.933-.933-.933-.933.4-.933.933.4.933.933.933z"/></svg>