<svg xmlns="http://www.w3.org/2000/svg" width="32" height="32"><path d="M8 3.733c-.4 0-.8.133-1.2.533-.267.267-.4.667-.4 1.067v21.466l.133.133h.266l8.533-6.4c.4-.267.8-.267 1.2 0l8.533 6.4h.266l.133-.133V5.333c0-.4-.133-.8-.533-1.2-.267-.267-.8-.533-1.2-.533H7.998zM5.467 2.8C6.134 2 7.067 1.6 8 1.6h16c.933 0 1.867.4 2.533 1.067S27.6 4.267 27.6 5.2v21.333c0 .4-.133.8-.4 1.2s-.533.667-.933.8-.8.267-1.2.267-.8-.133-1.2-.4l-8-6L8 28.4c-.4.267-.8.4-1.2.4s-.8 0-1.2-.267c-.4-.133-.667-.533-.933-.8-.267-.4-.4-.8-.4-1.2v-21.2c0-.933.4-1.867 1.2-2.533zM16 6.933c.533 0 1.067.4 1.067 1.067v2.933H20c.533 0 1.067.4 1.067 1.067s-.533 1.067-1.067 1.067h-2.933V16c0 .533-.4 1.067-1.067 1.067s-1.067-.4-1.067-1.067v-2.933H12c-.533 0-1.067-.533-1.067-1.067s.533-1.067 1.067-1.067h2.933V8c0-.533.533-1.067 1.067-1.067z"/></svg>