<svg xmlns="http://www.w3.org/2000/svg" width="32" height="32"><path d="M5.733 4.4c.4-.533.933-.667 1.6-.667h18c.4 0 .8.133 1.2.533.267.267.533.8.533 1.2v16.267H7.333c-.8 0-1.6.267-2.4.667V6c.133-.667.267-1.2.8-1.6zM5.067 26c0-.667.133-1.2.667-1.733.4-.4.933-.667 1.6-.667h19.733v2.933c0 .4-.133.8-.533 1.2s-.8.533-1.2.533h-18c-.533 0-1.2-.267-1.6-.667s-.667-.933-.667-1.6zm24-3.333V5.334c0-.933-.4-1.867-1.067-2.533s-1.6-1.067-2.533-1.067H7.334c-1.2 0-2.267.4-3.067 1.333-.8.8-1.333 1.867-1.333 3.067v20c0 1.2.4 2.267 1.333 3.067.8.8 1.867 1.333 3.067 1.333h18c.933 0 1.867-.4 2.533-1.067s1.067-1.6 1.067-2.533v-4.267z"/></svg>