<svg xmlns="http://www.w3.org/2000/svg" width="32" height="32"><path d="M6.8 4.133c.4-.267.8-.4 1.2-.4h16c.4 0 .8.133 1.2.533.267.267.533.8.533 1.2v21.466l-.133.133h-.266l-8.533-6.4c-.4-.267-.8-.267-1.2 0l-8.533 6.4h-.266l-.133-.133v-21.6c-.267-.4-.133-.8.133-1.2zM8 1.6c-.933 0-1.867.4-2.533 1.067-.8.8-1.2 1.733-1.2 2.667v21.333c0 .4.133.8.4 1.2s.533.667.933.8.8.267 1.2.267.8-.133 1.2-.4l7.867-6 8 6c.4.267.8.4 1.2.4s.8 0 1.2-.267c.4-.133.667-.533.933-.8.267-.4.4-.8.4-1.2V5.334c0-.933-.4-1.867-1.067-2.533S24.933 1.734 24 1.734H8zm4 9.333c-.533 0-1.067.533-1.067 1.067s.533 1.067 1.067 1.067h8c.533 0 1.067-.4 1.067-1.067s-.533-1.067-1.067-1.067h-8z"/></svg>