<svg xmlns="http://www.w3.org/2000/svg" width="32" height="32"><path d="M15.467 1.867c.4-.267.8-.267 1.067 0l12 8c.133.133.267.133.267.267.133.133.133.4.133.533v10.667c0 .4-.133.667-.4.8l-12 8c-.133.133-.267.133-.533.133h-.133c-.133 0-.267-.133-.4-.133l-12-8c-.267-.133-.4-.533-.4-.8V10.667c0-.133 0-.267.133-.533 0 0 0-.133.133-.133l.267-.267 11.867-7.867zm10.666 8.8L16 3.867l-10.133 6.8L16 17.467l10.133-6.8zM17.067 19.2v8.267l10-6.667v-8.267l-10 6.667zm-12 1.6 10 6.667V19.2l-10-6.667V20.8z"/></svg>