<svg xmlns="http://www.w3.org/2000/svg" width="32" height="32"><path d="M26.667 8.133H23.6V5.2c0-.933-.4-1.867-1.067-2.533S20.933 1.6 20 1.6h-8c-.933 0-1.867.4-2.667 1.2a3.642 3.642 0 0 0-1.067 2.533v2.933H5.333C3.2 8.266 1.6 9.999 1.6 11.999v13.2c0 2.133 1.733 3.733 3.733 3.733h21.333c2.133 0 3.733-1.733 3.733-3.733V11.866c0-2.133-1.733-3.733-3.733-3.733zm-18.4 18.934H5.334c-.933 0-1.6-.8-1.6-1.6V12c0-.933.8-1.6 1.6-1.6h2.933v16.667zm13.466 0H10.4V10.4h11.333v16.667zm0-18.667H10.4V5.333c0-.4.133-.8.4-1.2.4-.267.8-.4 1.2-.4h8c.4 0 .8.133 1.2.533.267.267.533.8.533 1.2v2.933zm6.534 16.933c0 .933-.8 1.6-1.6 1.6h-2.933V10.4h2.933c.933 0 1.6.8 1.6 1.6v13.333z"/></svg>