<svg xmlns="http://www.w3.org/2000/svg" width="32" height="32"><path d="M26.667 8.133H23.6V5.2c0-.933-.4-1.867-1.067-2.533S20.933 1.6 20 1.6h-8c-.933 0-1.867.4-2.667 1.2a3.642 3.642 0 0 0-1.067 2.533v2.933H5.333C3.2 8.266 1.6 9.999 1.6 11.999v13.2c0 2.133 1.733 3.733 3.733 3.733h21.333c2.133 0 3.733-1.733 3.733-3.733V11.866c0-2.133-1.733-3.733-3.733-3.733zM10.4 5.333c0-.4.133-.8.4-1.2.4-.267.8-.4 1.2-.4h8c.4 0 .8.133 1.2.533.267.267.533.8.533 1.2v2.933H10.4V5.332zm17.867 20c0 .933-.667 1.467-1.467 1.6v.133H5.333c-.933 0-1.6-.8-1.6-1.6V11.999c0-.933.8-1.6 1.6-1.6h21.333c.933 0 1.6.8 1.6 1.6v13.333z"/><path d="M20 17.6h-2.933v-2.933c0-.533-.4-1.067-1.067-1.067s-1.067.4-1.067 1.067V17.6H12c-.533 0-1.067.4-1.067 1.067s.4 1.067 1.067 1.067h2.933v2.933c0 .533.4 1.067 1.067 1.067s1.067-.4 1.067-1.067v-2.933H20c.533 0 1.067-.4 1.067-1.067S20.667 17.6 20 17.6z"/></svg>