<svg xmlns="http://www.w3.org/2000/svg" width="32" height="32"><path d="M8.667 7.333 6 4.666c-.4-.4-.933-.4-1.333 0s-.4.933 0 1.333l2.667 2.667c.4.4.933.4 1.333 0 .4-.267.4-.933 0-1.333zM4.8 15.067H.933c-.533 0-.933.4-.933.933s.4.933.933.933H4.8c.533 0 .933-.4.933-.933s-.4-.933-.933-.933zm26.267 0H27.2c-.533 0-.933.4-.933.933s.4.933.933.933h3.867c.533 0 .933-.4.933-.933s-.4-.933-.933-.933zm-3.734-10.4c-.4-.4-.933-.4-1.333 0l-2.667 2.667c-.4.4-.4.933 0 1.333s.933.4 1.333 0L27.333 6c.267-.267.267-.933 0-1.333zM16 0c-.533 0-.933.4-.933.933V4.8c0 .533.4.933.933.933s.933-.4.933-.933V.933C16.933.4 16.533 0 16 0zm5.2 9.333c-2-1.6-4.667-2.133-7.333-1.6-3.067.667-5.467 3.067-6.133 6s.133 6 2.267 8.133c.8.8 1.2 2 1.2 3.2v.267c0 .533.4.933.933.933h7.467c.533 0 .933-.4.933-.933v-.267c0-1.2.533-2.4 1.333-3.333 1.6-1.6 2.4-3.733 2.4-6 .133-2.267-.933-4.8-3.067-6.4zM16 13.2c-1.467 0-2.4.933-2.667 2-.133.533-.667.8-1.2.667s-.8-.667-.667-1.2c.533-1.733 2.267-3.333 4.533-3.333.533 0 .933.4.933.933s-.4.933-.933.933zm-3.733 15.067v.933c0 1.6 1.2 2.8 2.8 2.8h1.867c1.6 0 2.8-1.2 2.8-2.8v-.933h-7.467z"/></svg>