<svg xmlns="http://www.w3.org/2000/svg" width="32" height="32"><path d="M15.733 3.6C17.2 3.6 18.666 4 20 4.667s2.4 1.733 3.2 3.067a8.27 8.27 0 0 1 1.2 4.267c0 1.6-.4 3.067-1.333 4.4-.8 1.333-2 2.4-3.467 3.067-.4.133-.533.533-.533.933v2.533h-6v-2.533c0-.4-.267-.8-.533-.933-1.333-.667-2.533-1.6-3.333-2.8s-1.333-2.667-1.467-4.133c-.133-1.467.133-3.067.8-4.4s1.733-2.4 2.933-3.2c1.333-.8 2.8-1.2 4.267-1.333zm5.2-.667C19.333 2 17.466 1.6 15.6 1.6s-3.6.667-5.067 1.6c-1.6.933-2.8 2.4-3.733 4-.8 1.6-1.2 3.467-1.067 5.333s.667 3.6 1.733 5.2c.933 1.333 2.133 2.533 3.6 3.2V24c0 .533.4 1.067 1.067 1.067h8c.533 0 1.067-.4 1.067-1.067v-2.933c1.467-.8 2.8-2 3.733-3.467 1.067-1.6 1.6-3.6 1.6-5.467s-.533-3.6-1.467-5.2-2.4-3.067-4.133-4zM12 28.267c-.533 0-1.067.4-1.067 1.067s.4 1.067 1.067 1.067h8c.533 0 1.067-.4 1.067-1.067s-.4-1.067-1.067-1.067h-8z"/></svg>