<svg xmlns="http://www.w3.org/2000/svg" width="32" height="32"><path d="M27.911 13.4h-3.733V11c0-.33-.28-.6-.622-.6H3.023a.613.613 0 0 0-.622.6v11.028c0 4.176 3.522 7.572 7.852 7.572h6.067c4.212 0 7.647-3.216 7.84-7.23 3.491-.294 6.241-3.126 6.241-6.57 0-1.368-1.07-2.4-2.489-2.4zm-4.978 8.628c0 3.51-2.968 6.372-6.614 6.372h-6.067c-3.646 0-6.614-2.862-6.614-6.378V11.6h19.289v10.428h.006zm1.245-.864V14.6h3.733c.734 0 1.244.492 1.244 1.2 0 2.778-2.184 5.07-4.978 5.364zM7.733 7.44c0-.89.5-1.31 1.14-1.842.68-.571 1.527-1.288 1.527-2.638 0-.308-.3-.56-.667-.56s-.667.252-.667.56c0 .89-.5 1.31-1.14 1.842-.68.571-1.527 1.282-1.527 2.638 0 .308.3.56.667.56s.667-.252.667-.56zm5.6 0c0-.89.5-1.31 1.14-1.842C15.153 5.027 16 4.31 16 2.96c0-.308-.3-.56-.667-.56s-.667.252-.667.56c0 .89-.5 1.31-1.14 1.842-.68.571-1.527 1.282-1.527 2.638 0 .308.3.56.667.56s.667-.252.667-.56zm5.334 0c0-.89.4-1.31.912-1.842.544-.571 1.221-1.288 1.221-2.638 0-.308-.24-.56-.533-.56s-.533.252-.533.56c0 .89-.4 1.31-.912 1.842-.544.571-1.221 1.282-1.221 2.638 0 .308.24.56.533.56s.533-.252.533-.56z"/></svg>