<svg xmlns="http://www.w3.org/2000/svg" width="32" height="32"><path d="M10.4 2.667v1.6h11.2v-1.6c0-.533.4-1.067 1.067-1.067s1.067.533 1.067 1.067v1.6h2.933C28.8 4.267 30.4 6 30.4 8v18.667c0 2.133-1.733 3.733-3.733 3.733H5.334c-2.133 0-3.733-1.733-3.733-3.733V8c0-2 1.733-3.733 3.733-3.733h2.933v-1.6c0-.533.4-1.067 1.067-1.067s1.067.533 1.067 1.067zM21.6 8V6.4H10.4V8c0 .533-.4 1.067-1.067 1.067S8.266 8.534 8.266 8V6.4H5.333c-.933 0-1.6.667-1.6 1.6v18.667c0 .933.8 1.6 1.6 1.6h21.333c.933 0 1.6-.8 1.6-1.6V8c0-.933-.8-1.6-1.6-1.6h-2.933V8c0 .533-.4 1.067-1.067 1.067S21.599 8.534 21.599 8zm.4 7.467-8.133 7.467c-.267.133-.533.267-.8.267s-.533-.133-.667-.4l-3.333-4c-.4-.533-.267-1.067.133-1.467.533-.4 1.067-.267 1.467.133l2.667 3.2 7.2-6.667c.4-.4 1.067-.4 1.467 0s.4 1.067 0 1.467z"/></svg>