<svg xmlns="http://www.w3.org/2000/svg" width="32" height="32"><path d="M9.333 1.6c-.533 0-1.067.533-1.067 1.067v1.6H5.333C3.2 4.267 1.6 6 1.6 8v18.667C1.6 28.8 3.333 30.4 5.333 30.4h21.333c2.133 0 3.733-1.733 3.733-3.733V8c0-2.133-1.733-3.733-3.733-3.733h-2.8v-1.6c0-.667-.4-1.067-1.067-1.067s-1.067.533-1.067 1.067v1.6H10.399v-1.6C10.399 2 9.866 1.6 9.332 1.6zM21.6 6.4V8c0 .533.4 1.067 1.067 1.067s1.067-.4 1.067-1.067V6.4h2.933c.933 0 1.6.8 1.6 1.6v18.667c0 .933-.8 1.6-1.6 1.6H5.334c-.933 0-1.6-.8-1.6-1.6V8c0-.933.8-1.6 1.6-1.6h2.933V8c0 .533.4 1.067 1.067 1.067S10.401 8.534 10.401 8V6.4h11.2zm-12 10.933c0 .533.533 1.067 1.067 1.067h4.267v4.267c0 .667.4 1.067 1.067 1.067s1.067-.533 1.067-1.067V18.4h4.267c.667 0 1.067-.4 1.067-1.067s-.533-1.067-1.067-1.067h-4.267v-4.267c0-.667-.4-1.067-1.067-1.067s-1.067.533-1.067 1.067v4.267h-4.267c-.667 0-1.067.533-1.067 1.067z"/></svg>