<svg xmlns="http://www.w3.org/2000/svg" width="32" height="32"><path d="M2 2c-.4.4-.4.933 0 1.333l3.6 3.6h-.267c-.933 0-1.867.4-2.533 1.2a3.642 3.642 0 0 0-1.067 2.533v14.8c0 .933.4 1.867 1.067 2.533s1.6 1.067 2.533 1.067h22.133l1.067 1.067c.4.4 1.067.4 1.467 0s.4-1.067 0-1.467l-8.667-8.667-.4-.4c0-.133-.133-.133-.133-.133l-6.933-6.933-.133-.133c-.133-.267-.267-.267-.4-.4L3.467 2C3.067 1.6 2.4 1.6 2 2zm5.6 7.067 3.867 3.867c-.267.267-.533.533-.667.933-.267.267-.4.667-.533 1.067l-.4 1.2a8.09 8.09 0 0 0 0 2.533l.4 1.2c.133.4.4.667.533 1.067.4.667 1.067 1.2 1.733 1.733.267.267.667.4 1.067.533l1.2.4a8.09 8.09 0 0 0 2.533 0l1.2-.4c.4-.133.667-.4 1.067-.533.267-.267.667-.4.933-.667l5.2 5.2h-20.4c-.4 0-.8-.133-1.2-.533-.267-.267-.533-.8-.533-1.2v-14.8c0-.4.133-.8.533-1.2.4-.267.8-.4 1.2-.4H7.6zm5.333 5.2 6.133 6.133-.533.533-.8.4c-.267.133-.533.133-.8.267-.533.133-1.2.133-1.733 0-.267 0-.533-.133-.8-.267l-.8-.4c-.4-.267-.8-.667-1.2-1.2l-.4-.8c-.133-.267-.133-.533-.267-.8a3.813 3.813 0 0 1 0-1.733c0-.267.133-.533.267-.8l.4-.8.533-.533zM12 3.2h5.733c1.867 0 3.467.933 4.533 2.4.667.933 1.733 1.467 2.8 1.467 2.933 0 5.333 2.4 5.333 5.333v10.267c0 .667-.4 1.067-1.067 1.067s-1.067-.533-1.067-1.067V12.4a3.3 3.3 0 0 0-3.333-3.333c-1.733 0-3.467-.933-4.4-2.4-.667-1.067-1.733-1.6-2.933-1.6h-5.6c-.533 0-1.067-.533-1.067-1.067s.533-1.067 1.067-1.067z"/></svg>