<svg xmlns="http://www.w3.org/2000/svg" width="32" height="32"><path d="M13.467 2.933c-2.267 0-4.133 1.733-4.4 4H5.334c-2 0-3.733 1.733-3.733 3.733v14.667c0 2 1.6 3.733 3.733 3.733h21.333c2 0 3.733-1.6 3.733-3.733V10.666c0-2-1.6-3.733-3.733-3.733h-3.733c-.267-2.267-2.133-4-4.4-4h-5.067zm-2.534 4.534a2.39 2.39 0 0 1 2.4-2.4h5.2a2.39 2.39 0 0 1 2.4 2.4c0 .933.667 1.6 1.6 1.6h4.133c.933 0 1.6.8 1.6 1.6v14.667c0 .933-.8 1.6-1.6 1.6H5.333c-.933 0-1.6-.8-1.6-1.6V10.667c0-.933.8-1.6 1.6-1.6h4.133c.8 0 1.467-.8 1.467-1.6zm.8 9.866c0-2.4 2-4.267 4.267-4.267s4.267 2 4.267 4.267-2 4.267-4.267 4.267-4.267-1.867-4.267-4.267zm4.267-6.4c-3.467 0-6.4 2.8-6.4 6.4s2.8 6.4 6.4 6.4c3.467 0 6.4-2.8 6.4-6.4s-2.933-6.4-6.4-6.4z"/></svg>