<svg xmlns="http://www.w3.org/2000/svg" width="32" height="32"><path d="m22.8 13.333 1.6-.133c1.2-.133 2.267-.667 2.933-1.733L28.666 9.6c1.067-1.6 1.6-3.733 1.2-5.6 0-.4-.267-.8-.533-1.067s-.667-.4-1.067-.4c-2-.133-4 .533-5.467 1.867l-1.733 1.467c-.933.8-1.333 1.867-1.333 3.067l.133 1.733c0 .667-.133 1.333-.667 1.733l-13.6 14c-.4.4-.533.933-.533 1.467 0 .667.267 1.2.8 1.6.4.4.933.533 1.6.533h.133c.533 0 1.067-.267 1.333-.667l12.267-15.2c.4-.533.933-.8 1.6-.8zm-2.267.267L8.266 28.8c-.133.267-.533.4-.8.4-.4 0-.8-.133-1.067-.4s-.4-.667-.533-1.067c0-.4.133-.667.267-.8l13.6-14c.667-.667.933-1.467.933-2.4l-.133-1.6c0-.933.4-1.733 1.067-2.4l1.733-1.467c1.333-1.2 3.067-1.733 4.933-1.733.267 0 .4.133.533.267s.267.267.267.533c.267 1.733-.133 3.467-1.067 4.933l-1.333 1.867c-.533.8-1.333 1.2-2.267 1.333l-1.6.133c-.933.133-1.733.533-2.267 1.2z"/><path d="M29.2 26.267 20.133 18c-.133-.133-.4-.133-.533 0s-.133.4 0 .533l9.067 8.267c.267.267.4.533.4.8 0 .4-.133.8-.4 1.067s-.667.4-1.067.4c-.4 0-.667-.133-.8-.4L18.533 20c-.133-.133-.4-.133-.533 0s-.133.4 0 .533l8.133 8.933c.4.4.8.667 1.467.667s1.2-.267 1.6-.667.667-1.067.667-1.733c0-.533-.267-1.067-.667-1.467zM7.067 13.2A3.642 3.642 0 0 0 9.6 14.267h1.6c.667 0 1.2.267 1.733.8l.667.8c.133.133.133.133.267.133s.267 0 .267-.133.133-.4 0-.533l-.667-.8c-.533-.667-1.467-1.067-2.267-1.067H9.6c-.667 0-1.467-.267-2-.8L2.933 6.934v-.133h.266l4.4 4.4c.4.4 1.067.4 1.6 0l2-2c.4-.4.4-1.067 0-1.6l-4.667-4.4v-.267h.133l5.733 4.8c.533.533.8 1.2.8 2v1.6c0 .933.4 1.733 1.067 2.267l.8.667c.133.133.4.133.533 0s.133-.4 0-.533l-.8-.667c-.533-.4-.8-1.067-.8-1.733v-1.6c0-.933-.4-1.867-1.067-2.533l-5.6-4.8a1.21 1.21 0 0 0-1.333 0c-.4.4-.4 1.067 0 1.333l4.4 4.4c.133.133.133.267 0 .4l-.267.267-4.8-4.933c-.133-.133-.4-.133-.533 0s-.133.4 0 .533l4.667 4.933-.267.4-4.8-4.933c-.133-.133-.4-.133-.667 0-.133.267-.133.533 0 .667l4.8 4.8-.133.267c-.133.133-.267.133-.4 0l-4.267-4.4c-.267-.133-.533-.267-.8-.267s-.4.133-.667.267c-.4.4-.4.933 0 1.333l4.8 5.733z"/></svg>