<svg xmlns="http://www.w3.org/2000/svg" width="32" height="32"><path d="M19.733 4c-.8.267-1.467.8-2.133 1.333l-4.667 4.8 8.933 8.933 4.8-4.8c.533-.533 1.067-1.2 1.333-2s.533-1.733.533-2.533c0-.8-.267-1.6-.533-2.4-.267-.667-.8-1.467-1.333-2C25.999 4.8 25.333 4.266 24.533 4c-.8-.4-1.6-.533-2.4-.533s-1.6.267-2.4.533zM14.4 26.667l6-6.267-8.933-8.933L5.334 17.6c-1.2 1.2-1.867 2.8-1.867 4.533s.667 3.333 1.867 4.533c1.2 1.2 2.8 1.867 4.533 1.867s3.333-.667 4.533-1.867zM15.733 28c-.8.8-1.733 1.333-2.667 1.867-1.067.4-2.133.667-3.2.667s-2.133-.267-3.2-.667C5.599 29.467 4.799 28.8 3.999 28s-1.333-1.733-1.867-2.667c-.4-1.067-.667-2.133-.667-3.2s.267-2.133.667-3.2c.4-1.067 1.067-1.867 1.867-2.667L16.266 3.999c.8-.8 1.733-1.333 2.667-1.867 1.067-.4 2.133-.667 3.2-.667s2.133.267 3.2.667C26.4 2.532 27.2 3.199 28 3.999s1.333 1.733 1.867 2.667c.4 1.067.667 2.133.667 3.2s-.267 2.133-.667 3.2c-.4 1.067-1.067 1.867-1.867 2.667L22.533 21.2l-6.8 6.8z"/></svg>