<svg xmlns="http://www.w3.org/2000/svg" width="32" height="32"><path d="M5.333 3.867H5.6L5.867 4l4.4 16.4c.267.933.667 1.733 1.467 2.267.8.667 1.467.933 2.4.933h9.867c.933 0 1.733-.267 2.4-.8s1.2-1.2 1.467-2.133l3.2-9.6c.133-.4.133-.8.133-1.2s-.133-.8-.4-1.2c-.133-.267-.533-.533-.8-.667s-.8-.267-1.2-.267H8.934L7.867 3.6c-.133-.667-.4-1.067-.8-1.6-.667-.133-1.2-.4-1.867-.4H1.867c-.667 0-1.2.667-1.2 1.2s.4 1.2 1.2 1.2l3.467-.133c-.133 0-.133 0 0 0zm4.4 6.933-.133-.667h19.2s.133 0 .133.133v.267l-3.2 9.6c-.133.267-.267.8-.8.933-.4.133-.8.267-1.067.267h-9.867c-.4 0-.8-.133-1.067-.4s-.667-.667-.667-1.067l-2.533-9.067zM12 28.667c0-1.067.933-1.867 1.867-1.867 1.067 0 1.867.933 1.867 1.867s-.933 1.867-1.867 1.867c-.933 0-1.867-.8-1.867-1.867zM23.2 26.8c-1.067 0-1.867.933-1.867 1.867s.933 1.867 1.867 1.867c1.067 0 1.867-.933 1.867-1.867-.133-.933-.8-1.867-1.867-1.867z"/></svg>