<svg xmlns="http://www.w3.org/2000/svg" width="32" height="32"><path d="M2.8 5.467c.667-.8 1.6-1.2 2.533-1.2h21.333c.933 0 1.867.4 2.533 1.067s1.067 1.6 1.067 2.533v16c0 .933-.4 1.867-1.067 2.533s-1.6 1.067-2.533 1.067h-6.667c-.533 0-1.067-.4-1.067-1.067s.4-1.067 1.067-1.067h6.667c.4 0 .8-.133 1.2-.533s.533-.8.533-1.2V8c0-.4-.133-.8-.533-1.2-.267-.267-.8-.533-1.2-.533H5.333c-.4 0-.8.133-1.2.533-.267.4-.4.8-.4 1.2v1.333c0 .533-.4 1.067-1.067 1.067s-1.067-.533-1.067-1.067V8c0-.933.4-1.867 1.2-2.533zM1.6 20c0-.533.4-1.067 1.067-1.067 1.067 0 2 .133 2.933.533s1.733.933 2.533 1.6c.667.667 1.333 1.6 1.6 2.533.4.933.533 1.867.533 2.933 0 .533-.4 1.067-1.067 1.067s-.933-.4-.933-.933c0-.8-.133-1.467-.4-2.133s-.667-1.333-1.2-1.867c-.533-.533-1.2-.933-1.867-1.2s-1.467-.4-2.133-.4c-.533 0-1.067-.533-1.067-1.067zm1.067-6.4c-.533 0-1.067.4-1.067 1.067s.4 1.067 1.067 1.067c2.933 0 5.733 1.2 7.733 3.2s3.2 4.8 3.2 7.733c0 .533.4 1.067 1.067 1.067s1.067-.4 1.067-1.067c0-3.467-1.333-6.8-3.867-9.2-2.4-2.4-5.733-3.867-9.2-3.867zM.933 26.667c0-.933.8-1.6 1.6-1.6.933 0 1.6.8 1.6 1.6s-.533 1.6-1.467 1.6c-.933 0-1.733-.667-1.733-1.6z"/></svg>