<svg xmlns="http://www.w3.org/2000/svg" width="32" height="32"><path d="M2.133 20.133h3.333c.533 0 .8.4.8.8v8.133c0 .533-.4.8-.8.8H2.133c-.533-.133-.8-.533-.8-.8v-8.133c0-.533.4-.8.8-.8zm8.134-6.533H13.6c.533 0 .8.4.8.8v14.667c0 .533-.4.8-.8.8h-3.333c-.533 0-.8-.4-.8-.8V14.534c0-.533.4-.933.8-.933zm8.133 3.333h3.333c.533 0 .8.4.8.8v11.333c0 .533-.4.8-.8.8H18.4c-.533 0-.8-.4-.8-.8V17.733c0-.4.4-.8.8-.8zm8.133-5.066h3.333c.533 0 .8.4.8.8v16.267c0 .533-.4.8-.8.8h-3.333c-.533 0-.8-.4-.8-.8V12.801c.133-.533.533-.933.8-.933z"/><path d="M28.267 2.267c-1.467 0-2.4 1.2-2.4 2.4 0 .267 0 .533.133.8l-4.133 2.4c-.533-.533-1.333-.933-2-.8-.8.133-1.467.533-1.733 1.333l-3.6-1.733V6.4c0-1.067-.667-1.867-1.467-2.267-1.067-.4-2-.133-2.667.533-.933.667-1.2 1.6-.8 2.533l-4.533 3.467c-.4-.267-.8-.4-1.333-.4-1.333 0-2.4 1.2-2.4 2.4 0 1.467 1.2 2.4 2.4 2.4s2.4-1.2 2.4-2.4c0-.267 0-.667-.133-.933l4.667-3.467c.933.533 2.133.4 2.933-.267l4.133 2c.267 1.333 1.467 2 2.667 1.867s2.133-1.2 2.133-2.4v-.133l4.4-2.667c.4.267.933.4 1.333.4 1.467 0 2.4-1.2 2.4-2.4s-1.2-2.4-2.4-2.4z"/></svg>