<svg xmlns="http://www.w3.org/2000/svg" width="32" height="32"><path d="M3.733 24.933a6.2 6.2 0 0 1-3.067-.8c-.533-.267-.667-.933-.4-1.333.933-1.6 1.333-3.467.933-5.2-.533-1.867-1.2-3.333-1.2-5.333 0-6.8 5.733-12.4 12.533-12.267 6.533.133 12 5.733 12 12.267 0 8.667-9.067 14.667-17.067 11.333-.933.933-2.4 1.333-3.733 1.333zM2.4 22.8c1.467.533 3.2.133 4.4-1.067.267-.267.667-.4 1.067-.133 6.8 3.333 14.8-1.733 14.8-9.333 0-5.6-4.533-10.267-10.133-10.4-5.867-.133-10.667 4.667-10.667 10.4 0 1.867.667 3.333 1.067 5.067.533 1.867.267 3.867-.533 5.467z"/><path d="M28.267 32c-1.333 0-2.8-.533-3.867-1.333-4.267 1.733-9.333.933-12.8-2-.4-.4-.4-.933-.133-1.333.4-.4.933-.4 1.333-.133 3.067 2.667 7.6 3.2 11.333 1.467.4-.133.8-.133 1.067.133 1.2 1.067 2.8 1.467 4.4 1.067-.933-2-1.067-4.267-.4-6.4.533-1.333.8-2.667.8-4.133 0-2.533-.8-4.8-2.4-6.667-.4-.4-.267-1.067.133-1.333.4-.4 1.067-.267 1.333.133 1.867 2.133 2.8 4.933 2.8 7.867 0 1.6-.267 3.333-.933 4.8-.667 2-.4 4 .667 5.733.267.533.133 1.067-.4 1.333-.8.533-1.867.8-2.933.8z"/></svg>