<svg xmlns="http://www.w3.org/2000/svg" width="32" height="32"><path d="M28.533 8.4c-.533-1.467-1.6-1.2-2.8-.933-.667.133-3.867 1.2-8.8 6.267-2.133 2.133-3.467 3.867-4.267 5.2-.533-.667-1.2-1.467-1.867-2-2-2-4.267-3.467-4.4-3.467-.8-.533-2.133-.267-2.667.667s-.267 2.133.667 2.667c0 0 2 1.333 3.733 2.8 1.733 1.733 3.333 4 3.333 4 .4.533.933.8 1.733.8h.267c.8-.133 1.467-.667 1.6-1.6 0 0 .8-2.267 4.933-6.667 3.467-3.6 5.733-4.667 6.4-4.933h.266c.4-.133.933-.4.933-.4 1.067-.267 1.333-1.333.933-2.4z"/></svg>