<svg xmlns="http://www.w3.org/2000/svg" width="32" height="32"><path d="M29.333 18.933H26.4v-5.867h2.933c.533 0 1.067-.4 1.067-1.067s-.533-1.067-1.067-1.067H26.4v-1.6c0-2-1.6-3.733-3.733-3.733h-1.6V2.666c0-.533-.4-1.067-1.067-1.067s-1.067.533-1.067 1.067v2.933h-5.867V2.666c0-.533-.4-1.067-1.067-1.067s-1.067.533-1.067 1.067v2.933h-1.6c-2 0-3.733 1.733-3.733 3.733v1.6H2.666c-.533 0-1.067.533-1.067 1.067s.533 1.067 1.067 1.067h2.933v6H2.666c-.533 0-1.067.4-1.067 1.067s.4 1.067 1.067 1.067h2.933v1.467c0 2 1.6 3.733 3.733 3.733h1.6v2.933c0 .533.4 1.067 1.067 1.067s1.067-.4 1.067-1.067V26.4h6v2.933c0 .533.4 1.067 1.067 1.067S21.2 30 21.2 29.333V26.4h1.467c2 0 3.733-1.6 3.733-3.733v-1.6h2.933c.533 0 1.067-.4 1.067-1.067s-.533-1.067-1.067-1.067zm-5.066 3.734c0 .933-.8 1.6-1.6 1.6H9.334c-.933 0-1.6-.8-1.6-1.6V9.334c0-.933.8-1.6 1.6-1.6h13.333c.933 0 1.6.8 1.6 1.6v13.333z"/><path d="M18.667 10.933h-5.333a2.39 2.39 0 0 0-2.4 2.4v5.333a2.39 2.39 0 0 0 2.4 2.4h5.333a2.39 2.39 0 0 0 2.4-2.4v-5.333a2.39 2.39 0 0 0-2.4-2.4zm.266 7.734a.287.287 0 0 1-.267.267h-5.333a.287.287 0 0 1-.267-.267v-5.333c0-.133.133-.267.267-.267h5.333c.133 0 .267.133.267.267v5.333z"/></svg>