<svg xmlns="http://www.w3.org/2000/svg" width="32" height="32"><path d="M16 3.733C9.2 3.733 3.733 9.2 3.733 16S9.2 28.267 16 28.267 28.267 22.8 28.267 16 22.8 3.733 16 3.733zM1.6 16C1.6 8.133 8.133 1.6 16 1.6S30.4 8 30.4 16c0 7.867-6.4 14.4-14.4 14.4-7.867 0-14.4-6.533-14.4-14.4z"/><path d="M14.933 22.667c0-.533.4-1.067 1.067-1.067.533 0 1.067.4 1.067 1.067s-.4 1.067-1.067 1.067c-.533 0-1.067-.533-1.067-1.067zm1.6-12.267c-.533-.133-1.2 0-1.733.133-.533.267-1.067.667-1.333 1.067-.267.533-.4 1.2-.4 1.733S12.667 14.4 12 14.4s-1.067-.533-1.067-1.067c0-.933.267-2 .8-2.8S13.066 9.066 14 8.666c.933-.4 1.867-.533 2.933-.267.933.133 1.867.667 2.533 1.333s1.2 1.6 1.333 2.533c.133.933.133 2-.267 2.933s-1.067 1.733-1.867 2.267c-.533.4-1.2.667-1.733.8v.4c0 .533-.4 1.067-1.067 1.067s-1.067-.4-1.067-1.067v-1.333c0-.533.4-1.067 1.067-1.067.533 0 1.2-.133 1.6-.533s.933-.8 1.067-1.333c.267-.533.267-1.2.133-1.733s-.4-1.067-.8-1.6c-.133-.267-.667-.533-1.333-.667z"/></svg>