<svg xmlns="http://www.w3.org/2000/svg" width="32" height="32"><path d="M16 3.733C9.2 3.733 3.733 9.2 3.733 16S9.2 28.267 16 28.267 28.267 22.8 28.267 16 22.8 3.733 16 3.733zM1.6 16C1.6 8.133 8.133 1.6 16 1.6S30.4 8 30.4 16c0 7.867-6.4 14.4-14.4 14.4-7.867 0-14.4-6.533-14.4-14.4z"/><path d="M10 12.533c.4-.4 1.067-.267 1.467.133L16 18.399l4.533-5.733c.4-.4.933-.533 1.467-.133.4.4.533.933.133 1.467L16.8 20.667c-.133.267-.533.4-.8.4s-.533-.133-.8-.4L9.867 14c-.267-.533-.267-1.067.133-1.467z"/></svg>