<svg xmlns="http://www.w3.org/2000/svg" width="32" height="32"><path d="M16 3.733C9.2 3.733 3.733 9.2 3.733 16S9.2 28.267 16 28.267 28.267 22.8 28.267 16 22.8 3.733 16 3.733zM1.6 16C1.6 8.133 8.133 1.6 16 1.6S30.4 8 30.4 16c0 7.867-6.4 14.4-14.4 14.4-7.867 0-14.4-6.533-14.4-14.4zm19.067-4.667c.4.4.4 1.067 0 1.467l-3.2 3.2 3.333 3.333c.4.4.4 1.067 0 1.467s-1.067.4-1.467 0L16 17.467 12.667 20.8c-.4.4-1.067.4-1.467 0s-.4-1.067 0-1.467L14.533 16l-3.2-3.333c-.4-.4-.4-1.067 0-1.467s1.067-.4 1.467 0l3.333 3.333 3.333-3.333c.267-.267.8-.267 1.2.133z"/></svg>