<svg xmlns="http://www.w3.org/2000/svg" width="32" height="32"><path d="M27.867 5.333a3.642 3.642 0 0 0-2.533-1.067h-1.867c-.4-1.6-1.733-2.667-3.467-2.667h-8c-1.6 0-3.067 1.067-3.467 2.667H6.666c-.933 0-1.867.4-2.533 1.2a3.642 3.642 0 0 0-1.067 2.533v18.533c0 .933.4 1.867 1.067 2.533s1.6 1.067 2.533 1.067h18.667c.933 0 1.867-.4 2.533-1.067s1.067-1.6 1.067-2.533V7.865c0-.933-.4-1.867-1.067-2.533zM12 3.733h8c.8 0 1.6.667 1.6 1.467v.133c0 .4-.133.8-.533 1.2-.267.267-.8.533-1.2.533H12c-.933-.133-1.6-.8-1.6-1.733s.8-1.6 1.6-1.6zm15.2 22.934c0 .4-.133.8-.533 1.2s-.8.533-1.2.533H6.8c-.4 0-.933-.267-1.2-.533-.4-.4-.533-.8-.533-1.2V8c0-.4.133-.8.4-1.067.4-.4.8-.533 1.2-.533h1.867c.133.533.4 1.067.8 1.6.8.667 1.733 1.067 2.667 1.067v-.133h8.267c1.6 0 3.067-1.067 3.467-2.667h1.733c.4 0 .933.267 1.2.533.4.4.533.8.533 1.2v18.667z"/></svg>