<svg xmlns="http://www.w3.org/2000/svg" width="32" height="32"><path d="M17.067 3.733c-2-.267-4 .267-5.733 1.333s-2.8 2.8-3.333 4.8c-.133.267-.4.533-.667.667-.933.267-1.733.8-2.4 1.467s-1.067 1.6-1.2 2.533c-.133.933 0 1.867.4 2.8s1.067 1.6 1.733 2.133c.4.267.533.933.267 1.333s-.933.533-1.333.267c-1.067-.8-2-1.733-2.533-3.067-.533-1.2-.667-2.533-.533-3.867a8.805 8.805 0 0 1 1.6-3.6c.8-.8 1.733-1.467 2.8-1.867.667-2.133 2.133-4.133 4.133-5.333 2.133-1.333 4.667-2 7.067-1.6 2.533.267 4.8 1.6 6.4 3.467 1.467 1.733 2.4 3.733 2.533 6 .933.267 1.733.8 2.4 1.467.8.8 1.467 2 1.6 3.2s0 2.4-.533 3.467c-.533 1.067-1.467 2-2.533 2.4-.533.267-1.067 0-1.333-.533s0-1.067.533-1.333c.667-.4 1.333-.933 1.6-1.6.4-.667.533-1.467.4-2.267s-.533-1.467-1.067-2c-.533-.533-1.333-.933-2-1.067-.533-.133-.8-.533-.8-.933 0-2-.667-4-2-5.467-1.6-1.6-3.467-2.533-5.467-2.8z"/><path d="M16 18.933c.533 0 1.067.4 1.067 1.067v9.333c0 .533-.4 1.067-1.067 1.067s-1.067-.4-1.067-1.067V20c0-.533.533-1.067 1.067-1.067zm5.333-4c.533 0 1.067.4 1.067 1.067v9.333c0 .533-.4 1.067-1.067 1.067s-1.067-.4-1.067-1.067V16c0-.533.533-1.067 1.067-1.067zm-10.666 0c.533 0 1.067.4 1.067 1.067v9.333c0 .533-.4 1.067-1.067 1.067-.533 0-1.067-.4-1.067-1.067V16c0-.533.533-1.067 1.067-1.067z"/></svg>