<svg xmlns="http://www.w3.org/2000/svg" width="32" height="32"><path d="M17.067 7.733c-2-.267-4 .267-5.733 1.333s-2.8 2.8-3.333 4.8c-.133.4-.4.667-.667.667-1.2.4-2.133 1.067-2.8 2.133s-.933 2.267-.8 3.467c.133 1.2.8 2.267 1.733 3.067S7.6 24.4 8.8 24.4h16c.933 0 1.867-.4 2.533-1.067s1.067-1.6 1.067-2.533c0-.933-.267-1.733-.933-2.4-.533-.667-1.333-1.067-2.267-1.2-.533-.133-.8-.533-.8-.933 0-2-.667-4-2-5.467-1.467-1.867-3.333-2.8-5.333-3.067zm-6.8-.266c2.133-1.333 4.667-2 7.067-1.6 2.533.267 4.8 1.6 6.4 3.467 1.467 1.733 2.4 3.733 2.533 6 1.067.267 2 .933 2.667 1.733.933 1.067 1.333 2.4 1.333 3.733 0 1.467-.533 2.933-1.6 4s-2.533 1.6-4 1.6h-16a6.84 6.84 0 0 1-4.533-1.733C2.801 23.6 2.001 22 1.734 20.4c-.267-1.733.133-3.333 1.067-4.8.8-1.2 2-2.267 3.333-2.8.8-2.267 2.133-4.133 4.133-5.333z"/></svg>