<svg xmlns="http://www.w3.org/2000/svg" width="32" height="32"><path d="M2 21.467 15.467 30.4c.533.267.933.267 1.467 0l13.467-8.933c.4-.267.667-.667.667-1.067v-8.933c0-.4-.267-.8-.667-1.067l-13.6-8.933c-.533-.267-.933-.267-1.467 0L2.001 10.4c-.4.4-.667.667-.667 1.067V20.4c0 .533.267.8.667 1.067zm12.8 5.466L4.933 20.4l4.4-2.933L14.8 21.2v5.733zm2.4 0v-5.867l5.467-3.733 4.4 2.933-9.867 6.667zm10.933-8.8L25.066 16l3.2-2.133-.133 4.267zM17.2 5.067l9.867 6.533-4.4 2.933L17.2 10.8V5.067zm-1.2 8L20.4 16 16 18.933 11.6 16l4.4-2.933zm-1.2-8v5.867l-5.467 3.6-4.4-3.067 9.867-6.4zm-10.933 8.8L6.934 16l-3.2 2.133.133-4.267z"/></svg>