<svg xmlns="http://www.w3.org/2000/svg" width="32" height="32"><path d="M7.067 4.4c1.067-.933 2.267-1.467 3.6-1.467H12c.533 0 1.067.4 1.067 1.067S12.534 5.067 12 5.067h-1.333c-.8 0-1.6.267-2.133.8S7.734 7.2 7.734 8v4c0 1.333-.533 2.533-1.467 3.6-.133.133-.4.267-.533.4.133.133.4.267.533.4.933 1.067 1.467 2.267 1.467 3.6v5.333c0 .8.267 1.6.933 2.133.533.533 1.333.933 2.133.933h1.333c.533 0 1.067.4 1.067 1.067s-.667.933-1.2.933h-1.333c-1.333 0-2.533-.533-3.6-1.467-.933-1.067-1.467-2.267-1.467-3.6v-5.333c0-.8-.267-1.6-.933-2.133-.533-.533-1.333-.933-2.133-.933-.533 0-1.067-.4-1.067-1.067s.4-1.067 1.067-1.067c.8 0 1.6-.267 2.133-.933.667-.267.933-1.067.933-1.867v-4c0-1.333.533-2.533 1.467-3.6zM18.933 4c0-.533.4-1.067 1.067-1.067h1.333c1.333 0 2.533.533 3.6 1.467C25.866 5.467 26.4 6.667 26.4 8v4c0 .8.267 1.6.933 2.133.533.533 1.333.933 2.133.933.533 0 1.067.4 1.067 1.067s-.4 1.067-1.067 1.067c-.8 0-1.6.267-2.133.933-.533.533-.933 1.333-.933 2.133v5.333c0 1.333-.533 2.533-1.467 3.6-.933.933-2.267 1.467-3.6 1.467H20c-.533 0-1.067-.4-1.067-1.067s.4-1.067 1.067-1.067h1.333c.8 0 1.6-.267 2.133-.933.533-.533.933-1.333.933-2.133v-5.333c0-1.333.533-2.533 1.467-3.6.133-.133.4-.267.533-.4-.133-.133-.4-.267-.533-.4-.933-.933-1.467-2.267-1.467-3.6V8c0-.8-.267-1.6-.933-2.133-.533-.533-1.333-.933-2.133-.933H20c-.533.133-1.067-.4-1.067-.933z"/></svg>