<svg xmlns="http://www.w3.org/2000/svg" width="32" height="32"><path d="m28.667 4.667-7.6 7.6h5.6c.533 0 1.067.4 1.067 1.067s-.4 1.067-1.067 1.067h-8c-.133 0-.267 0-.4-.133a1.039 1.039 0 0 1-.533-.533c0-.133-.133-.267-.133-.4v-8c0-.533.4-1.067 1.067-1.067s1.067.4 1.067 1.067v5.6l7.6-7.6c.4-.4 1.067-.4 1.467 0 .267.4.267.933-.133 1.333zm-14.267 14v8c0 .533-.4 1.067-1.067 1.067s-1.067-.533-1.067-1.067v-5.6l-7.6 7.6c-.4.4-1.067.4-1.467 0s-.4-1.067 0-1.467l7.6-7.6H5.332c-.533 0-1.067-.4-1.067-1.067s.4-1.067 1.067-1.067h8c.133 0 .267 0 .4.133.267.133.4.267.533.533 0 .267.133.4.133.533z"/></svg>