<svg xmlns="http://www.w3.org/2000/svg" width="32" height="32"><path d="M25.333 20.267H22.4v-8.533h2.933c1.333 0 2.667-.533 3.6-1.467.8-.933 1.467-2.267 1.467-3.6s-.533-2.667-1.467-3.6c-.933-.8-2.267-1.467-3.6-1.467s-2.667.533-3.6 1.467c-.8.933-1.467 2.267-1.467 3.6V9.6h-8.533V6.667c0-1.333-.533-2.667-1.467-3.6-.933-.8-2.267-1.467-3.6-1.467s-2.667.667-3.6 1.467c-.8.933-1.467 2.267-1.467 3.6s.533 2.667 1.467 3.6c.933.8 2.267 1.467 3.6 1.467h2.933v8.667H6.666c-1.333 0-2.667.533-3.6 1.467-.8.8-1.467 2.133-1.467 3.467s.533 2.667 1.467 3.6c.933.8 2.267 1.467 3.6 1.467s2.667-.533 3.6-1.467c.8-.933 1.467-2.267 1.467-3.6v-2.933H20.4v2.933c0 1.333.533 2.667 1.467 3.6s2.267 1.467 3.6 1.467 2.667-.533 3.6-1.467c.933-.933 1.467-2.267 1.467-3.6s-.533-2.667-1.467-3.6c-1.067-.8-2.4-1.467-3.733-1.467zM9.6 25.333c0 .8-.267 1.6-.933 2.133-.533.533-1.333.933-2.133.933s-1.467-.4-2-.933c-.533-.533-.933-1.333-.933-2.133s.267-1.6.933-2.133c.533-.533 1.333-.933 2.133-.933H9.6v3.067zM9.6 9.6H6.667c-.8 0-1.6-.267-2.133-.8s-.8-1.333-.8-2.133.267-1.6.8-2.133c.533-.533 1.333-.8 2.133-.8s1.6.267 2.133.8c.533.533.8 1.333.8 2.133V9.6zm12.8-2.933c0-.8.267-1.6.933-2.133.533-.533 1.333-.933 2.133-.933s1.6.267 2.133.933c.533.533.933 1.333.933 2.133s-.533 1.6-1.067 2.133c-.533.533-1.333.933-2.133.933h-2.933V6.666zm-2.133 13.6h-8.533v-8.533h8.667v8.533zm7.2 7.2c-.533.533-1.333.933-2.133.933s-1.6-.267-2.133-.933c-.533-.533-.933-1.333-.933-2.133v-2.933h3.067c.8 0 1.6.267 2.133.933.533.533.933 1.333.933 2.133s-.4 1.467-.933 2z"/></svg>