<svg xmlns="http://www.w3.org/2000/svg" width="32" height="32"><path d="M16 3.733C9.2 3.733 3.733 9.2 3.733 16S9.2 28.267 16 28.267 28.267 22.8 28.267 16 22.8 3.733 16 3.733zM1.6 16C1.6 8.133 8.133 1.6 16 1.6S30.4 8 30.4 16c0 7.867-6.4 14.4-14.4 14.4-7.867 0-14.4-6.533-14.4-14.4z"/><path d="M22 10c.267.267.4.533.267.933l-2 8.667a1.2 1.2 0 0 1-.8.8l-8.667 2c-.4.133-.667 0-.933-.267s-.4-.533-.267-.933l2-8.667c.133-.4.4-.667.8-.8l8.667-2c.4-.133.667 0 .933.267zm-8.533 3.467L12 20l6.533-1.467L20 12l-6.533 1.467z"/></svg>