<svg xmlns="http://www.w3.org/2000/svg" width="32" height="32"><path d="M29.2 10.8a3.642 3.642 0 0 0-2.533-1.067H22.4v-4.4c0-2-1.6-3.733-3.733-3.733H5.334c-2 0-3.733 1.733-3.733 3.733v13.333c0 2 1.6 3.733 3.733 3.733h4.267v4.267c0 .933.4 1.867 1.067 2.533s1.6 1.067 2.533 1.067h13.333c.933 0 1.867-.4 2.533-1.067s1.067-1.6 1.067-2.533V13.333c.267-.933-.133-1.867-.933-2.533zM5.333 20.267c-.933 0-1.6-.8-1.6-1.6V5.334c0-.933.8-1.6 1.6-1.6h13.333c.933 0 1.6.8 1.6 1.6v13.333c0 .267 0 .4-.133.667-.133.133-.267.4-.4.533s-.267.267-.533.4c-.133.133-.4.133-.667.133h-13.2zm22.934 6.4c0 .4-.133.933-.533 1.2-.267.267-.667.533-1.2.533h-13.2c-.4 0-.933-.133-1.2-.533-.267-.267-.533-.667-.533-1.2V22.4h7.467c.133 0 .4 0 .533-.133h.133c.133 0 .133 0 .267-.133h.133c.267-.133.4-.267.667-.267.133-.133.4-.267.533-.4s.267-.4.4-.533.267-.4.267-.667v-.133c0-.133 0-.133.133-.267v-.133c0-.133.133-.267.133-.533v-7.467h4.4c.4 0 .933.133 1.2.533.267.267.533.667.533 1.2v13.2z"/></svg>