<svg xmlns="http://www.w3.org/2000/svg" width="32" height="32"><path d="M30.4 25.333c0 .533-.4 1.067-1.067 1.067H26.4v2.933c0 .533-.4 1.067-1.067 1.067s-1.067-.4-1.067-1.067V26.4H9.333c-.933 0-1.867-.4-2.533-1.067s-1.067-1.6-1.067-2.533V7.733H2.666c-.533 0-1.067-.533-1.067-1.067s.533-1.067 1.067-1.067h2.933V2.666c0-.533.4-1.067 1.067-1.067s1.067.533 1.067 1.067v20c0 .4.133.933.533 1.2.267.267.667.533 1.2.533h20c.4-.133.933.4.933.933z"/><path d="M10.933 6.667c0-.533.4-1.067 1.067-1.067h10.667c.933 0 1.867.4 2.533 1.067s1.067 1.6 1.067 2.533v10.667c0 .533-.4 1.067-1.067 1.067s-1.067-.4-1.067-1.067V9.334c0-.4-.133-.8-.533-1.2-.267-.267-.8-.533-1.2-.533H12c-.533.133-1.067-.4-1.067-.933z"/></svg>