<svg xmlns="http://www.w3.org/2000/svg" width="32" height="32"><path d="M16 1.6C8.133 1.6 1.6 8.133 1.6 16S8.133 30.4 16 30.4 30.4 23.867 30.4 16 23.867 1.6 16 1.6zm1.067 26.667V24c0-.533-.4-1.067-1.067-1.067s-1.067.4-1.067 1.067v4.267c-6-.533-10.8-5.333-11.333-11.333H8c.533 0 1.067-.4 1.067-1.067s-.533-.933-1.067-.933H3.733c.533-6 5.333-10.8 11.333-11.333v4.4c0 .533.4 1.067 1.067 1.067s1.067-.4 1.067-1.067V3.734c6 .533 10.8 5.333 11.333 11.333H24c-.533 0-1.067.4-1.067 1.067s.4 1.067 1.067 1.067h4.267c-.4 5.867-5.2 10.667-11.2 11.067z"/></svg>