<svg xmlns="http://www.w3.org/2000/svg" width="32" height="32"><path d="M29.2 13.467a3.642 3.642 0 0 0-2.533-1.067H22.4v-1.733c0-.533-.4-1.067-1.067-1.067H2.666c-.533 0-1.067.533-1.067 1.067v16c0 .933.4 1.867 1.067 2.533s1.6 1.067 2.533 1.067h13.333c.933 0 1.867-.4 2.533-1.067s1.067-1.6 1.067-2.533v-1.6h4.533c.933 0 1.867-.4 2.533-1.067s1.067-1.6 1.067-2.533v-5.333c.133-1.067-.267-2-1.067-2.667zm-8.933 13.2c0 .4-.133.933-.533 1.2-.267.267-.667.533-1.2.533h-13.2c-.4 0-.933-.133-1.2-.533-.267-.267-.533-.667-.533-1.2V11.734h16.667v14.933zm8-5.334c0 .4-.133.933-.533 1.2-.267.267-.667.533-1.2.533h-4.267v-8.667h4.4c.4 0 .933.133 1.2.533.267.267.533.667.533 1.2v5.2zM6.667 1.067c.533 0 1.067.4 1.067 1.067v4c0 .533-.4 1.067-1.067 1.067S5.6 6.534 5.6 6.001v-4c0-.533.533-.933 1.067-.933zm5.333 0c.533 0 1.067.4 1.067 1.067v4c0 .533-.4 1.067-1.067 1.067s-1.067-.667-1.067-1.2v-4c0-.533.533-.933 1.067-.933zm5.333 0c.533 0 1.067.4 1.067 1.067v4c0 .533-.4 1.067-1.067 1.067s-1.067-.4-1.067-1.067v-4c0-.667.533-1.067 1.067-1.067z"/></svg>