<svg xmlns="http://www.w3.org/2000/svg" width="32" height="32"><path d="M29.2 9.467A3.642 3.642 0 0 0 26.667 8.4H22.4V6.667c0-.533-.4-1.067-1.067-1.067H2.666c-.533 0-1.067.533-1.067 1.067v16c0 .933.4 1.867 1.067 2.533s1.6 1.067 2.533 1.067h13.333c.933 0 1.867-.4 2.533-1.067s1.067-1.6 1.067-2.533v-1.6h4.533c.933 0 1.867-.4 2.533-1.067s1.067-1.6 1.067-2.533V12c.133-.933-.267-1.867-1.067-2.533zm-8.933 13.2c0 .4-.133.933-.533 1.2-.267.267-.667.533-1.2.533h-13.2c-.4 0-.933-.133-1.2-.533-.267-.267-.533-.667-.533-1.2V7.734h16.667v14.933zm8-5.334c0 .4-.133.933-.533 1.2-.267.267-.667.533-1.2.533h-4.267v-8.667h4.4c.4 0 .933.133 1.2.533.267.267.533.667.533 1.2v5.2z"/></svg>