<svg xmlns="http://www.w3.org/2000/svg" width="32" height="32"><path d="M27.867 11.333H4.134c-1.067 0-2.133.933-2.133 2.133v14.667c0 1.067.933 2.133 2.133 2.133h23.867c1.067 0 2.133-.933 2.133-2.133V13.466c-.133-1.2-1.067-2.133-2.267-2.133zM26.533 16.8v7.6c0 1.067-.8 2.133-2.133 2.133H18c-1.067 0-2.133-.933-2.133-2.133v-7.6c0-1.067.8-2.133 2.133-2.133h6.4c1.2.133 2.133 1.067 2.133 2.133zM12.8 21.2H6.4c-.533 0-.8-.4-.8-.8s.4-.8.8-.8h6.4c.533 0 .8.4.8.8s-.267.8-.8.8zm.933 2.667c0 .533-.4.8-.8.8H6.4c-.533 0-.8-.4-.8-.8s.4-.8.8-.8h6.4c.533 0 .933.4.933.8zm-.933-6.134H6.4c-.533 0-.8-.4-.8-.8 0-.533.4-.8.8-.8h6.4c.533 0 .8.4.8.8.133.4-.267.8-.8.8zM27.867 2H13.334c-1.067 0-2.133.933-2.133 2.133v2.933c0 1.067.933 2.133 2.133 2.133h14.667c1.067 0 2.133-.933 2.133-2.133V4.133C30.001 2.933 29.067 2 27.867 2zm-22.4 6.933c2 0 3.467-1.467 3.467-3.467S7.467 1.999 5.467 1.999 2 3.599 2 5.599s1.6 3.333 3.467 3.333z"/></svg>