<svg xmlns="http://www.w3.org/2000/svg" width="32" height="32"><path d="M27.733 4.267C27.066 3.734 26 3.2 24.8 2.8 22.533 2 19.333 1.6 16 1.6s-6.533.533-8.8 1.333c-1.2.4-2.133.8-2.933 1.333-.667.533-1.333 1.333-1.333 2.4v18.667c0 .933.667 1.733 1.333 2.4C4.934 28.266 6 28.8 7.2 29.2c2.267.8 5.333 1.2 8.8 1.2s6.533-.4 8.8-1.2c1.2-.4 2.133-.8 2.933-1.467.667-.533 1.333-1.333 1.333-2.4V6.666c0-.933-.667-1.733-1.333-2.4zm-.8 21.066c0 .133 0 .4-.533.8s-1.2.8-2.267 1.067c-2 .667-4.933 1.067-8.133 1.067s-6.133-.4-8.133-1.067c-1.067-.4-1.733-.667-2.267-1.067s-.533-.667-.533-.8V18.8c.667.4 1.333.667 2.133.933 2.267.8 5.333 1.2 8.8 1.2s6.533-.4 8.8-1.2c.8-.267 1.6-.533 2.133-.933v6.533zm0-9.333c0 .133 0 .4-.533.8s-1.2.8-2.267 1.067c-2 .667-4.933 1.067-8.133 1.067s-6.133-.4-8.133-1.067C6.8 17.467 6.134 17.2 5.6 16.8s-.533-.667-.533-.8V9.467c.667.4 1.333.667 2.267.933 2.133.8 5.333 1.333 8.667 1.333s6.533-.4 8.8-1.2c.8-.267 1.6-.667 2.267-.933V16zM26.4 7.467c-.533.4-1.2.8-2.267 1.067-2 .667-4.933 1.067-8.133 1.067s-6.133-.4-8.133-1.067C6.8 8.267 6 7.867 5.6 7.467c-.533-.4-.533-.667-.533-.8s0-.4.533-.8 1.2-.8 2.267-1.067c2-.667 4.933-1.067 8.133-1.067s6.133.4 8.133 1.067c1.067.4 1.733.667 2.267 1.067s.533.667.533.8 0 .4-.533.8z"/></svg>