<svg xmlns="http://www.w3.org/2000/svg" width="32" height="32"><path d="M26.667 5.6h-14.8c-1.067 0-2.133.4-2.8 1.333L3.334 13.6c-1.2 1.333-1.2 3.333 0 4.8l5.733 6.667c.667.8 1.733 1.333 2.8 1.333h14.8c2 0 3.733-1.6 3.733-3.733V9.334c0-2-1.733-3.733-3.733-3.733zm1.6 17.067c0 .933-.8 1.6-1.6 1.6h-14.8c-.533 0-.933-.267-1.333-.533l-5.733-6.667c-.533-.667-.533-1.6 0-2.133l5.733-6.667c.267-.4.8-.533 1.333-.533h14.8c.933 0 1.6.8 1.6 1.6v13.333z"/><path d="M24.667 19.333c.4.4.4 1.067 0 1.467s-1.067.4-1.467 0L20 17.467 16.667 20.8c-.4.4-1.067.4-1.467 0s-.4-1.067 0-1.467L18.533 16 15.2 12.667c-.4-.4-.4-1.067 0-1.467s1.067-.4 1.467 0L20 14.533l3.333-3.333c.4-.4 1.067-.4 1.467 0s.4 1.067 0 1.467L21.467 16l3.2 3.333z"/></svg>