<svg xmlns="http://www.w3.org/2000/svg" width="32" height="32"><path d="M16 4.667c-.267 0-.4 0-.667.133-.133.133-.4.267-.533.4l-1.333 1.333A3.642 3.642 0 0 1 10.934 7.6l-1.6.133c-.4 0-.8.133-1.2.533-.267.267-.4.667-.4 1.067v1.6c0 .933-.4 1.867-1.067 2.533l-1.333 1.333a1.843 1.843 0 0 0-.4.533c-.133.133-.133.4-.133.667s0 .4.133.667c.133.133.267.4.4.533l1.333 1.333a3.642 3.642 0 0 1 1.067 2.533v1.6c0 .4.133.8.533 1.2s.8.533 1.2.533h1.6c.933 0 1.867.4 2.533 1.067l1.333 1.333c.133.133.267.267.533.4.133.133.4.133.667.133s.4 0 .667-.133c.133-.133.4-.267.533-.4l1.333-1.333a3.642 3.642 0 0 1 2.533-1.067h1.6c.4 0 .8-.133 1.2-.533.267-.267.533-.8.533-1.2v-1.6c0-.933.4-1.867 1.067-2.533l1.333-1.333c.133-.133.267-.267.4-.533.133-.133.133-.4.133-.667s0-.4-.133-.667-.267-.4-.4-.533l-1.333-1.333a3.642 3.642 0 0 1-1.067-2.533v-1.6c0-.4-.133-.8-.533-1.2-.267-.267-.8-.533-1.2-.533h-1.6a3.64 3.64 0 0 1-2.533-1.067L17.333 5.2a1.843 1.843 0 0 0-.533-.4c-.4 0-.533-.133-.8-.133zm-1.467-1.6c.533-.267.933-.4 1.467-.4s.933.133 1.467.267c.4.133.8.533 1.2.8L20 5.067c.267.267.667.533 1.2.533h1.467c.933 0 1.867.4 2.533 1.067s1.067 1.6 1.067 2.533v1.6c0 .4.133.8.533 1.2l1.333 1.333c.4.267.667.667.8 1.2.133.4.267.933.267 1.467s-.133.933-.267 1.467c-.133.4-.533.8-.8 1.2L26.8 20c-.267.267-.533.667-.533 1.2v1.467c0 .933-.4 1.867-1.067 2.533s-1.6 1.067-2.533 1.067h-1.6c-.4 0-.8.133-1.2.533l-1.333 1.333c-.267.4-.667.667-1.2.8-.4.267-.8.4-1.333.4s-.933-.133-1.467-.267c-.4-.133-.8-.533-1.2-.8l-1.333-1.333c-.267-.267-.667-.533-1.2-.533H9.334c-.933 0-1.867-.4-2.533-1.067s-1.067-1.6-1.067-2.533v-1.6c0-.4-.133-.8-.533-1.2l-1.333-1.333c-.4-.267-.667-.667-.8-1.2-.267-.533-.4-.933-.4-1.467s.133-.933.267-1.467c.133-.4.533-.8.8-1.2L5.068 12c.267-.267.533-.667.533-1.2V9.333c0-.933.4-1.867 1.067-2.533.8-.8 1.733-1.067 2.667-1.067h1.6c.4 0 .8-.133 1.2-.533l1.333-1.333c.267-.4.667-.667 1.067-.8z"/><path d="M10.4 12c0-.933.8-1.6 1.6-1.6h.133c.933 0 1.6.8 1.6 1.6s-.8 1.6-1.6 1.6H12c-.933 0-1.6-.667-1.6-1.6zm8 8c0-.933.8-1.6 1.6-1.6h.133c.933 0 1.6.8 1.6 1.6s-.8 1.6-1.6 1.6H20c-.933 0-1.6-.667-1.6-1.6zm2.267-8.667c.4.4.4 1.067 0 1.467l-8 8c-.4.4-1.067.4-1.467 0s-.4-1.067 0-1.467l8-8c.533-.4 1.067-.4 1.467 0z"/></svg>