<svg xmlns="http://www.w3.org/2000/svg" width="32" height="32"><path d="M7.067 22.667c6.933 2.667 12.933 3.2 19.6-.933 0 .133-1.333 2-4.933 3.067a42.085 42.085 0 0 0 1.733 2.133c2.267 0 4.4-.667 6.267-1.867 1.467-.933 2.267-2.667 2.133-4.4-.267-3.067-1.067-6-2.133-8.8-1.467-3.733-4.8-6.267-8.667-6.667h-.8L20 5.467C24.533 6.8 26.8 8.8 26.8 8.8c-6.933-3.467-15.067-3.467-22-.133 0 0 2.267-2.133 7.067-3.333l-.267-.267c-.533 0-1.067 0-1.467.133-3.6.667-6.667 3.067-8 6.533C1.066 14.666.266 17.733 0 20.8a4.753 4.753 0 0 0 2 4.267c1.867 1.2 4 1.867 6.133 1.867 0 0 .933-1.2 1.733-2.133-3.2-.933-4.533-2.933-4.533-3.067l.667.267c.267.267.667.4 1.067.667zm3.866-2.267c-1.6 0-2.8-1.467-2.8-3.067 0-1.467 1.333-2.8 2.8-2.8 1.6 0 2.8 1.467 2.8 3.067-.133 1.6-1.333 2.8-2.8 2.8zm10 0c-1.6 0-2.8-1.467-2.8-3.067 0-1.467 1.333-2.8 2.8-2.8 1.6 0 2.8 1.467 2.8 3.067s-1.333 2.8-2.8 2.8z"/></svg>