<svg xmlns="http://www.w3.org/2000/svg" width="32" height="32"><path d="M29.2 2.8a3.642 3.642 0 0 0-2.533-1.067H7.6c-.933 0-1.733.267-2.4.933-.667.4-1.067 1.2-1.2 2.133l-1.867 12v.533c0 .4 0 .667.133 1.067.133.533.4.933.8 1.333s.8.667 1.333.933c.533.267 1.067.267 1.6.267h7.733l-.8 5.2v.533c0 .4 0 .667.133 1.067.133.533.4.933.8 1.333s.8.667 1.333.933c.533.267 1.067.267 1.467.267h.667c.4 0 .667-.133.933-.533l5.067-8.8h3.333c.933 0 1.867-.4 2.533-1.067s1.067-1.6 1.067-2.533v-12c.133-.933-.267-1.867-1.067-2.533zm-7.6 16.933L16.667 28.4h-.4c-.267 0-.533 0-.667-.133-.267-.133-.4-.267-.533-.4s-.267-.4-.4-.667c0-.133-.133-.267-.133-.533V26.4l.933-6.267c0-.267 0-.533-.267-.8s-.533-.4-.8-.4H5.733c-.267 0-.533 0-.667-.133-.267-.133-.4-.267-.533-.4s-.267-.4-.267-.667v-.8l1.867-12c0-.4.267-.8.533-1.067s.667-.4 1.067-.4h14v16.267zm6.667-2.4c0 .4-.133.933-.533 1.2-.267.267-.667.533-1.2.533h-2.933V3.733h3.067c.4 0 .933.133 1.2.533.267.267.533.667.533 1.2v11.867z"/></svg>