<svg xmlns="http://www.w3.org/2000/svg" width="32" height="32"><path d="M23.333 16.667c-1.067-1.067-2.533-1.6-4-1.6h-2.4V7.734h5.733c.533 0 1.067-.4 1.067-1.067S23.2 5.6 22.666 5.6h-5.6V2.667c0-.533-.4-1.067-1.067-1.067s-1.067.533-1.067 1.067V5.6h-2.267c-1.467 0-2.933.667-4 1.6-1.067 1.067-1.6 2.533-1.6 4s.667 2.933 1.6 4c1.067 1.067 2.533 1.6 4 1.6h2.4v7.333H9.332c-.533 0-1.067.4-1.067 1.067s.4 1.067 1.067 1.067h5.6v3.067c0 .533.4 1.067 1.067 1.067s1.067-.4 1.067-1.067v-2.933h2.4c1.467 0 2.933-.667 4-1.6 1.067-1.067 1.6-2.533 1.6-4s-.667-3.067-1.733-4.133zm-8.4-1.734h-2.267a3.64 3.64 0 0 1-2.533-1.067c-.8-.667-1.067-1.6-1.067-2.533s.267-1.867 1.067-2.533c.667-.8 1.6-1.067 2.533-1.067h2.4v7.2zm6.934 8.267a3.642 3.642 0 0 1-2.533 1.067h-2.4v-7.333h2.4c.933 0 1.867.4 2.533 1.067s1.067 1.6 1.067 2.533-.267 2-1.067 2.667z"/></svg>