<svg xmlns="http://www.w3.org/2000/svg" width="32" height="32"><path d="M6.267 8c0-.933.8-1.6 1.6-1.6.933 0 1.6.8 1.6 1.6S8.934 9.6 8 9.6c-.933 0-1.733-.667-1.733-1.6zm8 0c0-.933.8-1.6 1.6-1.6.933 0 1.6.8 1.6 1.6S16.934 9.6 16 9.6c-.933 0-1.733-.667-1.733-1.6zm8 0c0-.933.8-1.6 1.6-1.6.933 0 1.6.8 1.6 1.6S24.934 9.6 24 9.6c-.933 0-1.733-.667-1.733-1.6zm-16 8c0-.933.8-1.6 1.6-1.6.933 0 1.6.8 1.6 1.6S8.934 17.6 8 17.6c-.933 0-1.733-.667-1.733-1.6zm8 0c0-.933.8-1.6 1.6-1.6.933 0 1.6.8 1.6 1.6s-.8 1.6-1.6 1.6-1.6-.667-1.6-1.6zm8 0c0-.933.8-1.6 1.6-1.6.933 0 1.6.8 1.6 1.6s-.8 1.6-1.6 1.6-1.6-.667-1.6-1.6zm-16 8c0-.933.8-1.6 1.6-1.6.933 0 1.6.8 1.6 1.6S8.934 25.6 8 25.6c-.933 0-1.733-.667-1.733-1.6zm8 0c0-.933.8-1.6 1.6-1.6.933 0 1.6.8 1.6 1.6s-.8 1.6-1.6 1.6-1.6-.667-1.6-1.6zm8 0c0-.933.8-1.6 1.6-1.6.933 0 1.6.8 1.6 1.6s-.8 1.6-1.6 1.6-1.6-.667-1.6-1.6z"/></svg>