<svg xmlns="http://www.w3.org/2000/svg" width="32" height="32"><path d="M17.067 4c0-.533-.4-1.067-1.067-1.067S14.933 3.466 14.933 4v16.267L10 15.334c-.4-.4-1.067-.4-1.467 0s-.4 1.067 0 1.467l6.667 6.667c.133.133.267.133.267.267.133 0 .267.133.4.133s.267 0 .4-.133a.287.287 0 0 0 .267-.267l6.667-6.667c.4-.4.4-1.067 0-1.467s-1.067-.4-1.467 0l-4.933 4.933V4zm-14.4 13.6c.533 0 1.067.4 1.067 1.067v8c0 .4.133.8.533 1.2.267.267.8.533 1.2.533H26.8c.4 0 .8-.133 1.2-.533s.533-.8.533-1.2v-8c0-.533.4-1.067 1.067-1.067s1.067.4 1.067 1.067v8c0 .933-.4 1.867-1.067 2.533s-1.6 1.067-2.533 1.067H5.334c-.933 0-1.867-.4-2.533-1.067s-1.067-1.6-1.067-2.533v-8c-.133-.533.4-1.067.933-1.067z"/></svg>