<svg xmlns="http://www.w3.org/2000/svg" width="32" height="32"><path d="M25.333 1.6H6.666c-2 0-3.733 1.733-3.733 3.733v21.333c0 2 1.6 3.733 3.733 3.733h18.667c2 0 3.733-1.6 3.733-3.733V5.333c0-2-1.733-3.733-3.733-3.733zm1.6 25.067c0 .933-.8 1.6-1.6 1.6H6.666c-.933 0-1.6-.8-1.6-1.6v-9.6h22v9.6zm0-11.734H5.066v-9.6c0-.933.8-1.6 1.6-1.6h18.667c.933 0 1.6.8 1.6 1.6v9.6z"/><path d="M18.933 9.333c0-.533.4-1.067 1.067-1.067h2.667c.533 0 1.067.4 1.067 1.067s-.533 1.067-1.067 1.067H20c-.533 0-1.067-.533-1.067-1.067zm0 13.334c0-.533.4-1.067 1.067-1.067h2.667c.533 0 1.067.4 1.067 1.067s-.4 1.067-1.067 1.067H20c-.533 0-1.067-.533-1.067-1.067z"/></svg>