<svg xmlns="http://www.w3.org/2000/svg" width="32" height="32"><path d="M16 1.333C8 1.333 1.333 8 1.333 16S8 30.667 16 30.667 30.667 24.134 30.667 16 24.134 1.333 16 1.333zm9.467 6.934c1.6 2.133 2.667 4.667 2.667 7.333-3.067-.667-5.867-.667-8.133-.133-.533-.933-.8-2-1.333-2.933 2.667-1.067 5.067-2.533 6.8-4.267zM24 6.533c-1.867 1.733-4 2.933-6.4 3.867-1.6-3.067-3.2-5.2-4.133-6.533.8-.133 1.733-.267 2.533-.267 3.067 0 5.733 1.2 8 2.933zM11.067 4.8c.8.933 2.4 3.333 4.267 6.533C10.801 12.8 6.267 13.066 4.001 13.2c.933-3.867 3.6-6.933 7.067-8.4zM3.6 15.467c.133 0 .133 0 0 0 1.6 0 4.267-.133 7.6-.8 1.867-.4 3.6-.8 5.2-1.333.4.8.8 1.733 1.2 2.667a28.722 28.722 0 0 0-5.733 2.8c-2.533 1.733-4.4 3.733-5.333 4.933-1.867-2.133-2.933-4.933-2.933-8v-.267zM8.267 25.6c.8-1.067 2.533-3.067 5.067-4.8 1.733-1.067 3.467-2 5.2-2.533 1.067 2.667 2 5.733 2.4 8.933-1.6.667-3.333 1.067-5.067 1.067-2.8.133-5.467-1.067-7.6-2.667zm14.933.267c-.533-2.933-1.333-5.6-2.267-8.133 2.267-.4 4.8-.4 7.2.267-.533 3.2-2.4 6.133-4.933 7.867z"/></svg>