<svg xmlns="http://www.w3.org/2000/svg" width="32" height="32"><path d="M18.933 3.467c-.8-1.067-1.333-2.133-2-2.933l-.4-.4c-.533-.4-1.2-.133-1.6.4-.533.933-1.2 1.867-2 2.933C9.466 8.534 4.4 16.134 4.4 20.4c0 3.2 1.333 6 3.333 8.133C10 30.666 12.8 32 16 32s6-1.333 8.133-3.333c2.133-2.133 3.333-4.933 3.333-8.133 0-4.4-5.067-12-8.533-17.067zm3.6 23.6c-1.733 1.733-4 2.667-6.533 2.667s-4.933-1.067-6.533-2.667c-1.733-1.733-2.667-4-2.667-6.533 0-3.6 4.933-10.933 8.133-15.733.4-.533.8-1.067 1.067-1.6.4.533.667 1.067 1.067 1.6 3.2 4.933 8.133 12.133 8.133 15.733 0 2.533-.933 4.8-2.667 6.533z"/><path d="M22.8 19.733c-.667 0-1.067.4-1.2 1.067 0 .933-.4 1.867-.8 2.667-.533.8-1.2 1.467-2 1.867-.533.267-.8.933-.4 1.467.4.667 1.067.8 1.6.533 1.2-.667 2.133-1.6 2.8-2.667s1.067-2.4 1.067-3.733c0-.667-.533-1.2-1.067-1.2z"/></svg>