<svg xmlns="http://www.w3.org/2000/svg" width="32" height="32"><path d="M24 8.8a30.128 30.128 0 0 0-5.867-5.867c-.667-.533-1.467-.8-2.267-.8s-1.6.267-2.267.8c-1.333 1.333-3.733 3.333-5.6 6-2 2.667-3.6 6-3.6 9.733 0 2.933 1.2 5.733 3.2 8s4.8 3.467 7.733 3.733c1.6.133 3.2-.133 4.667-.667s2.933-1.333 4-2.533c1.2-1.067 2.133-2.4 2.8-3.867s.933-3.067.933-4.667c0-3.867-1.733-7.2-3.733-9.867zm.933 13.733c-.533 1.2-1.333 2.267-2.267 3.2s-2.133 1.6-3.333 2c-1.2.4-2.533.667-3.867.533-2.4-.133-4.667-1.333-6.4-3.067s-2.667-4.133-2.667-6.533c0-3.2 1.333-6.133 3.2-8.667 1.867-2.4 4-4.267 5.467-5.467.267-.267.667-.4 1.067-.4s.667.133 1.067.4c1.467 1.067 3.6 2.933 5.467 5.467.933 1.2 1.733 2.533 2.267 4s.933 2.933.933 4.667c-.267 1.333-.533 2.667-.933 3.867z"/></svg>