<svg xmlns="http://www.w3.org/2000/svg" width="32" height="32"><path d="M29.333 26.933H16c-.533 0-1.067.4-1.067 1.067s.4 1.067 1.067 1.067h13.333c.533 0 1.067-.4 1.067-1.067s-.533-1.067-1.067-1.067zM26.8 5.467l-1.6-1.6C24.533 3.2 23.6 2.8 22.667 2.8s-1.867.4-2.533 1.067L2.401 21.6c-.4.4-.667 1.067-.667 1.6V28c0 .533.4 1.067 1.067 1.067h4.8c.667 0 1.2-.267 1.6-.667l17.6-17.867c.667-.667 1.067-1.6 1.067-2.533s-.4-1.867-1.067-2.533zM25.467 9.2 7.734 26.933s-.133.133-.267.133H3.734v-3.733c0-.133 0-.133.133-.267l17.6-17.867c.267-.267.667-.533 1.2-.533s.933.133 1.2.533l1.6 1.6c.267.267.533.667.533 1.2s-.267.933-.533 1.2z"/></svg>