<svg xmlns="http://www.w3.org/2000/svg" width="32" height="32"><path d="M28 17.6c-.533 0-1.067.4-1.067 1.067v8c0 .4-.133.933-.533 1.2-.267.267-.667.533-1.2.533H5.333c-.4 0-.933-.133-1.2-.533-.267-.267-.533-.667-.533-1.2v-20c0-.4.133-.933.533-1.2.267-.267.8-.4 1.2-.4h8c.533 0 1.067-.4 1.067-1.067s-.533-1.067-1.067-1.067h-8c-.933 0-1.867.4-2.533 1.067-.8.8-1.2 1.733-1.2 2.667v20c0 .933.4 1.867 1.067 2.533s1.6 1.067 2.533 1.067h20c.933 0 1.867-.4 2.533-1.067s1.067-1.6 1.067-2.533v-8c.267-.533-.267-1.067-.8-1.067z"/><path d="m29.467 4.133-1.6-1.6c-.667-.667-1.6-1.067-2.533-1.067s-1.867.4-2.533 1.067L9.068 16.266c-.4.4-.667 1.067-.667 1.6v4.8c0 .533.4 1.067 1.067 1.067h4.8c.667 0 1.2-.267 1.6-.667l13.6-13.867c.667-.667 1.067-1.6 1.067-2.533s-.4-1.867-1.067-2.533zm-1.334 3.734L14.4 21.6s-.133.133-.267.133H10.4V18c0-.133 0-.133.133-.267l13.6-13.867c.267-.267.667-.533 1.2-.533s.933.133 1.2.533l1.6 1.6c.267.267.533.667.533 1.2s-.267.933-.533 1.2z"/></svg>