<svg xmlns="http://www.w3.org/2000/svg" width="32" height="32"><path d="M3.733 16C3.733 9.2 9.2 3.733 16 3.733S28.267 9.2 28.267 16 22.8 28.267 16 28.267 3.733 22.8 3.733 16zM16 1.6C8.133 1.6 1.6 8.133 1.6 16S8 30.4 16 30.4c7.867 0 14.4-6.4 14.4-14.4 0-7.867-6.533-14.4-14.4-14.4zm-5.333 8.8c-.933 0-1.6.667-1.6 1.6s.8 1.6 1.6 1.6c.933 0 1.6-.8 1.6-1.6s-.667-1.6-1.6-1.6zM19.6 12c0-.933.8-1.6 1.6-1.6.933 0 1.6.8 1.6 1.6s-.8 1.6-1.6 1.6-1.6-.667-1.6-1.6zm3.467 7.067c.267-.533 0-1.067-.533-1.333s-1.067 0-1.333.533a5.281 5.281 0 0 1-2.933 2.933c-.667.267-1.467.4-2.267.4s-1.467-.133-2.267-.4c-1.333-.533-2.533-1.6-3.067-2.933-.267-.533-.8-.667-1.333-.533-.533.267-.667.8-.533 1.333.8 1.867 2.267 3.2 4.133 4 .933.4 2 .533 2.933.533 1.067 0 2-.267 2.933-.533 2-.8 3.467-2.267 4.267-4z"/></svg>