<svg xmlns="http://www.w3.org/2000/svg" width="32" height="32"><path d="M16 1.6C8.133 1.6 1.6 8.133 1.6 16S8.133 30.4 16 30.4 30.4 23.867 30.4 16 23.867 1.6 16 1.6zm0 26.667C9.2 28.267 3.733 22.8 3.733 16S9.2 3.733 16 3.733 28.267 9.2 28.267 16 22.8 28.267 16 28.267z"/><path d="M9.067 12c0-.933.8-1.6 1.6-1.6.933 0 1.6.8 1.6 1.6s-.667 1.6-1.6 1.6-1.6-.667-1.6-1.6zM19.6 12c0-.933.8-1.6 1.6-1.6.933 0 1.6.8 1.6 1.6s-.8 1.6-1.6 1.6-1.6-.667-1.6-1.6zm5.2 4.667c-.133-.267-.533-.4-.8-.4H8c-.267 0-.533.133-.8.4-.133.267-.267.533-.267.8v.4c0 .267.133.533.267.8.267.667.667 1.6 1.333 2.533 1.333 1.867 3.6 3.733 7.333 3.733s6-1.867 7.333-3.733c.667-.933 1.067-1.867 1.333-2.533.133-.4.267-.667.267-.8v-.4c.267-.267.133-.533 0-.8zm-3.067 3.466c-1.067 1.467-2.8 2.933-5.733 2.933s-4.667-1.467-5.733-2.933c-.4-.667-.8-1.2-.933-1.733h13.333c-.267.4-.533 1.067-.933 1.733z"/></svg>