<svg xmlns="http://www.w3.org/2000/svg" width="32" height="32"><path d="M16 3.733C9.2 3.733 3.733 9.2 3.733 16S9.2 28.267 16 28.267 28.267 22.8 28.267 16 22.8 3.733 16 3.733zM1.6 16C1.6 8.133 8.133 1.6 16 1.6S30.4 8 30.4 16c0 7.867-6.4 14.4-14.4 14.4-7.867 0-14.4-6.533-14.4-14.4z"/><path d="M9.067 12c0-.933.8-1.6 1.6-1.6.933 0 1.6.8 1.6 1.6s-.667 1.6-1.6 1.6-1.6-.667-1.6-1.6zM19.6 12c0-.933.8-1.6 1.6-1.6.933 0 1.6.8 1.6 1.6s-.8 1.6-1.6 1.6-1.6-.667-1.6-1.6zm-5.867 6.8c-1.333.533-2.4 1.6-3.067 3.067-.267.533-.8.8-1.333.533s-.8-.8-.533-1.333a7.833 7.833 0 0 1 4.133-4.133c.933-.4 2-.533 2.933-.533s2 .267 2.933.533a7.833 7.833 0 0 1 4.133 4.133c.267.533 0 1.067-.533 1.333s-1.067 0-1.333-.533c-.533-1.333-1.6-2.4-3.067-3.067-.667-.267-1.467-.4-2.267-.4s-1.2.133-2 .4z"/></svg>