<svg xmlns="http://www.w3.org/2000/svg" width="32" height="32"><path d="M3.733 16C3.733 9.2 9.2 3.733 16 3.733S28.267 9.2 28.267 16 22.8 28.267 16 28.267 3.733 22.8 3.733 16zM16 1.6C8.133 1.6 1.6 8.133 1.6 16S8 30.4 16 30.4c7.867 0 14.4-6.4 14.4-14.4 0-7.867-6.533-14.4-14.4-14.4zm-5.333 8.8c-.933 0-1.6.667-1.6 1.6s.8 1.6 1.6 1.6c.933 0 1.6-.8 1.6-1.6s-.667-1.6-1.6-1.6zM19.6 12c0-.933.8-1.6 1.6-1.6.933 0 1.6.8 1.6 1.6s-.8 1.6-1.6 1.6-1.6-.667-1.6-1.6zm-6.533 8c0-1.6 1.333-2.933 2.933-2.933S18.933 18.4 18.933 20 17.6 22.933 16 22.933 13.067 21.6 13.067 20zM16 14.933c-2.8 0-5.067 2.267-5.067 5.067S13.2 25.067 16 25.067c2.8 0 5.067-2.267 5.067-5.067S18.8 14.933 16 14.933z"/></svg>