<svg xmlns="http://www.w3.org/2000/svg" width="32" height="32"><path d="M16 3.733C9.2 3.733 3.733 9.2 3.733 16S9.2 28.267 16 28.267 28.267 22.8 28.267 16 22.8 3.733 16 3.733zM1.6 16C1.6 8.133 8.133 1.6 16 1.6S30.4 8 30.4 16c0 7.867-6.4 14.4-14.4 14.4-7.867 0-14.4-6.533-14.4-14.4z"/><path d="M9.067 12c0-.933.8-1.6 1.6-1.6.933 0 1.6.8 1.6 1.6s-.667 1.6-1.6 1.6-1.6-.667-1.6-1.6zM19.6 12c0-.933.8-1.6 1.6-1.6.933 0 1.6.8 1.6 1.6s-.8 1.6-1.6 1.6-1.6-.667-1.6-1.6zM8.267 20c0-.533.4-1.067 1.067-1.067h13.333c.533 0 1.067.4 1.067 1.067s-.4 1.067-1.067 1.067H9.334c-.533 0-1.067-.533-1.067-1.067z"/></svg>