<svg xmlns="http://www.w3.org/2000/svg" width="32" height="32"><path d="M3.733 8.933c.533-.267.667-.267 2.533-.267 3.867 0 4.8.4 4.8-1.6 0-5.6 0-5.333.267-6.133 0-.133-.267.4-7.6 8z"/><path d="M3.467 16.4c.667 3.067 2 4.133 2 4.133 2.533 2.667 6.933 3.2 8.4 2.4 1.6-1.067 2.4-4.667 2.4-4.667.133 2.4 2.933 3.333 4 3.467.133 0 .4 0 .8.133 3.467.933 3.333 4.133 3.333 4 0 2.8-3.2 4.267-4.933 2.533-.533-.533-.533-1.467 0-2 .267-.267.933-.267 1.333-.4.667-.4.667-1.2.533-1.067 0-2.4-5.067-1.067-5.067 2.8 0 5.733 11.333 6.8 12.667-3.467.133 0 1.067-8.4-.533-17.067-.667-3.6-4.133-3.867-5.6-4.133s-4.533-.8-4.533-.8-.4-1.6-1.867-2c-1.067-.267-1.067-.267-2.133-.267-1.333 0-2.133.8-2.267 1.867-.133 5.467.267 6.533-.533 7.333-.933.933-2.533.4-7.067.533-.933.133-1.733.933-1.733 2.267.133 1.6.533 3.333.8 4.4zm18.666-1.867c.533-1.467 3.2-1.2 3.467.4 0 .133 0 .533-.133.533-.4.133-3.2-.133-3.333-.533v-.4z"/></svg>