<svg xmlns="http://www.w3.org/2000/svg" width="32" height="32"><path d="m19.333 11.333 7.6-7.6h-5.6c-.533 0-1.067-.4-1.067-1.067s.4-1.067 1.067-1.067h8c.133 0 .267 0 .4.133.133 0 .267.133.267.267.133.133.267.4.267.667v8c0 .533-.4 1.067-1.067 1.067s-.933-.533-.933-1.067v-5.6l-7.6 7.6c-.4.4-1.067.4-1.467 0-.267-.4-.267-.933.133-1.333zm-6.666 9.334c.4-.4.4-1.067 0-1.467s-1.067-.4-1.467 0l-7.6 7.6v-5.467c0-.533-.4-1.067-1.067-1.067s-.933.533-.933 1.067v8c0 .133 0 .267.133.4 0 .133.133.267.267.267.133.133.4.267.667.267h8c.533 0 1.067-.4 1.067-1.067s-.533-.933-1.067-.933h-5.6l7.6-7.6z"/></svg>