<svg xmlns="http://www.w3.org/2000/svg" width="32" height="32"><path d="M20.267 2.667c0-.533.4-1.067 1.067-1.067h8c.533 0 1.067.4 1.067 1.067v8c0 .533-.4 1.067-1.067 1.067s-1.067-.533-1.067-1.067v-5.6l-11.6 11.6c-.4.4-1.067.4-1.467 0s-.4-1.067 0-1.467L26.8 3.6h-5.467c-.533.133-1.067-.4-1.067-.933zM5.333 6.4c-.4 0-.8.133-1.2.533-.267.267-.4.667-.4 1.067v18.667c0 .4.133.8.533 1.2.267.267.8.533 1.2.533h18.667c.4 0 .8-.133 1.2-.533s.533-.8.533-1.2v-9.333c0-.533.4-1.067 1.067-1.067s1.067.4 1.067 1.067v9.333c0 .933-.4 1.867-1.067 2.533s-1.6 1.067-2.533 1.067H5.333c-.933 0-1.867-.4-2.533-1.067s-1.067-1.6-1.067-2.533V8c0-.933.4-1.867 1.067-2.533.667-.8 1.6-1.2 2.533-1.2h9.333c.533 0 1.067.4 1.067 1.067s-.533 1.067-1.067 1.067H5.333z"/></svg>