<svg xmlns="http://www.w3.org/2000/svg" width="32" height="32"><path d="M16 26.4a3.546 3.546 0 0 1-1.6-.4c-.667-.267-1.067-.8-1.467-1.333s-.533-1.2-.533-2V22l-3.067 3.2c-.533.533-1.2.933-1.867 1.067s-1.467.133-2.133-.133c-.667-.267-1.2-.8-1.733-1.333-.4-.667-.667-1.333-.667-2V9.468c0-.8.267-1.467.667-2.133.4-.533 1.067-1.067 1.733-1.333s1.467-.267 2.133-.133c.667.133 1.333.533 1.867 1.067l2.933 3.2v-.8c0-.667.133-1.333.533-1.867s.933-1.067 1.467-1.333c.667-.267 1.333-.4 2-.4s1.333.267 1.867.667l8.933 6.8c.4.4.8.8 1.067 1.333s.4 1.067.4 1.6c0 .533-.133 1.067-.4 1.6s-.667.933-1.067 1.333l-8.933 6.533c-.533.4-1.2.667-1.867.667 0 .133-.133.133-.267.133zm-2.667-7.867c.133 0 .267 0 .4.133.4.133.667.533.667.933v3.067c0 .267.133.667.267.933s.4.533.667.667c.267.133.533.133.933.133.267 0 .667-.133.8-.4L26 17.466c.267-.133.4-.4.533-.533.133-.267.133-.533.133-.8s0-.533-.133-.8A1.039 1.039 0 0 0 26 14.8L17.067 8c-.267-.133-.533-.267-.8-.267s-.667 0-.933.133c-.267.133-.533.4-.667.667s-.267.533-.267.933v3.333c0 .4-.267.8-.667.933s-.8 0-1.067-.267l-4.8-5.2c-.267-.133-.533-.4-.8-.4-.4-.133-.667-.133-1.067 0-.267.133-.533.4-.667.667-.267.267-.4.533-.267.933v13.2c0 .4.133.667.267.933s.4.533.8.667c.267.133.667.133.933.133.267-.133.667-.267.8-.533l4.667-4.933c.267-.267.533-.4.8-.4zm0 4.134z"/></svg>