<svg xmlns="http://www.w3.org/2000/svg" width="32" height="32"><path d="M28.667 11.733c-.133-.4-.4-.8-.8-1.2L20.134 2.8c-.267-.4-.8-.667-1.2-.8s-.933-.267-1.467-.267h-10.8c-.933 0-1.867.4-2.533 1.067-.8.667-1.2 1.6-1.2 2.533v21.333c0 .933.4 1.867 1.067 2.533s1.6 1.067 2.533 1.067h18.667c.933 0 1.867-.4 2.533-1.067s1.067-1.6 1.067-2.533v-13.6c.267-.4.133-.933-.133-1.333zm-8.934-6.666 5.867 5.867h-4.267c-.4 0-.933-.133-1.2-.533-.267-.267-.533-.667-.533-1.2V5.068zm7.2 21.6c0 .4-.133.933-.533 1.2-.267.267-.667.533-1.2.533H6.667c-.4 0-.933-.133-1.2-.533-.267-.267-.533-.667-.533-1.2V5.334c0-.4.133-.933.533-1.2.267-.267.8-.4 1.2-.4h11.066v5.6c0 .933.4 1.867 1.067 2.533s1.6 1.067 2.533 1.067h5.6v13.733z"/><path d="M22.4 17.333c0 .533-.4 1.067-1.067 1.067H10.666c-.533 0-1.067-.4-1.067-1.067s.4-1.067 1.067-1.067h10.667c.533 0 1.067.533 1.067 1.067zM14.4 12c0 .533-.4 1.067-1.067 1.067h-2.667c-.533 0-1.067-.533-1.067-1.067s.533-1.067 1.067-1.067h2.667c.533 0 1.067.533 1.067 1.067zm8 10.667c0 .533-.4 1.067-1.067 1.067H10.666c-.533 0-1.067-.4-1.067-1.067s.4-1.067 1.067-1.067h10.667c.533 0 1.067.533 1.067 1.067z"/></svg>