<svg xmlns="http://www.w3.org/2000/svg" width="32" height="32"><path d="M29.333 2.667C28.666 2 27.866 1.6 26.933 1.6H5.066c-.8 0-1.733.4-2.4 1.067s-1.067 1.6-1.067 2.4c0 .8.267 1.6.8 2.133l9.6 11.467c.267.267.267.533.267.933v7.067c0 .933.4 1.867 1.067 2.533s1.6 1.067 2.533 1.067 1.867-.4 2.533-1.067a3.642 3.642 0 0 0 1.067-2.533V19.6c0-.267.133-.667.267-.933L29.2 7.334c.533-.667.8-1.333.8-2.133.4-.933 0-1.867-.667-2.533zM28 6l-9.467 11.333a3.624 3.624 0 0 0-.8 2.267v7.067c0 .4-.133.933-.533 1.2-.267.267-.667.533-1.2.533s-.933-.133-1.2-.533c-.267-.267-.533-.667-.533-1.2V19.6c0-.8-.267-1.6-.8-2.267L4 6c-.267-.267-.267-.533-.267-.933s.133-.8.4-1.067c.267-.267.667-.4 1.067-.4h21.733c.4 0 .8.133 1.067.4s.4.667.4 1.067c-.133.4-.133.667-.4.933z"/></svg>