<svg xmlns="http://www.w3.org/2000/svg" width="32" height="32"><path d="M30 3.2c-.267-.133-.533-.267-.933-.133l-4.267 1.2c-1.467.4-2.933.533-4.533.4C18.667 4.4 17.334 4 16 3.2c-1.6-.933-3.467-1.467-5.333-1.733-1.867-.133-3.733.133-5.6.667L2.4 3.067c-.133 0-.267.133-.267.133S2 3.2 2 3.333s-.133.133-.133.267v25.6c0 .533.4 1.067 1.067 1.067s1.067-.4 1.067-1.067v-7.333l1.733-.533c1.2-.4 2.4-.533 3.6-.533h1.2c1.6.133 3.067.667 4.533 1.467 1.6.933 3.2 1.467 5.067 1.6a12.1 12.1 0 0 0 5.333-.4l4.267-1.2c.4-.133.667-.533.667-.933V4.002c0-.267-.267-.667-.4-.8zm-1.733 17.333-3.6 1.067c-1.467.4-2.933.533-4.533.4-1.467-.267-2.8-.667-4.133-1.467-1.6-.933-3.467-1.467-5.333-1.733H9.335c-1.467 0-2.8.267-4.133.667L3.735 20V4.667l2-.667c1.467-.533 3.067-.667 4.667-.533s3.067.667 4.533 1.467c1.6.933 3.333 1.467 5.067 1.733s3.6.133 5.333-.4l2.933-.933v15.2z"/></svg>