<svg xmlns="http://www.w3.org/2000/svg" width="32" height="32"><path d="M30.4 9.592c0-.108-.042-.211-.115-.287s-.174-.119-.278-.119h-.506c-1.28 0-2.554.182-3.785.542a14.71 14.71 0 0 0-.801-3.857l-.173-.491c-.036-.101-.109-.184-.204-.229s-.203-.05-.301-.014l-.476.179a13.712 13.712 0 0 0-4.291 2.587 14.37 14.37 0 0 0-2.833-4.219l-.358-.37a.397.397 0 0 0-.558 0l-.358.37a14.37 14.37 0 0 0-2.833 4.219 13.734 13.734 0 0 0-4.291-2.588l-.476-.179c-.098-.037-.207-.032-.301.014s-.168.128-.204.229l-.173.491a14.742 14.742 0 0 0-.801 3.857 13.482 13.482 0 0 0-3.785-.542h-.506c-.104 0-.205.043-.278.119s-.115.18-.115.287v.523c-.002 3.711 1.394 7.276 3.892 9.944a10.948 10.948 0 0 0-3.494 2.435l-.283.293c-.037.038-.066.082-.085.132s-.03.102-.03.156a.416.416 0 0 0 .115.288l.283.291c1.436 1.492 3.244 2.544 5.224 3.038s4.054.412 5.991-.238a14.333 14.333 0 0 0 2.15 2.874.916.916 0 0 0 .292.202.868.868 0 0 0 .688 0 .9.9 0 0 0 .292-.202 14.3 14.3 0 0 0 2.151-2.874c1.937.65 4.011.732 5.991.238s3.788-1.546 5.224-3.038l.283-.292a.394.394 0 0 0 .085-.132.433.433 0 0 0 0-.312.416.416 0 0 0-.085-.132l-.283-.292a10.951 10.951 0 0 0-3.494-2.436c2.498-2.667 3.894-6.232 3.892-9.942v-.523zm-6.37-3.513.106-.04.038.109c.434 1.232.691 2.523.765 3.831a13.739 13.739 0 0 0-4.295 2.505 14.668 14.668 0 0 0-.855-3.789 12.938 12.938 0 0 1 4.241-2.617zm-8.109-1.82L16 4.177l.08.082a13.535 13.535 0 0 1 2.882 4.482c.633 1.616.958 3.344.956 5.088.005 1.778-.332 3.539-.991 5.181s-1.627 3.134-2.847 4.387l-.079.082-.08-.082a13.698 13.698 0 0 1-3.576-6.88 13.963 13.963 0 0 1 .707-7.814 13.538 13.538 0 0 1 2.869-4.444zm-8.095 1.89.038-.109.106.04a12.944 12.944 0 0 1 4.24 2.617 14.658 14.658 0 0 0-.855 3.789A13.739 13.739 0 0 0 7.06 9.981a13.89 13.89 0 0 1 .766-3.831zm-5.438 3.85H2.5c3.256-.003 6.395 1.251 8.802 3.514-.002.105-.008.209-.008.316-.009 3.646 1.337 7.156 3.76 9.808-3.396-.121-6.614-1.598-8.977-4.12s-3.685-5.892-3.689-9.401V10zm.167 13.08-.005-.005.005-.005a10.155 10.155 0 0 1 3.552-2.388c2.542 2.417 5.867 3.765 9.322 3.778-.662.448-1.373.817-2.117 1.097a.367.367 0 0 0-.116.042l-.009.006c-1.823.657-3.788.768-5.67.321s-3.602-1.434-4.963-2.848v.001zm13.524 5.674a.095.095 0 0 1-.035.031.1.1 0 0 1-.09 0 .095.095 0 0 1-.035-.031 13.489 13.489 0 0 1-1.956-2.582 10.989 10.989 0 0 0 2.035-1.126 11.08 11.08 0 0 0 2.035 1.126 13.458 13.458 0 0 1-1.956 2.582zm13.37-5.68-.004.005c-1.361 1.414-3.082 2.401-4.963 2.848s-3.847.336-5.669-.321l-.009-.006a.393.393 0 0 0-.116-.042 10.175 10.175 0 0 1-2.117-1.097c3.455-.014 6.78-1.361 9.322-3.778a10.156 10.156 0 0 1 3.552 2.387l.004.005zm.163-12.958c-.004 3.509-1.327 6.879-3.69 9.401s-5.581 3.999-8.977 4.12c2.423-2.652 3.769-6.162 3.76-9.808 0-.106-.005-.21-.008-.316 2.407-2.263 5.546-3.516 8.802-3.514h.112v.116z"/></svg>