<svg xmlns="http://www.w3.org/2000/svg" width="32" height="32"><path d="M2.8 4.133c.667-.8 1.6-1.2 2.533-1.2h5.733c.8 0 1.6.267 2.133.667l4 3.067c.267.267.667.4 1.067.4h8.4c.933 0 1.867.4 2.533 1.067s1.067 1.6 1.067 2.533v14.667c0 .933-.4 1.867-1.067 2.533s-1.6 1.067-2.533 1.067H5.333c-.933 0-1.867-.4-2.533-1.067s-1.067-1.6-1.067-2.533V6.667C1.6 5.734 2 4.8 2.8 4.134zm2.533.934c-.4 0-.8.133-1.2.533-.267.267-.4.667-.4 1.067v18.667c0 .4.133.8.533 1.2.267.267.8.533 1.2.533h21.333c.4 0 .8-.133 1.2-.533s.533-.8.533-1.2V10.667c0-.4-.133-.8-.533-1.2-.267-.267-.8-.533-1.2-.533h-8.4c-.8 0-1.6-.267-2.133-.667l-4.133-2.933c-.267-.267-.667-.267-1.067-.267H5.333z"/></svg>