<svg xmlns="http://www.w3.org/2000/svg" width="32" height="32"><path d="M29.2 8.133a3.642 3.642 0 0 0-2.533-1.067h-8.4c-.4 0-.667-.133-1.067-.267l-3.867-3.067a3.624 3.624 0 0 0-2.267-.8H5.333c-.933 0-1.867.4-2.533 1.067-.8.8-1.2 1.733-1.2 2.667v18.667c0 .933.4 1.867 1.067 2.533s1.6 1.067 2.533 1.067h21.333c.933 0 1.867-.4 2.533-1.067s1.067-1.6 1.067-2.533V10.666C30.4 9.733 30 8.799 29.2 8.133zm-.933 17.2c0 .4-.133.933-.533 1.2-.267.267-.667.533-1.2.533h-21.2c-.4 0-.933-.133-1.2-.533-.267-.267-.533-.667-.533-1.2V6.666c0-.4.133-.933.533-1.2.267-.267.8-.4 1.2-.4h5.733c.4 0 .667.133 1.067.267l3.867 2.933c.667.533 1.467.667 2.133.667h8.533c.4 0 .933.133 1.2.533.267.267.533.667.533 1.2v14.667z"/><path d="M21.067 17.333c0 .533-.4 1.067-1.067 1.067h-2.933v2.933c0 .533-.4 1.067-1.067 1.067s-1.067-.4-1.067-1.067V18.4H12c-.533 0-1.067-.4-1.067-1.067s.4-1.067 1.067-1.067h2.933v-2.933c0-.533.4-1.067 1.067-1.067s1.067.4 1.067 1.067v2.933H20c.533 0 1.067.533 1.067 1.067z"/></svg>