<svg xmlns="http://www.w3.org/2000/svg" width="32" height="32"><path d="M4.667 2.933V30c0 1.333.8 1.733 1.067 1.867.4.133 1.467.267 2-.4 8-9.333 8.133-9.467 8.133-9.467.133-.267.267-.133.4-.133h5.2c2.133 0 2.533-1.6 2.667-2.533l2.933-15.2C27.6 1.467 26.934.001 24.4.001H7.733c-2.267 0-3.067 1.733-3.067 2.933zm3.6 1.6c0-.533.4-1.067 1.067-1.067h13.467c.533 0 .933.533.8 1.067l-.667 3.733c-.133.4-.533.8-1.067.8h-6.533c-.8 0-1.333.533-1.333 1.333v.8c0 .8.533 1.333 1.333 1.333h5.6c.533 0 1.067.533.933 1.2-.133.533-.667 3.333-.667 3.733 0 .267-.4.8-1.067.8H15.6c-.8 0-1.067.133-1.6.8 0 0-.533.667-5.467 6.8H8.4L8.267 4.532z"/></svg>