<svg xmlns="http://www.w3.org/2000/svg" width="31" height="32"><path d="M27.008 11.392C25.856 9.6 24.064 8.32 22.016 8.064c-.256 0-.512-.128-.64-.128 0-.128.128-.128.128-.256 1.92-2.56 1.024-6.272 1.024-6.4-.128-.384-.512-.768-.896-.768-.128 0-3.968.128-5.888 2.688-1.536 1.92-1.28 4.736-1.152 6.016a8 8 0 0 0-5.888-1.152c-2.048.384-3.84 1.536-4.992 3.328-1.152 1.792-2.176 4.864-.768 9.728.768 3.072 2.176 5.76 3.968 7.68 1.664 1.664 3.456 2.56 5.376 2.56.384 0 .64 0 1.024-.128.128 0 .256 0 .512-.128 1.024-.256 2.176-.256 3.328 0 .128 0 .256.128.512.128 2.176.384 4.48-.512 6.4-2.56 1.792-1.792 3.2-4.48 3.968-7.552 1.152-4.864.128-7.936-1.024-9.728zM17.152 4.48c.896-1.28 2.688-1.664 3.712-1.92.128 1.024.128 2.816-.896 4.096-.896 1.28-2.688 1.792-3.712 2.048 0-1.28 0-3.072.896-4.224zm8.96 16.256c-.768 2.688-1.92 5.12-3.584 6.784-1.024 1.152-2.688 2.304-4.736 1.92-.128 0-.256 0-.256-.128a7.888 7.888 0 0 0-4.224 0c-.128 0-.256 0-.256.128-2.048.384-3.712-.896-4.736-1.92-1.536-1.664-2.816-3.968-3.584-6.784-1.152-4.352-.256-6.912.64-8.32s2.176-2.304 3.84-2.56c.384-.128.768-.128 1.024-.128 1.664 0 3.328.768 4.608 2.176.128.256.384.256.64.256s.512-.128.64-.256c1.536-1.664 3.584-2.432 5.632-2.048a5.65 5.65 0 0 1 3.84 2.56c.768 1.408 1.664 3.968.512 8.32z"/></svg>