<svg xmlns="http://www.w3.org/2000/svg" width="32" height="32"><path d="M26.667 9.6H26c.533-.667.8-1.333.933-2.133.133-.667.133-1.467-.133-2.133-.133-.667-.533-1.333-1.067-1.867S24.666 2.4 24 2.134a5.52 5.52 0 0 0-2.133-.4h-.4c-1.067 0-2 .267-2.933.933-.8.667-1.467 1.467-1.867 2.4L16 7.467l-.8-2.4c-.4-.933-.933-1.867-1.867-2.4A4.658 4.658 0 0 0 10.4 1.6H10c-.667 0-1.333.267-2 .533s-1.333.8-1.733 1.333c-.533.533-.933 1.2-1.067 1.867C4.933 6 4.933 6.8 5.067 7.466c.133.8.4 1.6.933 2.133h-.667c-2 0-3.733 1.6-3.733 3.733v1.333c0 1.733 1.067 3.067 2.667 3.6v8.4c0 .933.4 1.867 1.067 2.533s1.6 1.067 2.533 1.067h16c.933 0 1.867-.4 2.533-1.067s1.067-1.6 1.067-2.533v-8.4c1.6-.4 2.667-1.867 2.667-3.6v-1.333c.267-2-1.467-3.733-3.467-3.733zM8.133 8.933c-.667-.4-.933-1.067-1.067-1.733-.133-.4 0-.933 0-1.333.133-.4.267-.8.667-1.2C8 4.4 8.4 4.134 8.8 4s.8-.267 1.333-.267h.4c.667 0 1.2.267 1.733.533.4.4.8.8 1.067 1.467l1.333 4H9.999c-.667-.133-1.333-.267-1.867-.8zm6.8 19.334H8c-.4 0-.933-.133-1.2-.533-.267-.267-.533-.667-.533-1.2v-8.267h8.667v10zm0-12h-9.6c-.933 0-1.6-.8-1.6-1.6v-1.333c0-.933.8-1.6 1.6-1.6h9.6v4.533zm3.734-10.534c.133-.533.533-1.067 1.067-1.467s1.067-.533 1.733-.533h.4c.4 0 .933.133 1.333.267s.8.4 1.067.8c.267.267.533.667.667 1.2.133.4.133.8 0 1.333-.133.667-.533 1.333-1.067 1.867-.533.4-1.2.667-1.867.667h-4.667l1.333-4.133zM25.6 26.667c0 .4-.133.933-.533 1.2-.267.267-.667.533-1.2.533h-6.933v-10h8.667v8.267zm2.667-12c0 .933-.8 1.6-1.6 1.6h-9.6v-4.533h9.6c.933 0 1.6.8 1.6 1.6v1.333z"/></svg>