<svg xmlns="http://www.w3.org/2000/svg" width="32" height="32"><path d="M16 .667C7.2.667 0 7.734 0 16.4c0 6.933 4.533 12.8 10.933 14.933.8.133 1.067-.4 1.067-.8v-2.667c-4.4.933-5.333-2.133-5.333-2.133-.667-1.867-1.733-2.267-1.733-2.267-1.467-.933.133-.933.133-.933 1.6.133 2.4 1.6 2.4 1.6 1.467 2.4 3.733 1.733 4.667 1.333.133-1.067.533-1.733 1.067-2.133-3.6-.4-7.333-1.733-7.333-7.733 0-1.733.667-3.067 1.6-4.267-.267-.4-.8-2 .133-4.133 0 0 1.333-.4 4.4 1.6 1.333-.4 2.667-.533 4-.533s2.667.133 4 .533c3.067-2 4.4-1.6 4.4-1.6.8 2.133.267 3.733.133 4.133 1.067 1.067 1.6 2.533 1.6 4.267 0 6-3.733 7.333-7.333 7.733.533.533 1.067 1.467 1.067 2.933v4.267c0 .4.267.933 1.067.8 6.4-2 10.933-8 10.933-14.933C32.001 7.733 24.801.667 16.001.667z"/></svg>