<svg xmlns="http://www.w3.org/2000/svg" width="32" height="32"><path d="M16 1.6C8.133 1.6 1.6 8.133 1.6 16S8.133 30.4 16 30.4 30.4 23.867 30.4 16 23.867 1.6 16 1.6zm6.133 10.667c1.067.267 2.133.533 2.933.933 1.2.4 2 .933 2.533 1.467s.667.933.667 1.333-.133.8-.667 1.333c-.533.533-1.333 1.067-2.533 1.467-.8.4-1.867.667-2.933.933.133-1.2.267-2.4.267-3.733s-.133-2.533-.267-3.733zm5.6 0c-.533-.4-1.2-.667-2-.933-1.2-.4-2.533-.8-4-1.067-.267-1.467-.667-2.8-1.067-4-.267-.667-.667-1.333-.933-2 3.867 1.2 6.8 4.133 8 8zM20.267 16c0 1.467-.133 2.8-.267 4-1.333.133-2.667.267-4 .267s-2.8 0-4-.267c-.133-1.333-.267-2.667-.267-4s0-2.8.267-4c1.333-.133 2.667-.267 4-.267s2.8.133 4 .267c.267 1.2.267 2.533.267 4zM13.2 6.933c.4-1.2.933-2 1.467-2.533S15.6 3.733 16 3.733s.8.133 1.333.667c.533.533 1.067 1.333 1.467 2.533.4.8.667 1.867.933 2.933-1.2-.133-2.4-.267-3.733-.267s-2.533 0-3.733.267c.267-1.067.533-2.133.933-2.933zm-.933-2.666c-.4.533-.667 1.2-.933 2-.4 1.2-.8 2.533-1.067 4-1.467.267-2.8.667-4 1.067-.667.267-1.333.667-2 .933 1.2-3.867 4.133-6.8 8-8zM4.4 14.667c.533-.533 1.333-1.067 2.533-1.467.8-.4 1.867-.667 2.933-.933-.133 1.2-.267 2.4-.267 3.733s0 2.533.267 3.733c-1.067-.267-2.133-.533-2.933-.933-1.2-.4-2-.933-2.533-1.467S3.733 16.4 3.733 16s.133-.8.667-1.333zm-.133 5.066c.533.4 1.2.667 2 .933 1.2.4 2.533.8 4 1.067.267 1.467.667 2.8 1.067 4 .267.667.667 1.333.933 2-3.867-1.2-6.8-4.133-8-8zM18.8 25.067c-.4 1.2-.933 2-1.467 2.533s-.933.667-1.333.667-.8-.133-1.333-.667c-.533-.533-1.067-1.333-1.467-2.533-.4-.8-.667-1.867-.933-2.933 1.2.133 2.4.267 3.733.267s2.533 0 3.733-.267c-.267 1.067-.533 2.133-.933 2.933zm.933 2.666c.4-.533.667-1.2.933-2 .4-1.2.8-2.533 1.067-4 1.467-.267 2.8-.667 4-1.067.667-.267 1.333-.667 2-.933-1.2 3.867-4.133 6.8-8 8z"/></svg>