<svg xmlns="http://www.w3.org/2000/svg" width="32" height="32"><path d="M5.333 3.733c-.933 0-1.6.667-1.6 1.6v5.333c0 .933.8 1.6 1.6 1.6h5.333c.933 0 1.6-.8 1.6-1.6V5.333c0-.933-.8-1.6-1.6-1.6H5.333zM1.6 5.333c0-2 1.6-3.733 3.733-3.733h5.333c2 0 3.733 1.6 3.733 3.733v5.333c0 2-1.6 3.733-3.733 3.733H5.333c-2 0-3.733-1.6-3.733-3.733V5.333zm3.733 14.4c-.933 0-1.6.8-1.6 1.6v5.333c0 .933.8 1.6 1.6 1.6h5.333c.933 0 1.6-.8 1.6-1.6v-5.333c0-.933-.8-1.6-1.6-1.6H5.333zm-3.733 1.6c0-2 1.6-3.733 3.733-3.733h5.333c2 0 3.733 1.6 3.733 3.733v5.333c0 2-1.6 3.733-3.733 3.733H5.333c-2 0-3.733-1.6-3.733-3.733v-5.333zm19.733-17.6c-.933 0-1.6.8-1.6 1.6v5.333c0 .933.8 1.6 1.6 1.6h5.333c.933 0 1.6-.8 1.6-1.6V5.333c0-.933-.8-1.6-1.6-1.6h-5.333zm-3.733 1.6c0-2 1.6-3.733 3.733-3.733h5.333c2 0 3.733 1.6 3.733 3.733v5.333c0 2-1.6 3.733-3.733 3.733h-5.333c-2 0-3.733-1.6-3.733-3.733V5.333zm3.733 14.4c-.933 0-1.6.8-1.6 1.6v5.333c0 .933.8 1.6 1.6 1.6h5.333c.933 0 1.6-.8 1.6-1.6v-5.333c0-.933-.8-1.6-1.6-1.6h-5.333zm-3.733 1.6c0-2 1.6-3.733 3.733-3.733h5.333c2 0 3.733 1.6 3.733 3.733v5.333c0 2-1.6 3.733-3.733 3.733h-5.333c-2 0-3.733-1.6-3.733-3.733v-5.333z"/></svg>