<svg xmlns="http://www.w3.org/2000/svg" width="32" height="32"><path d="M22.667 22.667c0-.8.533-1.333 1.333-1.333.8 0 1.333.533 1.333 1.333S24.8 24 24 24c-.8 0-1.333-.533-1.333-1.333zm-5.334 0c0-.8.533-1.333 1.333-1.333.8 0 1.333.533 1.333 1.333S19.466 24 18.666 24c-.8 0-1.333-.533-1.333-1.333z"/><path d="M30.267 16.933 28.134 5.866c-.133-.8-.667-1.6-1.333-2.133s-1.467-.8-2.4-.8h-16.8c-.933 0-1.733.4-2.4.933S4.134 5.199 3.868 5.999L1.735 16.932v8.8c0 .133 0 .4.133.533v.133c0 .133 0 .133.133.267v.133c.133.267.267.4.267.667.133.133.267.4.4.533s.4.267.533.4.4.267.667.267h.133c.133 0 .133 0 .267.133h.133c.133 0 .267.133.533.133h22.133c.133 0 .4 0 .533-.133h.133c.133 0 .133 0 .267-.133h.133c.267-.133.4-.267.667-.267.133-.133.4-.267.533-.4s.267-.4.4-.533.267-.4.267-.667v-.133c0-.133 0-.133.133-.267v-.133c0-.133.133-.267.133-.533v-8.133c.133-.133.133-.4 0-.667zM5.867 6.4c0-.4.267-.667.533-.933.267-.4.667-.533 1.067-.4H24.4c.4 0 .8.133 1.067.4S26 6 26 6.4l2.133 10.4c-.4-.267-1.067-.4-1.6-.4h-21.2c-.533 0-1.067.133-1.6.4L5.866 6.4zm22.4 18.933c0 .267 0 .4-.133.667-.133.133-.267.4-.4.533s-.267.267-.533.4c-.133.133-.4.133-.667.133h-21.2c-.267 0-.4 0-.667-.133-.133-.133-.4-.267-.533-.4s-.267-.267-.4-.533c-.133-.133-.133-.4-.133-.667V20c0-.933.8-1.6 1.6-1.6h21.333c.933 0 1.6.8 1.6 1.6v5.333z"/></svg>