<svg xmlns="http://www.w3.org/2000/svg" width="32" height="32"><path d="M29.333 8.267H24.4l.533-5.6c0-.533-.4-1.067-.933-1.067s-1.067.4-1.067.933L22.4 8.266H11.067l.533-5.6c0-.533-.4-1.067-.933-1.067s-1.067.4-1.067.933l-.533 5.733H4c-.533 0-1.067.533-1.067 1.067S3.466 10.399 4 10.399h4.933L7.866 21.732h-5.2c-.533 0-1.067.4-1.067 1.067s.4 1.067 1.067 1.067h4.933l-.533 5.6c0 .533.4 1.067.933 1.067s1.067-.4 1.067-.933l.533-5.733h11.333l-.533 5.6c0 .533.4 1.067.933 1.067s1.067-.4 1.067-.933l.533-5.733h5.067c.533 0 1.067-.4 1.067-1.067s-.4-1.067-1.067-1.067h-4.933l1.067-11.333h5.2c.533 0 1.067-.4 1.067-1.067s-.533-1.067-1.067-1.067zM9.733 21.6 10.8 10.267h11.333L21.066 21.6H9.733z"/></svg>