<svg xmlns="http://www.w3.org/2000/svg" width="32" height="32"><path d="M29.2 10.533C28.533 8.8 27.467 7.2 26.133 5.866s-2.933-2.4-4.667-3.067c-1.733-.667-3.6-1.067-5.467-1.067-3.733 0-7.467 1.467-10.133 4.267-2.667 2.667-4.267 6.4-4.267 10.133v10.667c0 2 1.6 3.733 3.733 3.733h2.667c2 0 3.733-1.6 3.733-3.733v-5.333c0-2-1.6-3.733-3.733-3.733H5.332c-.667 0-1.2.133-1.6.4V16a12.2 12.2 0 0 1 3.6-8.667c2.267-2.4 5.333-3.6 8.667-3.6 1.6 0 3.2.267 4.667.933s2.8 1.467 4 2.667c1.2 1.2 2 2.533 2.667 4s.933 3.067.933 4.667v2a3.546 3.546 0 0 0-1.6-.4h-2.667c-2 0-3.733 1.6-3.733 3.733v5.333c0 2 1.6 3.733 3.733 3.733h2.667c2 0 3.733-1.6 3.733-3.733V15.999c0-1.867-.4-3.733-1.2-5.467zm-23.867 9.2H8c.933 0 1.6.8 1.6 1.6v5.333c0 .933-.8 1.6-1.6 1.6H5.333c-.933 0-1.6-.8-1.6-1.6v-5.333c0-.933.667-1.6 1.6-1.6zm22.934 6.934c0 .933-.8 1.6-1.6 1.6H24c-.933 0-1.6-.8-1.6-1.6v-5.333c0-.933.8-1.6 1.6-1.6h2.667c.933 0 1.6.8 1.6 1.6v5.333z"/></svg>