<svg xmlns="http://www.w3.org/2000/svg" width="32" height="32"><path d="M24.8 1.2H24c-2.8.267-5.333 2-7.2 4.8C14.667 2.8 11.2.8 7.733.8c-.8 0-1.467.133-2.133.267C3.467 1.6 1.6 3.334.667 5.6c-1.067 2.533-.8 5.467.4 7.733C2.934 16.4 6 18.266 8.934 20a52.71 52.71 0 0 1 4.533 2.933c.4.267.933.8 1.333 1.2-.533.533-1.6 2.4-1.6 2.4-.4.667-.8 2.267-.4 3.333.133.533.533.8.933 1.067.267.133.533.133.667.133 1.067 0 2-.933 2.667-1.867 1.2-1.6 1.333-3.2.533-4.8 1.467-1.333 2.933-2.4 4.4-3.6 2.533-2 5.2-4 7.2-6.533 1.067-1.2 4.133-5.6 2-9.733-1.2-2-3.6-3.333-6.4-3.333zm-9.2 26.4c-.267.4-.4.667-.667.933 0-.667.267-1.2.4-1.467 0-.133.267-.533.533-.8.133.4 0 .933-.267 1.333zM13.067 5.067c.667.533 1.2 1.2 1.733 1.867 0 .133.133.267.267.4.533.933 1.2 2 1.867 2 .4 0 .667-.267.933-.667C19.334 5.6 21.734 3.734 24.534 3.6h.533c2.133 0 4 1.2 4.667 3.067.933 2.4-.533 5.333-4.267 8.933-1.6 1.467-3.333 2.933-5.067 4.133l-4 3.2c-1.2-1.333-2.667-2.4-3.867-3.2-.667-.533-1.467-.933-2.267-1.467-4-2.4-8.667-5.2-7.867-10.267.267-3.067 2.4-4.933 5.467-4.933h.667c1.6.133 3.2.8 4.533 2z"/></svg>