<svg xmlns="http://www.w3.org/2000/svg" width="32" height="32"><path d="M11.333 6.8c-2-1.333-4.667-.933-6.4.667L4.8 7.6c-2 2-2 5.2.133 7.2l10.533 10.667c.133.133.133.133.267.133 0 0 .133 0 .267-.133L26.533 14.8c2-2 2-5.2 0-7.2-1.867-1.733-4.667-2-6.533-.533l-3.467 2.4c-.4.267-.8.267-1.067 0L11.333 6.8zM3.6 6.133c2.267-2.267 6-2.8 8.8-.933l3.467 2.267 2.933-2c2.8-2 6.667-1.6 9.067.8 2.8 2.8 2.8 7.333 0 10.133L17.334 27.067c-.933.933-2.4.933-3.333 0L3.468 16.4a7.046 7.046 0 0 1-.133-10.133l.267-.133z"/></svg>