<svg xmlns="http://www.w3.org/2000/svg" width="32" height="32"><path d="M16 1.6C8.133 1.6 1.6 8.133 1.6 16S8 30.4 16 30.4c7.867 0 14.4-6.4 14.4-14.4 0-7.867-6.533-14.4-14.4-14.4zm0 2.133c3.067 0 5.867 1.067 8 2.933l-4.267 4.267c-1.067-.8-2.4-1.333-3.733-1.333s-2.667.4-3.733 1.2L8 6.667c2.133-1.867 4.933-2.933 8-2.933zM20.267 16c0 2.267-2 4.267-4.267 4.267S11.733 18.4 11.733 16s2-4.267 4.267-4.267 4.267 2 4.267 4.267zM3.733 16c0-3.067 1.067-5.867 2.933-8l4.133 4.267c-.8 1.067-1.2 2.4-1.2 3.733s.533 2.667 1.333 3.733L6.665 24c-1.867-2.133-2.933-4.933-2.933-8zM16 28.267c-3.067 0-5.867-1.067-8-2.933l4.267-4.133c1.067.8 2.4 1.2 3.733 1.2s2.667-.533 3.733-1.333L24 25.335c-2.133 1.867-4.933 2.933-8 2.933zM25.333 24l-4.267-4.267c.8-1.067 1.2-2.267 1.2-3.733s-.4-2.667-1.2-3.733L25.333 8c1.867 2.133 2.933 4.933 2.933 8s-1.067 5.867-2.933 8z"/></svg>