<svg xmlns="http://www.w3.org/2000/svg" width="32" height="32"><path d="M2 2c.4-.4 1.067-.4 1.467 0l26.8 26.8c.4.4.4 1.067 0 1.467s-1.067.4-1.467 0l-4.8-4.8c-.133 0-.133.133-.267.133-4 1.867-7.333 2.4-10.267 2s-5.2-1.733-6.933-3.2A17.207 17.207 0 0 1 2.8 19.467c-.4-.8-.667-1.467-.8-2.133-.133-.267-.133-.533-.267-.8 0-.133-.133-.4-.133-.667s.133-.667.267-.933c.133-.267.267-.533.4-.933.4-.667.8-1.333 1.333-2.133.933-1.2 2.133-2.8 2.933-3.867L2 3.334c-.4-.4-.4-.933 0-1.333zm6 7.467c-.8.933-1.867 2.4-2.8 3.733A10.76 10.76 0 0 0 4 15.067c-.133.267-.267.533-.267.667V16s.133.267.133.533c.133.533.4 1.067.8 1.733a15.323 15.323 0 0 0 3.333 4.4c1.467 1.333 3.467 2.4 5.867 2.8 2.4.267 5.2 0 8.8-1.6l-2.8-2.8c-1.2.8-2.533 1.333-3.867 1.333-1.733 0-3.333-.667-4.533-1.867s-1.867-2.8-1.867-4.533c0-1.333.4-2.667 1.2-3.733l-2.8-2.8zM11.6 16c0 1.2.533 2.267 1.333 3.067C13.733 20 14.8 20.4 16 20.4c.8 0 1.6-.267 2.267-.667l-6-6c-.4.667-.667 1.467-.667 2.267zm3.6-11.733h-.133l-.8.133-.933.267c-.533 0-.933.533-.8 1.067s.667.933 1.2.8l1.6-.267h1.6l.8.133.667.133.533.133 1.333.533c.133 0 .267.133.4.133s.133.133.267.133l.667.267 2.667 2 .4.4.4.533.4.4c.133.133.267.4.4.533s.133.267.267.4l.4.4c0 .4.133.533.133.667l.267.4c.133.133.133.267.267.4l.267.4.133.267v.133c0 .133.133.133.133.267l.133.133c0 .133.133.267.133.267l.133.267c0 .133 0 .267.133.4v.399l-.133.267c0 .133-.133.267-.133.267l-.267.8-.8 1.2c-.267.533-.133 1.067.4 1.333s1.067.133 1.333-.4l.267-.533.267-.4.533-.8.133-.4c0-.133.133-.267.133-.4l.133-.267v-.133s.133-.133.133-.267v-.8.133c0-.133 0-.4-.133-.533v-.267L30 15.065l-.133-.267v-.266l-.133-.267v-.399l-.533-.8v-.133c0-.133-.133-.133-.133-.267v-.133l-.267-.4c-.133-.133-.267-.4-.267-.533l-.267-.4c-.133-.133-.267-.4-.4-.533l-.4-.4c-.133-.133-.267-.4-.4-.533l-.4-.533-.4-.533-1.2-.667-.533-.4-.533-.4-.533-.4-.667-.4-.667-.4s-.133 0-.133-.133c-.133-.133-.4-.133-.533-.267l-.667-.267h-.133l-.8-.267h-.133l-1.067-.4-.8-.133h-.133l-.8-.133h-1.733z"/></svg>