<svg xmlns="http://www.w3.org/2000/svg" width="32" height="32"><path d="M30 12.533 18.267 3.2C17.6 2.667 16.8 2.4 16 2.4s-1.6.267-2.267.8L2 12.533c-.4.4-.533.933-.133 1.467.4.4.933.533 1.467.133l.933-.8v13.333c0 .933.4 1.867 1.067 2.533s1.6 1.067 2.533 1.067h16c.933 0 1.867-.4 2.533-1.067s1.067-1.6 1.067-2.533V13.333l1.067.8c.4.267 1.067.267 1.467-.133s.4-1.067 0-1.467zm-4.4 14.134c0 .4-.133.933-.533 1.2-.267.267-.667.533-1.2.533H8c-.4 0-.933-.133-1.2-.533-.267-.267-.533-.667-.533-1.2V11.734l8.667-6.933c.267-.267.667-.4 1.067-.4s.8.133 1.067.4l8.667 6.933v14.933z"/></svg>