<svg xmlns="http://www.w3.org/2000/svg" width="32" height="32"><path d="M24 17.6h-6.933v-3.333H20c2 0 3.733-1.6 3.733-3.733V8.001c0-2-1.6-3.733-3.733-3.733h-2.933v-1.6c0-.533-.4-1.067-1.067-1.067s-1.067.533-1.067 1.067v1.6H12c-2 0-3.733 1.733-3.733 3.733v2.667c0 2 1.6 3.733 3.733 3.733h2.933v3.333H8c-2 0-3.733 1.6-3.733 3.733v2.667c0 2 1.6 3.733 3.733 3.733h6.933v1.467c0 .533.4 1.067 1.067 1.067s1.067-.4 1.067-1.067v-1.6H24c2 0 3.733-1.6 3.733-3.733v-2.667c0-2-1.733-3.733-3.733-3.733zm-12-5.333c-.933 0-1.6-.667-1.6-1.6V8c0-.933.8-1.6 1.6-1.6h8c.933 0 1.6.8 1.6 1.6v2.667c0 .933-.8 1.6-1.6 1.6h-8zM25.6 24c0 .933-.8 1.6-1.6 1.6H8c-.933 0-1.6-.8-1.6-1.6v-2.667c0-.933.8-1.6 1.6-1.6h16c.933 0 1.6.8 1.6 1.6V24z"/></svg>