<svg xmlns="http://www.w3.org/2000/svg" width="32" height="32"><path d="M2.667 1.6c.533 0 1.067.4 1.067 1.067v26.667c0 .533-.4 1.067-1.067 1.067S1.6 29.868 1.6 29.334V2.667c0-.533.533-1.067 1.067-1.067zm8 4.8c-.933 0-1.6.667-1.6 1.6v2.667c0 .933.8 1.6 1.6 1.6h8c.933 0 1.6-.8 1.6-1.6V8c0-.933-.8-1.6-1.6-1.6h-8zM6.933 8c0-2 1.6-3.733 3.733-3.733h8c2 0 3.733 1.6 3.733 3.733v2.667c0 2-1.6 3.733-3.733 3.733h-8c-2 0-3.733-1.6-3.733-3.733V8zm3.734 11.733c-.933 0-1.6.8-1.6 1.6V24c0 .933.8 1.6 1.6 1.6h16c.933 0 1.6-.8 1.6-1.6v-2.667c0-.933-.8-1.6-1.6-1.6h-16zm-3.734 1.6c0-2 1.6-3.733 3.733-3.733h16c2 0 3.733 1.6 3.733 3.733V24c0 2-1.6 3.733-3.733 3.733h-16c-2 0-3.733-1.6-3.733-3.733v-2.667z"/></svg>