<svg xmlns="http://www.w3.org/2000/svg" width="32" height="32"><path d="M26.667 1.6H5.334c-2 0-3.733 1.733-3.733 3.733v21.733c0 .133 0 .4.133.533v.133c0 .133 0 .133.133.267v.133c.133.267.267.4.267.667.267.4.667.8 1.067 1.067.133.133.4.267.667.267h.133c.133 0 .133 0 .267.133h.133c.133 0 .267.133.533.133h22.133c.133 0 .4 0 .533-.133h.133c.133 0 .133 0 .267-.133h.133c.267-.133.4-.267.667-.267.4-.267.8-.667 1.067-1.067.133-.133.267-.4.267-.667v-.133c0-.133 0-.133.133-.267v-.133c0-.133.133-.267.133-.533V5.333c0-2-1.733-3.733-3.733-3.733zm1.6 25.067c0 .267 0 .4-.133.667-.133.4-.533.667-.933.933-.133.133-.4.133-.667.133h-21.2c-.267 0-.4 0-.667-.133a3.11 3.11 0 0 1-.933-.933c-.133-.133-.133-.4-.133-.667v-2.933l3.867-3.867c.267-.267.667-.533 1.2-.533.4 0 .933.133 1.2.533l1.467 1.467c.4.4.8.667 1.333.8s1.067.267 1.6.267c.533 0 1.067-.133 1.467-.4s.8-.533 1.2-1.067l4.533-5.733.533-.533h.667c.267 0 .533 0 .8.133s.4.267.533.533l4.4 5.733v5.6zM25.6 14c-.4-.4-.8-.8-1.333-1.067s-1.067-.4-1.6-.4c-.533 0-1.067.133-1.6.4s-.933.667-1.333 1.067l-4.533 5.733c-.133.133-.267.4-.533.4-.267.133-.4.133-.667.133s-.533 0-.667-.133c-.267-.133-.4-.267-.533-.4l-1.467-1.467c-.8-.533-1.733-.933-2.667-.933s-1.867.4-2.533 1.067l-2.4 2.4V5.333c0-.933.8-1.6 1.6-1.6h21.333c.933 0 1.6.8 1.6 1.6v12.4L25.6 14z"/><path d="M10.933 9.333c0 .933-.8 1.6-1.6 1.6-.933 0-1.733-.667-1.733-1.6s.8-1.6 1.733-1.6 1.6.667 1.6 1.6z"/></svg>