<svg xmlns="http://www.w3.org/2000/svg" width="32" height="32"><path d="M30.267 16.933 28.134 6c-.133-.8-.667-1.6-1.333-2.133s-1.467-.8-2.4-.8h-16.8c-.933-.133-1.733.267-2.4.8S4.134 5.2 3.868 6L1.735 16.933v8.4c0 .933.4 1.867 1.067 2.533s1.6 1.067 2.533 1.067h21.333c.933 0 1.867-.4 2.533-1.067s1.067-1.6 1.067-2.533v-8c.133-.133.133-.267 0-.4zM5.867 6.4c0-.4.267-.667.533-.933.267-.4.667-.533 1.067-.4H24.4c.4 0 .8.133 1.067.4S26 6 26 6.4l2 10h-4.133c-.667 0-1.2.133-1.733.4s-.933.667-1.333 1.2l-.8 1.6c-.133.267-.4.4-.533.533-.267.133-.533.267-.8.267h-5.2c-.267 0-.533 0-.8-.267-.267-.133-.4-.267-.667-.533L10.934 18c-.267-.533-.8-.933-1.333-1.2s-1.067-.4-1.733-.4h-4l2-10zm22.4 18.933c0 .4-.133.933-.533 1.2-.267.267-.667.533-1.2.533h-21.2c-.4 0-.933-.133-1.2-.533-.267-.267-.533-.667-.533-1.2V18.4h4.267c.267 0 .533 0 .8.267.267 0 .4.133.667.4l1.067 1.6c.267.533.8.933 1.333 1.2s1.067.4 1.733.4h5.2c.667 0 1.2-.133 1.733-.4s.933-.667 1.333-1.2l1.067-1.6c.133-.267.4-.4.533-.533.267-.133.533-.267.8-.267h4.267v7.067zM1.733 17.2c-.133.133-.133.133 0 0-.133.133-.133.133 0 0z"/></svg>