<svg xmlns="http://www.w3.org/2000/svg" width="32" height="32"><path d="M16 8.4c-4.133 0-7.6 3.467-7.6 7.6s3.467 7.6 7.6 7.6 7.6-3.467 7.6-7.6-3.467-7.6-7.6-7.6zm0 12.533c-2.667 0-4.933-2.267-4.933-4.933s2.267-4.933 4.933-4.933 4.933 2.267 4.933 4.933-2.267 4.933-4.933 4.933z"/><path d="M22 1.467c-2.667-.133-9.333-.133-12 0-2.4.133-4.533.667-6.267 2.267-2.8 2.8-2.4 6.667-2.4 12.267 0 5.733-.4 9.467 2.4 12.267s6.8 2.4 12.267 2.4c5.6 0 7.6 0 9.6-.8 2.667-1.067 4.8-3.6 5.067-7.867.133-2.667.133-9.467 0-12.133-.4-5.067-3.067-8.133-8.667-8.4zm4.267 24.8C24.4 28.134 21.867 28 15.867 28c-6.133 0-8.533.133-10.4-1.733-2.133-2.133-1.733-5.333-1.733-10.4 0-6.667-.667-11.6 6.133-12 1.6 0 2-.133 6-.133 6.533 0 11.6-.667 12 6.133.133 1.6.133 2 .133 5.867 0 6.267.133 8.8-1.733 10.533z"/><path d="M23.867 9.867c.933 0 1.733-.667 1.733-1.733s-.8-1.733-1.733-1.733-1.733.8-1.733 1.733.667 1.733 1.733 1.733z"/></svg>