<svg xmlns="http://www.w3.org/2000/svg" width="32" height="32"><path d="M26.667 4.267H5.334C3.334 4.267 1.601 6 1.601 8v16c0 2 1.6 3.733 3.733 3.733h21.333c2 0 3.733-1.6 3.733-3.733V8c0-2-1.733-3.733-3.733-3.733zM28.267 24c0 .933-.8 1.6-1.6 1.6H5.334c-.933 0-1.6-.8-1.6-1.6V8c0-.933.8-1.6 1.6-1.6h21.333c.933 0 1.6.8 1.6 1.6v16z"/><path d="M17.067 16c0 .533-.4 1.067-1.067 1.067h-2.933V20c0 .533-.4 1.067-1.067 1.067s-1.067-.533-1.067-1.067v-2.933H8c-.533 0-1.067-.4-1.067-1.067s.4-1.067 1.067-1.067h2.933V12c0-.533.4-1.067 1.067-1.067s1.067.533 1.067 1.067v2.933H16c.533 0 1.067.533 1.067 1.067zm5.333-2.667c0-.933.8-1.6 1.6-1.6h.133c.933 0 1.6.8 1.6 1.6 0 .933-.8 1.6-1.6 1.6H24c-.933 0-1.6-.667-1.6-1.6zm-2.667 5.334c0-.933.8-1.6 1.6-1.6h.133c.933 0 1.6.8 1.6 1.6s-.8 1.6-1.6 1.6h-.133c-.933 0-1.6-.667-1.6-1.6z"/></svg>