<svg xmlns="http://www.w3.org/2000/svg" width="32" height="32"><path d="M15.467 1.733a1.14 1.14 0 0 1 .933 0l12 6.667c.267.133.533.533.533.933s-.133.667-.533.933l-12 6.667a1.14 1.14 0 0 1-.933 0l-12-6.667c-.267-.267-.533-.533-.533-.933s.133-.667.533-.933l12-6.667zM6 9.333 16 14.8l10-5.467-10-5.467L6 9.333z"/><path d="M3.067 15.467c.267-.533.933-.667 1.333-.4l11.467 6.4 11.467-6.4c.533-.267 1.067-.133 1.333.4s.133 1.067-.4 1.333l-12 6.667a1.14 1.14 0 0 1-.933 0l-12-6.667c-.267-.133-.533-.8-.267-1.333z"/><path d="M3.067 22.133c.267-.533.933-.667 1.333-.4l11.467 6.4 11.467-6.4c.533-.267 1.067-.133 1.333.4s.133 1.067-.4 1.333l-12 6.667a1.14 1.14 0 0 1-.933 0l-12-6.667c-.267-.133-.533-.8-.267-1.333z"/></svg>