<svg xmlns="http://www.w3.org/2000/svg" width="32" height="32"><path d="M29.733 13.6c-.133-.533-.4-.933-.8-1.333s-.8-.667-1.333-.933c-.533-.267-1.067-.267-1.6-.267h-7.733l.8-5.2c.133-.533 0-1.067-.133-1.6s-.4-.933-.8-1.333c-.4-.4-.8-.667-1.333-.933s-1.067-.267-1.467-.267h-.667c-.4 0-.667.133-.933.533l-4.933 8.667H5.334c-.933 0-1.867.4-2.533 1.067-.8.8-1.2 1.733-1.2 2.667v12c0 .933.4 1.867 1.067 2.533s1.6 1.067 2.533 1.067h19.067c.933 0 1.733-.267 2.4-.933.667-.533 1.067-1.333 1.2-2.267l1.867-12c.267-.4.133-.933 0-1.467zm-25.6 14.267c-.267-.267-.533-.667-.533-1.2v-12c0-.4.133-.933.533-1.2.267-.267.8-.4 1.2-.4h2.933V28.4H5.333c-.4-.133-.933-.267-1.2-.533zm23.734-12.934-1.867 12c0 .4-.267.8-.533 1.067s-.667.4-1.067.4h-14v-16l4.933-8.667h.4c.267 0 .533 0 .667.133.267.133.4.267.533.4s.267.4.4.667V5.6l-.933 6.267c0 .267 0 .533.267.8s.533.4.8.4H26.4c.267 0 .533 0 .667.133.267.133.4.267.533.4s.267.4.267.667v.666z"/></svg>