<svg xmlns="http://www.w3.org/2000/svg" width="32" height="32"><path d="M18.933 9.333c0-.533.4-1.067 1.067-1.067h2.667c2 0 4 .8 5.467 2.267s2.267 3.333 2.267 5.467-.8 4-2.267 5.467c-1.467 1.467-3.333 2.267-5.467 2.267H20c-.533 0-1.067-.4-1.067-1.067S19.333 21.6 20 21.6h2.667c1.467 0 2.933-.533 4-1.6s1.6-2.533 1.6-4-.533-2.933-1.6-4c-1.067-1.067-2.533-1.6-4-1.6H20c-.533 0-1.067-.533-1.067-1.067zm-15.066 1.2C5.334 9.2 7.334 8.266 9.334 8.266h2.667c.533 0 1.067.4 1.067 1.067s-.533 1.067-1.067 1.067H9.334c-1.467 0-2.933.533-4 1.6s-1.6 2.533-1.6 4 .533 2.933 1.6 4 2.533 1.6 4 1.6h2.667c.533 0 1.067.4 1.067 1.067s-.533 1.067-1.067 1.067H9.334c-2 0-4-.8-5.467-2.267C2.534 20 1.6 18 1.6 16s.933-4 2.267-5.467z"/><path d="M8.267 16c0-.533.4-1.067 1.067-1.067h14.667c.533 0 1.067.4 1.067 1.067s-.4 1.067-1.067 1.067H9.334c-.533 0-1.067-.533-1.067-1.067z"/></svg>