<svg xmlns="http://www.w3.org/2000/svg" width="32" height="32"><path d="M9.6 16c0-.533.4-1.067 1.067-1.067h16c.533 0 1.067.4 1.067 1.067s-.4 1.067-1.067 1.067h-16c-.533 0-1.067-.533-1.067-1.067zm0-8c0-.533.4-1.067 1.067-1.067h16c.533 0 1.067.4 1.067 1.067s-.533 1.067-1.067 1.067h-16C10.134 9.067 9.6 8.534 9.6 8zm0 16c0-.533.4-1.067 1.067-1.067h16c.533 0 1.067.4 1.067 1.067s-.4 1.067-1.067 1.067h-16c-.533 0-1.067-.533-1.067-1.067zM4.267 8c0-.533.4-1.067 1.067-1.067.533 0 1.067.4 1.067 1.067s-.533 1.067-1.067 1.067c-.533 0-1.067-.533-1.067-1.067zm0 8c0-.533.4-1.067 1.067-1.067.533 0 1.067.4 1.067 1.067s-.533 1.067-1.067 1.067c-.533 0-1.067-.533-1.067-1.067zm0 8c0-.533.4-1.067 1.067-1.067.533 0 1.067.4 1.067 1.067s-.533 1.067-1.067 1.067c-.533 0-1.067-.533-1.067-1.067z"/></svg>