<svg xmlns="http://www.w3.org/2000/svg" width="32" height="32"><path d="M25.333 12.267h-1.6c0-1.867-.267-4.133-1.067-6.133-.533-1.2-1.333-2.4-2.4-3.2-1.2-.8-2.533-1.333-4.267-1.333-3.467 0-5.467 2.267-6.533 4.667-.933 2-1.2 4.267-1.2 6h-1.6c-2.133 0-3.733 1.733-3.733 3.733v10.667c0 2.133 1.733 3.733 3.733 3.733h18.667c2.133 0 3.733-1.733 3.733-3.733V16.001c0-2.133-1.733-3.733-3.733-3.733zM11.2 7.067c.8-2 2.267-3.467 4.667-3.467 1.333 0 2.267.4 2.933.933.8.533 1.333 1.333 1.733 2.4.667 1.733.933 3.733.933 5.333h-11.2c0-1.467.267-3.467.933-5.2zm15.733 19.6c0 .933-.8 1.6-1.6 1.6H6.666c-.933 0-1.6-.8-1.6-1.6V16c0-.933.8-1.6 1.6-1.6h18.667c.933 0 1.6.8 1.6 1.6v10.667z"/></svg>