<svg xmlns="http://www.w3.org/2000/svg" width="32" height="32"><path d="M25.333 12.267H10.4V9.334c0-1.467.667-2.933 1.6-4 1.067-1.067 2.533-1.6 4-1.6.933 0 1.733.267 2.533.667s1.467.933 2 1.6c.4.533.667 1.067.8 1.6s.8.8 1.333.667c.533-.133.8-.8.667-1.333-.4-.8-.667-1.6-1.2-2.133-.667-.933-1.6-1.733-2.667-2.267s-2.267-.8-3.467-.8c-2 0-4 .8-5.467 2.267-1.333 1.333-2.267 3.333-2.267 5.333v2.933h-1.6c-2 0-3.733 1.6-3.733 3.733v10.667c0 2 1.6 3.733 3.733 3.733h18.667c2 0 3.733-1.6 3.733-3.733V16.001c0-2-1.733-3.733-3.733-3.733zm1.6 14.4c0 .933-.8 1.6-1.6 1.6H6.666c-.933 0-1.6-.8-1.6-1.6V16c0-.933.8-1.6 1.6-1.6h18.667c.933 0 1.6.8 1.6 1.6v10.667z"/></svg>