<svg xmlns="http://www.w3.org/2000/svg" width="32" height="32"><path d="M13.333 3.733c-.4 0-.8.133-1.2.533-.267.267-.4.667-.4 1.067v4c0 .533-.4 1.067-1.067 1.067-.533 0-1.067-.533-1.067-1.067v-4c0-.933.4-1.867 1.067-2.533.8-.8 1.733-1.2 2.667-1.2H24c.933 0 1.867.4 2.533 1.067S27.6 4.267 27.6 5.2v21.333c0 .933-.4 1.867-1.067 2.533s-1.6 1.067-2.533 1.067H13.333c-.933 0-1.867-.4-2.533-1.067s-1.067-1.6-1.067-2.533v-4c0-.533.4-1.067 1.067-1.067.533 0 1.067.4 1.067 1.067v4c0 .4.133.8.533 1.2.267.267.8.533 1.2.533h10.667c.4 0 .8-.133 1.2-.533s.533-.8.533-1.2v-21.2c0-.4-.133-.8-.533-1.2-.267-.267-.8-.533-1.2-.533H13.334z"/><path d="M22.4 16c0 .133 0 .267-.133.4a.287.287 0 0 1-.267.267L16.667 22c-.4.4-1.067.4-1.467 0s-.4-1.067 0-1.467l3.6-3.6H5.333c-.533 0-1.067-.4-1.067-1.067s.4-1.067 1.067-1.067h13.6l-3.6-3.6c-.4-.4-.4-1.067 0-1.467s1.067-.4 1.467 0l5.333 5.333c.133.133.133.267.267.267-.133.4 0 .533 0 .667z"/></svg>