<svg xmlns="http://www.w3.org/2000/svg" width="32" height="32"><path d="M2.8 2.8c.667-.8 1.6-1.2 2.533-1.2H16c.933 0 1.867.4 2.533 1.067S19.6 4.267 19.6 5.2v4c0 .533-.4 1.067-1.067 1.067s-.933-.4-.933-.933v-4c0-.4-.133-.8-.533-1.2-.267-.267-.8-.533-1.2-.533H5.334c-.4 0-.8.133-1.2.533-.267.4-.4.8-.4 1.2v21.333c0 .4.133.8.533 1.2.267.267.8.533 1.2.533h10.667c.4 0 .8-.133 1.2-.533.267-.267.533-.8.533-1.2v-4c0-.533.4-1.067 1.067-1.067s1.067.4 1.067 1.067v4c0 .933-.4 1.867-1.067 2.533s-1.6 1.067-2.533 1.067H5.334c-.933 0-1.867-.4-2.533-1.067s-1.067-1.6-1.067-2.533V5.334c-.133-.933.267-1.867 1.067-2.533z"/><path d="M30.4 16c0 .133 0 .267-.133.4a.287.287 0 0 1-.267.267L24.667 22c-.4.4-1.067.4-1.467 0s-.4-1.067 0-1.467l3.6-3.6H13.333c-.533 0-1.067-.4-1.067-1.067s.4-1.067 1.067-1.067h13.6l-3.6-3.6c-.4-.4-.4-1.067 0-1.467s1.067-.4 1.467 0l5.333 5.333c.133.133.133.267.267.267-.133.4 0 .533 0 .667z"/></svg>