<svg xmlns="http://www.w3.org/2000/svg" width="32" height="32"><path d="M20.533 17.333 18 19.866c-1.067 1.067-2.933 1.067-4 0l-2.533-2.533-9.2 9.2c.4.133.667.267 1.067.267h25.333c.4 0 .8-.133 1.067-.267l-9.2-9.2z"/><path d="M28.667 5.2H3.334c-.4 0-.8.133-1.067.267l9.867 9.867 3.2 3.2c.4.4 1.067.4 1.333 0l3.2-3.2 9.867-9.867a2.52 2.52 0 0 0-1.067-.267zM.933 6.667c-.133.4-.267.8-.267 1.2V24c0 .4.133.8.267 1.2l9.2-9.333-9.2-9.2zm30.134 0L21.867 16l9.2 9.333c.133-.4.267-.8.267-1.2V7.866c0-.4-.133-.8-.267-1.2z"/></svg>