<svg xmlns="http://www.w3.org/2000/svg" width="32" height="32"><path d="M12.667 4.267c1.2-.4 2.533-.667 3.867-.667 5.867.267 10 6 9.067 12-1.2 6.933-7.2 11.067-9.333 12.4h-.266c-1.067-.667-3.467-2.267-5.6-4.667-2.133-2.533-3.867-5.867-3.867-10 0-1.333.267-2.667.8-3.867.267-1.2 1.067-2.267 2-3.067.933-.933 2-1.733 3.333-2.133zm3.2 23.866zm-2.8-14.8c0-1.6 1.333-2.933 2.933-2.933s2.933 1.333 2.933 2.933c0 1.6-1.333 2.933-2.933 2.933s-2.933-1.333-2.933-2.933zM16 8.267c-2.8 0-5.067 2.267-5.067 5.067S13.2 18.401 16 18.401c2.8 0 5.067-2.267 5.067-5.067S18.8 8.267 16 8.267zM5.6 19.733c.8 1.867 1.867 3.467 3.067 4.933 2.267 2.667 4.933 4.4 6.133 5.2.4.133.8.267 1.2.267s.8-.133 1.2-.267c1.067-.667 3.333-2.133 5.467-4.4s4.133-5.333 4.8-9.333c1.2-7.067-3.6-14-10.933-14.4-1.6 0-3.2.133-4.667.667s-2.8 1.333-4 2.533C6.8 6 5.867 7.333 5.334 8.8c-.667 1.467-1.067 2.933-1.067 4.533 0 2.4.533 4.533 1.333 6.4z"/></svg>