<svg xmlns="http://www.w3.org/2000/svg" width="32" height="32"><path d="M2.667 20.267c.533 0 1.067.4 1.067 1.067v5.333c0 .4.133.8.533 1.2.267.267.8.533 1.2.533H10.8c.533 0 1.067.4 1.067 1.067s-.667.933-1.2.933H5.334c-.933 0-1.867-.4-2.533-1.067s-1.067-1.6-1.067-2.533v-5.333c-.133-.667.4-1.2.933-1.2zm26.666 0c.533 0 1.067.4 1.067 1.067v5.333c0 .933-.4 1.867-1.067 2.533s-1.6 1.067-2.533 1.067h-5.333c-.533 0-1.067-.4-1.067-1.067s.4-1.067 1.067-1.067H26.8c.4 0 .8-.133 1.2-.533s.533-.8.533-1.2v-5.333c-.267-.267.267-.8.8-.8zm-9.066-17.6c0-.533.4-1.067 1.067-1.067h5.333c.933 0 1.867.4 2.533 1.067s1.067 1.6 1.067 2.533v5.333c0 .533-.4 1.067-1.067 1.067s-.933-.4-.933-.933V5.334c0-.4-.133-.8-.533-1.2-.267-.267-.8-.533-1.2-.533h-5.333c-.4.133-.933-.4-.933-.933zM5.333 3.733c-.4 0-.8.133-1.2.533-.267.267-.4.667-.4 1.067v5.333c0 .533-.4 1.067-1.067 1.067s-1.067-.533-1.067-1.067V5.333c0-.933.4-1.867 1.067-2.533.8-.8 1.733-1.2 2.667-1.2h5.333c.533 0 1.067.4 1.067 1.067s-.533 1.067-1.067 1.067H5.333z"/></svg>