<svg xmlns="http://www.w3.org/2000/svg" width="32" height="32"><path d="M5.333 3.733c-.4 0-.8.133-1.2.533-.267.267-.4.667-.4 1.067v13.333c0 .4.133.8.533 1.2.267.267.8.533 1.2.533h5.333c.533 0 1.067.4 1.067 1.067v4.533l6.4-5.333c.133-.133.4-.267.667-.267h8c.4 0 .8-.133 1.2-.533.267-.267.533-.8.533-1.2V5.333c0-.4-.133-.8-.533-1.2-.267-.267-.8-.533-1.2-.533h-21.6zM2.8 2.8c.667-.8 1.6-1.2 2.533-1.2h21.333c.933 0 1.867.4 2.533 1.067s1.067 1.6 1.067 2.533v13.333c0 .933-.4 1.867-1.067 2.533s-1.6 1.067-2.533 1.067h-7.6l-7.733 6.4c-.267.267-.667.267-1.067.133s-.533-.533-.533-.933v-5.6h-4.4c-.933 0-1.867-.4-2.533-1.067s-1.067-1.6-1.067-2.533v-13.2C1.6 4.4 2 3.466 2.8 2.8z"/></svg>