<svg xmlns="http://www.w3.org/2000/svg" width="32" height="32"><path d="M29.2 2.8a3.642 3.642 0 0 0-2.533-1.067H5.334c-.933 0-1.867.4-2.533 1.067-.8.667-1.2 1.6-1.2 2.533v13.333c0 .933.4 1.867 1.067 2.533s1.6 1.067 2.533 1.067h4.267v5.733c0 .4.267.8.533.933.4.133.8.133 1.067-.133l7.733-6.4h7.867c.933 0 1.867-.4 2.533-1.067s1.067-1.6 1.067-2.533V5.332c.133-.933-.267-1.867-1.067-2.533zm-.933 15.867c0 .4-.133.933-.533 1.2-.267.267-.667.533-1.2.533h-8c-.267 0-.4.133-.667.267L11.467 26v-4.667c0-.533-.4-1.067-1.067-1.067H5.333c-.4 0-.933-.133-1.2-.533-.267-.267-.533-.667-.533-1.2v-13.2c0-.4.133-.933.533-1.2.267-.267.8-.4 1.2-.4h21.333c.4 0 .933.133 1.2.533.267.267.533.667.533 1.2v13.2z"/><path d="M21.067 12c0 .533-.4 1.067-1.067 1.067h-2.933V16c0 .533-.4 1.067-1.067 1.067s-1.067-.4-1.067-1.067v-2.933H12c-.533 0-1.067-.533-1.067-1.067s.533-1.067 1.067-1.067h2.933V8c0-.533.4-1.067 1.067-1.067s1.067.4 1.067 1.067v2.933H20c.533 0 1.067.533 1.067 1.067z"/></svg>