<svg xmlns="http://www.w3.org/2000/svg" width="32" height="32"><path d="M9.067 1.333C8.4 1.333 8 1.733 8 2.4s.4 1.067 1.067 1.067H28.4c.933 0 1.6.8 1.6 1.6V12.4c0 .533.4 1.067 1.067 1.067s.933-.533.933-1.2v-7.2c0-2.133-1.6-3.733-3.6-3.733H9.067zM3.6 7.467c.4-.267.667-.4 1.2-.4h19.867c.4 0 .8.133 1.067.4s.4.667.4 1.067v11.733c0 .4-.133.8-.4 1.067s-.667.4-1.067.4H17.2c-.267 0-.4.133-.533.267l-6 4.533v-4c0-.533-.4-.933-.933-.933H4.801c-.4 0-.8-.133-1.067-.4s-.4-.667-.4-1.067v-11.6c-.133-.4 0-.8.267-1.067zm1.2-2.134c-.933 0-1.867.4-2.533.933-.533.667-.933 1.467-.933 2.267v11.733c0 .8.4 1.733.933 2.267.667.667 1.467.933 2.4.933h4v4.933c0 .4.267.667.533.8s.667.133.933-.133l7.2-5.6H24.4c.933 0 1.733-.4 2.4-.933a3.122 3.122 0 0 0 .933-2.267V8.533c0-.8-.4-1.733-.933-2.267-.4-.533-1.333-.933-2.267-.933H4.8z"/></svg>