<svg xmlns="http://www.w3.org/2000/svg" width="32" height="32"><path d="M26.667 12.267c.533 0 1.067.4 1.067 1.067v2.533c0 .4-.133.8-.133 1.067v.133c-.133.4-.133.8-.267 1.2s-.267.667-.4 1.067c-.267.533-.8.8-1.333.533s-.8-.8-.533-1.333c.133-.267.267-.533.267-.933.133-.267.133-.667.267-.933v-.267c0-.267.133-.4.133-.533v-2.266c0-.8.4-1.333.933-1.333zM30 28.667 3.333 2c-.4-.4-1.067-.4-1.467 0s-.4 1.067 0 1.467L9.599 11.2v3.467c0 .4 0 .8.133 1.333l.4 1.2c.133.4.4.667.533 1.067.4.667 1.067 1.2 1.733 1.733.267.267.667.4 1.067.533l1.2.4c.4.133.8.133 1.333.133s.8 0 1.333-.133l1.2-.4c.133 0 .267-.133.4-.133l2.4 2.267c-.267.133-.4.267-.667.4l-.8.4c-.267.133-.533.267-.933.267-.267.133-.533.133-.933.267-.267 0-.533.133-.933.133h-1.866c-.133 0-.267 0-.533-.133h-.267c-.267 0-.667-.133-.933-.267s-.533-.267-.933-.267l-.8-.4-.8-.4c-.267-.133-.533-.267-.667-.533-.533-.4-.933-.8-1.333-1.333-.267-.267-.4-.533-.533-.667l-.4-.8-.4-.8c-.133-.267-.267-.533-.267-.933-.667-.267-.667-.533-.8-.933 0-.267-.133-.533-.133-.933v-2.4c0-.533-.4-1.067-1.067-1.067s-1.067.533-1.067 1.067v2.533c0 .4.133.8.133 1.2.133.267.133.667.267 1.067s.267.667.4 1.067c.267.4.533.8.667 1.067s.4.667.533.933c.267.267.4.667.667.933l1.6 1.6c.267.267.533.533.933.667.267.267.667.4.933.533s.667.4 1.067.533c.267.133.667.267 1.067.4s.8.267 1.2.267h.133c.267 0 .667.133 1.067.133h.133v3.067c0 .533.4 1.067 1.067 1.067s1.067-.4 1.067-1.067v-3.067h.267c.4 0 .8-.133 1.2-.133.267-.133.667-.133 1.067-.267s.667-.267 1.067-.4c.4-.133.667-.267 1.067-.533.267-.133.667-.4.933-.533.133 0 .133-.133.267-.133l5.867 5.867c.4.4 1.067.4 1.467 0 0-.533 0-1.067-.4-1.467zm-13.067-9.734c-.267 0-.667.133-.933.133s-.667 0-.933-.133c-.267 0-.533-.133-.8-.267l-.8-.4c-.4-.267-.8-.667-1.2-1.2l-.4-.8c-.133-.267-.133-.533-.267-.8 0-.267-.133-.667-.133-.933v-1.467l5.733 5.733s-.133.133-.267.133zm1.6-17.066c2.133.933 3.733 3.067 3.733 5.467v7.333c0 .533-.4 1.067-1.067 1.067s-1.067-.4-1.067-1.067V7.334c0-1.6-1.067-3.067-2.533-3.6-1.2-.667-3.067-.4-4.8 1.6-.4.4-1.067.4-1.467.133-.4-.4-.4-1.067-.133-1.467 2.267-2.667 5.067-3.067 7.333-2.133z"/></svg>