<svg xmlns="http://www.w3.org/2000/svg" width="32" height="32"><path d="M16 3.733c-2.4 0-4.267 2-4.267 4.267v6.667c0 2.4 2 4.267 4.267 4.267s4.267-2 4.267-4.267V8c0-2.4-1.867-4.267-4.267-4.267zM9.6 8c0-3.467 2.8-6.4 6.4-6.4 3.467 0 6.4 2.8 6.4 6.4v6.667c0 3.467-2.8 6.4-6.4 6.4-3.467 0-6.4-2.8-6.4-6.4V8z"/><path d="M27.733 13.333v1.333c0 3.067-1.2 6-3.467 8.267-2 2-4.533 3.067-7.2 3.333v3.067c0 .533-.4 1.067-1.067 1.067s-1.067-.4-1.067-1.067v-3.067c-2.667-.267-5.333-1.467-7.2-3.333-2.133-2.133-3.467-5.2-3.467-8.267v-1.333c0-.533.4-1.067 1.067-1.067s1.067.533 1.067 1.067v1.333c0 2.533 1.067 5.067 2.8 6.8s4.267 2.8 6.8 2.8 5.067-1.067 6.8-2.8 2.8-4.267 2.8-6.8v-1.333c0-.533.4-1.067 1.067-1.067s1.067.533 1.067 1.067z"/></svg>