<svg xmlns="http://www.w3.org/2000/svg" width="32" height="32"><path d="M12 2.933c.533 0 1.067.4 1.067 1.067v6.667c0 .667-.267 1.2-.667 1.6s-1.067.8-1.733.8H4c-.533 0-1.067-.533-1.067-1.067S3.466 10.933 4 10.933h6.667c.133 0 .133 0 .267-.133 0 0 .133-.133.133-.267V4c-.133-.533.4-1.067.933-1.067zm9.333 18.134c-.133 0-.133 0-.267.133s-.133.133-.133.267v6.667c0 .533-.4 1.067-1.067 1.067s-1.067-.4-1.067-1.067v-6.667c0-.667.267-1.2.667-1.6s1.067-.667 1.6-.667h6.667c.533 0 1.067.4 1.067 1.067s-.4 1.067-1.067 1.067h-6.4zM2.933 20c0-.533.4-1.067 1.067-1.067h6.667c.667 0 1.2.267 1.6.667s.667 1.067.667 1.6v6.667c0 .533-.4 1.067-1.067 1.067s-.933-.4-.933-.933v-6.667c0-.133 0-.133-.133-.267 0 0-.133-.133-.267-.133H4.001c-.533.133-1.067-.4-1.067-.933zM20 2.933c.533 0 1.067.4 1.067 1.067v6.667c0 .133 0 .133.133.267 0 0 .133.133.267.133h6.667c.533 0 1.067.4 1.067 1.067s-.667.933-1.2.933h-6.667c-.667 0-1.2-.267-1.6-.667s-.8-1.067-.8-1.733V4c0-.533.533-1.067 1.067-1.067z"/></svg>