<svg xmlns="http://www.w3.org/2000/svg" width="32" height="32"><path d="M27.6 20.667c-.267-.267-.533-.4-.933-.4s-.933.133-1.333.133c-1.867 0-3.733-.533-5.333-1.333-1.6-.933-3.067-2.267-4-3.733-.933-1.6-1.6-3.333-1.6-5.2a10.374 10.374 0 0 1 1.067-5.333c.133-.267.133-.667-.133-1.067-.267-.267-.533-.4-.933-.4-2.267 0-4.4.933-6.133 2.267s-3.2 3.2-4.133 5.2-1.333 4.267-1.067 6.533c.267 2.267 1.067 4.4 2.4 6.267s3.067 3.333 5.067 4.267c2 .933 4.267 1.333 6.533 1.2s4.4-.933 6.267-2.267c1.867-1.333 3.333-3.067 4.267-5.067.267-.4.267-.8 0-1.067zm-5.333 4.4c-1.6 1.067-3.333 1.733-5.333 1.867-1.867.133-3.867-.133-5.6-.933s-3.2-2-4.267-3.6c-1.067-1.6-1.867-3.333-2-5.333-.267-1.867.133-3.733.8-5.467s2-3.333 3.467-4.4c1.067-.8 2.267-1.333 3.467-1.733-.267 1.467-.533 2.933-.4 4.533.133 2.133.8 4.267 2 6.133s2.8 3.467 4.667 4.533a11.896 11.896 0 0 0 6 1.6c-.8 1.067-1.733 2-2.8 2.8z"/></svg>