<svg xmlns="http://www.w3.org/2000/svg" width="32" height="32"><path d="M28.667 4.267c-.267-.533-.533-.933-.933-1.333s-.933-.667-1.333-.8c-.267-.133-.667-.133-1.067-.133h-.533L14.134 3.734c-.8.133-1.6.667-2.267 1.333-.533.8-.933 1.6-.933 2.533V20a4.658 4.658 0 0 0-2.933-1.067c-2.8 0-5.067 2.267-5.067 5.067s2.267 5.067 5.067 5.067S13.068 26.8 13.068 24V7.6c0-.4.133-.8.4-1.067S14.135 6 14.535 6l10.667-1.733h.8c.267 0 .4.133.667.267.133.133.267.4.4.533.133.267.133.4.133.667v11.6a4.658 4.658 0 0 0-2.933-1.067c-2.8 0-5.067 2.267-5.067 5.067s2.267 5.067 5.067 5.067 5.067-2.267 5.067-5.067V5.867c-.267-.533-.4-1.067-.667-1.6zM8 26.933c-1.6 0-2.933-1.333-2.933-2.933S6.4 21.067 8 21.067 10.933 22.4 10.933 24 9.6 26.933 8 26.933zm16-2.666c-1.6 0-2.933-1.333-2.933-2.933S22.4 18.401 24 18.401s2.933 1.333 2.933 2.933S25.6 24.267 24 24.267z"/></svg>