<svg xmlns="http://www.w3.org/2000/svg" width="32" height="32"><path d="M3.733 5.333c0-.933.8-1.6 1.6-1.6h21.333c.933 0 1.6.8 1.6 1.6v21.333c0 .933-.8 1.6-1.6 1.6H5.333c-.933 0-1.6-.8-1.6-1.6V5.333zm1.6-3.733c-2 0-3.733 1.733-3.733 3.733v21.333c0 2 1.6 3.733 3.733 3.733h21.333c2 0 3.733-1.6 3.733-3.733V5.333c0-2-1.6-3.733-3.733-3.733H5.333zm4 8c-.533 0-1.067.533-1.067 1.067s.4 1.067 1.067 1.067h13.333c.533 0 1.067-.4 1.067-1.067 0-.533-.4-1.067-1.067-1.067H9.333zM8.267 16c0-.533.4-1.067 1.067-1.067h13.333c.533 0 1.067.4 1.067 1.067s-.4 1.067-1.067 1.067H9.334c-.533 0-1.067-.533-1.067-1.067zm1.066 4.267c-.533 0-1.067.4-1.067 1.067s.4 1.067 1.067 1.067H16c.533 0 1.067-.4 1.067-1.067s-.4-1.067-1.067-1.067H9.333z"/></svg>