<svg xmlns="http://www.w3.org/2000/svg" width="32" height="32"><path d="M6.267 17.2c-.8 1.6.133 2.4 2.267 3.733 1.733 1.067 4.267 1.467 5.867 1.733-.667.667 2.4-2.267-6.267 6-1.867 1.733 1.067 4.533 2.933 2.8l4.933-4.8c1.867 1.867 3.733 3.6 4.933 4.8 1.867 1.733 4.8-1.067 2.933-2.8-.133-.133-6.667-6.4-6.267-6 1.6-.133 4-.533 5.867-1.733 2.133-1.333 3.067-2.133 2.267-3.733-.533-.933-1.733-1.733-3.6-.4 0 0-2.4 1.867-6.133 1.867-3.867 0-6.133-1.867-6.133-1.867-1.733-1.333-3.067-.533-3.6.4z"/><path d="M16 16.133c4.667 0 8.4-3.6 8.4-8.133 0-4.4-3.733-8-8.4-8S7.6 3.6 7.6 8.133c0 4.4 3.733 8 8.4 8zm0-12c2.267 0 4.133 1.733 4.133 4 0 2.133-1.867 4-4.133 4s-4.133-1.733-4.133-4 1.867-4 4.133-4z"/></svg>