<svg xmlns="http://www.w3.org/2000/svg" width="32" height="32"><path d="M29.333 1.6H20c-1.333 0-2.667.533-3.6 1.467-.133.133-.267.4-.4.533-.133-.133-.267-.4-.4-.533-.933-.8-2.267-1.467-3.6-1.467H2.667c-.533 0-1.067.533-1.067 1.067v22.667c0 .533.4 1.067 1.067 1.067H12c.8 0 1.6.267 2.133.933.533.533.933 1.333.933 2.133 0 .533.4 1.067 1.067 1.067s1.067-.4 1.067-1.067c0-.8.267-1.6.933-2.133.533-.533 1.333-.933 2.133-.933h9.333c.533 0 1.067-.4 1.067-1.067V2.667c-.267-.533-.8-1.067-1.333-1.067zm-14.4 23.733C14 24.666 13.066 24.266 12 24.266H3.733V3.733H12c.8 0 1.6.267 2.133.933.533.533.933 1.333.933 2.133v18.533zm13.334-1.066H20c-1.067 0-2.133.4-2.933 1.067V6.667c0-.8.267-1.6.933-2.133.533-.533 1.333-.933 2.133-.933H28.4v20.667z"/></svg>