<svg xmlns="http://www.w3.org/2000/svg" width="32" height="32"><path d="M29.2 6.8a3.642 3.642 0 0 0-2.533-1.067h-2.933v-.4c0-2-1.6-3.733-3.733-3.733H5.334c-2 0-3.733 1.733-3.733 3.733v4c0 2 1.6 3.733 3.733 3.733h14.667c2 0 3.733-1.6 3.733-3.733v-1.6h2.933c.4 0 .933.133 1.2.533.267.267.533.667.533 1.2v8c0 .4-.133.933-.533 1.2-.267.267-.667.533-1.2.533h-8c-.933 0-1.867.4-2.533 1.067s-1.067 1.6-1.067 2.533v6.667c0 .533.4 1.067 1.067 1.067s1.067-.4 1.067-1.067v-6.667c0-.4.133-.933.533-1.2.267-.267.667-.533 1.2-.533h8c.933 0 1.867-.4 2.533-1.067s1.067-1.6 1.067-2.533V9.333c-.133-.933-.533-1.867-1.333-2.533zm-7.6 2.533c0 .933-.8 1.6-1.6 1.6H5.333c-.933 0-1.6-.667-1.6-1.6v-4c0-.933.8-1.6 1.6-1.6H20c.933 0 1.6.8 1.6 1.6v4z"/></svg>