<svg xmlns="http://www.w3.org/2000/svg" width="32" height="32"><path d="M18.133 2.533c.8-.267 1.6-.533 2.4-.533s1.733.133 2.4.533c.8.267 1.467.8 2.133 1.333.533.533 1.067 1.333 1.333 2.133s.533 1.6.533 2.4-.133 1.733-.533 2.4c-.267.8-.8 1.467-1.333 2.133L14.533 23.465c-.4.4-.8.667-1.2.8s-.933.267-1.467.267c-.533 0-.933-.133-1.467-.267-.4-.133-.8-.4-1.2-.8s-.667-.8-.8-1.2c-.133-.4-.267-.933-.267-1.467s.133-.933.267-1.467c.133-.4.4-.8.8-1.2L19.732 7.598c.4-.4 1.067-.4 1.467 0s.4 1.067 0 1.467L10.666 19.598c-.133.133-.267.4-.4.533-.133.267-.133.4-.133.667s0 .4.133.667.267.4.4.533.4.267.533.4c.267.133.4.133.667.133s.4 0 .667-.133.4-.267.533-.4l10.533-10.533c.4-.267.8-.8.933-1.333.267-.533.4-1.067.4-1.733s-.133-1.2-.4-1.733c-.133-.4-.533-.933-.933-1.333s-.933-.667-1.467-.933-1.067-.4-1.6-.4-1.2.133-1.733.4-.933.533-1.333.933L6.933 15.866C5.6 17.199 4.8 19.066 4.8 20.933S5.6 24.666 6.933 26c1.333 1.333 3.2 2.133 5.067 2.133s3.733-.8 5.067-2.133L27.6 15.467c.4-.4 1.067-.4 1.467 0s.4 1.067 0 1.467L18.534 27.467c-1.733 1.733-4 2.667-6.4 2.667s-4.667-.933-6.4-2.667c-1.733-1.733-2.667-4-2.667-6.4S4 16.4 5.734 14.667l10.267-10.8c.533-.533 1.333-1.067 2.133-1.333z"/></svg>