<svg xmlns="http://www.w3.org/2000/svg" width="32" height="32"><path d="M16 3.2C8.933 3.2 3.2 8.933 3.2 16S8.933 28.8 16 28.8 28.8 23.067 28.8 16c0-7.067-5.733-12.8-12.8-12.8zm0 24.4C9.6 27.6 4.4 22.4 4.4 16S9.6 4.4 16 4.4 27.6 9.6 27.6 16 22.4 27.6 16 27.6z"/><path d="M17.2 9.6h-3.467c-.4 0-.533.267-.533.533v12.8c0 .4.267.533.533.533.4 0 .533-.267.533-.533v-5.2h2.933c2.267 0 4.133-1.867 4.133-4.133-.133-2.133-1.867-4-4.133-4zm0 6.933h-2.933V10.8H17.2c1.6 0 2.933 1.333 2.933 2.933s-1.333 2.8-2.933 2.8z"/></svg>