<svg xmlns="http://www.w3.org/2000/svg" width="32" height="32"><path d="M9.333 7.733c-.933 0-1.6.667-1.6 1.6v13.333c0 .933.8 1.6 1.6 1.6h1.333c.933 0 1.6-.8 1.6-1.6V9.333c0-.933-.8-1.6-1.6-1.6H9.333zM5.6 9.333c0-2 1.6-3.733 3.733-3.733h1.333c2 0 3.733 1.6 3.733 3.733v13.333c0 2-1.6 3.733-3.733 3.733H9.333c-2 0-3.733-1.6-3.733-3.733V9.333zm15.733-1.6c-.933 0-1.6.8-1.6 1.6v13.333c0 .933.8 1.6 1.6 1.6h1.333c.933 0 1.6-.8 1.6-1.6V9.333c0-.933-.8-1.6-1.6-1.6h-1.333zm-3.733 1.6c0-2 1.6-3.733 3.733-3.733h1.333c2 0 3.733 1.6 3.733 3.733v13.333c0 2-1.6 3.733-3.733 3.733h-1.333c-2 0-3.733-1.6-3.733-3.733V9.333z"/></svg>