<svg xmlns="http://www.w3.org/2000/svg" width="32" height="32"><path d="M24.8 3.467c-1.333-1.6-3.733-2.133-6.933-2.133h-9.2c-.667 0-1.2.533-1.333 1.067L3.467 26.534c-.133.533.267.8.8.8h5.6l1.467-8.933v.267c.133-.667.667-1.067 1.333-1.067h2.667c5.2 0 9.467-2.133 10.667-8.267 0-.267.133-.533.133-.533.267-2.4-.133-3.733-1.333-5.333z"/><path d="M27.467 10C26.134 16.133 22 19.333 15.2 19.333h-2.4l-1.733 11.333h3.867c.667 0 1.067-.4 1.067-.933v-.267l.8-5.6v-.4c.133-.667.667-.933 1.067-.933h.8c4.667 0 8.267-1.867 9.333-7.2.667-2.267.533-4.133-.533-5.333z"/></svg>