<svg xmlns="http://www.w3.org/2000/svg" width="32" height="32"><path d="m20.133 11.867-3.467-3.333 6.8 6.8-3.333-3.467z"/><path d="m30 9.467-7.6-7.6c-.4-.4-1.067-.4-1.467 0l-2.267 2.4L16.533 6.4 5.2 8.4c-.4 0-.8.4-.8.8L1.733 29.067c-.133.267 0 .667.267.933s.667.4.933.267L22.8 27.6c.4 0 .8-.4.8-.8l1.867-11.467L30 10.8c.4-.267.4-.933 0-1.333zm-8.267 16.266L5.466 28l9.867-9.867c.4-.4.4-1.067 0-1.467s-1.067-.4-1.467 0l-9.867 9.867 2.267-16.267 10.533-1.733 3.467 3.333 3.333 3.467-1.867 10.4zm4.534-13.866-1.6 1.6-6.133-6.133 3.2-3.2 6.133 6.133-1.6 1.6zM21.6 10.4z"/></svg>