<svg xmlns="http://www.w3.org/2000/svg" width="32" height="32"><path d="m27.867 7.067-2.933-2.933-.133-.133c-.667-.533-1.6-.8-2.4-.8-.933 0-1.867.4-2.533 1.067l-4 4L2.401 21.601c-.4.4-.667 1.067-.667 1.6v6.133c0 .533.4 1.067 1.067 1.067h6.133c.667 0 1.2-.267 1.6-.667l17.333-17.333c.667-.667 1.067-1.6 1.067-2.533s-.4-2.133-1.067-2.8zm-18.8 21.2s-.133.133-.267.133H3.733v-5.067c0-.133 0-.133.133-.267l12.933-12.933 5.2 5.2L9.066 28.266zM26.4 10.8l-3.067 3.067-5.2-5.2L21.2 5.6c.267-.267.667-.533 1.2-.533.4 0 .933.133 1.2.533l2.933 2.933c.267.267.533.667.533 1.2s-.4.8-.667 1.067z"/></svg>