<svg xmlns="http://www.w3.org/2000/svg" width="32" height="32"><path d="M8.4 1.6c.933 0 1.733.267 2.4.933.667.533 1.067 1.333 1.2 2.267l.8 5.333c.133.667 0 1.467-.267 2.133a7.635 7.635 0 0 1-1.467 1.467l-4.8 2.933c1.067 1.867 2.267 3.733 3.867 5.2 1.6 1.6 3.333 2.8 5.2 3.867l2.933-4.933c.4-.667.933-1.067 1.6-1.467.667-.267 1.333-.4 2.133-.267l5.333.8c.933.133 1.733.533 2.267 1.2s.933 1.6.933 2.4v3.2c0 .933-.4 1.867-1.067 2.533s-1.6 1.067-2.533 1.067h-1.333c-6.267 0-12.267-2.533-16.8-6.933-4.667-4.4-7.2-10.4-7.2-16.667V5.333c0-.933.4-1.867 1.067-2.533.8-.8 1.733-1.2 2.667-1.2H8.4zm8.667 25.067a22.23 22.23 0 0 0 8.267 1.6h1.333c.4 0 .8-.133 1.2-.533s.533-.8.533-1.2v-3.067c0-.4-.133-.8-.4-1.067s-.667-.533-1.067-.533l-5.333-.8c-.267 0-.667 0-.933.133s-.533.4-.667.667l-2.933 4.8zM5.333 14.933 10 12c.267-.133.533-.4.667-.667s.133-.667.133-.933L10 5.067c0-.4-.267-.8-.533-1.067C9.2 3.867 8.8 3.6 8.4 3.733H5.333c-.4 0-.8.133-1.2.533-.267.267-.4.667-.4 1.067v1.333c0 2.933.533 5.733 1.6 8.267zM17.6 8c0-.533.4-1.067 1.067-1.067C20.4 6.933 22 7.6 23.2 8.8s1.867 2.8 1.867 4.533c0 .533-.4 1.067-1.067 1.067s-1.067-.4-1.067-1.067c0-1.2-.4-2.267-1.333-3.067-.8-.8-1.867-1.333-3.067-1.333-.4.133-.933-.4-.933-.933z"/><path d="M17.6 2.667c0-.533.4-1.067 1.067-1.067 3.067 0 6 1.2 8.267 3.467 2.133 2.133 3.467 5.2 3.467 8.267 0 .533-.4 1.067-1.067 1.067s-1.067-.4-1.067-1.067c0-2.533-1.067-5.067-2.8-6.8-1.867-1.867-4.267-2.8-6.8-2.8-.533 0-1.067-.533-1.067-1.067z"/></svg>