<svg xmlns="http://www.w3.org/2000/svg" width="32" height="32"><path d="M30.267 15.067v-.8c0-.4-.133-.8-.133-1.067-.133-.4-.133-.933-.267-1.333-.267-.4-.4-.8-.533-1.2v-.133c-.133-.267-.133-.4-.267-.533-.667-1.467-1.6-2.933-2.8-4-1.2-1.2-2.533-2.133-4-2.8-.133-.133-.4-.133-.533-.267h-.133l-1.2-.4c-.4-.133-.933-.267-1.333-.267-.4-.133-.8-.133-1.067-.133h-1.733c-8.133-.533-14.667 6-14.667 13.867s6.533 14.4 14.4 14.4 14.4-6.533 14.4-14.4c0-.267-.133-.533-.133-.933zM18 3.867c.267 0 .667.133.933.133s.667.133.933.267c.267.133.533.133.667.267 0 0 .133 0 .133.133h.133c.267.133.667.267.933.4.4.133.667.4 1.067.667.267.133.667.4.933.667h.133l.8.8.8.8v.133c.267.267.4.533.667.933.267.267.4.667.667 1.067.133.267.267.667.4.933v.133s0 .133.133.133c.133.267.133.533.267.667.133.267.133.667.267.933s.133.667.133.933c0 .267.133.667.133.933H16.799V3.732c.533 0 .8 0 1.2.133zm-2 24.4C9.2 28.267 3.733 22.8 3.733 16c0-6.533 4.933-11.733 11.333-12.267V16c0 .533.4 1.067 1.067 1.067H28.4c-.667 6.267-5.867 11.2-12.4 11.2z"/></svg>