<svg xmlns="http://www.w3.org/2000/svg" width="32" height="32"><path d="M19.867 2.933 28.4 11.6c.4.4.4 1.067 0 1.467s-1.067.4-1.467 0l-.133-.133-5.067 5.067a1.843 1.843 0 0 0-.4.533l-1.867 5.067c-.133.533-.4.933-.8 1.333-1.467 1.467-3.733 1.467-5.2 0l-2.8-2.8-6.267 6.267c-.4.4-1.067.4-1.467 0s-.4-1.067 0-1.467l6.267-6.267-2.8-2.8c-1.467-1.467-1.467-3.733 0-5.2.4-.4.8-.667 1.333-.8l5.067-2c.267 0 .4-.133.667-.267l5.067-5.067L18.4 4.4c-.4-.4-.4-1.067 0-1.467s1.067-.4 1.467 0zm5.6 8.534-5.6-5.6-5.067 5.067c-.4.4-.8.667-1.333.8L8.4 13.601c-.267.133-.4.267-.533.4a1.69 1.69 0 0 0 0 2.4l3.467 3.6 3.467 3.467a1.69 1.69 0 0 0 2.4 0c.133-.133.267-.4.4-.533l1.867-5.067c.133-.533.533-.933.8-1.333l5.2-5.067z"/></svg>