<svg xmlns="http://www.w3.org/2000/svg" width="32" height="32"><path d="M16.4 1.333C8.267 1.333 4 6.4 4 12.133c0 2.533 1.467 5.867 3.733 6.8.667.267.667-.133 1.067-2.267 0-.133 0-.4-.133-.533-3.2-3.867-.533-11.867 7.067-11.867 11.067 0 9.067 15.467 2 15.467-1.867 0-3.2-1.467-2.8-3.2.533-2.133 1.6-4.4 1.6-5.867 0-3.733-5.733-3.333-5.733 1.867 0 1.6.667 2.667.667 2.667S9.601 22.667 9.335 24c-.667 2.4 0 6.133 0 6.533 0 .133.267.267.4.133.133-.267 2.4-3.467 3.067-5.733.267-.8 1.067-4.267 1.067-4.267.667 1.067 2.4 2.133 4.267 2.133 5.6 0 9.6-4.933 9.6-11.067.133-6-4.933-10.4-11.333-10.4z"/></svg>