<svg xmlns="http://www.w3.org/2000/svg" width="32" height="32"><path d="m4 20.667-.133-.133.133-.133v.267z"/><path d="M30.4 3.733s-.133 0 0 0V3.6c-.133-.4-.267-.933-.8-1.333-.267-.267-.933-.8-1.6-.8-.667-.133-1.333-.133-1.867 0-.667.133-1.467.267-2 .667-.267.133-.4.267-.667.4-.533.267-1.067.533-1.467.8-.133 0-.133.133-.267.133l-.267.133h-.133s-.133 0-.133.133c-1.733-.8-3.333-1.067-5.2-1.067-7.2 0-13.067 5.733-13.067 13.067 0 1.733.267 3.333.933 4.8v.133h-.133c0 .133-.133.133-.133.267a7.658 7.658 0 0 1-.533.933c-.4.667-.8 1.467-1.067 2.133s-.4 1.333-.533 2c-.133.8-.133 1.333 0 2 .133.4.267.933.8 1.333.267.267.933.8 1.6.8.667.133 1.2.133 1.867 0s1.333-.267 2-.667c.267.133.533 0 .8-.133.533-.267 1.067-.4 1.467-.8.533-.267.933-.533 1.467-.8 1.467.533 2.933.8 4.667.8 7.2 0 13.067-5.733 13.067-13.067 0-1.733-.267-3.333-.933-4.8.133-.267.4-.533.533-.933.4-.667.8-1.467 1.067-2.267.267-.667.4-1.333.533-2 .133-.4.133-.933 0-1.733zm-21.333 23.2c-.4.267-.8.4-1.2.667-.267.133-.533.267-.933.4s-.933.267-1.6.4c-.4.133-.667.133-.933 0h-.4c-.133 0-.133-.133-.267-.133 0 0-.133-.267-.267-.667s-.133-.533 0-.933C3.6 26 3.734 25.6 4 24.934s.667-1.333 1.067-2 0-.133.133-.133c1.067 1.733 2.533 3.2 4.267 4.133-.267-.133-.4-.133-.4 0zm3.466-2.266c-.4.267-.8.667-1.2.8 0 0-.133 0-.133.133-3.733-1.733-6.133-5.467-6.133-9.867A10.897 10.897 0 0 1 16 4.8c4.267 0 8 2.4 9.867 6-.133.267-.267.4-.4.667-.267.4-.533.667-.8 1.067l-.133.133c-.267.4-.533.8-.933 1.2-.667.933-1.333 1.6-2.133 2.667-.8.933-1.6 1.6-2.533 2.533L16.402 21.6c-.933.8-1.733 1.467-2.667 2.133-.4.267-.8.533-1.2.933.133-.133 0-.133 0 0zm3.467 2c-.8 0-1.733-.133-2.533-.267l.133-.133.133-.133c.4-.267.667-.533 1.067-.8a20.15 20.15 0 0 0 2.667-2.267c.933-.8 1.733-1.6 2.667-2.533.933-.933 1.733-1.733 2.533-2.667s1.467-1.733 2.267-2.667c.267-.4.533-.8.8-1.067l.133-.133c.133-.267.4-.4.533-.667.267.8.267 1.733.267 2.667.4 5.733-4.533 10.667-10.667 10.667zM28.4 5.2c0 .133 0 .133 0 0-.133.667-.267 1.2-.533 1.733s-.533 1.2-.8 1.733a15.8 15.8 0 0 0-3.867-4c.267-.133.533-.267.933-.4l.8-.4c.4-.267.933-.267 1.6-.4.4-.133.667-.133.933 0h.4c.133 0 .133.133.267.267 0 0 .133.133.267.667a.852.852 0 0 1 0 .8z"/></svg>