<svg xmlns="http://www.w3.org/2000/svg" width="32" height="32"><path d="M6.267 5.733c.533-.4 1.2-.533 1.867-.533s1.333.267 1.867.533L21.068 12.8c.533.267.933.8 1.2 1.333s.4 1.2.4 1.733c0 .667-.133 1.2-.4 1.733s-.667.933-1.2 1.333l-11.067 7.067c-.533.4-1.2.533-1.867.533s-1.333-.133-1.867-.4a3.214 3.214 0 0 1-1.333-1.333c-.4-.533-.533-1.2-.533-1.867V8.665c0-.667.133-1.333.533-1.867.267-.4.8-.8 1.333-1.067zm.133 3.2V23.2c0 .267.133.533.267.8s.4.4.667.667c.267.133.533.267.8.133.267 0 .533-.133.8-.267l11.067-7.2c.267-.133.4-.4.533-.667s.267-.533.267-.8-.133-.533-.267-.8-.267-.4-.533-.667L8.934 7.466c-.267-.133-.533-.267-.933-.267s-.533 0-.8.133c-.267.267-.533.4-.667.667s-.133.533-.133.933zm20.267-4.666c.533 0 1.067.4 1.067 1.067v21.333c0 .533-.4 1.067-1.067 1.067s-1.067-.4-1.067-1.067V5.334c0-.533.533-1.067 1.067-1.067z"/></svg>