<svg xmlns="http://www.w3.org/2000/svg" width="32" height="32"><path d="M5.333 4.267c.533 0 1.067.4 1.067 1.067v21.333c0 .533-.4 1.067-1.067 1.067s-1.067-.533-1.067-1.067V5.334c0-.533.533-1.067 1.067-1.067zm18.534.933c.667 0 1.333.133 1.867.4s1.067.8 1.333 1.333c.4.533.533 1.2.533 1.867v14.267c0 .667-.133 1.333-.533 1.867s-.8 1.067-1.333 1.333c-.533.267-1.2.4-1.867.4S22.534 26.4 22 26.134l-11.067-7.067c-.533-.267-.933-.8-1.2-1.333s-.4-1.067-.4-1.733c0-.667.133-1.2.4-1.733s.667-.933 1.2-1.333L22 5.868c.533-.4 1.2-.533 1.867-.667zm.933 2.267c-.267-.133-.533-.267-.8-.133-.267 0-.533.133-.8.267L12 14.668c-.267.133-.4.4-.533.667s-.267.533-.267.8.133.533.267.8l.533.533 11.067 7.067c.267.133.533.267.8.267s.533 0 .8-.133.533-.4.667-.667.267-.533.267-.8V8.935c0-.267-.133-.533-.267-.8 0-.4-.267-.533-.533-.667z"/></svg>