<svg xmlns="http://www.w3.org/2000/svg" width="32" height="32"><path d="M10.533 5.2c-.667 0-1.333.133-1.867.4s-1.067.8-1.333 1.333c-.533.667-.667 1.333-.667 2V23.2c0 .667.133 1.333.533 1.867s.8 1.067 1.333 1.333 1.2.4 1.867.4 1.333-.267 1.867-.533L23.333 19.2c.533-.267.933-.8 1.2-1.333s.4-1.2.4-1.733c0-.667-.133-1.2-.4-1.733s-.667-.933-1.2-1.333l-11.067-7.2c-.533-.4-1.2-.533-1.733-.667zM9.6 7.467c.267-.133.533-.267.8-.133.267 0 .533.133.8.267l11.067 7.067c.267.133.4.4.533.667s.267.533.267.8-.133.533-.267.8-.267.4-.533.667L11.2 24.669c-.267.133-.533.267-.8.267s-.533 0-.8-.133c-.267-.4-.533-.533-.667-.8s-.267-.533-.267-.8V8.936c0-.267.133-.533.267-.8.133-.4.4-.533.667-.667z"/></svg>