<svg xmlns="http://www.w3.org/2000/svg" width="32" height="32"><path d="M26.667 8.267h-2.933v-5.6c0-.533-.4-1.067-1.067-1.067S21.6 2.133 21.6 2.667v5.6H10.4v-5.6c0-.533-.4-1.067-1.067-1.067s-1.067.533-1.067 1.067v5.6H5.333C3.333 8.267 1.6 10 1.6 12v8.4c0 .8.267 1.733.8 2.4l5.2 6.267c.667.8 1.733 1.333 2.8 1.333h10.8c1.067 0 2.133-.533 2.8-1.333l5.2-6.267c.533-.667.8-1.467.8-2.4V12c.4-2-1.333-3.733-3.333-3.733zm1.6 12.133c0 .4-.133.8-.4 1.067l-5.2 6.267c-.267.4-.8.667-1.333.667h-10.8c-.533 0-.933-.267-1.333-.667l-5.2-6.267c-.267-.267-.4-.667-.4-1.067V12c0-.933.8-1.6 1.6-1.6h21.333c.933 0 1.6.8 1.6 1.6v8.4z"/></svg>