<svg xmlns="http://www.w3.org/2000/svg" width="32" height="32"><path d="M8 1.6h16c.667 0 1.067.533 1.067 1.067v7.2h1.6c.933 0 1.867.4 2.533 1.067s1.067 1.6 1.067 2.533V22.8c0 .933-.4 1.867-1.067 2.533S27.6 26.4 26.667 26.4h-1.733v2.933c0 .667-.533 1.067-1.067 1.067h-16c-.667 0-1.067-.533-1.067-1.067v-3.067H5.2c-.933 0-1.867-.4-2.533-1.067S1.6 23.599 1.6 22.666v-9.333c0-.933.4-1.867 1.2-2.667a3.642 3.642 0 0 1 2.533-1.067h1.6V2.666c0-.533.533-1.067 1.067-1.067zm14.933 8V3.733H9.066v6h13.867zM8 11.733H5.333c-.4 0-.8.133-1.2.533-.267.267-.4.667-.4 1.067v9.333c0 .4.133.8.533 1.2.267.267.8.533 1.2.533h1.6v-5.733c0-.533.4-1.067 1.067-1.067h16c.533 0 1.067.4 1.067 1.067v5.6h1.467c.4 0 .8-.133 1.2-.533s.533-.8.533-1.2V13.2c0-.4-.133-.8-.533-1.2-.267-.267-.8-.533-1.2-.533H8zm14.933 8H9.066v8.533h13.867v-8.533z"/></svg>