<svg xmlns="http://www.w3.org/2000/svg" width="32" height="32"><path d="M3.733 5.333c0-.933.8-1.6 1.6-1.6h21.333c.933 0 1.6.8 1.6 1.6v21.333c0 .933-.8 1.6-1.6 1.6H5.333c-.933 0-1.6-.8-1.6-1.6V5.333zm1.6-3.733c-2 0-3.733 1.733-3.733 3.733v21.333c0 2 1.6 3.733 3.733 3.733h21.333c2 0 3.733-1.6 3.733-3.733V5.333c0-2-1.6-3.733-3.733-3.733H5.333zM19.6 8.933c-.133-.4-.533-.667-.933-.667s-.8.267-.933.533l-4.4 10.133-1.733-3.467c-.133-.4-.533-.533-.933-.533H8.001c-.533 0-1.067.4-1.067 1.067s.4 1.067 1.067 1.067h2l2.4 4.8c.133.4.533.533.933.533s.8-.267.933-.533l4.4-10 1.733 4.4c.133.4.533.667.933.667H24c.533 0 1.067-.4 1.067-1.067s-.4-1.067-1.067-1.067h-2l-2.4-5.867z"/></svg>