<svg xmlns="http://www.w3.org/2000/svg" width="32" height="32"><path d="M22.4 25.333c3.467-2.267 5.867-6.133 5.867-10.8C28.267 7.6 22.8 2 16 2S3.733 7.6 3.733 14.533 9.2 27.066 16 27.066c1.067 0 2-.133 2.933-.4 1.2 2.133 2.933 3.6 6.667 2.933v-2.133c0 .267-2.533-.4-3.2-2.133zm-.133-9.066c0 2.133-.667 4-1.733 5.467-1.333-1.467-3.467-2.667-6.133-2.4v2.4s1.867.133 3.067 2.267c-.533.133-.933.267-1.467.267-3.467 0-6.267-3.467-6.267-7.867v-3.333c0-4.267 2.8-7.733 6.267-7.733s6.267 3.467 6.267 7.867v3.067z"/></svg>