<svg xmlns="http://www.w3.org/2000/svg" width="32" height="32"><path d="M28.4 12.4c-1.067 0-1.867.4-2.533 1.067-2.4-1.6-5.6-2.8-9.2-2.8l1.867-8.533 6 1.333c0 1.467 1.2 2.667 2.667 2.667s2.667-1.2 2.667-2.667S28.668.8 27.201.8c-1.067 0-2 .667-2.4 1.467L18.268.8c-.267-.133-.667.133-.8.533l-2 9.467c-3.6.133-6.8 1.2-9.2 2.933-.8-.933-1.733-1.333-2.667-1.333-3.733 0-4.933 5.067-1.6 6.8-.133.533-.133 1.067-.133 1.733 0 5.733 6.4 10.4 14.133 10.4 7.867 0 14.267-4.667 14.267-10.4 0-.533 0-1.2-.267-1.733 3.467-1.733 2.133-6.8-1.6-6.8zM7.467 19.6c0-1.467 1.2-2.667 2.667-2.667s2.667 1.2 2.667 2.667c0 1.467-1.2 2.667-2.667 2.667s-2.667-1.2-2.667-2.667zm14.4 6.4c-2.4 2.533-9.333 2.533-11.867 0-.267-.267-.267-.667 0-.933s.667-.267.933 0c1.867 2 8.133 2 10 0 .267-.267.667-.267.933 0s.267.667 0 .933zm0-3.733c-1.467 0-2.667-1.2-2.667-2.667s1.2-2.667 2.667-2.667c1.467 0 2.667 1.2 2.667 2.667s-1.2 2.667-2.667 2.667z"/></svg>