<svg xmlns="http://www.w3.org/2000/svg" width="32" height="32"><path d="M22 4.667c-.4-.4-1.067-.4-1.467 0s-.4 1.067 0 1.467l4.933 4.933H11.333c-2.267 0-4.267.933-5.867 2.4-1.6 1.6-2.4 3.733-2.4 5.867 0 1.067.267 2.133.667 3.2S4.8 24.401 5.6 25.201c1.6 1.6 3.733 2.4 5.867 2.4H16c.533 0 1.067-.4 1.067-1.067s-.4-1.067-1.067-1.067h-4.667A6.35 6.35 0 0 1 6.8 23.6c-.533-.533-1.067-1.333-1.333-2-.267-.8-.533-1.6-.533-2.4a6.35 6.35 0 0 1 1.867-4.533c1.2-.933 2.8-1.6 4.533-1.6h14.267L20.668 18c-.4.4-.4 1.067 0 1.467s1.067.4 1.467 0l6.667-6.667c.133-.133.267-.4.267-.667 0-.133 0-.267-.133-.4a.287.287 0 0 0-.267-.267l-6.667-6.8z"/></svg>