<svg xmlns="http://www.w3.org/2000/svg" width="32" height="32"><path d="M19.467 3.2c-.667-.133-1.333-.267-2.133-.267-1.067 0-2.133.133-3.2.533-.933.267-1.867.8-2.8 1.333-.8.533-1.6 1.067-2.4 1.733l-2 2c-.533.533-1.067 1.333-1.6 1.867v.133c-.133.133-.267.267-.267.4V6.665c0-.533-.4-1.067-1.067-1.067s-1.067.533-1.067 1.067v8c0 .533.4 1.067 1.067 1.067h8c.533 0 1.067-.4 1.067-1.067s-.533-1.067-1.067-1.067H5.6c0-.133.133-.133.133-.267.267-.533.667-1.067 1.067-1.6l.133-.133c.4-.533.933-1.2 1.333-1.733.533-.667 1.2-1.333 1.867-1.867s1.333-1.067 2.133-1.6c.8-.4 1.467-.8 2.4-1.067a8.36 8.36 0 0 1 2.533-.4c.533 0 1.067 0 1.6.133.667.267 1.2.4 1.733.667.533.267.933.533 1.333.8l1.2 1.2c.4.4.667.933 1.067 1.333l.8 1.6c.133.533.8.8 1.333.533.533-.133.8-.8.533-1.333-.267-.667-.533-1.333-.933-2s-.8-1.2-1.2-1.733a7.635 7.635 0 0 0-1.467-1.467c-.533-.133-1.2-.4-1.867-.8-.533-.267-1.2-.533-1.867-.667zm-.534 14.133c0-.533.4-1.067 1.067-1.067h8c.533 0 1.067.4 1.067 1.067v8c0 .533-.4 1.067-1.067 1.067s-1.067-.4-1.067-1.067v-4.267c-.133.133-.133.267-.267.4l-.133.133c-.4.533-.933 1.333-1.6 1.867l-2 2c-.8.667-1.6 1.2-2.4 1.733-.933.533-1.867.933-2.8 1.333-1.067.267-2.133.533-3.2.533-.667 0-1.467-.133-2.133-.267s-1.333-.4-2-.667-1.2-.667-1.733-1.067A7.635 7.635 0 0 1 7.2 25.597c-.533-.533-.933-1.067-1.2-1.733-.4-.667-.667-1.333-.933-2-.133-.533.133-1.067.533-1.333.533-.133 1.067.133 1.333.533l.8 1.6c.267.533.667.933 1.067 1.333l1.2 1.2c.4.267.933.667 1.333.8.667.533 1.2.667 1.733.8.533.133 1.067.133 1.6.133.933 0 1.733-.133 2.533-.4.8-.267 1.6-.667 2.4-1.067.8-.4 1.467-.933 2.133-1.6.667-.533 1.333-1.2 1.867-1.867a8.578 8.578 0 0 0 1.333-1.733l.133-.133c.4-.533.8-1.2 1.067-1.6 0-.133.133-.133.133-.267h-6.267c-.533.133-1.067-.4-1.067-.933z"/></svg>