<svg xmlns="http://www.w3.org/2000/svg" width="32" height="32"><path d="M26 2c-.4-.4-1.067-.4-1.467 0s-.4 1.067 0 1.467L26.8 5.734H8c-.933 0-1.867.4-2.533 1.067-.8.667-1.2 1.6-1.2 2.533v6.667c0 .533.4 1.067 1.067 1.067s1.067-.4 1.067-1.067V9.334c0-.4.133-.8.533-1.2.267-.267.667-.4 1.067-.4h18.933l-2.267 2.267c-.4.4-.4 1.067 0 1.467s1.067.4 1.467 0l4-4c.133-.133.267-.4.267-.667 0-.133 0-.267-.133-.4a.287.287 0 0 0-.267-.267l-4-4.133zm1.733 15.333c0-.533-.4-1.067-1.067-1.067s-1.067.4-1.067 1.067v5.333c0 .4-.133.8-.533 1.2s-.8.533-1.2.533h-18.8l2.267-2.267c.4-.4.4-1.067 0-1.467s-1.067-.4-1.467 0l-4 4c-.133.133-.133.267-.267.267 0 .133-.133.267-.133.4s0 .267.133.4c0 .133.133.267.267.267l4 4c.4.4 1.067.4 1.467 0s.4-1.067 0-1.467l-2.267-2.267h18.933c.933 0 1.867-.4 2.533-1.067s1.067-1.6 1.067-2.533v-5.333z"/></svg>