<svg xmlns="http://www.w3.org/2000/svg" width="32" height="32"><path d="M16 7.467c-.267-.133-.533-.133-1.067-.133-.133 0-.4.133-.8.4l-8.8 6.667c-.267.267-.4.267-.4.4-.133.4-.267.667-.267.933 0 .133 0 .4.133.8.133.267.4.4.533.667l8.8 6.533c.4.267.533.4.8.4.667 0 .8 0 .933-.133.133 0 .133-.133.267-.133s.267-.133.533-.533c.267-.4.267-.667.267-.933v-3.067c0-.4.267-.8.667-.933s.8 0 1.067.267l4.8 4.933c.267.267.533.4.8.533.533 0 .667 0 .8-.133.133 0 .267-.133.267-.133.133 0 .4-.267.667-.533.133-.133.267-.533.267-.933V9.07c0-.4-.133-.667-.267-.933s-.4-.533-.667-.533c-.133 0-.133 0-.267-.133-.267-.133-.533-.133-.933 0-.267.133-.533.267-.8.533l-4.667 6.4c-.267.4-.667.533-1.067.4s-.667-.533-.667-.933v-4.8c0-.133 0-.267-.133-.533 0-.267-.133-.4-.133-.4-.133-.267-.267-.4-.667-.667zm-.933-2.134c.533 0 1.2 0 1.867.4s1.067.8 1.467 1.333c.133.267.267.667.4.933s.133.667.133.933v1.6l2.8-3.867s0-.133.133-.133c.533-.533 1.067-.933 1.733-1.067.8-.133 1.467-.133 2.267.133s1.333.8 1.733 1.333c.4.667.533 1.333.533 2v13.333c0 .667-.133 1.467-.533 2-.267.533-.8 1.067-1.6 1.333-.667.4-1.333.4-1.733.4h-.4c-.8-.133-1.333-.533-1.733-1.067l-3.067-3.2v.667c0 .8-.267 1.333-.533 1.867v.133c-.267.4-.8 1.067-1.467 1.333-.667.4-1.333.4-1.867.4h-.133c-.8 0-1.467-.4-1.867-.667L4.267 18.93c-.133-.267-.267-.267-.267-.267-.267-.267-.533-.533-.933-1.067 0-.133-.133-.133-.133-.267-.133-.4-.267-.933-.267-1.467s.133-1.067.267-1.467c.267-.667.667-1.067 1.2-1.467l8.933-6.8c.533-.4 1.067-.8 2-.8z"/></svg>