<svg xmlns="http://www.w3.org/2000/svg" width="32" height="32"><path d="M9.6 8.8c-2.267 3.067-3.867 6-4.4 7.2-.133.4-.533.533-.933.533h-.933c-2.533 0-3.6-2.933-1.733-4.533l3.6-3.333c.933-.933 2.267-1.333 3.6-1.467.8 0 1.333.933.8 1.6zm15.2 14.4c0-.8-.933-1.333-1.6-.8-3.067 2.267-6 3.867-7.2 4.4-.4.133-.533.533-.533.933v.933c.133 2.4 3.067 3.467 4.667 1.733l3.333-3.6c.8-.933 1.2-2.267 1.333-3.6zm-21.2.667 1.333-1.333c.4-.4.4-1.067 0-1.333-.4-.4-1.067-.4-1.333 0l-1.333 1.333c-.667.667-.133 1.733.667 1.733.267-.133.4-.267.667-.4zm6 6 1.333-1.333c.4-.4.4-1.067 0-1.333-.4-.4-1.067-.4-1.333 0l-1.333 1.333c-.667.667-.133 1.733.667 1.733.267-.133.533-.267.667-.4zm-5.2-.934 4.4-4.4c.4-.4.4-1.067 0-1.333-.4-.4-1.067-.4-1.333 0l-4.4 4.4c-.667.667-.267 1.733.667 1.733a.733.733 0 0 0 .667-.4zm20.667-9.6c-1.467 1.2-2.933 2.267-4.4 3.333-.4.267-.8.133-1.067-.133l-10.133-10c-.267-.4-.4-.8-.133-1.2C10.401 9.6 11.467 8.266 12.801 6.8 16.934 2 23.334-.267 29.468.933l.667.133c.4.133.667.4.8.8l.133.667c1.067 6-.933 12.4-6 16.8zm-.934-11.466c-1.6-1.6-4.4-1.6-6 0s-1.6 4.4 0 6c1.6 1.6 4.4 1.6 6 0 1.733-1.733 1.733-4.4 0-6zM8.667 14.533c-.4-.4-1.067-.267-1.467.267-.133.4-.4.667-.533 1.067-.667 1.2-.4 2.667.667 3.733l5.067 5.067a3.122 3.122 0 0 0 2.267.933c.933 0 1.333-.267 2.533-.933.533-.267.667-.933.267-1.467l-8.8-8.667z"/></svg>