<svg xmlns="http://www.w3.org/2000/svg" width="32" height="32"><path d="M26.667 21.867c-.933 2.4-2.667 4.267-4.933 5.6s-4.8 1.733-7.333 1.467c-2.533-.4-4.933-1.467-6.667-3.333-1.867-1.867-2.933-4.133-3.333-6.667-.4-2.667.133-5.2 1.333-7.467.267-.533.933-.667 1.333-.4.533.267.667.933.4 1.333-1.067 1.867-1.467 4-1.2 6.133s1.2 4 2.667 5.6c1.467 1.467 3.467 2.533 5.6 2.8s4.267-.133 6.133-1.2c1.867-1.067 3.333-2.667 4.133-4.667s.933-4.133.4-6.133-1.733-3.867-3.333-5.2a9.467 9.467 0 0 0-5.867-2h-1.6L16.667 10c.4.4.4 1.067 0 1.467s-1.067.4-1.467 0l-4-4c0-.133-.133-.267-.133-.4s-.133-.267-.133-.4 0-.267.133-.4c0-.133.133-.267.267-.267l4-4c.4-.4 1.067-.4 1.467 0s.4 1.067 0 1.467l-2.267 2.267h1.467c2.533 0 5.067.933 7.067 2.4 2 1.6 3.467 3.733 4.133 6.267s.4 5.067-.533 7.467z"/></svg>