<svg xmlns="http://www.w3.org/2000/svg" width="32" height="32"><path d="M27.733 18.8a10.696 10.696 0 0 1-3.333 6.667c-1.867 1.867-4.133 2.933-6.667 3.333s-5.067-.133-7.333-1.467c-2.267-1.333-4-3.2-4.933-5.6-1.067-2.4-1.2-4.933-.533-7.467s2.133-4.667 4.133-6.267c2-1.6 4.533-2.4 7.067-2.4h1.6l-2.267-2.267c-.4-.4-.4-1.067 0-1.467s1.067-.4 1.467 0l4 4c.133.133.133.267.267.267 0 .133.133.267.133.4s0 .267-.133.4a.287.287 0 0 1-.267.267l-4 4c-.4.4-1.067.4-1.467 0s-.4-1.067 0-1.467l2.267-2.267h-1.733a9.471 9.471 0 0 0-5.867 2c-1.6 1.333-2.8 3.067-3.333 5.2-.533 2-.4 4.267.4 6.133.8 2 2.267 3.6 4.133 4.667s4 1.467 6.133 1.2c2.133-.267 4.133-1.2 5.6-2.8 1.467-1.467 2.4-3.467 2.667-5.6s-.133-4.267-1.2-6.133c-.267-.533-.133-1.067.4-1.333.4-.267 1.067-.133 1.333.4 1.2 2.533 1.733 5.067 1.467 7.6z"/></svg>