<svg xmlns="http://www.w3.org/2000/svg" width="32" height="32"><path d="M8 24c0-.8.533-1.333 1.333-1.333.8 0 1.333.533 1.333 1.333s-.533 1.333-1.333 1.333C8.533 25.333 8 24.8 8 24zm.267-8c0-.533.4-1.067 1.067-1.067 2.4 0 4.667.933 6.4 2.667s2.667 4 2.667 6.4c0 .533-.4 1.067-1.067 1.067s-1.067-.4-1.067-1.067c0-1.867-.8-3.6-2-4.933-1.333-1.333-3.067-2-4.933-2-.533 0-1.067-.533-1.067-1.067zm0-8c0-.533.4-1.067 1.067-1.067 4.533 0 8.8 1.733 12 4.933s4.933 7.467 4.933 12c0 .533-.4 1.067-1.067 1.067s-1.067-.4-1.067-1.067c0-4-1.6-7.733-4.4-10.667-2.8-2.8-6.667-4.4-10.667-4.4-.267.267-.8-.267-.8-.8z"/></svg>