<svg xmlns="http://www.w3.org/2000/svg" width="32" height="32"><path d="M5.156 23.562c-1.809 0-3.281 1.472-3.281 3.281s1.472 3.281 3.281 3.281 3.281-1.472 3.281-3.281a3.285 3.285 0 0 0-3.281-3.281zm0 5.626c-1.292 0-2.344-1.051-2.344-2.344S3.863 24.5 5.156 24.5c1.292 0 2.344 1.051 2.344 2.344s-1.051 2.344-2.344 2.344z"/><path d="M5.156 25.438c-.775 0-1.406.631-1.406 1.406s.631 1.406 1.406 1.406c.775 0 1.406-.631 1.406-1.406s-.631-1.406-1.406-1.406zm0 1.874a.47.47 0 1 1 .001-.94.47.47 0 0 1-.001.94z"/><path d="M28.719 1.875c-1.2 0-2.304.655-2.881 1.709l-.602 1.103H11.719a.469.469 0 0 0 0 .938h13.005L17.87 18.182a.47.47 0 0 0 .411.694c3.36 0 6.094 2.734 6.094 6.094s-2.734 6.094-6.094 6.094H8.115a5.154 5.154 0 0 0 2.197-4.219V5.157c0-2.843-2.313-5.156-5.156-5.156S0 2.314 0 5.157v21.688a5.162 5.162 0 0 0 5.156 5.156h13.125c3.113 0 5.759-2.033 6.682-4.841l6.874-20.981a3.285 3.285 0 0 0-3.119-4.303zM.938 5.156C.938 2.83 2.831.937 5.157.937S9.376 2.83 9.376 5.156v18.728c-.934-1.327-2.476-2.197-4.219-2.197s-3.285.87-4.219 2.197V5.156zm0 21.688c0-2.326 1.893-4.219 4.219-4.219s4.219 1.893 4.219 4.219c0 2.326-1.893 4.219-4.219 4.219S.938 29.171.938 26.844zM30.947 5.887l-5.781 17.648a7.047 7.047 0 0 0-6.117-5.555l7.612-13.945a2.346 2.346 0 0 1 2.058-1.221 2.347 2.347 0 0 1 2.228 3.074z"/></svg>