<svg xmlns="http://www.w3.org/2000/svg" width="32" height="32"><path d="M30 9.067c-.133-.4-.4-.8-.8-1.2L24.133 2.8c-.267-.4-.8-.667-1.2-.8s-.933-.267-1.467-.267H5.333c-.933 0-1.867.4-2.533 1.067-.8.667-1.2 1.6-1.2 2.533v21.333c0 .933.4 1.867 1.067 2.533s1.6 1.067 2.533 1.067h21.333c.933 0 1.867-.4 2.533-1.067s1.067-1.6 1.067-2.533V10.399c.267-.4.133-.933-.133-1.333zm-8.4 19.2H10.4v-10h11.333v10zm6.667-1.6c0 .4-.133.933-.533 1.2-.267.267-.667.533-1.2.533h-2.933V17.333c0-.533-.4-1.067-1.067-1.067h-13.2c-.533 0-1.067.4-1.067 1.067v10.933H5.334c-.4 0-.933-.133-1.2-.533-.267-.267-.533-.667-.533-1.2v-21.2c0-.4.133-.933.533-1.2.267-.267.8-.4 1.2-.4h16.267c.267 0 .4 0 .667.133.133.133.4.267.533.4l5.067 5.067c.133.133.267.4.4.533.133.267.133.4.133.667v16.133z"/><path d="M21.067 9.333c0 .533-.4 1.067-1.067 1.067H9.333c-.533 0-1.067-.533-1.067-1.067s.533-1.067 1.067-1.067H20c.533 0 1.067.533 1.067 1.067z"/></svg>