<svg xmlns="http://www.w3.org/2000/svg" width="32" height="32"><path d="M8 6.4c-.4 0-.8.133-1.2.533C6.533 7.2 6.4 7.6 6.4 8v4c0 .533-.4 1.067-1.067 1.067S4.266 12.534 4.266 12V8c0-.933.4-1.867 1.067-2.533.8-.8 1.733-1.2 2.667-1.2h4c.533 0 1.067.4 1.067 1.067S12.534 6.401 12 6.401H8zM4.267 19.733V24c0 .933.4 1.867 1.067 2.533s1.6 1.067 2.533 1.067h4c.533 0 1.067-.4 1.067-1.067s-.4-.933-.933-.933h-4c-.4 0-.8-.133-1.2-.533-.267-.267-.533-.8-.533-1.2V19.6h19.333V24c0 .4-.133.8-.533 1.2s-.8.533-1.2.533h-4c-.533 0-1.067.4-1.067 1.067s.4 1.067 1.067 1.067h4c.933 0 1.867-.4 2.533-1.067s1.067-1.6 1.067-2.533V20h1.867c.533 0 1.067-.4 1.067-1.067s-.4-1.067-1.067-1.067H2.668c-.533 0-1.067.4-1.067 1.067S2.001 20 2.668 20h1.6zm14.666-14.4c0-.533.4-1.067 1.067-1.067h4c.933 0 1.867.4 2.533 1.067s1.067 1.6 1.067 2.533v4c0 .533-.4 1.067-1.067 1.067s-.933-.4-.933-.933V8c0-.4-.133-.8-.533-1.2-.267-.267-.8-.533-1.2-.533h-4c-.4.133-.933-.4-.933-.933z"/></svg>