<svg xmlns="http://www.w3.org/2000/svg" width="32" height="32"><path d="M31.333 15.067v-3.733l-2.933-.667c-.267-.933-.667-1.733-1.067-2.533l1.733-2.667L26.399 2.8l-2.667 1.733c-.8-.4-1.467-.8-2.4-.933L20.665.4h-3.733l-.667 3.2c-.8.267-1.6.533-2.4.933L11.198 2.8 8.531 5.467l1.733 2.667c-.533.8-.933 1.733-1.067 2.533l-3.067.667v3.733l2.8.533c.267.933.533 1.867 1.067 2.8l-1.2 1.867c-.4-.4-1.2-.4-1.733-.133-2.267 1.333-4.267 3.2-6 5.333-.267.267-.4.667-.533 1.2v.133c-.267 1.333.133 2.667 1.067 3.6 1.2 1.2 3.467 1.467 4.8.533 2.133-1.6 4-3.6 5.333-6s0 0 0-.133c.267-.533.133-1.2-.267-1.733l1.733-1.2c.933.533 1.867.933 2.933 1.2l.533 2.667h3.733l.533-2.667c1.067-.267 2-.667 2.933-1.2l2.267 1.467 2.667-2.667-1.6-2.4c.533-.8.8-1.733 1.067-2.8l3.067-.4zM4.667 28.933l-.4.4c-.4.267-.933.267-1.333-.133s-.4-1.067-.133-1.333l.4-.4c.4-.4.933-.267 1.467.133.267.4.4 1.067 0 1.333zM18.8 18.8c-3.333 0-6-3.067-5.2-6.667.4-2 2.133-3.6 4.133-4 3.467-.667 6.533 2 6.533 5.333-.133 2.933-2.533 5.333-5.467 5.333z"/></svg>