<svg xmlns="http://www.w3.org/2000/svg" width="32" height="32"><path d="M16 13.067c-1.6 0-2.933 1.333-2.933 2.933S14.4 18.933 16 18.933 18.933 17.6 18.933 16 17.6 13.067 16 13.067zM10.933 16c0-2.8 2.267-5.067 5.067-5.067S21.067 13.2 21.067 16c0 2.8-2.267 5.067-5.067 5.067S10.933 18.8 10.933 16z"/><path d="M13.067 2.4c.4-.4 1.067-.667 1.6-.667h2.667c.667 0 1.2.267 1.6.667s.667 1.067.667 1.6v.933c.533.133 1.067.4 1.6.667l.667-.667c.4-.4 1.067-.667 1.6-.667.667 0 1.2.267 1.6.667l2 1.867c.4.4.667 1.067.667 1.6 0 .667-.267 1.2-.667 1.6l-.667.667c.267.533.533 1.067.667 1.6h.933c.667 0 1.2.267 1.6.667s.667 1.067.667 1.6v2.667c0 .667-.267 1.2-.667 1.6s-1.067.667-1.6.667h-.933c-.133.533-.4 1.067-.667 1.6l.667.667c.4.4.667 1.067.667 1.6 0 .667-.267 1.2-.667 1.6l-1.867 1.867c-.4.4-1.067.667-1.6.667-.667 0-1.2-.267-1.6-.667l-.667-.667c-.533.267-1.067.533-1.6.667v1.2c0 .667-.267 1.2-.667 1.6s-1.067.667-1.6.667H14.8c-.667 0-1.2-.267-1.6-.667s-.667-1.067-.667-1.6v-.8c-.533-.133-1.067-.4-1.6-.667l-.667.667c-.4.4-1.067.667-1.6.667-.667 0-1.2-.267-1.6-.667l-1.867-1.867c-.4-.4-.667-1.067-.667-1.6 0-.667.267-1.2.667-1.6l.667-.667c-.267-.533-.533-1.067-.667-1.6h-1.2c-.667 0-1.2-.267-1.6-.667s-.8-1.2-.8-1.867v-2.667c0-.667.267-1.2.667-1.6.533-.533 1.067-.8 1.733-.8h.933c.133-.533.4-.933.667-1.467l-.667-.667c-.4-.4-.667-1.067-.667-1.733s.267-1.2.667-1.6l1.867-1.867c.4-.4 1.067-.667 1.6-.667.667 0 1.2.267 1.6.667l.667.667c.667-.267 1.067-.533 1.6-.667V4c0-.667.267-1.2.8-1.6zm-6.4 10.933c0 .533-.4 1.067-1.067 1.067H4c-.133 0-.133 0-.267.133 0 0-.133.133-.133.267v2.667c0 .133 0 .133.133.267 0 0 .133.133.267.133h1.733c.533-.267.933.267.933.8.267.8.533 1.467.933 2.133.267.4.133.8-.133 1.2l-1.2 1.2s-.133.133-.133.267c0 .133 0 .133.133.267l1.867 1.867s.133.133.267.133c.133 0 .133 0 .267-.133l1.2-1.2c.267-.267.8-.4 1.2-.133.8.4 1.6.8 2.533 1.067.4.133.8.533.8.933v1.733c0 .133 0 .133.133.267s.133.133.267.133h2.667c.133 0 .133 0 .267-.133s.133-.133.133-.267v-1.6c0-.4.267-.8.8-.933.933-.267 1.733-.533 2.533-1.067.4-.267.933-.133 1.2.133l1.2 1.2s.133.133.267.133c.133 0 .133 0 .267-.133l1.867-1.867s.133-.133.133-.267c0-.133 0-.133-.133-.267l-1.2-1.2c-.267-.267-.4-.8-.133-1.2.4-.667.8-1.467.933-2.267v-.133c.133-.4.533-.8.933-.8h1.467c.133 0 .133 0 .267-.133s.133-.133.133-.267v-2.667c0-.133 0-.133-.133-.267s-.133-.133-.267-.133h-1.733c-.533 0-1.067-.4-1.067-1.067-.267-.8-.533-1.467-.933-2.133-.267-.4-.133-.933.133-1.2l1.2-1.2s.133-.133.133-.267c0-.133 0-.133-.133-.267l-1.867-1.867s-.133-.133-.267-.133-.133 0-.267.133l-1.2 1.2c-.267.267-.8.4-1.2.133-.8-.4-1.6-.8-2.533-1.067-.4-.133-.8-.533-.8-.933v-1.6c0-.133 0-.133-.133-.267 0 0-.133-.133-.267-.133H14.4c-.133 0-.133 0-.267.133 0 0-.133.133-.133.267v1.6c0 .4-.267.8-.8.933-.533.267-1.333.667-2.133 1.2-.4.133-.8.133-1.2-.267l-1.2-1.067s-.133-.133-.267-.133c-.133 0-.133 0-.267.133L6.4 8.264s-.133.133-.133.267c0 .133 0 .133.133.267l1.2 1.2c.267.267.267.667.133 1.067-.4.667-.8 1.467-1.067 2.267z"/></svg>