<svg xmlns="http://www.w3.org/2000/svg" width="32" height="32"><path d="m29.6 12.667-2.4-.267c-.133-.667-.4-1.2-.667-1.733l1.467-2c.667-.8.533-1.867-.133-2.533l-2-2c-.667-.667-1.733-.8-2.533-.133l-2 1.467c-.533-.267-1.2-.533-1.733-.667l-.267-2.4c-.133-.933-.933-1.733-1.867-1.733h-2.8c-.933 0-1.733.667-1.867 1.733l-.4 2.4c-.667.133-1.2.4-1.733.667l-2-1.467c-.8-.667-1.867-.533-2.533.133l-2 2c-.667.667-.8 1.733-.133 2.533l1.467 2c-.267.533-.533 1.067-.667 1.733l-2.4.267C1.334 12.8.668 13.6.668 14.534v2.8c0 .933.667 1.733 1.733 1.867l2.4.267c.133.667.4 1.2.667 1.733l-1.467 2.133c-.667.8-.533 1.867.133 2.533l2 2c.667.667 1.733.8 2.533.133l2-1.467c.533.267 1.2.533 1.733.667l.267 2.4c.133.933.933 1.733 1.867 1.733h2.8c.933 0 1.733-.667 1.867-1.733l.267-2.4c.667-.133 1.2-.4 1.733-.667L23.068 28c.8.667 1.867.533 2.533-.133l2-2c.667-.667.8-1.733.133-2.533l-1.2-2c.267-.533.533-1.2.667-1.733l2.4-.267c.933-.133 1.733-.933 1.733-1.867v-2.8c0-1.067-.667-1.867-1.733-2zM16 22.4c-3.467 0-6.4-2.8-6.4-6.4s2.933-6.4 6.4-6.4 6.4 2.8 6.4 6.4-2.933 6.4-6.4 6.4z"/></svg>