<svg xmlns="http://www.w3.org/2000/svg" width="32" height="32"><path d="M25.467 20.267c-1.733 0-3.333.933-4.267 2.267l-9.733-5.067c.133-.533.267-1.067.267-1.6v-.8l10-5.2c.933 1.067 2.267 1.733 3.733 1.733 2.8 0 5.067-2.267 5.067-5.067s-2.4-4.933-5.2-4.933-5.067 2.267-5.067 5.067c0 .533.133 1.067.267 1.6l-9.6 5.067c-.933-1.467-2.533-2.4-4.267-2.4-2.8 0-5.067 2.267-5.067 5.067s2.267 5.067 5.067 5.067c1.467 0 2.8-.667 3.733-1.733l10 5.2v.8c0 2.8 2.267 5.067 5.067 5.067s5.067-2.267 5.067-5.067-2.267-5.067-5.067-5.067zm-.134-16.534c1.6 0 2.933 1.333 2.933 2.933s-1.333 2.933-2.933 2.933S22.4 8.266 22.4 6.666s1.333-2.933 2.933-2.933zm-18.666 15.2c-1.6 0-2.933-1.333-2.933-2.933s1.333-2.933 2.933-2.933S9.6 14.4 9.6 16s-1.333 2.933-2.933 2.933zm18.666 9.334c-1.6 0-2.933-1.333-2.933-2.933s1.333-2.933 2.933-2.933 2.933 1.333 2.933 2.933-1.333 2.933-2.933 2.933z"/></svg>