<svg xmlns="http://www.w3.org/2000/svg" width="32" height="32"><path d="m16.8 1.867 9.6 3.2c.8.267 1.467.8 1.867 1.333.533.667.667 1.467.667 2.133v4.933c0 2.533-.533 5.067-1.867 7.467-1.2 2.267-2.933 4.267-5.067 5.733l-4.667 3.067s-.133 0-.133.133c-.267.133-.667.4-1.2.4s-.933-.267-1.2-.4-.133 0-.133-.133L10 26.533c-2.133-1.467-3.867-3.467-5.067-5.733-1.333-2.267-1.867-4.933-1.867-7.467v-4.8c0-.667.133-1.467.667-2.133 0 0 0-.133.133-.133.4-.4.933-.933 1.733-1.2l9.6-3.2a3.258 3.258 0 0 1 1.6 0zM16 3.733l-9.867 3.2H6l-.667.667c-.267.4-.267.667-.267.933v4.933c0 2.267.533 4.533 1.6 6.4 1.2 2 2.667 3.733 4.533 4.933l4.667 3.2c.133 0 .133.133.267.133s.133 0 .267-.133l4.667-3.2c1.867-1.2 3.333-2.933 4.533-4.933 1.067-2 1.6-4.133 1.6-6.4V8.533c0-.4-.133-.667-.267-1.067-.133-.267-.4-.4-.8-.533H26l-10-3.2z"/></svg>