<svg xmlns="http://www.w3.org/2000/svg" width="32" height="32"><path d="m28.8 7.333-3.6-4.667c-.267-.267-.533-.533-.8-.667s-.667-.267-1.067-.267H8.666c-.4-.133-.667 0-1.067.133-.267.267-.533.4-.8.8l-3.6 4.667c-.133.267-.267.4-.267.667v18.667c0 .933.4 1.867 1.067 2.533s1.6 1.067 2.533 1.067h18.667c.933 0 1.867-.4 2.533-1.067s1.067-1.6 1.067-2.533V7.999c.267-.267.133-.4 0-.667zm-20.4-3.6c.133-.133.267-.133.267-.133h14.8s.133 0 .133.133l2.4 3.2H6l2.4-3.2zm18.533 22.934c0 .4-.133.933-.533 1.2-.267.267-.667.533-1.2.533H6.667c-.4 0-.933-.133-1.2-.533-.267-.267-.533-.667-.533-1.2v-17.6h22v17.6z"/><path d="M23.733 13.333c0 2-.8 4-2.267 5.467s-3.333 2.267-5.467 2.267-4-.8-5.467-2.267c-1.333-1.467-2.267-3.467-2.267-5.467 0-.533.4-1.067 1.067-1.067s1.067.533 1.067 1.067c0 1.467.667 2.933 1.6 4 1.067 1.067 2.533 1.6 4 1.6s2.933-.667 4-1.6c1.067-1.067 1.6-2.533 1.6-4 0-.533.4-1.067 1.067-1.067s1.067.533 1.067 1.067z"/></svg>