<svg xmlns="http://www.w3.org/2000/svg" width="32" height="32"><path d="M9.733 5.867c.133 0 .267 0 .267-.133.133-.133.133-.133.133-.267V4.8h8.4v2.267h-.267c-1.2 0-2.533.533-3.333 1.333-.933.933-1.333 2.133-1.333 3.333v.133s0 .133.133.133l.133.133h10.133c.133 0 .267 0 .267-.133.133-.133.133-.133.133-.267 0-1.2-.533-2.533-1.333-3.333-.933-.933-2.133-1.333-3.333-1.333h-.267v-2.8s0-.133-.133-.133L19.2 4h-9.066v-.8c0-.133 0-.267-.133-.267-.133-.133-.267-.133-.267-.133H4.267V1.6c0-.133 0-.267-.133-.267-.133-.133-.133-.133-.267-.133s-.267 0-.267.133-.267.133-.267.267v5.467c0 .133 0 .267.133.267.133.133.133.133.267.133S4 7.467 4 7.334s.133-.133.133-.267v-1.2h5.6zm13.734 5.466H14.4c.133-.933.533-1.867 1.333-2.4.667-.667 1.6-.933 2.533-.933H19.6c.933 0 1.867.4 2.533.933.8.533 1.2 1.467 1.333 2.4zM9.2 3.6v1.333H4.267V3.6H9.2zm9.733 9.867H18.8s-.133 0-.133.133l-.133.133v.933c0 .133 0 .267.133.267.133.133.133.133.267.133s.267 0 .267-.133.133-.133.133-.267v-.933s0-.133-.133-.133l-.133-.133h-.133zm0 13.6c.133 0 .267 0 .267-.133.133-.133.133-.133.133-.267V25.2c0-.133 0-.267-.133-.267-.133-.133-.133-.133-.267-.133s-.267 0-.267.133-.133.133-.133.267v1.467c0 .133 0 .267.133.267.133.133.133.133.267.133zm0-6.267c-.133 0-.267 0-.267.133-.133.133-.133.133-.133.267v1.467c0 .133 0 .267.133.267.133.133.133.133.267.133s.267 0 .267-.133.133-.133.133-.267V21.2c0-.133 0-.267-.133-.267 0 0-.133-.133-.267-.133zm.534-3.467c0-.133 0-.267-.133-.267-.133-.133-.133-.133-.267-.133s-.267 0-.267.133-.133.133-.133.267v1.333c0 .133 0 .267.133.267.133.133.133.133.267.133s.267 0 .267-.133.133-.133.133-.267v-1.333zM18.933 28.8H18.8s-.133 0-.133.133l-.133.133v.933c0 .133 0 .267.133.267.133.133.133.133.267.133s.267 0 .267-.133.133-.133.133-.267v-.933s0-.133-.133-.133l-.133-.133h-.133zM24.4 14.533l-.133-.667c0-.133-.133-.267-.267-.267s-.267-.133-.267 0-.267.133-.267.267c0 .133-.133.267 0 .267l.133.667c0 .133.133.267.267.267s.267.133.267 0 .267-.133.267-.267v-.267zm2.133 8.267-.4-1.467c0-.133-.133-.267-.267-.267s-.267-.133-.267 0-.133.133-.267.133c0 .133-.133.133-.133.267v.133l.4 1.467s0 .133.133.133l.133.133h.266s.133 0 .133-.133.133-.133.133-.133v-.133c.133 0 .133-.133.133-.133zm1.2 4.133-.4-1.467c0-.133-.133-.267-.267-.267s-.267-.133-.267 0-.133.133-.267.133c0 .133-.133.133-.133.267v.133l.4 1.467c0 .133.133.267.267.267s.267.133.267 0 .267-.133.267-.267c.133-.133.133-.267.133-.267zm-2.266-8v-.266l-.4-1.467s0-.133-.133-.133l-.133-.133h-.266s-.133 0-.133.133l-.133.133v.266l.4 1.467s0 .133.133.133l.133.133h.266l.267-.267c-.133.133-.133.133 0 0zm3.066 11.334L28.4 29.6c0-.133-.133-.133-.133-.267-.133 0-.133-.133-.267-.133h-.266l-.133.133v.266l.133.667c0 .133.133.267.267.267s.267.133.267 0 .267-.133.267-.267c0 .267.133.133 0 0zm-7.066-15.2c.133 0 .267-.133.267-.133.133-.133.133-.267.133-.267l-.133-.8c0-.133-.133-.267-.133-.267-.133-.133-.267-.133-.267-.133-.133 0-.267.133-.267.133l-.133.267.133.8c0 .133 0 .267.133.267 0 .133.133.133.267.133-.133 0 0 0 0 0zm1.466 12.4c.133 0 .267-.133.267-.133l.133-.267L23.2 25.6c0-.133-.133-.267-.133-.267-.133-.133-.133-.133-.267-.133s-.267 0-.267.133-.133.133-.133.267l.133 1.467c0 .133 0 .267.133.267 0 0 .133.133.267.133zM21.867 19.2c.133 0 .267-.133.267-.133.133-.133.133-.267.133-.267l-.133-1.467V17.2s0-.133-.133-.133c0 0-.133 0-.133-.133h-.266s-.133 0-.133.133c0 0 0 .133-.133.133v.133l.133 1.467c0 .133 0 .267.133.267 0 .133.133.133.267.133zm.533 4.133c.133 0 .267-.133.267-.133.133-.133.133-.267.133-.267l-.133-1.6c0-.133-.133-.267-.133-.267-.133-.133-.133-.133-.267-.133s-.267 0-.267.133-.133.133-.133.267L22 22.8c0 .133 0 .267.133.267 0 .267.133.267.267.267zm1.2 6.267v-.133s0-.133-.133-.133c0 0-.133 0-.133-.133h-.266l-.133.133s0 .133-.133.133v.133l.133.8c0 .133 0 .267.133.267.133.133.133.133.267.133.133 0 .267-.133.267-.133.133-.133.133-.267.133-.267l-.133-.8zm-9.2-14.8.133-.667v-.267c0-.133-.133-.133-.267-.267h-.267c-.133 0-.133.133-.267.267l-.133.667v.267c0 .133.133.133.267.267h.267c.133-.133.267-.133.267-.267zm-3.2 10.267h-.267c-.133.133-.267.267-.267.4l-.4 1.467v.267c0 .133.133.133.267.267h.133c.133 0 .133 0 .267-.133.133 0 .133-.133.133-.267l.4-1.467v-.133c0-.133 0-.133-.133-.267l-.133-.133zm-.8 4.533c0-.133 0-.133-.133-.267l-.133-.133h-.533c-.134 0-.133.133-.133.133v.133l-.133.8v.266l.133.133s.133 0 .133.133h.266l.133-.133s0-.133.133-.133l.267-.933c0 .133 0 .133 0 0zm1.867-8.533H12c-.133 0-.133.133-.267.267l-.4 1.467v.267c0 .133.133.133.267.267h.133c.133 0 .133 0 .267-.133s.133-.133.133-.267l.4-1.467v-.133c0-.133 0-.133-.133-.267h-.133zm1.2-4.134H13.2c-.133 0-.133.133-.267.267l-.4 1.467v.266l.133.133s.133 0 .133.133h.133c.133 0 .133 0 .267-.133.133 0 .133-.133.133-.267l.4-1.467v-.267c-.133 0-.267-.133-.267-.133zm3.2-3.466h-.133s-.133 0-.133.133l-.133.133v.133l-.133.8c0 .133 0 .267.133.267.133.133.133.133.267.133.133 0 .267 0 .267-.133.133-.133.133-.133.133-.267l.133-.8c0-.133 0-.267-.133-.267s-.133-.133-.267-.133zm-.4 3.466c-.133 0-.267 0-.267.133-.133.133-.133.133-.133.267l-.133 1.467c0 .133 0 .267.133.267.133.133.133.133.267.133.133 0 .267 0 .267-.133.133-.133.133-.133.133-.267l.133-1.467c0-.133 0-.267-.133-.267 0-.133-.133-.133-.267-.133zm-.4 4.134c-.133 0-.267 0-.267.133-.133.133-.133.133-.133.267l-.133 1.467c0 .133 0 .267.133.267.133.133.133.133.267.133.133 0 .267 0 .267-.133.133-.133.133-.133.133-.267l.133-1.467c0-.133 0-.267-.133-.267-.133-.133-.267-.133-.267-.133zm-.534 4c-.133 0-.267 0-.267.133-.133.133-.133.133-.133.267l-.267 1.467c0 .133 0 .267.133.267.133.133.133.133.267.133.133 0 .267 0 .267-.133.133-.133.133-.133.133-.267l.133-1.467c0-.133 0-.267-.133-.267 0 0 0-.133-.133-.133zM14.8 29.2c-.133 0-.267 0-.267.133-.133.133-.133.133-.133.267l-.133.8c0 .133 0 .267.133.267.133.133.133.133.267.133.133 0 .267 0 .267-.133.133-.133.133-.133.133-.267l.133-.8c0-.133 0-.267-.133-.267 0 0-.133-.133-.267-.133z"/></svg>