<svg xmlns="http://www.w3.org/2000/svg" width="32" height="32"><path d="M30.267 15.6v-.133c0-.133-.133-.267-.133-.4-.133-.267-.267-.8-.533-1.333-.533-1.067-1.333-2.4-2.533-3.867-2.267-2.8-5.867-5.733-10.933-5.733s-8.8 3.067-11.067 5.867c-1.067 1.333-2 2.8-2.533 3.867-.267.533-.4.933-.533 1.333-.133.133-.133.267-.133.4v.133a.406.406 0 0 0 0 .533v.133c0 .133 0 .267.133.4s.267.8.533 1.333S3.602 20.666 4.802 22c2.133 2.8 5.733 5.733 11.467 5.733S25.602 24.8 27.736 22c1.067-1.467 1.733-2.8 2.267-3.867.267-.533.4-.933.533-1.333 0-.133.133-.267.133-.4v-.133c-.267-.267-.267-.4-.4-.667zm-2 .533c-.133.267-.267.667-.4 1.2-.4.933-1.067 2.133-2 3.467C24 23.333 20.934 25.733 16 25.733s-8-2.4-9.867-4.933c-.933-1.2-1.6-2.533-2-3.467-.267-.533-.267-.8-.4-1.2v-.266c.133-.267.267-.667.533-1.2.533-.8 1.333-2.133 2.4-3.333 2-2.533 5.2-4.933 9.333-4.933s7.333 2.4 9.333 4.933c1.067 1.333 1.733 2.533 2.267 3.467.267.533.4.933.533 1.2.133 0 .133 0 .133.133z"/><path d="M16 11.733c-2.4 0-4.267 2-4.267 4.267s2 4.267 4.267 4.267 4.267-2 4.267-4.267S18.4 11.733 16 11.733zM9.6 16c0-3.467 2.8-6.4 6.4-6.4 3.467 0 6.4 2.8 6.4 6.4 0 3.467-2.8 6.4-6.4 6.4-3.467 0-6.4-2.933-6.4-6.4z"/></svg>