<svg xmlns="http://www.w3.org/2000/svg" width="32" height="32"><path d="M30 24.667c.4.4.4 1.067 0 1.467l-4 4c-.4.4-1.067.4-1.467 0s-.4-1.067 0-1.467L26.8 26.4h-5.467c-.533 0-1.2-.133-1.733-.4s-.933-.667-1.333-1.067l-4.933-7.2L8.267 24.8c-.267.533-.8.8-1.333 1.067s-1.067.4-1.6.4H2.667c-.533 0-1.067-.4-1.067-1.067s.4-1.067 1.067-1.067h2.667c.267 0 .533 0 .8-.133.133 0 .4-.133.533-.4l5.467-7.6-5.467-7.6c-.133-.267-.4-.4-.667-.533-.133-.133-.4-.133-.667-.133H2.666c-.533 0-1.067-.533-1.067-1.067S2.132 5.6 2.666 5.6h2.667c.533 0 1.2.133 1.6.4.533.4 1.067.667 1.333 1.2l5.067 7.067L18.4 7.2c.267-.533.8-.8 1.333-1.067s1.067-.4 1.733-.4h5.6l-2.267-2.267c-.4-.4-.4-1.067 0-1.467s1.067-.4 1.467 0l4 4c.133.133.133.267.267.267 0 .133.133.267.133.4s0 .267-.133.4a.287.287 0 0 1-.267.267l-4 4c-.4.4-1.067.4-1.467 0s-.4-1.067 0-1.467l2.267-2.267h-5.733c-.267 0-.533 0-.8.133-.267.267-.4.4-.533.667l-5.467 7.6 5.467 7.6c.133.267.4.4.667.533s.533.133.8.133h5.6L24.8 21.998c-.4-.4-.4-1.067 0-1.467s1.067-.4 1.467 0L30 24.664z"/></svg>