<svg xmlns="http://www.w3.org/2000/svg" width="32" height="32"><path d="M29.2 18.933c2-9.067-6-17.333-15.333-15.733C8.8 0 2 3.6 2 9.6c0 1.467.4 2.667 1.067 3.867-1.867 9.067 6.133 17.2 15.467 15.6 6.667 3.467 14-3.467 10.667-10.133zm-8.933 5.6c-2.4 1.067-6.533 1.067-8.933-.267-3.467-1.867-4.133-6-1.067-6 2.267 0 1.467 2.667 3.867 3.733 1.067.533 3.333.533 4.667-.4 1.333-.8 1.2-2.267.4-2.933-1.867-1.733-7.2-1.067-9.6-4.133-1.067-1.333-1.333-3.6 0-5.2 2.4-2.933 8.933-3.2 11.733-.933 2.667 2.133 2 4.8-.267 4.8-2.533 0-1.2-3.333-5.333-3.333-3.067 0-4.267 2.133-2.133 3.2 2.933 1.467 10.267.933 10.267 6.533 0 2.267-1.333 4-3.6 4.933z"/></svg>