<svg xmlns="http://www.w3.org/2000/svg" width="32" height="32"><path d="M12.267 16.8c-1.6 0-2.933 1.333-2.933 2.933v7.333c0 1.6 1.333 2.933 2.933 2.933s2.933-1.333 2.933-2.933v-7.333c.133-1.6-1.333-2.933-2.933-2.933zM2 19.733c0 1.6 1.333 2.933 2.933 2.933s2.933-1.333 2.933-2.933V16.8H4.933C3.333 16.667 2 18.133 2 19.733zM12.267 2C10.8 2 9.334 3.333 9.334 4.933s1.333 2.933 2.933 2.933H15.2V4.933C15.333 3.333 13.867 2 12.267 2zM4.933 15.333h7.333c1.6 0 2.933-1.333 2.933-2.933s-1.333-2.933-2.933-2.933H4.933C3.333 9.334 2 10.8 2 12.267c0 1.6 1.333 3.067 2.933 3.067zm22.134-6c-1.6 0-2.933 1.333-2.933 2.933v2.933h2.933c1.6 0 2.933-1.333 2.933-2.933s-1.333-2.933-2.933-2.933zm-10.4-4.4v7.333c0 1.6 1.333 2.933 2.933 2.933s2.933-1.333 2.933-2.933V4.933C22.533 3.333 21.2 2 19.6 2s-2.933 1.333-2.933 2.933zm6 22.134c0-1.6-1.333-2.933-2.933-2.933h-2.933v2.933c0 1.6 1.333 2.933 2.933 2.933s2.933-1.333 2.933-2.933zm4.4-10.4h-7.333c-1.6 0-2.933 1.333-2.933 2.933s1.333 2.933 2.933 2.933h7.333c1.6 0 2.933-1.333 2.933-2.933s-1.333-2.933-2.933-2.933z"/></svg>