<svg xmlns="http://www.w3.org/2000/svg" width="32" height="32"><path d="M16 1.6c.533 0 1.067.4 1.067 1.067v4c0 .533-.4 1.067-1.067 1.067s-1.067-.533-1.067-1.067v-4c0-.533.533-1.067 1.067-1.067zm-9.333 0c.533 0 1.067.4 1.067 1.067V16c0 .533-.4 1.067-1.067 1.067S5.6 16.534 5.6 16V2.667c0-.533.533-1.067 1.067-1.067zm18.666 0c.533 0 1.067.4 1.067 1.067V16c0 .533-.4 1.067-1.067 1.067s-1.067-.4-1.067-1.067V2.667c0-.533.533-1.067 1.067-1.067zM30.4 21.333c0 .533-.4 1.067-1.067 1.067H26.4v6.933c0 .533-.4 1.067-1.067 1.067s-1.067-.4-1.067-1.067V22.4h-2.933c-.533 0-1.067-.4-1.067-1.067s.4-1.067 1.067-1.067h8c.533 0 1.067.533 1.067 1.067zM21.067 12c0 .533-.4 1.067-1.067 1.067h-2.933v16.267c0 .533-.4 1.067-1.067 1.067s-1.067-.4-1.067-1.067V13.067H12c-.533 0-1.067-.533-1.067-1.067s.533-1.067 1.067-1.067h8c.533 0 1.067.533 1.067 1.067zm-9.334 9.333c0 .533-.4 1.067-1.067 1.067H7.733v6.933c0 .533-.4 1.067-1.067 1.067s-1.067-.533-1.067-1.067V22.4H2.666c-.533 0-1.067-.4-1.067-1.067s.4-1.067 1.067-1.067h8c.533 0 1.067.533 1.067 1.067z"/></svg>