<svg xmlns="http://www.w3.org/2000/svg" width="32" height="32"><path d="M26.667 25.333c1.067-.133 3.467-.667 3.867-1.6.267-.533-.133-.933-.533-.933-3.867-.667-5.733-4.667-5.733-4.8-1.067-2 1.867-1.6 3.067-2.8 1.067-1.2-.667-2.4-1.867-1.867-.533.267-1.2.533-1.6.267.133-1.867.4-4.8-.4-6.533-2.667-5.6-10-5.867-13.333-2.533-2.8 2.533-2.4 5.2-2.133 9.067-.8.4-1.733-.4-2.267-.4s-1.333.4-1.467.933c-.133.8.667 1.333 1.467 1.733 1.333.533 2.533.667 1.867 2-.933 2.133-3.2 4.4-5.733 4.8-.4.133-.667.533-.533.933.533 1.2 2.933 1.6 4 1.733.4.667.133 1.867 1.067 1.867.4 0 1.2-.267 2.133-.267 1.467 0 2 .4 3.2 1.067 1.2.8 2.533 1.733 4.133 1.6 1.733.133 3.067-.667 4.267-1.6 1.2-.8 2-1.467 4.667-.933 2 .533 1.467-.8 1.867-1.733z"/></svg>