<svg xmlns="http://www.w3.org/2000/svg" width="32" height="32"><path d="M31.287 12.043a2.652 2.652 0 0 0-1.929-.837 2.62 2.62 0 0 0-.831.135l.321-1.796c.218-1.217-.113-2.459-.906-3.406s-1.958-1.492-3.195-1.492H6.905c-1.264 0-2.445.564-3.24 1.547S2.566 8.45 2.831 9.686l.337 1.574a2.636 2.636 0 0 0-2.455.784 2.652 2.652 0 0 0-.707 1.981l.352 5.283a4.041 4.041 0 0 0 3.895 4.006l-.549 2.197c-.112.446-.013.91.27 1.273s.709.571 1.169.571a1.48 1.48 0 0 0 1.439-1.124l.728-2.913h17.378l.728 2.913a1.48 1.48 0 0 0 1.439 1.124c.46 0 .886-.208 1.17-.571s.382-.826.27-1.273l-.549-2.197a4.012 4.012 0 0 0 2.714-1.179 4.008 4.008 0 0 0 1.181-2.828l.352-5.283a2.656 2.656 0 0 0-.707-1.981zM4.45 6.828a3.142 3.142 0 0 1 2.455-1.172h17.842c.937 0 1.819.412 2.421 1.13s.852 1.659.687 2.581l-.491 2.749c-.3.344-.505.761-.596 1.214l-.901 4.507a1.17 1.17 0 0 1-1.144.938H7.279a1.17 1.17 0 0 1-1.144-.938l-.901-4.508a2.649 2.649 0 0 0-.915-1.524L3.82 9.473a3.143 3.143 0 0 1 .632-2.646zm1.154 19.157a.473.473 0 0 1-.834.177.469.469 0 0 1-.086-.407l.609-2.438h.978l-.667 2.668zm21.626.177a.474.474 0 0 1-.834-.177l-.667-2.668h.978l.61 2.438a.472.472 0 0 1-.086.407zm2.517-4.741a3.01 3.01 0 0 1-2.141.887H4.394a3.032 3.032 0 0 1-3.028-3.028l-.001-.016v-.017l-.353-5.289c-.03-.456.125-.891.437-1.224s.735-.517 1.192-.517c.335 0 .657.101.933.293l.001.001.002.001a1.636 1.636 0 0 1 .665 1.017l.901 4.507a2.181 2.181 0 0 0 2.134 1.749h17.444a2.182 2.182 0 0 0 2.134-1.749l.901-4.507c.063-.313.214-.598.437-.824l.014-.015a1.635 1.635 0 0 1 2.342.043c.312.333.467.768.437 1.224l-.353 5.29v.017l-.001.017c0 .808-.315 1.569-.886 2.141z"/></svg>