<svg xmlns="http://www.w3.org/2000/svg" width="32" height="32"><path d="M26.933 14.667c-.4 0-.667 0-1.067.133-.4-4.533-4.267-8.133-8.8-8.133-.667 0-1.067.4-1.067 1.067v16c0 .533.4 1.067 1.067 1.067h10c2.8 0 5.067-2.267 5.067-5.067-.133-2.8-2.4-5.067-5.2-5.067zM12 9.6v14c0 .533.4 1.067 1.067 1.067s1.067-.4 1.067-1.067v-14c0-.533-.4-1.067-1.067-1.067S12 9.066 12 9.6zm-4 4v10c0 .533.4 1.067 1.067 1.067s1.067-.4 1.067-1.067v-10c0-.533-.4-1.067-1.067-1.067S8 13.066 8 13.6zM4 23.733c0 .533.4 1.067 1.067 1.067s1.067-.4 1.067-1.067v-10c0-.533-.4-1.067-1.067-1.067S4 13.066 4 13.599v10.133zm-2.933.934c.533 0 1.067-.4 1.067-1.067v-6c0-.533-.4-1.067-1.067-1.067S0 17.066 0 17.6v6c0 .667.4 1.067 1.067 1.067z"/></svg>