<svg xmlns="http://www.w3.org/2000/svg" width="32" height="32"><path d="m31.623 28.27-1.12-1.795a6.955 6.955 0 0 0-2.608-2.455 2.662 2.662 0 0 0 2.046-1.515 2.68 2.68 0 0 0-.152-2.541l-.235-.375a5.52 5.52 0 0 0-2.292-2.065 2.487 2.487 0 0 0 1.247-1.545 2.487 2.487 0 0 0-.287-1.964 4.632 4.632 0 0 0-3.948-2.193h-5.352a4.627 4.627 0 0 0-3.947 2.193 2.459 2.459 0 0 0-.062 2.515 2.48 2.48 0 0 0 1.022.995 5.515 5.515 0 0 0-2.292 2.065l-.235.375a2.619 2.619 0 0 0-.397 1.51c-.412.18-.808.393-1.185.637a6.844 6.844 0 0 0-3.195-4.23.438.438 0 0 0-.44 0 6.85 6.85 0 0 0-3.197 4.227 8.33 8.33 0 0 0-4.553-1.34.437.437 0 0 0-.437.437v.135a8.38 8.38 0 0 0 2.26 5.728 5.029 5.029 0 0 0-2.203 2.025.443.443 0 0 0 0 .438 5.044 5.044 0 0 0 4.025 2.509 5.038 5.038 0 0 0 4.325-1.946 5.001 5.001 0 0 0 4.745 1.897c.171.038.345.058.52.06h15.85a2.476 2.476 0 0 0 2.1-3.782zM15.676 16.105a1.577 1.577 0 0 1 .042-1.628 3.758 3.758 0 0 1 3.202-1.78h5.352a3.769 3.769 0 0 1 3.205 1.78 1.606 1.606 0 0 1-1.362 2.453h-9.037a1.587 1.587 0 0 1-1.402-.825zm-1.528 4.323.235-.375a4.648 4.648 0 0 1 3.968-2.203h6.492a4.641 4.641 0 0 1 3.967 2.203l.235.375a1.797 1.797 0 0 1-.613 2.494c-.275.162-.59.248-.91.248H16.614a9.05 9.05 0 0 0 .2-1.962.437.437 0 0 0-.437-.437 8.496 8.496 0 0 0-2.488.375c.034-.255.122-.499.258-.718zm-2.152 2.624a7.567 7.567 0 0 1 2.59-1.19c.125-.03 1.35-.217 1.348-.195a7.622 7.622 0 0 1-6.012 7.055 6.884 6.884 0 0 0 2.075-5.67zM.881 21.658a7.458 7.458 0 0 1 3.94 1.395 6.898 6.898 0 0 0 2.075 5.67A7.557 7.557 0 0 1 .88 21.658zm3.542 9.52a4.168 4.168 0 0 1-3.47-1.866 4.154 4.154 0 0 1 1.982-1.587 8.468 8.468 0 0 0 4.657 1.987 4.192 4.192 0 0 1-3.17 1.465zm3.985-2.38a5.937 5.937 0 0 1-2.75-5.013 5.945 5.945 0 0 1 2.75-5.013 5.968 5.968 0 0 1 2.695 4.188 6.022 6.022 0 0 1-2.695 5.837zm4.608 2.332a4.202 4.202 0 0 1-3.792-1.417 8.46 8.46 0 0 0 4.655-1.985 4.21 4.21 0 0 1 1.787 1.31c.067.088.132.178.195.27.092.14-.695.812-.802.902a4.198 4.198 0 0 1-2.043.92zm17.905-.775a1.581 1.581 0 0 1-1.398.823h-14.29a5.138 5.138 0 0 0 1.525-1.645.443.443 0 0 0 0-.438 5.086 5.086 0 0 0-2.193-2.028 8.49 8.49 0 0 0 1.618-2.518 6.168 6.168 0 0 1 2.502-.505h5.823a6.13 6.13 0 0 1 5.253 2.892l1.12 1.795a1.579 1.579 0 0 1 .04 1.623zM22.538.438a.437.437 0 1 0-.874 0c.008.434-.142.856-.422 1.188a2.615 2.615 0 0 0-.578 1.686c-.01.613.194 1.21.578 1.687.28.332.43.754.422 1.188.008.434-.142.856-.422 1.188a2.625 2.625 0 0 0-.578 1.687.437.437 0 1 0 .874 0 1.787 1.787 0 0 1 .422-1.187 2.625 2.625 0 0 0 .578-1.687 2.621 2.621 0 0 0-.578-1.687 1.791 1.791 0 0 1-.422-1.188 1.786 1.786 0 0 1 .422-1.186 2.62 2.62 0 0 0 .578-1.688zm3.631 0a.437.437 0 1 0-.874 0 1.79 1.79 0 0 1-.421 1.188 2.621 2.621 0 0 0-.579 1.686c-.01.613.194 1.21.578 1.687.28.332.43.754.422 1.188.008.434-.142.856-.422 1.188a2.625 2.625 0 0 0-.578 1.687.437.437 0 1 0 .874 0 1.787 1.787 0 0 1 .422-1.187 2.625 2.625 0 0 0 .578-1.687 2.621 2.621 0 0 0-.578-1.687 1.791 1.791 0 0 1-.422-1.188 1.79 1.79 0 0 1 .421-1.186 2.627 2.627 0 0 0 .579-1.688zm-7.269 0a.437.437 0 1 0-.874 0c.008.434-.141.856-.422 1.188a2.615 2.615 0 0 0-.578 1.686c-.01.613.194 1.21.578 1.687.28.332.43.754.422 1.188.008.434-.142.856-.422 1.188a2.625 2.625 0 0 0-.578 1.687.437.437 0 1 0 .874 0 1.787 1.787 0 0 1 .422-1.187 2.625 2.625 0 0 0 .578-1.687 2.621 2.621 0 0 0-.578-1.687 1.791 1.791 0 0 1-.422-1.188 1.786 1.786 0 0 1 .422-1.186A2.62 2.62 0 0 0 18.9.439z"/></svg>