<svg xmlns="http://www.w3.org/2000/svg" width="32" height="32"><path d="M26.8 4.8H5.333c-.267 0-.533.267-.533.533v21.333c0 .267.267.4.4.4h21.467c.267 0 .4-.267.4-.4V5.333c.133-.267-.133-.533-.267-.533zm-.533 21.467H5.734V5.734h20.533v20.533zM5.333 2c-.267 0-.4.267-.4.4v1.333c0 .267.267.4.4.4.267 0 .4-.267.4-.4V2.4c0-.133-.267-.4-.4-.4zM3.867 4.8H2.534c-.267 0-.533.267-.533.533s.267.4.4.4h1.333c.267 0 .4-.267.4-.4.267-.267 0-.533-.267-.533zm0 21.467H2.534c-.267 0-.4.267-.4.4 0 .267.267.4.4.4h1.333c.267 0 .4-.267.4-.4.133-.133-.133-.4-.4-.4zm1.466 1.466c-.267 0-.4.267-.4.4v1.333c0 .267.267.4.4.4.267 0 .4-.267.4-.4v-1.333c0-.267-.267-.4-.4-.4zm21.467 0c-.267 0-.4.267-.4.4v1.333c0 .267.267.4.4.4s.4-.267.4-.4v-1.333c0-.267-.267-.4-.4-.4zm2.8-1.466h-1.467c-.267 0-.4.267-.4.4 0 .267.267.4.4.4H29.6c.267 0 .4-.267.4-.4s-.267-.4-.4-.4zm0-21.467h-1.467c-.267 0-.4.267-.4.4 0 .267.267.4.4.4H29.6c.267 0 .4-.267.4-.4s-.267-.4-.4-.4zM26.8 2c-.267 0-.4.267-.4.4v1.333c0 .267.267.4.4.4s.4-.267.4-.4V2.4c0-.133-.267-.4-.4-.4z"/></svg>