<svg xmlns="http://www.w3.org/2000/svg" width="32" height="32"><path d="M8 3.733c-.933 0-1.6.667-1.6 1.6v21.333c0 .933.8 1.6 1.6 1.6h16c.933 0 1.6-.8 1.6-1.6V5.333c0-.933-.8-1.6-1.6-1.6H8zm-3.733 1.6c0-2 1.6-3.733 3.733-3.733h16c2 0 3.733 1.6 3.733 3.733v21.333c0 2-1.6 3.733-3.733 3.733H8c-2 0-3.733-1.6-3.733-3.733V5.333z"/><path d="M16 14.4c-2.4 0-4.267 2-4.267 4.267s2 4.267 4.267 4.267 4.267-2 4.267-4.267S18.4 14.4 16 14.4zm-6.4 4.267c0-3.467 2.8-6.4 6.4-6.4 3.467 0 6.4 2.8 6.4 6.4s-2.8 6.4-6.4 6.4c-3.467 0-6.4-2.933-6.4-6.4zM14.267 8c0-.933.8-1.6 1.6-1.6.933 0 1.6.8 1.6 1.6S16.934 9.6 16 9.6c-.933 0-1.733-.667-1.733-1.6z"/></svg>