<svg xmlns="http://www.w3.org/2000/svg" width="32" height="32"><path d="M16 32c8.8 0 16-7.2 16-16S24.8 0 16 0 0 7.2 0 16s7.2 16 16 16zm6.533-8.4c-1.067 0-4.533-3.733-14-1.867-.267 0-.533.133-.8.133-1.2 0-1.467-1.867-.133-2.133 5.333-1.2 10.667-1.067 15.333 1.733 1.067.667.533 2.133-.4 2.133zm1.734-4.267c-.133 0-.133.133-.8-.267-4-2.4-10-3.333-15.333-1.867-.4 0-.533.133-.8.133-1.467 0-1.867-2.133-.267-2.533 6.267-1.733 13.067-.8 17.733 2 .533.267.667.667.667 1.333s-.533 1.2-1.2 1.2zM6 9.333c6-1.733 15.2-1.2 20.8 2.133 1.467.8.933 2.933-.667 2.933-.4 0-.533-.133-.8-.267-4.533-2.667-12.8-3.333-18-1.867-.267 0-.533.133-.8.133a1.48 1.48 0 0 1-1.467-1.467c-.133-.933.4-1.467.933-1.6z"/></svg>