<svg xmlns="http://www.w3.org/2000/svg" width="32" height="32"><path d="M26.667 1.6H5.334c-2 0-3.733 1.733-3.733 3.733v21.333c0 2 1.6 3.733 3.733 3.733h21.333c2 0 3.733-1.6 3.733-3.733V5.333c0-2-1.733-3.733-3.733-3.733zm1.6 25.067c0 .933-.8 1.6-1.6 1.6H5.334c-.933 0-1.6-.8-1.6-1.6V5.334c0-.933.8-1.6 1.6-1.6h21.333c.933 0 1.6.8 1.6 1.6v21.333z"/><path d="M22.4 16c0 .533-.4 1.067-1.067 1.067h-4.267v4.267c0 .533-.4 1.067-1.067 1.067s-1.067-.4-1.067-1.067v-4.267h-4.267c-.533 0-1.067-.4-1.067-1.067s.4-1.067 1.067-1.067h4.267v-4.267c0-.533.4-1.067 1.067-1.067s1.067.4 1.067 1.067v4.267h4.267c.533 0 1.067.533 1.067 1.067z"/></svg>