<svg xmlns="http://www.w3.org/2000/svg" width="32" height="32"><path d="M26.667 1.6H5.334c-2 0-3.733 1.733-3.733 3.733v21.333c0 2 1.6 3.733 3.733 3.733h21.333c2 0 3.733-1.6 3.733-3.733V5.333c0-2-1.733-3.733-3.733-3.733zm1.6 25.067c0 .933-.8 1.6-1.6 1.6H5.334c-.933 0-1.6-.8-1.6-1.6V5.334c0-.933.8-1.6 1.6-1.6h21.333c.933 0 1.6.8 1.6 1.6v21.333z"/><path d="M20.667 19.333c.4.4.4 1.067 0 1.467s-1.067.4-1.467 0L16 17.467 12.667 20.8c-.4.4-1.067.4-1.467 0s-.4-1.067 0-1.467L14.533 16l-3.2-3.333c-.4-.4-.4-1.067 0-1.467s1.067-.4 1.467 0l3.333 3.333 3.333-3.333c.4-.4 1.067-.4 1.467 0s.4 1.067 0 1.467L17.466 16l3.2 3.333z"/></svg>