<svg xmlns="http://www.w3.org/2000/svg" width="32" height="32"><path d="M5.333 3.733c-.933 0-1.6.667-1.6 1.6v21.333c0 .933.8 1.6 1.6 1.6h21.333c.933 0 1.6-.8 1.6-1.6V5.333c0-.933-.8-1.6-1.6-1.6H5.333zM1.6 5.333c0-2 1.6-3.733 3.733-3.733h21.333c2 0 3.733 1.6 3.733 3.733v21.333c0 2-1.6 3.733-3.733 3.733H5.333c-2 0-3.733-1.6-3.733-3.733V5.333z"/><path d="M14.933 9.333c0-.533.4-1.067 1.067-1.067.533 0 1.067.4 1.067 1.067S16.534 10.4 16 10.4c-.533 0-1.067-.533-1.067-1.067zM16 13.6c.533 0 1.067.4 1.067 1.067v8c0 .533-.4 1.067-1.067 1.067s-1.067-.4-1.067-1.067v-8c0-.533.533-1.067 1.067-1.067z"/></svg>