<svg xmlns="http://www.w3.org/2000/svg" width="32" height="32"><path d="M30.267 12c-.133-.4-.4-.667-.8-.667l-8.667-1.2-3.867-7.867c-.133-.4-.533-.533-.933-.533s-.667.267-.933.533L11.2 10.133l-8.667 1.2c-.4 0-.667.4-.8.667-.133.4 0 .8.267 1.067L8.267 19.2 6.8 27.867c-.133.4.133.8.4.933.267.267.667.267 1.067.133L16 24.8l7.733 4.133c.267.133.8.133 1.067-.133s.533-.533.4-.933L23.733 19.2 30 13.067c.267-.267.4-.667.267-1.067zM22 18.133c-.267.267-.4.533-.267.933l1.2 7.2-6.4-3.333c-.133-.267-.267-.267-.4-.267V5.199l3.067 6.267c.133.267.4.533.8.533l7.2 1.067-5.2 5.067z"/></svg>