<svg xmlns="http://www.w3.org/2000/svg" width="32" height="32"><path d="M16 1.733c.4 0 .667.267.933.533l3.867 7.867 8.667 1.2c.4 0 .667.267.8.667s0 .8-.267 1.067L23.733 19.2l1.467 8.667c0 .4-.133.8-.4.933-.267.267-.667.267-1.067.133L16 24.8l-7.733 4.133c-.4.133-.8.133-1.067-.133s-.4-.667-.4-.933L8.267 19.2 2 13.067C1.733 12.8 1.6 12.4 1.733 12s.4-.667.8-.667l8.667-1.2 3.867-7.867c.133-.4.533-.533.933-.533zm0 3.2-3.2 6.533c-.133.267-.4.533-.8.533l-7.2 1.067 5.2 5.067c.267.267.4.533.267.933l-1.2 7.2 6.4-3.333a1.14 1.14 0 0 1 .933 0l6.4 3.333-1.2-7.2c0-.267 0-.667.267-.933l5.2-5.067L20 11.999c-.267 0-.667-.267-.8-.533L16 4.933z"/></svg>