<svg xmlns="http://www.w3.org/2000/svg" width="32" height="32"><path d="M23.2 3.467c-4 0-7.467 3.333-7.467 7.333l-4.667 6.533c-1.333-.133-2.4.133-3.467.8L1.332 15.6v6.933L5.065 24c.533 2.4 2.8 4.4 5.333 4.4 2.933 0 5.2-2.133 5.467-5.067l7.2-5.2a7.455 7.455 0 0 0 7.467-7.467c.133-3.867-3.2-7.2-7.333-7.2zM6.933 24.933l2 .8c1.733.8 3.467-.133 4.267-1.733.8-1.733-.133-3.6-1.867-4.133l-1.733-.8c2.533-.667 5.067 1.333 5.067 4 0 2.267-5.733 5.467-7.733 1.867zM23.2 15.867c-2.8 0-5.067-2.133-5.067-5.067 0-2.667 2.133-5.067 5.067-5.067 2.667 0 5.067 2.267 5.067 5.067S26 15.867 23.2 15.867z"/><path d="M23.2 6.933c-2.133 0-4 1.867-4 4s1.867 4 4 4 4-1.867 4-4c0-2.267-1.733-4-4-4z"/></svg>