<svg xmlns="http://www.w3.org/2000/svg" width="32" height="32"><path d="M30 13.067c-.533-2.533-1.733-4.8-3.467-6.8-1.733-1.867-4-3.333-6.4-4-2.533-.667-5.067-.8-7.6-.133-2.533.533-4.8 1.867-6.667 3.733S2.666 10 2.133 12.4c-.667 2.533-.533 5.2.133 7.6s2.133 4.667 4 6.4c1.867 1.733 4.267 2.933 6.8 3.467.667.133 1.2.133 1.867 0 .533-.133 1.067-.533 1.6-.933L29.2 16.267c.4-.4.8-.933.933-1.6 0-.4 0-1.067-.133-1.6zM15.067 27.6c-.533-1.067-.8-2.267-.667-3.467 0-2.533 1.067-5.067 2.8-6.8s4.267-2.8 6.8-2.8c1.2 0 2.4.133 3.467.667l-12.4 12.4zM24 12.267c-3.067 0-6 1.2-8.267 3.467-2.133 2.133-3.467 5.2-3.467 8.267 0 1.333.133 2.8.667 4-2-.533-3.867-1.467-5.467-2.933s-2.8-3.467-3.467-5.6c-.4-2.133-.533-4.4 0-6.533s1.6-4.133 3.2-5.733c1.6-1.6 3.6-2.667 5.733-3.2s4.4-.533 6.533.133c2.133.667 4 1.867 5.6 3.467 1.467 1.6 2.4 3.333 2.933 5.467-1.333-.533-2.667-.8-4-.8z"/></svg>