<svg xmlns="http://www.w3.org/2000/svg" width="31" height="32"><path d="M29.824 29.568H25.6c1.92-.896 3.2-2.432 3.2-4.608 0-4.48-5.376-5.76-9.472-6.272 4.224-1.792 5.76-4.352 5.12-7.04-.512-1.92-1.92-3.2-4.224-3.584.768-.768 1.152-1.792 1.152-2.688 0-3.072-3.456-4.608-6.144-4.608S9.088 2.304 9.088 5.376c0 1.792 1.28 3.072 2.816 3.84-4.864 1.664-6.784 4.48-6.016 7.296.256 1.152.896 2.048 2.048 2.688-3.2.768-6.016 2.432-6.016 5.632 0 2.176 1.408 3.712 3.2 4.608H.896c-.512 0-.896.384-.896.896s.384.896.896.896h28.928c.512 0 .896-.384.896-.896s-.384-.768-.896-.768zM10.88 5.248c0-1.536 2.048-2.816 4.352-2.816s4.352 1.28 4.352 2.816c0 1.536-2.048 2.816-4.352 2.816-2.432 0-4.352-1.28-4.352-2.816zm-3.2 10.88c-.64-2.56 2.176-4.608 6.528-5.76 2.688-.768 7.68-1.536 8.576 1.792.768 2.688-2.176 4.608-6.528 5.76-7.296 1.92-8.32-1.152-8.576-1.792zM3.712 24.96c0-2.944 4.352-4.608 11.648-4.608s11.648 1.792 11.648 4.608c0 2.944-4.352 4.608-11.648 4.608S3.712 27.776 3.712 24.96z"/></svg>