<svg xmlns="http://www.w3.org/2000/svg" width="32" height="32"><path d="M16 11.733c-2.4 0-4.267 2-4.267 4.267s2 4.267 4.267 4.267 4.267-2 4.267-4.267S18.4 11.733 16 11.733zM9.6 16c0-3.467 2.8-6.4 6.4-6.4 3.467 0 6.4 2.8 6.4 6.4 0 3.467-2.8 6.4-6.4 6.4-3.467 0-6.4-2.933-6.4-6.4zM16 1.6c.533 0 1.067.4 1.067 1.067v2.667c0 .533-.4 1.067-1.067 1.067s-1.067-.533-1.067-1.067V2.667c0-.533.533-1.067 1.067-1.067zm0 24c.533 0 1.067.4 1.067 1.067v2.667c0 .533-.4 1.067-1.067 1.067s-1.067-.4-1.067-1.067v-2.667c0-.533.533-1.067 1.067-1.067zm9.6-9.6c0-.533.4-1.067 1.067-1.067h2.667c.533 0 1.067.4 1.067 1.067s-.4 1.067-1.067 1.067h-2.667c-.533 0-1.067-.533-1.067-1.067zm-24 0c0-.533.4-1.067 1.067-1.067h2.667c.533 0 1.067.4 1.067 1.067s-.533 1.067-1.067 1.067H2.667c-.533 0-1.067-.533-1.067-1.067zm21.2 6.8c.4-.4 1.067-.4 1.467 0l1.867 1.867c.4.4.4 1.067 0 1.467s-1.067.4-1.467 0L22.8 24.267c-.4-.4-.4-1.067 0-1.467zM5.867 5.867c.4-.4 1.067-.4 1.467 0l1.867 1.867c.4.4.4 1.067 0 1.467s-1.067.4-1.467 0L5.867 7.334c-.4-.4-.4-1.067 0-1.467zM9.2 22.8c.4.4.4 1.067 0 1.467l-1.867 1.867c-.4.4-1.067.4-1.467 0s-.4-1.067 0-1.467L7.733 22.8c.4-.4 1.067-.4 1.467 0zM26.133 5.867c.4.4.4 1.067 0 1.467l-1.867 1.867c-.4.4-1.067.4-1.467 0s-.4-1.067 0-1.467l1.867-1.867c.4-.4 1.067-.4 1.467 0z"/></svg>