<svg xmlns="http://www.w3.org/2000/svg" width="32" height="32"><path d="M25.333 2.933H6.666c-2 0-3.733 1.733-3.733 3.733v18.667c0 2 1.6 3.733 3.733 3.733h18.667c2 0 3.733-1.6 3.733-3.733V6.666c0-2-1.733-3.733-3.733-3.733zM13.067 5.067h6v6h-6v-6zm0 8h6v6h-6v-6zm-2.134 13.866H6.666c-.933 0-1.6-.8-1.6-1.6v-4.267h6v5.867zm0-8H5.066v-5.867h6v5.867zm0-8H5.066V6.666c0-.933.8-1.6 1.6-1.6h4.267v5.867zm2.134 10.134h6v6h-6v-6zm13.866 4.266c0 .933-.8 1.6-1.6 1.6h-4.267v-6h6v4.4zm0-6.4h-6v-5.867h6v5.867zm0-8h-6V5.066h4.4c.933 0 1.6.8 1.6 1.6v4.267z"/></svg>