<svg xmlns="http://www.w3.org/2000/svg" width="32" height="32"><path d="M14.933 1.6c.533 0 .933.133 1.467.267.4.133.8.4 1.2.8l10.667 10.667c.667.667 1.067 1.6 1.067 2.533s-.4 1.867-1.067 2.533l-9.6 9.6c-.667.667-1.6 1.067-2.533 1.067s-1.867-.4-2.533-1.067L2.934 17.333c-.4-.4-.667-.8-.8-1.2s-.267-.933-.267-1.467V5.333c0-.933.4-1.867 1.067-2.533.533-.8 1.467-1.2 2.4-1.2h9.6zm0 0zm.667 2.133c-.267-.133-.4-.133-.667-.133h-9.6c-.4 0-.8.133-1.2.533-.267.4-.4.8-.4 1.2v9.6c0 .267 0 .4.133.667s.267.4.4.533L14.933 26.8c.267.267.8.533 1.2.533s.8-.133 1.2-.533l9.6-9.6c.267-.267.533-.8.533-1.2s-.133-.8-.533-1.2L16.266 4.133c-.4-.133-.533-.267-.667-.4z"/><path d="M11.333 9.067c-1.333 0-2.4 1.067-2.4 2.4s1.067 2.4 2.4 2.4 2.4-1.067 2.4-2.4-1.067-2.4-2.4-2.4zm-4.4 2.266c0-2.4 2-4.267 4.267-4.267 2.4 0 4.267 2 4.267 4.267 0 2.4-2 4.267-4.267 4.267-2.267.133-4.267-1.867-4.267-4.267z"/></svg>