<svg xmlns="http://www.w3.org/2000/svg" width="32" height="32"><path d="m25.6 7.733 2.267.4L32 4l-3.333-.533L28 0l-4.133 4.133.4 2.267-.933.933c-2.533-2.267-5.867-3.467-9.2-3.467C6.267 3.866.001 10.133.001 17.999c0 7.733 6.267 14 14 14s14-6.267 14-14c0-3.467-1.2-6.667-3.467-9.2l1.067-1.067zm1.2-3.866.133 1.067L28 5.067l-.8.8-1.067-.133L26 4.667l.8-.8zM26.267 18c0 6.667-5.467 12.133-12.133 12.133S2.001 24.666 2.001 18c0-6.667 5.467-12.133 12.133-12.133 3.067 0 5.733 1.067 7.867 2.933l-2.667 2.667a8.283 8.283 0 0 0-5.2-1.867c-4.667 0-8.4 3.733-8.4 8.4s3.733 8.4 8.4 8.4 8.4-3.733 8.4-8.4c0-2-.667-3.867-1.867-5.2l2.667-2.667c1.867 2 2.933 4.8 2.933 7.867zm-5.6 0c0 3.6-2.933 6.533-6.533 6.533S7.601 21.6 7.601 18c0-3.6 2.933-6.533 6.533-6.533 1.467 0 2.8.533 3.867 1.333l-2.667 2.667c-.4-.133-.8-.267-1.2-.267-1.6 0-2.8 1.2-2.8 2.8s1.2 2.8 2.8 2.8c1.6 0 2.8-1.2 2.8-2.8 0-.4-.133-.8-.267-1.2l2.667-2.667c.8.933 1.333 2.267 1.333 3.867zm-5.6 0c0 .533-.4.933-.933.933s-.933-.4-.933-.933.4-.933.933-.933c.4-.133.933.4.933.933z"/></svg>