<svg xmlns="http://www.w3.org/2000/svg" width="32" height="32"><path d="M5.333 5.067c-.933 0-1.6.667-1.6 1.6v18.667c0 .933.8 1.6 1.6 1.6h21.333c.933 0 1.6-.8 1.6-1.6V6.667c0-.933-.8-1.6-1.6-1.6H5.333zM1.6 6.667c0-2 1.6-3.733 3.733-3.733h21.333c2 0 3.733 1.6 3.733 3.733v18.667c0 2-1.6 3.733-3.733 3.733H5.333c-2 0-3.733-1.6-3.733-3.733V6.667z"/><path d="M8.533 12.8c.267-.4.933-.533 1.333-.267l5.333 4c.267.133.4.533.4.8s-.133.667-.4.8l-5.333 4c-.4.267-1.067.267-1.333-.133s-.267-1.067.133-1.467l4.4-3.2-4.267-3.2c-.533-.267-.533-.933-.267-1.333z"/></svg>