<svg xmlns="http://www.w3.org/2000/svg" width="32" height="32"><path d="M28.933 8.667c-1.733 0-3.2-.533-4.4-1.467-1.467-1.067-2.4-2.667-2.8-4.4-.133-.4-.133-.933-.133-1.333h-4.8v20.267c0 1.867-1.2 3.6-2.933 4.133-.533.133-1.067.267-1.6.267-.667 0-1.333-.267-2-.667C8.8 24.534 8 23.2 8 21.6c0-2.4 1.867-4.4 4.4-4.4.533 0 .933.133 1.333.267v-4.933c-.4-.133-.933-.133-1.333-.133-2.667 0-5.067 1.067-6.933 3.067-1.333 1.467-2.133 3.467-2.267 5.467-.133 2.667.8 5.2 2.667 6.933l.8.8c1.6 1.333 3.6 2 5.6 2 .4 0 .933 0 1.333-.133a9.199 9.199 0 0 0 5.067-2.533c1.733-1.733 2.667-4 2.667-6.4V10.935c.8.667 1.733 1.2 2.667 1.6 1.467.667 3.067.933 4.8.933v-3.467l.133-1.333z"/></svg>