<svg xmlns="http://www.w3.org/2000/svg" width="32" height="32"><path d="M13.333 6.4c-5.333 0-9.6 4.267-9.6 9.6s4.267 9.6 9.6 9.6h5.333c5.333 0 9.6-4.267 9.6-9.6s-4.267-9.6-9.6-9.6h-5.333zM1.6 16c0-6.4 5.2-11.733 11.733-11.733h5.333c6.4 0 11.733 5.2 11.733 11.733 0 6.4-5.2 11.733-11.733 11.733h-5.333C6.933 27.733 1.6 22.4 1.6 16z"/><path d="M13.333 11.733c-2.4 0-4.267 2-4.267 4.267s2 4.267 4.267 4.267c2.4 0 4.267-2 4.267-4.267s-1.867-4.267-4.267-4.267zM6.933 16c0-3.467 2.8-6.4 6.4-6.4 3.467 0 6.4 2.8 6.4 6.4 0 3.467-2.8 6.4-6.4 6.4-3.467 0-6.4-2.933-6.4-6.4z"/></svg>