<svg xmlns="http://www.w3.org/2000/svg" width="32" height="32"><path d="M29.333 7.067c-.133-.267-.4-.533-.667-.533s-.667 0-.933.267l-5.067 5.067-2.533-2.533L25.2 4.268c.133-.267.267-.533.267-.933 0-.267-.267-.667-.533-.667-1.733-.8-3.6-1.2-5.6-.933-2.4.4-4.667 1.6-6.133 3.6-1.467 1.733-2.267 3.867-2.267 6.133v.667c0 .533.133 1.067.267 1.6l-8.933 8.933c-.667.667-.933 1.6-.933 2.533s.4 1.867 1.067 2.533l1.867 1.867c.667.667 1.6 1.067 2.533 1.067s1.867-.4 2.533-1.067l8.933-8.933c.667.133 1.467.267 2.267.267 2.4 0 4.667-.8 6.4-2.4 1.733-1.467 2.933-3.6 3.2-5.867v-.266c.4-1.733 0-3.6-.8-5.333zM28.267 12.4c-.267 1.867-1.2 3.467-2.667 4.8-1.467 1.2-3.2 1.867-5.067 1.867-.8 0-1.467-.133-2.267-.4-.4-.133-.667 0-1.067.267l-9.333 9.333c-.267.267-.667.533-1.2.533s-.933-.133-1.2-.533L3.599 26.4c-.267-.267-.533-.667-.533-1.2s.133-.933.533-1.2l9.333-9.333c.267-.267.4-.667.267-1.067 0-.533-.133-1.067-.133-1.6-.133-2 .4-4 1.6-5.467s2.933-2.533 4.933-2.8c1.067-.133 2 0 3.067.267l-4.667 4.667c-.4.4-.4 1.067 0 1.467l4 4c.4.4 1.067.4 1.467 0l4.533-4.8c.267.933.4 2 .267 3.067z"/></svg>