<svg xmlns="http://www.w3.org/2000/svg" width="32" height="32"><path d="M31.562 6.375h-4.46a4.88 4.88 0 0 0-4.853-4.438h-12.5a4.882 4.882 0 0 0-4.853 4.438H.436a.437.437 0 0 0-.437.437v3.352a.437.437 0 0 0 .437.437h4.438v19.023a.437.437 0 0 0 .437.437h16.938a.437.437 0 0 0 .437-.437v-4.778h4a.437.437 0 0 0 .437-.437V10.601h4.438a.437.437 0 0 0 .437-.437V6.812a.437.437 0 0 0-.437-.437zM9.75 2.813h12.5a4.004 4.004 0 0 1 4 4v10.161a2.632 2.632 0 0 0-1.204.547 1.74 1.74 0 0 1-2.26 0 2.604 2.604 0 0 0-3.284 0 1.738 1.738 0 0 1-2.258 0 2.604 2.604 0 0 0-3.282 0 1.736 1.736 0 0 1-2.258 0 2.627 2.627 0 0 0-1.204-.547V8.813a2.443 2.443 0 0 0-2.438-2.438H5.775A4.01 4.01 0 0 1 9.75 2.812zm16.5 16.457a2.607 2.607 0 0 0-1.204.55 1.74 1.74 0 0 1-2.26 0 2.604 2.604 0 0 0-3.284 0 1.738 1.738 0 0 1-2.258 0 2.604 2.604 0 0 0-3.282 0 1.736 1.736 0 0 1-2.258 0 2.607 2.607 0 0 0-1.204-.55v-1.409c.253.074.488.2.691.368a2.602 2.602 0 0 0 3.282 0 1.738 1.738 0 0 1 2.258 0 2.604 2.604 0 0 0 3.283 0 1.738 1.738 0 0 1 2.258 0 2.604 2.604 0 0 0 3.284 0c.203-.169.439-.294.692-.369v1.409zM.875 7.25h7.187a1.562 1.562 0 0 1 1.562 1.562v.915H.874V7.25zm20.937 21.938H5.75V10.602h3.875V24.41a.437.437 0 0 0 .437.437h11.75v4.34zm.438-5.216H10.5v-3.808c.253.074.488.199.691.366a2.602 2.602 0 0 0 3.282 0 1.738 1.738 0 0 1 2.258 0 2.604 2.604 0 0 0 3.283 0 1.738 1.738 0 0 1 2.258 0 2.604 2.604 0 0 0 3.284 0c.204-.168.439-.292.692-.366v3.809h-4zm8.875-14.245h-4V7.25h4v2.477z"/></svg>