<svg xmlns="http://www.w3.org/2000/svg" width="32" height="32"><path d="M13.333 3.733c-.4 0-.8.133-1.2.533-.267.267-.4.667-.4 1.067v1.6H20.4v-1.6c0-.4-.133-.8-.533-1.2-.267-.267-.8-.533-1.2-.533h-5.333zm-8 3.2H9.6v-1.6c0-.933.4-1.867 1.067-2.533.8-.8 1.733-1.2 2.667-1.2h5.333c.933 0 1.867.4 2.533 1.067s1.067 1.6 1.067 2.533v1.6h7.067c.533 0 1.067.4 1.067 1.067s-.533 1.2-1.067 1.2h-1.6v17.6c0 .933-.4 1.867-1.067 2.533s-1.6 1.067-2.533 1.067H8.001c-.933 0-1.867-.4-2.533-1.067s-1.067-1.6-1.067-2.533v-17.6H2.668c-.533 0-1.067-.533-1.067-1.067s.533-1.067 1.067-1.067h2.667zM6.4 9.067v17.6c0 .4.133.8.533 1.2.267.267.8.533 1.2.533h16c.4 0 .8-.133 1.2-.533s.533-.8.533-1.2v-17.6H6.399zm6.667 4.266c0-.533-.4-1.067-1.067-1.067s-1.067.533-1.067 1.067V24c0 .533.4 1.067 1.067 1.067s1.067-.4 1.067-1.067V13.333zM20 12.267c.533 0 1.067.4 1.067 1.067v10.667c0 .533-.4 1.067-1.067 1.067s-1.067-.4-1.067-1.067V13.334c0-.533.533-1.067 1.067-1.067z"/></svg>