<svg xmlns="http://www.w3.org/2000/svg" width="32" height="32"><path d="M14.133 3.333c.533-.267 1.2-.533 1.867-.533s1.2.133 1.867.533c.533.267 1.067.8 1.333 1.333l11.333 18.933c.267.533.533 1.2.533 1.867s-.133 1.333-.533 1.867c-.267.533-.8 1.067-1.333 1.333s-1.2.533-1.867.533H4.8c-.667 0-1.333-.133-1.867-.533-.533-.267-1.067-.8-1.333-1.333s-.533-1.2-.533-1.867.133-1.333.533-1.867L12.8 4.666c.4-.533.8-1.067 1.333-1.333zM16 4.8c-.267 0-.533.133-.8.267s-.533.267-.667.533l-11.2 18.933c-.133.267-.267.533-.267.8s.133.533.267.8c.133.267.4.4.667.667.267.133.533.267.8.267h22.533c.267 0 .533-.133.8-.267s.4-.4.667-.667c.133-.267.267-.533.267-.8s-.133-.533-.267-.8L17.467 5.6c-.133-.267-.4-.4-.667-.533S16.267 4.8 16 4.8zm-1.067 17.867c0-.533.4-1.067 1.067-1.067.533 0 1.067.4 1.067 1.067s-.4 1.067-1.067 1.067c-.533 0-1.067-.533-1.067-1.067zm2.134-9.334c0-.533-.4-1.067-1.067-1.067s-1.067.4-1.067 1.067v5.333c0 .533.4 1.067 1.067 1.067s1.067-.4 1.067-1.067v-5.333z"/></svg>