<svg xmlns="http://www.w3.org/2000/svg" width="32" height="32"><path d="M29.067 19.333c0 1.067-.267 2.133-.667 3.2s-1.067 2-1.867 2.667c-.8.8-1.733 1.333-2.667 1.867-1.067.4-2.133.667-3.2.667h-4.667c-.533 0-1.067-.4-1.067-1.067s.4-1.067 1.067-1.067h4.667c.8 0 1.6-.133 2.4-.533.8-.267 1.467-.8 2-1.333s1.067-1.333 1.333-2c.267-.8.533-1.6.533-2.4 0-1.733-.667-3.333-1.867-4.533s-2.8-1.867-4.533-1.867H6.399l4.933 4.933c.4.4.4 1.067 0 1.467s-1.067.4-1.467 0l-6.667-6.667s-.133-.133-.133-.267-.133-.267-.133-.4 0-.267.133-.4c0-.133.133-.267.267-.267l6.667-6.667c.4-.4 1.067-.4 1.467 0s.4 1.067 0 1.467l-5.067 4.8h14.267c2.267 0 4.267.933 5.867 2.4 1.6 1.6 2.533 3.733 2.533 6z"/></svg>