<svg xmlns="http://www.w3.org/2000/svg" width="32" height="32"><path d="M14 3.733C11.6 3.733 9.6 5.6 9.6 8s2 4.267 4.267 4.267c2.4 0 4.267-2 4.267-4.267s-1.733-4.267-4.133-4.267zM7.733 8c0-3.467 2.8-6.4 6.4-6.4 3.467 0 6.4 2.8 6.4 6.4s-2.8 6.4-6.4 6.4c-3.6 0-6.4-2.933-6.4-6.4zM30 11.333c-.4-.4-.933-.4-1.333 0L24 16l-2-2c-.4-.4-1.067-.4-1.467 0s-.4 1.067 0 1.467l2.667 2.667c.4.4 1.067.4 1.467 0L30 12.801c.4-.4.4-1.067 0-1.467zM4.667 26.8c0 .667.533 1.2 1.2 1.2h16.267c.667 0 1.2-.533 1.2-1.2a7.455 7.455 0 0 0-7.467-7.467h-3.733A7.455 7.455 0 0 0 4.667 26.8zm-2 0c0-5.2 4.267-9.467 9.467-9.467h3.733c5.2 0 9.467 4.267 9.467 9.467 0 1.733-1.467 3.2-3.2 3.2H5.867c-1.733 0-3.2-1.467-3.2-3.2z"/></svg>