<svg xmlns="http://www.w3.org/2000/svg" width="32" height="32"><path d="M11.733 8c0-2.4 2-4.267 4.267-4.267s4.267 2 4.267 4.267S18.4 12.267 16 12.267 11.733 10.4 11.733 8zM16 1.6c-3.467 0-6.4 2.933-6.4 6.4s2.8 6.4 6.4 6.4c3.467 0 6.4-2.8 6.4-6.4S19.467 1.6 16 1.6zM6.667 26.8c0 .667.533 1.2 1.2 1.2h16.267c.667 0 1.2-.533 1.2-1.2a7.455 7.455 0 0 0-7.467-7.467h-3.733A7.455 7.455 0 0 0 6.667 26.8zm-2 0c0-5.2 4.267-9.467 9.467-9.467h3.733c5.2 0 9.467 4.267 9.467 9.467 0 1.733-1.467 3.2-3.2 3.2H7.867c-1.733 0-3.2-1.467-3.2-3.2z"/></svg>