<svg xmlns="http://www.w3.org/2000/svg" width="32" height="32"><path d="M14 3.733C11.6 3.733 9.6 5.6 9.6 8s2 4.267 4.267 4.267c2.4 0 4.267-2 4.267-4.267s-1.733-4.267-4.133-4.267zM7.733 8c0-3.467 2.8-6.4 6.4-6.4 3.467 0 6.4 2.8 6.4 6.4s-2.8 6.4-6.4 6.4c-3.6 0-6.4-2.933-6.4-6.4zM23.2 3.467c.533.667.933 1.333 1.333 2a6.33 6.33 0 0 1 0 4.933c-.267.8-.8 1.467-1.333 2-.4.4-1.067.4-1.467 0s-.4-1.067 0-1.467c.4-.4.667-.8.933-1.333.4-1.067.4-2.267 0-3.333-.267-.533-.533-.933-.933-1.333s-.4-1.067 0-1.467c.4-.4 1.067-.4 1.467 0zM24.667 17.2c2.8 2.4 4.667 5.6 5.333 9.067.133.533-.267 1.067-.8 1.2s-1.067-.267-1.2-.8c-.533-3.067-2.267-5.867-4.667-7.867-.4-.4-.533-1.067-.133-1.467s1.067-.533 1.467-.133zm-20 9.6c0 .667.533 1.2 1.2 1.2h16.267c.667 0 1.2-.533 1.2-1.2a7.455 7.455 0 0 0-7.467-7.467h-3.733A7.455 7.455 0 0 0 4.667 26.8zm-2 0c0-5.2 4.267-9.467 9.467-9.467h3.733c5.2 0 9.467 4.267 9.467 9.467 0 1.733-1.467 3.2-3.2 3.2H5.867c-1.733 0-3.2-1.467-3.2-3.2z"/></svg>