<svg xmlns="http://www.w3.org/2000/svg" width="32" height="32"><path d="M14 3.733C11.6 3.733 9.6 5.6 9.6 8s2 4.267 4.267 4.267c2.4 0 4.267-2 4.267-4.267s-1.733-4.267-4.133-4.267zM7.733 8c0-3.467 2.8-6.4 6.4-6.4 3.467 0 6.4 2.8 6.4 6.4s-2.8 6.4-6.4 6.4c-3.6 0-6.4-2.933-6.4-6.4zM26.4 10.667V13.6h2.933c.667 0 1.067.4 1.067 1.067s-.533 1.067-1.067 1.067H26.4v2.933c0 .667-.4 1.067-1.067 1.067s-1.067-.533-1.067-1.067v-2.933h-2.933c-.667 0-1.067-.4-1.067-1.067s.533-1.067 1.067-1.067h2.933v-2.933c0-.533.4-1.067 1.067-1.067s1.067.533 1.067 1.067zM4.667 26.8c0 .667.533 1.2 1.2 1.2h16.267c.667 0 1.2-.533 1.2-1.2a7.455 7.455 0 0 0-7.467-7.467h-3.733A7.455 7.455 0 0 0 4.667 26.8zm-2 0c0-5.2 4.267-9.467 9.467-9.467h3.733c5.2 0 9.467 4.267 9.467 9.467 0 1.733-1.467 3.2-3.2 3.2H5.867c-1.733 0-3.2-1.467-3.2-3.2z"/></svg>