<svg xmlns="http://www.w3.org/2000/svg" width="32" height="32"><path d="M1.6 2.667C1.6 2.134 2 1.6 2.667 1.6h26.667c.533 0 1.067.4 1.067 1.067s-.533 1.067-1.067 1.067H2.667c-.533 0-1.067-.533-1.067-1.067zm6.4 6.4c-.933 0-1.6.667-1.6 1.6v16c0 .933.8 1.6 1.6 1.6h2.667c.933 0 1.6-.8 1.6-1.6v-16c0-.933-.8-1.6-1.6-1.6H8zm-3.733 1.6c0-2 1.6-3.733 3.733-3.733h2.667c2 0 3.733 1.6 3.733 3.733v16c0 2-1.6 3.733-3.733 3.733H8c-2 0-3.733-1.6-3.733-3.733v-16zm15.466 0c0-.933.8-1.6 1.6-1.6H24c.933 0 1.6.8 1.6 1.6v8c0 .933-.8 1.6-1.6 1.6h-2.667c-.933 0-1.6-.8-1.6-1.6v-8zm1.6-3.734c-2 0-3.733 1.6-3.733 3.733v8c0 2 1.6 3.733 3.733 3.733H24c2 0 3.733-1.6 3.733-3.733v-8c0-2-1.6-3.733-3.733-3.733h-2.667z"/></svg>