<svg xmlns="http://www.w3.org/2000/svg" width="32" height="32"><path d="M8 6.4c-.933 0-1.6.667-1.6 1.6v16c0 .933.8 1.6 1.6 1.6h2.667c.933 0 1.6-.8 1.6-1.6V8c0-.933-.8-1.6-1.6-1.6H8zm-5.333 8.533h1.6V8c0-2 1.6-3.733 3.733-3.733h2.667c2 0 3.733 1.6 3.733 3.733v6.933h3.333V12c0-2 1.6-3.733 3.733-3.733h2.667c2 0 3.733 1.6 3.733 3.733v2.933h1.467c.533 0 1.067.4 1.067 1.067s-.4 1.067-1.067 1.067h-1.6V20c0 2-1.6 3.733-3.733 3.733h-2.667c-2 0-3.733-1.6-3.733-3.733v-2.933h-3.333V24c0 2-1.6 3.733-3.733 3.733H8.001c-2 0-3.733-1.6-3.733-3.733v-6.933h-1.6c-.533 0-1.067-.4-1.067-1.067s.533-1.067 1.067-1.067zM25.6 16v-4c0-.933-.8-1.6-1.6-1.6h-2.667c-.933 0-1.6.8-1.6 1.6v8c0 .933.8 1.6 1.6 1.6H24c.933 0 1.6-.8 1.6-1.6v-4z"/></svg>