<svg xmlns="http://www.w3.org/2000/svg" width="32" height="32"><path d="M30.933 18.533c.933-8-.4-13.067-3.067-15.467-4.133-3.867-18-4.4-22.933.267C2.666 5.6 2 8.933 1.866 13.066s-.133 12 7.067 14v3.2s0 1.333.8 1.6c.933.267 1.333-.267 4.4-3.867 4.933.4 8.8-.533 9.2-.667.933-.267 6.667-1.067 7.6-8.8zm-16.4 7.334s-3.2 3.867-4.133 4.933c-.267.267-.667.267-.667-.4v-5.333C3.6 23.334 4 16.667 4.133 13.2c0-3.467.667-6.267 2.533-8.267 4.267-4 16.533-3.2 19.6-.267 3.733 3.333 2.4 12.933 2.4 13.2-.8 6.533-5.333 6.933-6.267 7.2-.267.133-3.6 1.067-7.867.8z"/><path d="M16.267 5.733c-.533 0-.533.8 0 .8 4 0 7.2 2.8 7.333 7.867 0 .533.8.533.8 0-.133-5.467-3.6-8.667-8.133-8.667z"/><path d="M21.6 13.6c0 .533.8.533.8 0 0-3.067-1.867-5.467-5.333-5.733-.533 0-.533.8 0 .8C20 8.934 21.6 10.934 21.6 13.6zm-.933 3.467c-.667-.4-1.333-.133-1.6.267l-.533.8c-.267.4-.8.267-.8.267-4-1.067-5.067-5.333-5.067-5.333s0-.533.267-.933l.667-.533c.4-.267.533-.933.267-1.6-1.067-1.867-1.733-2.4-2-2.933-.4-.4-.933-.533-1.467-.267-1.2.667-2.4 2-2 3.2.667 1.333 2 5.733 6 9.067 1.867 1.6 4.933 3.2 6.133 3.467 1.2.4 2.533-.933 3.067-2.133.267-.533.133-1.067-.267-1.467-.667-.533-1.733-1.333-2.667-1.867z"/><path d="M17.6 10.8c1.333.133 1.867.8 2 2.133 0 .533.8.533.8 0-.133-1.733-1.067-2.8-2.667-2.933-.667 0-.667.8-.133.8z"/></svg>