<svg xmlns="http://www.w3.org/2000/svg" width="32" height="32"><path d="M26.933 9.333 22.266 11.6V9.333c0-2-1.6-3.733-3.733-3.733h-13.2c-2 0-3.733 1.733-3.733 3.733v13.333c0 2 1.6 3.733 3.733 3.733h13.333c2 0 3.733-1.6 3.733-3.733v-2.4l4.667 2.267c1.6.8 3.333-.4 3.333-2.133v-8.933c0-1.733-1.867-2.8-3.467-2.133zm-6.666 13.334c0 .933-.8 1.6-1.6 1.6H5.334c-.933 0-1.6-.8-1.6-1.6V9.334c0-.933.8-1.6 1.6-1.6h13.333c.933 0 1.6.8 1.6 1.6v13.333zm8-2.134c0 .267-.267.4-.533.267L22.267 18v-4.133l5.467-2.8c.267-.133.533 0 .533.267v9.2z"/></svg>