<svg xmlns="http://www.w3.org/2000/svg" width="32" height="32"><path d="M30.4 9.333v12c0 .533-.4 1.067-1.067 1.067s-1.067-.4-1.067-1.067v-10.4l-6 2.933v.8c0 .533-.4 1.067-1.067 1.067s-1.067-.4-1.067-1.067V9.333c0-.4-.133-.933-.533-1.2-.267-.267-.667-.533-1.2-.533h-5.333c-.267.133-.8-.4-.8-.933S12.799 5.6 13.333 5.6h5.333c.933 0 1.867.4 2.533 1.067s1.067 1.6 1.067 2.533v2.4l6.533-3.333a1.14 1.14 0 0 1 .933 0c.4.4.667.667.667 1.067zM30 28.667 3.333 2c-.4-.4-1.067-.4-1.467 0s-.4 1.067 0 1.467l2.4 2.4c-.533.133-1.067.4-1.467.933-.8.667-1.2 1.6-1.2 2.533v13.333c0 .933.4 1.867 1.067 2.533s1.6 1.067 2.533 1.067h13.333c.933 0 1.867-.4 2.533-1.067.4-.4.8-1.067.933-1.6l6.4 6.4c.4.4 1.067.4 1.467 0 .533-.4.533-.933.133-1.333zm-9.733-6c0 .4-.133.933-.533 1.2-.267.267-.667.533-1.2.533h-13.2c-.4 0-.933-.133-1.2-.533-.267-.267-.533-.667-.533-1.2V9.334c0-.4.133-.933.533-1.2.267-.267.8-.4 1.2-.4h.933L20.4 21.867v.8z"/></svg>