<svg xmlns="http://www.w3.org/2000/svg" width="32" height="32"><path d="M26.533 17.333c-.533-.667-.4-.933 0-1.467 0 0 4.267-5.867 4.667-7.867.267-.667 0-1.2-1.067-1.2h-3.467c-.933 0-1.333.4-1.467.933 0 0-1.733 4.267-4.267 7.067-.8.8-1.2 1.067-1.6 1.067-.267 0-.533-.267-.533-.933V7.866c-.133-.8-.4-1.2-1.067-1.2h-5.467c-.667 0-.933.4-.933.8 0 .8 1.2 1.067 1.333 3.333v5.067c0 1.067-.267 1.333-.667 1.333-1.067 0-4-4.267-5.733-9.2-.267-.933-.667-1.333-1.6-1.333H1.198c-.933 0-1.2.4-1.2.933 0 .933 1.2 5.467 5.467 11.467 2.933 4.133 6.933 6.267 10.667 6.267 2.267 0 2.533-.533 2.533-1.333 0-3.867-.267-4.267.933-4.267.533 0 1.467.267 3.467 2.267 2.4 2.267 2.8 3.333 4.133 3.333h3.467c.933 0 1.467-.533 1.2-1.467-.667-2-5.067-6.267-5.333-6.533z"/></svg>