<svg xmlns="http://www.w3.org/2000/svg" width="32" height="32"><path d="M22.667 7.067c.267-.533.8-.8 1.333-.533 1.867.8 3.467 2.133 4.533 3.867s1.733 3.733 1.733 5.733-.533 4-1.733 5.733C27.466 23.6 25.866 24.934 24 25.734c-.533.267-1.067 0-1.333-.533s0-1.067.533-1.333c1.467-.667 2.8-1.733 3.733-3.067s1.333-2.933 1.333-4.667-.533-3.2-1.333-4.667C26 10.134 24.8 9.067 23.2 8.4c-.533-.267-.667-.933-.533-1.333z"/><path d="M22.133 12.4c.4-.4 1.067-.4 1.467 0 .933.933 1.467 2.267 1.467 3.6s-.533 2.533-1.467 3.6c-.4.4-1.067.4-1.467 0s-.4-1.067 0-1.467c.533-.533.933-1.333.933-2.133s-.267-1.6-.933-2.133c-.4-.4-.4-1.067 0-1.467zM16.8 4.267c.4 0 .8 0 1.2.267.4.133.667.533.933.8.267.4.4.8.4 1.2v18.8c0 .4-.133.8-.4 1.2s-.533.667-.933.8-.8.267-1.2.267-.8-.133-1.2-.4l-7.867-4.933H6.4a3.64 3.64 0 0 1-2.533-1.067c-.8-.667-1.2-1.6-1.2-2.533v-5.333c0-.933.4-1.867 1.067-2.533.667-.8 1.6-1.2 2.667-1.2h1.467l7.867-4.933c.267-.267.667-.4 1.067-.4zm.4 2h-.266l-8.267 5.2c-.133.133-.267.133-.533.133H6.401c-.4 0-.8.133-1.2.533s-.533.8-.533 1.2v5.333c0 .4.133.8.533 1.2.267.267.8.533 1.2.533h1.867c.133 0 .4 0 .533.133l8.133 5.2h.266l.133-.133V6.533l-.133-.267c0 .133 0 0 0 0z"/></svg>