<svg xmlns="http://www.w3.org/2000/svg" width="32" height="32"><path d="M30 18.667c.4.4.4 1.067 0 1.467s-1.067.4-1.467 0l-2.667-2.667-2.667 2.667c-.4.4-1.067.4-1.467 0s-.4-1.067 0-1.467L24.399 16l-2.667-2.667c-.4-.4-.4-1.067 0-1.467s1.067-.4 1.467 0l2.667 2.667 2.667-2.667c.4-.4 1.067-.4 1.467 0s.4 1.067 0 1.467L27.333 16 30 18.667zm-13.2-14.4c.4 0 .8 0 1.2.267.4.133.667.533.933.8.267.4.4.8.4 1.2v18.8c0 .4-.133.8-.4 1.2s-.533.667-.933.8-.8.267-1.2.267-.8-.133-1.2-.4l-7.867-4.933H6.4a3.64 3.64 0 0 1-2.533-1.067c-.8-.667-1.2-1.6-1.2-2.533v-5.333c0-.933.4-1.867 1.067-2.533.667-.8 1.6-1.2 2.667-1.2h1.467l7.867-4.933c.267-.267.667-.4 1.067-.4zm.4 2h-.266l-8.267 5.2c-.133.133-.267.133-.533.133H6.401c-.4 0-.8.133-1.2.533s-.533.8-.533 1.2v5.333c0 .4.133.8.533 1.2.267.267.8.533 1.2.533h1.867c.133 0 .4 0 .533.133l8.133 5.2h.266l.133-.133V6.533l-.133-.267c0 .133 0 0 0 0z"/></svg>