<svg xmlns="http://www.w3.org/2000/svg" width="32" height="32"><path d="M15.867 4.267c.4 0 .8 0 1.2.267.4.133.667.533.933.8.267.4.4.8.4 1.2v18.8c0 .4-.133.8-.4 1.2s-.533.667-.933.8-.8.267-1.2.267-.8-.133-1.2-.4L6.8 22.268H5.333c-.933 0-1.867-.4-2.533-1.067s-1.067-1.6-1.067-2.533v-5.333c0-.933.4-1.867 1.067-2.533.667-.8 1.6-1.2 2.533-1.2H6.8l7.867-4.933c.4-.267.8-.4 1.2-.4zm.266 2h-.266l-8.133 5.2c-.267.133-.4.133-.533.133H5.334c-.4 0-.8.133-1.2.533-.267.4-.4.8-.4 1.2v5.333c0 .4.133.8.533 1.2.267.267.8.533 1.2.533h1.867c.133 0 .4 0 .533.133l8.133 5.2h.266l.133-.133V6.533c-.133 0-.133 0-.267-.267.133.133.133 0 0 0zm6 6.133c.4-.4 1.067-.4 1.467 0 .933.933 1.467 2.267 1.467 3.6s-.533 2.533-1.467 3.6c-.4.4-1.067.4-1.467 0s-.4-1.067 0-1.467c.533-.533.933-1.333.933-2.133s-.267-1.6-.933-2.133c-.4-.4-.4-1.067 0-1.467z"/></svg>