<svg xmlns="http://www.w3.org/2000/svg" width="32" height="32"><path d="M13.333 3.733c-.4 0-.8.133-1.2.533-.267.267-.4.667-.4 1.067v8c0 .533-.4.933-.933.933l-5.467.133v.133s0 .133.133.133l10.533 12.533.133.133h.266s.133 0 .133-.133l10.533-12.533s0-.133.133-.133v-.133l-5.867-.133a.911.911 0 0 1-.933-.933v-8c0-.4-.133-.8-.533-1.2-.267-.267-.8-.533-1.2-.533h-5.333zM10.8 2.8c.667-.8 1.6-1.2 2.533-1.2h5.333c.933 0 1.867.4 2.533 1.067s1.067 1.6 1.067 2.533v7.067l4.933.133c.133 0 .4 0 .533.133.4.267.667.533.8.933s.267.8.267 1.333c0 .4-.267.8-.533 1.2L17.733 28.532c-.267.267-.533.533-.8.667s-.667.267-.933.267c-.4 0-.667-.133-.933-.267s-.533-.4-.8-.667L3.734 15.999c-.267-.4-.4-.8-.533-1.2 0-.4 0-.933.267-1.333.133-.133.4-.533.8-.8.133-.133.267-.133.533-.133l4.933-.133V5.333c0-.933.267-1.867 1.067-2.533z"/></svg>