<svg xmlns="http://www.w3.org/2000/svg" width="32" height="32"><path d="M16 4.4h-.133s-.133 0-.133.133L5.201 17.066s0 .133-.133.133v.133l5.6.4c.533 0 .933.4.933.933v8c0 .4.133.8.533 1.2s.8.533 1.2.533h5.333c.4 0 .8-.133 1.2-.533.267-.267.533-.8.533-1.2v-8c0-.533.4-.933.933-.933l5.467-.133v-.133s0-.133-.133-.133L16.134 4.8l-.133-.133c.133-.267 0-.267 0-.267zm-.933-1.733c.267-.133.667-.267.933-.267.4 0 .667.133.933.267s.533.4.8.667l10.533 12.533c.267.4.4.8.533 1.2 0 .4 0 .933-.267 1.333-.133.4-.533.8-.8.933-.133.133-.267.133-.533.133l-4.933.133v7.067c0 .933-.4 1.867-1.067 2.533s-1.6 1.067-2.533 1.067h-5.333c-.933 0-1.867-.4-2.533-1.067s-1.067-1.6-1.067-2.533v-7.067L4.8 19.466c-.133 0-.4 0-.533-.133-.4-.267-.667-.533-.8-.933s-.267-.8-.267-1.333c0-.4.267-.8.533-1.2L14.266 3.334c.133-.4.4-.533.8-.667z"/></svg>