<svg xmlns="http://www.w3.org/2000/svg" width="32" height="32"><path d="M5.333 5.067h21.333c.8 0 1.6.667 1.6 1.6V9.6h-5.6c-1.733 0-3.333.667-4.533 1.867s-1.867 2.8-1.867 4.533c0 1.733.667 3.333 1.867 4.533s2.8 1.867 4.533 1.867h5.6v2.933c0 .8-.667 1.6-1.6 1.6H5.333c-.8 0-1.6-.667-1.6-1.6V6.666c0-.933.667-1.6 1.6-1.6zm17.334 6.666h5.6V20.4h-5.6c-1.2 0-2.267-.4-3.067-1.333-.8-.8-1.333-1.867-1.333-3.067s.4-2.267 1.333-3.067c.8-.8 1.867-1.2 3.067-1.2zm7.733 13.6V6.666c0-2-1.6-3.733-3.733-3.733H5.334c-2 0-3.733 1.733-3.733 3.733v18.667c0 2 1.6 3.733 3.733 3.733h21.333c2 0 3.733-1.733 3.733-3.733zM22.667 14.4h.133c.8 0 1.6.8 1.6 1.6s-.667 1.6-1.6 1.6h-.133c-.8 0-1.6-.8-1.6-1.6s.667-1.6 1.6-1.6z"/></svg>