<svg xmlns="http://www.w3.org/2000/svg" width="32" height="32"><path d="M17.067 12.8c-9.6 4.933-3.2 18.267 8.8 14.8 1.067.4 2.133 1.2 3.2 1.733-.267-.933-.533-1.867-.933-2.8 3.733-2.667 4.533-6.4 3.2-9.467-2.133-4.933-8.933-6.933-14.267-4.267zm3.466 4.933c-.267.933-1.6 1.2-2.133.533-.667-.667-.4-1.867.533-2.133.8-.533 2 .533 1.6 1.6zm6.267.134c-.267.8-1.467.933-2.133.4a1.44 1.44 0 0 1-.4-.933c.133-.667.533-1.2 1.2-1.333 1.067-.133 1.867.933 1.333 1.867z"/><path d="M23.2 10.933c-.533-2.8-2.533-5.333-5.067-6.667-8.933-4.933-20 2-17.867 10.4.533 2.4 2.267 4.533 4.4 5.867-.4 1.2-.8 2.267-1.2 3.467 1.333-.667 2.667-1.333 3.867-2.133 1.6.533 3.2.8 4.933.667-2.133-5.867 3.2-12.133 10.933-11.6zM15.067 7.6c1.067-.4 2.4.4 2.267 1.6 0 1.333-1.733 2.133-2.667 1.2-1.067-.667-.667-2.4.4-2.8zM9.2 9.467c-.133 1.2-1.733 1.733-2.533.933-1.067-.667-.8-2.533.4-2.8 1.2-.533 2.533.667 2.133 1.867z"/></svg>