<svg xmlns="http://www.w3.org/2000/svg" width="32" height="32"><path d="M27.6 13.467c.4-2.4.8-4.933 1.2-7.333.267-1.6-.267-3.067-1.467-4.267S24.4 0 22.533 0H9.466c-1.867 0-3.6.667-4.8 1.867S2.933 4.534 3.199 6.134c.4 2.4.8 4.8 1.2 7.333-1.867 2.133-3.067 4.8-3.067 7.6 0 2.267.667 4.4 2 6.267 1.2 1.867 3.067 3.333 5.2 4.533.133.133.4.133.533.133h13.867c.133 0 .4 0 .533-.133 2.133-1.067 4-2.667 5.2-4.533 1.333-1.867 2-4.133 2-6.267 0-2.8-1.2-5.467-3.067-7.6zM6.267 3.067c.8-.8 1.867-1.2 3.067-1.2h13.2c1.2 0 2.267.4 3.067 1.2s1.2 1.733.933 2.8c-.267 2-.667 3.867-.933 5.867-.667-.533-1.467-1.067-2.4-1.467.133-.933.267-1.867.4-2.667.133-.933-.133-1.733-.8-2.4s-1.6-1.067-2.667-1.067h-8.4c-1.067 0-2 .4-2.667 1.067s-.933 1.467-.8 2.267c.133.933.267 1.867.4 2.667l-2.4 1.6c-.267-2-.533-4-.933-5.867-.133-1.067.133-2 .933-2.8zM10.8 9.333c-.133-.667-.267-1.333-.4-2.133 0-.267 0-.667.267-.8.267-.267.533-.4.933-.4h8.533c.4 0 .667.133.933.4s.4.533.267.8c.133.8 0 1.467-.133 2.133-1.6-.533-3.333-.8-5.2-.8s-3.6.267-5.2.8zm11.867 20.8H9.334c-3.6-2-5.867-5.333-5.867-9.067 0-5.867 5.6-10.667 12.533-10.667s12.533 4.8 12.533 10.667c0 3.733-2.267 7.067-5.867 9.067z"/></svg>