<svg xmlns="http://www.w3.org/2000/svg" width="32" height="32"><path d="M22.4 18.667c-2.533-1.2-2.8-1.467-3.2-.8-.267.4-.933 1.2-1.067 1.467-.267.267-.4.267-.8.133-.4-.267-1.467-.667-2.8-1.733-1.067-.933-1.733-2.133-2-2.4-.4-.667.4-.8 1.067-2 .133-.267 0-.533 0-.667-.267-.4-.933-2-1.2-2.667-.133-.667-.4-.533-.667-.533-.667-.133-1.067 0-1.6.4-1.867 2.133-1.333 4.267.267 6.4 3.2 4.267 4.933 4.933 7.867 6 .8.267 1.6.267 2.133.133.8-.133 2-.8 2.267-1.6.4-.8.4-1.467.267-1.6 0-.267-.133-.4-.533-.533z"/><path d="M25.867 6C16.934-2.667 2.134 3.6 2.134 15.867c0 2.4.667 4.8 1.867 6.933l-2 7.2 7.333-2c9.2 5.067 20.667-1.467 20.667-12.133 0-3.733-1.467-7.2-4.133-9.867zm1.866 9.867c0 8.933-9.733 14.533-17.6 9.867l-.533-.267-4.4 1.2 1.2-4.133-.267-.533c-4.8-7.733.8-17.733 10-17.733 3.2 0 6 1.2 8.133 3.467 2.133 2 3.467 4.933 3.467 8.133z"/></svg>