<svg xmlns="http://www.w3.org/2000/svg" width="32" height="32"><path d="M14.667 25.333c0-.8.533-1.333 1.333-1.333.8 0 1.333.533 1.333 1.333S16.8 26.666 16 26.666c-.8 0-1.333-.533-1.333-1.333zm5.2-10.666c.267-.533.8-.667 1.333-.4l.533.267.533.267.533.267.533.267.4.4c.133.133.267.267.533.4l.4.4c.4.4.4 1.067 0 1.467s-1.067.4-1.467 0l-.4-.4c-.133-.133-.133-.133-.4-.267l-1.6-1.067-.533-.267c-.4-.267-.667-.933-.4-1.333zM14.933 8c0-.533.4-.933 1.067-.933 1.2 0 2.4.133 3.467.4 1.2.267 2.267.667 3.333 1.067s2.133 1.067 3.2 1.733c1.067.667 2 1.467 2.8 2.4.4.4.4 1.067 0 1.467s-1.067.4-1.467 0c-.8-.8-1.6-1.467-2.533-2.133-.933-.533-1.867-1.067-2.8-1.467-.933-.4-2-.8-3.067-.933s-2-.267-3.067-.267c-.4-.4-.933-.8-.933-1.333z"/><path d="M30 30c-.4.4-1.067.4-1.467 0l-8-8c0 .133-.133.133-.133.267-.4.4-1.067.4-1.467 0s-.933-.667-1.467-.933c-.533-.267-1.067-.267-1.6-.267s-1.067.133-1.6.267c-.533.267-1.067.533-1.467.933s-1.067.4-1.467 0c-.4-.4-.4-1.067 0-1.467.533-.533 1.333-1.067 2-1.333s1.6-.533 2.4-.533c.667 0 1.2.133 1.867.267l-4-4h-.267l-.533.133-.4.133c-.133 0-.133 0-.267.133h-.133l-.267.4-1.6 1.067-.667.267c-.133.133-.267.133-.267.267l-.4.4c-.4.4-1.067.4-1.467 0s-.4-1.067 0-1.467l.4-.4c.133-.133.267-.267.533-.4l.533-.4.4-.267h.133l.4-.4.533-.267.533-.267.533-.133c.133-.133.4-.133.533-.267h.133l.267-.133-3.2-3.067-.267.133-.4.267-.4.133-.267.267-.4.133h-.133l-.267.267-.267.133-.267.267-.4.267-.667.533-.8.8c-.4.4-1.067.4-1.467 0s-.4-.933 0-1.333l.267-.4.267-.267.4-.267.267-.267.8-.533.8-.533.133-.133.267-.133.4-.267.8-.533h.133l-5.6-5.733c-.4-.4-.4-1.067 0-1.467s1.067-.4 1.467 0l26.667 26.667c.267.533.267 1.067-.133 1.467z"/></svg>