<svg xmlns="http://www.w3.org/2000/svg" width="32" height="32"><path d="M14.667 25.333c0-.8.533-1.333 1.333-1.333.8 0 1.333.533 1.333 1.333S16.8 26.666 16 26.666c-.8 0-1.333-.533-1.333-1.333zM16 15.067c-2.8 0-5.333 1.067-7.333 3.067-.4.4-1.067.4-1.467 0s-.4-1.067 0-1.467c2.267-2.267 5.467-3.6 8.667-3.6s6.4 1.333 8.667 3.6c.4.4.4 1.067 0 1.467s-1.067.4-1.467 0c-1.733-2-4.267-3.067-7.067-3.067z"/><path d="M16 9.067c-4.267 0-8.533 1.733-11.6 4.8-.4.4-1.067.4-1.467 0-.267-.533-.267-1.067.133-1.467 3.467-3.467 8.133-5.333 12.933-5.333s9.467 1.867 12.933 5.333c.4.4.4 1.067 0 1.467s-1.067.4-1.467 0c-2.933-3.2-7.2-4.8-11.467-4.8zm0 11.866c-.533 0-1.067.133-1.6.267-.533.267-1.067.533-1.467.933s-1.067.4-1.467 0c-.4-.4-.4-1.067 0-1.467.533-.533 1.333-1.067 2-1.333.8-.267 1.6-.533 2.4-.533s1.6.133 2.4.533c.8.267 1.467.8 2 1.333.4.4.4 1.067 0 1.467s-1.067.4-1.467 0c-.4-.4-.933-.667-1.467-.933-.267-.133-.8-.267-1.333-.267z"/></svg>