<svg xmlns="http://www.w3.org/2000/svg" width="32" height="32"><path d="M16 1.333C8 1.333 1.333 8 1.333 16S8 30.667 16 30.667 30.667 24.134 30.667 16 24.134 1.333 16 1.333zM2.8 16c0-2 .4-3.733 1.067-5.333l6.267 17.2C5.867 25.734 2.801 21.2 2.801 16zM16 29.2c-1.333 0-2.533-.267-3.733-.533L16.134 17.2l4 11.067c0 .133 0 .133.133.133-1.2.533-2.667.8-4.267.8zm1.867-19.467c.8 0 1.467-.133 1.467-.133.8-.133.667-1.067-.133-1.067 0 0-2.133.133-3.6.133-1.2.133-3.467 0-3.467 0-.8 0-.8 1.067-.133 1.067 0 0 .8.133 1.333.133l2.133 5.6-2.933 8.667-4.533-14.4c.667 0 1.467-.133 1.467-.133.667 0 .667-1.067 0-.933 0 0-2.133.133-3.6.133h-.8c2.267-3.6 6.267-6 10.933-6 3.467 0 6.533 1.333 8.933 3.467h-.133c-1.333 0-2.133 1.067-2.133 2.267 0 1.067.667 2 1.333 3.067.533.8 1.067 2 1.067 3.733 0 1.067-.533 2.4-.933 4.267l-1.467 4.4-4.8-14.267zM27.6 9.6c.933 1.867 1.6 4 1.6 6.4 0 4.933-2.667 9.2-6.667 11.333l4-11.6c.8-1.867.933-3.467.933-4.8.133-.4.133-.8.133-1.333z"/></svg>