<svg xmlns="http://www.w3.org/2000/svg" width="32" height="32"><path d="M16.133 23.6c0-1.2-1.733-1.867-2.4-.933-1.6 2-4.667 5.467-4.8 6C8.533 30 10.666 30.8 12 31.334c1.467.533 2.533.8 3.2.667.4-.133.8-.267.933-.667v-7.733zm-.8-22.8a1.2 1.2 0 0 0-.8-.8c-1.333-.4-6.667 1.067-7.6 2.133-.4.4-.4.8-.4 1.2L13.2 14c1.333 2.133 3.067 1.467 2.933-.933 0-1.6-.667-11.733-.8-12.267zm-2.8 19.467c1.2-.4 1.2-2.267.133-2.667-2.8-1.2-6.8-2.8-7.067-2.8-1.2-.133-1.333 1.6-1.467 2.8-.133 1.067-.133 2.133-.133 3.067.133.933.267 1.867 1.2 2 .533-.133 7.333-2.267 7.333-2.4zm14.8-4.134c.533-.4.4-.933.4-1.067-.133-1.333-2.4-4.8-3.6-5.333-.4-.267-.8-.133-1.2 0-.4.267-4.267 5.867-4.533 6.133-.8 1.067.267 2.533 1.467 2.133.533-.133 7.2-1.733 7.467-1.867zM20.4 20.8c-1.2-.4-2.267 1.067-1.6 2.133.133.267 3.733 6.267 4 6.533s.667.267 1.067.133c1.2-.533 3.867-3.867 4-5.2.133-.4 0-.8-.4-1.067-.133-.267-7.067-2.533-7.067-2.533z"/></svg>