<svg xmlns="http://www.w3.org/2000/svg" width="32" height="32"><path d="M21.067 14.667c0 .533-.4 1.067-1.067 1.067H9.333c-.533 0-1.067-.4-1.067-1.067s.4-1.067 1.067-1.067H20c.533 0 1.067.533 1.067 1.067z"/><path d="M30 28.667 24.533 23.2c2-2.267 3.067-5.2 3.067-8.4 0-7.2-5.867-13.067-13.067-13.067S1.6 7.466 1.6 14.666s5.867 13.067 13.067 13.067c3.2 0 6.133-1.2 8.4-3.067l5.467 5.467c.4.4 1.067.4 1.467 0 .4-.533.4-1.067 0-1.467zM14.667 25.6c-6.133 0-10.933-4.933-10.933-10.933s4.8-10.933 10.933-10.933S25.6 8.667 25.6 14.667 20.8 25.6 14.667 25.6z"/></svg>