<svg
    xmlns="http://www.w3.org/2000/svg"
    width="38"
    height="37"
    viewBox="0 0 38 37"
    fill="none"
>
    <path
        fill-rule="evenodd"
        clip-rule="evenodd"
        d="M17.7055 23.4933C17.7055 23.6393 17.6475 23.7793 17.5442 23.8826C17.441 23.9859 17.3009 24.0439 17.1549 24.0439C17.0088 24.0439 16.8688 23.9859 16.7655 23.8826C16.6623 23.7793 16.6042 23.6393 16.6042 23.4933V14.0696C16.6042 13.696 16.4558 13.3378 16.1917 13.0737C15.9276 12.8095 15.5693 12.6611 15.1958 12.6611C14.8222 12.6611 14.4639 12.8095 14.1998 13.0737C13.9357 13.3378 13.7873 13.696 13.7873 14.0696V27.1392C13.7874 27.2481 13.7552 27.3546 13.6947 27.4452C13.6342 27.5358 13.5482 27.6065 13.4476 27.6481C13.3469 27.6898 13.2362 27.7007 13.1293 27.6794C13.0225 27.658 12.9244 27.6055 12.8475 27.5283L10.298 24.9788C10.0338 24.7147 9.67554 24.5663 9.30196 24.5663C8.92838 24.5663 8.5701 24.7147 8.30593 24.9788C8.04177 25.243 7.89337 25.6013 7.89337 25.9749C7.89337 26.3485 8.04177 26.7067 8.30593 26.9709L15.7412 34.4057C17.1578 35.8322 19.064 36.6666 21.0731 36.7395C23.0033 36.7332 24.8526 35.9636 26.2175 34.5988C27.5824 33.234 28.352 31.3847 28.3585 29.4545V16.4018C28.3585 16.0283 28.2101 15.67 27.946 15.4059C27.6818 15.1417 27.3236 14.9933 26.95 14.9933C26.5765 14.9933 26.2182 15.1417 25.9541 15.4059C25.6899 15.67 25.5415 16.0283 25.5415 16.4018V23.4933C25.5415 23.6393 25.4835 23.7793 25.3802 23.8826C25.277 23.9859 25.1369 24.0439 24.9909 24.0439C24.8449 24.0439 24.7048 23.9859 24.6015 23.8826C24.4983 23.7793 24.4403 23.6393 24.4403 23.4933V13.2921C24.4434 13.1051 24.4093 12.9194 24.34 12.7458C24.2706 12.5722 24.1674 12.4141 24.0363 12.2808C23.9052 12.1475 23.7489 12.0416 23.5765 11.9693C23.4041 11.897 23.219 11.8598 23.032 11.8598C22.845 11.8598 22.6599 11.897 22.4875 11.9693C22.3151 12.0416 22.1588 12.1475 22.0277 12.2808C21.8966 12.4141 21.7934 12.5722 21.724 12.7458C21.6546 12.9194 21.6205 13.1051 21.6237 13.2921V23.4933C21.6237 23.6393 21.5657 23.7793 21.4624 23.8826C21.3592 23.9859 21.2191 24.0439 21.0731 24.0439C20.927 24.0439 20.787 23.9859 20.6837 23.8826C20.5805 23.7793 20.5225 23.6393 20.5225 23.4933V10.9603C20.5225 10.5867 20.3741 10.2284 20.1099 9.9643C19.8458 9.70016 19.4875 9.55177 19.114 9.55177C18.7404 9.55177 18.3822 9.70016 18.118 9.9643C17.8539 10.2284 17.7055 10.5867 17.7055 10.9603V23.4933ZM19.224 6.40145C21.4731 2.13341 23.827 0 28.3143 0C30.8172 0.000957987 33.2172 0.995634 34.987 2.76541C36.7568 4.5352 37.7515 6.93526 37.7524 9.43811C37.7524 15.1568 34.2884 19.6646 29.4597 24.4294V16.4018C29.4599 15.946 29.3359 15.4988 29.1009 15.1082C28.8659 14.7177 28.5289 14.3985 28.1261 14.1852C27.7234 13.9718 27.27 13.8723 26.8149 13.8973C26.3598 13.9223 25.9201 14.0709 25.5431 14.327V13.2925C25.5437 12.8364 25.4199 12.3887 25.1849 11.9978C24.9499 11.6069 24.6127 11.2875 24.2097 11.074C23.8066 10.8606 23.3529 10.7612 22.8975 10.7865C22.4421 10.8118 22.0022 10.9609 21.6253 11.2177V10.9603C21.6253 10.2945 21.3608 9.65606 20.8901 9.18532C20.4194 8.71458 19.7809 8.45012 19.1152 8.45012C18.4494 8.45012 17.811 8.71458 17.3402 9.18532C16.8695 9.65606 16.605 10.2945 16.605 10.9603V11.9948C16.2281 11.7382 15.7882 11.5892 15.3329 11.564C14.8775 11.5387 14.4239 11.6382 14.0209 11.8516C13.6179 12.065 13.2807 12.3843 13.0457 12.7752C12.8107 13.166 12.6868 13.6136 12.6872 14.0696V25.8102L11.0771 24.2001C10.651 23.7788 10.089 23.5227 9.49144 23.4775C8.89391 23.4323 8.29978 23.601 7.81515 23.9535C3.23707 19.3626 0 14.9648 0 9.43811C0.000957987 6.93526 0.995635 4.5352 2.76542 2.76541C4.5352 0.995634 6.93526 0.000957987 9.43811 0C13.9254 0 16.2793 2.13341 18.5284 6.40024C18.5617 6.46367 18.6117 6.51679 18.673 6.55386C18.7343 6.59092 18.8046 6.61051 18.8762 6.61051C18.9478 6.61051 19.0181 6.59092 19.0794 6.55386C19.1407 6.51679 19.1907 6.46367 19.224 6.40024V6.40145Z"
        fill="#2FB7B8"></path>
</svg>