<svg
    xmlns="http://www.w3.org/2000/svg"
    width="37"
    height="44"
    viewBox="0 0 37 44"
    fill="none"
    >
    <path
        fill-rule="evenodd"
        clip-rule="evenodd"
        d="M33.8983 39.0535C33.9291 39.0995 33.9449 39.1539 33.9438 39.2093C33.9427 39.2646 33.9246 39.3183 33.892 39.3631C33.8595 39.4079 33.8139 39.4416 33.7616 39.4598C33.7093 39.4779 33.6527 39.4796 33.5994 39.4645L28.9283 38.2127C28.8578 38.1954 28.7833 38.2062 28.7205 38.2428C28.6578 38.2794 28.6117 38.339 28.592 38.4089L27.3402 43.0799C27.3268 43.1335 27.2972 43.1816 27.2554 43.2176C27.2135 43.2535 27.1615 43.2756 27.1066 43.2808C27.0516 43.2865 26.9961 43.2752 26.9477 43.2485C26.8993 43.2218 26.8602 43.1809 26.8357 43.1313L22.599 34.8448C22.8878 34.7772 23.1884 34.7772 23.4772 34.8448L24.701 35.1251C25.7032 35.3536 26.7546 35.1952 27.645 34.6816C28.5353 34.168 29.1989 33.3371 29.5029 32.3552L29.5262 32.2898L33.8983 39.0535ZM35.3464 20.117L34.4916 21.0512C34.1533 21.4019 33.9094 21.8326 33.7828 22.3032C33.6562 22.7737 33.6509 23.2686 33.7675 23.7417L34.0525 24.9842C34.2212 25.7182 34.1053 26.4888 33.7282 27.1407C33.3511 27.7926 32.7409 28.2772 32.0206 28.4969L30.8201 28.8659C30.3521 29.0014 29.9258 29.2525 29.5805 29.5962C29.2351 29.9399 28.9819 30.3651 28.8442 30.8324L28.4706 32.0515C28.249 32.7714 27.763 33.3806 27.1105 33.7567C26.4579 34.1328 25.6872 34.2479 24.9532 34.0788L23.7201 33.7939C23.2473 33.6788 22.7531 33.6844 22.283 33.8101C21.8129 33.9358 21.3819 34.1776 21.0296 34.5132L20.0953 35.382C19.5452 35.8956 18.8207 36.1812 18.0681 36.1812C17.3155 36.1812 16.591 35.8956 16.0409 35.382L15.1066 34.5272C14.7561 34.1914 14.3273 33.9484 13.8591 33.8203C13.3909 33.6923 12.8981 33.6832 12.4255 33.7939L11.183 34.0788C10.4491 34.2464 9.67897 34.13 9.02736 33.7531C8.37576 33.3761 7.89094 32.7666 7.67031 32.0469L7.31998 30.8371C7.18339 30.3694 6.93121 29.9437 6.5867 29.5992C6.2422 29.2547 5.81646 29.0025 5.34879 28.8659L4.12965 28.4875C3.41041 28.2669 2.80165 27.7817 2.42626 27.1297C2.05086 26.4778 1.93679 25.7077 2.10708 24.9749L2.38734 23.7511C2.50361 23.2776 2.49865 22.7824 2.37292 22.3113C2.24719 21.8402 2.00475 21.4085 1.668 21.0559L0.799179 20.1217C0.285625 19.5715 0 18.847 0 18.0944C0 17.3418 0.285625 16.6173 0.799179 16.0672L1.65398 15.133C1.99189 14.782 2.23549 14.3513 2.36209 13.8808C2.48868 13.4104 2.49416 12.9156 2.378 12.4424L2.09306 11.1952C1.92567 10.462 2.04219 9.69252 2.41917 9.04169C2.79615 8.39085 3.40563 7.90693 4.12498 7.68728L5.32544 7.31827C5.79338 7.18119 6.21945 6.92892 6.56464 6.58454C6.90983 6.24016 7.16312 5.81469 7.3013 5.34708L7.67498 4.12793C7.89656 3.40833 8.38272 2.7995 9.03544 2.42416C9.68816 2.04883 10.4589 1.93491 11.1923 2.10536L12.4161 2.38563C12.8889 2.50194 13.3834 2.49699 13.8537 2.37124C14.324 2.24549 14.755 2.00301 15.1066 1.66628L16.0409 0.797464C16.5915 0.284936 17.3158 0 18.0681 0C18.8204 0 19.5447 0.284936 20.0953 0.797464L21.0296 1.65227C21.3812 1.99057 21.8128 2.23438 22.284 2.36097C22.7553 2.48757 23.2509 2.49283 23.7248 2.37628L24.9673 2.09602C25.7013 1.92616 26.4724 2.04153 27.1246 2.41878C27.7767 2.79603 28.2612 3.40697 28.4799 4.12793L28.8069 5.34708C28.9435 5.81475 29.1956 6.24048 29.5401 6.58499C29.8847 6.9295 30.3104 7.18168 30.7781 7.31827L31.9972 7.69662C32.7164 7.91722 33.3252 8.40248 33.7006 9.05443C34.076 9.70638 34.1901 10.4765 34.0198 11.2093L33.7395 12.4331C33.6275 12.9049 33.6359 13.3974 33.7641 13.8651C33.8922 14.3328 34.136 14.7608 34.4729 15.1096L35.3464 16.0438C35.8653 16.5949 36.1543 17.3234 36.1543 18.0804C36.1543 18.8374 35.8653 19.5659 35.3464 20.117ZM30.6753 18.0897C30.6768 15.1714 29.6662 12.3429 27.8157 10.0863C25.9652 7.82963 23.3894 6.28458 20.5273 5.71445C17.6652 5.14432 14.694 5.5844 12.12 6.95969C9.54605 8.33497 7.5287 10.5603 6.41179 13.2565C5.29487 15.9526 5.14754 18.9526 5.99489 21.7452C6.84225 24.5378 8.63184 26.9502 11.0587 28.571C13.4855 30.1919 16.3993 30.921 19.3035 30.6341C22.2077 30.3471 24.9225 29.0619 26.9852 26.9975C28.1564 25.8288 29.0854 24.4403 29.7186 22.9116C30.3519 21.383 30.677 19.7443 30.6753 18.0897ZM26.1957 9.97143C28.0702 11.8556 29.2336 14.3313 29.4878 16.9769C29.7419 19.6225 29.0711 22.2744 27.5896 24.481C26.1081 26.6875 23.9075 28.3123 21.3626 29.0786C18.8176 29.8449 16.0858 29.7052 13.6322 28.6835C11.1787 27.6618 9.15519 25.8212 7.90634 23.475C6.6575 21.1289 6.26054 18.4225 6.78308 15.8166C7.30561 13.2107 8.71532 10.8665 10.7721 9.1832C12.8289 7.49994 15.4056 6.58172 18.0634 6.58491C19.5754 6.58468 21.0724 6.88381 22.4682 7.46505C23.864 8.04628 25.1308 8.89812 26.1957 9.97143ZM25.1588 15.6047C25.1324 15.5194 25.0789 15.4449 25.0064 15.3926C24.9339 15.3404 24.8464 15.3132 24.7571 15.3151H20.2542C20.164 15.3155 20.076 15.2872 20.0029 15.2343C19.9299 15.1814 19.8755 15.1067 19.8478 15.0209L18.4465 10.7328C18.42 10.647 18.3667 10.5718 18.2944 10.5185C18.2221 10.4651 18.1346 10.4364 18.0447 10.4364C17.9549 10.4364 17.8674 10.4651 17.7951 10.5185C17.7228 10.5718 17.6695 10.647 17.643 10.7328L16.2417 15.0209C16.214 15.1067 16.1596 15.1814 16.0866 15.2343C16.0135 15.2872 15.9255 15.3155 15.8353 15.3151H11.3324C11.243 15.3138 11.1554 15.341 11.0825 15.3928C11.0096 15.4446 10.9551 15.5183 10.9269 15.6033C10.8988 15.6882 10.8985 15.7799 10.9261 15.865C10.9536 15.9501 11.0076 16.0242 11.0802 16.0765L14.7937 18.7203C14.8663 18.7712 14.9206 18.8441 14.9483 18.9283C14.9761 19.0125 14.9759 19.1034 14.9478 19.1874L13.5465 23.4708C13.5213 23.5551 13.5226 23.6451 13.5501 23.7286C13.5777 23.8121 13.6302 23.8852 13.7007 23.9379C13.7723 23.991 13.8591 24.0197 13.9482 24.0197C14.0374 24.0197 14.1242 23.991 14.1958 23.9379L17.8392 21.2847C17.9102 21.2302 17.9972 21.2006 18.0868 21.2006C18.1763 21.2006 18.2633 21.2302 18.3343 21.2847L21.9778 23.9379C22.0494 23.991 22.1362 24.0197 22.2253 24.0197C22.3145 24.0197 22.4013 23.991 22.4729 23.9379C22.5433 23.8852 22.5959 23.8121 22.6234 23.7286C22.651 23.6451 22.6523 23.5551 22.6271 23.4708L21.2257 19.1874C21.1976 19.1034 21.1975 19.0125 21.2252 18.9283C21.253 18.8441 21.3073 18.7712 21.3799 18.7203L25.0327 16.0765C25.1013 16.0217 25.1507 15.9463 25.1734 15.8614C25.1961 15.7765 25.191 15.6865 25.1588 15.6047ZM12.6683 34.8495L11.4258 35.1344C10.4238 35.3614 9.37293 35.2017 8.48351 34.6873C7.5941 34.1728 6.93166 33.3416 6.62866 32.3598L6.60531 32.2898L2.22852 39.0535C2.1978 39.0995 2.18194 39.1539 2.18306 39.2093C2.18419 39.2646 2.20225 39.3183 2.23482 39.3631C2.26739 39.4079 2.31291 39.4416 2.36523 39.4598C2.41755 39.4779 2.47418 39.4796 2.52747 39.4645L7.19853 38.2127C7.26909 38.1954 7.34358 38.2062 7.40632 38.2428C7.46906 38.2794 7.51514 38.339 7.53485 38.4089L8.7867 43.0799C8.80001 43.1335 8.82964 43.1816 8.87148 43.2176C8.91332 43.2535 8.9653 43.2756 9.02025 43.2808C9.07527 43.2865 9.13072 43.2752 9.17915 43.2485C9.22758 43.2218 9.26667 43.1809 9.29117 43.1313L13.5278 34.8448C13.2445 34.7833 12.951 34.7849 12.6683 34.8495Z"
        fill="#2FB7B8"></path>
</svg>