<svg width="723" height="724" viewBox="0 0 723 724" fill="none" xmlns="http://www.w3.org/2000/svg">
<g clip-path="url(#clip0_873_2506)">
<path d="M436.75 142.116C436.613 142.116 436.48 142.129 436.346 142.136C436.518 141.198 436.62 140.233 436.62 139.246C436.62 130.444 429.496 123.309 420.706 123.309C420.664 123.309 420.625 123.315 420.583 123.315C418.482 119.677 414.565 117.223 410.067 117.223C405.385 117.223 401.329 119.878 399.3 123.762C398.214 123.477 397.079 123.309 395.902 123.309C388.681 123.309 382.81 129.043 382.544 136.209C379.571 138.424 377.636 141.96 377.636 145.955C377.636 152.668 383.07 158.109 389.773 158.109C390.934 158.109 392.054 157.935 393.118 157.63H434.05C434.895 157.934 435.8 158.109 436.749 158.109C441.159 158.109 444.734 154.529 444.734 150.112C444.736 145.696 441.162 142.116 436.75 142.116Z" fill="#263238"/>
<path d="M124.819 183.755C124.683 183.755 124.549 183.768 124.414 183.775C124.586 182.837 124.689 181.873 124.689 180.885C124.689 172.083 117.564 164.949 108.774 164.949C108.732 164.949 108.693 164.954 108.652 164.954C106.551 161.316 102.633 158.862 98.1349 158.862C93.4534 158.862 89.3973 161.517 87.3684 165.401C86.2826 165.116 85.1476 164.949 83.9707 164.949C76.7493 164.949 70.878 170.682 70.6123 177.848C67.6391 180.064 65.7041 183.599 65.7041 187.594C65.7041 194.307 71.1379 199.748 77.8409 199.748C79.0019 199.748 80.1224 199.574 81.1867 199.269H122.118C122.963 199.573 123.868 199.748 124.817 199.748C129.227 199.748 132.802 196.168 132.802 191.752C132.802 187.335 129.23 183.755 124.819 183.755Z" fill="#263238"/>
<path d="M650.077 576.722H602.249V577.084H650.077V576.722Z" fill="#EBEBEB"/>
<path d="M478.701 580.646H466.148V581.008H478.701V580.646Z" fill="#EBEBEB"/>
<path d="M600.803 563.294H573.09V563.656H600.803V563.294Z" fill="#EBEBEB"/>
<path d="M138.542 565.724H76.1709V566.086H138.542V565.724Z" fill="#EBEBEB"/>
<path d="M160.543 565.724H151.398V566.086H160.543V565.724Z" fill="#EBEBEB"/>
<path d="M325.532 571.831H190.264V572.192H325.532V571.831Z" fill="#EBEBEB"/>
<path d="M342.668 488.959H63.8332C59.2889 488.959 55.5908 485.255 55.5908 480.705V88.2142C55.5908 83.6637 59.2889 79.9604 63.8332 79.9604H342.668C347.211 79.9604 350.909 83.6637 350.909 88.2142V480.705C350.909 485.255 347.211 488.959 342.668 488.959ZM63.8332 80.3234C59.4867 80.3234 55.9518 83.8632 55.9518 88.2157V480.706C55.9518 485.059 59.4867 488.599 63.8332 488.599H342.668C347.013 488.599 350.548 485.059 350.548 480.706V88.2142C350.548 83.8632 347.013 80.3219 342.668 80.3219L63.8332 80.3234Z" fill="#EBEBEB"/>
<path d="M654.999 488.959H376.166C371.621 488.959 367.925 485.255 367.925 480.705V88.2142C367.925 83.6637 371.623 79.9604 376.166 79.9604H654.999C659.545 79.9604 663.242 83.6637 663.242 88.2142V480.705C663.243 485.255 659.545 488.959 654.999 488.959ZM376.166 80.3234C371.821 80.3234 368.286 83.8632 368.286 88.2157V480.706C368.286 485.059 371.821 488.599 376.166 488.599H654.999C659.346 488.599 662.881 485.059 662.881 480.706V88.2142C662.881 83.8632 659.346 80.3219 654.999 80.3219L376.166 80.3234Z" fill="#EBEBEB"/>
<path d="M722.42 553.447H0.419922V553.809H722.42V553.447Z" fill="#EBEBEB"/>
<path d="M124.396 261.886V233.725H122.23V261.886C120.836 262.344 119.824 263.643 119.824 265.192V274.109C119.824 276.039 121.387 277.604 123.313 277.604C125.241 277.604 126.803 276.039 126.803 274.109V265.192C126.803 263.643 125.791 262.344 124.396 261.886Z" fill="#E0E0E0"/>
<path d="M134.96 233.725H130.646V550.772H134.96V233.725Z" fill="#EBEBEB"/>
<path d="M160.961 552.075H104.645C104.645 549.162 107.003 546.8 109.912 546.8H155.691C158.602 546.8 160.961 549.162 160.961 552.075Z" fill="#E0E0E0"/>
<path d="M130.646 256.147L134.96 254.725V233.725H130.646V256.147Z" fill="#E0E0E0"/>
<path d="M158.65 167.948H106.955L91.0713 236.633H174.534L158.65 167.948Z" fill="#F0F0F0"/>
<path d="M360.592 397.867H333.531L346.527 356.66H373.588L360.592 397.867Z" fill="#30BABA"/>
<path opacity="0.2" d="M342.734 368.691H369.795L373.588 356.66H346.528L342.734 368.691Z" fill="black"/>
<path d="M382.014 395.247H330.227V401.512H382.014V395.247Z" fill="#30BABA"/>
<path opacity="0.5" d="M382.014 395.247H330.227V401.512H382.014V395.247Z" fill="white"/>
<path opacity="0.6" d="M356.12 395.247H330.227V401.512H356.12V395.247Z" fill="white"/>
<path d="M582.659 347.709L573.228 239.78L425.631 252.811H276.902L127.027 239.78L124.139 242.672L133.568 350.601L283.439 363.633H432.176L579.771 350.601L582.659 347.709Z" fill="#30BABA"/>
<path opacity="0.2" d="M582.659 347.709L573.228 239.78L425.631 252.811H276.902L127.026 239.78L136.456 347.709L286.327 360.741H435.063L582.659 347.709Z" fill="white"/>
<path opacity="0.8" d="M569.328 244.52L430.318 256.705L438.994 355.959L578.004 343.774L569.328 244.52Z" fill="white"/>
<path opacity="0.5" d="M456.392 266.764C455.547 266.837 454.802 266.207 454.727 265.355C454.652 264.502 455.277 263.752 456.122 263.676L491.081 260.591C491.926 260.515 492.671 261.147 492.746 261.999C492.821 262.852 492.196 263.604 491.351 263.678L456.392 266.764Z" fill="#263238"/>
<g opacity="0.5">
<path opacity="0.5" d="M456.392 266.764C455.547 266.837 454.802 266.207 454.727 265.355C454.652 264.502 455.277 263.752 456.122 263.676L491.081 260.591C491.926 260.515 492.671 261.147 492.746 261.999C492.821 262.852 492.196 263.604 491.351 263.678L456.392 266.764Z" fill="white"/>
</g>
<path opacity="0.5" d="M513.264 261.743C512.419 261.818 511.674 261.186 511.599 260.335C511.524 259.481 512.149 258.73 512.994 258.656L547.953 255.57C548.798 255.495 549.543 256.127 549.618 256.978C549.693 257.832 549.068 258.583 548.223 258.657L513.264 261.743Z" fill="#263238"/>
<g opacity="0.5">
<path opacity="0.5" d="M513.264 261.743C512.419 261.818 511.674 261.186 511.599 260.335C511.524 259.481 512.149 258.73 512.994 258.656L547.953 255.57C548.798 255.495 549.543 256.127 549.618 256.978C549.693 257.832 549.068 258.583 548.223 258.657L513.264 261.743Z" fill="white"/>
</g>
<path d="M471.167 332.231L460.624 333.162L461.699 345.374L472.242 344.444L471.167 332.231Z" fill="#30BABA"/>
<path opacity="0.9" d="M481.94 333.971L471.396 334.901L472.237 344.451L482.78 343.52L481.94 333.971Z" fill="white"/>
<path opacity="0.9" d="M501.943 319.695L491.399 320.626L493.332 342.583L503.875 341.652L501.943 319.695Z" fill="white"/>
<path opacity="0.9" d="M522.799 315.22L512.256 316.15L514.419 340.72L524.962 339.789L522.799 315.22Z" fill="white"/>
<path opacity="0.9" d="M544.362 318.838L533.818 319.769L535.5 338.868L546.043 337.937L544.362 318.838Z" fill="white"/>
<path d="M491.573 322.599L481.029 323.53L482.788 343.513L493.332 342.583L491.573 322.599Z" fill="#30BABA"/>
<path d="M512.022 313.533L501.479 314.463L503.872 341.659L514.416 340.728L512.022 313.533Z" fill="#30BABA"/>
<path d="M533.572 316.904L523.028 317.834L524.961 339.791L535.504 338.861L533.572 316.904Z" fill="#30BABA"/>
<path d="M553.592 302.886L543.049 303.817L546.051 337.929L556.595 336.998L553.592 302.886Z" fill="#30BABA"/>
<path opacity="0.8" d="M131.771 244.498L140.443 343.751L281.586 356.022L272.915 256.77L131.771 244.498Z" fill="white"/>
<path d="M232.575 290.452L156.827 283.865C153.636 283.588 150.824 280.793 150.547 277.622L149.592 266.691C149.315 263.52 151.678 261.175 154.869 261.452L230.617 268.039C233.808 268.317 236.619 271.112 236.895 274.283L237.85 285.213C238.128 288.383 235.766 290.73 232.575 290.452Z" fill="white"/>
<path d="M169.35 273.833C169.682 277.626 166.856 280.433 163.038 280.1C159.222 279.769 155.858 276.424 155.526 272.63C155.196 268.837 158.02 266.031 161.838 266.363C165.656 266.696 169.019 270.04 169.35 273.833Z" fill="#30BABA"/>
<path d="M178.196 270.746C177.367 270.673 176.638 269.948 176.565 269.123C176.493 268.299 177.107 267.69 177.936 267.763L224.36 271.798C225.189 271.871 225.92 272.597 225.991 273.419C226.063 274.244 225.449 274.852 224.62 274.78L178.196 270.746Z" fill="#263238"/>
<path d="M179.136 281.5C178.307 281.427 177.578 280.701 177.506 279.877C177.434 279.053 178.047 278.444 178.876 278.517L206.068 280.881C206.897 280.953 207.626 281.679 207.698 282.503C207.771 283.327 207.157 283.936 206.328 283.864L179.136 281.5Z" fill="#263238"/>
<path d="M178.665 276.123C177.836 276.051 177.107 275.325 177.035 274.502C176.963 273.678 177.577 273.069 178.405 273.142L217.783 276.566C218.612 276.638 219.343 277.364 219.414 278.187C219.486 279.011 218.872 279.62 218.043 279.547L178.665 276.123Z" fill="#263238"/>
<g opacity="0.5">
<path d="M178.196 270.746C177.367 270.673 176.638 269.948 176.565 269.123C176.493 268.299 177.107 267.69 177.936 267.763L224.36 271.798C225.189 271.871 225.92 272.597 225.991 273.419C226.063 274.244 225.449 274.852 224.62 274.78L178.196 270.746Z" fill="white"/>
<path d="M179.136 281.5C178.307 281.427 177.578 280.701 177.506 279.877C177.434 279.053 178.047 278.444 178.876 278.517L206.068 280.881C206.897 280.953 207.626 281.679 207.698 282.503C207.771 283.327 207.157 283.936 206.328 283.864L179.136 281.5Z" fill="white"/>
<path d="M178.665 276.123C177.836 276.051 177.107 275.325 177.035 274.502C176.963 273.678 177.577 273.069 178.405 273.142L217.783 276.566C218.612 276.638 219.343 277.364 219.414 278.187C219.486 279.011 218.872 279.62 218.043 279.547L178.665 276.123Z" fill="white"/>
</g>
<path d="M236.531 257.671L227.675 256.996C226.458 256.903 225.567 257.81 225.687 259.022L226.411 266.399C226.53 267.608 227.609 268.665 228.824 268.76L231.387 268.964L232.644 270.765C233.07 271.375 233.925 271.436 234.229 270.876L235.13 269.219L237.679 269.421C238.899 269.518 239.794 268.61 239.675 267.395L238.951 260.032C238.831 258.821 237.748 257.764 236.531 257.671Z" fill="#30BABA"/>
<g opacity="0.9">
<path d="M229.719 263.665C228.956 262.917 228.585 262.141 228.526 261.468C228.426 260.322 229.128 259.625 230.295 259.726C231.382 259.82 231.797 260.354 232.497 261.133C233.07 260.463 233.398 259.995 234.485 260.09C235.652 260.192 236.488 261.023 236.588 262.17C236.647 262.842 236.407 263.567 235.765 264.191L233.002 266.92L229.719 263.665Z" fill="white"/>
</g>
<path d="M253.279 318.529L177.531 311.943C174.34 311.665 171.528 308.87 171.251 305.699L170.297 294.768C170.019 291.597 172.382 289.252 175.573 289.53L251.321 296.116C254.512 296.394 257.324 299.189 257.599 302.36L258.554 313.29C258.831 316.46 256.469 318.807 253.279 318.529Z" fill="white"/>
<path d="M190.054 301.91C190.384 305.703 187.56 308.51 183.742 308.177C179.924 307.845 176.563 304.502 176.23 300.707C175.9 296.914 178.724 294.108 182.542 294.44C186.359 294.773 189.722 298.118 190.054 301.91Z" fill="#30BABA"/>
<path d="M198.9 298.823C198.071 298.751 197.34 298.025 197.269 297.2C197.197 296.376 197.811 295.768 198.64 295.84L245.064 299.876C245.893 299.948 246.624 300.674 246.695 301.498C246.767 302.322 246.153 302.931 245.324 302.859L198.9 298.823Z" fill="#263238"/>
<path d="M199.838 309.577C199.009 309.505 198.279 308.779 198.208 307.954C198.136 307.13 198.749 306.521 199.578 306.594L226.769 308.958C227.598 309.03 228.328 309.756 228.399 310.58C228.471 311.403 227.858 312.013 227.029 311.941L199.838 309.577Z" fill="#263238"/>
<path d="M199.369 304.2C198.541 304.128 197.811 303.402 197.739 302.578C197.667 301.754 198.281 301.145 199.11 301.217L238.487 304.641C239.316 304.714 240.045 305.44 240.118 306.262C240.19 307.087 239.576 307.695 238.747 307.623L199.369 304.2Z" fill="#263238"/>
<g opacity="0.5">
<path d="M198.9 298.823C198.071 298.751 197.34 298.025 197.269 297.2C197.197 296.376 197.811 295.768 198.64 295.84L245.064 299.876C245.893 299.948 246.624 300.674 246.695 301.498C246.767 302.322 246.153 302.931 245.324 302.859L198.9 298.823Z" fill="white"/>
<path d="M199.838 309.577C199.009 309.505 198.279 308.779 198.208 307.954C198.136 307.13 198.749 306.521 199.578 306.594L226.769 308.958C227.598 309.03 228.328 309.756 228.399 310.58C228.471 311.403 227.858 312.013 227.029 311.941L199.838 309.577Z" fill="white"/>
<path d="M199.369 304.2C198.541 304.128 197.811 303.402 197.739 302.578C197.667 301.754 198.281 301.145 199.11 301.217L238.487 304.641C239.316 304.714 240.045 305.44 240.118 306.262C240.19 307.087 239.576 307.695 238.747 307.623L199.369 304.2Z" fill="white"/>
</g>
<path d="M257.234 285.748L248.378 285.073C247.161 284.98 246.27 285.887 246.39 287.099L247.115 294.476C247.233 295.685 248.312 296.742 249.528 296.838L252.091 297.041L253.347 298.842C253.773 299.452 254.628 299.513 254.932 298.953L255.833 297.296L258.382 297.498C259.602 297.595 260.498 296.687 260.378 295.473L259.654 288.109C259.534 286.898 258.451 285.841 257.234 285.748Z" fill="#30BABA"/>
<g opacity="0.9">
<path d="M250.423 291.741C249.66 290.994 249.289 290.217 249.23 289.544C249.13 288.397 249.832 287.7 250.999 287.802C252.086 287.896 252.501 288.429 253.201 289.209C253.774 288.539 254.102 288.071 255.189 288.166C256.356 288.267 257.192 289.099 257.292 290.245C257.351 290.916 257.111 291.642 256.469 292.266L253.706 294.994L250.423 291.741Z" fill="white"/>
</g>
<path d="M243.379 345.728L167.632 339.143C164.44 338.865 161.629 336.07 161.352 332.899L160.397 321.969C160.12 318.798 162.482 316.452 165.673 316.73L241.421 323.315C244.613 323.593 247.424 326.388 247.7 329.559L248.654 340.489C248.933 343.66 246.571 346.006 243.379 345.728Z" fill="white"/>
<path d="M180.154 329.109C180.487 332.902 177.661 335.709 173.843 335.378C170.025 335.045 166.662 331.702 166.331 327.907C166 324.115 168.825 321.308 172.643 321.641C176.461 321.972 179.824 325.316 180.154 329.109Z" fill="#30BABA"/>
<path d="M189 326.022C188.171 325.95 187.441 325.224 187.37 324.401C187.298 323.577 187.912 322.968 188.74 323.04L235.165 327.076C235.994 327.149 236.723 327.874 236.795 328.697C236.867 329.521 236.254 330.13 235.425 330.058L189 326.022Z" fill="#263238"/>
<path d="M189.941 336.778C189.112 336.705 188.383 335.979 188.31 335.157C188.238 334.332 188.852 333.724 189.681 333.796L227.057 337.045C227.886 337.117 228.615 337.843 228.688 338.666C228.76 339.49 228.146 340.099 227.317 340.027L189.941 336.778Z" fill="#263238"/>
<path d="M189.471 331.4C188.642 331.327 187.911 330.601 187.841 329.779C187.769 328.954 188.382 328.346 189.211 328.418L222.768 331.336C223.597 331.408 224.326 332.134 224.398 332.957C224.471 333.781 223.857 334.39 223.028 334.318L189.471 331.4Z" fill="#263238"/>
<g opacity="0.5">
<path d="M189 326.022C188.171 325.95 187.441 325.224 187.37 324.401C187.298 323.577 187.912 322.968 188.74 323.04L235.165 327.076C235.994 327.149 236.723 327.874 236.795 328.697C236.867 329.521 236.254 330.13 235.425 330.058L189 326.022Z" fill="white"/>
<path d="M189.941 336.778C189.112 336.705 188.383 335.979 188.31 335.157C188.238 334.332 188.852 333.724 189.681 333.796L227.057 337.045C227.886 337.117 228.615 337.843 228.688 338.666C228.76 339.49 228.146 340.099 227.317 340.027L189.941 336.778Z" fill="white"/>
<path d="M189.471 331.4C188.642 331.327 187.911 330.601 187.841 329.779C187.769 328.954 188.382 328.346 189.211 328.418L222.768 331.336C223.597 331.408 224.326 332.134 224.398 332.957C224.471 333.781 223.857 334.39 223.028 334.318L189.471 331.4Z" fill="white"/>
</g>
<path d="M247.591 315.862L238.735 315.187C237.517 315.095 236.626 316.001 236.746 317.213L237.471 324.59C237.589 325.799 238.668 326.856 239.884 326.952L242.447 327.156L243.703 328.956C244.129 329.566 244.984 329.627 245.289 329.067L246.19 327.41L248.739 327.613C249.959 327.71 250.854 326.801 250.734 325.587L250.011 318.224C249.891 317.013 248.808 315.955 247.591 315.862Z" fill="#30BABA"/>
<path opacity="0.9" d="M240.833 324.136C240.472 324.104 240.153 323.788 240.121 323.429L239.905 320.946C239.873 320.586 240.142 320.322 240.503 320.352C240.864 320.384 241.183 320.7 241.215 321.059L241.431 323.542C241.463 323.902 241.196 324.167 240.833 324.136Z" fill="white"/>
<path opacity="0.9" d="M242.064 320.362C242.5 320.017 243.593 319.023 243.59 317.749C243.589 317.125 244.477 317.012 244.799 317.608C245.04 318.054 245.096 318.84 244.657 320.213L246.33 320.359C246.776 320.398 247.203 320.696 247.417 321.118C247.541 321.366 247.583 321.633 247.532 321.876L247.04 324.245C246.93 324.773 246.422 325.065 245.856 324.929L242.659 324.158C242.393 324.094 242.182 323.853 242.159 323.59L241.911 320.754C241.895 320.595 241.95 320.452 242.064 320.362Z" fill="white"/>
<path opacity="0.8" d="M281.609 257.149L290.281 356.402H430.353L421.682 257.149H281.609Z" fill="white"/>
<g opacity="0.2">
<path d="M285.912 355.94C285.314 355.94 284.787 355.454 284.734 354.855L282.003 323.605C281.951 323.006 282.393 322.52 282.991 322.52C283.589 322.52 284.116 323.006 284.169 323.605L286.9 354.855C286.953 355.454 286.51 355.94 285.912 355.94Z" fill="black"/>
</g>
<g opacity="0.2">
<path d="M282.676 318.905C282.078 318.905 281.551 318.419 281.498 317.821L277.623 273.476C277.571 272.877 278.013 272.392 278.611 272.392C279.209 272.392 279.736 272.877 279.789 273.476L283.664 317.821C283.717 318.419 283.275 318.905 282.676 318.905Z" fill="black"/>
</g>
<g opacity="0.2">
<path d="M278.318 269.018C277.72 269.018 277.193 268.532 277.139 267.933L276.332 258.696C276.28 258.098 276.722 257.612 277.32 257.612C277.918 257.612 278.445 258.098 278.498 258.696L279.305 267.933C279.359 268.532 278.916 269.018 278.318 269.018Z" fill="black"/>
</g>
<g opacity="0.2">
<path d="M434.642 355.94C434.044 355.94 433.517 355.454 433.464 354.855L429.491 309.384C429.439 308.786 429.881 308.3 430.479 308.3C431.077 308.3 431.604 308.786 431.657 309.384L435.63 354.855C435.682 355.454 435.24 355.94 434.642 355.94Z" fill="black"/>
</g>
<g opacity="0.2">
<path d="M430.207 305.166C429.609 305.166 429.082 304.68 429.028 304.082L425.934 268.655C425.882 268.056 426.324 267.57 426.922 267.57C427.519 267.57 428.046 268.056 428.1 268.655L431.194 304.082C431.246 304.682 430.804 305.166 430.207 305.166Z" fill="black"/>
</g>
<g opacity="0.2">
<path d="M426.55 263.315C425.952 263.315 425.425 262.829 425.372 262.23L425.063 258.696C425.011 258.098 425.453 257.612 426.05 257.612C426.648 257.612 427.175 258.098 427.229 258.696L427.538 262.23C427.59 262.829 427.148 263.315 426.55 263.315Z" fill="black"/>
</g>
<path d="M405.347 300.844C405.274 300.02 405.882 299.354 406.705 299.354C407.528 299.354 408.253 300.022 408.326 300.844L410.038 320.456C410.11 321.281 409.502 321.947 408.679 321.947C407.858 321.947 407.131 321.279 407.061 320.456L405.347 300.844Z" fill="#30BABA"/>
<path d="M292.148 265.497C291.325 265.497 290.6 264.829 290.528 264.006C290.456 263.182 291.065 262.515 291.887 262.515H325.912C326.735 262.515 327.46 263.183 327.531 264.006C327.603 264.83 326.995 265.497 326.172 265.497H292.148Z" fill="#263238"/>
<path d="M293.088 276.251C292.267 276.251 291.54 275.583 291.47 274.76C291.397 273.936 292.005 273.269 292.828 273.269H321.077C321.899 273.269 322.625 273.937 322.696 274.76C322.768 275.584 322.159 276.251 321.337 276.251H293.088Z" fill="#263238"/>
<path d="M292.619 270.873C291.796 270.873 291.071 270.205 290.999 269.382C290.927 268.558 291.536 267.892 292.358 267.892H314.831C315.654 267.892 316.379 268.56 316.451 269.382C316.523 270.207 315.914 270.873 315.092 270.873H292.619Z" fill="#263238"/>
<g opacity="0.5">
<path d="M292.148 265.497C291.325 265.497 290.6 264.829 290.528 264.006C290.456 263.182 291.065 262.515 291.887 262.515H325.912C326.735 262.515 327.46 263.183 327.531 264.006C327.603 264.83 326.995 265.497 326.172 265.497H292.148Z" fill="white"/>
<path d="M293.088 276.251C292.267 276.251 291.54 275.583 291.47 274.76C291.397 273.936 292.005 273.269 292.828 273.269H321.077C321.899 273.269 322.625 273.937 322.696 274.76C322.768 275.584 322.159 276.251 321.337 276.251H293.088Z" fill="white"/>
<path d="M292.619 270.873C291.796 270.873 291.071 270.205 290.999 269.382C290.927 268.558 291.536 267.892 292.358 267.892H314.831C315.654 267.892 316.379 268.56 316.451 269.382C316.523 270.207 315.914 270.873 315.092 270.873H292.619Z" fill="white"/>
</g>
<path d="M413.475 288.626C413.848 292.887 410.7 296.343 406.443 296.343C402.186 296.343 398.434 292.888 398.063 288.626C397.691 284.364 400.839 280.908 405.095 280.908C409.351 280.91 413.102 284.364 413.475 288.626Z" fill="#30BABA"/>
<path d="M401.976 292.307C401.507 292.307 401.093 291.925 401.052 291.455L400.768 288.206C400.727 287.736 401.074 287.354 401.543 287.354C402.013 287.354 402.427 287.736 402.467 288.206L402.752 291.455C402.794 291.927 402.446 292.307 401.976 292.307Z" fill="white"/>
<path d="M403.57 287.191C404.137 286.685 405.556 285.251 405.55 283.572C405.547 282.748 406.7 282.499 407.118 283.246C407.432 283.807 407.505 284.837 406.938 286.697H409.108C409.689 286.697 410.243 287.041 410.52 287.574C410.682 287.885 410.736 288.234 410.671 288.56L410.034 291.739C409.892 292.446 409.232 292.891 408.496 292.776L404.343 292.126C403.999 292.073 403.724 291.779 403.693 291.435L403.37 287.725C403.352 287.518 403.423 287.323 403.57 287.191Z" fill="white"/>
<path d="M417.323 332.675C416.95 328.413 413.199 324.958 408.943 324.958C404.688 324.958 401.538 328.412 401.911 332.675C402.283 336.936 406.035 340.392 410.29 340.392C414.546 340.392 417.695 336.936 417.323 332.675Z" fill="#30BABA"/>
<path d="M405.181 328.993C404.712 328.993 404.364 329.375 404.406 329.845L404.69 333.094C404.732 333.564 405.145 333.946 405.614 333.946C406.084 333.946 406.432 333.564 406.39 333.094L406.105 329.845C406.065 329.375 405.65 328.993 405.181 328.993Z" fill="white"/>
<path d="M407.668 334.109C408.322 334.615 409.992 336.05 410.28 337.728C410.422 338.553 411.617 338.801 411.905 338.054C412.12 337.493 412.013 336.463 411.121 334.604H413.291C413.872 334.604 414.365 334.259 414.55 333.726C414.659 333.415 414.65 333.066 414.529 332.741L413.337 329.563C413.072 328.856 412.335 328.41 411.619 328.526L407.58 329.175C407.245 329.229 407.021 329.522 407.052 329.866L407.375 333.575C407.394 333.782 407.498 333.977 407.668 334.109Z" fill="white"/>
<path d="M386.135 339.535C400.695 324.303 399.041 299.055 382.44 283.141C365.839 267.228 340.577 266.676 326.016 281.908C311.456 297.141 313.11 322.389 329.712 338.302C346.313 354.215 371.575 354.767 386.135 339.535Z" fill="#30BABA"/>
<path opacity="0.6" d="M381.767 282.51C373.929 275.292 363.581 270.828 352.582 270.828C330.584 270.828 314.312 288.686 316.237 310.713H356.066L381.767 282.51Z" fill="white"/>
<path opacity="0.2" d="M325.438 282.51L356.067 310.713L352.583 270.828C341.584 270.828 332.016 275.293 325.438 282.51Z" fill="black"/>
<path d="M325.438 282.51L356.067 310.713L352.583 270.828C341.584 270.828 332.016 275.293 325.438 282.51Z" fill="#30BABA"/>
<path opacity="0.3" d="M325.438 282.51L356.067 310.713L352.583 270.828C341.584 270.828 332.016 275.293 325.438 282.51Z" fill="black"/>
<path opacity="0.3" d="M359.551 350.6C381.549 350.6 397.821 332.742 395.896 310.715H356.067L330.366 338.918C338.204 346.136 348.552 350.6 359.551 350.6Z" fill="white"/>
<path d="M385.617 343.782C386.085 349.136 382.13 353.477 376.783 353.477C371.435 353.477 366.722 349.136 366.254 343.782C365.787 338.427 369.742 334.086 375.089 334.086C380.434 334.086 385.148 338.427 385.617 343.782Z" fill="#263238"/>
<path d="M372.574 345.394C371.69 344.594 371.26 343.717 371.192 342.933C371.075 341.594 371.888 340.702 373.239 340.702C374.499 340.702 374.981 341.286 375.791 342.132C376.455 341.286 376.833 340.702 378.093 340.702C379.444 340.702 380.413 341.594 380.53 342.933C380.598 343.717 380.322 344.594 379.577 345.394L376.38 348.886L372.574 345.394Z" fill="#30BABA"/>
<path d="M330.996 295.199C331.464 300.553 327.509 304.894 322.161 304.894C316.814 304.894 312.101 300.553 311.633 295.199C311.165 289.844 315.121 285.503 320.468 285.503C325.815 285.503 330.528 289.844 330.996 295.199Z" fill="#263238"/>
<path d="M327.412 295.199C327.706 298.571 325.215 301.305 321.846 301.305C318.479 301.305 315.51 298.571 315.214 295.199C314.92 291.827 317.41 289.092 320.779 289.092C324.148 289.092 327.117 291.827 327.412 295.199Z" fill="#30BABA"/>
<path opacity="0.5" d="M327.412 295.199C327.706 298.571 325.215 301.305 321.846 301.305C318.479 301.305 315.51 298.571 315.214 295.199C314.92 291.827 317.41 289.092 320.779 289.092C324.148 289.092 327.117 291.827 327.412 295.199Z" fill="white"/>
<path d="M323.548 296.493C322.407 297.638 320.649 297.641 319.307 296.493C318.771 296.036 318.092 296.776 318.631 297.234C320.433 298.774 322.821 298.774 324.355 297.234C324.811 296.776 324.004 296.036 323.548 296.493Z" fill="#30BABA"/>
<path d="M319.683 293.21C319.741 293.874 319.558 294.413 319.272 294.413C318.986 294.413 318.707 293.876 318.649 293.21C318.591 292.545 318.776 292.007 319.061 292.007C319.347 292.007 319.625 292.545 319.683 293.21Z" fill="#30BABA"/>
<path d="M323.631 293.21C323.689 293.874 323.506 294.413 323.22 294.413C322.934 294.413 322.655 293.876 322.597 293.21C322.54 292.545 322.725 292.007 323.009 292.007C323.295 292.007 323.574 292.545 323.631 293.21Z" fill="#30BABA"/>
<path d="M390.113 286.386C390.581 291.74 386.626 296.081 381.279 296.081C375.932 296.081 371.218 291.74 370.75 286.386C370.283 281.031 374.238 276.69 379.585 276.69C384.932 276.69 389.645 281.031 390.113 286.386Z" fill="#263238"/>
<path d="M386.53 286.386C386.825 289.758 384.334 292.492 380.965 292.492C377.598 292.492 374.627 289.758 374.334 286.386C374.04 283.014 376.531 280.279 379.899 280.279C383.265 280.279 386.236 283.014 386.53 286.386Z" fill="#30BABA"/>
<path opacity="0.5" d="M386.53 286.386C386.825 289.758 384.334 292.492 380.965 292.492C377.598 292.492 374.627 289.758 374.334 286.386C374.04 283.014 376.531 280.279 379.899 280.279C383.265 280.279 386.236 283.014 386.53 286.386Z" fill="white"/>
<path d="M378.578 289.434C379.719 288.289 381.476 288.286 382.819 289.434C383.355 289.891 384.034 289.15 383.495 288.692C381.693 287.152 379.305 287.152 377.771 288.692C377.315 289.15 378.122 289.891 378.578 289.434Z" fill="#30BABA"/>
<path d="M378.8 284.397C378.858 285.063 378.673 285.6 378.389 285.6C378.103 285.6 377.824 285.063 377.766 284.397C377.709 283.734 377.893 283.194 378.178 283.194C378.464 283.194 378.743 283.732 378.8 284.397Z" fill="#30BABA"/>
<path d="M382.749 284.397C382.806 285.063 382.622 285.6 382.337 285.6C382.051 285.6 381.772 285.063 381.715 284.397C381.657 283.734 381.84 283.194 382.126 283.194C382.412 283.194 382.691 283.732 382.749 284.397Z" fill="#30BABA"/>
<path d="M331.802 324.958C332.269 330.312 328.314 334.653 322.967 334.653C317.62 334.653 312.907 330.312 312.439 324.958C311.971 319.603 315.926 315.262 321.273 315.262C326.619 315.264 331.334 319.603 331.802 324.958Z" fill="#263238"/>
<path d="M328.218 324.958C328.512 328.33 326.021 331.064 322.653 331.064C319.285 331.064 316.315 328.33 316.022 324.958C315.727 321.585 318.218 318.851 321.587 318.851C324.954 318.851 327.923 321.585 328.218 324.958Z" fill="#30BABA"/>
<path opacity="0.5" d="M328.218 324.958C328.512 328.33 326.021 331.064 322.653 331.064C319.285 331.064 316.315 328.33 316.022 324.958C315.727 321.585 318.218 318.851 321.587 318.851C324.954 318.851 327.923 321.585 328.218 324.958Z" fill="white"/>
<path d="M319.263 326.894C321.081 328.567 323.79 328.567 325.315 326.894L325.226 325.873H319.174L319.263 326.894Z" fill="#30BABA"/>
<path d="M321.314 323.127C320.427 322.424 319.421 322.424 318.658 323.127C318.302 323.455 318.908 324.01 319.263 323.683C319.715 323.267 320.283 323.267 320.807 323.683C321.219 324.009 321.728 323.455 321.314 323.127Z" fill="#30BABA"/>
<path d="M325.262 323.127C324.376 322.424 323.369 322.424 322.607 323.127C322.25 323.455 322.856 324.01 323.212 323.683C323.664 323.267 324.231 323.267 324.755 323.683C325.167 324.009 325.677 323.455 325.262 323.127Z" fill="#30BABA"/>
<path d="M432.005 394.223H387.223V401.512H476.788V398.516L432.005 394.223Z" fill="#30BABA"/>
<path opacity="0.6" d="M432.005 394.223H387.223V401.512H476.788V398.516L432.005 394.223Z" fill="white"/>
<path opacity="0.6" d="M432.005 401.512H387.223V394.223L432.005 398.516V401.512Z" fill="white"/>
<g opacity="0.5">
<path d="M575.471 315.015L569.31 244.498L560.972 245.234L525.252 348.406L565.129 344.885L575.471 315.015Z" fill="white"/>
</g>
<g opacity="0.5">
<path d="M385.839 356.402L420.202 257.149H381.545L347.181 356.402H385.839Z" fill="white"/>
</g>
<path opacity="0.5" d="M246.001 352.929L274.201 271.477L272.916 256.77L241.578 254.044L208.473 349.666L246.001 352.929Z" fill="white"/>
<path d="M502.607 415.768H219.856C218.481 415.768 217.368 414.653 217.368 413.276V407.129H505.094V413.276C505.094 414.653 503.98 415.768 502.607 415.768Z" fill="#52CEC7"/>
<path opacity="0.2" d="M502.607 415.768H219.856C218.481 415.768 217.368 414.653 217.368 413.276V407.129H505.094V413.276C505.094 414.653 503.98 415.768 502.607 415.768Z" fill="black"/>
<path opacity="0.3" d="M347.617 415.768H219.856C218.481 415.768 217.368 414.653 217.368 413.276V407.129H347.617V415.768Z" fill="white"/>
<path d="M510.954 408.742H211.508C209.888 408.742 208.574 407.426 208.574 405.803V404.45C208.574 402.828 209.888 401.512 211.508 401.512H510.954C512.574 401.512 513.888 402.828 513.888 404.45V405.803C513.888 407.426 512.574 408.742 510.954 408.742Z" fill="#30BABA"/>
<path opacity="0.4" d="M347.617 408.742H211.508C209.888 408.742 208.574 407.426 208.574 405.803V404.45C208.574 402.828 209.888 401.512 211.508 401.512H347.617V408.742Z" fill="white"/>
<path d="M332.426 589.613H232.558C226.571 589.613 221.7 584.736 221.7 578.739V426.659C221.7 420.664 226.571 415.788 232.558 415.788H332.426C338.413 415.788 343.285 420.665 343.285 426.659V578.739C343.285 584.734 338.414 589.613 332.426 589.613ZM232.558 421.572C229.756 421.572 227.476 423.854 227.476 426.659V578.739C227.476 581.545 229.756 583.829 232.558 583.829H332.426C335.229 583.829 337.509 581.546 337.509 578.739V426.659C337.509 423.854 335.229 421.572 332.426 421.572H232.558Z" fill="#263238"/>
<g opacity="0.4">
<path opacity="0.2" d="M332.426 589.613H232.558C226.571 589.613 221.7 584.736 221.7 578.739V426.659C221.7 420.664 226.571 415.788 232.558 415.788H332.426C338.413 415.788 343.285 420.665 343.285 426.659V578.739C343.285 584.734 338.414 589.613 332.426 589.613ZM232.558 421.572C229.756 421.572 227.476 423.854 227.476 426.659V578.739C227.476 581.545 229.756 583.829 232.558 583.829H332.426C335.229 583.829 337.509 581.546 337.509 578.739V426.659C337.509 423.854 335.229 421.572 332.426 421.572H232.558Z" fill="white"/>
</g>
<path opacity="0.2" d="M332.426 415.788H232.558C226.942 415.788 222.308 420.081 221.757 425.562H227.604C228.108 423.284 230.135 421.572 232.558 421.572H332.426C334.851 421.572 336.878 423.283 337.382 425.562H343.229C342.677 420.08 338.044 415.788 332.426 415.788Z" fill="black"/>
<path d="M487.881 589.613H388.013C382.026 589.613 377.155 584.736 377.155 578.739V426.659C377.155 420.664 382.026 415.788 388.013 415.788H487.881C493.868 415.788 498.74 420.665 498.74 426.659V578.739C498.74 584.734 493.869 589.613 487.881 589.613ZM388.013 421.572C385.211 421.572 382.931 423.854 382.931 426.659V578.739C382.931 581.545 385.211 583.829 388.013 583.829H487.881C490.684 583.829 492.964 581.546 492.964 578.739V426.659C492.964 423.854 490.684 421.572 487.881 421.572H388.013Z" fill="#263238"/>
<path opacity="0.1" d="M487.881 589.613H388.013C382.026 589.613 377.155 584.736 377.155 578.739V426.659C377.155 420.664 382.026 415.788 388.013 415.788H487.881C493.868 415.788 498.74 420.665 498.74 426.659V578.739C498.74 584.734 493.869 589.613 487.881 589.613ZM388.013 421.572C385.211 421.572 382.931 423.854 382.931 426.659V578.739C382.931 581.545 385.211 583.829 388.013 583.829H487.881C490.684 583.829 492.964 581.546 492.964 578.739V426.659C492.964 423.854 490.684 421.572 487.881 421.572H388.013Z" fill="white"/>
<path opacity="0.2" d="M487.882 415.788H388.013C382.397 415.788 377.764 420.081 377.212 425.562H383.059C383.563 423.284 385.589 421.572 388.013 421.572H487.882C490.306 421.572 492.333 423.283 492.837 425.562H498.684C498.132 420.08 493.499 415.788 487.882 415.788Z" fill="black"/>
<path d="M308.29 451.519H196.601C189.884 451.519 184.438 456.972 184.438 463.699V577.995C184.438 584.722 189.884 590.175 196.601 590.175H308.29C315.008 590.175 320.453 584.722 320.453 577.995V463.699C320.453 456.972 315.008 451.519 308.29 451.519Z" fill="#52CEC7"/>
<path opacity="0.4" d="M308.29 451.519H196.601C189.884 451.519 184.438 456.972 184.438 463.699V577.995C184.438 584.722 189.884 590.175 196.601 590.175H308.29C315.008 590.175 320.453 584.722 320.453 577.995V463.699C320.453 456.972 315.008 451.519 308.29 451.519Z" fill="white"/>
<path opacity="0.1" d="M184.438 577.898V577.995C184.438 584.722 189.884 590.174 196.601 590.174H308.29C315.008 590.174 320.453 584.722 320.453 577.995V577.898H184.438Z" fill="black"/>
<path d="M308.291 590.175H277.327C270.609 590.175 265.164 584.722 265.164 577.995V463.699C265.164 456.972 270.609 451.519 277.327 451.519H308.291C315.008 451.519 320.453 456.972 320.453 463.699V577.995C320.453 584.722 315.008 590.175 308.291 590.175Z" fill="#06A79E"/>
<path opacity="0.3" d="M308.291 583.667C311.414 583.667 313.955 581.122 313.955 577.995V463.699C313.955 460.571 311.414 458.026 308.291 458.026H277.327C274.204 458.026 271.662 460.571 271.662 463.699V577.995C271.662 581.122 274.204 583.667 277.327 583.667H308.291Z" fill="white"/>
<path opacity="0.7" d="M309.776 467.065H275.842V476.102H309.776V467.065Z" fill="white"/>
<path opacity="0.7" d="M309.776 477.91H275.842V486.948H309.776V477.91Z" fill="white"/>
<path d="M292.809 527.926C296.712 527.926 299.877 524.757 299.877 520.848C299.877 516.939 296.712 513.77 292.809 513.77C288.905 513.77 285.74 516.939 285.74 520.848C285.74 524.757 288.905 527.926 292.809 527.926Z" fill="#52CEC7"/>
<g opacity="0.9">
<path d="M294.452 519.446C295.806 520.917 294.895 523.41 292.809 523.419C290.716 523.427 289.82 520.908 291.165 519.446C291.84 518.715 290.748 517.616 290.071 518.352C287.824 520.791 289.333 524.969 292.807 524.969C296.284 524.969 297.79 520.791 295.544 518.352C294.869 517.617 293.776 518.715 294.452 519.446Z" fill="white"/>
<path d="M292.034 516.719C292.034 517.895 292.034 519.072 292.034 520.248C292.034 521.244 293.581 521.245 293.581 520.248C293.581 519.072 293.581 517.895 293.581 516.719C293.581 515.723 292.034 515.722 292.034 516.719Z" fill="white"/>
</g>
<path d="M279.423 543.943C280.619 543.943 281.589 542.972 281.589 541.774C281.589 540.576 280.619 539.605 279.423 539.605C278.227 539.605 277.257 540.576 277.257 541.774C277.257 542.972 278.227 543.943 279.423 543.943Z" fill="#52CEC7"/>
<path d="M288.347 543.943C289.543 543.943 290.513 542.972 290.513 541.774C290.513 540.576 289.543 539.605 288.347 539.605C287.15 539.605 286.181 540.576 286.181 541.774C286.181 542.972 287.15 543.943 288.347 543.943Z" fill="#52CEC7"/>
<path d="M297.27 543.943C298.467 543.943 299.436 542.972 299.436 541.774C299.436 540.576 298.467 539.605 297.27 539.605C296.074 539.605 295.104 540.576 295.104 541.774C295.104 542.972 296.074 543.943 297.27 543.943Z" fill="#52CEC7"/>
<path d="M306.193 543.943C307.39 543.943 308.359 542.972 308.359 541.774C308.359 540.576 307.39 539.605 306.193 539.605C304.997 539.605 304.027 540.576 304.027 541.774C304.027 542.972 304.997 543.943 306.193 543.943Z" fill="#52CEC7"/>
<path d="M283.885 551.656C285.081 551.656 286.051 550.685 286.051 549.487C286.051 548.289 285.081 547.318 283.885 547.318C282.689 547.318 281.719 548.289 281.719 549.487C281.719 550.685 282.689 551.656 283.885 551.656Z" fill="#52CEC7"/>
<path d="M292.809 551.656C294.005 551.656 294.975 550.685 294.975 549.487C294.975 548.289 294.005 547.318 292.809 547.318C291.612 547.318 290.643 548.289 290.643 549.487C290.643 550.685 291.612 551.656 292.809 551.656Z" fill="#52CEC7"/>
<path d="M301.732 551.656C302.929 551.656 303.898 550.685 303.898 549.487C303.898 548.289 302.929 547.318 301.732 547.318C300.536 547.318 299.566 548.289 299.566 549.487C299.566 550.685 300.536 551.656 301.732 551.656Z" fill="#52CEC7"/>
<path d="M279.423 560.197C280.619 560.197 281.589 559.226 281.589 558.028C281.589 556.83 280.619 555.859 279.423 555.859C278.227 555.859 277.257 556.83 277.257 558.028C277.257 559.226 278.227 560.197 279.423 560.197Z" fill="#52CEC7"/>
<path d="M288.347 560.197C289.543 560.197 290.513 559.226 290.513 558.028C290.513 556.83 289.543 555.859 288.347 555.859C287.15 555.859 286.181 556.83 286.181 558.028C286.181 559.226 287.15 560.197 288.347 560.197Z" fill="#52CEC7"/>
<path d="M297.27 560.197C298.467 560.197 299.436 559.226 299.436 558.028C299.436 556.83 298.467 555.859 297.27 555.859C296.074 555.859 295.104 556.83 295.104 558.028C295.104 559.226 296.074 560.197 297.27 560.197Z" fill="#52CEC7"/>
<path d="M306.193 560.197C307.39 560.197 308.359 559.226 308.359 558.028C308.359 556.83 307.39 555.859 306.193 555.859C304.997 555.859 304.027 556.83 304.027 558.028C304.027 559.226 304.997 560.197 306.193 560.197Z" fill="#52CEC7"/>
<path d="M283.885 567.909C285.081 567.909 286.051 566.938 286.051 565.74C286.051 564.542 285.081 563.571 283.885 563.571C282.689 563.571 281.719 564.542 281.719 565.74C281.719 566.938 282.689 567.909 283.885 567.909Z" fill="#52CEC7"/>
<path d="M292.809 567.909C294.005 567.909 294.975 566.938 294.975 565.74C294.975 564.542 294.005 563.571 292.809 563.571C291.612 563.571 290.643 564.542 290.643 565.74C290.643 566.938 291.612 567.909 292.809 567.909Z" fill="#52CEC7"/>
<path d="M301.732 567.909C302.929 567.909 303.898 566.938 303.898 565.74C303.898 564.542 302.929 563.571 301.732 563.571C300.536 563.571 299.566 564.542 299.566 565.74C299.566 566.938 300.536 567.909 301.732 567.909Z" fill="#52CEC7"/>
<path d="M279.423 576.452C280.619 576.452 281.589 575.481 281.589 574.283C281.589 573.085 280.619 572.114 279.423 572.114C278.227 572.114 277.257 573.085 277.257 574.283C277.257 575.481 278.227 576.452 279.423 576.452Z" fill="#52CEC7"/>
<path d="M288.347 576.452C289.543 576.452 290.513 575.481 290.513 574.283C290.513 573.085 289.543 572.114 288.347 572.114C287.15 572.114 286.181 573.085 286.181 574.283C286.181 575.481 287.15 576.452 288.347 576.452Z" fill="#52CEC7"/>
<path d="M297.27 576.452C298.467 576.452 299.436 575.481 299.436 574.283C299.436 573.085 298.467 572.114 297.27 572.114C296.074 572.114 295.104 573.085 295.104 574.283C295.104 575.481 296.074 576.452 297.27 576.452Z" fill="#52CEC7"/>
<path d="M306.193 576.452C307.39 576.452 308.359 575.481 308.359 574.283C308.359 573.085 307.39 572.114 306.193 572.114C304.997 572.114 304.027 573.085 304.027 574.283C304.027 575.481 304.997 576.452 306.193 576.452Z" fill="#52CEC7"/>
<path d="M477.125 387.496L468.402 383.558L456.174 388.666V394.762C456.174 394.762 475.158 394.127 475.154 394.158C475.154 394.158 496.567 401.297 504.474 400.199C512.383 399.1 537.566 363.955 537.566 363.955L524.914 352.863L500.825 387.24L477.125 387.496Z" fill="#FCC1BB"/>
<path opacity="0.1" d="M477.125 387.496L468.402 383.559L456.174 388.666V394.762C456.174 394.762 475.158 394.127 475.154 394.158C475.154 394.158 475.689 394.337 476.621 394.632L482.748 387.435L477.125 387.496Z" fill="black"/>
<path d="M516.397 362.855C516.397 362.855 525.157 347.258 530.754 342.316C534.151 339.315 538.886 338.381 542.083 338.111C544.093 337.94 545.813 339.536 545.829 341.556C545.874 347.721 544.27 361.132 531.606 374.936L516.397 362.855Z" fill="#263238"/>
<path d="M516.397 359.918C516.397 359.918 527.063 364.943 533.308 374.828L529.902 377.464C529.902 377.464 522.956 368.691 514.268 363.653L516.397 359.918Z" fill="#407BFF"/>
<path d="M494.994 303.61L490.672 310.412C490.672 310.412 492.924 312.077 496.077 310.944L494.994 303.61Z" fill="#EB827E"/>
<path d="M494.257 307.914C491.605 307.914 489.447 305.603 489.447 302.761C489.447 299.922 491.606 297.609 494.257 297.609C496.91 297.609 499.067 299.92 499.067 302.761C499.067 305.603 496.91 307.914 494.257 307.914ZM494.257 298.695C492.202 298.695 490.53 300.52 490.53 302.763C490.53 305.006 492.202 306.831 494.257 306.831C496.312 306.831 497.984 305.006 497.984 302.763C497.984 300.52 496.312 298.695 494.257 298.695Z" fill="#407BFF"/>
<path d="M492.389 302.663C492.38 303.541 492.825 304.261 493.4 304.268C493.974 304.275 494.485 303.534 494.471 302.68C494.457 301.827 494.035 301.084 493.459 301.085C492.883 301.085 492.408 301.787 492.389 302.663Z" fill="#1A2E35"/>
<path d="M526.214 297.18C526.6 308.848 527.016 313.787 521.729 320.296C513.361 327.206 499.359 328.019 495.502 316.691C492.025 306.501 491.979 289.174 502.888 283.416C510.666 279.315 520.29 282.302 524.386 290.09C525.536 292.28 526.161 294.708 526.214 297.18Z" fill="#FCC1BB"/>
<path opacity="0.2" d="M509.849 325.264L509.765 324.693C509.578 323.429 508.331 322.614 507.101 322.952L502.364 324.252C504.641 325.208 507.215 325.516 509.849 325.264Z" fill="#1A2E35"/>
<path d="M495.542 298.687C495.389 298.704 495.236 298.645 495.135 298.528C494.413 297.618 493.297 297.112 492.137 297.17C491.889 297.2 491.66 297.025 491.626 296.777C491.598 296.525 491.776 296.296 492.026 296.262C493.493 296.158 494.917 296.781 495.837 297.93C496.001 298.124 495.978 298.415 495.786 298.58L495.785 298.581C495.714 298.636 495.63 298.674 495.542 298.687Z" fill="#1A2E35"/>
<path d="M509.415 322.316L511.968 339.646L526.421 336.65L521.792 318.912L509.415 322.316Z" fill="#FCC1BB"/>
<path d="M494.936 287.72C499.853 297.096 503.26 288.52 502.358 296.078C501.454 303.635 504.166 306.084 504.166 306.084L514.066 320.87C514.59 321.652 515.595 321.909 516.456 321.532C519.024 320.404 520.691 320.651 521.606 321.025C522.249 321.286 522.971 321.21 523.491 320.748C525.726 318.767 531.031 313.09 532.66 302.679C535.853 282.279 520.198 279.169 520.198 279.169C511.5 277.358 513.729 268.126 508.558 268.127C504.616 268.128 505.777 274.625 505.777 274.625C505.777 274.625 501.555 271.459 499.107 272.537C495.945 273.93 498.749 280.428 498.749 280.428C498.749 280.428 490.116 278.527 494.936 287.72Z" fill="#1A2E35"/>
<path d="M505.114 300.592H490.67L491.366 299.146H505.114V300.592Z" fill="#407BFF"/>
<path d="M502.15 302.378C501.731 304.727 502.264 307.144 503.632 309.098C505.464 311.676 508.383 310.526 509.548 307.773C510.605 305.28 510.904 300.955 508.251 299.345C505.6 297.732 502.695 299.512 502.15 302.378Z" fill="#FFC3BD"/>
<path d="M505.517 333.308C505.517 333.308 514.796 324.525 524.53 325.235C531.148 325.717 533.194 334.031 533.194 334.031L505.517 333.308Z" fill="#263238"/>
<path opacity="0.2" d="M505.517 333.308C505.517 333.308 514.796 324.525 524.53 325.235C531.148 325.717 533.194 334.031 533.194 334.031L505.517 333.308Z" fill="white"/>
<path d="M511.785 439.591L491.449 340.168C490.635 336.187 493.322 332.532 497.312 332.199C510.067 331.134 535.787 330.104 544.388 338.009C564.435 356.439 566.025 441.037 566.025 441.037L511.785 439.591Z" fill="#263238"/>
<path opacity="0.5" d="M497.214 338.611C497.214 338.611 493.978 339.852 491.823 342.003L498.513 374.709C504.489 361.304 504.077 338.611 504.077 338.611H497.214Z" fill="black"/>
<path d="M436.589 386.251L427.961 381.932L415.867 387.535V394.223C415.867 394.223 434.644 393.527 434.639 393.56C434.639 393.56 455.818 401.393 463.639 400.187C471.461 398.983 496.37 360.422 496.37 360.422L483.855 348.251L460.029 385.967L436.589 386.251Z" fill="#FCC1BB"/>
<path d="M475.434 359.216C475.434 359.216 484.098 342.106 489.632 336.683C495.167 331.261 504.296 331.99 504.296 331.99C504.296 331.99 507.545 351.833 490.474 372.472L475.434 359.216Z" fill="#263238"/>
<path d="M475.433 355.993C475.433 355.993 485.982 361.507 492.159 372.352L488.79 375.244C488.79 375.244 481.92 365.619 473.328 360.091L475.433 355.993Z" fill="#263238"/>
<path opacity="0.2" d="M475.433 355.993C475.433 355.993 485.982 361.507 492.159 372.352L488.79 375.244C488.79 375.244 481.92 365.619 473.328 360.091L475.433 355.993Z" fill="white"/>
<path d="M505.938 548.131L510.887 572.138L520.649 570.692L518.302 547.318L505.938 548.131Z" fill="#FCC1BB"/>
<path opacity="0.2" d="M519.849 562.718L518.302 547.318L505.938 548.131L509.032 563.139L519.849 562.718Z" fill="black"/>
<path d="M563.86 438.868C563.86 438.868 568.817 464.896 551.85 464.896C534.883 464.896 512.316 470.45 512.316 470.45C512.316 470.45 518.814 476.63 520.258 555.394L506.179 555.994C506.179 555.994 482.794 467.095 487.407 457.326C493.905 443.567 527.552 438.868 527.552 438.868H563.86Z" fill="#30BABA"/>
<path opacity="0.2" d="M563.86 438.868C563.86 438.868 568.817 464.896 551.85 464.896C534.883 464.896 512.316 470.45 512.316 470.45C512.316 470.45 518.814 476.63 520.258 555.394L506.179 555.994C506.179 555.994 482.794 467.095 487.407 457.326C493.905 443.567 527.552 438.868 527.552 438.868H563.86Z" fill="black"/>
<path d="M503.194 551.775L522.336 551.294L521.725 559.247L505.665 559.935L503.194 551.775Z" fill="#30BABA"/>
<path opacity="0.5" d="M503.194 551.775L522.336 551.294L521.725 559.247L505.665 559.935L503.194 551.775Z" fill="white"/>
<path d="M506.492 573.649C505.229 573.801 503.895 573.727 503.411 573.233C503.155 572.941 503.113 572.52 503.304 572.182C503.44 571.881 503.688 571.647 503.994 571.527C505.636 570.854 509.427 572.458 509.593 572.529C509.687 572.569 509.746 572.663 509.739 572.766C509.731 572.867 509.663 572.954 509.568 572.987C508.565 573.298 507.535 573.519 506.492 573.649ZM504.638 571.864C504.482 571.879 504.329 571.918 504.185 571.979C503.989 572.037 503.83 572.183 503.753 572.373C503.61 572.695 503.691 572.832 503.769 572.906C504.321 573.512 506.887 573.22 508.751 572.759C507.447 572.202 506.052 571.9 504.638 571.864Z" fill="#30BABA"/>
<path d="M509.53 572.989C509.498 573.002 509.462 573.003 509.429 572.991C508.148 572.598 505.441 570.684 505.52 569.512C505.512 569.233 505.679 568.872 506.335 568.726C506.813 568.616 507.315 568.707 507.725 568.976C509.148 569.887 509.748 572.6 509.777 572.725C509.795 572.812 509.763 572.9 509.695 572.957C509.644 572.989 509.587 572.999 509.53 572.989ZM506.55 569.164L506.41 569.168C505.981 569.256 505.974 569.436 505.964 569.499C505.984 570.198 507.793 571.732 509.143 572.326C508.885 571.187 508.283 570.153 507.419 569.368C507.162 569.196 506.855 569.125 506.55 569.164Z" fill="#30BABA"/>
<path d="M510.436 571.437L521.535 570.104C521.953 570.053 522.35 570.3 522.491 570.698L525.581 579.498C525.861 580.276 525.456 581.135 524.68 581.416C524.58 581.452 524.476 581.476 524.372 581.491C520.363 581.902 516.779 582.11 511.799 582.716C505.922 583.424 507.497 583.949 500.598 584.878C496.441 585.433 495.111 580.785 496.848 580.34C504.806 578.35 505.353 575.807 508.123 572.536C508.732 571.897 509.555 571.506 510.436 571.437Z" fill="#30BABA"/>
<path d="M477.376 554.562L486.581 576.945L495.546 575.153L489.38 551.203L477.376 554.562Z" fill="#FCC1BB"/>
<path opacity="0.2" d="M493.494 567.18L489.38 551.203L477.376 554.562L483.361 569.113L493.494 567.18Z" fill="black"/>
<path d="M563.86 438.868C563.86 438.868 574.342 466.016 539.692 464.896C526.421 464.466 468.949 477.91 468.949 477.91C468.949 477.91 479.314 483.332 492.31 555.994L477.598 559.338C477.598 559.338 435.897 476.834 440.511 467.065C447.009 453.306 515.392 438.868 515.392 438.868H563.86Z" fill="#30BABA"/>
<path d="M475.795 558.403L493.243 554.667L495.048 561.897L478.322 565.754L475.795 558.403Z" fill="#30BABA"/>
<path opacity="0.5" d="M475.795 558.403L493.243 554.667L495.048 561.897L478.322 565.754L475.795 558.403Z" fill="white"/>
<path d="M481.041 577.969C479.778 578.12 478.444 578.045 477.96 577.552C477.704 577.26 477.662 576.839 477.853 576.501C477.99 576.2 478.237 575.966 478.543 575.846C480.185 575.175 483.975 576.777 484.142 576.848C484.235 576.889 484.295 576.983 484.289 577.085C484.282 577.186 484.214 577.273 484.118 577.306C483.113 577.616 482.084 577.839 481.041 577.969ZM479.187 576.181C479.031 576.197 478.878 576.236 478.734 576.297C478.537 576.355 478.379 576.501 478.302 576.692C478.159 577.013 478.24 577.15 478.318 577.225C478.87 577.831 481.435 577.539 483.3 577.078C481.997 576.521 480.602 576.218 479.187 576.181Z" fill="#30BABA"/>
<path d="M484.079 577.306C484.047 577.319 484.011 577.321 483.978 577.309C482.697 576.916 479.99 575.001 480.069 573.83C480.06 573.551 480.228 573.191 480.884 573.044C481.361 572.934 481.864 573.025 482.274 573.294C483.696 574.203 484.297 576.917 484.326 577.043C484.343 577.13 484.312 577.218 484.244 577.275C484.195 577.306 484.135 577.318 484.079 577.306ZM481.099 573.483L480.959 573.487C480.53 573.576 480.523 573.755 480.512 573.819C480.533 574.517 482.342 576.051 483.692 576.646C483.434 575.506 482.831 574.472 481.968 573.687C481.712 573.515 481.403 573.443 481.099 573.483Z" fill="#30BABA"/>
<path d="M484.985 575.755L496.083 574.42C496.502 574.37 496.899 574.617 497.039 575.014L500.129 583.815C500.41 584.594 500.005 585.452 499.228 585.732C499.129 585.768 499.025 585.793 498.921 585.807C494.912 586.218 491.328 586.426 486.348 587.032C480.471 587.741 482.046 588.266 475.147 589.194C470.99 589.749 469.66 585.102 471.397 584.656C479.355 582.667 479.902 580.123 482.672 576.852C483.281 576.216 484.105 575.826 484.985 575.755Z" fill="#30BABA"/>
<path d="M595.577 561.74C586.751 560.287 573.661 558.231 567.832 557.8C566.552 557.706 564.945 557.635 563.179 557.587V512.251H552.094V557.587C550.326 557.635 548.72 557.705 547.441 557.8C541.612 558.229 528.522 560.287 519.696 561.74C514.612 562.578 510.888 566.979 510.888 572.139V574.429H521.64L523.084 571.207C523.084 571.207 543.292 567.702 550.102 567.199C553.86 566.921 561.416 566.921 565.175 567.199C571.985 567.701 592.192 571.207 592.192 571.207L593.636 574.429H604.388V572.139C604.387 566.979 600.663 562.578 595.577 561.74Z" fill="#263238"/>
<path opacity="0.1" d="M595.577 561.74C586.751 560.287 573.661 558.231 567.832 557.8C566.552 557.706 564.945 557.635 563.179 557.587V512.251H552.094V557.587C550.326 557.635 548.72 557.705 547.441 557.8C541.612 558.229 528.522 560.287 519.696 561.74C514.612 562.578 510.888 566.979 510.888 572.139V574.429H521.64L523.084 571.207C523.084 571.207 543.292 567.702 550.102 567.199C553.86 566.921 561.416 566.921 565.175 567.199C571.985 567.701 592.192 571.207 592.192 571.207L593.636 574.429H604.388V572.139C604.387 566.979 600.663 562.578 595.577 561.74Z" fill="white"/>
<path d="M561.387 518.76H553.887C551.043 518.76 548.737 516.452 548.737 513.603V475.283H566.536V513.603C566.536 516.45 564.23 518.76 561.387 518.76Z" fill="#263238"/>
<path opacity="0.2" d="M566.536 475.281H548.737V485.862H566.536V475.281Z" fill="black"/>
<path d="M599.88 589.614C604.067 589.614 607.461 586.215 607.461 582.022C607.461 577.829 604.067 574.431 599.88 574.431C595.693 574.431 592.299 577.829 592.299 582.022C592.299 586.215 595.693 589.614 599.88 589.614Z" fill="#263238"/>
<path d="M515.393 589.614C519.579 589.614 522.974 586.215 522.974 582.022C522.974 577.829 519.579 574.431 515.393 574.431C511.206 574.431 507.812 577.829 507.812 582.022C507.812 586.215 511.206 589.614 515.393 589.614Z" fill="#263238"/>
<path d="M617.811 466.258C607.192 463.547 596.281 462.054 585.338 461.78C574.062 461.496 531.854 461.738 521.831 461.733C509.631 461.729 497.429 463.234 485.591 466.258C478.15 468.158 480.443 478.912 487.165 479.036C487.759 479.048 615.352 479.009 615.82 479.03C622.851 479.35 625.415 468.2 617.811 466.258Z" fill="#343434"/>
<path opacity="0.3" d="M617.811 466.258C607.192 463.547 596.281 462.054 585.338 461.78C574.062 461.496 531.854 461.738 521.831 461.733C509.631 461.729 497.429 463.234 485.591 466.258C478.15 468.158 480.443 478.912 487.165 479.036C487.759 479.048 615.352 479.009 615.82 479.03C622.851 479.35 625.415 468.2 617.811 466.258Z" fill="black"/>
<path d="M489.046 478.806C510.48 473.333 533.182 473.333 554.615 478.806C562.723 480.877 566.182 468.329 558.071 466.256C534.397 460.211 509.267 460.211 485.592 466.256C477.493 468.326 480.924 480.88 489.046 478.806Z" fill="#343434"/>
<g opacity="0.4">
<path d="M489.046 478.806C510.48 473.333 533.182 473.333 554.615 478.806C562.723 480.877 566.182 468.329 558.071 466.256C534.397 460.211 509.267 460.211 485.592 466.256C477.493 468.326 480.924 480.88 489.046 478.806Z" fill="white"/>
</g>
<path d="M583.685 373.136C582.343 373.11 580.994 373.711 580.096 375.206C562.905 403.833 556.799 438.245 562.729 471.076C563.1 473.134 564.508 474.092 566.069 474.199C568.671 474.377 614.995 474.212 616.676 474.21C619.203 474.204 621.978 472.055 621.385 468.77C615.873 438.261 621.942 406.122 637.878 379.585C639.858 376.286 636.938 373.192 633.985 373.136C632.642 373.11 586.638 373.192 583.685 373.136Z" fill="#343434"/>
<path opacity="0.2" d="M583.685 373.136C582.343 373.11 580.994 373.711 580.096 375.206C562.905 403.833 556.799 438.245 562.729 471.076C563.1 473.134 564.508 474.092 566.069 474.199C568.671 474.377 614.995 474.212 616.676 474.21C619.203 474.204 621.978 472.055 621.385 468.77C615.873 438.261 621.942 406.122 637.878 379.585C639.858 376.286 636.938 373.192 633.985 373.136C632.642 373.11 586.638 373.192 583.685 373.136Z" fill="black"/>
<path d="M571.084 468.77C565.573 438.261 571.642 406.122 587.578 379.585C590.458 374.788 582.97 370.422 580.096 375.206C562.905 403.833 556.799 438.245 562.729 471.076C563.721 476.562 572.072 474.237 571.084 468.77Z" fill="#343434"/>
<g opacity="0.4">
<path d="M571.084 468.77C565.573 438.261 571.642 406.122 587.578 379.585C590.458 374.788 582.97 370.422 580.096 375.206C562.905 403.833 556.799 438.245 562.729 471.076C563.721 476.562 572.072 474.237 571.084 468.77Z" fill="white"/>
</g>
<path d="M514.352 431.047C529.23 444.675 544.111 458.304 558.99 471.931C562.071 474.752 566.678 470.164 563.585 467.33C548.706 453.701 533.825 440.073 518.946 426.444C515.865 423.623 511.257 428.213 514.352 431.047Z" fill="#263238"/>
<g opacity="0.5">
<path d="M514.352 431.047C529.23 444.675 544.111 458.304 558.99 471.931C562.071 474.752 566.678 470.164 563.585 467.33C548.706 453.701 533.825 440.073 518.946 426.444C515.865 423.623 511.257 428.213 514.352 431.047Z" fill="white"/>
</g>
<path opacity="0.2" d="M518.947 426.445C515.866 423.624 511.259 428.212 514.352 431.046C517.198 433.654 520.045 436.261 522.892 438.868H532.51C527.987 434.726 523.466 430.585 518.947 426.445Z" fill="black"/>
<path d="M491.077 433.084C513.899 433.084 529.503 433.084 552.325 433.084C557.901 433.084 557.909 424.408 552.325 424.408C529.503 424.408 513.899 424.408 491.077 424.408C485.503 424.408 485.493 433.084 491.077 433.084Z" fill="#343434"/>
<g opacity="0.3">
<path d="M491.077 433.084C513.899 433.084 529.503 433.084 552.325 433.084C557.901 433.084 557.909 424.408 552.325 424.408C529.503 424.408 513.899 424.408 491.077 424.408C485.503 424.408 485.493 433.084 491.077 433.084Z" fill="white"/>
</g>
<path d="M457.135 272.612L456.136 271.446C455.771 271.019 455.226 270.79 454.684 270.837L448.397 271.375C447.856 271.421 447.389 271.737 447.154 272.215L446.51 273.522C446.275 274 445.808 274.316 445.267 274.362L441.515 274.684C440.62 274.76 440 275.551 440.129 276.449L443.135 297.365C443.265 298.263 444.094 298.93 444.989 298.853L474.722 296.306C475.616 296.23 476.236 295.44 476.108 294.541L473.101 273.625C472.972 272.727 472.143 272.06 471.248 272.137L458.585 273.221C458.045 273.268 457.501 273.039 457.135 272.612Z" fill="#FFA629"/>
<path d="M474.392 273.886L447.152 276.219C446.016 276.316 445.092 277.316 445.086 278.453L445 296.795C444.995 297.932 445.912 298.774 447.047 298.677L474.286 296.344C475.422 296.246 476.347 295.246 476.352 294.11L476.438 275.767C476.443 274.631 475.528 273.788 474.392 273.886Z" fill="#FDDDAF"/>
<path d="M237.694 138.925C237.694 139.07 237.68 139.212 237.651 139.355C237.622 139.496 237.581 139.634 237.525 139.768C237.471 139.903 237.403 140.029 237.323 140.149C237.241 140.27 237.151 140.381 237.048 140.483C236.946 140.586 236.835 140.676 236.714 140.758C236.594 140.838 236.468 140.906 236.333 140.96C236.199 141.017 236.061 141.057 235.92 141.086C235.777 141.115 235.634 141.129 235.49 141.129C235.345 141.129 235.203 141.115 235.06 141.086C234.919 141.057 234.781 141.017 234.647 140.96C234.512 140.906 234.386 140.838 234.266 140.758C234.145 140.676 234.034 140.586 233.932 140.483C233.829 140.381 233.738 140.27 233.657 140.149C233.577 140.029 233.509 139.903 233.454 139.768C233.398 139.634 233.356 139.496 233.329 139.355C233.3 139.212 233.286 139.07 233.286 138.925C233.286 138.78 233.3 138.638 233.329 138.495C233.356 138.354 233.398 138.216 233.454 138.082C233.509 137.947 233.577 137.821 233.657 137.701C233.738 137.58 233.829 137.469 233.932 137.367C234.034 137.264 234.145 137.174 234.266 137.092C234.386 137.012 234.512 136.944 234.647 136.89C234.781 136.833 234.919 136.793 235.06 136.764C235.203 136.735 235.345 136.721 235.49 136.721C235.634 136.721 235.777 136.735 235.92 136.764C236.061 136.793 236.199 136.833 236.333 136.89C236.468 136.944 236.594 137.012 236.714 137.092C236.835 137.174 236.946 137.264 237.048 137.367C237.151 137.469 237.241 137.58 237.323 137.701C237.403 137.821 237.471 137.947 237.525 138.082C237.581 138.216 237.622 138.354 237.651 138.495C237.68 138.638 237.694 138.78 237.694 138.925Z" fill="#5CE1E6"/>
<path d="M228.877 138.925C228.877 139.07 228.864 139.212 228.835 139.355C228.806 139.496 228.765 139.634 228.709 139.768C228.655 139.903 228.587 140.029 228.507 140.149C228.425 140.27 228.335 140.381 228.231 140.483C228.129 140.586 228.019 140.676 227.898 140.758C227.777 140.838 227.651 140.906 227.517 140.96C227.383 141.017 227.245 141.057 227.104 141.086C226.961 141.115 226.818 141.129 226.674 141.129C226.529 141.129 226.386 141.115 226.243 141.086C226.102 141.057 225.964 141.017 225.83 140.96C225.696 140.906 225.57 140.838 225.449 140.758C225.328 140.676 225.218 140.586 225.116 140.483C225.012 140.381 224.922 140.27 224.84 140.149C224.761 140.029 224.692 139.903 224.638 139.768C224.582 139.634 224.539 139.496 224.512 139.355C224.483 139.212 224.47 139.07 224.47 138.925C224.47 138.78 224.483 138.638 224.512 138.495C224.539 138.354 224.582 138.216 224.638 138.082C224.692 137.947 224.761 137.821 224.84 137.701C224.922 137.58 225.012 137.469 225.116 137.367C225.218 137.264 225.328 137.174 225.449 137.092C225.57 137.012 225.696 136.944 225.83 136.89C225.964 136.833 226.102 136.793 226.243 136.764C226.386 136.735 226.529 136.721 226.674 136.721C226.818 136.721 226.961 136.735 227.104 136.764C227.245 136.793 227.383 136.833 227.517 136.89C227.651 136.944 227.777 137.012 227.898 137.092C228.019 137.174 228.129 137.264 228.231 137.367C228.335 137.469 228.425 137.58 228.507 137.701C228.587 137.821 228.655 137.947 228.709 138.082C228.765 138.216 228.806 138.354 228.835 138.495C228.864 138.638 228.877 138.78 228.877 138.925Z" fill="#5CE1E6"/>
<path d="M193.617 136.721C192.404 136.721 191.413 137.713 191.413 138.925C191.413 140.137 192.404 141.129 193.617 141.129H213.451C214.663 141.129 215.655 140.137 215.655 138.925C215.655 137.713 214.663 136.721 213.451 136.721H193.617Z" fill="#5CE1E6"/>
<path d="M213.451 171.981H193.617C192.404 171.981 191.413 172.973 191.413 174.185C191.413 175.398 192.404 176.389 193.617 176.389H213.451C214.663 176.389 215.655 175.398 215.655 174.185C215.655 172.973 214.663 171.981 213.451 171.981Z" fill="#5CE1E6"/>
<path d="M237.694 209.446C237.694 209.591 237.68 209.733 237.651 209.876C237.622 210.017 237.581 210.155 237.525 210.289C237.471 210.424 237.403 210.55 237.323 210.67C237.241 210.791 237.151 210.902 237.048 211.004C236.946 211.107 236.835 211.197 236.714 211.279C236.594 211.359 236.468 211.427 236.333 211.481C236.199 211.538 236.061 211.578 235.92 211.607C235.777 211.636 235.634 211.65 235.49 211.65C235.345 211.65 235.203 211.636 235.06 211.607C234.919 211.578 234.781 211.538 234.647 211.481C234.512 211.427 234.386 211.359 234.266 211.279C234.145 211.197 234.034 211.107 233.932 211.004C233.829 210.902 233.738 210.791 233.657 210.67C233.577 210.55 233.509 210.424 233.454 210.289C233.398 210.155 233.356 210.017 233.329 209.876C233.3 209.733 233.286 209.591 233.286 209.446C233.286 209.301 233.3 209.159 233.329 209.016C233.356 208.875 233.398 208.737 233.454 208.603C233.509 208.468 233.577 208.342 233.657 208.222C233.738 208.101 233.829 207.99 233.932 207.888C234.034 207.785 234.145 207.695 234.266 207.613C234.386 207.533 234.512 207.465 234.647 207.411C234.781 207.354 234.919 207.314 235.06 207.285C235.203 207.256 235.345 207.242 235.49 207.242C235.634 207.242 235.777 207.256 235.92 207.285C236.061 207.314 236.199 207.354 236.333 207.411C236.468 207.465 236.594 207.533 236.714 207.613C236.835 207.695 236.946 207.785 237.048 207.888C237.151 207.99 237.241 208.101 237.323 208.222C237.403 208.342 237.471 208.468 237.525 208.603C237.581 208.737 237.622 208.875 237.651 209.016C237.68 209.159 237.694 209.301 237.694 209.446Z" fill="#5CE1E6"/>
<path d="M228.877 209.446C228.877 209.591 228.864 209.733 228.835 209.876C228.806 210.017 228.765 210.155 228.709 210.289C228.655 210.424 228.587 210.55 228.507 210.67C228.425 210.791 228.335 210.902 228.231 211.004C228.129 211.107 228.019 211.197 227.898 211.279C227.777 211.359 227.651 211.427 227.517 211.481C227.383 211.538 227.245 211.578 227.104 211.607C226.961 211.636 226.818 211.65 226.674 211.65C226.529 211.65 226.386 211.636 226.243 211.607C226.102 211.578 225.964 211.538 225.83 211.481C225.696 211.427 225.57 211.359 225.449 211.279C225.328 211.197 225.218 211.107 225.116 211.004C225.012 210.902 224.922 210.791 224.84 210.67C224.761 210.55 224.692 210.424 224.638 210.289C224.582 210.155 224.539 210.017 224.512 209.876C224.483 209.733 224.47 209.591 224.47 209.446C224.47 209.301 224.483 209.159 224.512 209.016C224.539 208.875 224.582 208.737 224.638 208.603C224.692 208.468 224.761 208.342 224.84 208.222C224.922 208.101 225.012 207.99 225.116 207.888C225.218 207.785 225.328 207.695 225.449 207.613C225.57 207.533 225.696 207.465 225.83 207.411C225.964 207.354 226.102 207.314 226.243 207.285C226.386 207.256 226.529 207.242 226.674 207.242C226.818 207.242 226.961 207.256 227.104 207.285C227.245 207.314 227.383 207.354 227.517 207.411C227.651 207.465 227.777 207.533 227.898 207.613C228.019 207.695 228.129 207.785 228.231 207.888C228.335 207.99 228.425 208.101 228.507 208.222C228.587 208.342 228.655 208.468 228.709 208.603C228.765 208.737 228.806 208.875 228.835 209.016C228.864 209.159 228.877 209.301 228.877 209.446Z" fill="#5CE1E6"/>
<path d="M213.451 207.242H193.617C192.404 207.242 191.413 208.234 191.413 209.446C191.413 210.658 192.404 211.65 193.617 211.65H213.451C214.663 211.65 215.655 210.658 215.655 209.446C215.655 208.234 214.663 207.242 213.451 207.242Z" fill="#5CE1E6"/>
<path d="M272.953 138.925C272.953 139.07 272.94 139.212 272.911 139.355C272.882 139.496 272.841 139.634 272.785 139.768C272.731 139.903 272.663 140.029 272.583 140.149C272.501 140.27 272.411 140.381 272.307 140.483C272.205 140.586 272.095 140.676 271.974 140.758C271.853 140.838 271.727 140.906 271.593 140.96C271.459 141.017 271.321 141.057 271.18 141.086C271.037 141.115 270.894 141.129 270.75 141.129C270.605 141.129 270.462 141.115 270.319 141.086C270.178 141.057 270.041 141.017 269.906 140.96C269.772 140.906 269.646 140.838 269.525 140.758C269.405 140.676 269.294 140.586 269.192 140.483C269.088 140.381 268.998 140.27 268.917 140.149C268.837 140.029 268.769 139.903 268.714 139.768C268.658 139.634 268.616 139.496 268.588 139.355C268.56 139.212 268.546 139.07 268.546 138.925C268.546 138.78 268.56 138.638 268.588 138.495C268.616 138.354 268.658 138.216 268.714 138.082C268.769 137.947 268.837 137.821 268.917 137.701C268.998 137.58 269.088 137.469 269.192 137.367C269.294 137.264 269.405 137.174 269.525 137.092C269.646 137.012 269.772 136.944 269.906 136.89C270.041 136.833 270.178 136.793 270.319 136.764C270.462 136.735 270.605 136.721 270.75 136.721C270.894 136.721 271.037 136.735 271.18 136.764C271.321 136.793 271.459 136.833 271.593 136.89C271.727 136.944 271.853 137.012 271.974 137.092C272.095 137.174 272.205 137.264 272.307 137.367C272.411 137.469 272.501 137.58 272.583 137.701C272.663 137.821 272.731 137.947 272.785 138.082C272.841 138.216 272.882 138.354 272.911 138.495C272.94 138.638 272.953 138.78 272.953 138.925Z" fill="#5CE1E6"/>
<path d="M281.769 138.925C281.769 139.07 281.755 139.212 281.726 139.355C281.698 139.496 281.657 139.634 281.601 139.768C281.546 139.903 281.478 140.029 281.398 140.149C281.317 140.27 281.226 140.381 281.123 140.483C281.021 140.586 280.91 140.676 280.789 140.758C280.669 140.838 280.543 140.906 280.409 140.96C280.274 141.017 280.136 141.057 279.995 141.086C279.853 141.115 279.71 141.129 279.565 141.129C279.421 141.129 279.278 141.115 279.135 141.086C278.994 141.057 278.856 141.017 278.722 140.96C278.587 140.906 278.462 140.838 278.341 140.758C278.22 140.676 278.11 140.586 278.008 140.483C277.904 140.381 277.814 140.27 277.732 140.149C277.652 140.029 277.584 139.903 277.53 139.768C277.474 139.634 277.431 139.496 277.404 139.355C277.375 139.212 277.361 139.07 277.361 138.925C277.361 138.78 277.375 138.638 277.404 138.495C277.431 138.354 277.474 138.216 277.53 138.082C277.584 137.947 277.652 137.821 277.732 137.701C277.814 137.58 277.904 137.469 278.008 137.367C278.11 137.264 278.22 137.174 278.341 137.092C278.462 137.012 278.587 136.944 278.722 136.89C278.856 136.833 278.994 136.793 279.135 136.764C279.278 136.735 279.421 136.721 279.565 136.721C279.71 136.721 279.853 136.735 279.995 136.764C280.136 136.793 280.274 136.833 280.409 136.89C280.543 136.944 280.669 137.012 280.789 137.092C280.91 137.174 281.021 137.264 281.123 137.367C281.226 137.469 281.317 137.58 281.398 137.701C281.478 137.821 281.546 137.947 281.601 138.082C281.657 138.216 281.698 138.354 281.726 138.495C281.755 138.638 281.769 138.78 281.769 138.925Z" fill="#5CE1E6"/>
<path d="M312.623 136.721H292.789C291.576 136.721 290.585 137.713 290.585 138.925C290.585 140.137 291.576 141.129 292.789 141.129H312.623C313.835 141.129 314.827 140.137 314.827 138.925C314.827 137.713 313.835 136.721 312.623 136.721Z" fill="#5CE1E6"/>
<path d="M272.953 209.446C272.953 209.591 272.94 209.733 272.911 209.876C272.882 210.017 272.841 210.155 272.785 210.289C272.731 210.424 272.663 210.55 272.583 210.67C272.501 210.791 272.411 210.902 272.307 211.004C272.205 211.107 272.095 211.197 271.974 211.279C271.853 211.359 271.727 211.427 271.593 211.481C271.459 211.538 271.321 211.578 271.18 211.607C271.037 211.636 270.894 211.65 270.75 211.65C270.605 211.65 270.462 211.636 270.319 211.607C270.178 211.578 270.041 211.538 269.906 211.481C269.772 211.427 269.646 211.359 269.525 211.279C269.405 211.197 269.294 211.107 269.192 211.004C269.088 210.902 268.998 210.791 268.917 210.67C268.837 210.55 268.769 210.424 268.714 210.289C268.658 210.155 268.616 210.017 268.588 209.876C268.56 209.733 268.546 209.591 268.546 209.446C268.546 209.301 268.56 209.159 268.588 209.016C268.616 208.875 268.658 208.737 268.714 208.603C268.769 208.468 268.837 208.342 268.917 208.222C268.998 208.101 269.088 207.99 269.192 207.888C269.294 207.785 269.405 207.695 269.525 207.613C269.646 207.533 269.772 207.465 269.906 207.411C270.041 207.354 270.178 207.314 270.319 207.285C270.462 207.256 270.605 207.242 270.75 207.242C270.894 207.242 271.037 207.256 271.18 207.285C271.321 207.314 271.459 207.354 271.593 207.411C271.727 207.465 271.853 207.533 271.974 207.613C272.095 207.695 272.205 207.785 272.307 207.888C272.411 207.99 272.501 208.101 272.583 208.222C272.663 208.342 272.731 208.468 272.785 208.603C272.841 208.737 272.882 208.875 272.911 209.016C272.94 209.159 272.953 209.301 272.953 209.446Z" fill="#5CE1E6"/>
<path d="M281.769 209.446C281.769 209.591 281.755 209.733 281.726 209.876C281.698 210.017 281.657 210.155 281.601 210.289C281.546 210.424 281.478 210.55 281.398 210.67C281.317 210.791 281.226 210.902 281.123 211.004C281.021 211.107 280.91 211.197 280.789 211.279C280.669 211.359 280.543 211.427 280.409 211.481C280.274 211.538 280.136 211.578 279.995 211.607C279.853 211.636 279.71 211.65 279.565 211.65C279.421 211.65 279.278 211.636 279.135 211.607C278.994 211.578 278.856 211.538 278.722 211.481C278.587 211.427 278.462 211.359 278.341 211.279C278.22 211.197 278.11 211.107 278.008 211.004C277.904 210.902 277.814 210.791 277.732 210.67C277.652 210.55 277.584 210.424 277.53 210.289C277.474 210.155 277.431 210.017 277.404 209.876C277.375 209.733 277.361 209.591 277.361 209.446C277.361 209.301 277.375 209.159 277.404 209.016C277.431 208.875 277.474 208.737 277.53 208.603C277.584 208.468 277.652 208.342 277.732 208.222C277.814 208.101 277.904 207.99 278.008 207.888C278.11 207.785 278.22 207.695 278.341 207.613C278.462 207.533 278.587 207.465 278.722 207.411C278.856 207.354 278.994 207.314 279.135 207.285C279.278 207.256 279.421 207.242 279.565 207.242C279.71 207.242 279.853 207.256 279.995 207.285C280.136 207.314 280.274 207.354 280.409 207.411C280.543 207.465 280.669 207.533 280.789 207.613C280.91 207.695 281.021 207.785 281.123 207.888C281.226 207.99 281.317 208.101 281.398 208.222C281.478 208.342 281.546 208.468 281.601 208.603C281.657 208.737 281.698 208.875 281.726 209.016C281.755 209.159 281.769 209.301 281.769 209.446Z" fill="#5CE1E6"/>
<path d="M312.623 211.65C313.835 211.65 314.827 210.658 314.827 209.446C314.827 208.234 313.835 207.242 312.623 207.242H292.789C291.576 207.242 290.585 208.234 290.585 209.446C290.585 210.658 291.576 211.65 292.789 211.65H312.623Z" fill="#5CE1E6"/>
<path d="M189.21 189.612H210.587C210.367 188.4 210.146 187.078 210.146 185.755C210.146 185.534 210.146 185.425 210.146 185.204H189.21C187.998 185.204 187.006 184.213 187.006 183.001V165.37C187.006 164.158 187.998 163.166 189.21 163.166H219.623C219.953 161.624 220.393 160.191 220.944 158.759H189.21C185.574 158.759 182.599 161.735 182.599 165.37V183.001C182.599 186.636 185.574 189.612 189.21 189.612Z" fill="#5CE1E6"/>
<mask id="mask0_873_2506" style="mask-type:luminance" maskUnits="userSpaceOnUse" x="182" y="123" width="65" height="32">
<path d="M182.598 123.498H246.589V154.596H182.598V123.498Z" fill="white"/>
</mask>
<g mask="url(#mask0_873_2506)">
<path d="M189.209 154.351H223.368C224.47 152.698 225.793 151.267 227.335 149.944H189.209C187.997 149.944 187.005 148.952 187.005 147.74V130.109C187.005 128.897 187.997 127.906 189.209 127.906H239.896C241.109 127.906 242.1 128.897 242.1 130.109V144.434C243.642 144.434 245.076 144.655 246.508 144.875V130.109C246.508 126.474 243.532 123.498 239.896 123.498H189.209C185.573 123.498 182.598 126.474 182.598 130.109V147.74C182.598 151.375 185.573 154.351 189.209 154.351Z" fill="#5CE1E6"/>
</g>
<path d="M223.589 168.014C223.589 169.556 223.809 170.99 224.14 172.532C218.52 174.185 214.664 179.473 214.664 185.755C214.553 193.358 220.503 199.529 227.886 199.529H278.353C285.736 199.529 291.686 193.358 291.686 185.755C291.686 178.152 285.736 171.981 278.353 171.981H277.912C277.251 163.717 270.529 157.216 262.486 157.216C260.833 157.216 259.18 157.435 257.638 157.986C254.332 152.368 248.382 148.952 241.99 148.952C231.854 148.841 223.589 157.435 223.589 168.014ZM254.662 161.624C255.213 162.725 256.536 163.276 257.638 162.725C259.18 161.953 260.722 161.624 262.486 161.624C268.657 161.624 273.615 166.912 273.615 173.304C273.615 174.295 273.505 175.397 273.064 176.278C272.073 178.922 276.149 180.575 277.14 177.931C277.361 177.38 277.472 176.829 277.582 176.389C279.455 176.389 281.328 176.719 282.871 177.712C284.083 178.482 285.075 179.584 285.847 180.796C286.727 182.339 287.168 183.991 287.168 185.755C287.168 190.934 283.201 195.121 278.242 195.121H227.886C222.928 195.121 218.961 190.934 218.961 185.755C218.961 181.017 222.266 177.05 226.674 176.389C228.216 176.168 229.539 175.066 228.878 173.413C228.216 171.651 227.886 169.888 227.886 168.014C227.997 159.86 234.277 153.249 241.99 153.249C247.389 153.249 252.348 156.554 254.662 161.624Z" fill="#5CE1E6"/>
<path d="M234.389 167.574C234.389 168.786 235.38 169.778 236.592 169.778C237.805 169.778 238.796 168.786 238.796 167.574C238.796 165.149 240.779 163.166 243.204 163.166C244.416 163.166 245.408 162.175 245.408 160.963C245.408 159.75 244.416 158.759 243.204 158.759C238.356 158.759 234.389 162.726 234.389 167.574Z" fill="#5CE1E6"/>
<path d="M312.622 176.389C313.834 176.389 314.826 175.398 314.826 174.185C314.826 172.973 313.834 171.981 312.622 171.981H292.788C292.016 171.981 291.356 172.311 291.024 172.973C292.016 173.964 292.898 175.177 293.669 176.389H312.622Z" fill="#5CE1E6"/>
<path d="M317.031 158.759H276.591C277.914 160.082 279.016 161.514 279.897 163.166H317.031C318.244 163.166 319.235 164.158 319.235 165.37V183.001C319.235 184.213 318.244 185.204 317.031 185.204H296.095C296.095 185.425 296.095 185.534 296.095 185.755C296.095 187.078 295.985 188.4 295.655 189.612H317.031C320.667 189.612 323.643 186.636 323.643 183.001V165.37C323.643 161.735 320.667 158.759 317.031 158.759Z" fill="#5CE1E6"/>
<mask id="mask1_873_2506" style="mask-type:luminance" maskUnits="userSpaceOnUse" x="259" y="193" width="65" height="33">
<path d="M259.648 193.774H323.64V225.036H259.648V193.774Z" fill="white"/>
</mask>
<g mask="url(#mask1_873_2506)">
<path d="M317.03 194.02H294.111C293.339 195.672 292.237 197.104 291.025 198.427H317.03C318.243 198.427 319.234 199.418 319.234 200.631V218.261C319.234 219.474 318.243 220.465 317.03 220.465H266.343C265.13 220.465 264.139 219.474 264.139 218.261V203.937H259.731V218.261C259.731 221.897 262.707 224.873 266.343 224.873H317.03C320.666 224.873 323.642 221.897 323.642 218.261V200.631C323.642 196.995 320.666 194.02 317.03 194.02Z" fill="#5CE1E6"/>
</g>
<mask id="mask2_873_2506" style="mask-type:luminance" maskUnits="userSpaceOnUse" x="182" y="193" width="65" height="33">
<path d="M182.598 193.774H246.589V225.035H182.598V193.774Z" fill="white"/>
</mask>
<g mask="url(#mask2_873_2506)">
<path d="M242.1 218.262C242.1 219.474 241.109 220.466 239.896 220.466H189.209C187.997 220.466 187.005 219.474 187.005 218.262V200.631C187.005 199.419 187.997 198.428 189.209 198.428H215.214C214.002 197.105 212.9 195.673 212.128 194.02H189.209C185.573 194.02 182.598 196.996 182.598 200.631V218.262C182.598 221.897 185.573 224.873 189.209 224.873H239.896C243.532 224.873 246.508 221.897 246.508 218.262V203.937H242.1V218.262Z" fill="#5CE1E6"/>
</g>
<mask id="mask3_873_2506" style="mask-type:luminance" maskUnits="userSpaceOnUse" x="259" y="123" width="65" height="32">
<path d="M259.648 123.498H323.64V154.596H259.648V123.498Z" fill="white"/>
</mask>
<g mask="url(#mask3_873_2506)">
<path d="M317.03 123.498H266.343C262.707 123.498 259.731 126.474 259.731 130.109V147.74C259.731 149.723 260.612 151.486 262.046 152.698C262.156 152.698 262.376 152.698 262.486 152.698C265.241 152.698 267.885 153.249 270.199 154.351H317.03C320.666 154.351 323.642 151.375 323.642 147.74V130.109C323.642 126.474 320.666 123.498 317.03 123.498ZM319.234 147.74C319.234 148.952 318.243 149.944 317.03 149.944H266.343C265.13 149.944 264.139 148.952 264.139 147.74V130.109C264.139 128.897 265.13 127.906 266.343 127.906H317.03C318.243 127.906 319.234 128.897 319.234 130.109V147.74Z" fill="#5CE1E6"/>
</g>
</g>
<defs>
<clipPath id="clip0_873_2506">
<rect width="722" height="723" fill="white" transform="translate(0.419922 0.5)"/>
</clipPath>
</defs>
</svg>
