<svg width="498" height="464" viewBox="0 0 498 464" fill="none" xmlns="http://www.w3.org/2000/svg">
<g clip-path="url(#clip0_856_7463)">
<path d="M69.8577 122.86C66.8106 128.424 64.0819 134.192 61.6875 140.13C42.1426 188.47 46.1551 234.38 57.4209 282.93C69.0407 333.06 91.0094 386.86 129.282 419.15C138.288 426.75 148.455 433 159.666 436.15C201.879 448.02 254.286 429.9 307.302 439.63C360.317 449.36 414.712 437.39 445.578 382.76C458.641 359.64 466.793 335.14 471.677 308.93C477.696 276.66 491.067 244.04 491.712 210.44C492.384 175.13 479.711 136.04 458.85 109.61C435.065 79.4401 396.656 76.0501 364.439 61.2501C339.02 49.5701 317.006 30.7301 291.324 19.7501C251.98 2.94012 201.452 2.31012 164.532 28.9601C128.683 54.7901 91.89 82.6601 69.8577 122.86Z" fill="#263238"/>
<path opacity="0.7" d="M69.8577 122.86C66.8106 128.424 64.0819 134.192 61.6875 140.13C42.1426 188.47 46.1551 234.38 57.4209 282.93C69.0407 333.06 91.0094 386.86 129.282 419.15C138.288 426.75 148.455 433 159.666 436.15C201.879 448.02 254.286 429.9 307.302 439.63C360.317 449.36 414.712 437.39 445.578 382.76C458.641 359.64 466.793 335.14 471.677 308.93C477.696 276.66 491.067 244.04 491.712 210.44C492.384 175.13 479.711 136.04 458.85 109.61C435.065 79.4401 396.656 76.0501 364.439 61.2501C339.02 49.5701 317.006 30.7301 291.324 19.7501C251.98 2.94012 201.452 2.31012 164.532 28.9601C128.683 54.7901 91.89 82.6601 69.8577 122.86Z" fill="#263238" fill-opacity="0.5"/>
<path d="M0 306.71H488.52" stroke="#263238" stroke-miterlimit="10"/>
<path d="M0 463.31H488.52" stroke="#263238" stroke-miterlimit="10"/>
<path d="M442.23 56.2803V289.28C442.23 290.697 441.668 292.055 440.666 293.056C439.665 294.058 438.306 294.62 436.89 294.62H429.41" stroke="#263238" stroke-width="3" stroke-miterlimit="10"/>
<path d="M434.46 288.4H426.15V300.86H434.46V288.4Z" fill="white" stroke="#263238" stroke-miterlimit="10"/>
<path d="M427.64 37.4399H336.64" stroke="#263238" stroke-width="3" stroke-miterlimit="10"/>
<path d="M432.47 100.5H366.63" stroke="#263238" stroke-width="3" stroke-miterlimit="10"/>
<path d="M432.47 158.43H366.63" stroke="#263238" stroke-width="3" stroke-miterlimit="10"/>
<path d="M432.47 219.43H366.63" stroke="#263238" stroke-width="3" stroke-miterlimit="10"/>
<path d="M461.81 12.6001H422.02C418.794 12.6001 416.18 15.2148 416.18 18.4401V57.1901C416.18 60.4154 418.794 63.0301 422.02 63.0301H461.81C465.035 63.0301 467.65 60.4154 467.65 57.1901V18.4401C467.65 15.2148 465.035 12.6001 461.81 12.6001Z" fill="#52CEC7" stroke="#263238" stroke-miterlimit="10"/>
<path d="M434.84 24.2202C434.84 25.3163 434.515 26.3878 433.905 27.2991C433.296 28.2103 432.43 28.9204 431.418 29.3394C430.405 29.7584 429.29 29.8676 428.215 29.653C427.14 29.4384 426.153 28.9098 425.379 28.134C424.604 27.3582 424.078 26.3702 423.865 25.2948C423.652 24.2195 423.764 23.1053 424.184 22.0932C424.605 21.0811 425.317 20.2165 426.229 19.609C427.142 19.0014 428.214 18.6782 429.31 18.6802C430.037 18.6802 430.757 18.8236 431.428 19.1021C432.1 19.3806 432.71 19.7889 433.224 20.3034C433.737 20.818 434.144 21.4288 434.422 22.1009C434.699 22.773 434.841 23.4931 434.84 24.2202Z" fill="white" stroke="#263238" stroke-miterlimit="10"/>
<path d="M461.81 72.9199H422.02C418.794 72.9199 416.18 75.5346 416.18 78.7599V117.51C416.18 120.735 418.794 123.35 422.02 123.35H461.81C465.035 123.35 467.65 120.735 467.65 117.51V78.7599C467.65 75.5346 465.035 72.9199 461.81 72.9199Z" fill="#52CEC7" stroke="#263238" stroke-miterlimit="10"/>
<path d="M444.577 98.3271L458.2 98.5147C458.096 105.775 451.978 111.692 444.577 111.692C444.55 111.692 444.523 111.692 444.497 111.691L444.577 98.3271Z" fill="#455A64"/>
<path d="M442.356 96.3737L442.165 109.737C434.764 109.635 428.732 103.634 428.732 96.3737C428.732 89.042 434.883 83.0093 442.357 83.0093C449.831 83.0093 455.981 89.042 455.981 96.3737H442.356Z" fill="white"/>
<path d="M461.81 194.76H422.02C418.794 194.76 416.18 197.375 416.18 200.6V239.35C416.18 242.576 418.794 245.19 422.02 245.19H461.81C465.035 245.19 467.65 242.576 467.65 239.35V200.6C467.65 197.375 465.035 194.76 461.81 194.76Z" fill="#52CEC7" stroke="#263238" stroke-miterlimit="10"/>
<path d="M461.81 133.3H422.02C418.794 133.3 416.18 135.915 416.18 139.14V177.89C416.18 181.116 418.794 183.73 422.02 183.73H461.81C465.035 183.73 467.65 181.116 467.65 177.89V139.14C467.65 135.915 465.035 133.3 461.81 133.3Z" fill="#52CEC7" stroke="#263238" stroke-miterlimit="10"/>
<path d="M366.6 37.6102C366.6 36.7835 366.355 35.9753 365.896 35.2879C365.436 34.6005 364.784 34.0647 364.02 33.7484C363.256 33.432 362.416 33.3492 361.605 33.5105C360.794 33.6718 360.049 34.0699 359.465 34.6545C358.88 35.2391 358.482 35.9839 358.321 36.7947C358.159 37.6055 358.242 38.446 358.558 39.2098C358.875 39.9736 359.411 40.6264 360.098 41.0857C360.785 41.545 361.594 41.7902 362.42 41.7902C363.529 41.7902 364.592 41.3498 365.376 40.5659C366.16 39.782 366.6 38.7188 366.6 37.6102Z" fill="#52CEC7" stroke="#263238" stroke-miterlimit="10"/>
<path d="M388.65 37.6102C388.65 36.7835 388.405 35.9753 387.946 35.2879C387.486 34.6005 386.833 34.0647 386.07 33.7484C385.306 33.432 384.465 33.3492 383.655 33.5105C382.844 33.6718 382.099 34.0699 381.514 34.6545C380.93 35.2391 380.532 35.9839 380.37 36.7947C380.209 37.6055 380.292 38.446 380.608 39.2098C380.925 39.9736 381.46 40.6264 382.148 41.0857C382.835 41.545 383.643 41.7902 384.47 41.7902C385.579 41.7902 386.642 41.3498 387.426 40.5659C388.21 39.782 388.65 38.7188 388.65 37.6102Z" fill="#52CEC7" stroke="#263238" stroke-miterlimit="10"/>
<path d="M410.73 37.6102C410.73 36.7835 410.485 35.9753 410.026 35.2879C409.566 34.6005 408.914 34.0647 408.15 33.7484C407.386 33.432 406.545 33.3492 405.735 33.5105C404.924 33.6718 404.179 34.0699 403.594 34.6545C403.01 35.2391 402.612 35.9839 402.45 36.7947C402.289 37.6055 402.372 38.446 402.688 39.2098C403.005 39.9736 403.54 40.6264 404.228 41.0857C404.915 41.545 405.723 41.7902 406.55 41.7902C407.659 41.7902 408.722 41.3498 409.506 40.5659C410.29 39.782 410.73 38.7188 410.73 37.6102Z" fill="#52CEC7" stroke="#263238" stroke-miterlimit="10"/>
<path d="M383.82 100.08C383.82 99.2532 383.575 98.445 383.116 97.7576C382.656 97.0702 382.003 96.5345 381.24 96.2181C380.476 95.9017 379.635 95.8189 378.824 95.9802C378.014 96.1415 377.269 96.5396 376.684 97.1242C376.1 97.7088 375.702 98.4536 375.54 99.2644C375.379 100.075 375.462 100.916 375.778 101.68C376.095 102.443 376.63 103.096 377.318 103.555C378.005 104.015 378.813 104.26 379.64 104.26C380.749 104.26 381.812 103.82 382.596 103.036C383.38 102.252 383.82 101.189 383.82 100.08Z" fill="#52CEC7" stroke="#263238" stroke-miterlimit="10"/>
<path d="M386.31 219.65C386.304 218.825 386.054 218.019 385.591 217.336C385.128 216.653 384.473 216.121 383.709 215.81C382.945 215.498 382.105 215.419 381.296 215.584C380.488 215.749 379.746 216.149 379.164 216.735C378.582 217.321 378.187 218.065 378.028 218.875C377.869 219.685 377.954 220.524 378.271 221.286C378.588 222.049 379.124 222.7 379.811 223.158C380.498 223.616 381.305 223.86 382.13 223.86C382.682 223.86 383.228 223.751 383.737 223.539C384.246 223.327 384.708 223.016 385.096 222.625C385.485 222.234 385.792 221.769 386.001 221.259C386.209 220.748 386.314 220.201 386.31 219.65Z" fill="#52CEC7" stroke="#263238" stroke-miterlimit="10"/>
<path d="M406.27 100.08C406.27 99.2532 406.025 98.445 405.566 97.7576C405.106 97.0702 404.454 96.5345 403.69 96.2181C402.926 95.9017 402.086 95.8189 401.275 95.9802C400.464 96.1415 399.719 96.5396 399.134 97.1242C398.55 97.7088 398.152 98.4536 397.99 99.2644C397.829 100.075 397.912 100.916 398.228 101.68C398.545 102.443 399.08 103.096 399.768 103.555C400.455 104.015 401.263 104.26 402.09 104.26C403.199 104.26 404.262 103.82 405.046 103.036C405.83 102.252 406.27 101.189 406.27 100.08Z" fill="#52CEC7" stroke="#263238" stroke-miterlimit="10"/>
<path d="M408.73 219.65C408.73 218.823 408.485 218.015 408.026 217.328C407.566 216.641 406.914 216.105 406.15 215.788C405.386 215.472 404.545 215.389 403.735 215.551C402.924 215.712 402.179 216.11 401.594 216.695C401.01 217.279 400.612 218.024 400.45 218.835C400.289 219.646 400.372 220.486 400.688 221.25C401.005 222.014 401.54 222.666 402.228 223.126C402.915 223.585 403.723 223.83 404.55 223.83C405.659 223.83 406.722 223.39 407.506 222.606C408.29 221.822 408.73 220.759 408.73 219.65Z" fill="#52CEC7" stroke="#263238" stroke-miterlimit="10"/>
<path d="M390.47 157.86C390.47 157.033 390.225 156.225 389.766 155.538C389.307 154.851 388.654 154.315 387.89 153.998C387.126 153.682 386.286 153.599 385.475 153.76C384.664 153.922 383.919 154.32 383.335 154.904C382.75 155.489 382.352 156.234 382.191 157.045C382.029 157.856 382.112 158.696 382.429 159.46C382.745 160.224 383.281 160.876 383.968 161.336C384.655 161.795 385.464 162.04 386.29 162.04C387.399 162.04 388.462 161.6 389.246 160.816C390.03 160.032 390.47 158.969 390.47 157.86Z" fill="#52CEC7" stroke="#263238" stroke-miterlimit="10"/>
<path d="M412.92 157.86C412.917 157.035 412.668 156.229 412.207 155.544C411.746 154.86 411.092 154.327 410.329 154.014C409.565 153.7 408.726 153.62 407.917 153.782C407.107 153.945 406.364 154.344 405.781 154.928C405.198 155.512 404.801 156.256 404.641 157.066C404.48 157.876 404.562 158.715 404.878 159.477C405.193 160.24 405.727 160.893 406.413 161.352C407.099 161.812 407.905 162.058 408.73 162.06C409.282 162.062 409.828 161.954 410.338 161.743C410.847 161.532 411.31 161.223 411.7 160.832C412.089 160.442 412.398 159.978 412.607 159.468C412.817 158.958 412.923 158.412 412.92 157.86Z" fill="#52CEC7" stroke="#263238" stroke-miterlimit="10"/>
<path d="M344.31 30.8999H336V43.3599H344.31V30.8999Z" fill="white" stroke="#263238" stroke-miterlimit="10"/>
<path d="M370.78 94.4502H362.47V106.91H370.78V94.4502Z" fill="white" stroke="#263238" stroke-miterlimit="10"/>
<path d="M370.78 151.82H362.47V164.28H370.78V151.82Z" fill="white" stroke="#263238" stroke-miterlimit="10"/>
<path d="M370.78 213.42H362.47V225.88H370.78V213.42Z" fill="white" stroke="#263238" stroke-miterlimit="10"/>
<path d="M131.63 8.97998H68.63C63.0354 8.97998 58.5 13.5153 58.5 19.11V96.29C58.5 101.885 63.0354 106.42 68.63 106.42H131.63C137.225 106.42 141.76 101.885 141.76 96.29V19.11C141.76 13.5153 137.225 8.97998 131.63 8.97998Z" fill="#CDCDCD" stroke="#263238" stroke-linecap="round" stroke-linejoin="round"/>
<path d="M150.6 143.11H116.97C115.607 143.11 114.299 142.569 113.336 141.605C112.372 140.641 111.83 139.333 111.83 137.97V102.72" stroke="#263238" stroke-width="3" stroke-miterlimit="10"/>
<path d="M154.76 136.88H146.45V149.34H154.76V136.88Z" fill="white" stroke="#263238" stroke-miterlimit="10"/>
<path d="M111.83 107.34C114.382 107.34 116.45 105.272 116.45 102.72C116.45 100.169 114.382 98.1001 111.83 98.1001C109.278 98.1001 107.21 100.169 107.21 102.72C107.21 105.272 109.278 107.34 111.83 107.34Z" fill="#CDCDCD" stroke="#263238" stroke-miterlimit="10"/>
<path d="M111.93 118.56H93.2504C91.8871 118.56 90.5798 118.019 89.6158 117.055C88.6519 116.091 88.1104 114.783 88.1104 113.42V102.72" stroke="#263238" stroke-width="3" stroke-miterlimit="10"/>
<path d="M88.1102 107.34C90.6618 107.34 92.7302 105.272 92.7302 102.72C92.7302 100.169 90.6618 98.1001 88.1102 98.1001C85.5587 98.1001 83.4902 100.169 83.4902 102.72C83.4902 105.272 85.5587 107.34 88.1102 107.34Z" fill="#CDCDCD" stroke="#263238" stroke-miterlimit="10"/>
<path d="M80.3896 47.1301C80.3992 44.0838 81.141 41.0844 82.5527 38.3849C83.9643 35.6854 86.0044 33.365 88.5008 31.6191C90.9972 29.8733 93.8768 28.7534 96.8968 28.3537C99.9168 27.954 102.989 28.2864 105.853 29.3227C108.718 30.359 111.291 32.069 113.357 34.3084C115.422 36.5477 116.918 39.2508 117.72 42.1898C118.522 45.1288 118.605 48.2174 117.962 51.1952C117.32 54.1731 115.971 56.9528 114.03 59.3001C111.224 62.6689 109.692 66.9162 109.7 71.3001V73.8601H89.1296V71.2701C89.1429 66.887 87.6136 62.639 84.8096 59.2701C81.9568 55.8678 80.3921 51.5702 80.3896 47.1301Z" fill="#52CEC7" stroke="#263238" stroke-linecap="round" stroke-linejoin="round"/>
<path d="M89.1302 78.9702H109.7V73.8802H89.1302V78.9702Z" fill="#263238" stroke="#263238" stroke-miterlimit="10"/>
<path d="M107.19 84.0701H91.6402C91.3081 84.0741 90.9784 84.0121 90.6704 83.8877C90.3624 83.7634 90.0822 83.5791 89.8459 83.3457C89.6097 83.1122 89.4221 82.8341 89.2941 82.5276C89.1661 82.2211 89.1002 81.8923 89.1002 81.5601V78.9801H109.7V81.5601C109.7 82.2258 109.436 82.8642 108.965 83.335C108.494 83.8057 107.856 84.0701 107.19 84.0701Z" fill="#263238" stroke="#263238" stroke-miterlimit="10"/>
<path d="M104.59 89.1499H94.2296C93.5639 89.1499 92.9255 88.8855 92.4548 88.4147C91.9841 87.944 91.7196 87.3056 91.7196 86.6399V84.0599H107.1V86.6399C107.1 87.3056 106.835 87.944 106.364 88.4147C105.894 88.8855 105.255 89.1499 104.59 89.1499Z" fill="#263238" stroke="#263238" stroke-miterlimit="10"/>
<path d="M77.6897 47.23H68.9697" stroke="#263238" stroke-linecap="round" stroke-linejoin="round"/>
<path d="M130.67 47.23H121.84" stroke="#263238" stroke-linecap="round" stroke-linejoin="round"/>
<path d="M99.8203 25.1199V16.3799" stroke="#263238" stroke-linecap="round" stroke-linejoin="round"/>
<path d="M84.0298 31.4299L78.0098 25.4199" stroke="#263238" stroke-linecap="round" stroke-linejoin="round"/>
<path d="M121.64 69.0399L115.53 62.9399" stroke="#263238" stroke-linecap="round" stroke-linejoin="round"/>
<path d="M115.79 31.2599L121.64 25.4199" stroke="#263238" stroke-linecap="round" stroke-linejoin="round"/>
<path d="M78.0098 69.04L83.8298 63.23" stroke="#263238" stroke-linecap="round" stroke-linejoin="round"/>
<path d="M259.66 0.5C288.086 0.5 315.348 11.7921 335.448 31.8923C355.548 51.9924 366.84 79.2541 366.84 107.68V241.56H152.48V107.68C152.48 79.2541 163.773 51.9924 183.873 31.8923C203.973 11.7921 231.235 0.5 259.66 0.5Z" fill="#D5D5D5" stroke="#263238" stroke-linecap="round" stroke-linejoin="round"/>
<path d="M259.6 45.7198C255.06 42.9798 245.6 34.3598 244.12 33.7198C242.36 32.9598 224.37 37.1898 224.37 37.1898L208.53 49.7698L195.92 53.7098L184.52 70.7098L184.77 78.5098L172.2 102.65L172.9 127.8L168.37 145.15L173.46 160.49L182.76 172.31L184.02 189.42L197.1 200.23L212.18 198.97L221.49 216.58L243.37 222.36L259.6 214.47V45.7198Z" fill="#52CEC7" stroke="#263238" stroke-miterlimit="10"/>
<path d="M216.71 55.3498L224.25 57.6198L243.37 50.0698L258.88 61.4798" stroke="#263238" stroke-miterlimit="10"/>
<path d="M224.25 57.62L228.78 46.3L238.59 41.77" stroke="#263238" stroke-miterlimit="10"/>
<path d="M185.45 85.7999L191.24 75.4899L228.53 74.9699L243.78 64.8999" stroke="#263238" stroke-miterlimit="10"/>
<path d="M208.16 75.4702L193.32 105.9" stroke="#263238" stroke-miterlimit="10"/>
<path d="M259.21 96.5398L243.78 82.2598L230.65 92.2898" stroke="#263238" stroke-miterlimit="10"/>
<path d="M252.261 117.38L238.371 106.96L209.431 127.8L187.051 117.38" stroke="#263238" stroke-miterlimit="10"/>
<path d="M209.43 127.8L193.61 138.6L178.94 128.57" stroke="#263238" stroke-miterlimit="10"/>
<path d="M229.88 144.39L243.78 135.51L259.14 148.02" stroke="#263238" stroke-miterlimit="10"/>
<path d="M188.591 168.32L211.751 155.97L206.341 143.23L222.551 133.97" stroke="#263238" stroke-miterlimit="10"/>
<path d="M213.681 194.94L242.231 177.96L237.601 163.69L248.021 155.97L259.661 167.42" stroke="#263238" stroke-miterlimit="10"/>
<path d="M228.341 185.68L223.321 172.18L196.311 187.61" stroke="#263238" stroke-miterlimit="10"/>
<path d="M259.6 214.45L246.09 196.87L231.04 208.45" stroke="#263238" stroke-miterlimit="10"/>
<path d="M202.87 87.6602L216.76 91.9102L206.73 112.36" stroke="#263238" stroke-miterlimit="10"/>
<path d="M181.65 128.57C181.652 128.033 181.495 127.508 181.198 127.061C180.901 126.614 180.478 126.265 179.982 126.058C179.487 125.852 178.941 125.797 178.414 125.902C177.888 126.006 177.404 126.264 177.024 126.644C176.645 127.023 176.386 127.507 176.282 128.034C176.178 128.56 176.232 129.106 176.439 129.602C176.645 130.097 176.994 130.521 177.441 130.818C177.888 131.115 178.414 131.272 178.95 131.27C179.667 131.27 180.353 130.986 180.86 130.479C181.366 129.973 181.65 129.286 181.65 128.57Z" fill="#263238" stroke="#263238" stroke-miterlimit="10"/>
<path d="M189.73 117.38C189.73 116.846 189.572 116.324 189.275 115.88C188.978 115.436 188.557 115.09 188.063 114.886C187.57 114.681 187.027 114.628 186.503 114.732C185.98 114.836 185.498 115.093 185.121 115.471C184.743 115.849 184.486 116.33 184.382 116.853C184.278 117.377 184.331 117.92 184.536 118.413C184.74 118.907 185.086 119.328 185.53 119.625C185.974 119.922 186.496 120.08 187.03 120.08C187.746 120.08 188.433 119.796 188.939 119.289C189.446 118.783 189.73 118.096 189.73 117.38Z" fill="#263238" stroke="#263238" stroke-miterlimit="10"/>
<path d="M191.291 168.32C191.291 167.786 191.132 167.264 190.836 166.82C190.539 166.376 190.117 166.03 189.624 165.826C189.131 165.621 188.588 165.568 188.064 165.672C187.54 165.776 187.059 166.033 186.681 166.411C186.304 166.789 186.047 167.27 185.943 167.793C185.838 168.317 185.892 168.86 186.096 169.353C186.301 169.847 186.647 170.268 187.091 170.565C187.535 170.862 188.057 171.02 188.591 171.02C189.307 171.02 189.993 170.736 190.5 170.229C191.006 169.723 191.291 169.036 191.291 168.32Z" fill="#263238" stroke="#263238" stroke-miterlimit="10"/>
<path d="M225.251 133.97C225.251 133.436 225.092 132.914 224.796 132.47C224.499 132.026 224.077 131.68 223.584 131.476C223.09 131.271 222.548 131.218 222.024 131.322C221.5 131.426 221.019 131.683 220.641 132.061C220.264 132.438 220.007 132.92 219.902 133.443C219.798 133.967 219.852 134.51 220.056 135.003C220.26 135.497 220.607 135.918 221.051 136.215C221.495 136.512 222.017 136.67 222.551 136.67C223.267 136.67 223.953 136.386 224.46 135.879C224.966 135.373 225.251 134.686 225.251 133.97Z" fill="#263238" stroke="#263238" stroke-miterlimit="10"/>
<path d="M232.581 144.39C232.581 143.856 232.422 143.334 232.126 142.89C231.829 142.446 231.407 142.1 230.914 141.895C230.421 141.691 229.878 141.638 229.354 141.742C228.83 141.846 228.349 142.103 227.971 142.481C227.594 142.858 227.337 143.339 227.233 143.863C227.128 144.387 227.182 144.93 227.386 145.423C227.591 145.917 227.937 146.338 228.381 146.635C228.825 146.932 229.347 147.09 229.881 147.09C230.597 147.09 231.284 146.805 231.79 146.299C232.296 145.793 232.581 145.106 232.581 144.39Z" fill="#263238" stroke="#263238" stroke-miterlimit="10"/>
<path d="M241.07 106.96C241.07 106.426 240.912 105.904 240.615 105.46C240.318 105.016 239.897 104.67 239.403 104.465C238.91 104.261 238.367 104.207 237.843 104.312C237.319 104.416 236.838 104.673 236.461 105.051C236.083 105.428 235.826 105.909 235.722 106.433C235.618 106.957 235.671 107.5 235.875 107.993C236.08 108.486 236.426 108.908 236.87 109.205C237.314 109.501 237.836 109.66 238.37 109.66C238.724 109.66 239.076 109.59 239.403 109.454C239.731 109.319 240.028 109.12 240.279 108.869C240.53 108.618 240.729 108.321 240.864 107.993C241 107.665 241.07 107.314 241.07 106.96Z" fill="#263238" stroke="#263238" stroke-miterlimit="10"/>
<path d="M254.971 117.38C254.973 116.843 254.815 116.318 254.518 115.871C254.221 115.424 253.798 115.075 253.302 114.868C252.807 114.662 252.261 114.607 251.735 114.712C251.208 114.816 250.724 115.074 250.345 115.454C249.965 115.833 249.707 116.317 249.602 116.844C249.498 117.371 249.553 117.916 249.759 118.412C249.965 118.907 250.314 119.331 250.761 119.628C251.209 119.925 251.734 120.082 252.271 120.08C252.987 120.08 253.674 119.796 254.18 119.289C254.686 118.783 254.971 118.096 254.971 117.38Z" fill="#263238" stroke="#263238" stroke-miterlimit="10"/>
<path d="M230.65 94.9898C232.141 94.9898 233.35 93.781 233.35 92.2898C233.35 90.7987 232.141 89.5898 230.65 89.5898C229.159 89.5898 227.95 90.7987 227.95 92.2898C227.95 93.781 229.159 94.9898 230.65 94.9898Z" fill="#263238" stroke="#263238" stroke-miterlimit="10"/>
<path d="M209.82 112.75C209.822 112.213 209.665 111.688 209.368 111.24C209.071 110.793 208.648 110.444 208.152 110.238C207.656 110.032 207.111 109.977 206.584 110.081C206.058 110.186 205.574 110.444 205.194 110.824C204.815 111.203 204.556 111.687 204.452 112.214C204.348 112.74 204.402 113.286 204.609 113.781C204.815 114.277 205.164 114.7 205.611 114.997C206.058 115.294 206.584 115.452 207.12 115.45C207.475 115.45 207.826 115.38 208.154 115.244C208.481 115.109 208.779 114.91 209.03 114.659C209.28 114.408 209.479 114.111 209.615 113.783C209.751 113.455 209.82 113.104 209.82 112.75Z" fill="#263238" stroke="#263238" stroke-miterlimit="10"/>
<path d="M193.221 110.43C194.712 110.43 195.921 109.221 195.921 107.73C195.921 106.239 194.712 105.03 193.221 105.03C191.729 105.03 190.521 106.239 190.521 107.73C190.521 109.221 191.729 110.43 193.221 110.43Z" fill="#263238" stroke="#263238" stroke-miterlimit="10"/>
<path d="M188.98 86.8602C188.98 86.3261 188.822 85.8041 188.525 85.3601C188.228 84.9161 187.807 84.57 187.313 84.3657C186.82 84.1613 186.277 84.1079 185.753 84.212C185.23 84.3162 184.748 84.5734 184.371 84.951C183.993 85.3286 183.736 85.8097 183.632 86.3334C183.528 86.8572 183.581 87.4 183.786 87.8934C183.99 88.3868 184.336 88.8084 184.78 89.1051C185.224 89.4018 185.746 89.5602 186.28 89.5602C186.996 89.5602 187.683 89.2757 188.189 88.7693C188.696 88.263 188.98 87.5762 188.98 86.8602Z" fill="#263238" stroke="#263238" stroke-miterlimit="10"/>
<path d="M246.86 65.6702C246.86 65.1362 246.702 64.6142 246.405 64.1702C246.108 63.7262 245.687 63.3801 245.193 63.1757C244.7 62.9714 244.157 62.9179 243.633 63.0221C243.109 63.1263 242.628 63.3834 242.251 63.761C241.873 64.1386 241.616 64.6197 241.512 65.1435C241.408 65.6672 241.461 66.2101 241.665 66.7035C241.87 67.1968 242.216 67.6185 242.66 67.9152C243.104 68.2119 243.626 68.3702 244.16 68.3702C244.515 68.3702 244.866 68.3004 245.193 68.1647C245.521 68.029 245.818 67.8301 246.069 67.5794C246.32 67.3287 246.519 67.031 246.654 66.7035C246.79 66.3759 246.86 66.0248 246.86 65.6702Z" fill="#263238" stroke="#263238" stroke-miterlimit="10"/>
<path d="M216.73 53.7098C216.73 53.1758 216.572 52.6537 216.275 52.2097C215.978 51.7657 215.557 51.4196 215.063 51.2153C214.57 51.0109 214.027 50.9575 213.503 51.0616C212.98 51.1658 212.498 51.423 212.121 51.8006C211.743 52.1782 211.486 52.6593 211.382 53.183C211.278 53.7068 211.331 54.2496 211.536 54.743C211.74 55.2364 212.086 55.6581 212.53 55.9547C212.974 56.2514 213.496 56.4098 214.03 56.4098C214.746 56.4098 215.433 56.1253 215.939 55.619C216.446 55.1126 216.73 54.4258 216.73 53.7098Z" fill="#263238" stroke="#263238" stroke-miterlimit="10"/>
<path d="M241.291 44.4698C242.782 44.4698 243.991 43.261 243.991 41.7698C243.991 40.2787 242.782 39.0698 241.291 39.0698C239.8 39.0698 238.591 40.2787 238.591 41.7698C238.591 43.261 239.8 44.4698 241.291 44.4698Z" fill="#263238" stroke="#263238" stroke-miterlimit="10"/>
<path d="M217.15 194.56C217.15 194.026 216.992 193.504 216.695 193.06C216.398 192.616 215.977 192.27 215.483 192.065C214.99 191.861 214.447 191.808 213.923 191.912C213.4 192.016 212.918 192.273 212.541 192.651C212.163 193.028 211.906 193.509 211.802 194.033C211.698 194.557 211.751 195.1 211.956 195.593C212.16 196.086 212.506 196.508 212.95 196.805C213.394 197.102 213.916 197.26 214.45 197.26C215.166 197.26 215.853 196.975 216.359 196.469C216.866 195.963 217.15 195.276 217.15 194.56Z" fill="#263238" stroke="#263238" stroke-miterlimit="10"/>
<path d="M199.01 187.61C199.01 187.076 198.852 186.554 198.555 186.11C198.259 185.666 197.837 185.32 197.344 185.116C196.85 184.911 196.307 184.858 195.784 184.962C195.26 185.066 194.779 185.323 194.401 185.701C194.024 186.079 193.766 186.56 193.662 187.083C193.558 187.607 193.612 188.15 193.816 188.643C194.02 189.137 194.366 189.558 194.81 189.855C195.254 190.152 195.776 190.31 196.31 190.31C197.026 190.31 197.713 190.026 198.22 189.519C198.726 189.013 199.01 188.326 199.01 187.61Z" fill="#263238" stroke="#263238" stroke-miterlimit="10"/>
<path d="M233.73 208.45C233.73 207.916 233.572 207.394 233.275 206.95C232.978 206.506 232.557 206.16 232.063 205.956C231.57 205.751 231.027 205.698 230.503 205.802C229.98 205.906 229.498 206.163 229.121 206.541C228.743 206.918 228.486 207.4 228.382 207.923C228.278 208.447 228.331 208.99 228.536 209.483C228.74 209.977 229.086 210.398 229.53 210.695C229.974 210.992 230.496 211.15 231.03 211.15C231.746 211.15 232.433 210.866 232.939 210.359C233.446 209.853 233.73 209.166 233.73 208.45Z" fill="#263238" stroke="#263238" stroke-miterlimit="10"/>
<path d="M259.73 45.7198C264.27 42.9798 273.73 34.3598 275.21 33.7198C276.97 32.9598 294.96 37.1898 294.96 37.1898L310.8 49.7598L323.4 53.6998L334.81 70.6998L334.56 78.4998L347.13 102.64L346.43 127.79L350.96 145.14L345.87 160.48L336.57 172.3L335.31 189.41L322.23 200.21L307.15 198.95L297.84 216.56L275.96 222.34L259.73 214.45V45.7198Z" fill="#52CEC7" stroke="#263238" stroke-miterlimit="10"/>
<path d="M302.62 55.3498L295.07 57.6198L275.96 50.0698L260.45 61.4798" stroke="#263238" stroke-miterlimit="10"/>
<path d="M295.07 57.62L290.55 46.3L280.74 41.77" stroke="#263238" stroke-miterlimit="10"/>
<path d="M333.881 85.7999L328.091 75.4899L290.801 74.9699L275.551 64.8999" stroke="#263238" stroke-miterlimit="10"/>
<path d="M311.17 75.4702L326.01 105.9" stroke="#263238" stroke-miterlimit="10"/>
<path d="M260.12 96.5398L275.55 82.2598L288.67 92.2898" stroke="#263238" stroke-miterlimit="10"/>
<path d="M267.061 117.38L280.951 106.96L309.901 127.8L332.281 117.38" stroke="#263238" stroke-miterlimit="10"/>
<path d="M309.9 127.8L325.72 138.6L340.38 128.57" stroke="#263238" stroke-miterlimit="10"/>
<path d="M289.44 144.39L275.55 135.51L260.19 148.02" stroke="#263238" stroke-miterlimit="10"/>
<path d="M330.74 168.32L307.58 155.97L312.98 143.23L296.78 133.97" stroke="#263238" stroke-miterlimit="10"/>
<path d="M305.65 194.94L277.1 177.96L281.73 163.69L271.31 155.97L259.66 167.42" stroke="#263238" stroke-miterlimit="10"/>
<path d="M290.99 185.68L296 172.18L323.02 187.61" stroke="#263238" stroke-miterlimit="10"/>
<path d="M259.73 214.45L273.24 196.87L288.29 208.45" stroke="#263238" stroke-miterlimit="10"/>
<path d="M316.461 87.6602L302.561 91.9102L312.601 112.36" stroke="#263238" stroke-miterlimit="10"/>
<path d="M337.73 128.57C337.729 128.033 337.886 127.508 338.183 127.061C338.48 126.614 338.903 126.265 339.399 126.058C339.894 125.852 340.44 125.797 340.967 125.902C341.493 126.006 341.977 126.264 342.357 126.644C342.736 127.023 342.995 127.507 343.099 128.034C343.203 128.56 343.149 129.106 342.942 129.602C342.736 130.097 342.387 130.521 341.94 130.818C341.493 131.115 340.967 131.272 340.43 131.27C339.714 131.27 339.028 130.986 338.521 130.479C338.015 129.973 337.73 129.286 337.73 128.57Z" fill="#263238" stroke="#263238" stroke-miterlimit="10"/>
<path d="M329.58 117.38C329.58 116.846 329.738 116.324 330.035 115.88C330.332 115.436 330.753 115.09 331.247 114.886C331.74 114.681 332.283 114.628 332.807 114.732C333.331 114.836 333.812 115.093 334.189 115.471C334.567 115.849 334.824 116.33 334.928 116.853C335.032 117.377 334.979 117.92 334.775 118.413C334.57 118.907 334.224 119.328 333.78 119.625C333.336 119.922 332.814 120.08 332.28 120.08C331.564 120.08 330.877 119.796 330.371 119.289C329.865 118.783 329.58 118.096 329.58 117.38Z" fill="#263238" stroke="#263238" stroke-miterlimit="10"/>
<path d="M328.04 168.32C328.04 167.786 328.198 167.264 328.495 166.82C328.792 166.376 329.213 166.03 329.707 165.826C330.2 165.621 330.743 165.568 331.267 165.672C331.791 165.776 332.272 166.033 332.649 166.411C333.027 166.789 333.284 167.27 333.388 167.793C333.492 168.317 333.439 168.86 333.235 169.353C333.03 169.847 332.684 170.268 332.24 170.565C331.796 170.862 331.274 171.02 330.74 171.02C330.024 171.02 329.337 170.736 328.831 170.229C328.324 169.723 328.04 169.036 328.04 168.32Z" fill="#263238" stroke="#263238" stroke-miterlimit="10"/>
<path d="M294.08 133.97C294.08 133.436 294.238 132.914 294.535 132.47C294.832 132.026 295.253 131.68 295.747 131.476C296.24 131.271 296.783 131.218 297.307 131.322C297.831 131.426 298.312 131.683 298.689 132.061C299.067 132.438 299.324 132.92 299.428 133.443C299.532 133.967 299.479 134.51 299.275 135.003C299.07 135.497 298.724 135.918 298.28 136.215C297.836 136.512 297.314 136.67 296.78 136.67C296.064 136.67 295.377 136.386 294.871 135.879C294.365 135.373 294.08 134.686 294.08 133.97Z" fill="#263238" stroke="#263238" stroke-miterlimit="10"/>
<path d="M286.73 144.39C286.729 143.854 286.886 143.329 287.182 142.882C287.479 142.435 287.901 142.086 288.396 141.879C288.891 141.672 289.437 141.617 289.963 141.721C290.489 141.824 290.973 142.082 291.353 142.46C291.733 142.839 291.992 143.322 292.098 143.848C292.203 144.373 292.15 144.919 291.945 145.415C291.74 145.91 291.393 146.334 290.947 146.633C290.501 146.931 289.977 147.09 289.44 147.09C289.085 147.091 288.733 147.022 288.404 146.887C288.075 146.752 287.777 146.554 287.525 146.303C287.273 146.052 287.073 145.754 286.937 145.425C286.801 145.097 286.73 144.745 286.73 144.39Z" fill="#263238" stroke="#263238" stroke-miterlimit="10"/>
<path d="M278.25 106.96C278.248 106.424 278.405 105.899 278.702 105.452C278.998 105.005 279.421 104.656 279.916 104.449C280.411 104.243 280.956 104.188 281.483 104.291C282.009 104.395 282.493 104.652 282.873 105.03C283.253 105.409 283.512 105.892 283.617 106.418C283.723 106.944 283.669 107.489 283.465 107.985C283.26 108.481 282.913 108.905 282.467 109.203C282.021 109.501 281.496 109.66 280.96 109.66C280.605 109.662 280.252 109.593 279.924 109.458C279.595 109.322 279.296 109.124 279.044 108.873C278.793 108.622 278.593 108.324 278.457 107.996C278.32 107.668 278.25 107.316 278.25 106.96Z" fill="#263238" stroke="#263238" stroke-miterlimit="10"/>
<path d="M264.36 117.38C264.358 116.843 264.516 116.318 264.813 115.871C265.11 115.424 265.533 115.075 266.029 114.868C266.524 114.662 267.07 114.607 267.597 114.712C268.123 114.816 268.607 115.074 268.987 115.454C269.366 115.833 269.625 116.317 269.729 116.844C269.833 117.371 269.778 117.916 269.572 118.412C269.366 118.907 269.017 119.331 268.57 119.628C268.123 119.925 267.597 120.082 267.06 120.08C266.344 120.08 265.658 119.796 265.151 119.289C264.645 118.783 264.36 118.096 264.36 117.38Z" fill="#263238" stroke="#263238" stroke-miterlimit="10"/>
<path d="M288.671 94.9898C290.162 94.9898 291.371 93.781 291.371 92.2898C291.371 90.7987 290.162 89.5898 288.671 89.5898C287.18 89.5898 285.971 90.7987 285.971 92.2898C285.971 93.781 287.18 94.9898 288.671 94.9898Z" fill="#263238" stroke="#263238" stroke-miterlimit="10"/>
<path d="M309.511 112.75C309.511 112.216 309.669 111.694 309.966 111.25C310.262 110.806 310.684 110.46 311.177 110.255C311.671 110.051 312.214 109.998 312.737 110.102C313.261 110.206 313.742 110.463 314.12 110.841C314.498 111.218 314.755 111.699 314.859 112.223C314.963 112.747 314.91 113.29 314.705 113.783C314.501 114.276 314.155 114.698 313.711 114.995C313.267 115.291 312.745 115.45 312.211 115.45C311.495 115.45 310.808 115.165 310.302 114.659C309.795 114.153 309.511 113.466 309.511 112.75Z" fill="#263238" stroke="#263238" stroke-miterlimit="10"/>
<path d="M326.1 110.43C327.592 110.43 328.8 109.221 328.8 107.73C328.8 106.239 327.592 105.03 326.1 105.03C324.609 105.03 323.4 106.239 323.4 107.73C323.4 109.221 324.609 110.43 326.1 110.43Z" fill="#263238" stroke="#263238" stroke-miterlimit="10"/>
<path d="M330.351 86.8602C330.351 86.3261 330.509 85.8041 330.806 85.3601C331.102 84.9161 331.524 84.57 332.017 84.3657C332.511 84.1613 333.054 84.1079 333.577 84.212C334.101 84.3162 334.582 84.5734 334.96 84.951C335.337 85.3286 335.595 85.8097 335.699 86.3334C335.803 86.8572 335.749 87.4 335.545 87.8934C335.341 88.3868 334.995 88.8084 334.551 89.1051C334.107 89.4018 333.585 89.5602 333.051 89.5602C332.335 89.5602 331.648 89.2757 331.141 88.7693C330.635 88.263 330.351 87.5762 330.351 86.8602Z" fill="#263238" stroke="#263238" stroke-miterlimit="10"/>
<path d="M272.471 65.6702C272.471 65.1362 272.629 64.6142 272.926 64.1702C273.222 63.7262 273.644 63.3801 274.137 63.1757C274.631 62.9714 275.174 62.9179 275.697 63.0221C276.221 63.1263 276.702 63.3834 277.08 63.761C277.457 64.1386 277.715 64.6197 277.819 65.1435C277.923 65.6672 277.87 66.2101 277.665 66.7035C277.461 67.1968 277.115 67.6185 276.671 67.9152C276.227 68.2119 275.705 68.3702 275.171 68.3702C274.816 68.3702 274.465 68.3004 274.137 68.1647C273.81 68.029 273.512 67.8301 273.262 67.5794C273.011 67.3287 272.812 67.031 272.676 66.7035C272.541 66.3759 272.471 66.0248 272.471 65.6702Z" fill="#263238" stroke="#263238" stroke-miterlimit="10"/>
<path d="M305.27 56.4C306.761 56.4 307.97 55.1912 307.97 53.7C307.97 52.2088 306.761 51 305.27 51C303.779 51 302.57 52.2088 302.57 53.7C302.57 55.1912 303.779 56.4 305.27 56.4Z" fill="#263238" stroke="#263238" stroke-miterlimit="10"/>
<path d="M275.34 41.7701C275.342 41.2365 275.502 40.7155 275.8 40.2728C276.098 39.8301 276.52 39.4856 277.014 39.2827C277.507 39.0799 278.05 39.0279 278.573 39.1332C279.096 39.2385 279.576 39.4964 279.953 39.8744C280.329 40.2524 280.585 40.7335 280.689 41.257C280.792 41.7805 280.738 42.3228 280.533 42.8156C280.329 43.3084 279.983 43.7295 279.539 44.0257C279.095 44.322 278.573 44.4801 278.04 44.4801C277.684 44.4801 277.333 44.4099 277.004 44.2736C276.676 44.1373 276.378 43.9375 276.127 43.6857C275.876 43.434 275.678 43.1351 275.543 42.8064C275.407 42.4777 275.339 42.1255 275.34 41.7701Z" fill="#263238" stroke="#263238" stroke-miterlimit="10"/>
<path d="M304.881 197.26C306.372 197.26 307.581 196.051 307.581 194.56C307.581 193.069 306.372 191.86 304.881 191.86C303.39 191.86 302.181 193.069 302.181 194.56C302.181 196.051 303.39 197.26 304.881 197.26Z" fill="#263238" stroke="#263238" stroke-miterlimit="10"/>
<path d="M320.32 187.61C320.32 187.076 320.479 186.554 320.775 186.11C321.072 185.666 321.494 185.32 321.987 185.116C322.48 184.911 323.023 184.858 323.547 184.962C324.071 185.066 324.552 185.323 324.93 185.701C325.307 186.079 325.564 186.56 325.668 187.083C325.773 187.607 325.719 188.15 325.515 188.643C325.31 189.137 324.964 189.558 324.52 189.855C324.076 190.152 323.554 190.31 323.02 190.31C322.304 190.31 321.617 190.026 321.111 189.519C320.605 189.013 320.32 188.326 320.32 187.61Z" fill="#263238" stroke="#263238" stroke-miterlimit="10"/>
<path d="M285.591 208.45C285.591 207.916 285.749 207.394 286.046 206.95C286.343 206.506 286.764 206.16 287.258 205.956C287.751 205.751 288.294 205.698 288.818 205.802C289.341 205.906 289.822 206.163 290.2 206.541C290.578 206.918 290.835 207.4 290.939 207.923C291.043 208.447 290.99 208.99 290.785 209.483C290.581 209.977 290.235 210.398 289.791 210.695C289.347 210.992 288.825 211.15 288.291 211.15C287.575 211.15 286.888 210.866 286.382 210.359C285.875 209.853 285.591 209.166 285.591 208.45Z" fill="#263238" stroke="#263238" stroke-miterlimit="10"/>
<path d="M150.16 240.71H369.16C371.229 240.71 373.213 241.532 374.676 242.995C376.139 244.457 376.96 246.441 376.96 248.51V306.65H142.36V248.51C142.36 246.441 143.182 244.457 144.645 242.995C146.108 241.532 148.092 240.71 150.16 240.71Z" fill="#52CEC7" stroke="#263238" stroke-linecap="round" stroke-linejoin="round"/>
<path d="M206.651 294.64H168.651C167.288 294.64 165.98 294.098 165.016 293.135C164.052 292.171 163.511 290.863 163.511 289.5V254.25" stroke="#263238" stroke-width="3" stroke-miterlimit="10"/>
<path d="M214.35 288.4H206.04V300.86H214.35V288.4Z" fill="white" stroke="#263238" stroke-miterlimit="10"/>
<path d="M163.48 258.87C166.032 258.87 168.1 256.801 168.1 254.25C168.1 251.698 166.032 249.63 163.48 249.63C160.929 249.63 158.86 251.698 158.86 254.25C158.86 256.801 160.929 258.87 163.48 258.87Z" fill="white" stroke="#263238" stroke-miterlimit="10"/>
<path d="M183.31 258.87C185.862 258.87 187.93 256.801 187.93 254.25C187.93 251.698 185.862 249.63 183.31 249.63C180.759 249.63 178.69 251.698 178.69 254.25C178.69 256.801 180.759 258.87 183.31 258.87Z" fill="white" stroke="#263238" stroke-miterlimit="10"/>
<path d="M203.131 258.87C205.682 258.87 207.751 256.801 207.751 254.25C207.751 251.698 205.682 249.63 203.131 249.63C200.579 249.63 198.511 251.698 198.511 254.25C198.511 256.801 200.579 258.87 203.131 258.87Z" fill="white" stroke="#263238" stroke-miterlimit="10"/>
<path d="M164.62 272.33H180.14C180.981 272.33 181.787 271.996 182.382 271.401C182.976 270.807 183.31 270.001 183.31 269.16V258.86" stroke="#263238" stroke-width="3" stroke-miterlimit="10"/>
<path d="M183.67 265.36H200.18C200.596 265.361 201.008 265.28 201.392 265.122C201.777 264.964 202.126 264.731 202.421 264.438C202.715 264.144 202.949 263.796 203.108 263.411C203.268 263.027 203.35 262.616 203.35 262.2V258.86" stroke="#263238" stroke-width="3" stroke-miterlimit="10"/>
<path d="M344.02 294.64H310.38C309.017 294.64 307.71 294.098 306.746 293.135C305.782 292.171 305.24 290.863 305.24 289.5V254.25" stroke="#263238" stroke-width="3" stroke-miterlimit="10"/>
<path d="M348.17 288.4H339.86V300.86H348.17V288.4Z" fill="white" stroke="#263238" stroke-miterlimit="10"/>
<path d="M305.24 258.87C307.792 258.87 309.86 256.801 309.86 254.25C309.86 251.698 307.792 249.63 305.24 249.63C302.689 249.63 300.62 251.698 300.62 254.25C300.62 256.801 302.689 258.87 305.24 258.87Z" fill="white" stroke="#263238" stroke-miterlimit="10"/>
<path d="M305.34 270.08H286.66C285.297 270.08 283.99 269.538 283.026 268.575C282.062 267.611 281.521 266.303 281.521 264.94V254.25" stroke="#263238" stroke-width="3" stroke-miterlimit="10"/>
<path d="M286.14 254.25C286.14 253.336 285.869 252.443 285.362 251.683C284.854 250.923 284.133 250.331 283.288 249.982C282.444 249.632 281.515 249.54 280.619 249.719C279.723 249.897 278.9 250.337 278.254 250.983C277.607 251.629 277.167 252.452 276.989 253.349C276.811 254.245 276.902 255.174 277.252 256.018C277.602 256.862 278.194 257.584 278.954 258.091C279.713 258.599 280.607 258.87 281.52 258.87C282.746 258.87 283.921 258.383 284.787 257.517C285.654 256.65 286.14 255.475 286.14 254.25Z" fill="white" stroke="#263238" stroke-miterlimit="10"/>
<path d="M353.42 213.43C353.42 214.815 353.009 216.168 352.24 217.319C351.471 218.47 350.378 219.368 349.099 219.897C347.82 220.427 346.412 220.566 345.054 220.296C343.696 220.026 342.449 219.359 341.47 218.38C340.491 217.401 339.825 216.154 339.554 214.796C339.284 213.438 339.423 212.03 339.953 210.751C340.483 209.472 341.38 208.379 342.531 207.61C343.682 206.841 345.035 206.43 346.42 206.43C348.276 206.43 350.057 207.168 351.37 208.48C352.682 209.793 353.42 211.574 353.42 213.43Z" fill="white" stroke="#263238" stroke-linecap="round" stroke-linejoin="round"/>
<path d="M354.05 186.14C354.05 186.516 353.939 186.883 353.73 187.196C353.521 187.508 353.224 187.752 352.877 187.896C352.53 188.039 352.148 188.077 351.779 188.004C351.411 187.93 351.072 187.749 350.806 187.484C350.541 187.218 350.36 186.879 350.287 186.511C350.213 186.142 350.251 185.76 350.395 185.413C350.538 185.066 350.782 184.769 351.094 184.56C351.407 184.352 351.774 184.24 352.15 184.24C352.653 184.243 353.135 184.444 353.491 184.8C353.846 185.155 354.047 185.637 354.05 186.14Z" fill="white" stroke="#263238" stroke-linecap="round" stroke-linejoin="round"/>
<path d="M180.851 218.5C182.601 218.5 184.021 217.081 184.021 215.33C184.021 213.579 182.601 212.16 180.851 212.16C179.1 212.16 177.681 213.579 177.681 215.33C177.681 217.081 179.1 218.5 180.851 218.5Z" fill="white" stroke="#263238" stroke-linecap="round" stroke-linejoin="round"/>
<path d="M165.94 188.05C167.868 188.05 169.43 186.487 169.43 184.56C169.43 182.632 167.868 181.07 165.94 181.07C164.013 181.07 162.45 182.632 162.45 184.56C162.45 186.487 164.013 188.05 165.94 188.05Z" fill="white" stroke="#263238" stroke-linecap="round" stroke-linejoin="round"/>
<path d="M177.67 74.4801C177.67 74.8559 177.559 75.2232 177.35 75.5357C177.141 75.8481 176.844 76.0916 176.497 76.2355C176.15 76.3793 175.768 76.4169 175.399 76.3436C175.031 76.2703 174.692 76.0893 174.427 75.8236C174.161 75.5579 173.98 75.2193 173.907 74.8507C173.833 74.4822 173.871 74.1002 174.015 73.753C174.159 73.4058 174.402 73.1091 174.715 72.9003C175.027 72.6915 175.394 72.5801 175.77 72.5801C176.274 72.5801 176.757 72.7803 177.114 73.1366C177.47 73.4929 177.67 73.9762 177.67 74.4801Z" fill="white" stroke="#263238" stroke-linecap="round" stroke-linejoin="round"/>
<path d="M251.271 18.6499C251.271 19.7793 250.936 20.8832 250.308 21.8222C249.681 22.7613 248.789 23.4931 247.746 23.9253C246.702 24.3575 245.554 24.4705 244.447 24.2502C243.339 24.0299 242.322 23.4861 241.523 22.6875C240.724 21.889 240.181 20.8715 239.96 19.7639C239.74 18.6563 239.853 17.5082 240.285 16.4648C240.717 15.4215 241.449 14.5297 242.388 13.9023C243.327 13.2748 244.431 12.9399 245.561 12.9399C247.075 12.9399 248.527 13.5415 249.598 14.6124C250.669 15.6832 251.271 17.1356 251.271 18.6499Z" fill="white" stroke="#263238" stroke-linecap="round" stroke-linejoin="round"/>
<path d="M283.63 22.7702C283.63 23.0846 283.537 23.3921 283.362 23.6535C283.188 23.915 282.939 24.1188 282.649 24.2391C282.358 24.3595 282.038 24.391 281.73 24.3296C281.422 24.2683 281.138 24.1168 280.916 23.8945C280.694 23.6721 280.542 23.3888 280.481 23.0804C280.419 22.7719 280.451 22.4522 280.571 22.1617C280.692 21.8712 280.895 21.6229 281.157 21.4481C281.418 21.2734 281.726 21.1802 282.04 21.1802C282.462 21.1802 282.866 21.3477 283.164 21.6459C283.463 21.9441 283.63 22.3485 283.63 22.7702Z" fill="white" stroke="#263238" stroke-linecap="round" stroke-linejoin="round"/>
<path d="M323.53 250.26H319.23V258.43H323.53V250.26Z" fill="#52CEC7" stroke="#263238" stroke-miterlimit="10"/>
<path d="M329.981 250.26H325.681V258.43H329.981V250.26Z" fill="#52CEC7" stroke="#263238" stroke-miterlimit="10"/>
<path d="M336.43 250.26H332.13V258.43H336.43V250.26Z" fill="#52CEC7" stroke="#263238" stroke-miterlimit="10"/>
<path d="M342.891 250.26H338.591V258.43H342.891V250.26Z" fill="#52CEC7" stroke="#263238" stroke-miterlimit="10"/>
<path d="M349.34 250.26H345.04V258.43H349.34V250.26Z" fill="white" stroke="#263238" stroke-miterlimit="10"/>
<path d="M355.79 250.26H351.49V258.43H355.79V250.26Z" fill="white" stroke="#263238" stroke-miterlimit="10"/>
<path d="M333.293 70.3869C341.533 64.5723 341.831 50.816 333.96 39.6613C326.088 28.5066 313.027 24.1776 304.787 29.9922C296.548 35.8068 296.249 49.5632 304.121 60.7178C311.993 71.8725 325.054 76.2015 333.293 70.3869Z" fill="white" stroke="#263238" stroke-linecap="round" stroke-linejoin="round"/>
<path d="M311.25 76.8601C315.73 83.2101 315.56 91.0402 310.87 94.3402C306.18 97.6402 298.75 95.1902 294.27 88.8402C289.79 82.4902 289.96 74.6601 294.65 71.3501C299.34 68.0401 306.73 70.5201 311.25 76.8601Z" fill="white" stroke="#263238" stroke-linecap="round" stroke-linejoin="round"/>
<path d="M428.16 276.24H347.92V339.81H428.16V276.24Z" fill="#263238" stroke="#263238" stroke-linecap="round" stroke-linejoin="round"/>
<path d="M395.98 339.76H380.11V355.68H395.98V339.76Z" fill="#263238" stroke="#263238" stroke-linecap="round" stroke-linejoin="round"/>
<path d="M408.93 353.11H367.17V355.68H408.93V353.11Z" fill="#263238" stroke="#263238" stroke-linecap="round" stroke-linejoin="round"/>
<path d="M421.63 281.42H354.46V334.63H421.63V281.42Z" fill="#DEDEDE" stroke="#263238" stroke-miterlimit="10"/>
<path d="M388.05 330.82C400.642 330.82 410.85 320.612 410.85 308.02C410.85 295.428 400.642 285.22 388.05 285.22C375.458 285.22 365.25 295.428 365.25 308.02C365.25 320.612 375.458 330.82 388.05 330.82Z" fill="#DEDEDE" stroke="#263238" stroke-miterlimit="10"/>
<path d="M388.05 330.82C395.92 330.82 402.3 320.612 402.3 308.02C402.3 295.428 395.92 285.22 388.05 285.22C380.18 285.22 373.8 295.428 373.8 308.02C373.8 320.612 380.18 330.82 388.05 330.82Z" fill="#DEDEDE" stroke="#263238" stroke-miterlimit="10"/>
<path d="M369.42 295.26H406.94" stroke="#263238" stroke-miterlimit="10"/>
<path d="M369.42 320.85H406.94" stroke="#263238" stroke-miterlimit="10"/>
<path d="M365.521 308.02H410.841" stroke="#263238" stroke-miterlimit="10"/>
<path d="M388.05 285.23V330.82" stroke="#263238" stroke-miterlimit="10"/>
<path d="M294.28 276.24H214.04V339.81H294.28V276.24Z" fill="#263238" stroke="#263238" stroke-linecap="round" stroke-linejoin="round"/>
<path d="M262.1 339.76H246.23V355.68H262.1V339.76Z" fill="#263238" stroke="#263238" stroke-linecap="round" stroke-linejoin="round"/>
<path d="M275.04 353.11H233.28V355.68H275.04V353.11Z" fill="#263238" stroke="#263238" stroke-linecap="round" stroke-linejoin="round"/>
<path d="M287.75 281.42H220.58V334.63H287.75V281.42Z" fill="#DEDEDE" stroke="#263238" stroke-miterlimit="10"/>
<path d="M226.12 291.05H235.15" stroke="#263238" stroke-miterlimit="10"/>
<path d="M226.12 313.29H235.15" stroke="#263238" stroke-miterlimit="10"/>
<path d="M232.51 294.57H238.89" stroke="#263238" stroke-miterlimit="10"/>
<path d="M241.09 294.57H247.48" stroke="#263238" stroke-miterlimit="10"/>
<path d="M236.03 298.1H242.42" stroke="#263238" stroke-miterlimit="10"/>
<path d="M243.521 298.1H249.9" stroke="#263238" stroke-miterlimit="10"/>
<path d="M236.03 301.18H242.42" stroke="#263238" stroke-miterlimit="10"/>
<path d="M243.521 301.18H249.9" stroke="#263238" stroke-miterlimit="10"/>
<path d="M236.03 304.26H242.42" stroke="#263238" stroke-miterlimit="10"/>
<path d="M243.521 304.26H249.9" stroke="#263238" stroke-miterlimit="10"/>
<path d="M236.03 307.78H242.42" stroke="#263238" stroke-miterlimit="10"/>
<path d="M236.03 315.93H242.42" stroke="#263238" stroke-miterlimit="10"/>
<path d="M236.03 319.02H242.42" stroke="#263238" stroke-miterlimit="10"/>
<path d="M236.03 322.1H242.42" stroke="#263238" stroke-miterlimit="10"/>
<path d="M236.03 325.18H242.42" stroke="#263238" stroke-miterlimit="10"/>
<path d="M245.28 315.93H251.66" stroke="#263238" stroke-miterlimit="10"/>
<path d="M245.28 319.02H251.66" stroke="#263238" stroke-miterlimit="10"/>
<path d="M245.28 322.1H251.66" stroke="#263238" stroke-miterlimit="10"/>
<path d="M245.28 325.18H251.66" stroke="#263238" stroke-miterlimit="10"/>
<path d="M275.67 287.08H282.05" stroke="#263238" stroke-miterlimit="10"/>
<path d="M275.67 290.17H282.05" stroke="#263238" stroke-miterlimit="10"/>
<path d="M275.67 293.25H282.05" stroke="#263238" stroke-miterlimit="10"/>
<path d="M275.67 296.33H282.05" stroke="#263238" stroke-miterlimit="10"/>
<path d="M275.67 299.42H282.05" stroke="#263238" stroke-miterlimit="10"/>
<path d="M275.67 302.5H282.05" stroke="#263238" stroke-miterlimit="10"/>
<path d="M275.67 305.58H282.05" stroke="#263238" stroke-miterlimit="10"/>
<path d="M275.67 308.67H282.05" stroke="#263238" stroke-miterlimit="10"/>
<path d="M275.67 311.75H282.05" stroke="#263238" stroke-miterlimit="10"/>
<path d="M275.67 314.83H282.05" stroke="#263238" stroke-miterlimit="10"/>
<path d="M275.67 317.91H282.05" stroke="#263238" stroke-miterlimit="10"/>
<path d="M275.67 321H282.05" stroke="#263238" stroke-miterlimit="10"/>
<path d="M254.53 315.93H260.91" stroke="#263238" stroke-miterlimit="10"/>
<path d="M254.53 319.02H260.91" stroke="#263238" stroke-miterlimit="10"/>
<path d="M254.53 322.1H260.91" stroke="#263238" stroke-miterlimit="10"/>
<path d="M254.53 325.18H260.91" stroke="#263238" stroke-miterlimit="10"/>
<path d="M243.521 307.78H249.9" stroke="#263238" stroke-miterlimit="10"/>
<path d="M251.66 307.78H258.05" stroke="#263238" stroke-miterlimit="10"/>
<path d="M259.15 307.78H265.54" stroke="#263238" stroke-miterlimit="10"/>
<path d="M249.68 294.57H256.07" stroke="#263238" stroke-miterlimit="10"/>
<path d="M258.271 294.57H264.661" stroke="#263238" stroke-miterlimit="10"/>
<path d="M467.201 355.74H174.011V383.08H467.201V355.74Z" fill="#A2E0E0" stroke="#263238" stroke-miterlimit="10"/>
<path d="M392.159 377.535C396.13 373.563 396.13 367.124 392.159 363.152C388.187 359.18 381.748 359.18 377.776 363.152C373.805 367.124 373.805 373.563 377.776 377.535C381.748 381.506 388.187 381.506 392.159 377.535Z" fill="#A2E0E0" stroke="#263238" stroke-miterlimit="10"/>
<path d="M408.811 380.564C414.316 379.609 418.004 374.373 417.049 368.868C416.094 363.364 410.858 359.676 405.353 360.63C399.849 361.585 396.161 366.822 397.116 372.326C398.07 377.83 403.307 381.519 408.811 380.564Z" fill="#A2E0E0" stroke="#263238" stroke-width="0.994636" stroke-miterlimit="10"/>
<path d="M246.975 381.721C252.536 380.823 256.315 375.586 255.416 370.026C254.517 364.465 249.281 360.686 243.721 361.585C238.16 362.483 234.381 367.72 235.28 373.28C236.178 378.841 241.414 382.62 246.975 381.721Z" fill="#A2E0E0" stroke="#263238" stroke-width="1.00285" stroke-miterlimit="10"/>
<path d="M273.013 380.245C278.486 378.98 281.896 373.518 280.631 368.045C279.365 362.573 273.903 359.163 268.431 360.428C262.959 361.693 259.548 367.155 260.814 372.628C262.079 378.1 267.541 381.511 273.013 380.245Z" fill="#A2E0E0" stroke="#263238" stroke-miterlimit="10"/>
<path d="M174.01 393.74L144.73 463.3H192.73V408.35C192.73 407.231 192.951 406.122 193.38 405.087C193.809 404.053 194.437 403.113 195.229 402.322C196.022 401.531 196.962 400.903 197.997 400.476C199.032 400.048 200.141 399.829 201.26 399.83H443.95C445.07 399.829 446.179 400.048 447.214 400.476C448.249 400.903 449.189 401.531 449.981 402.322C450.774 403.113 451.402 404.053 451.831 405.087C452.26 406.122 452.48 407.231 452.48 408.35V463.3H496.48L467.16 393.74H174.01Z" fill="#263238" stroke="#263238" stroke-linecap="round" stroke-linejoin="round"/>
<path d="M486.031 383.17H155.181V393.79H486.031V383.17Z" fill="#A2E0E0" stroke="#263238" stroke-miterlimit="10"/>
<path d="M345.531 360.77H340.061V366.24H345.531V360.77Z" fill="#A2E0E0" stroke="#263238" stroke-miterlimit="10"/>
<path d="M354.521 360.77H349.051V366.24H354.521V360.77Z" fill="#A2E0E0" stroke="#263238" stroke-miterlimit="10"/>
<path d="M363.51 360.77H358.04V366.24H363.51V360.77Z" fill="#A2E0E0" stroke="#263238" stroke-miterlimit="10"/>
<path d="M345.531 368.98H340.061V374.45H345.531V368.98Z" fill="#A2E0E0" stroke="#263238" stroke-miterlimit="10"/>
<path d="M354.521 368.98H349.051V374.45H354.521V368.98Z" fill="#A2E0E0" stroke="#263238" stroke-miterlimit="10"/>
<path d="M363.51 368.98H358.04V374.45H363.51V368.98Z" fill="#A2E0E0" stroke="#263238" stroke-miterlimit="10"/>
<path d="M197.8 360.77H192.33V366.24H197.8V360.77Z" fill="#A2E0E0" stroke="#263238" stroke-miterlimit="10"/>
<path d="M206.79 360.77H201.32V366.24H206.79V360.77Z" fill="#A2E0E0" stroke="#263238" stroke-miterlimit="10"/>
<path d="M215.781 360.77H210.311V366.24H215.781V360.77Z" fill="#A2E0E0" stroke="#263238" stroke-miterlimit="10"/>
<path d="M197.8 368.98H192.33V374.45H197.8V368.98Z" fill="#A2E0E0" stroke="#263238" stroke-miterlimit="10"/>
<path d="M206.79 368.98H201.32V374.45H206.79V368.98Z" fill="#A2E0E0" stroke="#263238" stroke-miterlimit="10"/>
<path d="M215.781 368.98H210.311V374.45H215.781V368.98Z" fill="#A2E0E0" stroke="#263238" stroke-miterlimit="10"/>
<path d="M324.821 379.14C324.615 379.14 324.411 379.1 324.221 379.021C324.032 378.942 323.859 378.826 323.714 378.68C323.569 378.534 323.454 378.361 323.377 378.17C323.299 377.98 323.259 377.776 323.261 377.57V360.38C323.261 359.967 323.425 359.57 323.718 359.277C324.01 358.985 324.407 358.82 324.821 358.82C325.235 358.82 325.631 358.985 325.924 359.277C326.216 359.57 326.381 359.967 326.381 360.38V377.57C326.382 377.776 326.343 377.98 326.265 378.17C326.187 378.361 326.072 378.534 325.927 378.68C325.782 378.826 325.61 378.942 325.42 379.021C325.23 379.1 325.026 379.14 324.821 379.14Z" fill="#A2E0E0" stroke="#263238" stroke-miterlimit="10"/>
<path d="M460.43 379.14C460.224 379.14 460.021 379.1 459.831 379.021C459.641 378.942 459.468 378.826 459.323 378.68C459.178 378.534 459.064 378.361 458.986 378.17C458.908 377.98 458.869 377.776 458.87 377.57V360.38C458.881 359.974 459.05 359.587 459.341 359.303C459.632 359.019 460.023 358.86 460.43 358.86C460.636 358.859 460.84 358.898 461.03 358.976C461.221 359.054 461.394 359.169 461.54 359.314C461.686 359.459 461.801 359.631 461.88 359.821C461.959 360.011 462 360.215 462 360.42V377.61C461.99 378.02 461.82 378.409 461.526 378.695C461.233 378.981 460.84 379.141 460.43 379.14Z" fill="#A2E0E0" stroke="#263238" stroke-miterlimit="10"/>
<path d="M223.991 379.14C223.575 379.14 223.175 378.975 222.881 378.681C222.586 378.386 222.421 377.987 222.421 377.57V360.38C222.421 360.175 222.462 359.971 222.541 359.781C222.62 359.591 222.735 359.419 222.881 359.274C223.027 359.129 223.2 359.014 223.391 358.936C223.581 358.858 223.785 358.819 223.991 358.82C224.405 358.82 224.801 358.985 225.094 359.277C225.387 359.57 225.551 359.967 225.551 360.38V377.57C225.552 377.776 225.513 377.98 225.435 378.17C225.357 378.361 225.243 378.534 225.098 378.68C224.953 378.826 224.78 378.942 224.59 379.021C224.4 379.1 224.197 379.14 223.991 379.14Z" fill="#A2E0E0" stroke="#263238" stroke-miterlimit="10"/>
<path d="M315.831 379.14C315.625 379.14 315.421 379.1 315.231 379.021C315.041 378.942 314.869 378.826 314.724 378.68C314.579 378.534 314.464 378.361 314.386 378.17C314.309 377.98 314.269 377.776 314.271 377.57V360.38C314.281 359.974 314.45 359.587 314.741 359.303C315.033 359.019 315.424 358.86 315.831 358.86C316.244 358.86 316.641 359.025 316.934 359.317C317.226 359.61 317.391 360.007 317.391 360.42V377.61C317.383 378.019 317.215 378.408 316.923 378.694C316.631 378.98 316.239 379.14 315.831 379.14Z" fill="#A2E0E0" stroke="#263238" stroke-miterlimit="10"/>
<path d="M409.08 334.02V326.22H420.2V334.6L409.08 334.02Z" fill="#37474F" stroke="#263238" stroke-linecap="round" stroke-linejoin="round"/>
<path d="M403.6 316.26C403.6 316.26 401.87 315.83 401.87 318.57C401.87 321.31 404.18 323.19 405.04 323.05C405.9 322.91 404.61 317.71 404.47 316.7C404.33 315.69 403.6 316.26 403.6 316.26Z" fill="#37474F" stroke="#263238" stroke-linecap="round" stroke-linejoin="round"/>
<path d="M425.26 316.26C425.26 316.26 426.99 315.83 426.99 318.57C426.99 321.31 424.68 323.19 423.82 323.05C422.96 322.91 424.25 317.71 424.39 316.7C424.53 315.69 425.26 316.26 425.26 316.26Z" fill="#37474F" stroke="#263238" stroke-linecap="round" stroke-linejoin="round"/>
<path d="M411.25 302.55C411.25 302.55 406.34 303.27 404.32 307.6C402.3 311.93 403.74 318 404.47 321.46C405.2 324.92 408.07 328.24 410.24 328.97C412.41 329.7 419.05 328.97 419.05 328.97C420.7 327.298 422.107 325.403 423.23 323.34C425.23 319.73 425.54 312.94 424.68 309.04C423.82 305.14 420.78 301.25 418.47 300.96C416.16 300.67 413.99 302.84 413.99 302.84C413.139 302.426 412.169 302.323 411.25 302.55Z" fill="#263238" stroke="#263238" stroke-linecap="round" stroke-linejoin="round"/>
<path d="M421.791 332.58C421.791 332.58 413.421 331.28 409.661 331.85C405.901 332.42 403.601 337.05 403.601 337.05C406.646 336.14 409.803 335.656 412.981 335.61C416.893 335.697 420.798 335.984 424.681 336.47C423.966 335.006 422.986 333.687 421.791 332.58Z" fill="#37474F" stroke="#263238" stroke-linecap="round" stroke-linejoin="round"/>
<path d="M390.17 346.29C390.17 346.29 374.27 371.39 373.87 373.84C373.47 376.29 375.87 379.96 380.19 379.55C384.51 379.14 400.39 378.94 400.39 378.94L400.59 375.06L387.73 373.43L395.48 367.31L390.17 346.29Z" fill="#52CEC7" stroke="#263238" stroke-linecap="round" stroke-linejoin="round"/>
<path d="M387.74 373.43L381.41 376.49" stroke="#263238" stroke-linecap="round" stroke-linejoin="round"/>
<path d="M439.11 345.28C439.11 345.28 455.22 371.39 455.63 373.86C456.04 376.33 453.63 379.98 449.3 379.57C444.97 379.16 429.11 378.96 429.11 378.96L428.9 375.08L441.73 373.43L433.97 367.31L439.11 345.28Z" fill="#52CEC7" stroke="#263238" stroke-linecap="round" stroke-linejoin="round"/>
<path d="M441.75 373.43L448.08 376.49" stroke="#263238" stroke-linecap="round" stroke-linejoin="round"/>
<path d="M408.221 334.74L398.401 339.94C393.491 342.54 390.461 344.99 390.171 346.29C389.881 347.59 395.661 388.73 395.661 388.73C395.661 388.73 399.371 392.39 409.231 393.35C423.951 394.79 430.311 390.18 430.311 390.18C430.311 390.18 439.111 346.87 439.111 345.28C439.111 343.69 428.001 338.35 424.111 336.47C420.221 334.59 415.871 333.01 408.221 334.74Z" fill="#52CEC7" stroke="#263238" stroke-linecap="round" stroke-linejoin="round"/>
<path d="M387.29 400.71L404.46 455.62L409.23 455.04L402.15 399.41L387.29 400.71Z" fill="#121519" stroke="#263238" stroke-linecap="round" stroke-linejoin="round"/>
<path d="M404.471 455.62L405.591 461.89C405.633 462.148 405.775 462.381 405.986 462.536C406.197 462.691 406.461 462.757 406.721 462.72L410.201 462.27C410.348 462.253 410.49 462.204 410.615 462.126C410.741 462.048 410.848 461.943 410.929 461.819C411.009 461.694 411.061 461.553 411.08 461.407C411.1 461.26 411.086 461.111 411.041 460.97L409.231 455.04L404.471 455.62Z" fill="#37474F" stroke="#263238" stroke-linecap="round" stroke-linejoin="round"/>
<path d="M440.251 400.71L423.071 455.62L418.311 455.04L425.381 399.41L440.251 400.71Z" fill="#121519" stroke="#263238" stroke-linecap="round" stroke-linejoin="round"/>
<path d="M423.07 455.62L421.94 461.86C421.899 462.117 421.758 462.347 421.549 462.502C421.34 462.657 421.078 462.724 420.82 462.69L417.33 462.24C417.183 462.223 417.042 462.174 416.916 462.096C416.79 462.018 416.683 461.913 416.602 461.789C416.522 461.664 416.47 461.524 416.451 461.377C416.432 461.23 416.445 461.081 416.49 460.94L418.31 455.01L423.07 455.62Z" fill="#37474F" stroke="#263238" stroke-linecap="round" stroke-linejoin="round"/>
<path d="M410.38 394.22C410.38 394.22 394.65 389.31 391.76 390.75C388.87 392.19 385.99 395.95 387 400.14C388.01 404.33 396.67 409.38 398.55 409.52C400.43 409.66 410.55 409.52 410.55 409.52L410.38 394.22Z" fill="#2B7478" stroke="#263238" stroke-linecap="round" stroke-linejoin="round"/>
<path d="M418.12 394.22C418.12 394.22 433.85 389.31 436.74 390.75C439.63 392.19 442.51 395.95 441.5 400.14C440.49 404.33 431.83 409.38 429.96 409.52C428.09 409.66 417.96 409.52 417.96 409.52L418.12 394.22Z" fill="#2B7478" stroke="#263238" stroke-linecap="round" stroke-linejoin="round"/>
<path d="M395.66 388.73C395.66 388.73 394.36 403.17 394.79 405.04C395.22 406.91 399.7 409.95 408.79 410.24C417.88 410.53 429.29 410.96 432.03 407.64C434.77 404.32 430.3 390.18 430.3 390.18C430.3 390.18 406.05 392.2 395.66 388.73Z" fill="#2B7478" stroke="#263238" stroke-linecap="round" stroke-linejoin="round"/>
<path d="M406.739 413.424C412.425 411.087 415.14 404.584 412.803 398.898C410.467 393.213 403.964 390.498 398.278 392.834C392.592 395.171 389.877 401.674 392.214 407.36C394.55 413.045 401.054 415.76 406.739 413.424Z" fill="#263238" stroke="#263238" stroke-linecap="round" stroke-linejoin="round"/>
<path d="M432.547 411.964C437.442 408.246 438.396 401.264 434.678 396.369C430.96 391.474 423.978 390.52 419.083 394.238C414.188 397.957 413.234 404.939 416.952 409.834C420.67 414.729 427.652 415.683 432.547 411.964Z" fill="#263238" stroke="#263238" stroke-linecap="round" stroke-linejoin="round"/>
<path d="M398.05 391.3L395.73 400.76C395.315 402.419 395.521 404.172 396.31 405.69L400.73 414.26H427.84L432.13 406.26C432.689 405.221 433.014 404.072 433.083 402.894C433.152 401.716 432.964 400.537 432.53 399.44L429.34 391.31L398.05 391.3Z" fill="#263238" stroke="#263238" stroke-linecap="round" stroke-linejoin="round"/>
<path d="M417.811 408.25H412.141V429.89H417.811V408.25Z" fill="#263238" stroke="#263238" stroke-linecap="round" stroke-linejoin="round"/>
<path d="M419.25 426.49H410.7V453.85H419.25V426.49Z" fill="#263238" stroke="#263238" stroke-linecap="round" stroke-linejoin="round"/>
<path d="M419.07 453.13L415.11 452.07V451.87L414.75 451.97L414.39 451.87V452.07L410.43 453.13L383.42 458.17V460.15H414.39H415.11H446.07V458.17L419.07 453.13Z" fill="#263238" stroke="#263238" stroke-linecap="round" stroke-linejoin="round"/>
<path d="M385.76 463.3C386.804 463.3 387.65 462.453 387.65 461.41C387.65 460.366 386.804 459.52 385.76 459.52C384.716 459.52 383.87 460.366 383.87 461.41C383.87 462.453 384.716 463.3 385.76 463.3Z" fill="#263238" stroke="#263238" stroke-linecap="round" stroke-linejoin="round"/>
<path d="M414.75 463.3C415.794 463.3 416.64 462.453 416.64 461.41C416.64 460.366 415.794 459.52 414.75 459.52C413.707 459.52 412.86 460.366 412.86 461.41C412.86 462.453 413.707 463.3 414.75 463.3Z" fill="#263238" stroke="#263238" stroke-linecap="round" stroke-linejoin="round"/>
<path d="M445.801 461.41C445.801 461.783 445.69 462.149 445.482 462.46C445.274 462.77 444.979 463.013 444.634 463.156C444.288 463.299 443.908 463.336 443.542 463.263C443.175 463.19 442.838 463.01 442.574 462.746C442.31 462.482 442.13 462.145 442.057 461.778C441.984 461.412 442.021 461.032 442.164 460.686C442.307 460.341 442.55 460.046 442.86 459.838C443.171 459.63 443.537 459.52 443.91 459.52C444.412 459.52 444.892 459.719 445.247 460.073C445.601 460.428 445.801 460.908 445.801 461.41Z" fill="#263238" stroke="#263238" stroke-linecap="round" stroke-linejoin="round"/>
<path d="M393.22 411.86C391.732 411.86 390.306 411.269 389.253 410.217C388.201 409.165 387.61 407.738 387.61 406.25V387.55H393.22V411.86Z" fill="#121519" stroke="#263238" stroke-linecap="round" stroke-linejoin="round"/>
<path d="M393.23 382.44H384.41V386.98H393.23V382.44Z" fill="#121519" stroke="#263238" stroke-linecap="round" stroke-linejoin="round"/>
<path d="M436.92 411.86C438.406 411.857 439.83 411.265 440.88 410.213C441.93 409.161 442.52 407.736 442.52 406.25V387.55H436.92V411.86Z" fill="#121519" stroke="#263238" stroke-linecap="round" stroke-linejoin="round"/>
<path d="M436.901 386.98H445.721V382.44H436.901V386.98Z" fill="#121519" stroke="#263238" stroke-linecap="round" stroke-linejoin="round"/>
<path d="M432.35 415.1H397.6C395.648 415.1 393.776 414.324 392.396 412.944C391.016 411.564 390.24 409.692 390.24 407.74L394.36 355.74C394.363 354.115 395.01 352.557 396.159 351.408C397.308 350.259 398.865 349.613 400.49 349.61H429.49C431.116 349.61 432.675 350.256 433.825 351.405C434.974 352.555 435.62 354.114 435.62 355.74L439.74 407.74C439.74 408.709 439.549 409.668 439.177 410.563C438.805 411.458 438.261 412.271 437.574 412.955C436.887 413.639 436.072 414.18 435.176 414.548C434.28 414.916 433.319 415.104 432.35 415.1Z" fill="#263238" stroke="#263238" stroke-linecap="round" stroke-linejoin="round"/>
<path d="M432.35 417.86H397.6C396.633 417.861 395.676 417.672 394.782 417.302C393.889 416.933 393.077 416.391 392.393 415.707C391.709 415.023 391.167 414.212 390.798 413.318C390.428 412.424 390.239 411.467 390.24 410.5L394.36 358.55C394.36 356.924 395.006 355.365 396.156 354.215C397.305 353.066 398.864 352.42 400.49 352.42H429.49C430.296 352.419 431.093 352.576 431.838 352.884C432.582 353.191 433.258 353.643 433.828 354.212C434.397 354.782 434.849 355.458 435.156 356.203C435.464 356.947 435.622 357.745 435.62 358.55L439.73 410.47C439.736 411.441 439.548 412.404 439.179 413.302C438.811 414.2 438.267 415.017 437.581 415.704C436.895 416.391 436.079 416.935 435.181 417.305C434.284 417.675 433.321 417.864 432.35 417.86Z" fill="#121519" stroke="#263238" stroke-linecap="round" stroke-linejoin="round"/>
<path d="M250.01 397.86L258.95 455.14L263.74 455.44L264.87 399.27L250.01 397.86Z" fill="#121519" stroke="#263238" stroke-linecap="round" stroke-linejoin="round"/>
<path d="M258.95 455.15V461.52C258.95 461.777 259.048 462.024 259.225 462.21C259.402 462.396 259.644 462.507 259.9 462.52L263.41 462.71C263.557 462.72 263.705 462.697 263.842 462.644C263.979 462.59 264.103 462.507 264.204 462.4C264.305 462.293 264.382 462.164 264.428 462.025C264.474 461.885 264.488 461.736 264.47 461.59L263.76 455.43L258.95 455.15Z" fill="#37474F" stroke="#263238" stroke-linecap="round" stroke-linejoin="round"/>
<path d="M284.94 398L275.01 455.08L270.22 455.27L270.06 399.09L284.94 398Z" fill="#121519" stroke="#263238" stroke-linecap="round" stroke-linejoin="round"/>
<path d="M275.02 455.08L274.9 461.46C274.9 461.725 274.794 461.98 274.607 462.167C274.419 462.355 274.165 462.46 273.9 462.46L270.39 462.57C270.246 462.571 270.103 462.542 269.972 462.483C269.84 462.424 269.723 462.338 269.628 462.23C269.533 462.121 269.463 461.994 269.422 461.856C269.38 461.718 269.37 461.573 269.39 461.43L270.23 455.28L275.02 455.08Z" fill="#37474F" stroke="#263238" stroke-linecap="round" stroke-linejoin="round"/>
<path d="M247.19 342.51C247.19 342.51 232.19 371.51 231.81 373.97C231.43 376.43 233.81 380.09 238.14 379.68C242.47 379.27 253.57 379.07 253.57 379.07L253.78 375.2L240.93 373.56L248.68 367.44L247.19 342.51Z" fill="#52CEC7" stroke="#263238" stroke-linecap="round" stroke-linejoin="round"/>
<path d="M240.92 373.56L239.36 376.62" stroke="#263238" stroke-linecap="round" stroke-linejoin="round"/>
<path d="M287.43 341.86C287.43 341.86 302.51 371.5 302.91 373.95C303.31 376.4 300.91 380.07 296.59 379.66C292.27 379.25 282.3 379.05 282.3 379.05L282.09 375.18L289.04 373.54L284.65 367.46L287.43 341.86Z" fill="#52CEC7" stroke="#263238" stroke-linecap="round" stroke-linejoin="round"/>
<path d="M289.04 373.56L295.36 376.62" stroke="#263238" stroke-linecap="round" stroke-linejoin="round"/>
<path d="M261.41 334.86L251.59 340.06C246.68 342.66 247.48 341.2 247.19 342.5C246.9 343.8 248.85 388.86 248.85 388.86C248.85 388.86 252.56 392.52 262.42 393.48C277.14 394.93 283.49 390.31 283.49 390.31C283.49 390.31 287.26 344.72 287.26 343.14C287.26 341.56 281.18 338.48 277.26 336.61C273.34 334.74 269.06 333.14 261.41 334.86Z" fill="#52CEC7" stroke="#263238" stroke-linecap="round" stroke-linejoin="round"/>
<path d="M248.85 388.86C248.85 388.86 247.55 403.3 247.98 405.18C248.41 407.06 252.89 410.09 261.98 410.37C271.07 410.65 282.48 411.1 285.23 407.78C287.98 404.46 283.49 390.31 283.49 390.31C283.49 390.31 259.24 392.33 248.85 388.86Z" fill="#2B7478" stroke="#263238" stroke-linecap="round" stroke-linejoin="round"/>
<path d="M268.19 306.61C268.19 306.61 263.49 303.83 258.57 309.17C253.65 314.51 258.79 325.17 259.43 327.76C260.07 330.35 250.88 344.85 250.88 351.48C250.88 358.11 258.79 364.48 271.39 363.23C283.99 361.98 285.49 355.32 283.78 347.42C282.07 339.52 280.15 331.18 280.15 327.76C280.15 324.34 283.15 316.65 280.37 309.17C277.59 301.69 270.73 303.86 268.19 306.61Z" fill="#263238" stroke="#263238" stroke-linecap="round" stroke-linejoin="round"/>
<path d="M261.35 329.04L267.12 334.6C267.12 334.6 261.12 348.91 260.49 352.76C259.86 356.61 263.27 360.24 267.97 359.81C272.67 359.38 275.66 355.32 275.45 351.9C275.24 348.48 271.82 334.38 271.82 334.38C274.773 332.84 277.275 330.558 279.08 327.76" stroke="#808080" stroke-linecap="round" stroke-linejoin="round"/>
<path d="M267.12 334.6C267.12 334.6 267.33 333.1 271.82 334.38" stroke="#263238" stroke-linecap="round" stroke-linejoin="round"/>
<path d="M265.951 405.725C267.37 399.744 263.673 393.745 257.692 392.325C251.711 390.906 245.712 394.604 244.293 400.585C242.873 406.566 246.571 412.565 252.552 413.984C258.533 415.403 264.532 411.705 265.951 405.725Z" fill="#263238" stroke="#263238" stroke-linecap="round" stroke-linejoin="round"/>
<path d="M286.301 411.007C290.647 406.66 290.647 399.613 286.301 395.267C281.954 390.92 274.907 390.92 270.561 395.267C266.214 399.613 266.214 406.66 270.561 411.007C274.907 415.353 281.954 415.353 286.301 411.007Z" fill="#263238" stroke="#263238" stroke-linecap="round" stroke-linejoin="round"/>
<path d="M250.67 391.3L248.31 400.76C247.895 402.419 248.101 404.172 248.89 405.69L253.33 414.26H280.44L284.73 406.26C285.287 405.22 285.611 404.071 285.68 402.894C285.749 401.716 285.562 400.538 285.13 399.44L281.93 391.31L250.67 391.3Z" fill="#263238" stroke="#263238" stroke-linecap="round" stroke-linejoin="round"/>
<path d="M270.42 408.25H264.75V429.89H270.42V408.25Z" fill="#263238" stroke="#263238" stroke-linecap="round" stroke-linejoin="round"/>
<path d="M271.86 426.49H263.31V453.85H271.86V426.49Z" fill="#263238" stroke="#263238" stroke-linecap="round" stroke-linejoin="round"/>
<path d="M271.68 453.13L267.72 452.07V451.87L267.36 451.97L267 451.87V452.07L263.04 453.13L236.04 458.17V460.15H267H267.72H298.69V458.17L271.68 453.13Z" fill="#263238" stroke="#263238" stroke-linecap="round" stroke-linejoin="round"/>
<path d="M240.27 461.41C240.27 461.784 240.159 462.149 239.952 462.46C239.744 462.771 239.449 463.013 239.104 463.156C238.758 463.299 238.378 463.337 238.012 463.264C237.645 463.191 237.308 463.011 237.044 462.746C236.779 462.482 236.599 462.145 236.527 461.779C236.454 461.412 236.491 461.032 236.634 460.687C236.777 460.341 237.019 460.046 237.33 459.839C237.641 459.631 238.006 459.52 238.38 459.52C238.881 459.52 239.362 459.719 239.717 460.074C240.071 460.428 240.27 460.909 240.27 461.41Z" fill="#263238" stroke="#263238" stroke-linecap="round" stroke-linejoin="round"/>
<path d="M267.36 463.3C268.404 463.3 269.25 462.454 269.25 461.41C269.25 460.366 268.404 459.52 267.36 459.52C266.316 459.52 265.47 460.366 265.47 461.41C265.47 462.454 266.316 463.3 267.36 463.3Z" fill="#263238" stroke="#263238" stroke-linecap="round" stroke-linejoin="round"/>
<path d="M296.53 463.3C297.573 463.3 298.42 462.454 298.42 461.41C298.42 460.366 297.573 459.52 296.53 459.52C295.486 459.52 294.64 460.366 294.64 461.41C294.64 462.454 295.486 463.3 296.53 463.3Z" fill="#263238" stroke="#263238" stroke-linecap="round" stroke-linejoin="round"/>
<path d="M245.84 411.86C244.353 411.86 242.926 411.269 241.874 410.217C240.822 409.165 240.23 407.738 240.23 406.25V387.55H245.84V411.86Z" fill="#121519" stroke="#263238" stroke-linecap="round" stroke-linejoin="round"/>
<path d="M245.84 382.44H237.02V386.98H245.84V382.44Z" fill="#121519" stroke="#263238" stroke-linecap="round" stroke-linejoin="round"/>
<path d="M289.53 411.86C291.018 411.86 292.445 411.269 293.497 410.217C294.549 409.165 295.14 407.738 295.14 406.25V387.55H289.53V411.86Z" fill="#121519" stroke="#263238" stroke-linecap="round" stroke-linejoin="round"/>
<path d="M289.53 386.98H298.35V382.44H289.53V386.98Z" fill="#121519" stroke="#263238" stroke-linecap="round" stroke-linejoin="round"/>
<path d="M284.97 415.1H250.21C248.26 415.097 246.391 414.321 245.012 412.941C243.634 411.561 242.86 409.69 242.86 407.74L246.98 355.74C246.98 354.114 247.626 352.555 248.776 351.405C249.925 350.256 251.485 349.61 253.11 349.61H282.11C283.735 349.613 285.293 350.259 286.442 351.408C287.591 352.557 288.238 354.115 288.24 355.74L292.36 407.74C292.36 408.709 292.169 409.668 291.797 410.563C291.425 411.458 290.881 412.271 290.194 412.955C289.507 413.639 288.693 414.18 287.796 414.548C286.9 414.916 285.939 415.104 284.97 415.1Z" fill="#263238" stroke="#263238" stroke-linecap="round" stroke-linejoin="round"/>
<path d="M284.97 417.86H250.21C249.244 417.86 248.288 417.669 247.395 417.299C246.503 416.929 245.692 416.387 245.01 415.704C244.327 415.02 243.786 414.209 243.417 413.316C243.048 412.423 242.859 411.466 242.86 410.5L246.98 358.55C246.979 357.745 247.137 356.947 247.444 356.203C247.752 355.458 248.203 354.782 248.773 354.212C249.342 353.643 250.019 353.191 250.763 352.884C251.507 352.576 252.305 352.419 253.11 352.42H282.11C283.736 352.42 285.295 353.066 286.445 354.215C287.595 355.365 288.24 356.924 288.24 358.55L292.36 410.5C292.362 411.469 292.171 412.429 291.8 413.325C291.429 414.221 290.884 415.034 290.197 415.718C289.51 416.402 288.695 416.943 287.798 417.311C286.901 417.679 285.94 417.865 284.97 417.86Z" fill="#121519" stroke="#263238" stroke-linecap="round" stroke-linejoin="round"/>
<path d="M457.084 143.541H451.65C450.372 143.541 449.178 144.182 448.473 145.248L447.677 146.449C447.03 147.427 445.935 148.016 444.762 148.016H430.744C429.487 148.016 428.468 149.035 428.468 150.292V172.18H460.071V148.016L459.792 145.914C459.613 144.556 458.454 143.541 457.084 143.541Z" fill="#FF9500"/>
<path opacity="0.2" d="M457.084 143.541H451.65C450.372 143.541 449.178 144.182 448.473 145.248L447.677 146.449C447.03 147.427 445.935 148.016 444.762 148.016H430.744C429.487 148.016 428.468 149.035 428.468 150.292V172.18H460.071V148.016L459.792 145.914C459.613 144.556 458.454 143.541 457.084 143.541Z" fill="white"/>
<path d="M457.7 150.781H430.838V169.15H457.7V150.781Z" fill="#263238"/>
<path opacity="0.9" d="M457.7 150.781H430.838V169.15H457.7V150.781Z" fill="white"/>
<path d="M460.07 172.18H428.467L423.832 155.297C423.48 154.018 424.443 152.756 425.769 152.756H451.668C453.48 152.756 455.07 153.968 455.55 155.716L460.07 172.18Z" fill="#FF9500"/>
<path opacity="0.5" d="M460.07 172.18H428.467L423.832 155.297C423.48 154.018 424.443 152.756 425.769 152.756H451.668C453.48 152.756 455.07 153.968 455.55 155.716L460.07 172.18Z" fill="#FFA629" fill-opacity="0.5"/>
<path d="M457.85 222.043C457.767 222.043 457.685 222.05 457.604 222.054C457.708 221.503 457.771 220.938 457.771 220.358C457.771 215.191 453.417 211.003 448.047 211.003C448.022 211.003 447.997 211.006 447.972 211.006C446.689 208.871 444.295 207.43 441.546 207.43C438.686 207.43 436.207 208.989 434.967 211.268C434.303 211.101 433.61 211.003 432.891 211.003C428.479 211.003 424.891 214.368 424.729 218.575C422.913 219.875 421.73 221.95 421.73 224.296C421.73 228.236 425.051 231.43 429.147 231.43C429.761 231.43 430.354 231.35 430.925 231.215H456.388C456.85 231.355 457.341 231.43 457.851 231.43C460.546 231.43 462.73 229.328 462.73 226.736C462.73 224.144 460.545 222.043 457.85 222.043Z" fill="white"/>
<path d="M441.73 228.014C445.412 228.014 448.397 224.843 448.397 220.931C448.397 217.018 445.412 213.847 441.73 213.847C438.048 213.847 435.063 217.018 435.063 220.931C435.063 224.843 438.048 228.014 441.73 228.014Z" stroke="#52CEC7" stroke-linecap="round" stroke-linejoin="round"/>
<path d="M444.397 220.93L441.73 218.097L439.063 220.93" stroke="#52CEC7" stroke-width="2" stroke-linecap="round" stroke-linejoin="round"/>
<path d="M441.73 223.763V218.097" stroke="#52CEC7" stroke-width="2" stroke-linecap="round" stroke-linejoin="round"/>
<path d="M429.08 40.1704L428.732 43.07L430.327 43.6289C430.35 44.6222 430.49 45.6094 430.746 46.5704L429.328 47.5626L430.49 50.2525L432.163 49.9381C432.687 50.7858 433.308 51.5712 434.014 52.2788L433.305 53.8229L435.736 55.5836L437.019 54.5006C437.901 54.9824 438.839 55.3578 439.812 55.6185L439.99 57.2954L442.932 57.6447L443.499 56.0657C444.506 56.0449 445.508 55.9066 446.483 55.6534L447.49 57.0159L450.212 55.863L449.914 54.1862C450.774 53.6702 451.571 53.0583 452.289 52.3626L453.856 53.0613L455.628 50.7277L454.529 49.4491C455.016 48.5813 455.397 47.6595 455.663 46.7032L457.365 46.5215L457.712 43.622L456.117 43.063C456.095 42.0698 455.954 41.0825 455.699 40.1215L457.116 39.1294L455.947 36.4394L454.281 36.7398C453.752 35.8962 453.127 35.1155 452.416 34.4132L453.125 32.8691L450.694 31.1294L449.404 32.2123C448.525 31.7345 447.593 31.3616 446.625 31.1014L446.448 29.4245L443.506 29.0752L442.939 30.6542C441.931 30.6757 440.929 30.8141 439.954 31.0665L438.948 29.732L436.218 30.8778L436.523 32.5267C435.663 33.0422 434.866 33.6541 434.148 34.3503L432.582 33.6516L430.809 35.9923L431.908 37.2639C431.422 38.1346 431.042 39.0586 430.774 40.0167L429.08 40.1704ZM435.906 42.4901C436.079 41.066 436.677 39.7244 437.623 38.6349C438.569 37.5454 439.822 36.7569 441.223 36.3691C442.624 35.9813 444.11 36.0116 445.494 36.4562C446.877 36.9007 448.096 37.7396 448.995 38.8667C449.895 39.9939 450.436 41.3587 450.549 42.7885C450.662 44.2184 450.342 45.6492 449.63 46.9C448.918 48.1508 447.846 49.1654 446.549 49.8156C445.252 50.4659 443.788 50.7225 442.343 50.553C440.405 50.3238 438.639 49.346 437.432 47.8342C436.225 46.3224 435.676 44.4003 435.906 42.4901Z" fill="white"/>
</g>
<defs>
<clipPath id="clip0_856_7463">
<rect width="497.02" height="463.81" fill="white"/>
</clipPath>
</defs>
</svg>
