<svg width="49" height="48" viewBox="0 0 49 48" fill="none" xmlns="http://www.w3.org/2000/svg">
<rect x="0.5" width="48" height="48" rx="8" fill="white" fill-opacity="0.03"/>
<path d="M29.1787 19.376C29.022 19.3759 28.8697 19.3242 28.7455 19.2288C27.0783 17.9486 23.9717 17.6194 22.7147 17.5371C22.1612 17.5009 21.606 17.5766 21.0823 17.7595C17.3503 19.0557 15.652 18.0994 15.4688 17.986L16.2249 16.7787L16.2098 16.7698C16.2227 16.777 17.5442 17.4815 20.6134 16.414C21.3175 16.1681 22.064 16.067 22.8081 16.1169C24.5309 16.2294 27.7059 16.6368 29.6137 18.1016C29.731 18.1925 29.817 18.3177 29.8596 18.4598C29.9023 18.6019 29.8994 18.7538 29.8515 18.8942C29.8036 19.0346 29.7129 19.1565 29.5923 19.2429C29.4717 19.3293 29.3271 19.3758 29.1787 19.376Z" fill="#BABBBC"/>
<path d="M15.3285 29.8963C14.5056 29.8963 13.9015 29.6378 13.5297 29.1254C12.7953 28.1135 13.4296 26.6305 13.5043 26.4646C13.5533 26.3558 13.6289 26.2611 13.724 26.1892C13.7472 26.1719 16.0504 24.4335 18.4546 22.7998C19.878 21.8336 21.0581 21.0899 21.9686 20.5895C23.4578 19.7697 24.2065 19.5869 24.7309 19.9152C24.9158 20.0346 25.1234 20.1144 25.3407 20.1496C26.162 20.2747 26.9116 20.6893 27.454 21.3185C27.8397 21.7634 28.3436 22.0494 28.957 22.1735C29.4988 22.2829 29.8111 22.2477 29.9779 22.1988C29.9991 22.1924 30.0187 22.1812 30.0351 22.1662C30.0515 22.1512 30.0643 22.1327 30.0726 22.1121C30.0832 22.0881 30.0883 22.0619 30.0874 22.0357C30.0866 22.0094 30.0799 21.9837 30.0677 21.9604L28.5465 18.9904C28.5019 18.907 28.4745 18.8156 28.4656 18.7216C28.4568 18.6275 28.4668 18.5325 28.495 18.4424C28.5233 18.3522 28.5692 18.2685 28.6301 18.1963C28.6911 18.124 28.7658 18.0646 28.8499 18.0215C28.934 17.9785 29.0259 17.9526 29.1201 17.9454C29.2144 17.9382 29.3091 17.9499 29.3988 17.9797C29.4884 18.0095 29.5713 18.0569 29.6425 18.1191C29.7136 18.1813 29.7717 18.257 29.8133 18.3419L31.3341 21.3119C31.4417 21.5216 31.5014 21.7525 31.5091 21.9881C31.5168 22.2237 31.4722 22.458 31.3786 22.6743C31.2876 22.8873 31.1506 23.0776 30.9774 23.2314C30.8042 23.3852 30.5991 23.4987 30.3769 23.5639C29.9098 23.7005 29.3365 23.7018 28.6728 23.5675C27.7592 23.3825 26.9661 22.9274 26.3785 22.2518C26.0593 21.8792 25.6177 21.6328 25.133 21.557C24.7666 21.501 24.4139 21.3769 24.093 21.1913C23.8092 21.2407 22.6945 21.6152 18.9168 24.2071C17.0285 25.5024 15.2667 26.8115 14.7409 27.2052C14.6114 27.5744 14.5314 28.0823 14.6826 28.2892C14.7858 28.4302 15.0954 28.4938 15.5233 28.4671L20.2187 25.6857C20.381 25.5915 20.5739 25.5652 20.7555 25.6126C20.9371 25.6599 21.0926 25.777 21.1883 25.9385C21.2839 26.0999 21.3119 26.2926 21.2662 26.4746C21.2205 26.6566 21.1048 26.8132 20.9442 26.9103L16.1096 29.7726C16.0222 29.8243 15.9249 29.8567 15.824 29.8678C15.6595 29.8861 15.494 29.8956 15.3285 29.8963Z" fill="#BABBBC"/>
<path d="M17.4794 32.1808C16.6084 32.1808 15.9439 31.921 15.4982 31.4046C14.6855 30.4638 15.0196 29.1232 15.0605 28.9733L16.4336 29.3474V29.3434C16.3833 29.5373 16.3002 30.1627 16.5764 30.4772C16.8215 30.7574 17.3446 30.7823 17.7849 30.7441L21.7224 28.5645C21.8876 28.473 22.0823 28.4509 22.2638 28.503C22.4453 28.5551 22.5986 28.6771 22.6901 28.8423C22.7816 29.0074 22.8037 29.2022 22.7516 29.3837C22.6995 29.5651 22.5775 29.7185 22.4123 29.81L18.3481 32.0612C18.2677 32.1057 18.1795 32.1342 18.0883 32.1452C17.8862 32.169 17.6829 32.1809 17.4794 32.1808Z" fill="#BABBBC"/>
<path d="M19.783 34.3461H19.7693C18.675 34.3252 17.9042 33.9867 17.4794 33.3408C16.866 32.4067 17.2939 31.2911 17.3459 31.167L18.6635 31.7048L18.6657 31.6994C18.6114 31.8396 18.4958 32.2986 18.6719 32.5615C18.8054 32.7608 19.1412 32.8844 19.6269 32.9173L23.1667 31.1101C23.3347 31.0258 23.5291 31.0113 23.7077 31.0698C23.8863 31.1284 24.0344 31.2551 24.1199 31.4225C24.2053 31.5899 24.2211 31.7842 24.1638 31.9632C24.1065 32.1422 23.9807 32.2912 23.8139 32.3778L20.1069 34.2682C20.0066 34.3194 19.8956 34.3461 19.783 34.3461Z" fill="#BABBBC"/>
<path d="M36.0406 27.9609C35.9093 27.9608 35.7805 27.9244 35.6686 27.8557C35.5566 27.787 35.4659 27.6887 35.4064 27.5716C35.3469 27.4545 35.321 27.3232 35.3315 27.1922C35.342 27.0613 35.3885 26.9358 35.466 26.8297L36.8893 24.8792L32.6063 17.7547C31.887 18.3121 30.5922 18.9557 28.4695 18.9161C28.3761 18.9143 28.2839 18.8941 28.1982 18.8567C28.1126 18.8192 28.0351 18.7653 27.9703 18.6979C27.9055 18.6305 27.8546 18.5511 27.8205 18.464C27.7864 18.377 27.7698 18.2841 27.7716 18.1906C27.7734 18.0972 27.7936 18.005 27.8311 17.9193C27.8685 17.8337 27.9225 17.7562 27.9898 17.6914C28.0572 17.6266 28.1367 17.5757 28.2237 17.5416C28.3107 17.5075 28.4036 17.4909 28.4971 17.4927C31.1815 17.5448 32.0685 16.3362 32.141 16.2326C32.2017 16.1267 32.2892 16.0387 32.3948 15.9775C32.5004 15.9164 32.6203 15.8842 32.7424 15.8843C32.867 15.8846 32.9893 15.9177 33.0971 15.9801C33.2049 16.0426 33.2944 16.1322 33.3567 16.2401L38.3501 24.5496C38.4221 24.6695 38.4573 24.8079 38.4511 24.9476C38.4449 25.0873 38.3977 25.2221 38.3154 25.3352L36.6167 27.6673C36.5507 27.7582 36.464 27.8323 36.3639 27.8833C36.2638 27.9343 36.153 27.9609 36.0406 27.9609Z" fill="#BABBBC"/>
<path d="M21.9021 36.0662C19.9591 36.0662 19.1523 33.9756 19.1176 33.8844C19.0513 33.7074 19.058 33.5114 19.1362 33.3394C19.2145 33.1673 19.3578 33.0335 19.5348 32.9672C19.7117 32.9009 19.9078 32.9076 20.0798 32.9858C20.2518 33.0641 20.3857 33.2074 20.452 33.3844C20.456 33.3946 20.9818 34.7188 22.0128 34.6383C22.2286 34.621 22.4207 34.6072 22.596 34.5938C23.6871 34.5178 24.0536 34.492 25.7884 33.8323C25.9643 33.7676 26.1586 33.7748 26.3292 33.8526C26.4998 33.9303 26.6329 34.0721 26.6995 34.2473C26.7661 34.4225 26.7609 34.617 26.685 34.7884C26.6091 34.9598 26.4686 35.0943 26.2941 35.1628C24.3654 35.8958 23.8423 35.9332 22.6952 36.0141C22.5239 36.0261 22.3367 36.039 22.1258 36.0564C22.0493 36.063 21.9746 36.0662 21.9021 36.0662Z" fill="#BABBBC"/>
<path d="M14.0971 27.597C13.9751 27.597 13.8551 27.5655 13.7489 27.5054C13.5211 27.3773 11.5021 26.2154 10.7882 24.8681C10.7299 24.7582 10.7013 24.635 10.7055 24.5107C10.7096 24.3863 10.7463 24.2653 10.8118 24.1595L15.2381 17.015C15.3356 16.8533 15.4933 16.7371 15.6765 16.6917C15.8598 16.6464 16.0535 16.6757 16.2151 16.7732C16.3767 16.8707 16.493 17.0284 16.5383 17.2117C16.5837 17.3949 16.5544 17.5886 16.4569 17.7502L16.4524 17.7578C16.4524 17.7605 16.4493 17.7627 16.448 17.7649L12.2605 24.526C12.8468 25.2675 14.0255 26.0299 14.4468 26.2675C14.5838 26.3447 14.6915 26.4652 14.7528 26.6101C14.8142 26.7549 14.8258 26.9161 14.7858 27.0682C14.7459 27.2204 14.6566 27.3551 14.532 27.4512C14.4074 27.5472 14.2545 27.5993 14.0971 27.5992V27.597Z" fill="#BABBBC"/>
<path d="M29.9334 34.1188C29.5762 34.121 29.2234 34.0398 28.9033 33.8814C28.5831 33.7231 28.3043 33.4921 28.0892 33.2069L26.5924 31.1915C26.4174 30.958 26.2917 30.6913 26.2228 30.4077C26.154 30.1241 26.1436 29.8295 26.1921 29.5417C26.2408 29.2491 26.3484 28.9694 26.5084 28.7197C26.6685 28.47 26.8776 28.2554 27.1231 28.0889C28.1337 27.3933 29.546 27.6219 30.2715 28.5982L31.7683 30.6137C31.9433 30.8472 32.0691 31.1139 32.1379 31.3975C32.2067 31.6811 32.2171 31.9757 32.1686 32.2635C32.1199 32.5561 32.0123 32.8357 31.8523 33.0855C31.6922 33.3352 31.4831 33.5498 31.2376 33.7162C30.8538 33.9796 30.3989 34.12 29.9334 34.1188ZM28.4322 29.1053C28.2522 29.105 28.0765 29.1595 27.9282 29.2615C27.8407 29.3199 27.766 29.3956 27.7087 29.4838C27.6513 29.5721 27.6125 29.6711 27.5946 29.7748C27.5782 29.874 27.5821 29.9755 27.6062 30.0732C27.6303 30.1709 27.674 30.2626 27.7347 30.3428L29.232 32.3582C29.506 32.727 30.0437 32.8102 30.4329 32.5437C30.5204 32.4852 30.595 32.4095 30.6524 32.3213C30.7097 32.233 30.7485 32.1341 30.7665 32.0304C30.7828 31.9311 30.7787 31.8296 30.7545 31.732C30.7304 31.6343 30.6866 31.5426 30.626 31.4624L29.1292 29.4469C29.0478 29.3395 28.9423 29.2527 28.8213 29.1933C28.7002 29.134 28.567 29.1039 28.4322 29.1053Z" fill="#BABBBC"/>
<path d="M27.3987 35.8633C27.0415 35.8656 26.6887 35.7843 26.3685 35.626C26.0483 35.4676 25.7696 35.2367 25.5545 34.9515L24.7565 33.8768C24.5815 33.6433 24.4557 33.3766 24.3869 33.093C24.3181 32.8094 24.3076 32.5148 24.3562 32.227C24.4048 31.9344 24.5125 31.6547 24.6725 31.405C24.8325 31.1553 25.0417 30.9407 25.2872 30.7742C26.2978 30.0786 27.7101 30.3072 28.4355 31.2836L29.2335 32.3582C29.4087 32.5917 29.5345 32.8583 29.6033 33.142C29.6722 33.4256 29.6825 33.7202 29.6339 34.008C29.5853 34.3006 29.4778 34.5802 29.3178 34.83C29.1578 35.0797 28.9488 35.2943 28.7033 35.4608C28.3193 35.7241 27.8643 35.8645 27.3987 35.8633ZM26.598 31.7906C26.4181 31.7904 26.2423 31.8448 26.0941 31.9468C26.0066 32.0052 25.9319 32.0809 25.8745 32.1691C25.8172 32.2574 25.7784 32.3564 25.7604 32.4601C25.744 32.5593 25.748 32.6608 25.7721 32.7585C25.7962 32.8562 25.8399 32.9479 25.9006 33.0281L26.699 34.1028C26.973 34.4715 27.5103 34.5547 27.8973 34.2882C27.9848 34.2297 28.0595 34.1541 28.1169 34.0658C28.1744 33.9776 28.2133 33.8786 28.2314 33.7749C28.2476 33.6757 28.2435 33.5741 28.2193 33.4765C28.1952 33.3789 28.1515 33.2872 28.0908 33.2069L27.2928 32.1323C27.2114 32.0249 27.106 31.9381 26.9851 31.8787C26.8641 31.8194 26.731 31.7892 26.5962 31.7906H26.598Z" fill="#BABBBC"/>
<path d="M32.4683 32.3743C32.1111 32.3764 31.7583 32.2951 31.4382 32.1368C31.118 31.9785 30.8392 31.7475 30.6241 31.4624L28.1461 28.1263C27.9819 27.9079 27.8639 27.6583 27.7993 27.3928C27.7347 27.1273 27.7248 26.8514 27.7702 26.5819C27.8158 26.3087 27.9165 26.0475 28.066 25.8143C28.2156 25.5811 28.4109 25.3807 28.6402 25.2253L28.7626 25.1412C29.7727 24.4455 31.1854 24.6741 31.9105 25.6505L34.3013 28.8691C34.4764 29.1027 34.6021 29.3693 34.671 29.6529C34.7398 29.9365 34.7502 30.2312 34.7017 30.5189C34.6531 30.8116 34.5456 31.0913 34.3855 31.341C34.2255 31.5908 34.0163 31.8054 33.7707 31.9717C33.3874 32.2349 32.9332 32.3753 32.4683 32.3743ZM30.073 26.1576C29.8932 26.1578 29.7177 26.2127 29.5699 26.315L29.4476 26.3991C29.3762 26.4468 29.3152 26.5085 29.2684 26.5805C29.2215 26.6524 29.1897 26.7331 29.1749 26.8177C29.1618 26.8983 29.1652 26.9807 29.1848 27.06C29.2045 27.1393 29.24 27.2138 29.2892 27.2789L31.7673 30.615C32.0413 30.9838 32.579 31.067 32.9683 30.8005C33.0558 30.7421 33.1305 30.6664 33.1878 30.5782C33.2452 30.4899 33.284 30.3909 33.3019 30.2872C33.3183 30.188 33.3143 30.0864 33.2902 29.9888C33.2661 29.8911 33.2224 29.7994 33.1617 29.7192L30.7709 26.5005C30.6895 26.3927 30.584 26.3056 30.4628 26.246C30.3415 26.1864 30.208 26.1561 30.073 26.1576Z" fill="#BABBBC"/>
<path d="M35.0028 30.6297C34.6457 30.6319 34.293 30.5505 33.9729 30.3921C33.6527 30.2337 33.3741 30.0027 33.1591 29.7174L31.2068 27.0899C31.0317 26.8565 30.9059 26.5898 30.837 26.3062C30.7682 26.0226 30.7578 25.7279 30.8065 25.4401C30.8551 25.1476 30.9626 24.8679 31.1225 24.6182C31.2825 24.3684 31.4916 24.1538 31.737 23.9874C32.7477 23.2917 34.1599 23.5203 34.8854 24.4967L36.8377 27.1246C37.0127 27.3582 37.1384 27.6248 37.2072 27.9084C37.276 28.192 37.2865 28.4867 37.238 28.7744C37.1897 29.0674 37.0822 29.3475 36.9221 29.5977C36.7621 29.8478 36.5528 30.0627 36.307 30.2294C35.923 30.4921 35.4681 30.6317 35.0028 30.6297ZM33.0457 25.0033C32.8661 25.003 32.6907 25.0571 32.5426 25.1586C32.4552 25.2171 32.3805 25.2928 32.3232 25.381C32.2658 25.4693 32.227 25.5682 32.209 25.6719C32.1928 25.7711 32.1969 25.8727 32.221 25.9703C32.2452 26.0679 32.2889 26.1597 32.3496 26.2399L34.3014 28.8678C34.5754 29.2366 35.1132 29.3198 35.5024 29.0538C35.5899 28.9954 35.6647 28.9197 35.722 28.8315C35.7794 28.7432 35.8182 28.6442 35.836 28.5405C35.8524 28.4412 35.8484 28.3397 35.8243 28.242C35.8003 28.1444 35.7565 28.0527 35.6959 27.9724L33.7414 25.3454C33.6602 25.2382 33.5551 25.1515 33.4345 25.0922C33.3138 25.0329 33.181 25.0026 33.0466 25.0038L33.0457 25.0033Z" fill="#BABBBC"/>
<path d="M9.09917 27.8937C8.76494 27.8933 8.43669 27.8051 8.14728 27.6379L6.94985 26.9498C6.72856 26.8223 6.53518 26.6517 6.38119 26.4479C6.22721 26.2442 6.11578 26.0116 6.05353 25.7639C5.99128 25.5162 5.97949 25.2586 6.01884 25.0063C6.0582 24.7539 6.14791 24.5121 6.28263 24.2952L13.3871 12.8373C13.646 12.416 14.0593 12.1125 14.5388 11.9916C15.0183 11.8707 15.526 11.9419 15.9537 12.1901L17.1511 12.8818C17.3726 13.0091 17.5662 13.1796 17.7204 13.3832C17.8746 13.5869 17.9863 13.8195 18.0487 14.0671C18.1112 14.3148 18.1232 14.5726 18.084 14.825C18.0448 15.0774 17.9552 15.3193 17.8206 15.5364L10.7143 26.9907C10.5445 27.2666 10.307 27.4944 10.0242 27.6524C9.74153 27.8105 9.42307 27.8935 9.09917 27.8937ZM15.0045 13.3613C14.9227 13.3613 14.8423 13.3823 14.7709 13.4221C14.6995 13.462 14.6395 13.5194 14.5966 13.589L7.49029 25.0456C7.45624 25.1003 7.43358 25.1614 7.42365 25.2251C7.41373 25.2888 7.41674 25.3539 7.43252 25.4164C7.44829 25.4789 7.47651 25.5376 7.51548 25.589C7.55444 25.6404 7.60337 25.6834 7.65932 25.7155L8.85675 26.404C8.96474 26.4665 9.09287 26.4844 9.21385 26.4538C9.33483 26.4233 9.43908 26.3467 9.50439 26.2403L16.6111 14.7842C16.6451 14.7294 16.6676 14.6683 16.6775 14.6046C16.6874 14.5409 16.6843 14.4758 16.6686 14.4133C16.6528 14.3507 16.6246 14.292 16.5857 14.2406C16.5468 14.1892 16.498 14.1461 16.4421 14.1139L15.2465 13.4258C15.1729 13.3833 15.0894 13.3611 15.0045 13.3613Z" fill="#BABBBC"/>
<path d="M39.9024 28.1095C39.5737 28.1095 39.2507 28.024 38.965 27.8614C38.6794 27.6988 38.4409 27.4647 38.2731 27.1821L31.3545 15.6477C31.2231 15.4288 31.1371 15.1857 31.1016 14.9329C31.066 14.6801 31.0817 14.4227 31.1475 14.1761C31.2134 13.9294 31.3282 13.6986 31.4851 13.4972C31.642 13.2958 31.8378 13.128 32.0608 13.0037L33.2543 12.3405C33.6857 12.0985 34.1946 12.0347 34.6724 12.1627C35.1503 12.2907 35.5592 12.6003 35.8119 13.0255L42.7318 24.5604C42.8634 24.7793 42.9495 25.0225 42.9851 25.2754C43.0206 25.5283 43.005 25.7858 42.939 26.0325C42.873 26.2793 42.758 26.5102 42.6009 26.7116C42.4438 26.913 42.2478 27.0807 42.0246 27.2048L40.8316 27.868C40.5475 28.0264 40.2277 28.1096 39.9024 28.1095ZM34.1812 13.5237C34.0991 13.5237 34.0184 13.5449 33.9468 13.5851L32.7538 14.2479C32.6976 14.2793 32.6483 14.3217 32.6087 14.3725C32.5692 14.4233 32.5402 14.4816 32.5236 14.5438C32.507 14.6061 32.5031 14.671 32.5121 14.7348C32.5211 14.7985 32.5428 14.8599 32.5759 14.9151L39.4936 26.4486C39.5573 26.556 39.6605 26.6342 39.7811 26.6666C39.9017 26.6989 40.0302 26.6828 40.139 26.6216L41.3325 25.9593C41.3887 25.9279 41.4381 25.8856 41.4777 25.8348C41.5173 25.7839 41.5463 25.7257 41.5629 25.6634C41.5795 25.6012 41.5834 25.5362 41.5743 25.4724C41.5653 25.4086 41.5436 25.3473 41.5104 25.2921L34.5927 13.7577C34.5502 13.6864 34.49 13.6274 34.4179 13.5863C34.3458 13.5453 34.2642 13.5238 34.1812 13.5237Z" fill="#BABBBC"/>
</svg>
