<svg width="49" height="48" viewBox="0 0 49 48" fill="none" xmlns="http://www.w3.org/2000/svg">
<rect x="0.5" width="48" height="48" rx="8" fill="white" fill-opacity="0.03"/>
<path d="M31.4042 20.4402H25.4713C26.0107 19.2177 26.6938 17.3479 26.6938 15.3343C26.6938 13.4286 25.6511 11.9184 23.7813 11.0555C23.0622 10.7318 22.2352 10.7318 21.552 11.0555C20.8329 11.3791 20.3295 12.0263 20.1497 12.7814L19.7901 14.1837C19.1429 16.7007 17.7765 18.8581 15.9427 20.3324C15.5831 20.62 15.2236 20.8358 14.864 21.0515C14.5763 20.6919 14.1089 20.4762 13.6055 20.4762H9.07492C8.17599 20.4762 7.4209 21.2313 7.4209 22.1302V35.5781C7.4209 36.477 8.17599 37.2321 9.07492 37.2321H13.5695C14.1449 37.2321 14.6123 36.9445 14.9359 36.513C17.6686 37.3041 20.2216 37.6996 22.9543 37.6996H29.5344C31.1165 37.6996 32.411 36.4051 32.411 34.823C32.411 34.3196 32.2672 33.8162 32.0155 33.3847C32.8065 32.8813 33.3459 31.9824 33.3459 30.9756C33.3459 30.4722 33.2021 29.9688 32.9504 29.5373C33.7414 29.0339 34.2808 28.135 34.2808 27.1282C34.2808 26.3731 33.9931 25.7259 33.5257 25.2225C33.9931 24.7191 34.2808 24.0359 34.2808 23.3168C34.2808 21.7347 32.9863 20.4402 31.4042 20.4402ZM11.3402 34.8949C10.657 34.8949 10.1177 34.3556 10.1177 33.6724C10.1177 32.9892 10.657 32.4499 11.3402 32.4499C12.0234 32.4499 12.5627 32.9892 12.5627 33.6724C12.5627 34.3556 12.0234 34.8949 11.3402 34.8949ZM29.6064 26.1574H31.4042C31.9436 26.1574 32.375 26.5889 32.375 27.1282C32.375 27.6676 31.9436 28.0991 31.4042 28.0991H29.2468C28.7074 28.0991 28.3119 28.5305 28.3119 29.0339C28.3119 29.5733 28.7434 29.9688 29.2468 29.9688H30.4693C31.0087 29.9688 31.4402 30.4003 31.4402 30.9397C31.4402 31.479 31.0087 31.9105 30.4693 31.9105H28.5636C28.0602 31.9105 27.6287 32.342 27.6287 32.8454C27.6287 33.3847 28.0602 33.7803 28.5636 33.7803H29.5344C30.0738 33.7803 30.5053 34.2118 30.5053 34.7511C30.5053 35.2905 30.0738 35.7219 29.5344 35.7219H22.9543C20.3295 35.7219 17.9203 35.3264 15.2595 34.5354V22.9932C15.8708 22.6696 16.518 22.31 17.0933 21.8066C19.2507 20.0807 20.8688 17.5637 21.5879 14.6512L21.9475 13.2488C22.0194 12.9612 22.2352 12.8173 22.343 12.7814C22.4509 12.7095 22.7026 12.6376 22.9903 12.7814C24.2128 13.3567 24.7881 14.1837 24.7881 15.3343C24.7881 18.2109 23.1341 20.8358 23.0981 20.8717C22.9184 21.1594 22.9184 21.5189 23.0622 21.8425C23.242 22.1302 23.5296 22.3459 23.8892 22.3459H31.4042C31.9436 22.3459 32.375 22.7774 32.375 23.3168C32.375 23.8561 31.9436 24.2876 31.4042 24.2876H29.6064C29.067 24.2876 28.6715 24.7191 28.6715 25.2225C28.6715 25.7259 29.103 26.1574 29.6064 26.1574Z" fill="#BABBBC"/>
<path d="M40.6449 20.4402H37.265C36.7616 20.4402 36.3301 20.8717 36.3301 21.3751C36.3301 21.8785 36.7616 22.3099 37.265 22.3099H40.6449C41.1483 22.3099 41.5798 21.8785 41.5798 21.3751C41.5798 20.8357 41.1483 20.4402 40.6449 20.4402Z" fill="#BABBBC"/>
<path d="M38.3434 13.5363C37.9838 13.1767 37.3725 13.1767 37.013 13.5363L34.6398 15.9094C34.2802 16.269 34.2802 16.8803 34.6398 17.2398C34.8196 17.4196 35.0713 17.5275 35.287 17.5275C35.5387 17.5275 35.7545 17.4196 35.9342 17.2398L38.3074 14.8667C38.7389 14.5071 38.7389 13.9318 38.3434 13.5363Z" fill="#BABBBC"/>
<path d="M30.5776 15.55C31.081 15.55 31.5125 15.1185 31.5125 14.6151V11.2352C31.5125 10.7318 31.081 10.3003 30.5776 10.3003C30.0742 10.3003 29.6427 10.7318 29.6427 11.2352V14.6151C29.6068 15.1545 30.0382 15.55 30.5776 15.55Z" fill="#BABBBC"/>
</svg>
