<svg
    xmlns="http://www.w3.org/2000/svg"
    width="40"
    height="40"
    viewBox="0 0 40 40"
    fill="none"
>
    <g clip-path="url(#clip0_860_2923)">
        <path
        d="M25.2791 12.7502C28.1954 9.83389 28.1954 5.10556 25.2791 2.18921C22.3627 -0.727136 17.6344 -0.727137 14.718 2.18921C11.8017 5.10556 11.8017 9.83389 14.718 12.7502C17.6344 15.6666 22.3627 15.6666 25.2791 12.7502Z"
        fill="#2FB7B8"></path>
        <path
        d="M14.6859 29.3056C15.6559 27.0123 16.9202 24.8838 18.4577 22.9467C13.8666 17.9802 7.29664 14.8701 0 14.8701V40.0004H12.5259C12.5259 36.2925 13.2527 32.6942 14.6859 29.3056Z"
        fill="#52CEC7"></path>
        <path
        d="M40.0053 40.0004V14.8701C26.1263 14.8701 14.875 26.1214 14.875 40.0004H40.0053Z"
        fill="#2FB7B8"></path>
    </g>
    <defs>
        <clipPath id="clip0_860_2923">
        <rect width="40" height="40" fill="white"></rect>
        </clipPath>
    </defs>
</svg>