<svg xmlns="http://www.w3.org/2000/svg" width="41" height="41" viewBox="0 0 41 41" fill="none">
  <path d="M24.0301 26.4905C22.2034 26.4905 20.5273 27.174 19.2593 28.3057C16.4658 27.1098 14.2309 24.8889 13.0275 22.1127C14.1664 20.8526 14.854 19.1869 14.854 17.3716C14.854 13.4437 11.6376 10.1748 7.63358 10.1748C3.63655 10.1748 0.391602 13.3994 0.391602 17.3716C0.391602 30.3559 10.9645 40.8414 24.0301 40.8414C28.0271 40.8414 31.2721 37.6381 31.2721 33.666C31.2721 29.6903 27.9861 26.4905 24.0301 26.4905Z" fill="#52CEC7"/>
  <path d="M21.5938 0.841309C16.1442 0.841309 11.2113 3.15994 7.76172 6.86967C9.74477 6.90283 11.6613 7.46586 13.2945 8.52581C15.6109 6.80346 18.4774 5.77667 21.5938 5.77667C29.2263 5.77667 35.4258 11.9374 35.4258 19.506C35.4258 22.5699 34.4093 25.4019 32.6927 27.6873C33.8093 29.2275 34.4592 31.0824 34.5759 33.0036C38.1589 29.5919 40.392 24.8057 40.392 19.506C40.392 9.22136 31.9595 0.841309 21.5938 0.841309Z" fill="#52CEC7"/>
  <path d="M22.4107 11.1802C21.4895 11.1802 20.7441 11.9217 20.7441 12.8363V19.2029C20.7441 20.1175 21.4895 20.859 22.4107 20.859H26.8829C27.804 20.859 28.5494 20.1175 28.5494 19.2029C28.5494 18.2883 27.804 17.5468 26.8829 17.5468H24.0772V12.8363C24.0772 11.9217 23.3318 11.1802 22.4107 11.1802Z" fill="#52CEC7"/>
</svg>