<svg
    xmlns="http://www.w3.org/2000/svg"
    width="41"
    height="41"
    viewBox="0 0 41 41"
    fill="none"
>
    <g clip-path="url(#clip0_702_1807)">
        <path
            d="M37.3705 8.70126C35.8873 6.4992 33.9925 4.60448 31.7905 3.12132L30.844 4.06778C30.54 4.36176 30.1498 4.5505 29.7306 4.60628C29.3114 4.66207 28.8853 4.58196 28.515 4.37772C27.6211 3.91294 26.689 3.52574 25.7288 3.22041C25.3234 3.10272 24.9664 2.85827 24.7101 2.52289C24.4537 2.18752 24.3115 1.77885 24.3043 1.35678V0.0258649C21.6994 -0.491695 19.018 -0.491695 16.4131 0.0258649V1.35678C16.4059 1.77885 16.2637 2.18751 16.0073 2.52288C15.751 2.85825 15.394 3.1027 14.9886 3.22039C14.0284 3.52572 13.0963 3.91291 12.2024 4.3777C11.8321 4.58194 11.406 4.66205 10.9868 4.60626C10.5676 4.55048 10.1774 4.36174 9.87339 4.06776L8.92694 3.12132C6.72486 4.60448 4.83013 6.4992 3.34694 8.70126L4.29337 9.64773C4.58734 9.95173 4.77608 10.342 4.83187 10.7612C4.88766 11.1804 4.80755 11.6064 4.6033 11.9767C4.13856 12.8706 3.75137 13.8028 3.446 14.7629C3.32832 15.1683 3.08387 15.5253 2.74849 15.7817C2.41312 16.038 2.00444 16.1802 1.58237 16.1874H0.251533C-0.266108 18.7924 -0.266136 21.4737 0.251451 24.0787H1.58237C2.00444 24.0859 2.41311 24.2281 2.74849 24.4844C3.08386 24.7408 3.3283 25.0978 3.44598 25.5032C3.75135 26.4633 4.13854 27.3955 4.60328 28.2894C4.80753 28.6597 4.88764 29.0857 4.83185 29.5049C4.77607 29.9241 4.58732 30.3144 4.29335 30.6184L3.34694 31.5649C4.83004 33.767 6.72475 35.6617 8.92685 37.1449L9.87339 36.1984C10.1774 35.9044 10.5676 35.7157 10.9868 35.6599C11.406 35.6041 11.8321 35.6842 12.2024 35.8884C13.0963 36.3532 14.0284 36.7404 14.9886 37.0457C15.394 37.1634 15.751 37.4079 16.0074 37.7433C16.2637 38.0787 16.4059 38.4874 16.4131 38.9095V40.2404C19.018 40.7579 21.6994 40.7579 24.3043 40.2404V38.9094C24.3115 38.4874 24.4537 38.0787 24.71 37.7433C24.9664 37.4079 25.3234 37.1634 25.7288 37.0457C26.689 36.7404 27.6211 36.3532 28.515 35.8884C28.8853 35.6842 29.3114 35.6041 29.7306 35.6599C30.1498 35.7157 30.54 35.9044 30.844 36.1984L31.7906 37.1449C33.9926 35.6617 35.8874 33.767 37.3705 31.5649L36.424 30.6184C36.1301 30.3144 35.9413 29.9241 35.8855 29.5049C35.8297 29.0857 35.9098 28.6597 36.1141 28.2894C36.5788 27.3955 36.966 26.4633 37.2714 25.5032C37.3891 25.0978 37.6335 24.7408 37.9689 24.4844C38.3043 24.2281 38.7129 24.0859 39.135 24.0787H40.4659C40.9835 21.4737 40.9835 18.7924 40.4658 16.1874H39.135C38.7129 16.1802 38.3043 16.038 37.9689 15.7817C37.6335 15.5253 37.3891 15.1683 37.2714 14.7629C36.966 13.8028 36.5788 12.8706 36.1141 11.9767C35.9098 11.6064 35.8297 11.1804 35.8855 10.7612C35.9413 10.342 36.1301 9.95173 36.424 9.64773L37.3705 8.70126ZM20.3587 33.7967C17.6563 33.7967 15.0146 32.9954 12.7676 31.494C10.5206 29.9926 8.76933 27.8587 7.73517 25.362C6.701 22.8653 6.43042 20.118 6.95763 17.4675C7.48484 14.817 8.78618 12.3824 10.6971 10.4715C12.608 8.56059 15.0426 7.25926 17.6931 6.73204C20.3435 6.20483 23.0908 6.47542 25.5875 7.50958C28.0842 8.54375 30.2182 10.295 31.7196 12.542C33.221 14.789 34.0223 17.4307 34.0223 20.1331C34.0223 23.7569 32.5828 27.2323 30.0203 29.7947C27.4579 32.3572 23.9825 33.7967 20.3587 33.7967Z"
            fill="#52CEC7"></path>
        <path
            d="M24.4582 11.5933H16.2601V21.2314H13.5273L20.3591 28.6728L27.191 21.2314H24.4582V11.5933ZM20.3591 18.4247C20.8422 18.4236 21.31 18.5935 21.6798 18.9043C22.0495 19.2151 22.2973 19.6468 22.3791 20.1228C22.461 20.5989 22.3717 21.0885 22.127 21.505C21.8824 21.9215 21.4982 22.2379 21.0425 22.3982L21.0423 23.1336H19.676L19.6761 22.3982C19.2777 22.2579 18.9324 21.9977 18.6877 21.6534C18.4431 21.309 18.311 20.8974 18.3096 20.4749C18.3096 20.2938 18.3816 20.12 18.5097 19.9919C18.6378 19.8637 18.8116 19.7918 18.9928 19.7918C19.174 19.7918 19.3477 19.8637 19.4759 19.9919C19.604 20.12 19.676 20.2938 19.676 20.4749C19.6761 20.61 19.7163 20.7421 19.7914 20.8543C19.8666 20.9666 19.9733 21.054 20.0982 21.1056C20.223 21.1572 20.3604 21.1707 20.4928 21.1442C20.6253 21.1178 20.747 21.0527 20.8425 20.9571C20.9379 20.8615 21.0029 20.7398 21.0293 20.6073C21.0556 20.4748 21.042 20.3375 20.9903 20.2127C20.9385 20.0879 20.851 19.9812 20.7386 19.9062C20.6263 19.8311 20.4942 19.7911 20.3591 19.7911C19.8761 19.7923 19.4083 19.6225 19.0386 19.3117C18.6688 19.001 18.421 18.5693 18.3392 18.0933C18.2573 17.6173 18.3467 17.1276 18.5914 16.7112C18.8361 16.2948 19.2203 15.9784 19.676 15.8183V15.0092H21.0423V15.8184C21.4408 15.9587 21.786 16.219 22.0307 16.5634C22.2753 16.9078 22.4074 17.3194 22.4087 17.7419H21.0423C21.0424 17.6068 21.0024 17.4746 20.9274 17.3622C20.8523 17.2498 20.7457 17.1622 20.6208 17.1105C20.496 17.0587 20.3586 17.0451 20.2261 17.0715C20.0935 17.0978 19.9718 17.1628 19.8762 17.2584C19.7806 17.3539 19.7155 17.4756 19.6891 17.6081C19.6627 17.7407 19.6762 17.8781 19.7279 18.0029C19.7796 18.1278 19.8672 18.2345 19.9796 18.3096C20.0919 18.3847 20.224 18.4247 20.3591 18.4247Z"
            fill="#52CEC7"></path>
    </g>
    <defs>
        <clipPath id="clip0_702_1807">
            <rect
                width="40"
                height="40"
                fill="white"
                transform="translate(0.358398 0.132812)"
            ></rect>
        </clipPath>
    </defs>
</svg>