<svg height="50" viewBox="0 0 43 43" fill="none" xmlns="http://www.w3.org/2000/svg">
<path d="M32.3932 18.1047L34.4323 16.8168C34.6296 16.6882 34.771 16.4898 34.8281 16.2613C34.8852 16.0328 34.8538 15.7912 34.7403 15.5849L32.8084 12.2439C32.6867 12.043 32.4938 11.8954 32.268 11.8305C32.0423 11.7656 31.8004 11.7883 31.5906 11.8939L29.4534 13.0185C29.2903 13.1062 29.104 13.1411 28.9201 13.1186C28.7363 13.096 28.5639 13.017 28.4268 12.8925C27.3285 11.9283 26.0503 11.1909 24.6659 10.7227C24.4919 10.6611 24.3401 10.5493 24.2296 10.4015C24.1191 10.2537 24.055 10.0764 24.0452 9.89208L23.9519 7.4843C23.9388 7.24579 23.8347 7.0214 23.6611 6.85734C23.4875 6.69327 23.2575 6.60202 23.0187 6.60238H19.1784C18.9395 6.60202 18.7096 6.69327 18.536 6.85734C18.3623 7.0214 18.2583 7.24579 18.2451 7.4843L18.1518 9.89208C18.1421 10.0764 18.0779 10.2537 17.9674 10.4015C17.857 10.5493 17.7052 10.6611 17.5312 10.7227C16.1467 11.1909 14.8685 11.9283 13.7702 12.8925C13.6331 13.017 13.4608 13.096 13.2769 13.1186C13.0931 13.1411 12.9068 13.1062 12.7436 13.0185L10.6298 11.8939C10.42 11.7883 10.1781 11.7656 9.95237 11.8305C9.72662 11.8954 9.53363 12.043 9.41193 12.2439L7.4801 15.5849C7.36653 15.7912 7.33516 16.0328 7.39228 16.2613C7.4494 16.4898 7.59078 16.6882 7.78807 16.8168L9.82722 18.1047C9.98205 18.2002 10.1039 18.3408 10.1765 18.5076C10.2491 18.6745 10.2689 18.8595 10.2332 19.0379C9.94901 20.4736 9.94901 21.9511 10.2332 23.3868C10.2689 23.5652 10.2491 23.7503 10.1765 23.9171C10.1039 24.0839 9.98205 24.2246 9.82722 24.3201L7.78807 25.608C7.59078 25.7366 7.4494 25.935 7.39228 26.1635C7.33516 26.3919 7.36653 26.6336 7.4801 26.8399L9.41193 30.1809C9.53363 30.3818 9.72662 30.5294 9.95237 30.5943C10.1781 30.6591 10.42 30.6365 10.6298 30.5309L12.767 29.4063C12.9301 29.3186 13.1164 29.2836 13.3003 29.3062C13.4841 29.3288 13.6564 29.4077 13.7935 29.5323C14.8918 30.4965 16.17 31.2339 17.5545 31.7021C17.7285 31.7637 17.8803 31.8754 17.9908 32.0233C18.1012 32.1711 18.1654 32.3484 18.1751 32.5327L18.2684 34.9405C18.2816 35.179 18.3857 35.4034 18.5593 35.5674C18.7329 35.7315 18.9628 35.8227 19.2017 35.8224H23.0653C23.3042 35.8227 23.5341 35.7315 23.7077 35.5674C23.8814 35.4034 23.9854 35.179 23.9986 34.9405L24.0919 32.5327C24.1016 32.3484 24.1658 32.1711 24.2763 32.0233C24.3867 31.8754 24.5385 31.7637 24.7125 31.7021C26.097 31.2339 27.3752 30.4965 28.4735 29.5323C28.6106 29.4077 28.7829 29.3288 28.9668 29.3062C29.1506 29.2836 29.3369 29.3186 29.5001 29.4063L31.5906 30.5589C31.8004 30.6645 32.0423 30.6871 32.268 30.6223C32.4938 30.5574 32.6867 30.4098 32.8084 30.2089L34.7403 26.8679C34.8538 26.6616 34.8852 26.4199 34.8281 26.1915C34.771 25.963 34.6296 25.7646 34.4323 25.636L32.3932 24.3481C32.2383 24.2526 32.1164 24.1119 32.0439 23.9451C31.9713 23.7783 31.9515 23.5932 31.9872 23.4148C32.2694 21.9789 32.2694 20.5018 31.9872 19.0659C31.9453 18.8833 31.9619 18.6922 32.0348 18.5197C32.1077 18.3471 32.2331 18.2019 32.3932 18.1047ZM21.1102 27.8664C19.7969 27.8664 18.5131 27.477 17.4212 26.7474C16.3292 26.0178 15.4781 24.9807 14.9756 23.7674C14.473 22.5541 14.3415 21.219 14.5977 19.931C14.8539 18.6429 15.4863 17.4598 16.415 16.5311C17.3436 15.6025 18.5267 14.9701 19.8148 14.7139C21.1028 14.4577 22.4379 14.5892 23.6512 15.0918C24.8645 15.5943 25.9016 16.4454 26.6312 17.5374C27.3608 18.6293 27.7502 19.9131 27.7502 21.2264C27.7502 22.9874 27.0507 24.6764 25.8054 25.9216C24.5602 27.1669 22.8712 27.8664 21.1102 27.8664ZM24.5305 19.3599C24.6156 19.4886 24.6472 19.6455 24.6184 19.7971C24.5897 19.9487 24.5029 20.0832 24.3766 20.1718L19.9343 23.2562C19.8131 23.3412 19.6645 23.3779 19.5177 23.3589C19.3709 23.3399 19.2365 23.2666 19.141 23.1535L17.3399 21.0211C17.2384 20.901 17.1887 20.7456 17.2019 20.5889C17.215 20.4323 17.2898 20.2873 17.4099 20.1858C17.5299 20.0843 17.6853 20.0347 17.842 20.0478C17.9986 20.0609 18.1436 20.1358 18.2451 20.2558L19.7103 21.973L23.7046 19.1732C23.771 19.1311 23.8451 19.1024 23.9227 19.089C24.0002 19.0756 24.0796 19.0776 24.1564 19.0949C24.2331 19.1123 24.3057 19.1446 24.3699 19.1901C24.4341 19.2355 24.4887 19.2932 24.5305 19.3599ZM42.1083 21.2264C42.1086 25.1157 41.0286 28.9287 38.9889 32.2403C36.9492 35.5519 34.0297 38.2318 30.5562 39.9815C27.0826 41.7311 23.1913 42.4816 19.3162 42.1493C15.441 41.817 11.7343 40.415 8.60933 38.0995L8.97796 40.0873C9.00432 40.2404 8.97047 40.3977 8.88351 40.5264C8.79655 40.6551 8.6632 40.7453 8.51134 40.7779C8.35868 40.8054 8.20135 40.7719 8.0731 40.6847C7.94486 40.5974 7.85593 40.4634 7.8254 40.3113L7.15813 36.7463C7.13178 36.5932 7.16562 36.4359 7.25258 36.3072C7.33955 36.1785 7.4729 36.0884 7.62476 36.0557L11.1758 35.4117C11.3288 35.3854 11.4862 35.4192 11.6149 35.5062C11.7436 35.5932 11.8337 35.7265 11.8664 35.8784C11.8938 36.031 11.8603 36.1884 11.7731 36.3166C11.6859 36.4449 11.5518 36.5338 11.3997 36.5643L9.11795 36.9796C13.0069 39.92 17.8437 41.323 22.7025 40.9198C27.5612 40.5166 32.1007 38.3357 35.4518 34.7945C38.8029 31.2533 40.7303 26.6005 40.8651 21.7269C40.9998 16.8533 39.3325 12.1012 36.1821 8.38022C36.1316 8.32078 36.0932 8.25197 36.0693 8.17771C36.0453 8.10344 36.0362 8.02519 36.0425 7.94741C36.0488 7.86964 36.0703 7.79386 36.1059 7.72441C36.1415 7.65495 36.1904 7.59319 36.2498 7.54263C36.3092 7.49208 36.3781 7.45373 36.4523 7.42977C36.5266 7.40581 36.6048 7.39671 36.6826 7.40299C36.7604 7.40927 36.8362 7.43081 36.9056 7.46638C36.9751 7.50195 37.0368 7.55085 37.0874 7.61029C40.3325 11.4042 42.1135 16.2339 42.1083 21.2264ZM1.302 21.2264C1.29315 25.9296 2.96641 30.481 6.01957 34.0585C6.12167 34.1786 6.1719 34.3343 6.15921 34.4913C6.14652 34.6484 6.07195 34.794 5.95191 34.8961C5.83186 34.9982 5.67618 35.0485 5.5191 35.0358C5.36202 35.0231 5.21642 34.9485 5.11432 34.8285C1.77452 30.9017 -0.00414005 25.8837 0.117146 20.7301C0.238432 15.5766 2.25119 10.6478 5.77202 6.88252C9.29284 3.11725 14.0757 0.778666 19.2095 0.312244C24.3433 -0.154177 29.4693 1.28416 33.611 4.35326L33.2424 2.36544C33.2161 2.21236 33.2499 2.05502 33.3369 1.92631C33.4238 1.79761 33.5572 1.7075 33.709 1.67484C33.8617 1.64738 34.019 1.68086 34.1473 1.7681C34.2755 1.85534 34.3644 1.98939 34.395 2.14146L35.0436 5.69247C35.0699 5.84555 35.0361 6.00289 34.9491 6.13159C34.8622 6.2603 34.7288 6.3504 34.577 6.38307L31.0306 7.04101C30.8775 7.06736 30.7202 7.03352 30.5915 6.94656C30.4628 6.85959 30.3727 6.72624 30.34 6.57439C30.3125 6.42173 30.346 6.26439 30.4333 6.13615C30.5205 6.0079 30.6546 5.91897 30.8066 5.88845L33.0884 5.47315C30.1522 3.24382 26.6522 1.87812 22.9821 1.52973C19.312 1.18134 15.6175 1.86408 12.3143 3.50113C9.01107 5.13819 6.23027 7.66458 4.28476 10.796C2.33926 13.9275 1.30626 17.5398 1.302 21.2264Z" fill="#FF7070"/>
</svg>
