<svg height="50" viewBox="0 0 41 41" fill="none" xmlns="http://www.w3.org/2000/svg">
<g clip-path="url(#clip0_860_6134)">
<path d="M37.3079 14.1353H3.1413C1.5413 14.1353 0.224609 15.4519 0.224609 17.0519V37.8853C0.224609 39.4853 1.5413 40.8019 3.1413 40.8019H37.308C38.908 40.8019 40.2247 39.4853 40.2247 37.8853V17.0519C40.2246 15.4519 38.9079 14.1353 37.3079 14.1353ZM35.2246 22.0519V32.8853C35.2246 34.4853 33.9246 35.8019 32.3079 35.8019H23.1413C21.5246 35.8019 20.2246 34.4853 20.2246 32.8853V22.0519C20.2246 20.4519 21.5246 19.1353 23.1413 19.1353H32.308C33.9246 19.1353 35.2246 20.4519 35.2246 22.0519ZM15.6413 28.3019H6.47461C5.7913 28.3019 5.22461 27.7353 5.22461 27.0519C5.22461 26.3686 5.7913 25.8019 6.47461 25.8019H15.6413C16.3246 25.8019 16.8913 26.3686 16.8913 27.0519C16.8913 27.7353 16.3246 28.3019 15.6413 28.3019ZM16.8913 32.0519C16.8913 32.7353 16.3246 33.3019 15.6413 33.3019H6.47461C5.7913 33.3019 5.22461 32.7353 5.22461 32.0519C5.22461 31.3686 5.7913 30.8019 6.47461 30.8019H15.6413C16.3246 30.8019 16.8913 31.3686 16.8913 32.0519ZM15.6413 23.3019H6.47461C5.7913 23.3019 5.22461 22.7353 5.22461 22.0519C5.22461 21.3686 5.7913 20.8019 6.47461 20.8019H15.6413C16.3246 20.8019 16.8913 21.3686 16.8913 22.0519C16.8913 22.7353 16.3246 23.3019 15.6413 23.3019Z" fill="#ED5050"/>
<path d="M37.3105 0.801758H16.4772C14.8689 0.801758 13.5605 2.1101 13.5605 3.71845V7.88514C13.5605 9.49349 14.8689 10.8018 16.4772 10.8018H37.3105C38.9189 10.8018 40.2272 9.49341 40.2272 7.88507V3.71845C40.2272 2.1101 38.9189 0.801758 37.3105 0.801758Z" fill="#ED5050"/>
<path d="M5.22461 10.8018C7.98603 10.8018 10.2246 8.56318 10.2246 5.80176C10.2246 3.04033 7.98603 0.801758 5.22461 0.801758C2.46319 0.801758 0.224609 3.04033 0.224609 5.80176C0.224609 8.56318 2.46319 10.8018 5.22461 10.8018Z" fill="#ED5050"/>
</g>
<defs>
<clipPath id="clip0_860_6134">
<rect width="40.0001" height="40.0003" fill="white" transform="translate(0.224609 0.801758)"/>
</clipPath>
</defs>
</svg>
