<svg width="40" height="40" viewBox="0 0 41 41" fill="none" xmlns="http://www.w3.org/2000/svg">
<g clip-path="url(#clip0_860_6079)">
<path d="M37.972 13.6104H3.80536C2.20536 13.6104 0.888672 14.927 0.888672 16.527V37.3603C0.888672 38.9603 2.20536 40.277 3.80536 40.277H37.9721C39.5721 40.277 40.8888 38.9603 40.8888 37.3603V16.527C40.8887 14.927 39.572 13.6104 37.972 13.6104ZM35.8887 21.527V32.3604C35.8887 33.9604 34.5887 35.277 32.972 35.277H23.8054C22.1887 35.277 20.8887 33.9604 20.8887 32.3604V21.527C20.8887 19.927 22.1887 18.6104 23.8054 18.6104H32.9721C34.5887 18.6104 35.8887 19.927 35.8887 21.527ZM16.3054 27.777H7.13867C6.45536 27.777 5.88867 27.2104 5.88867 26.527C5.88867 25.8437 6.45536 25.277 7.13867 25.277H16.3054C16.9887 25.277 17.5554 25.8437 17.5554 26.527C17.5554 27.2104 16.9887 27.777 16.3054 27.777ZM17.5554 31.527C17.5554 32.2104 16.9887 32.777 16.3054 32.777H7.13867C6.45536 32.777 5.88867 32.2104 5.88867 31.527C5.88867 30.8437 6.45536 30.277 7.13867 30.277H16.3054C16.9887 30.277 17.5554 30.8437 17.5554 31.527ZM16.3054 22.777H7.13867C6.45536 22.777 5.88867 22.2104 5.88867 21.527C5.88867 20.8437 6.45536 20.277 7.13867 20.277H16.3054C16.9887 20.277 17.5554 20.8437 17.5554 21.527C17.5554 22.2104 16.9887 22.777 16.3054 22.777Z" fill="#ED5050"/>
<path d="M37.9746 0.276855H17.1413C15.533 0.276855 14.2246 1.5852 14.2246 3.19355V7.36024C14.2246 8.96859 15.533 10.2769 17.1413 10.2769H37.9746C39.583 10.2769 40.8913 8.96851 40.8913 7.36016V3.19355C40.8913 1.5852 39.583 0.276855 37.9746 0.276855Z" fill="#ED5050"/>
<path d="M5.88867 10.2769C8.6501 10.2769 10.8887 8.03828 10.8887 5.27686C10.8887 2.51543 8.6501 0.276855 5.88867 0.276855C3.12725 0.276855 0.888672 2.51543 0.888672 5.27686C0.888672 8.03828 3.12725 10.2769 5.88867 10.2769Z" fill="#ED5050"/>
</g>
<defs>
<clipPath id="clip0_860_6079">
<rect width="40.0001" height="40.0003" fill="white" transform="translate(0.888672 0.276855)"/>
</clipPath>
</defs>
</svg>
