<svg width="597" height="557" viewBox="0 0 597 557" fill="none" xmlns="http://www.w3.org/2000/svg">
<path d="M227.488 12.7199C227.488 12.7199 310.668 2.13989 376.898 62.3899C443.128 122.64 462.388 217.73 480.038 294.39C497.688 371.05 463.348 437.59 398.468 457.18C333.588 476.77 304.628 420.64 223.998 400.64C143.368 380.64 118.998 387.43 61.6976 326.88C4.39759 266.33 15.8976 155.41 86.4876 86.9299C157.078 18.4499 227.488 12.7199 227.488 12.7199Z" fill="#263238" fill-opacity="0.3"/>
<path opacity="0.75" d="M227.488 12.7199C227.488 12.7199 310.668 2.13989 376.898 62.3899C443.128 122.64 462.388 217.73 480.038 294.39C497.688 371.05 463.348 437.59 398.468 457.18C333.588 476.77 304.628 420.64 223.998 400.64C143.368 380.64 118.998 387.43 61.6976 326.88C4.39759 266.33 15.8976 155.41 86.4876 86.9299C157.078 18.4499 227.488 12.7199 227.488 12.7199Z" fill="#263238" fill-opacity="0.3"/>
<path d="M74.6318 481.304C75.2141 480.954 75.8806 480.769 76.56 480.769C77.2393 480.769 77.9058 480.954 78.4881 481.304L79.4741 481.878L80.4974 482.39C81.1168 482.668 81.6461 483.113 82.0255 483.676C82.4049 484.239 82.6192 484.897 82.644 485.575L82.7937 490.333L98.2565 489.846L98.1067 485.1C98.0981 484.42 98.2747 483.75 98.6177 483.163C98.9607 482.575 99.4571 482.092 100.054 481.766C100.729 481.386 101.383 480.969 102.013 480.517C102.57 480.133 103.22 479.907 103.894 479.863C104.569 479.819 105.243 479.959 105.844 480.267L110.025 482.515L117.338 468.865L113.158 466.63C112.566 466.3 112.074 465.815 111.736 465.228C111.397 464.641 111.225 463.973 111.236 463.295C111.261 462.524 111.236 461.752 111.161 460.985C111.112 460.322 111.239 459.658 111.531 459.061C111.823 458.464 112.268 457.956 112.821 457.588L116.852 455.09L108.702 441.939L104.646 444.437C104.069 444.795 103.403 444.985 102.724 444.985C102.045 444.985 101.379 444.795 100.802 444.437C100.478 444.237 100.153 444.05 99.8165 443.875L98.7931 443.363C98.1745 443.081 97.6463 442.633 97.2672 442.069C96.8882 441.504 96.6733 440.845 96.6465 440.166L96.5966 435.383L81.1464 435.857L81.2961 440.603C81.3048 441.283 81.1281 441.953 80.7851 442.541C80.4421 443.128 79.9457 443.611 79.3493 443.937C78.6738 444.318 78.0197 444.734 77.3899 445.186C76.8359 445.582 76.1826 445.815 75.5035 445.859C74.8244 445.903 74.1465 445.756 73.546 445.436L69.3777 443.201L62.0645 456.851L66.2328 459.086C66.8246 459.416 67.3159 459.9 67.6544 460.488C67.9929 461.075 68.1658 461.743 68.1547 462.421C68.1358 463.192 68.1608 463.963 68.2296 464.731C68.2874 465.411 68.1587 466.093 67.8574 466.705C67.5561 467.317 67.0936 467.835 66.5198 468.203L62.4888 470.701L70.6507 483.852L74.6318 481.304ZM78.5006 456.876C79.6841 454.666 81.4959 452.857 83.7068 451.678C85.9178 450.498 88.4285 450.001 90.9216 450.25C93.4147 450.499 95.7781 451.482 97.7129 453.074C99.6478 454.667 101.067 456.798 101.792 459.199C102.516 461.599 102.513 464.16 101.783 466.558C101.052 468.957 99.6279 471.084 97.6893 472.672C95.7506 474.261 93.3848 475.238 90.8911 475.48C88.3974 475.723 85.8879 475.22 83.6798 474.035C80.7218 472.445 78.5152 469.744 77.5442 466.527C76.5732 463.31 76.9172 459.839 78.5006 456.876Z" fill="#EBEBEB"/>
<path d="M118.386 426.266C118.63 425.856 118.984 425.521 119.407 425.301C119.83 425.08 120.306 424.982 120.782 425.017H122.379C122.853 424.984 123.327 425.084 123.748 425.304C124.168 425.525 124.52 425.858 124.763 426.266L126.423 429.151L135.808 423.73L134.148 420.846C133.913 420.432 133.797 419.96 133.812 419.484C133.827 419.008 133.974 418.546 134.235 418.148C134.537 417.701 134.808 417.233 135.047 416.749C135.262 416.324 135.59 415.966 135.995 415.715C136.4 415.464 136.867 415.329 137.343 415.326H140.663V404.485H137.343C136.867 404.482 136.4 404.347 135.995 404.096C135.59 403.845 135.262 403.487 135.047 403.062C134.808 402.578 134.537 402.11 134.235 401.663C133.974 401.262 133.828 400.798 133.813 400.32C133.797 399.842 133.913 399.369 134.148 398.953L135.808 396.08L126.423 390.66L124.751 393.545C124.508 393.954 124.157 394.288 123.736 394.508C123.315 394.729 122.841 394.828 122.367 394.794H121.568H120.782C120.306 394.829 119.83 394.73 119.407 394.51C118.984 394.289 118.63 393.955 118.386 393.545L116.726 390.66L107.341 396.08L109.001 398.953C109.236 399.367 109.352 399.838 109.337 400.314C109.322 400.79 109.175 401.252 108.914 401.65C108.612 402.102 108.341 402.574 108.102 403.062C107.887 403.487 107.559 403.845 107.154 404.096C106.749 404.347 106.282 404.482 105.806 404.485H102.486V415.326H105.806C106.282 415.329 106.749 415.464 107.154 415.715C107.559 415.966 107.887 416.324 108.102 416.749C108.341 417.237 108.612 417.709 108.914 418.16C109.175 418.558 109.322 419.021 109.337 419.497C109.352 419.973 109.236 420.444 109.001 420.858L107.341 423.73L116.726 429.151L118.386 426.266ZM112.695 409.868C112.7 408.112 113.225 406.397 114.203 404.94C115.182 403.483 116.57 402.349 118.193 401.681C119.815 401.013 121.599 400.842 123.319 401.188C125.039 401.534 126.618 402.383 127.856 403.627C129.094 404.871 129.935 406.455 130.274 408.177C130.613 409.9 130.434 411.685 129.76 413.305C129.086 414.926 127.947 416.311 126.486 417.284C125.026 418.257 123.31 418.775 121.556 418.772C119.201 418.766 116.946 417.824 115.284 416.155C113.623 414.485 112.692 412.224 112.695 409.868Z" fill="#EBEBEB"/>
<path d="M527.393 94.1514C527.802 94.3938 528.135 94.7454 528.355 95.1667C528.576 95.588 528.675 96.0624 528.641 96.5368C528.641 96.8116 528.641 97.0738 528.641 97.3361C528.641 97.5983 528.641 97.8731 528.641 98.1478C528.673 98.622 528.574 99.0959 528.353 99.517C528.133 99.938 527.801 100.29 527.393 100.533L524.51 102.194L529.939 111.548L532.809 109.887C533.224 109.65 533.697 109.532 534.175 109.547C534.654 109.563 535.118 109.711 535.517 109.975C535.967 110.272 536.434 110.543 536.915 110.787C537.354 110.996 537.725 111.325 537.986 111.736C538.246 112.147 538.385 112.623 538.388 113.109V116.431H549.22V113.109C549.225 112.634 549.36 112.17 549.611 111.767C549.862 111.364 550.219 111.037 550.643 110.824C551.124 110.58 551.591 110.309 552.041 110.012C552.44 109.748 552.904 109.6 553.382 109.585C553.861 109.569 554.334 109.687 554.749 109.925L557.619 111.586L563.036 102.194L560.14 100.521C559.732 100.277 559.4 99.9255 559.179 99.5045C558.959 99.0834 558.86 98.6095 558.892 98.1354C558.892 97.8731 558.892 97.6108 558.892 97.3361C558.892 97.0613 558.892 96.8116 558.892 96.5368C558.858 96.0624 558.957 95.588 559.177 95.1667C559.398 94.7454 559.731 94.3938 560.14 94.1514L563.023 92.4904L557.607 83.0989L554.736 84.7599C554.322 84.9961 553.851 85.112 553.374 85.0943C552.898 85.0767 552.436 84.9262 552.041 84.66C551.591 84.3727 551.117 84.098 550.63 83.8482C550.2 83.6421 549.836 83.3204 549.578 82.919C549.32 82.5176 549.179 82.0523 549.17 81.5752V78.2407H538.388V81.5752C538.384 82.0505 538.25 82.5157 537.999 82.9191C537.748 83.3225 537.39 83.6484 536.965 83.8607C536.478 84.1105 536.004 84.3852 535.555 84.6725C535.159 84.9387 534.697 85.0892 534.221 85.1068C533.745 85.1245 533.273 85.0086 532.859 84.7724L529.988 83.1114L524.572 92.5029L527.393 94.1514ZM543.754 88.4566C545.509 88.4566 547.224 88.9773 548.684 89.953C550.143 90.9287 551.28 92.3155 551.952 93.938C552.623 95.5606 552.799 97.3459 552.457 99.0684C552.114 100.791 551.269 102.373 550.028 103.615C548.787 104.857 547.206 105.702 545.485 106.045C543.764 106.388 541.98 106.212 540.358 105.54C538.737 104.868 537.351 103.73 536.376 102.269C535.401 100.809 534.881 99.0923 534.881 97.3361C534.884 94.9821 535.82 92.7255 537.483 91.061C539.147 89.3964 541.402 88.4599 543.754 88.4566Z" fill="#EBEBEB"/>
<path d="M508.436 168.06C507.181 176.518 503.526 184.437 497.904 190.877C492.283 197.316 484.932 202.005 476.725 204.385C468.519 206.766 459.801 206.738 451.61 204.306C443.419 201.873 436.098 197.138 430.517 190.663C424.937 184.188 421.332 176.245 420.131 167.779C418.929 159.314 420.183 150.681 423.742 142.908C427.3 135.134 433.015 128.547 440.206 123.928C447.397 119.31 455.762 116.855 464.307 116.856V161.503L508.436 168.06Z" fill="#EBEBEB"/>
<path d="M517.934 152.424C517.937 154.615 517.774 156.802 517.447 158.968L473.33 152.424V107.802C479.189 107.797 484.991 108.948 490.405 111.189C495.819 113.43 500.738 116.718 504.881 120.864C509.023 125.01 512.309 129.932 514.548 135.35C516.788 140.767 517.939 146.574 517.934 152.436V152.424Z" fill="#DBDBDB"/>
<path d="M93.0144 241.432V278.236L69.1401 306.223C63.422 301.337 59.3381 294.813 57.4387 287.533C55.5393 280.252 55.9158 272.563 58.5173 265.503C61.1188 258.443 65.8203 252.35 71.9885 248.046C78.1566 243.742 85.4948 241.434 93.0144 241.432Z" fill="#EBEBEB"/>
<path d="M137.282 281.983C137.28 289.014 135.266 295.897 131.477 301.819C127.689 307.74 122.284 312.452 115.904 315.396C109.523 318.341 102.433 319.394 95.4731 318.433C88.5129 317.471 81.9736 314.534 76.6289 309.97L100.491 281.983V245.178C105.321 245.175 110.105 246.125 114.569 247.973C119.033 249.822 123.088 252.532 126.504 255.951C129.92 259.369 132.629 263.428 134.476 267.894C136.323 272.361 137.273 277.149 137.269 281.983H137.282Z" fill="#EBEBEB"/>
<path d="M137.282 281.983C137.28 289.014 135.266 295.897 131.477 301.819C127.689 307.74 122.284 312.452 115.904 315.396C109.523 318.341 102.433 319.394 95.4731 318.433C88.5129 317.471 81.9736 314.534 76.6289 309.97L100.491 281.983V245.178C105.321 245.175 110.105 246.125 114.569 247.973C119.033 249.822 123.088 252.532 126.504 255.951C129.92 259.369 132.629 263.428 134.476 267.894C136.323 272.361 137.273 277.149 137.269 281.983H137.282Z" fill="#DBDBDB"/>
<path d="M77.2636 212.82H76.0156V260.29H77.2636V212.82Z" fill="#C7C7C7"/>
<path d="M76.628 213.444C75.845 213.444 75.0797 213.212 74.4288 212.776C73.7779 212.341 73.2709 211.722 72.9718 210.997C72.6728 210.273 72.5951 209.477 72.7488 208.708C72.9025 207.94 73.2805 207.235 73.835 206.681C74.3896 206.128 75.0956 205.752 75.8639 205.601C76.6321 205.45 77.428 205.53 78.1506 205.831C78.8733 206.133 79.4903 206.642 79.9235 207.295C80.3567 207.948 80.5866 208.714 80.5842 209.498C80.5809 210.546 80.1626 211.549 79.421 212.289C78.6795 213.029 77.6751 213.444 76.628 213.444ZM76.628 206.788C76.0924 206.788 75.5688 206.947 75.1234 207.244C74.6781 207.542 74.331 207.966 74.126 208.461C73.921 208.956 73.8674 209.501 73.9719 210.027C74.0764 210.552 74.3343 211.035 74.7131 211.414C75.0918 211.793 75.5743 212.051 76.0997 212.156C76.625 212.26 77.1695 212.207 77.6644 212.002C78.1592 211.796 78.5822 211.449 78.8798 211.003C79.1773 210.558 79.3362 210.034 79.3362 209.498C79.3362 208.779 79.0509 208.09 78.543 207.582C78.0351 207.073 77.3463 206.788 76.628 206.788Z" fill="#C7C7C7"/>
<path d="M123.578 206.163H86.7246V207.824H123.578V206.163Z" fill="#C7C7C7"/>
<path d="M107.579 209.498H86.7246V211.159H107.579V209.498Z" fill="#C7C7C7"/>
<path d="M516.511 177.364H469.074V178.613H516.511V177.364Z" fill="#C7C7C7"/>
<path d="M519.842 181.947C519.059 181.95 518.293 181.72 517.64 181.286C516.988 180.853 516.479 180.235 516.178 179.512C515.876 178.789 515.796 177.993 515.948 177.224C516.099 176.455 516.475 175.748 517.027 175.194C517.58 174.639 518.285 174.26 519.053 174.107C519.821 173.953 520.617 174.03 521.34 174.33C522.064 174.629 522.682 175.136 523.118 175.788C523.553 176.439 523.785 177.205 523.785 177.988C523.787 178.508 523.686 179.022 523.489 179.503C523.291 179.983 523.001 180.419 522.635 180.787C522.268 181.155 521.833 181.447 521.354 181.646C520.874 181.845 520.361 181.947 519.842 181.947ZM519.842 175.291C519.305 175.288 518.78 175.446 518.332 175.742C517.885 176.039 517.536 176.462 517.33 176.958C517.123 177.454 517.068 178 517.173 178.527C517.277 179.053 517.535 179.537 517.914 179.917C518.294 180.297 518.777 180.555 519.304 180.66C519.83 180.764 520.376 180.709 520.871 180.502C521.367 180.296 521.79 179.946 522.086 179.499C522.383 179.051 522.54 178.526 522.537 177.988C522.544 177.63 522.479 177.274 522.347 176.941C522.214 176.608 522.017 176.304 521.766 176.049C521.515 175.793 521.215 175.59 520.885 175.451C520.555 175.312 520.2 175.241 519.842 175.241V175.291Z" fill="#C7C7C7"/>
<path d="M568.75 175.491H531.896V177.152H568.75V175.491Z" fill="#C7C7C7"/>
<path d="M552.751 178.825H531.896V180.486H552.751V178.825Z" fill="#C7C7C7"/>
<path d="M263.541 165.25H92.041V53.5503H263.541V165.25ZM93.289 164.001H262.293V54.7992H93.289V164.001Z" fill="#EBEBEB"/>
<path d="M263.541 69.486H92.041V53.5503H263.541V69.486ZM93.289 68.2371H262.293V54.7992H93.289V68.2371Z" fill="#EBEBEB"/>
<path d="M106.429 61.5931C106.429 62.3341 106.21 63.0585 105.798 63.6746C105.387 64.2907 104.802 64.7709 104.118 65.0545C103.434 65.3381 102.681 65.4123 101.955 65.2677C101.229 65.1232 100.562 64.7663 100.038 64.2423C99.5144 63.7184 99.1578 63.0508 99.0133 62.324C98.8689 61.5972 98.943 60.8439 99.2264 60.1593C99.5098 59.4747 99.9897 58.8895 100.605 58.4779C101.221 58.0662 101.945 57.8464 102.685 57.8464C103.678 57.8464 104.631 58.2412 105.333 58.9438C106.035 59.6464 106.429 60.5994 106.429 61.5931Z" fill="#C7C7C7"/>
<path d="M121.556 61.5931C121.556 62.3341 121.337 63.0585 120.925 63.6746C120.514 64.2907 119.929 64.7709 119.245 65.0545C118.561 65.3381 117.808 65.4123 117.082 65.2677C116.356 65.1232 115.689 64.7663 115.165 64.2423C114.641 63.7184 114.285 63.0508 114.14 62.324C113.996 61.5972 114.07 60.8439 114.353 60.1593C114.637 59.4747 115.117 58.8895 115.732 58.4779C116.348 58.0662 117.072 57.8464 117.812 57.8464C118.805 57.8464 119.758 58.2412 120.46 58.9438C121.162 59.6464 121.556 60.5994 121.556 61.5931Z" fill="#EBEBEB"/>
<path d="M136.533 61.5931C136.533 62.3341 136.313 63.0585 135.902 63.6746C135.491 64.2907 134.906 64.7709 134.222 65.0545C133.538 65.3381 132.785 65.4123 132.058 65.2677C131.332 65.1232 130.665 64.7663 130.142 64.2423C129.618 63.7184 129.261 63.0508 129.117 62.324C128.972 61.5972 129.047 60.8439 129.33 60.1593C129.613 59.4747 130.093 58.8895 130.709 58.4779C131.325 58.0662 132.048 57.8464 132.789 57.8464C133.782 57.8464 134.734 58.2412 135.436 58.9438C136.138 59.6464 136.533 60.5994 136.533 61.5931Z" fill="#30BABA"/>
<path d="M37.5801 529.273L106.307 528.973L175.035 528.861L312.502 528.649L449.969 528.861L518.697 528.961L587.424 529.273L518.697 529.573L449.969 529.685L312.502 529.898L175.035 529.685L106.307 529.573L37.5801 529.273Z" fill="#263238"/>
<path d="M499.015 87.7693H126V505.844H499.015V87.7693Z" fill="#37474F"/>
<path d="M493.486 94.3884H132.477V360.949H493.486V94.3884Z" fill="#263238"/>
<path d="M387.233 118.479H238.721V121.777H387.233V118.479Z" fill="#455A64"/>
<path d="M361.846 125.348H264.115V128.645H361.846V125.348Z" fill="#455A64"/>
<path d="M364.007 313.23C360.382 315.225 356.35 316.363 352.218 316.559C348.086 316.754 343.964 316.001 340.167 314.357C336.371 312.713 333.001 310.222 330.314 307.074C327.628 303.926 325.697 300.205 324.669 296.195C323.641 292.185 323.543 287.993 324.383 283.94C325.223 279.887 326.979 276.08 329.515 272.81C332.052 269.54 335.303 266.894 339.018 265.074C342.734 263.255 346.816 262.31 350.953 262.313V289.438L364.007 313.23Z" fill="white"/>
<path d="M367.025 267.658L350.951 289.488V262.313C356.745 262.314 362.383 264.189 367.025 267.658Z" fill="#30BABA"/>
<path d="M378.059 289.438C378.073 296.259 375.504 302.832 370.87 307.834L350.902 289.438L367.027 267.658C370.443 270.169 373.222 273.448 375.138 277.232C377.055 281.015 378.055 285.197 378.059 289.438Z" fill="#A6A6A6"/>
<path d="M380.617 320.423C378.638 322.579 376.324 324.401 373.765 325.818L360.711 302.089L380.617 320.423Z" fill="#455A64"/>
<path d="M277.769 263.349L270.281 289.438V316.577C263.191 316.424 256.443 313.499 251.483 308.427C246.522 303.356 243.744 296.541 243.744 289.445C243.744 282.348 246.522 275.534 251.483 270.462C256.443 265.39 263.191 262.465 270.281 262.313C272.813 262.312 275.333 262.661 277.769 263.349Z" fill="#A6A6A6"/>
<path d="M286.381 311.294C281.737 314.733 276.11 316.585 270.332 316.577V289.438L286.381 311.294Z" fill="white"/>
<path d="M297.439 289.439C297.443 293.695 296.444 297.892 294.523 301.69C292.601 305.487 289.812 308.778 286.381 311.294L270.332 289.439L291.411 272.391C295.318 277.212 297.447 283.232 297.439 289.439Z" fill="#455A64"/>
<path d="M297.437 263.599L276.309 280.659L283.797 254.557C289.164 256.098 293.926 259.255 297.437 263.599Z" fill="#30BABA"/>
<path d="M189.699 262.313V289.438L171.478 309.495C167.433 305.81 164.598 300.987 163.343 295.659C162.089 290.331 162.475 284.747 164.45 279.643C166.425 274.539 169.898 270.151 174.411 267.058C178.924 263.965 184.266 262.311 189.736 262.313H189.699Z" fill="#455A64"/>
<path d="M209.116 270.493L189.697 289.438V262.313C193.316 262.308 196.899 263.03 200.235 264.435C203.57 265.84 206.59 267.9 209.116 270.493Z" fill="#30BABA"/>
<path d="M216.816 289.438C216.819 293.466 215.925 297.444 214.198 301.082C212.47 304.72 209.954 307.927 206.832 310.47L189.697 289.438L209.116 270.493C214.056 275.56 216.819 282.359 216.816 289.438Z" fill="#A6A6A6"/>
<path d="M206.833 317.613C201.794 321.72 195.449 323.879 188.953 323.698C182.457 323.517 176.242 321.007 171.439 316.627L189.698 296.582L206.833 317.613Z" fill="white"/>
<path d="M431.584 262.313V316.577C424.494 316.424 417.746 313.499 412.785 308.427C407.825 303.356 405.047 296.541 405.047 289.445C405.047 282.348 407.825 275.534 412.785 270.462C417.746 265.39 424.494 262.465 431.584 262.313Z" fill="#30BABA"/>
<path d="M438.423 263.187L431.584 289.413V262.313C433.891 262.315 436.189 262.609 438.423 263.187Z" fill="#263238"/>
<path d="M463.359 287.877C463.368 291.296 462.733 294.685 461.487 297.868L436.252 287.877L443.103 261.651C448.903 263.165 454.037 266.56 457.702 271.306C461.367 276.052 463.357 281.88 463.359 287.877Z" fill="#455A64"/>
<path d="M456.806 299.392C454.809 304.457 451.336 308.804 446.838 311.869C442.34 314.933 437.025 316.573 431.584 316.577V289.438L456.806 299.392Z" fill="#A6A6A6"/>
<path d="M208.854 332.537H177.205V335.584H208.854V332.537Z" fill="#455A64"/>
<path d="M198.209 338.882H177.205V341.929H198.209V338.882Z" fill="#455A64"/>
<path d="M172.064 332.487H162.592V341.966H172.064V332.487Z" fill="#455A64"/>
<path d="M289.477 332.537H257.828V335.584H289.477V332.537Z" fill="#455A64"/>
<path d="M278.832 338.882H257.828V341.929H278.832V338.882Z" fill="#455A64"/>
<path d="M252.697 332.487H243.225V341.966H252.697V332.487Z" fill="#A6A6A6"/>
<path d="M370.108 332.537H338.459V335.584H370.108V332.537Z" fill="#455A64"/>
<path d="M359.463 338.882H338.459V341.929H359.463V338.882Z" fill="#455A64"/>
<path d="M333.316 332.487H323.844V341.966H333.316V332.487Z" fill="white"/>
<path d="M450.729 332.537H419.08V335.584H450.729V332.537Z" fill="#455A64"/>
<path d="M440.084 338.881H419.08V341.929H440.084V338.881Z" fill="#455A64"/>
<path d="M413.953 332.487H404.48V341.966H413.953V332.487Z" fill="#30BABA"/>
<path d="M162.592 145.118L237.784 144.931C262.856 144.931 287.916 144.931 312.976 145.118C287.916 145.293 262.856 145.243 237.784 145.318L162.592 145.118Z" fill="#455A64"/>
<path d="M162.592 151.1L237.784 150.913C262.856 150.913 287.916 150.913 312.976 151.1C287.916 151.275 262.856 151.225 237.784 151.3L162.592 151.1Z" fill="#455A64"/>
<path d="M162.592 157.082L237.784 156.883C262.856 156.958 287.916 156.883 312.976 157.082C287.916 157.257 262.856 157.207 237.784 157.282L162.592 157.082Z" fill="#455A64"/>
<path d="M162.592 163.064L237.784 162.864C262.856 162.939 287.916 162.864 312.976 163.064C287.916 163.226 262.856 163.189 237.784 163.251L162.592 163.064Z" fill="#455A64"/>
<path d="M162.592 168.996L237.784 168.797C262.856 168.872 287.916 168.797 312.976 168.996C287.916 169.159 262.856 169.121 237.784 169.184L162.592 168.996Z" fill="#455A64"/>
<path d="M162.592 175.028L237.784 174.829C262.856 174.904 287.916 174.829 312.976 175.028C287.916 175.191 262.856 175.153 237.784 175.216L162.592 175.028Z" fill="#455A64"/>
<path d="M162.592 180.998L237.784 180.811C262.856 180.811 287.916 180.811 312.976 180.998C287.916 181.173 262.856 181.135 237.784 181.198L162.592 180.998Z" fill="#455A64"/>
<path d="M162.592 186.98L237.784 186.793C262.856 186.855 287.916 186.793 312.976 186.98C287.916 187.155 262.856 187.105 237.784 187.18L162.592 186.98Z" fill="#455A64"/>
<path d="M162.592 192.962L237.784 192.775C262.856 192.838 287.916 192.775 312.976 192.962C287.916 193.137 262.856 193.087 237.784 193.162L162.592 192.962Z" fill="#455A64"/>
<path d="M162.592 198.969L237.784 198.77C262.856 198.844 287.916 198.77 312.976 198.969C287.916 199.132 262.856 199.094 237.784 199.169L162.592 198.969Z" fill="#455A64"/>
<path d="M162.592 204.927L237.784 204.727C262.856 204.802 287.916 204.727 312.976 204.927C287.916 205.089 262.856 205.052 237.784 205.114L162.592 204.927Z" fill="#455A64"/>
<path d="M162.592 210.909L237.784 210.709C262.856 210.784 287.916 210.709 312.976 210.909C287.916 211.071 262.856 211.034 237.784 211.096L162.592 210.909Z" fill="#455A64"/>
<path d="M162.592 216.891L237.784 216.691C262.856 216.754 287.916 216.691 312.976 216.891C287.916 217.053 262.856 217.016 237.784 217.078L162.592 216.891Z" fill="#455A64"/>
<path d="M162.592 222.861L237.784 222.673C262.856 222.736 287.916 222.673 312.976 222.861C287.916 223.036 262.856 222.986 237.784 223.06L162.592 222.861Z" fill="#455A64"/>
<path d="M162.592 228.843L237.784 228.656C262.856 228.656 287.916 228.656 312.976 228.843C287.916 229.018 262.856 228.968 237.784 229.043L162.592 228.843Z" fill="#455A64"/>
<path d="M189.899 186.98H178.492V235.811H189.899V186.98Z" fill="#30BABA"/>
<path d="M211.063 166.324H199.656V235.811H211.063V166.324Z" fill="white"/>
<path d="M232.217 181.211H220.811V235.812H232.217V181.211Z" fill="#A6A6A6"/>
<path d="M253.372 163.064H241.965V235.824H253.372V163.064Z" fill="#30BABA"/>
<path d="M274.524 172.818H263.117V235.812H274.524V172.818Z" fill="white"/>
<path d="M295.678 208.511H284.271V235.811H295.678V208.511Z" fill="#A6A6A6"/>
<path d="M166.672 140.922L166.984 164.65L167.196 188.379C167.346 204.202 167.383 220.013 167.408 235.836L166.672 235.125H203.251L239.83 235.212L276.396 235.449L312.975 235.874L276.396 236.311L239.83 236.548L203.251 236.636H166.672H165.936V235.911C165.936 220.101 165.998 204.29 166.148 188.454L166.36 164.725L166.672 140.922Z" fill="#455A64"/>
<path d="M189.899 240.832H178.492V241.844H189.899V240.832Z" fill="#455A64"/>
<path d="M211.063 240.832H199.656V241.844H211.063V240.832Z" fill="#455A64"/>
<path d="M232.217 240.832H220.811V241.844H232.217V240.832Z" fill="#455A64"/>
<path d="M253.372 240.832H241.965V241.844H253.372V240.832Z" fill="#455A64"/>
<path d="M274.524 240.832H263.117V241.844H274.524V240.832Z" fill="#455A64"/>
<path d="M295.678 240.832H284.271V241.844H295.678V240.832Z" fill="#455A64"/>
<path d="M397.365 181.685C397.361 187.859 395.543 193.895 392.137 199.042C388.73 204.19 383.887 208.221 378.208 210.634L365.928 181.685H397.365Z" fill="#30BABA"/>
<path d="M361.923 179.524L374.203 208.486C374.203 208.486 374.203 208.486 374.141 208.486C373.18 208.873 372.219 209.235 371.258 209.535C366.56 210.999 361.585 211.337 356.732 210.523C351.88 209.709 347.286 207.766 343.322 204.849C339.358 201.932 336.135 198.124 333.912 193.732C331.688 189.339 330.528 184.486 330.523 179.562C330.53 176.396 331.006 173.248 331.934 170.22C333.443 165.357 336.112 160.935 339.711 157.334C343.309 153.733 347.728 151.062 352.588 149.551C358.685 147.659 365.211 147.659 371.308 149.551C377.706 151.531 383.303 155.509 387.278 160.903C391.253 166.297 393.398 172.823 393.398 179.524H361.923Z" fill="#30BABA"/>
<path d="M361.923 179.524L374.203 208.486C374.203 208.486 374.203 208.486 374.141 208.486C373.18 208.873 372.219 209.235 371.258 209.535C366.56 210.999 361.585 211.337 356.732 210.523C351.88 209.709 347.286 207.766 343.322 204.849C339.358 201.932 336.135 198.124 333.912 193.732C331.688 189.339 330.528 184.486 330.523 179.562C330.542 172.052 333.246 164.797 338.146 159.108C343.046 153.42 349.818 149.674 357.238 148.548C364.658 147.423 372.235 148.992 378.6 152.971C384.964 156.951 389.695 163.078 391.938 170.245C392.871 173.271 393.347 176.42 393.348 179.587L361.923 179.524Z" fill="#A6A6A6"/>
<path d="M361.936 179.537L341.456 203.366C337.463 199.93 334.397 195.545 332.541 190.614C330.684 185.682 330.096 180.363 330.831 175.145C331.565 169.927 333.599 164.977 336.745 160.751C339.891 156.525 344.049 153.159 348.835 150.961C353.621 148.763 358.882 147.805 364.136 148.174C369.389 148.543 374.465 150.227 378.897 153.073C383.329 155.918 386.976 159.833 389.501 164.458C392.026 169.082 393.349 174.267 393.348 179.537H361.936Z" fill="#455A64"/>
<path d="M413.627 221.187H389.89L360.5 191.776L360.924 191.351L390.14 220.588H413.627V221.187Z" fill="#263238"/>
<path d="M362.36 189.915H359.053V193.225H362.36V189.915Z" fill="#263238"/>
<path d="M413.625 198.433H386.88L374.176 185.731L374.6 185.307L387.13 197.833H413.625V198.433Z" fill="#263238"/>
<path d="M376.051 183.858H372.744V187.168H376.051V183.858Z" fill="#263238"/>
<path d="M413.627 175.915H373.18V176.527H413.627V175.915Z" fill="#263238"/>
<path d="M374.403 174.566H371.096V177.876H374.403V174.566Z" fill="#263238"/>
<path d="M452.202 172.906H422.824V175.641H452.202V172.906Z" fill="#455A64"/>
<path d="M460.951 178.613H422.824V181.348H460.951V178.613Z" fill="#455A64"/>
<path d="M443.204 184.32H422.824V187.055H443.204V184.32Z" fill="#455A64"/>
<path d="M416.934 172.905H410.307V179.537H416.934V172.905Z" fill="#455A64"/>
<path d="M455.784 194.998H422.824V197.733H455.784V194.998Z" fill="#455A64"/>
<path d="M450.305 200.718H422.824V203.453H450.305V200.718Z" fill="#455A64"/>
<path d="M460.951 206.425H422.824V209.16H460.951V206.425Z" fill="#455A64"/>
<path d="M416.934 194.998H410.307V201.63H416.934V194.998Z" fill="#30BABA"/>
<path d="M455.784 217.103H422.824V219.838H455.784V217.103Z" fill="#455A64"/>
<path d="M450.305 222.811H422.824V225.546H450.305V222.811Z" fill="#455A64"/>
<path d="M460.951 228.531H422.824V231.266H460.951V228.531Z" fill="#455A64"/>
<path d="M416.934 217.104H410.307V223.735H416.934V217.104Z" fill="#A6A6A6"/>
<path d="M298.985 367.93H132.477V498.701H298.985V367.93Z" fill="#263238"/>
<path d="M275.073 379.333H156.363V381.968H275.073V379.333Z" fill="#455A64"/>
<path d="M254.78 384.828H176.668V387.463H254.78V384.828Z" fill="#455A64"/>
<path d="M169.419 480.642H162.768V487.298H169.419V480.642Z" fill="#30BABA"/>
<path d="M246.932 480.642H174.049V482.615H246.932V480.642Z" fill="#455A64"/>
<path d="M221.136 485.337H174.049V487.311H221.136V485.337Z" fill="#455A64"/>
<path d="M158.359 413.777C177.479 413.652 196.598 413.689 215.767 413.639C234.937 413.589 254.006 413.639 273.175 413.777C254.056 413.889 234.937 413.864 215.767 413.914C196.598 413.964 177.479 413.864 158.359 413.777Z" fill="#455A64"/>
<path d="M158.359 425.092C177.479 424.967 196.598 425.004 215.767 424.954C234.937 424.904 254.006 424.954 273.175 425.092C254.056 425.216 234.937 425.179 215.767 425.229C196.598 425.279 177.479 425.204 158.359 425.092Z" fill="#455A64"/>
<path d="M158.359 436.431C177.479 436.319 196.598 436.344 215.767 436.294C234.937 436.244 254.006 436.294 273.175 436.431C254.056 436.556 234.937 436.519 215.767 436.569C196.598 436.619 177.479 436.556 158.359 436.431Z" fill="#455A64"/>
<path d="M158.359 447.771C177.479 447.659 196.598 447.684 215.767 447.634C234.937 447.584 254.006 447.634 273.175 447.771C254.056 447.896 234.937 447.871 215.767 447.921C196.598 447.971 177.479 447.896 158.359 447.771Z" fill="#455A64"/>
<path d="M158.359 459.124C177.479 458.999 196.598 459.036 215.767 458.986C234.937 458.936 254.006 458.986 273.175 459.124C254.056 459.236 234.937 459.211 215.767 459.261C196.598 459.311 177.479 459.236 158.359 459.124Z" fill="#455A64"/>
<path d="M181.462 406.371C181.636 416.974 181.586 427.602 181.661 438.167C181.736 448.733 181.661 459.398 181.462 469.964C181.287 459.361 181.337 448.733 181.262 438.167C181.187 427.602 181.299 416.974 181.462 406.371Z" fill="#455A64"/>
<path d="M201.304 406.371C201.466 416.974 201.429 427.602 201.491 438.167C201.553 448.733 201.491 459.398 201.304 469.964C201.129 459.361 201.166 448.733 201.104 438.167C201.042 427.602 201.129 416.974 201.304 406.371Z" fill="#455A64"/>
<path d="M221.135 406.371C221.31 416.974 221.26 427.602 221.335 438.167C221.41 448.733 221.335 459.398 221.135 469.964C220.973 459.361 221.01 448.733 220.948 438.167C220.886 427.602 220.973 416.974 221.135 406.371Z" fill="#455A64"/>
<path d="M240.977 406.371C241.139 416.974 241.102 427.602 241.164 438.167C241.226 448.733 241.164 459.398 240.977 469.964C240.802 459.361 240.852 448.733 240.777 438.167C240.702 427.602 240.802 416.974 240.977 406.371Z" fill="#455A64"/>
<path d="M260.809 406.371C260.984 416.974 260.934 427.602 261.009 438.167C261.084 448.733 261.009 459.398 260.809 469.964C260.647 459.361 260.684 448.733 260.622 438.167C260.559 427.602 260.647 416.974 260.809 406.371Z" fill="#455A64"/>
<path opacity="0.5" d="M161.256 450.894C164.75 450.894 166.847 439.366 171.801 439.366C176.756 439.366 177.28 447.771 181.461 447.771C185.642 447.771 185.504 433.01 191.12 433.01C196.736 433.01 195.426 439.004 201.304 439.004C207.182 439.004 204.948 425.092 211.088 425.092C217.229 425.092 214.745 444.262 221.072 444.262C225.116 444.262 226.688 438.168 231.518 438.168C234.713 438.168 236.598 441.215 240.778 441.215C244.959 441.215 245.87 429.513 251.099 429.513C256.328 429.513 256.915 436.432 260.746 436.432C264.578 436.432 265.975 425.092 273.014 425.092V469.977H161.193L161.256 450.894Z" fill="#30BABA"/>
<path d="M161.256 451.443V450.344C162.317 450.344 163.752 447.646 164.838 445.686C166.672 442.301 168.582 438.817 171.801 438.817C175.021 438.817 176.457 441.377 177.817 443.625C178.878 445.398 179.976 447.222 181.461 447.222C182.946 447.222 183.895 443.675 184.731 441.09C186.079 436.844 187.476 432.46 191.121 432.46C194.365 432.46 195.651 434.183 196.774 435.695C197.897 437.206 198.808 438.442 201.304 438.442C203.551 438.442 204.437 435.195 205.298 432.06C206.296 428.314 207.345 424.567 211.089 424.567C214.833 424.567 215.756 429.375 216.767 434.471C217.578 438.592 218.589 443.725 221.135 443.725C222.657 443.725 223.905 442.476 225.216 441.127C226.826 439.491 228.648 437.643 231.581 437.643C233.175 437.734 234.717 438.247 236.049 439.129C237.477 440.07 239.132 440.609 240.841 440.69C242.289 440.69 243.611 437.905 244.672 435.695C246.232 432.41 247.842 429.013 251.162 429.013C254.481 429.013 256.066 431.224 257.489 433.172C258.537 434.596 259.523 435.944 260.809 435.944C262.094 435.944 263.168 433.784 264.266 431.886C266.15 428.638 268.497 424.605 273.077 424.605V425.704C269.557 425.704 267.523 429.213 265.726 432.31C264.191 434.958 262.968 437.056 260.809 437.056C258.65 437.056 257.364 435.42 256.091 433.684C254.818 431.948 253.483 430.125 251.099 430.125C248.716 430.125 247.418 433.272 246.107 436.057C244.635 439.154 243.374 441.827 240.791 441.827C238.774 441.734 236.818 441.105 235.125 440.003C234.086 439.295 232.883 438.865 231.631 438.754C229.521 438.754 228.011 440.291 226.564 441.764C225.116 443.238 223.531 444.849 221.185 444.849C217.279 444.849 216.293 439.853 215.257 434.633C214.471 430.649 213.485 425.679 211.138 425.679C208.792 425.679 207.731 429.2 206.883 432.298C205.859 436.044 204.898 439.591 201.354 439.591C200.155 439.629 198.968 439.337 197.923 438.747C196.878 438.156 196.014 437.291 195.426 436.244C194.378 434.833 193.467 433.597 191.17 433.597C188.874 433.597 187.426 437.905 186.303 441.365C185.055 445.274 184.069 448.371 181.511 448.371C178.952 448.371 177.767 446.298 176.419 444.1C175.071 441.902 173.923 439.966 171.851 439.966C169.78 439.966 167.845 443.375 166.36 446.11C164.675 449.083 163.39 451.443 161.256 451.443Z" fill="#30BABA"/>
<path d="M161.255 407.058C161.38 417.548 161.492 428.026 161.505 438.517L161.617 469.976L161.255 469.714L217.166 469.789H245.121L273.076 469.926L245.121 470.064H217.166L161.255 470.139H160.881V469.976L161.006 438.529C161.018 428.026 161.13 417.523 161.255 407.058Z" fill="#455A64"/>
<path d="M493.486 367.93H305.912V498.701H493.486V367.93Z" fill="#263238"/>
<path d="M459.054 379.333H340.344V381.968H459.054V379.333Z" fill="#455A64"/>
<path d="M438.749 384.828H360.637V387.463H438.749V384.828Z" fill="#455A64"/>
<path d="M334.691 452.492H326.367V460.822H334.691V452.492Z" fill="#30BABA"/>
<path d="M385.321 452.492H340.48V454.952H385.321V452.492Z" fill="#455A64"/>
<path d="M399.399 458.362H340.48V460.822H399.399V458.362Z" fill="#455A64"/>
<path d="M334.691 468.278H326.367V476.608H334.691V468.278Z" fill="#455A64"/>
<path d="M374.551 468.278H340.48V470.738H374.551V468.278Z" fill="#455A64"/>
<path d="M399.399 474.147H340.48V476.608H399.399V474.147Z" fill="#455A64"/>
<path d="M353.099 420.146C353.097 423.671 351.814 427.076 349.489 429.724C347.163 432.372 343.955 434.084 340.462 434.54C336.968 434.996 333.429 434.165 330.503 432.202C327.576 430.239 325.464 427.278 324.558 423.871C323.652 420.464 324.016 416.844 325.581 413.686C327.146 410.527 329.805 408.046 333.064 406.705C336.322 405.364 339.956 405.255 343.289 406.397C346.621 407.54 349.425 409.856 351.177 412.915C352.437 415.116 353.1 417.609 353.099 420.146Z" fill="#455A64"/>
<path d="M351.189 412.915L338.584 420.146V405.609C341.141 405.61 343.654 406.286 345.867 407.569C348.08 408.851 349.916 410.695 351.189 412.915Z" fill="#30BABA"/>
<path d="M348.477 421.721C349.363 416.24 345.641 411.078 340.164 410.191C334.686 409.304 329.528 413.029 328.642 418.51C327.755 423.991 331.477 429.153 336.955 430.04C342.432 430.926 347.59 427.202 348.477 421.721Z" fill="white"/>
<path d="M342.766 417.911H334.404V419.097H342.766V417.911Z" fill="#263238"/>
<path d="M344.837 421.195H332.332V422.382H344.837V421.195Z" fill="#A6A6A6"/>
<path d="M393.733 420.146C393.736 420.857 393.682 421.567 393.571 422.269C393.013 425.961 391.046 429.292 388.084 431.562C385.122 433.832 381.397 434.865 377.69 434.443C373.983 434.021 370.584 432.177 368.207 429.299C365.831 426.421 364.662 422.734 364.946 419.011C365.231 415.288 366.946 411.821 369.733 409.338C372.519 406.856 376.158 405.55 379.886 405.697C383.614 405.844 387.14 407.432 389.722 410.127C392.304 412.821 393.742 416.413 393.733 420.146Z" fill="#455A64"/>
<path d="M393.734 420.146C393.737 420.857 393.683 421.567 393.571 422.269L379.207 420.146V405.609C381.115 405.607 383.005 405.982 384.768 406.712C386.531 407.442 388.133 408.513 389.483 409.863C390.832 411.213 391.902 412.817 392.631 414.581C393.361 416.346 393.735 418.237 393.734 420.146Z" fill="#30BABA"/>
<path d="M389.006 422.49C390.277 417.085 386.929 411.673 381.528 410.401C376.127 409.13 370.718 412.48 369.447 417.885C368.177 423.29 371.525 428.702 376.926 429.974C382.327 431.245 387.735 427.895 389.006 422.49Z" fill="white"/>
<path d="M383.387 417.911H375.025V419.097H383.387V417.911Z" fill="#263238"/>
<path d="M385.46 421.195H372.955V422.382H385.46V421.195Z" fill="#A6A6A6"/>
<path d="M434.644 420.146C434.642 423.671 433.359 427.076 431.033 429.724C428.708 432.372 425.5 434.084 422.007 434.54C418.513 434.996 414.974 434.165 412.047 432.202C409.121 430.239 407.008 427.278 406.103 423.871C405.197 420.464 405.561 416.844 407.126 413.686C408.691 410.527 411.35 408.046 414.608 406.705C417.867 405.364 421.501 405.255 424.833 406.397C428.166 407.54 430.97 409.856 432.722 412.915C433.982 415.116 434.645 417.609 434.644 420.146Z" fill="#455A64"/>
<path d="M434.643 420.146C434.652 423.092 433.767 425.971 432.104 428.402C430.442 430.833 428.08 432.701 425.333 433.759L420.129 420.196V405.609C422.036 405.609 423.924 405.985 425.686 406.716C427.448 407.447 429.049 408.518 430.396 409.868C431.744 411.218 432.813 412.82 433.542 414.584C434.271 416.348 434.645 418.238 434.643 420.146Z" fill="#30BABA"/>
<path d="M430.163 420.146C430.151 422.119 429.555 424.045 428.45 425.679C427.346 427.314 425.782 428.585 423.957 429.332C422.131 430.078 420.126 430.267 418.193 429.875C416.261 429.482 414.488 428.526 413.098 427.126C411.708 425.726 410.763 423.946 410.383 422.01C410.002 420.073 410.204 418.068 410.961 416.246C411.719 414.424 412.998 412.867 414.639 411.772C416.279 410.677 418.207 410.092 420.179 410.092C421.495 410.092 422.799 410.353 424.014 410.859C425.23 411.365 426.333 412.106 427.261 413.041C428.189 413.975 428.923 415.084 429.421 416.303C429.919 417.523 430.171 418.828 430.163 420.146Z" fill="white"/>
<path d="M424.309 417.911H415.947V419.097H424.309V417.911Z" fill="#263238"/>
<path d="M426.382 421.195H413.877V422.382H426.382V421.195Z" fill="#A6A6A6"/>
<path d="M475.341 420.146C475.339 423.671 474.056 427.076 471.731 429.724C469.406 432.373 466.197 434.085 462.704 434.54C459.211 434.996 455.671 434.165 452.745 432.202C449.819 430.239 447.706 427.278 446.8 423.871C445.895 420.464 446.258 416.844 447.823 413.686C449.388 410.527 452.048 408.046 455.306 406.705C458.564 405.364 462.198 405.255 465.531 406.397C468.863 407.54 471.667 409.857 473.419 412.915C474.68 415.116 475.343 417.609 475.341 420.146Z" fill="#455A64"/>
<path d="M475.342 420.146C475.351 422.927 474.564 425.652 473.072 427.999C471.581 430.345 469.448 432.215 466.927 433.385C464.406 434.555 461.602 434.977 458.849 434.6C456.095 434.224 453.508 433.065 451.393 431.261L460.815 420.209V405.609C462.723 405.607 464.613 405.982 466.376 406.712C468.139 407.442 469.741 408.513 471.091 409.863C472.44 411.213 473.51 412.817 474.239 414.581C474.969 416.346 475.343 418.237 475.342 420.146Z" fill="#30BABA"/>
<path d="M470.696 421.861C471.655 416.392 468.003 411.18 462.538 410.22C457.073 409.26 451.865 412.915 450.906 418.383C449.946 423.852 453.598 429.064 459.063 430.024C464.528 430.984 469.736 427.33 470.696 421.861Z" fill="white"/>
<path d="M464.994 417.911H456.633V419.097H464.994V417.911Z" fill="#263238"/>
<path d="M467.066 421.195H454.561V422.382H467.066V421.195Z" fill="#A6A6A6"/>
<path d="M499.015 77.4412H126V87.7694H499.015V77.4412Z" fill="#A6A6A6"/>
<path d="M134.199 82.6113C134.199 83.1053 134.053 83.5882 133.778 83.999C133.504 84.4097 133.114 84.7299 132.658 84.9189C132.202 85.108 131.7 85.1574 131.216 85.061C130.732 84.9647 130.287 84.7268 129.938 84.3775C129.589 84.0281 129.351 83.5831 129.255 83.0986C129.159 82.6141 129.208 82.1118 129.397 81.6554C129.586 81.199 129.906 80.8089 130.316 80.5345C130.727 80.26 131.209 80.1135 131.703 80.1135C132.36 80.1294 132.986 80.3976 133.45 80.8626C133.915 81.3277 134.183 81.9538 134.199 82.6113Z" fill="#C7C7C7"/>
<path d="M144.644 82.6113C144.644 83.1053 144.498 83.5882 144.224 83.999C143.949 84.4097 143.56 84.7299 143.104 84.9189C142.647 85.108 142.146 85.1574 141.661 85.061C141.177 84.9647 140.732 84.7268 140.383 84.3775C140.034 84.0281 139.797 83.5831 139.7 83.0986C139.604 82.6141 139.653 82.1118 139.842 81.6554C140.031 81.199 140.351 80.8089 140.762 80.5345C141.172 80.26 141.655 80.1135 142.148 80.1135C142.805 80.1294 143.431 80.3976 143.896 80.8626C144.36 81.3277 144.629 81.9538 144.644 82.6113Z" fill="white"/>
<path d="M155.091 82.6113C155.103 83.1201 154.964 83.6211 154.69 84.0503C154.417 84.4794 154.022 84.8173 153.555 85.0206C153.089 85.224 152.573 85.2837 152.072 85.1921C151.572 85.1005 151.11 84.8617 150.746 84.5063C150.382 84.1508 150.132 83.6949 150.029 83.1966C149.925 82.6984 149.972 82.1804 150.163 81.7089C150.355 81.2375 150.683 80.8339 151.105 80.5497C151.527 80.2655 152.024 80.1137 152.532 80.1135C153.2 80.1133 153.842 80.3745 154.32 80.8412C154.798 81.3079 155.074 81.9432 155.091 82.6113Z" fill="#30BABA"/>
</svg>
