<svg width="477" height="333" viewBox="0 0 477 333" fill="none" xmlns="http://www.w3.org/2000/svg">
<path d="M0 36.1562C0 16.274 16.254 0.15625 36.3044 0.15625H440.696C460.746 0.15625 477 16.274 477 36.1562V296.156C477 316.039 460.746 332.156 440.696 332.156H36.3044C16.2541 332.156 0 316.039 0 296.156V36.1562Z" fill="white" fill-opacity="0.06"/>
<path d="M200.008 100.53C248.875 76.4372 299.137 44.9327 355.906 57.8255C373.508 61.823 389.527 71.8163 400.355 86.3447C429.308 125.193 426.954 184.697 411.223 228.427C409.17 234.134 406.607 239.669 403.309 244.766C387.343 269.441 360.438 270.604 334.488 263.47C312.527 257.433 293.071 251.222 270.385 257.36C257.82 260.761 245.644 265.434 233.126 268.99C216.082 273.833 198.511 277.122 180.76 277.455C133.801 278.337 80.1593 254.349 75.9988 201.838C75.7291 198.435 75.6814 195.015 75.8343 191.605C76.7723 170.642 83.6912 149.648 102.869 138.765C122.15 127.822 145.025 123.496 165.65 115.735C177.377 111.322 188.757 106.077 200.008 100.53Z" fill="#263238"/>
<path d="M71.3301 266.369H419.362" stroke="#263238" stroke-miterlimit="10" stroke-linecap="round" stroke-linejoin="round"/>
<path d="M340.031 202.516V203.771H338.777" stroke="#263238" stroke-miterlimit="10"/>
<path d="M336.232 203.771H199.982" stroke="#263238" stroke-miterlimit="10" stroke-dasharray="5.08 5.08"/>
<path d="M198.708 203.771H197.455V202.516" stroke="#263238" stroke-miterlimit="10"/>
<path d="M197.455 200.003V75.5972" stroke="#263238" stroke-miterlimit="10" stroke-dasharray="5.01 5.01"/>
<path d="M197.455 74.3404V73.0854H198.708" stroke="#263238" stroke-miterlimit="10"/>
<path d="M201.256 73.0854H337.505" stroke="#263238" stroke-miterlimit="10" stroke-dasharray="5.08 5.08"/>
<path d="M338.777 73.0854H340.031V74.3404" stroke="#263238" stroke-miterlimit="10"/>
<path d="M340.031 76.8535V201.26" stroke="#263238" stroke-miterlimit="10" stroke-dasharray="5.01 5.01"/>
<path d="M179.642 242.783V244.038H178.389" stroke="#263238" stroke-miterlimit="10"/>
<path d="M175.843 244.039H70.1992" stroke="#263238" stroke-miterlimit="10" stroke-dasharray="5.08 5.08"/>
<path d="M68.9272 244.038H67.6738V242.783" stroke="#263238" stroke-miterlimit="10"/>
<path d="M67.6738 240.308V142.517" stroke="#263238" stroke-miterlimit="10" stroke-dasharray="4.93 4.93"/>
<path d="M67.6738 141.278V140.023H68.9272" stroke="#263238" stroke-miterlimit="10"/>
<path d="M71.4727 140.023H177.117" stroke="#263238" stroke-miterlimit="10" stroke-dasharray="5.08 5.08"/>
<path d="M178.389 140.023H179.642V141.278" stroke="#263238" stroke-miterlimit="10"/>
<path d="M179.643 143.754V241.545" stroke="#263238" stroke-miterlimit="10" stroke-dasharray="4.93 4.93"/>
<path d="M416.904 242.783V244.038H415.65" stroke="#263238" stroke-miterlimit="10"/>
<path d="M413.105 244.039H307.461" stroke="#263238" stroke-miterlimit="10" stroke-dasharray="5.08 5.08"/>
<path d="M306.189 244.038H304.936V242.783" stroke="#263238" stroke-miterlimit="10"/>
<path d="M304.936 240.308V142.517" stroke="#263238" stroke-miterlimit="10" stroke-dasharray="4.93 4.93"/>
<path d="M304.936 141.278V140.023H306.189" stroke="#263238" stroke-miterlimit="10"/>
<path d="M308.734 140.023H414.378" stroke="#263238" stroke-miterlimit="10" stroke-dasharray="5.08 5.08"/>
<path d="M415.65 140.023H416.904V141.278" stroke="#263238" stroke-miterlimit="10"/>
<path d="M416.904 143.754V241.545" stroke="#263238" stroke-miterlimit="10" stroke-dasharray="4.93 4.93"/>
<path d="M123.377 94.7382V98.324L126.807 98.8154C127.125 100.572 127.807 102.201 128.776 103.62L126.691 106.406L129.223 108.941L131.995 106.86C133.407 107.839 135.029 108.533 136.781 108.862L137.273 112.31H140.854L141.345 108.875C143.099 108.557 144.726 107.873 146.143 106.903L148.925 108.991L151.457 106.456L149.379 103.68C150.357 102.267 151.05 100.642 151.378 98.8882L154.821 98.3952V94.8095L151.391 94.318C151.073 92.5615 150.391 90.932 149.422 89.5133L151.507 86.7277L148.975 84.1922L146.203 86.2729C144.791 85.294 143.169 84.6003 141.417 84.271L140.925 80.8237H137.344L136.854 84.2579C135.1 84.5767 133.472 85.2599 132.056 86.2303L129.274 84.142L126.741 86.6776L128.819 89.4531C127.842 90.8667 127.149 92.4912 126.82 94.2452L123.377 94.7382ZM139.099 87.8728C143.894 87.8728 147.781 91.7648 147.781 96.5665C147.781 101.368 143.894 105.26 139.099 105.26C134.304 105.26 130.417 101.368 130.417 96.5665C130.417 91.7653 134.304 87.8728 139.099 87.8728Z" stroke="#263238" stroke-miterlimit="10"/>
<path d="M152.822 91.29V94.3567L155.755 94.7769C156.027 96.2789 156.611 97.6724 157.44 98.8858L155.656 101.268L157.821 103.436L160.191 101.656C161.399 102.493 162.786 103.087 164.284 103.368L164.705 106.316H167.768L168.187 103.379C169.687 103.107 171.079 102.522 172.291 101.692L174.669 103.479L176.835 101.31L175.057 98.937C175.893 97.7282 176.486 96.3391 176.767 94.8387L179.711 94.417V91.3508L176.778 90.9306C176.506 89.4286 175.922 88.0351 175.094 86.8217L176.877 84.4397L174.711 82.2711L172.341 84.0507C171.134 83.2138 169.747 82.6205 168.249 82.3389L167.828 79.3911H164.766L164.346 82.3278C162.846 82.6004 161.454 83.1847 160.243 84.0145L157.864 82.2284L155.698 84.3966L157.476 86.77C156.64 87.9788 156.047 89.3684 155.766 90.8683L152.822 91.29ZM166.267 85.4191C170.367 85.4191 173.692 88.7474 173.692 92.8537C173.692 96.9601 170.368 100.288 166.267 100.288C162.167 100.288 158.842 96.9601 158.842 92.8537C158.842 88.7474 162.166 85.4191 166.267 85.4191Z" stroke="#263238" stroke-miterlimit="10"/>
<path d="M306.141 221.746V225.332L309.57 225.823C309.889 227.58 310.571 229.209 311.54 230.628L309.454 233.413L311.987 235.949L314.759 233.868C316.17 234.847 317.793 235.541 319.544 235.87L320.037 239.317H323.618L324.108 235.883C325.863 235.565 327.49 234.881 328.907 233.911L331.689 235.999L334.221 233.464L332.143 230.688C333.12 229.274 333.813 227.65 334.142 225.896L337.585 225.403V221.817L334.155 221.326C333.837 219.57 333.154 217.94 332.185 216.522L334.271 213.736L331.739 211.2L328.967 213.281C327.555 212.302 325.933 211.609 324.181 211.279L323.689 207.832H320.108L319.617 211.266C317.863 211.585 316.236 212.268 314.819 213.239L312.037 211.15L309.505 213.686L311.583 216.461C310.605 217.875 309.913 219.5 309.584 221.254L306.141 221.746ZM321.863 214.881C326.658 214.881 330.545 218.773 330.545 223.574C330.545 228.375 326.658 232.268 321.863 232.268C317.068 232.268 313.181 228.376 313.181 223.574C313.181 218.773 317.068 214.881 321.863 214.881Z" stroke="#263238" stroke-miterlimit="10"/>
<path d="M335.586 218.298V221.365L338.519 221.785C338.791 223.287 339.375 224.68 340.204 225.894L338.42 228.276L340.586 230.444L342.956 228.664C344.163 229.501 345.551 230.094 347.048 230.376L347.47 233.324H350.532L350.952 230.387C352.452 230.114 353.844 229.53 355.055 228.7L357.434 230.486L359.599 228.318L357.822 225.944C358.658 224.735 359.25 223.346 359.532 221.846L362.475 221.425V218.359L359.542 217.938C359.27 216.436 358.686 215.043 357.858 213.83L359.641 211.448L357.476 209.279L355.105 211.058C353.898 210.222 352.511 209.628 351.013 209.347L350.592 206.399H347.529L347.11 209.336C345.61 209.608 344.218 210.193 343.006 211.022L340.627 209.236L338.462 211.404L340.239 213.778C339.404 214.987 338.811 216.376 338.53 217.876L335.586 218.298ZM349.031 212.426C353.131 212.426 356.455 215.755 356.455 219.861C356.455 223.967 353.131 227.295 349.031 227.295C344.93 227.295 341.606 223.967 341.606 219.861C341.606 215.755 344.93 212.426 349.031 212.426Z" stroke="#263238" stroke-miterlimit="10"/>
<path d="M371.412 83.2192V86.2859L374.345 86.7061C374.617 88.2081 375.201 89.6016 376.029 90.815L374.246 93.197L376.411 95.3651L378.781 93.5855C379.988 94.4223 381.376 95.0157 382.874 95.2973L383.295 98.2451H386.358L386.777 95.3084C388.277 95.0358 389.669 94.4515 390.881 93.6216L393.26 95.4078L395.425 93.2396L393.648 90.8662C394.483 89.6574 395.076 88.2683 395.357 86.7683L398.301 86.3467V83.2804L395.368 82.8603C395.096 81.3583 394.513 79.9647 393.684 78.7514L395.468 76.3694L393.302 74.2008L390.932 75.9804C389.724 75.1435 388.337 74.5502 386.839 74.2685L386.418 71.3208H383.355L382.936 74.2575C381.436 74.5301 380.044 75.1144 378.832 75.9442L376.454 74.1581L374.288 76.3262L376.065 78.6997C375.23 79.9085 374.637 81.2981 374.356 82.798L371.412 83.2192ZM384.857 77.3483C388.957 77.3483 392.282 80.6771 392.282 84.7829C392.282 88.8888 388.958 92.2176 384.857 92.2176C380.756 92.2176 377.432 88.8893 377.432 84.7829C377.432 80.6766 380.756 77.3483 384.857 77.3483Z" stroke="#263238" stroke-miterlimit="10"/>
<path d="M379.756 195.724H267.326V87.802C267.326 85.4395 269.239 83.5244 271.598 83.5244H375.484C377.844 83.5244 379.756 85.4395 379.756 87.802V195.724Z" fill="#263238" stroke="#263238" stroke-miterlimit="10" stroke-linecap="round" stroke-linejoin="round"/>
<path d="M382.315 193.162H269.885V85.2399C269.885 82.8775 271.797 80.9624 274.157 80.9624H378.043C380.402 80.9624 382.315 82.8775 382.315 85.2399V193.162Z" fill="white" stroke="#263238" stroke-miterlimit="10" stroke-linecap="round" stroke-linejoin="round"/>
<path d="M382.315 91.6866H269.885V85.2399C269.885 82.8775 271.797 80.9624 274.157 80.9624H378.043C380.402 80.9624 382.315 82.8775 382.315 85.2399V91.6866Z" fill="#52CEC7" stroke="#263238" stroke-miterlimit="10" stroke-linecap="round" stroke-linejoin="round"/>
<path d="M362.488 88.4129C363.452 88.4129 364.233 87.6303 364.233 86.665C364.233 85.6996 363.452 84.917 362.488 84.917C361.524 84.917 360.742 85.6996 360.742 86.665C360.742 87.6303 361.524 88.4129 362.488 88.4129Z" fill="white" stroke="#263238" stroke-miterlimit="10" stroke-linecap="round" stroke-linejoin="round"/>
<path d="M369.47 86.665C369.47 85.6996 368.688 84.917 367.724 84.917C366.76 84.917 365.979 85.6996 365.979 86.665C365.979 87.6303 366.76 88.4129 367.724 88.4129C368.689 88.4129 369.47 87.6303 369.47 86.665Z" fill="white" stroke="#263238" stroke-miterlimit="10" stroke-linecap="round" stroke-linejoin="round"/>
<path d="M372.961 88.4129C373.925 88.4129 374.706 87.6303 374.706 86.665C374.706 85.6996 373.925 84.917 372.961 84.917C371.996 84.917 371.215 85.6996 371.215 86.665C371.215 87.6303 371.996 88.4129 372.961 88.4129Z" fill="#263238" stroke="#263238" stroke-miterlimit="10" stroke-linecap="round" stroke-linejoin="round"/>
<path d="M147.559 121.393V192.908H204.98V121.393H147.559Z" fill="white" stroke="#263238" stroke-miterlimit="10" stroke-linecap="round" stroke-linejoin="round"/>
<path d="M204.807 121.167H184.939V167.144H204.807V121.167Z" fill="#263238" stroke="#263238" stroke-miterlimit="10" stroke-linecap="round" stroke-linejoin="round"/>
<path d="M187.223 93.2849V164.799H244.644V93.2849H187.223Z" fill="white" stroke="#263238" stroke-miterlimit="10" stroke-linecap="round" stroke-linejoin="round"/>
<path d="M224.143 213.02H147.371L155.042 266.361H230.824L224.143 213.02Z" fill="#263238" stroke="#263238" stroke-miterlimit="10" stroke-linecap="round" stroke-linejoin="round"/>
<path d="M169.929 183.28H164.852V192.564H169.929V183.28Z" fill="#263238" stroke="#263238" stroke-miterlimit="10" stroke-linecap="round" stroke-linejoin="round"/>
<path d="M167.391 179.908V251.423H224.812V179.908H167.391Z" fill="white" stroke="#263238" stroke-miterlimit="10" stroke-linecap="round" stroke-linejoin="round"/>
<path d="M176.129 239.778H216.992" stroke="#263238" stroke-miterlimit="10" stroke-linecap="round" stroke-linejoin="round"/>
<path d="M176.129 231.74H216.992" stroke="#263238" stroke-miterlimit="10" stroke-linecap="round" stroke-linejoin="round"/>
<path d="M176.129 223.703H216.992" stroke="#263238" stroke-miterlimit="10" stroke-linecap="round" stroke-linejoin="round"/>
<path d="M176.129 215.666H216.992" stroke="#263238" stroke-miterlimit="10" stroke-linecap="round" stroke-linejoin="round"/>
<path d="M176.129 207.628H216.992" stroke="#263238" stroke-miterlimit="10" stroke-linecap="round" stroke-linejoin="round"/>
<path d="M176.129 199.59H216.992" stroke="#263238" stroke-miterlimit="10" stroke-linecap="round" stroke-linejoin="round"/>
<path d="M176.129 191.552H216.992" stroke="#263238" stroke-miterlimit="10" stroke-linecap="round" stroke-linejoin="round"/>
<path d="M230.836 215.675V213.851C230.836 212.514 229.753 211.429 228.417 211.429H197.614C196.279 211.429 195.196 212.514 195.196 213.851C195.196 214.858 194.381 215.675 193.374 215.675H159.796L155.043 266.361H230.797L235.55 215.675H230.836Z" fill="#52CEC7" stroke="#263238" stroke-miterlimit="10" stroke-linecap="round" stroke-linejoin="round"/>
<path d="M368.024 262.385C368.024 262.385 366.227 263.26 363.687 264.714C361.147 266.168 359.605 266.621 359.877 267.348C360.149 268.075 362.054 268.257 365.32 268.348C368.586 268.439 370.854 267.621 371.217 267.621C371.58 267.621 374.211 267.712 375.209 267.348C376.208 266.985 375.482 264.26 375.482 264.26C375.482 264.26 369.548 261.782 368.024 262.385Z" fill="white" stroke="#0E1519" stroke-miterlimit="10" stroke-linecap="round" stroke-linejoin="round"/>
<path d="M387.935 266.021C387.935 266.021 386.078 269.904 385.423 270.778C384.768 271.653 385.642 272.09 387.17 272.637C388.698 273.184 391.1 271.872 392.956 270.997C394.812 270.122 395.14 266.077 395.14 266.077L387.935 266.021Z" fill="white" stroke="#0E1519" stroke-miterlimit="10" stroke-linecap="round" stroke-linejoin="round"/>
<path d="M397.794 194.17C397.794 194.17 400.084 199.179 399.959 204.195C399.833 209.211 394.824 229.529 395.075 232.038C395.326 234.546 397.579 236.552 397.329 242.572C397.079 248.591 395.451 262.26 395.451 262.26C395.451 262.26 395.826 264.517 395.576 265.395C395.326 266.273 394.95 266.9 394.95 266.9C394.95 266.9 393.823 266.9 392.32 266.9C390.817 266.9 387.937 266.398 387.937 266.022C387.937 265.646 388.814 263.012 388.814 263.012L388.939 260.128C388.939 260.128 386.56 235.424 386.059 231.286C385.558 227.148 383.68 207.456 383.68 207.456C383.68 207.456 379.422 232.289 379.296 233.167C379.171 234.045 379.923 239.186 378.545 242.948C377.167 246.71 376.291 255.865 376.291 257.871C376.291 259.878 375.79 265.145 375.79 265.145C375.79 265.145 373.285 265.145 371.908 264.518C370.53 263.891 369.528 262.888 369.152 262.762C368.777 262.637 368.025 262.386 368.025 262.386C368.025 262.386 368.151 261.383 368.401 260.505C368.652 259.627 369.653 257.872 369.653 257.872L370.029 241.068C370.029 241.068 369.779 231.788 370.029 230.283C370.28 228.778 370.155 227.274 370.155 226.772C370.155 226.27 370.155 207.582 370.781 203.569C371.407 199.556 371.581 194.369 371.581 194.369L396.078 191.53L397.794 194.17Z" fill="#263238" stroke="#0E1519" stroke-miterlimit="10" stroke-linecap="round" stroke-linejoin="round"/>
<path d="M396.612 190.322L397.794 194.171C397.794 194.171 389.784 199.51 382.097 199.905C374.41 200.3 371.945 198.44 371.354 197.947C370.762 197.453 371.58 194.368 371.58 194.368C371.58 194.368 380.153 195.256 384.588 194.171C389.023 193.085 396.612 190.322 396.612 190.322Z" fill="#52CEC7" stroke="#263238" stroke-miterlimit="10" stroke-linecap="round" stroke-linejoin="round"/>
<path d="M371.369 182.783L367.473 186.985L366.424 188.11L371.519 189.536L372.044 182.933L371.369 182.783Z" fill="#52CEC7" stroke="#263238" stroke-miterlimit="10" stroke-linecap="round" stroke-linejoin="round"/>
<path d="M386.492 153.972C386.492 153.972 394.841 156.22 395.379 157.119C395.918 158.018 393.291 177.767 392.913 179.281C392.535 180.795 393.669 185.526 394.425 186.567C395.181 187.607 397.354 188.743 397.354 190.541C397.354 192.339 385.164 196.787 380.817 196.787C376.47 196.787 371.629 196.059 371.157 195.585C370.685 195.112 371.083 193.474 371.083 193.096C371.083 192.717 371.178 182.025 371.178 182.025C371.178 182.025 368.721 179.092 368.154 175.59C367.587 172.089 368.357 167.636 368.357 167.636C368.357 167.636 367.639 161.253 368.267 158.826C368.896 156.399 373.654 154.691 373.654 154.691C373.654 154.691 378.322 152.713 386.492 153.972Z" fill="#52CEC7" stroke="#263238" stroke-miterlimit="10" stroke-linecap="round" stroke-linejoin="round"/>
<path d="M379.578 180.751C378.747 180.334 377.717 179.676 376.553 178.64" stroke="#263238" stroke-miterlimit="10" stroke-linecap="round" stroke-linejoin="round"/>
<path d="M381.778 181.471C381.778 181.471 381.387 181.456 380.699 181.224" stroke="#263238" stroke-miterlimit="10" stroke-linecap="round" stroke-linejoin="round"/>
<path d="M372.059 153.988C372.059 153.988 371.146 156.61 371.816 157.829C372.486 159.048 375.042 159.231 375.042 159.231C375.042 159.231 374.799 158.499 375.347 157.158C375.895 155.817 376.808 153.683 376.808 153.683L372.059 153.988Z" fill="#263238" stroke="#263238" stroke-miterlimit="10" stroke-linecap="round" stroke-linejoin="round"/>
<path d="M366.032 145.454C366.032 145.454 366.154 147.527 366.519 148.015C366.885 148.502 367.919 148.015 368.102 149.355C368.284 150.696 368.346 152.952 368.832 153.135C369.319 153.318 370.659 153.074 370.659 153.074C370.659 153.074 372.911 155.147 373.581 155.452C374.251 155.756 374.433 155.818 374.921 155.452C375.407 155.086 376.686 154.111 376.686 154.111C376.686 154.111 375.712 156.915 376.077 157.768C376.443 158.622 377.782 160.024 379.304 158.622C380.826 157.22 381.739 154.05 381.739 154.05L377.72 142.651L366.702 140.03C366.702 140.029 365.484 144.601 366.032 145.454Z" fill="#CE7A63" stroke="#263238" stroke-miterlimit="10" stroke-linecap="round" stroke-linejoin="round"/>
<path d="M377.172 144.54C377.172 144.54 379.121 153.135 379.607 156.366C380.094 159.597 379.242 160.877 379.242 160.877C379.242 160.877 384.112 160.572 385.817 157.585C387.522 154.598 388.982 152.952 388.009 150.087C387.035 147.222 384.356 138.139 381.799 135.031C379.243 131.922 373.581 131.19 371.45 131.556C369.32 131.922 366.885 134.725 365.789 136.798C364.693 138.871 363.962 143.016 363.232 143.443C362.501 143.869 361.832 144.906 362.928 145.21C364.024 145.515 366.032 145.454 366.032 145.454C366.032 145.454 366.154 143.503 366.458 142.589C366.763 141.675 367.006 141.126 367.006 141.126C367.006 141.126 367.372 142.163 371.451 143.382C375.53 144.601 377.052 143.991 377.052 143.991L377.172 144.54Z" fill="#263238" stroke="#263238" stroke-miterlimit="10" stroke-linecap="round" stroke-linejoin="round"/>
<path d="M367.006 141.126C367.006 141.126 370.841 146.368 377.477 145.21" stroke="#263238" stroke-miterlimit="10" stroke-linecap="round" stroke-linejoin="round"/>
<path d="M368.65 147.222C368.65 147.222 369.563 145.759 371.085 146.368" stroke="#263238" stroke-miterlimit="10" stroke-linecap="round" stroke-linejoin="round"/>
<path d="M373.398 150.94C373.398 150.94 373.52 151.854 372.789 152.403" stroke="#263238" stroke-miterlimit="10" stroke-linecap="round" stroke-linejoin="round"/>
<path d="M370.138 148.78C370.287 149.191 370.6 149.455 370.837 149.369C371.074 149.283 371.146 148.879 370.997 148.468C370.848 148.057 370.535 147.793 370.298 147.879C370.061 147.965 369.989 148.368 370.138 148.78Z" fill="#263238"/>
<path d="M376.686 154.11L378.208 152.525L377.172 156.975L376.686 154.11Z" fill="#263238" stroke="#263238" stroke-miterlimit="10" stroke-linecap="round" stroke-linejoin="round"/>
<path d="M369.988 196.015L384.646 189.19L362.513 186.255L351.154 191.025L369.988 196.015Z" fill="#D1D1D1" stroke="#263238" stroke-miterlimit="10" stroke-linecap="round" stroke-linejoin="round"/>
<path d="M369.437 194.722L380.212 189.705L363.941 187.547L355.59 191.054L369.437 194.722Z" fill="#828282" stroke="#263238" stroke-miterlimit="10" stroke-linecap="round" stroke-linejoin="round"/>
<path d="M369.989 196.015L363.1 179.944L343.094 176.789L351.155 191.025L369.989 196.015Z" fill="#B2B2B2" stroke="#263238" stroke-miterlimit="10" stroke-linecap="round" stroke-linejoin="round"/>
<path d="M361.564 192.052L363.249 194.327C363.249 194.327 362.663 194.987 362.15 194.767C361.637 194.547 360.537 191.612 361.564 192.052Z" fill="white" stroke="#263238" stroke-miterlimit="10" stroke-linecap="round" stroke-linejoin="round"/>
<path d="M361.489 194.033C361.489 194.033 360.756 194.253 360.316 193.96C359.876 193.666 359.07 191.171 359.437 191.098C359.803 191.025 360.829 192.712 360.829 192.712L361.489 194.033Z" fill="white" stroke="#263238" stroke-miterlimit="10" stroke-linecap="round" stroke-linejoin="round"/>
<path d="M360.318 193.96C360.318 193.96 358.486 193.446 358.192 193.153C357.899 192.859 357.313 190.071 357.899 190.438C358.485 190.804 359.291 192.859 359.291 192.859L360.318 193.96Z" fill="white" stroke="#263238" stroke-miterlimit="10" stroke-linecap="round" stroke-linejoin="round"/>
<path d="M358.191 193.153C358.191 193.153 357.239 193.299 356.945 192.786C356.652 192.272 356.579 191.392 356.872 190.878C357.166 190.364 357.605 191.465 357.605 191.465L358.191 193.153Z" fill="white" stroke="#263238" stroke-miterlimit="10" stroke-linecap="round" stroke-linejoin="round"/>
<path d="M390.352 155.86C390.352 155.86 395.469 156.22 396.457 156.939C397.444 157.659 404.064 177.389 404.442 179.943C404.82 182.498 403.969 182.782 403.497 182.782C403.024 182.782 391.968 186.378 390.645 186.662C389.322 186.946 389.038 186.756 388.566 186.378C388.093 185.999 385.826 183.255 386.487 181.647C387.149 180.038 388.283 179.754 388.283 179.754L395.465 177.104L389.814 167.007" fill="#52CEC7"/>
<path d="M390.352 155.86C390.352 155.86 395.469 156.22 396.457 156.939C397.444 157.659 404.064 177.389 404.442 179.943C404.82 182.498 403.969 182.782 403.497 182.782C403.024 182.782 391.968 186.378 390.645 186.662C389.322 186.946 389.038 186.756 388.566 186.378C388.093 185.999 385.826 183.255 386.487 181.647C387.149 180.038 388.283 179.754 388.283 179.754L395.465 177.104L389.814 167.007" stroke="#263238" stroke-miterlimit="10" stroke-linecap="round" stroke-linejoin="round"/>
<path d="M398.853 178.221C398.853 178.221 397.326 177.122 395.465 177.104" stroke="#263238" stroke-miterlimit="10" stroke-linecap="round" stroke-linejoin="round"/>
<path d="M397.824 176.675C397.824 176.675 399.78 177.293 400.912 178.53" stroke="#263238" stroke-miterlimit="10" stroke-linecap="round" stroke-linejoin="round"/>
<path d="M382.801 183.066C382.801 183.066 386.014 182.025 386.486 181.646C386.959 181.268 387.998 181.552 388.565 182.877C389.132 184.202 388.565 186.378 388.565 186.378L384.785 187.324C384.785 187.324 383.84 187.513 382.895 185.904C381.95 184.296 381.761 183.16 382.801 183.066Z" fill="#52CEC7" stroke="#263238" stroke-miterlimit="10" stroke-linecap="round" stroke-linejoin="round"/>
<path d="M374.62 185.598C374.62 185.598 372.75 186.369 372.64 186.865C372.53 187.36 371.925 189.453 371.98 189.894C372.035 190.335 371.98 190.554 372.475 190.444C372.97 190.335 373.575 189.178 374.015 188.077C374.455 186.975 375.005 185.543 375.005 185.543L374.62 185.598Z" fill="#CE7A63" stroke="#263238" stroke-miterlimit="10" stroke-linecap="round" stroke-linejoin="round"/>
<path d="M382.704 183.67C382.704 183.67 384.519 184.937 384.574 185.708C384.63 186.479 382.649 187.746 381.384 188.186C380.12 188.627 378.359 188.627 378.139 188.627C377.919 188.627 374.784 190.72 374.014 191.05C373.244 191.381 373.024 190.885 373.024 190.885C373.024 190.885 372.419 190.775 372.474 190.444C372.529 190.114 372.969 189.453 372.969 189.453C372.969 189.453 373.244 188.352 373.574 187.085C373.904 185.818 375.609 184.937 376.214 184.827C376.82 184.717 381.164 183.12 382.704 183.67Z" fill="#CE7A63" stroke="#263238" stroke-miterlimit="10" stroke-linecap="round" stroke-linejoin="round"/>
<path d="M377.37 187.415C377.37 187.415 375.83 188.021 375.61 188.241C375.39 188.462 373.025 190.885 373.025 190.885" stroke="#263238" stroke-miterlimit="10" stroke-linecap="round" stroke-linejoin="round"/>
<path d="M376.051 186.149L372.971 189.453" stroke="#263238" stroke-miterlimit="10" stroke-linecap="round" stroke-linejoin="round"/>
<path d="M136.74 177.571L134.727 177.44L133.633 180.726L138.184 183.049L141.071 178.233L136.74 177.571Z" fill="#CE7A63" stroke="#263238" stroke-miterlimit="10" stroke-linecap="round" stroke-linejoin="round"/>
<path d="M109.904 166.264L114.469 170.838L134.728 177.44L133.634 180.726L110.012 177.101L109.904 166.264Z" fill="#52CEC7" stroke="#263238" stroke-miterlimit="10"/>
<path d="M97.1626 136.364C97.1626 136.364 97.0243 140.247 96.6087 142.881C96.1931 145.515 96.0547 146.624 96.0547 146.624L103.67 149.536C103.67 149.536 102.978 144.267 103.947 142.049C104.916 139.83 105.055 138.305 105.055 138.305C105.055 138.305 102.562 132.204 99.932 131.789C97.3015 131.373 97.1626 136.364 97.1626 136.364Z" fill="#CE7A63" stroke="#263238" stroke-miterlimit="10"/>
<path d="M107.548 125.134C107.548 125.134 108.933 123.886 107.133 119.726C105.333 115.567 96.6094 115.844 92.4553 119.588C88.3013 123.331 86.9166 129.987 90.5167 134.285C94.1167 138.583 98.4092 139.138 101.179 137.474C103.948 135.81 104.225 132.621 104.225 131.373C104.225 130.125 103.255 127.075 104.64 126.243C106.025 125.411 107.548 125.134 107.548 125.134Z" fill="#263238" stroke="#263238" stroke-miterlimit="10"/>
<path d="M107.134 124.163C107.134 124.163 100.626 127.213 100.626 128.323C100.626 129.432 103.395 129.848 102.564 131.234C101.734 132.621 101.18 133.175 101.18 133.175C101.18 133.175 102.288 135.117 101.318 135.394C100.348 135.671 99.9334 135.671 98.9638 134.284C97.9947 132.898 97.0251 132.205 96.7484 134.562C96.4717 136.918 97.5791 137.335 98.4098 137.473C99.2405 137.612 100.348 137.473 100.348 137.473C100.348 137.473 101.733 140.801 102.703 141.217C103.672 141.633 108.38 142.187 109.349 141.078C110.318 139.969 109.626 134.977 109.626 134.977C109.626 134.977 111.01 134.7 111.01 133.452C111.01 132.204 108.795 130.402 108.795 130.402C108.795 130.402 109.349 129.57 108.933 127.629C108.518 125.688 107.134 124.163 107.134 124.163Z" fill="#CE7A63" stroke="#263238" stroke-miterlimit="10"/>
<path d="M107.325 131.017C107.325 131.454 107.148 131.808 106.93 131.808C106.712 131.808 106.535 131.454 106.535 131.017C106.535 130.58 106.712 130.225 106.93 130.225C107.148 130.225 107.325 130.58 107.325 131.017Z" fill="#263238"/>
<path d="M105.57 129.603C105.57 129.603 105.777 128.43 107.569 128.637" stroke="#263238" stroke-miterlimit="10" stroke-linecap="round" stroke-linejoin="round"/>
<path d="M107.913 136.78C107.913 136.78 106.81 136.712 106.189 135.883" stroke="#263238" stroke-miterlimit="10" stroke-linecap="round" stroke-linejoin="round"/>
<path d="M89.542 257.769C89.542 257.769 90.9878 261.026 92.4337 262.112C93.8795 263.198 96.5902 263.017 96.9517 264.827C97.3131 266.636 95.8673 266.817 94.6024 266.817C93.3376 266.817 89.3615 266.817 88.6386 266.636C87.9156 266.455 84.482 265.007 82.3132 263.198C80.1445 261.388 79.6025 261.569 81.2289 258.131C82.8552 254.693 89.542 257.769 89.542 257.769Z" fill="#52CEC7" stroke="#263238" stroke-miterlimit="10"/>
<path d="M96.9995 265.176C95.2503 265.486 91.8097 265.91 88.7886 265.153C85.7556 264.394 82.1921 261.694 80.3873 260.2C80.0078 261.609 80.7187 261.867 82.3129 263.198C84.4817 265.008 87.9153 266.456 88.6382 266.636C89.3612 266.818 93.3372 266.818 94.6021 266.818C95.7807 266.817 97.1133 266.658 96.9995 265.176Z" fill="white" stroke="#263238" stroke-miterlimit="10"/>
<path d="M94.9635 198.656C94.9635 198.656 92.4794 219.501 90.4917 224.749C88.5039 229.997 85.5149 233.318 84.792 237.3C84.0691 241.281 81.2285 258.131 81.2285 258.131C81.2285 258.131 83.0358 259.941 84.3007 259.76C85.5656 259.579 89.3611 260.122 90.445 258.131C91.5294 256.141 91.8006 252.906 91.9811 252.363C92.1616 251.82 99.7538 237.149 101.561 231.358C103.368 225.566 109.193 201.638 109.012 198.742" fill="#263238"/>
<path d="M94.9635 198.656C94.9635 198.656 92.4794 219.501 90.4917 224.749C88.5039 229.997 85.5149 233.318 84.792 237.3C84.0691 241.281 81.2285 258.131 81.2285 258.131C81.2285 258.131 83.0358 259.941 84.3007 259.76C85.5656 259.579 89.3611 260.122 90.445 258.131C91.5294 256.141 91.8006 252.906 91.9811 252.363C92.1616 251.82 99.7538 237.149 101.561 231.358C103.368 225.566 109.193 201.638 109.012 198.742" stroke="#0E0E0E" stroke-miterlimit="10"/>
<path d="M93.6394 184.357C93.6394 184.357 91.424 190.873 92.2547 196.697C93.0854 202.52 99.5938 205.432 104.163 204.6C108.733 203.768 111.841 200.579 111.841 195.033C111.841 189.487 111.149 184.773 111.149 184.773C111.149 184.773 102.224 187.546 93.6394 184.357Z" fill="#263238" stroke="#0E0E0E" stroke-miterlimit="10"/>
<path d="M95.3217 144.215C95.3217 144.215 91.1677 151.979 90.8909 158.219C90.6142 164.458 93.6402 184.357 93.6402 184.357C93.6402 184.357 94.8866 186.853 100.84 187.13C106.795 187.407 111.15 185.328 111.15 185.328C111.15 185.328 111.523 173.47 111.523 165.983C111.523 158.496 105.707 147.404 105.707 147.404L95.3217 144.215Z" fill="#52CEC7" stroke="#263238" stroke-miterlimit="10"/>
<path d="M92.1152 161.481C92.1152 161.481 92.4807 165.871 97.7788 166.42" stroke="#263238" stroke-miterlimit="10" stroke-linecap="round" stroke-linejoin="round"/>
<path d="M93.5762 167.335C93.5762 167.335 96.3165 169.165 99.9707 168.433" stroke="#263238" stroke-miterlimit="10" stroke-linecap="round" stroke-linejoin="round"/>
<path d="M95.4277 184.625C95.4277 184.625 100.726 180.051 103.467 175.844" stroke="#263238" stroke-miterlimit="10" stroke-linecap="round" stroke-linejoin="round"/>
<path d="M102.919 180.234C102.919 180.234 98.3509 184.99 96.707 185.539" stroke="#263238" stroke-miterlimit="10" stroke-linecap="round" stroke-linejoin="round"/>
<path d="M94.4902 144.492L106.814 149.483L106.122 145.462L95.1826 140.887L94.4902 144.492Z" fill="white" stroke="#263238" stroke-miterlimit="10"/>
<path d="M110.145 262.654C110.145 262.654 113.76 264.826 115.747 265.731C117.735 266.635 117.916 266.455 117.916 267.721C117.916 268.988 118.097 269.169 114.844 269.169C111.591 269.169 102.193 269.35 101.29 268.626C100.386 267.902 108.88 262.112 110.145 262.654Z" fill="#52CEC7" stroke="#263238" stroke-miterlimit="10"/>
<path d="M114.843 269.169C117.888 269.169 117.924 269.01 117.917 267.951C108.654 268.233 104.139 267.882 101.945 267.473C101.37 268.03 101.083 268.461 101.29 268.626C102.192 269.35 111.59 269.169 114.843 269.169Z" fill="white" stroke="#263238" stroke-miterlimit="10"/>
<path d="M93.8789 199.018C93.8789 199.018 95.1438 211.504 96.7706 216.933C98.3969 222.362 98.3969 224.715 97.855 229.419C97.313 234.124 95.5057 238.467 96.7706 242.811C98.0355 247.154 100.566 265.731 100.566 266.455C100.566 267.179 100.385 268.265 101.289 268.627C102.192 268.989 109.963 263.741 110.144 262.655C110.325 261.569 108.879 258.311 108.879 255.416C108.879 252.521 109.783 235.572 109.783 227.429C109.783 219.285 113.558 201.819 110.667 194.581" fill="#263238"/>
<path d="M93.8789 199.018C93.8789 199.018 95.1438 211.504 96.7706 216.933C98.3969 222.362 98.3969 224.715 97.855 229.419C97.313 234.124 95.5057 238.467 96.7706 242.811C98.0355 247.154 100.566 265.731 100.566 266.455C100.566 267.179 100.385 268.265 101.289 268.627C102.192 268.989 109.963 263.741 110.144 262.655C110.325 261.569 108.879 258.311 108.879 255.416C108.879 252.521 109.783 235.572 109.783 227.429C109.783 219.285 113.558 201.819 110.667 194.581" stroke="#0E0E0E" stroke-miterlimit="10"/>
<path d="M170.683 173.159C184.17 170.967 193.33 158.241 191.141 144.736C188.952 131.23 176.243 122.059 162.756 124.25C149.268 126.442 140.108 139.168 142.297 152.673C144.486 166.179 157.195 175.351 170.683 173.159Z" stroke="#2B7478" stroke-width="7" stroke-miterlimit="10" stroke-linecap="round" stroke-linejoin="round"/>
<path d="M151.177 169.373L124.269 201.059C123.099 202.436 121.036 202.604 119.661 201.433C118.286 200.262 118.119 198.196 119.288 196.819C119.338 196.76 119.396 196.698 119.449 196.643L148.588 167.001C149.268 166.309 150.38 166.3 151.071 166.981C151.73 167.63 151.764 168.677 151.177 169.373Z" fill="#2B7478"/>
<path d="M96.9293 151.719C96.9293 151.719 94.399 155.339 94.9415 158.958C95.4839 162.577 103.458 178.388 104.361 179.655C105.264 180.921 111.228 182.188 111.771 177.121C112.313 172.054 105.423 159.5 104.339 155.881C103.255 152.262 100.905 151.538 100.905 151.538" fill="#52CEC7"/>
<path d="M96.9293 151.719C96.9293 151.719 94.399 155.339 94.9415 158.958C95.4839 162.577 103.458 178.388 104.361 179.655C105.264 180.921 111.228 182.188 111.771 177.121C112.313 172.054 105.423 159.5 104.339 155.881C103.255 152.262 100.905 151.538 100.905 151.538" stroke="#263238" stroke-miterlimit="10"/>
<path d="M110.425 173.336C110.425 173.336 115.723 174.007 119.434 176.255C123.146 178.503 131.068 181.595 131.068 181.595L130.219 185.099C130.219 185.099 121.14 184.709 115.627 183.696C110.114 182.683 106.551 182.198 104.516 179.273" fill="#52CEC7"/>
<path d="M110.425 173.336C110.425 173.336 115.723 174.007 119.434 176.255C123.146 178.503 131.068 181.595 131.068 181.595L130.219 185.099C130.219 185.099 121.14 184.709 115.627 183.696C110.114 182.683 106.551 182.198 104.516 179.273" stroke="#263238" stroke-miterlimit="10"/>
<path d="M131.067 181.595C131.067 181.595 133.972 181.554 134.439 181.086C134.906 180.619 139.479 183.516 139.479 183.516C139.479 183.516 139.665 184.263 139.199 184.544C138.732 184.825 138.079 185.011 138.079 185.011C138.079 185.011 136.865 187.161 136.118 187.441C135.372 187.722 133.319 187.254 132.385 186.88C131.452 186.506 130.217 185.098 130.217 185.098L131.067 181.595Z" fill="#CE7A63" stroke="#263238" stroke-miterlimit="10" stroke-linecap="round" stroke-linejoin="round"/>
<path d="M142.254 180.284L140.498 179.464C140.183 179.318 140.047 178.943 140.194 178.629L140.236 178.538C140.383 178.223 140.757 178.086 141.071 178.234L142.828 179.053C143.142 179.2 143.279 179.574 143.132 179.889L143.089 179.98C142.943 180.295 142.569 180.431 142.254 180.284Z" fill="#C2C2C2" stroke="#263238" stroke-miterlimit="10" stroke-linecap="round" stroke-linejoin="round"/>
<path d="M139.66 183.509L138.738 183.079C138.424 182.932 138.287 182.558 138.434 182.243C138.581 181.928 138.955 181.792 139.269 181.939L140.19 182.369C140.505 182.515 140.641 182.89 140.494 183.205C140.348 183.519 139.974 183.656 139.66 183.509Z" fill="#C2C2C2" stroke="#263238" stroke-miterlimit="10" stroke-linecap="round" stroke-linejoin="round"/>
<path d="M140.352 182.429L139.002 181.799C138.687 181.653 138.551 181.278 138.698 180.963L138.705 180.947C138.852 180.633 139.226 180.496 139.54 180.643L140.891 181.274C141.205 181.42 141.341 181.795 141.194 182.11L141.187 182.126C141.04 182.44 140.667 182.576 140.352 182.429Z" fill="#C2C2C2" stroke="#263238" stroke-miterlimit="10" stroke-linecap="round" stroke-linejoin="round"/>
<path d="M141.161 181.511L139.404 180.691C139.09 180.544 138.953 180.17 139.1 179.855L139.143 179.764C139.289 179.45 139.663 179.313 139.977 179.46L141.734 180.28C142.048 180.426 142.185 180.801 142.038 181.116L141.995 181.207C141.849 181.521 141.475 181.658 141.161 181.511Z" fill="#C2C2C2" stroke="#263238" stroke-miterlimit="10" stroke-linecap="round" stroke-linejoin="round"/>
<path d="M135.559 177.878C135.559 177.878 138.982 176.566 139.262 176.473C139.543 176.379 142.07 177.785 142.07 177.785C142.07 177.785 141.79 179.472 141.603 179.941C141.416 180.409 140.573 180.69 140.386 180.034C140.198 179.379 140.199 178.816 140.199 178.816C140.199 178.816 139.17 179.284 138.327 179.378C137.485 179.472 136.268 179.097 136.268 179.097" fill="#CE7A63"/>
<path d="M135.559 177.878C135.559 177.878 138.982 176.566 139.262 176.473C139.543 176.379 142.07 177.785 142.07 177.785C142.07 177.785 141.79 179.472 141.603 179.941C141.416 180.409 140.573 180.69 140.386 180.034C140.198 179.379 140.199 178.816 140.199 178.816C140.199 178.816 139.17 179.284 138.327 179.378C137.485 179.472 136.268 179.097 136.268 179.097" stroke="#263238" stroke-miterlimit="10" stroke-linecap="round" stroke-linejoin="round"/>
<path d="M441 29.3203C441 25.4543 437.866 22.3203 434 22.3203H47C43.134 22.3203 40 25.4543 40 29.3203C40 33.1863 43.134 36.3203 47 36.3203H434C437.866 36.3203 441 33.1863 441 29.3203Z" fill="#28282E"/>
<path d="M75.3279 29.3204C75.3279 30.9499 76.6488 32.2708 78.2782 32.2708C79.9076 32.2708 81.2285 30.9499 81.2285 29.3204C81.2285 27.691 79.9076 26.3701 78.2782 26.3701C76.6488 26.3701 75.3279 27.691 75.3279 29.3204Z" fill="#3FCA90"/>
<path d="M64.3826 29.3204C64.3826 30.9499 65.7035 32.2708 67.3329 32.2708C68.9623 32.2708 70.2832 30.9499 70.2832 29.3204C70.2832 27.691 68.9623 26.3701 67.3329 26.3701C65.7035 26.3701 64.3826 27.691 64.3826 29.3204Z" fill="#FFE073"/>
<path d="M53.4294 29.3204C53.4294 30.9499 54.7503 32.2708 56.3798 32.2708C58.0092 32.2708 59.3301 30.9499 59.3301 29.3204C59.3301 27.691 58.0092 26.3701 56.3798 26.3701C54.7503 26.3701 53.4294 27.691 53.4294 29.3204Z" fill="#ED5050"/>
</svg>
