<svg width="474" height="424" viewBox="0 0 474 424" fill="none" xmlns="http://www.w3.org/2000/svg">
<path d="M0.765625 36C0.765625 16.1177 16.8834 0 36.7656 0H437.766C457.648 0 473.766 16.1178 473.766 36V378C473.766 397.882 457.648 414 437.766 414H36.7656C16.8834 414 0.765625 397.882 0.765625 378V36Z" fill="white" fill-opacity="0.06"/>
<g clip-path="url(#clip0_1456_4316)">
<path d="M414.67 340.765H387.443V340.97H414.67V340.765Z" fill="#EBEBEB"/>
<path d="M317.114 342.99H309.969V343.195H317.114V342.99Z" fill="#EBEBEB"/>
<path d="M386.622 333.15H370.846V333.355H386.622V333.15Z" fill="#EBEBEB"/>
<path d="M123.477 334.528H87.9727V334.733H123.477V334.528Z" fill="#EBEBEB"/>
<path d="M136.003 334.528H130.797V334.733H136.003V334.528Z" fill="#EBEBEB"/>
<path d="M229.922 337.991H152.92V338.196H229.922V337.991Z" fill="#EBEBEB"/>
<path d="M240.818 290.996H82.0904C79.5036 290.996 77.3984 288.896 77.3984 286.315V63.7411C77.3984 61.1606 79.5036 59.0605 82.0904 59.0605H240.818C243.404 59.0605 245.509 61.1606 245.509 63.7411V286.315C245.509 288.896 243.404 290.996 240.818 290.996ZM82.0904 59.2664C79.6162 59.2664 77.6039 61.2737 77.6039 63.7419V286.316C77.6039 288.784 79.6162 290.792 82.0904 290.792H240.818C243.291 290.792 245.303 288.784 245.303 286.316V63.7411C245.303 61.2737 243.291 59.2655 240.818 59.2655L82.0904 59.2664Z" fill="#EBEBEB"/>
<path d="M418.614 290.996H259.886C257.3 290.996 255.195 288.896 255.195 286.315V63.7411C255.195 61.1606 257.3 59.0605 259.886 59.0605H418.614C421.202 59.0605 423.306 61.1606 423.306 63.7411V286.315C423.306 288.896 421.201 290.996 418.614 290.996ZM259.886 59.2664C257.413 59.2664 255.401 61.2737 255.401 63.7419V286.316C255.401 288.784 257.413 290.792 259.886 290.792H418.614C421.088 290.792 423.1 288.784 423.1 286.316V63.7411C423.1 61.2737 421.088 59.2655 418.614 59.2655L259.886 59.2664Z" fill="#EBEBEB"/>
<path d="M455.852 327.566H44.8516V327.771H455.852V327.566Z" fill="#EBEBEB"/>
<path d="M409.954 79.8867H268.143V235.621H409.954V79.8867Z" fill="#E9E9E9"/>
<path d="M407.487 82.4043H270.879V232.866H407.487V82.4043Z" fill="#F9F9F9"/>
<path d="M323.927 167.731H306.475V233.26H323.927V167.731Z" fill="#F0F0F0"/>
<path d="M307.734 162.694H292.018V233.259H307.734V162.694Z" fill="#F0F0F0"/>
<path d="M294.779 196.814H279.062V233.259H294.779V196.814Z" fill="#EBEBEB"/>
<path d="M338.75 187.688H321.297V233.26H338.75V187.688Z" fill="#F0F0F0"/>
<path d="M296.388 169.623H294.779V171.24H296.388V169.623Z" fill="white"/>
<path d="M304.972 169.623H303.363V171.24H304.972V169.623Z" fill="white"/>
<path d="M296.388 174.865H294.779V176.483H296.388V174.865Z" fill="white"/>
<path d="M300.681 174.865H299.072V176.483H300.681V174.865Z" fill="white"/>
<path d="M304.972 180.107H303.363V181.725H304.972V180.107Z" fill="white"/>
<path d="M296.388 185.349H294.779V186.967H296.388V185.349Z" fill="white"/>
<path d="M300.681 185.349H299.072V186.967H300.681V185.349Z" fill="white"/>
<path d="M300.681 190.592H299.072V192.21H300.681V190.592Z" fill="white"/>
<path d="M304.972 190.592H303.363V192.21H304.972V190.592Z" fill="white"/>
<path d="M300.681 195.834H299.072V197.452H300.681V195.834Z" fill="white"/>
<path d="M304.972 195.834H303.363V197.452H304.972V195.834Z" fill="white"/>
<path d="M304.972 201.076H303.363V202.694H304.972V201.076Z" fill="white"/>
<path d="M300.681 206.318H299.072V207.936H300.681V206.318Z" fill="white"/>
<path d="M333.512 192.209H335.121V190.592H333.512V192.209Z" fill="white"/>
<path d="M324.928 192.209H326.537V190.592H324.928V192.209Z" fill="white"/>
<path d="M333.512 197.452H335.121V195.834H333.512V197.452Z" fill="white"/>
<path d="M329.219 197.452H330.828V195.834H329.219V197.452Z" fill="white"/>
<path d="M324.928 202.694H326.537V201.076H324.928V202.694Z" fill="white"/>
<path d="M333.512 207.937H335.121V206.319H333.512V207.937Z" fill="white"/>
<path d="M329.219 207.937H330.828V206.319H329.219V207.937Z" fill="white"/>
<path d="M329.219 213.179H330.828V211.561H329.219V213.179Z" fill="white"/>
<path d="M324.928 213.179H326.537V211.561H324.928V213.179Z" fill="white"/>
<path d="M329.219 218.42H330.828V216.803H329.219V218.42Z" fill="white"/>
<path d="M324.928 218.42H326.537V216.803H324.928V218.42Z" fill="white"/>
<path d="M324.928 223.663H326.537V222.045H324.928V223.663Z" fill="white"/>
<path d="M329.219 228.905H330.828V227.287H329.219V228.905Z" fill="white"/>
<path d="M359.256 234.397H376.379V153.3H359.256V234.397Z" fill="#F0F0F0"/>
<path d="M375.143 234.396H390.562V147.066H375.143V234.396Z" fill="#F5F5F5"/>
<path d="M387.854 234.397H403.273V189.293H387.854V234.397Z" fill="#EBEBEB"/>
<path d="M344.71 234.397H361.834V177.997H344.71V234.397Z" fill="#F5F5F5"/>
<path d="M386.275 157.643H387.854V155.641H386.275V157.643Z" fill="white"/>
<path d="M377.853 157.643H379.432V155.641H377.853V157.643Z" fill="white"/>
<path d="M386.275 164.131H387.854V162.128H386.275V164.131Z" fill="white"/>
<path d="M382.064 164.131H383.643V162.128H382.064V164.131Z" fill="white"/>
<path d="M377.853 170.619H379.432V168.616H377.853V170.619Z" fill="white"/>
<path d="M386.275 177.106H387.854V175.104H386.275V177.106Z" fill="white"/>
<path d="M382.064 177.106H383.643V175.104H382.064V177.106Z" fill="white"/>
<path d="M382.064 183.594H383.643V181.591H382.064V183.594Z" fill="white"/>
<path d="M377.853 183.594H379.432V181.591H377.853V183.594Z" fill="white"/>
<path d="M382.064 190.082H383.643V188.079H382.064V190.082Z" fill="white"/>
<path d="M377.853 190.082H379.432V188.079H377.853V190.082Z" fill="white"/>
<path d="M377.853 196.569H379.432V194.567H377.853V196.569Z" fill="white"/>
<path d="M382.064 203.057H383.643V201.055H382.064V203.057Z" fill="white"/>
<path d="M349.852 181.591H348.273V183.594H349.852V181.591Z" fill="white"/>
<path d="M358.274 181.591H356.695V183.594H358.274V181.591Z" fill="white"/>
<path d="M349.852 188.079H348.273V190.082H349.852V188.079Z" fill="white"/>
<path d="M354.063 188.079H352.484V190.082H354.063V188.079Z" fill="white"/>
<path d="M358.274 194.567H356.695V196.569H358.274V194.567Z" fill="white"/>
<path d="M349.852 201.055H348.273V203.057H349.852V201.055Z" fill="white"/>
<path d="M354.063 201.055H352.484V203.057H354.063V201.055Z" fill="white"/>
<path d="M354.063 207.542H352.484V209.545H354.063V207.542Z" fill="white"/>
<path d="M358.274 207.542H356.695V209.545H358.274V207.542Z" fill="white"/>
<path d="M354.063 214.03H352.484V216.033H354.063V214.03Z" fill="white"/>
<path d="M358.274 214.03H356.695V216.033H358.274V214.03Z" fill="white"/>
<path d="M358.274 220.519H356.695V222.521H358.274V220.519Z" fill="white"/>
<path d="M354.063 227.006H352.484V229.009H354.063V227.006Z" fill="white"/>
<path d="M314.355 114.849C314.355 114.849 271.066 120.981 275.55 107.863C280.034 94.745 289.164 107.863 289.164 107.863C289.164 107.863 293.859 99.624 298.981 102.033C304.104 104.442 304.629 109.823 304.629 109.823C304.629 109.823 306.148 105.421 310.251 110.135C314.355 114.849 313.959 109.093 314.355 114.849Z" fill="#F0F0F0"/>
<path d="M350.763 129.815C350.763 129.815 315.83 134.764 319.448 124.178C323.067 113.591 330.434 124.178 330.434 124.178C330.434 124.178 334.223 117.528 338.358 119.472C342.492 121.417 342.915 125.759 342.915 125.759C342.915 125.759 344.14 122.206 347.452 126.011C350.763 129.815 350.444 125.17 350.763 129.815Z" fill="#F0F0F0"/>
<path d="M395.564 113.441C395.564 113.441 352.565 119.532 357.019 106.502C361.472 93.4717 370.541 106.502 370.541 106.502C370.541 106.502 375.205 98.3179 380.293 100.712C385.382 103.105 385.902 108.45 385.902 108.45C385.902 108.45 387.411 104.077 391.487 108.759C395.564 113.441 395.17 107.724 395.564 113.441Z" fill="#F0F0F0"/>
<path d="M316.756 80.2393H314.355V235.621H316.756V80.2393Z" fill="#E9E9E9"/>
<path d="M361.9 80.2393H359.5V235.621H361.9V80.2393Z" fill="#E9E9E9"/>
<path d="M133.731 172.856H98.6172V327.747H133.731V172.856Z" fill="#E6E6E6"/>
<path d="M222.463 172.856H123.369V327.747H222.463V172.856Z" fill="#F5F5F5"/>
<path d="M217.747 177.698H175.844V322.901H217.747V177.698Z" fill="#EBEBEB"/>
<path d="M170.96 177.698H129.057V322.901H170.96V177.698Z" fill="#EBEBEB"/>
<path d="M175.844 232.061H212.688V224.491H175.844V232.061Z" fill="#F5F5F5"/>
<path d="M129.055 232.061H165.898V224.491H129.055V232.061Z" fill="#F5F5F5"/>
<path d="M175.844 277.242H212.688V269.672H175.844V277.242Z" fill="#F5F5F5"/>
<path d="M129.055 277.242H165.898V269.672H129.055V277.242Z" fill="#F5F5F5"/>
<path d="M199.523 322.901H203.529V281.466H199.523V322.901Z" fill="#FAFAFA"/>
<path d="M195.517 322.901H199.523V285.049H195.517V322.901Z" fill="#E0E0E0"/>
<path d="M203.531 322.901H207.537V285.049H203.531V322.901Z" fill="#E0E0E0"/>
<path d="M180.313 322.901H183.426V285.049H180.313V322.901Z" fill="#E0E0E0"/>
<path d="M175.844 322.901H180.314V282.124H175.844V322.901Z" fill="#F0F0F0"/>
<path d="M189.471 322.901H195.516V285.049H189.471V322.901Z" fill="#F5F5F5"/>
<path d="M183.428 322.901H189.473V282.675H183.428V322.901Z" fill="#E6E6E6"/>
<path d="M152.734 322.901H156.74V281.466H152.734V322.901Z" fill="#E0E0E0"/>
<path d="M148.728 322.901H152.734V285.049H148.728V322.901Z" fill="#E0E0E0"/>
<path d="M156.742 322.901H160.748V285.049H156.742V322.901Z" fill="#FAFAFA"/>
<path d="M133.526 322.901H136.639V285.049H133.526V322.901Z" fill="#E0E0E0"/>
<path d="M129.055 322.901H133.525V282.124H129.055V322.901Z" fill="#F0F0F0"/>
<path d="M142.684 322.901H148.729V285.049H142.684V322.901Z" fill="#F5F5F5"/>
<path d="M136.639 322.901H142.684V282.675H136.639V322.901Z" fill="#E6E6E6"/>
<path d="M179.85 235.348H175.844V269.915H179.85V235.348Z" fill="#FAFAFA"/>
<path d="M183.856 238.336H179.85V269.915H183.856V238.336Z" fill="#E0E0E0"/>
<path d="M199.06 238.336H195.947V269.915H199.06V238.336Z" fill="#E0E0E0"/>
<path d="M207.089 238.336H203.529V269.915H207.089V238.336Z" fill="#E0E0E0"/>
<path d="M203.529 235.897H199.059V269.914H203.529V235.897Z" fill="#F0F0F0"/>
<path d="M189.902 238.336H183.857V269.915H189.902V238.336Z" fill="#F5F5F5"/>
<path d="M195.947 236.357H189.902V269.915H195.947V236.357Z" fill="#E6E6E6"/>
<path d="M132.846 235.348H128.84V269.915H132.846V235.348Z" fill="#E0E0E0"/>
<path d="M136.852 238.336H132.846V269.915H136.852V238.336Z" fill="#E6E6E6"/>
<path d="M152.056 238.336H148.943V269.915H152.056V238.336Z" fill="#E0E0E0"/>
<path d="M156.525 235.897H152.055V269.914H156.525V235.897Z" fill="#F0F0F0"/>
<path d="M160.98 235.897H156.51V269.914H160.98V235.897Z" fill="#F5F5F5"/>
<path d="M142.899 238.336H136.854V269.915H142.899V238.336Z" fill="#F5F5F5"/>
<path d="M148.943 236.357H142.898V269.915H148.943V236.357Z" fill="#E6E6E6"/>
<path d="M179.85 195.969H175.844V224.491H179.85V195.969Z" fill="#FAFAFA"/>
<path d="M183.856 192.913H179.85V224.491H183.856V192.913Z" fill="#E0E0E0"/>
<path d="M207.536 192.913H203.529V224.491H207.536V192.913Z" fill="#E0E0E0"/>
<path d="M199.06 192.913H195.947V224.491H199.06V192.913Z" fill="#E0E0E0"/>
<path d="M203.529 190.475H199.059V224.491H203.529V190.475Z" fill="#F0F0F0"/>
<path d="M189.902 192.913H183.857V224.491H189.902V192.913Z" fill="#F5F5F5"/>
<path d="M195.947 190.933H189.902V224.492H195.947V190.933Z" fill="#E6E6E6"/>
<path d="M152.734 224.492H156.74V195.97H152.734V224.492Z" fill="#FAFAFA"/>
<path d="M148.728 224.491H152.734V192.913H148.728V224.491Z" fill="#E0E0E0"/>
<path d="M156.742 224.491H160.748V192.913H156.742V224.491Z" fill="#E0E0E0"/>
<path d="M133.526 224.491H136.639V192.913H133.526V224.491Z" fill="#E0E0E0"/>
<path d="M129.055 224.492H133.525V198.594H129.055V224.492Z" fill="#E0E0E0"/>
<path d="M142.684 224.491H148.729V192.913H142.684V224.491Z" fill="#F5F5F5"/>
<path d="M136.639 224.491H142.684V190.933H136.639V224.491Z" fill="#E6E6E6"/>
<path d="M250.351 364.153C338.373 364.153 409.728 359.996 409.728 354.868C409.728 349.74 338.373 345.583 250.351 345.583C162.33 345.583 90.9746 349.74 90.9746 354.868C90.9746 359.996 162.33 364.153 250.351 364.153Z" fill="#F5F5F5"/>
<path d="M335.928 344.621L317.417 303.685H274.141L280.784 341.99C281.112 343.871 279.847 345.66 277.962 345.987C277.778 346.019 277.591 346.035 277.404 346.038H258.402C257.39 346.038 256.568 346.857 256.568 347.867V349.907C256.568 350.917 257.39 351.737 258.402 351.737H334.592C335.693 351.737 336.587 350.846 336.587 349.746V347.63C336.582 346.594 336.357 345.568 335.928 344.621ZM315.887 339.562H295.111C293.757 339.565 292.599 338.592 292.372 337.26L289.236 319.191C288.975 317.681 289.99 316.246 291.503 315.985C291.662 315.958 291.822 315.944 291.983 315.944H307.697C308.788 315.945 309.779 316.581 310.233 317.571L318.423 335.641C319.054 337.043 318.425 338.69 317.019 339.319C316.663 339.478 316.278 339.561 315.887 339.562Z" fill="#263238"/>
<path opacity="0.5" d="M335.928 344.621L317.417 303.685H274.141L280.784 341.99C281.112 343.871 279.847 345.66 277.962 345.987C277.778 346.019 277.591 346.035 277.404 346.038H258.402C257.39 346.038 256.568 346.857 256.568 347.867V349.907C256.568 350.917 257.39 351.737 258.402 351.737H334.592C335.693 351.737 336.587 350.846 336.587 349.746V347.63C336.582 346.594 336.357 345.568 335.928 344.621ZM315.887 339.562H295.111C293.757 339.565 292.599 338.592 292.372 337.26L289.236 319.191C288.975 317.681 289.99 316.246 291.503 315.985C291.662 315.958 291.822 315.944 291.983 315.944H307.697C308.788 315.945 309.779 316.581 310.233 317.571L318.423 335.641C319.054 337.043 318.425 338.69 317.019 339.319C316.663 339.478 316.278 339.561 315.887 339.562Z" fill="white"/>
<path opacity="0.2" d="M315.887 339.562H295.111C293.757 339.564 292.599 338.592 292.372 337.26L289.236 319.191C288.975 317.681 289.99 316.246 291.503 315.985C291.662 315.957 291.822 315.944 291.983 315.944H307.697C308.788 315.945 309.779 316.581 310.233 317.571L318.423 335.641C319.054 337.043 318.425 338.69 317.019 339.318C316.663 339.478 316.278 339.561 315.887 339.562Z" fill="white"/>
<path d="M294.428 315.903H291.985C290.449 315.899 289.201 317.138 289.197 318.67C289.197 318.831 289.21 318.991 289.238 319.149L292.373 337.219C292.6 338.55 293.759 339.523 295.112 339.52H297.564C296.21 339.523 295.052 338.55 294.825 337.219L291.689 319.149C291.427 317.64 292.443 316.204 293.956 315.943C294.112 315.917 294.27 315.903 294.428 315.903Z" fill="#263238"/>
<path d="M338.38 344.622L319.853 303.719H317.418L335.929 344.622C336.363 345.578 336.587 346.616 336.588 347.665V349.782C336.588 350.881 335.695 351.772 334.593 351.772H337.044C338.146 351.772 339.039 350.882 339.039 349.782V347.665C339.038 346.616 338.814 345.578 338.38 344.622Z" fill="#263238"/>
<path opacity="0.2" d="M317.401 303.686H274.125L275.823 313.457H321.83L317.401 303.686Z" fill="black"/>
<path d="M379.484 307.977H194.858C191.503 308.04 188.731 305.378 188.667 302.031C188.662 301.764 188.674 301.497 188.705 301.232L200.369 168.144C200.75 164.363 203.906 161.465 207.714 161.399H392.339C395.695 161.336 398.467 163.998 398.53 167.346C398.535 167.612 398.523 167.88 398.492 168.144L386.82 301.24C386.439 305.015 383.287 307.911 379.484 307.977Z" fill="#263238"/>
<path opacity="0.3" d="M379.484 307.977H194.858C191.503 308.04 188.731 305.378 188.667 302.031C188.662 301.764 188.674 301.497 188.705 301.232L200.369 168.144C200.75 164.363 203.906 161.465 207.714 161.399H392.339C395.695 161.336 398.467 163.998 398.53 167.346C398.535 167.612 398.523 167.88 398.492 168.144L386.82 301.24C386.439 305.015 383.287 307.911 379.484 307.977Z" fill="white"/>
<path d="M189.957 286.855L188.698 301.239C188.319 304.566 190.716 307.569 194.05 307.947C194.316 307.977 194.584 307.99 194.851 307.985H379.485C383.291 307.918 386.444 305.019 386.821 301.239L388.088 286.855H189.957Z" fill="#30BABA"/>
<path opacity="0.7" d="M189.957 286.855L188.698 301.239C188.319 304.566 190.716 307.569 194.05 307.947C194.316 307.977 194.584 307.99 194.851 307.985H379.485C383.291 307.918 386.444 305.019 386.821 301.239L388.088 286.855H189.957Z" fill="white"/>
<path d="M381.571 282.783H197.183C195.363 282.817 193.859 281.373 193.825 279.557C193.822 279.415 193.829 279.273 193.844 279.131L203.488 169.139C203.698 167.092 205.408 165.524 207.469 165.488H391.858C393.678 165.454 395.182 166.898 395.216 168.714C395.219 168.856 395.212 168.999 395.197 169.14L385.552 279.132C385.342 281.179 383.633 282.747 381.571 282.783Z" fill="#30BABA"/>
<path opacity="0.8" d="M381.571 282.783H197.183C195.363 282.817 193.859 281.373 193.825 279.557C193.822 279.415 193.829 279.273 193.844 279.131L203.488 169.139C203.698 167.092 205.408 165.524 207.469 165.488H391.858C393.678 165.454 395.182 166.898 395.216 168.714C395.219 168.856 395.212 168.999 395.197 169.14L385.552 279.132C385.342 281.179 383.633 282.747 381.571 282.783Z" fill="#30BABA"/>
<path opacity="0.8" d="M381.571 282.783H197.183C195.363 282.817 193.859 281.373 193.825 279.557C193.822 279.415 193.829 279.273 193.844 279.131L203.488 169.139C203.698 167.092 205.408 165.524 207.469 165.488H391.858C393.678 165.454 395.182 166.898 395.216 168.714C395.219 168.856 395.212 168.999 395.197 169.14L385.552 279.132C385.342 281.179 383.633 282.747 381.571 282.783Z" fill="white"/>
<g opacity="0.5">
<path d="M248.851 282.784H232.016L257.009 165.488H273.844L248.851 282.784Z" fill="white"/>
<path d="M259.513 282.784H255.205L280.198 165.488H284.506L259.513 282.784Z" fill="white"/>
<path d="M322.225 282.784H319.402L344.395 165.488H347.218L322.225 282.784Z" fill="white"/>
<path d="M332.886 282.784H328.578L353.571 165.488H357.879L332.886 282.784Z" fill="white"/>
</g>
<path d="M396.422 161.423H392.34C395.696 161.36 398.468 164.023 398.531 167.37C398.536 167.637 398.524 167.904 398.493 168.169L386.821 301.239C386.444 305.019 383.291 307.918 379.484 307.985H383.566C387.373 307.917 390.526 305.019 390.903 301.239L402.575 168.152C402.944 164.824 400.54 161.827 397.203 161.459C396.944 161.431 396.683 161.419 396.422 161.423Z" fill="#263238"/>
<path opacity="0.6" d="M396.422 161.423H392.34C395.696 161.36 398.468 164.023 398.531 167.37C398.536 167.637 398.524 167.904 398.493 168.169L386.821 301.239C386.444 305.019 383.291 307.918 379.484 307.985H383.566C387.373 307.917 390.526 305.019 390.903 301.239L402.575 168.152C402.944 164.824 400.54 161.827 397.203 161.459C396.944 161.431 396.683 161.419 396.422 161.423Z" fill="white"/>
<path d="M298.555 241.712C297.887 249.333 291.152 255.511 283.513 255.511C275.873 255.511 270.222 249.333 270.89 241.712C271.558 234.091 278.293 227.913 285.933 227.913L286.552 220.857C275.006 220.857 264.828 230.194 263.817 241.712C262.807 253.229 271.348 262.566 282.894 262.566C294.439 262.566 304.617 253.229 305.628 241.712H298.555Z" fill="#30BABA"/>
<path d="M308.107 238.653C309.117 227.136 300.577 217.799 289.031 217.799L288.412 224.854C296.052 224.854 301.703 231.032 301.035 238.653H308.107Z" fill="#30BABA"/>
<path opacity="0.3" d="M308.107 238.653C309.117 227.136 300.577 217.799 289.031 217.799L288.412 224.854C296.052 224.854 301.703 231.032 301.035 238.653H308.107Z" fill="black"/>
<path d="M290.783 241.712C290.479 245.181 287.414 247.992 283.937 247.992C280.46 247.992 277.888 245.18 278.193 241.712C278.497 238.244 281.562 235.432 285.039 235.432L285.321 232.221C280.067 232.221 275.434 236.47 274.974 241.711C274.515 246.953 278.401 251.202 283.656 251.202C288.911 251.202 293.543 246.953 294.003 241.711H290.783V241.712Z" fill="#30BABA"/>
<path opacity="0.3" d="M290.783 241.712C290.479 245.181 287.414 247.992 283.937 247.992C280.46 247.992 277.888 245.18 278.193 241.712C278.497 238.244 281.562 235.432 285.039 235.432L285.321 232.221C280.067 232.221 275.434 236.47 274.974 241.711C274.515 246.953 278.401 251.202 283.656 251.202C288.911 251.202 293.543 246.953 294.003 241.711H290.783V241.712Z" fill="black"/>
<path d="M295.129 240.321C295.589 235.079 291.702 230.83 286.448 230.83L286.166 234.041C289.643 234.041 292.215 236.853 291.911 240.322H295.129V240.321Z" fill="#30BABA"/>
<path d="M335.868 252.572H319.235C318.608 252.572 318.145 252.065 318.2 251.44C318.255 250.815 318.806 250.309 319.433 250.309H336.066C336.692 250.309 337.156 250.815 337.101 251.44C337.046 252.066 336.494 252.572 335.868 252.572Z" fill="#263238"/>
<path d="M331.296 257.021H318.844C318.218 257.021 317.754 256.514 317.809 255.889C317.864 255.265 318.416 254.758 319.042 254.758H331.495C332.121 254.758 332.585 255.265 332.529 255.889C332.474 256.514 331.923 257.021 331.296 257.021Z" fill="#263238"/>
<path d="M234.493 254.445H251.126C251.752 254.445 252.305 253.938 252.361 253.313C252.417 252.688 251.954 252.182 251.327 252.182H234.694C234.068 252.182 233.515 252.688 233.46 253.313C233.404 253.938 233.867 254.445 234.493 254.445Z" fill="#263238"/>
<path d="M238.278 258.894H250.731C251.357 258.894 251.91 258.387 251.965 257.762C252.021 257.137 251.558 256.63 250.932 256.63H238.479C237.853 256.63 237.301 257.137 237.245 257.762C237.189 258.388 237.652 258.894 238.278 258.894Z" fill="#263238"/>
<path d="M315.085 252.09H309.42L296.574 238.046H292.438L292.542 236.86H297.171L310.017 250.903H315.19L315.085 252.09Z" fill="#263238"/>
<path d="M254.388 254.556H260.053L272.899 240.512H277.035L276.932 239.326H272.302L259.456 253.369H254.283L254.388 254.556Z" fill="#263238"/>
<path opacity="0.1" d="M247.496 182.532H217.424L217.925 176.813H247.997L247.496 182.532Z" fill="black"/>
<path opacity="0.1" d="M246.494 193.97H216.422L216.923 188.251H246.995L246.494 193.97Z" fill="black"/>
<path opacity="0.1" d="M245.49 205.409H215.418L215.92 199.69H245.991L245.49 205.409Z" fill="black"/>
<path opacity="0.2" d="M246.994 188.252H216.922L217.423 182.532H247.495L246.994 188.252Z" fill="white"/>
<path opacity="0.2" d="M245.991 199.69H215.92L216.421 193.97H246.493L245.991 199.69Z" fill="white"/>
<path d="M234.456 204.761C230.43 204.761 229.756 198 229.043 190.843C228.385 184.243 227.704 177.418 224.181 177.418C221.291 177.418 217.992 187.109 216.965 190.843L216.379 190.732C216.388 190.698 217.341 187.256 218.744 183.859C220.675 179.184 222.522 176.814 224.233 176.814C228.259 176.814 228.933 183.575 229.647 190.732C230.304 197.332 230.985 204.157 234.508 204.157C237.326 204.157 240.531 194.948 241.642 191.025C241.688 190.863 241.855 190.758 242.015 190.787C242.177 190.818 242.273 190.976 242.225 191.141C241.962 192.05 241.109 194.899 239.945 197.716C238.015 202.391 236.168 204.761 234.456 204.761Z" fill="#30BABA"/>
<path d="M220.576 201.64C217.52 201.64 216.473 192.014 216.363 190.917L216.968 190.806C217.252 193.651 218.463 201.035 220.629 201.035C222.836 201.035 224.047 196.634 225.217 192.377C226.512 187.67 227.734 183.225 230.444 183.225C232.72 183.225 233.088 186.907 233.476 190.805C233.823 194.289 234.182 197.892 235.955 197.892C237.728 197.892 238.719 194.289 239.678 190.806C240.75 186.908 241.763 183.226 244.039 183.226C245.039 183.226 245.826 184.494 246.446 187.101C246.778 188.497 246.966 189.906 247.037 190.507C247.057 190.672 246.933 190.831 246.765 190.862C246.599 190.892 246.453 190.786 246.435 190.624C246.128 187.879 245.232 183.83 243.986 183.83C242.213 183.83 241.221 187.433 240.263 190.918C239.19 194.816 238.178 198.498 235.901 198.498C233.625 198.498 233.258 194.816 232.87 190.918C232.523 187.433 232.164 183.831 230.391 183.831C228.184 183.831 226.973 188.233 225.802 192.489C224.509 197.195 223.286 201.64 220.576 201.64Z" fill="#30BABA"/>
<g opacity="0.5">
<path d="M220.576 201.64C217.52 201.64 216.473 192.014 216.363 190.917L216.968 190.806C217.252 193.651 218.463 201.035 220.629 201.035C222.836 201.035 224.047 196.634 225.217 192.377C226.512 187.67 227.734 183.225 230.444 183.225C232.72 183.225 233.088 186.907 233.476 190.805C233.823 194.289 234.182 197.892 235.955 197.892C237.728 197.892 238.719 194.289 239.678 190.806C240.75 186.908 241.763 183.226 244.039 183.226C245.039 183.226 245.826 184.494 246.446 187.101C246.778 188.497 246.966 189.906 247.037 190.507C247.057 190.672 246.933 190.831 246.765 190.862C246.599 190.892 246.453 190.786 246.435 190.624C246.128 187.879 245.232 183.83 243.986 183.83C242.213 183.83 241.221 187.433 240.263 190.918C239.19 194.816 238.178 198.498 235.901 198.498C233.625 198.498 233.258 194.816 232.87 190.918C232.523 187.433 232.164 183.831 230.391 183.831C228.184 183.831 226.973 188.233 225.802 192.489C224.509 197.195 223.286 201.64 220.576 201.64Z" fill="black"/>
</g>
<path d="M245.687 205.989H215.035L217.564 177.145C217.581 176.962 217.743 176.813 217.926 176.813C218.109 176.813 218.245 176.962 218.229 177.145L215.758 205.327H245.744C245.928 205.327 246.063 205.475 246.048 205.658C246.032 205.841 245.87 205.989 245.687 205.989Z" fill="#263238"/>
<path d="M314.753 178.061H313.963H305.212H304.422H295.671H294.881H286.129H285.339H276.587H275.797H266.255L265.42 187.579L265.351 188.367L264.586 197.098L264.517 197.886L263.682 207.404H273.223H274.013H282.765H283.556H292.308H293.096H301.847H302.637H311.389H312.179H321.721L322.557 197.886L322.626 197.098L323.391 188.367L323.46 187.579L324.295 178.061H314.753ZM305.142 178.849H313.894L313.128 187.578H304.376L305.142 178.849ZM312.293 197.098H303.541L304.307 188.367H313.059L312.293 197.098ZM275.681 188.367H284.433L283.667 197.098H274.915L275.681 188.367ZM285.224 188.367H293.976L293.21 197.098H284.458L285.224 188.367ZM294.766 188.367H303.517L302.751 197.098H294L294.766 188.367ZM295.601 178.849H304.352L303.586 187.578H294.835L295.601 178.849ZM286.058 178.849H294.81L294.045 187.578H285.293L286.058 178.849ZM276.516 178.849H285.268L284.502 187.578H275.75L276.516 178.849ZM266.974 178.849H275.726L274.96 187.578H266.208L266.974 178.849ZM266.139 188.367H274.891L274.125 197.098H265.373L266.139 188.367ZM273.291 206.616H264.539L265.304 197.886H274.056L273.291 206.616ZM282.833 206.616H274.081L274.847 197.886H283.599L282.833 206.616ZM292.374 206.616H283.623L284.389 197.886H293.14L292.374 206.616ZM301.916 206.616H293.165L293.931 197.886H302.682L301.916 206.616ZM311.459 206.616H302.707L303.472 197.886H312.224L311.459 206.616ZM321.001 206.616H312.249L313.015 197.886H321.767L321.001 206.616ZM321.835 197.098H313.083L313.848 188.367H322.6L321.835 197.098ZM313.918 187.578L314.683 178.849H323.435L322.669 187.578H313.918Z" fill="#30BABA"/>
<path d="M275.758 207.011H269.553L270.537 195.798H276.741L275.758 207.011Z" fill="#30BABA"/>
<path d="M285.301 207.011H279.096L280.348 192.732H286.553L285.301 207.011Z" fill="#263238"/>
<path d="M295.31 207.011H289.105L290.357 192.732H296.563L295.31 207.011Z" fill="#30BABA"/>
<path d="M304.385 207.011H298.18L300.122 184.868H306.327L304.385 207.011Z" fill="#263238"/>
<path d="M313.926 207.011H307.721L309.808 183.213H316.013L313.926 207.011Z" fill="#30BABA"/>
<path opacity="0.2" d="M275.758 207.011H269.553L270.537 195.798H276.741L275.758 207.011Z" fill="black"/>
<path opacity="0.2" d="M295.31 207.011H289.105L290.357 192.732H296.563L295.31 207.011Z" fill="black"/>
<path opacity="0.2" d="M313.926 207.011H307.721L309.808 183.213H316.013L313.926 207.011Z" fill="black"/>
<path d="M344.438 236.926L343.469 233.148C343.392 233.171 335.664 235.376 327.844 231.663L326.379 235.25C335.422 239.544 344.073 237.035 344.438 236.926Z" fill="#223749"/>
<path d="M303.787 217.973C304.222 218.551 305.008 218.639 305.544 218.171C306.079 217.702 306.161 216.854 305.727 216.276L302.899 212.517C302.464 211.94 301.678 211.851 301.142 212.32C300.606 212.789 300.525 213.637 300.959 214.215L303.787 217.973Z" fill="#374169"/>
<path d="M304.589 213.29C305.095 214.05 306.077 214.224 306.782 213.679C307.487 213.133 307.649 212.075 307.143 211.314L303.852 206.367C303.346 205.606 302.365 205.432 301.659 205.977C300.954 206.523 300.793 207.582 301.299 208.342L304.589 213.29Z" fill="#374169"/>
<path d="M310.009 211.244C310.767 210.789 311.04 209.757 310.618 208.939L307.872 203.619C307.45 202.801 306.493 202.507 305.735 202.962C304.977 203.417 304.704 204.449 305.126 205.267L307.872 210.587C308.294 211.405 309.251 211.699 310.009 211.244Z" fill="#374169"/>
<path d="M315.064 211.878C315.822 211.423 316.095 210.391 315.672 209.573L312.927 204.253C312.505 203.435 311.548 203.141 310.79 203.597C310.031 204.052 309.759 205.084 310.181 205.901L312.926 211.221C313.349 212.039 314.305 212.333 315.064 211.878Z" fill="#374169"/>
<path d="M317.86 216.528C318.841 216.754 319.806 216.079 320.016 215.021L321.379 208.137C321.589 207.078 320.963 206.037 319.982 205.811C319.001 205.585 318.036 206.26 317.826 207.318L316.462 214.203C316.253 215.261 316.878 216.302 317.86 216.528Z" fill="#374169"/>
<path d="M326.272 237.946C326.272 237.946 330.044 230.738 328.406 227.946C326.768 225.155 319.737 214.491 318.722 212.336C317.708 210.18 311.469 207.546 306.962 210.943C302.455 214.34 301.976 217.232 308.467 225.51C314.958 233.788 325.438 239.724 326.272 237.946Z" fill="#8CD2F9"/>
<path d="M308.357 225.611C304.648 220.882 303.187 217.859 303.472 215.504C303.669 213.869 304.688 212.466 306.88 210.815C307.102 210.647 307.334 210.491 307.571 210.348C309.585 209.14 312.11 208.833 314.63 209.514C316.637 210.057 318.335 211.163 318.853 212.265C319.351 213.324 321.381 216.555 323.094 219.252C323.684 220.181 324.287 221.126 324.87 222.04C326.426 224.478 327.895 226.781 328.53 227.863C330.19 230.692 326.577 237.684 326.401 238.021C326.297 238.238 326.09 238.368 325.785 238.407C323.25 238.728 314.056 232.88 308.357 225.611ZM308.579 225.409C314.596 233.083 323.559 238.373 325.751 238.096C325.859 238.082 325.946 238.055 326.013 238.015C326.073 237.979 326.116 237.932 326.143 237.876L326.146 237.87C326.183 237.798 329.856 230.711 328.284 228.031C327.652 226.955 326.184 224.654 324.63 222.218C324.047 221.304 323.444 220.359 322.854 219.43C321.029 216.557 319.096 213.476 318.594 212.407C318.118 211.397 316.459 210.333 314.559 209.819C311.823 209.079 309.084 209.536 307.046 211.072C304.929 212.668 303.946 214.006 303.76 215.545C303.487 217.803 304.928 220.754 308.579 225.409Z" fill="#1D1D1B"/>
<path d="M312.158 219.286C313.818 216.968 316.669 215.783 320.631 215.765L320.629 215.451C318.035 215.463 315.903 215.969 314.253 216.959C313.322 217.518 312.546 218.231 311.926 219.096C309.282 222.79 310.492 228.037 310.505 228.089L310.787 228.011C310.775 227.96 309.6 222.857 312.158 219.286Z" fill="#1D1D1B"/>
<path d="M367.796 219.587H377.379V223.495H367.796H367.473H357.89V219.587H367.473H367.796Z" fill="#111E28"/>
<path d="M383.109 266.394C383.109 268.044 382.37 269.411 381.402 269.662H370.99C370.023 269.411 369.283 268.044 369.283 266.394V260.744H383.109V266.394Z" fill="#223749"/>
<path d="M365.99 266.394C365.99 268.044 365.251 269.411 364.283 269.662H353.871C352.904 269.411 352.164 268.044 352.164 266.394V260.744H365.99V266.394Z" fill="#374169"/>
<path d="M349.256 228.863L349.406 227.349C349.941 225.131 351.81 223.496 354.033 223.496H367.47H367.794H381.231C383.454 223.496 385.323 225.131 385.858 227.349L386.008 228.863L388.534 254.266L388.668 255.616V255.622C388.602 258.408 386.488 260.645 383.889 260.645H367.794H367.47H351.376C348.777 260.645 346.662 258.408 346.596 255.622V255.616L346.73 254.266L349.256 228.863Z" fill="#49B3E2"/>
<path d="M380.217 227.978C380.474 226.838 381.592 226.194 382.612 226.597C385.584 227.77 391.362 230.696 395.699 236.874L392.802 239.24C389.032 233.87 383.88 231.289 381.349 230.28C380.484 229.936 380 228.944 380.217 227.978Z" fill="#223749"/>
<path d="M406.207 262.725C406.886 262.596 407.534 263.086 407.653 263.819L408.428 268.586C408.548 269.319 408.093 270.017 407.414 270.146C406.734 270.275 406.087 269.785 405.968 269.052L405.192 264.285C405.073 263.552 405.527 262.854 406.207 262.725Z" fill="#374169"/>
<path d="M403.099 266.002C403.961 265.895 404.741 266.562 404.84 267.492L405.484 273.541C405.583 274.471 404.964 275.311 404.102 275.418C403.24 275.525 402.461 274.858 402.362 273.928L401.718 267.879C401.619 266.949 402.237 266.109 403.099 266.002Z" fill="#374169"/>
<path d="M399.177 266.435C400.044 266.435 400.748 267.194 400.748 268.13V274.218C400.748 275.154 400.044 275.913 399.177 275.913C398.309 275.913 397.605 275.154 397.605 274.218V268.13C397.605 267.194 398.309 266.435 399.177 266.435Z" fill="#374169"/>
<path d="M395.048 263.23C395.916 263.23 396.619 263.989 396.619 264.925V271.014C396.619 271.95 395.916 272.708 395.048 272.708C394.18 272.708 393.477 271.95 393.477 271.014V264.925C393.477 263.989 394.18 263.23 395.048 263.23Z" fill="#374169"/>
<path d="M392.142 257.887C392.802 257.072 393.95 256.989 394.705 257.702C395.461 258.414 395.538 259.652 394.877 260.466L390.581 265.767C389.921 266.581 388.773 266.664 388.018 265.952C387.262 265.24 387.185 264.002 387.846 263.187L392.142 257.887Z" fill="#374169"/>
<path d="M397.012 234.572C398.542 233.456 405.022 244.141 406.961 254.778C408.899 265.415 407.176 267.691 401.706 268.295C396.236 268.899 391.972 263.325 392.059 260.91C392.145 258.494 390.81 245.488 390.637 242.19C390.465 238.892 397.012 234.572 397.012 234.572Z" fill="#8CD2F9"/>
<path d="M372.839 269.663H379.17V282.598H372.839V269.663Z" fill="#223749"/>
<path d="M347.304 269.663H353.635V282.598H347.304V269.663Z" fill="#223749"/>
<path d="M358.994 219.587H368.576V223.495H358.994H358.67H349.087V219.587H358.67H358.994Z" fill="#374169"/>
<path d="M374.308 266.394C374.308 268.044 373.569 269.411 372.601 269.662H362.19C361.222 269.411 360.483 268.044 360.483 266.394V260.744H374.309L374.308 266.394Z" fill="#374169"/>
<path d="M357.189 266.394C357.189 268.044 356.45 269.411 355.482 269.662H345.071C344.103 269.411 343.363 268.044 343.363 266.394V260.744H357.189V266.394Z" fill="#374169"/>
<path d="M340.462 228.863L340.611 227.349C341.146 225.131 343.016 223.496 345.238 223.496H358.675H358.999H372.437C374.659 223.496 376.528 225.131 377.063 227.349L377.213 228.863L379.739 254.266L379.873 255.616V255.622C379.808 258.408 377.693 260.645 375.094 260.645H358.999H358.675H342.581C339.982 260.645 337.867 258.408 337.801 255.622V255.616L337.935 254.266L340.462 228.863Z" fill="#8CD2F9"/>
<path d="M335.962 182.21H336.855V196.453H335.962V182.21Z" fill="#111E28"/>
<path d="M331.897 202.054C332.603 202.054 333.176 202.671 333.176 203.433C333.176 204.194 332.603 204.812 331.897 204.812C331.191 204.812 330.619 204.194 330.619 203.433C330.619 202.671 331.191 202.054 331.897 202.054Z" fill="#374169"/>
<path d="M331.895 200.367H333.533V206.497H331.895V200.367Z" fill="#111E28"/>
<path d="M335.861 194.798H339.887V212.146H335.861C334.685 212.146 333.711 211.218 333.532 210.004V196.94C333.711 195.726 334.685 194.798 335.861 194.798Z" fill="#374169"/>
<path d="M334.219 182.563C333.956 181.248 334.731 179.952 335.951 179.668C337.17 179.384 338.372 180.221 338.635 181.536C338.898 182.851 338.123 184.147 336.903 184.431C335.684 184.715 334.482 183.878 334.219 182.563Z" fill="#374169"/>
<path d="M349.277 181.84C351.439 180.42 364.906 180.537 366.33 180.553C367.754 180.537 381.221 180.42 383.383 181.84C385.667 183.339 388.447 200.902 388.745 205.078C389.042 209.239 388.549 220.202 366.454 221.342V221.355C366.412 221.353 366.371 221.351 366.33 221.349C366.288 221.351 366.248 221.353 366.206 221.355V221.342C344.111 220.202 343.618 209.239 343.915 205.078C344.213 200.902 346.993 183.339 349.277 181.84Z" fill="#49B3E2"/>
<path d="M342.52 181.84C344.683 180.42 358.15 180.537 359.574 180.553C360.997 180.537 374.465 180.42 376.627 181.84C378.911 183.339 381.691 200.902 381.989 205.078C382.286 209.239 385.229 220.446 363.133 221.587H357.945C335.85 220.446 336.862 209.239 337.159 205.078C337.456 200.902 340.237 183.339 342.52 181.84Z" fill="#8CD2F9"/>
<path d="M387.579 183.571H388.047V194.829H387.579V183.571Z" fill="#111E28"/>
<path d="M386.011 194.797H388.894C390.034 194.797 390.984 195.669 391.204 196.828C391.218 196.902 391.223 196.977 391.223 197.053V209.89C391.223 209.966 391.218 210.041 391.204 210.115C390.984 211.274 390.034 212.145 388.894 212.145H386.011C385.38 212.145 384.868 211.594 384.868 210.913V196.03C384.868 195.349 385.38 194.797 386.011 194.797Z" fill="#111E28"/>
<path d="M386.687 182.211H387.58V196.454H386.687V182.211Z" fill="#111E28"/>
<path d="M392.142 202.053C392.848 202.053 393.42 202.671 393.42 203.432C393.42 204.193 392.848 204.811 392.142 204.811C391.436 204.811 390.863 204.193 390.863 203.432C390.863 202.671 391.436 202.053 392.142 202.053Z" fill="#374169"/>
<path d="M390.503 200.367H392.141V206.497H390.503V200.367Z" fill="#111E28"/>
<path d="M384.794 194.797H387.677C388.817 194.797 389.767 195.669 389.987 196.828C390.001 196.902 390.006 196.977 390.006 197.053V209.89C390.006 209.966 390.001 210.041 389.987 210.115C389.767 211.274 388.817 212.145 387.677 212.145H384.794C384.163 212.145 383.651 211.594 383.651 210.913V196.03C383.651 195.349 384.163 194.797 384.794 194.797Z" fill="#374169"/>
<path d="M385.176 183.288C384.541 182.129 384.898 180.635 385.972 179.951C387.047 179.267 388.432 179.652 389.066 180.81C389.701 181.969 389.344 183.463 388.27 184.147C387.195 184.831 385.81 184.447 385.176 183.288Z" fill="#374169"/>
<path d="M346.763 186.564C348.376 185.505 358.344 185.582 359.571 185.595C360.798 185.582 370.765 185.506 372.378 186.564C374.098 187.693 376.191 200.914 376.415 204.058C376.638 207.187 376.266 215.422 359.695 216.299V216.312C359.653 216.31 359.613 216.308 359.571 216.305C359.529 216.308 359.489 216.31 359.447 216.312V216.299C342.875 215.422 342.504 207.187 342.727 204.058C342.951 200.914 345.044 187.693 346.763 186.564Z" fill="#374169"/>
<path d="M368.983 203.8C367.524 203.8 366.341 202.525 366.341 200.951C366.341 199.377 367.524 198.102 368.983 198.102C370.442 198.102 371.625 199.377 371.625 200.951C371.625 202.525 370.442 203.8 368.983 203.8Z" fill="white"/>
<path d="M350.165 198.1C351.624 198.1 352.807 199.376 352.807 200.949C352.807 202.523 351.624 203.799 350.165 203.799C348.706 203.799 347.523 202.523 347.523 200.949C347.523 199.376 348.706 198.1 350.165 198.1Z" fill="white"/>
<path d="M364.008 206.156C361.497 211.023 356.775 210.838 354.418 205.781H364.201L364.008 206.156Z" fill="white"/>
<path d="M350.641 231.906L350.651 231.829C350.95 230.048 352.06 228.805 353.35 228.805H365.262C366.552 228.805 367.662 230.048 367.961 231.829L369.201 249.643L369.203 249.675L369.203 249.715C369.167 251.889 367.947 253.592 366.426 253.592H352.186C350.665 253.592 349.445 251.889 349.409 249.715V249.671L350.576 232.856L350.641 231.906ZM352.186 252.116H366.426C367.164 252.116 367.806 251.017 367.834 249.719L366.672 232.965L366.609 232.056C366.425 231.024 365.862 230.28 365.262 230.28H353.35C352.75 230.28 352.187 231.024 352.003 232.056L350.778 249.718C350.808 251.021 351.45 252.116 352.186 252.116Z" fill="#49B3E2"/>
<path d="M343.507 265.99C343.507 269.177 344.953 269.485 345.079 269.506H381.4V269.819H345.061L345.053 269.818C344.977 269.809 343.217 269.551 343.217 265.99V260.744H343.507L343.507 265.99Z" fill="#1D1D1B"/>
<path d="M384.579 260.445L384.58 260.758L342.134 260.915L342.133 260.602L384.579 260.445Z" fill="#1D1D1B"/>
<path d="M377.532 230.526L379.82 253.568L379.531 253.602L377.243 230.559L377.532 230.526Z" fill="#1D1D1B"/>
<path d="M343.494 252.683L345.291 255.376L345.055 255.559L343.258 252.866L343.494 252.683Z" fill="#1D1D1B"/>
<path d="M341.677 254.419L343.475 257.113L343.239 257.296L341.441 254.602L341.677 254.419Z" fill="#1D1D1B"/>
<path d="M396.928 234.44C397.117 234.305 397.356 234.3 397.641 234.426C400 235.475 405.396 245.407 407.098 254.748C408.205 260.826 408.119 264.233 406.808 266.142C405.898 267.467 404.375 268.158 401.716 268.452C401.445 268.481 401.174 268.496 400.901 268.496C398.597 268.496 396.252 267.44 394.358 265.523C392.849 263.995 391.864 262.14 391.908 260.904C391.95 259.719 391.634 255.83 391.354 252.574C391.257 251.45 391.156 250.305 391.058 249.197C390.799 246.255 390.554 243.476 390.487 242.2C390.313 238.856 396.622 234.643 396.928 234.44ZM390.777 242.182C390.844 243.452 391.089 246.228 391.348 249.167C391.445 250.275 391.546 251.42 391.643 252.545C391.942 256.013 392.242 259.72 392.199 260.916C392.158 262.048 393.128 263.848 394.557 265.294C396.614 267.376 399.211 268.414 401.686 268.14C404.256 267.856 405.718 267.203 406.575 265.955C407.831 264.125 407.903 260.791 406.813 254.809C405.016 244.947 399.57 235.624 397.53 234.716C397.429 234.672 397.34 234.649 397.264 234.649C397.195 234.649 397.136 234.667 397.088 234.703L397.082 234.707C397.018 234.749 390.612 239.015 390.777 242.182Z" fill="#1D1D1B"/>
<path d="M400.924 258.281C404.769 256.502 406.044 251.427 406.057 251.376L406.338 251.456C406.325 251.508 405.016 256.728 401.04 258.568C400.109 258.999 399.109 259.215 398.044 259.215C396.156 259.215 394.065 258.538 391.793 257.188L391.933 256.913C395.403 258.975 398.428 259.436 400.924 258.281Z" fill="#1D1D1B"/>
<path d="M337.043 205.068C337.329 201.055 340.093 183.289 342.458 181.737C344.641 180.303 358.049 180.415 359.568 180.433C361.09 180.415 374.497 180.303 376.681 181.737C379.045 183.289 381.81 201.055 382.096 205.068C382.118 205.373 382.154 205.721 382.193 206.091C382.457 208.603 382.856 212.4 380.275 215.67C377.464 219.234 371.697 221.264 363.129 221.707H357.936C348.901 221.24 342.701 219.024 339.508 215.12C336.578 211.539 336.875 207.406 337.034 205.186L337.043 205.068ZM339.675 214.961C342.826 218.814 348.974 221.003 357.941 221.466H363.124C371.622 221.027 377.335 219.025 380.105 215.514C382.623 212.323 382.231 208.589 381.971 206.118C381.932 205.746 381.895 205.395 381.873 205.087C381.566 200.775 378.769 183.39 376.565 181.942C374.815 180.794 365.499 180.664 361.384 180.664C360.489 180.664 359.839 180.67 359.568 180.673C358.053 180.656 344.704 180.543 342.574 181.942C340.369 183.39 337.573 200.775 337.265 205.087L337.257 205.204C337.1 207.389 336.808 211.456 339.675 214.961Z" fill="#1D1D1B"/>
<path d="M383.553 195.852C383.675 194.805 384.774 194.68 384.785 194.679L384.791 194.678L388.047 194.709L388.045 194.95L384.801 194.919C384.717 194.93 383.876 195.052 383.775 195.875L383.764 210.307L383.541 210.307L383.552 195.867L383.553 195.852Z" fill="#1D1D1B"/>
<path d="M335.679 194.68L338.658 194.678V194.919H335.713C335.575 194.952 334.051 195.348 333.684 196.754L333.469 196.688C333.889 195.079 335.606 194.696 335.679 194.68Z" fill="#1D1D1B"/>
<path d="M333.427 196.931L333.65 196.934L333.525 209.157L333.302 209.154L333.427 196.931Z" fill="#1D1D1B"/>
<path d="M349.814 214.315C352.528 215.432 355.861 216.076 359.451 216.178C366.701 216.381 372.761 212.391 372.822 212.351L372.939 212.555C372.88 212.595 367.072 216.427 359.996 216.427C359.813 216.427 359.629 216.424 359.446 216.419C352.049 216.209 346.114 213.774 343.957 210.064L344.146 209.936C345.17 211.697 347.13 213.211 349.814 214.315Z" fill="#1D1D1B"/>
<path d="M370.486 185.925L370.477 186.166C370.328 186.16 355.444 185.529 349.564 186.052L349.545 185.811C355.438 185.287 370.337 185.919 370.486 185.925Z" fill="#1D1D1B"/>
<path d="M131.438 283.612L154.977 286.346L155.208 284.36L130.557 281.496L130.455 282.373C130.384 282.985 130.824 283.54 131.438 283.612Z" fill="#263238"/>
<path opacity="0.2" d="M131.438 283.612L154.977 286.346L155.208 284.36L130.557 281.496L130.455 282.373C130.384 282.985 130.824 283.54 131.438 283.612Z" fill="white"/>
<path d="M150.443 285.819L169.667 288.052L169.899 286.065L149.564 283.703L149.461 284.58C149.389 285.193 149.829 285.748 150.443 285.819Z" fill="#263238"/>
<path opacity="0.5" d="M150.443 285.819L169.667 288.052L169.899 286.065L149.564 283.703L149.461 284.58C149.389 285.193 149.829 285.748 150.443 285.819Z" fill="white"/>
<path d="M165.249 286.881L167.242 287.113L167.325 286.407L165.331 286.176L165.249 286.881Z" fill="#263238"/>
<path d="M162.143 286.521L164.135 286.753L164.217 286.048L162.225 285.816L162.143 286.521Z" fill="#263238"/>
<path d="M168.551 285.909L169.875 286.063L173.342 268.265L172.017 268.111L168.551 285.909Z" fill="#263238"/>
<path opacity="0.3" d="M168.551 285.909L169.875 286.063L173.342 268.265L172.017 268.111L168.551 285.909Z" fill="white"/>
<path d="M169.04 285.966L145.76 283.261L149.227 265.463L172.507 268.168L169.04 285.966Z" fill="#30BABA"/>
<path opacity="0.5" d="M169.04 285.966L145.76 283.261L149.227 265.463L172.507 268.168L169.04 285.966Z" fill="white"/>
<path d="M121.518 246.995C120.878 248.263 120.172 249.646 119.538 250.988C118.903 252.347 118.263 253.698 117.685 255.058C117.095 256.412 116.546 257.769 116.081 259.106C115.61 260.43 115.215 261.769 115.032 262.91C114.933 263.467 114.903 263.985 114.915 264.238C114.918 264.298 114.92 264.343 114.916 264.357C114.915 264.361 114.91 264.375 114.905 264.361L114.892 264.351L114.853 264.284C114.736 264.12 115.438 264.937 115.942 265.285C116.457 265.638 117.042 266 117.655 266.349C120.129 267.737 122.989 268.981 125.743 270.246L124.818 274.084C123.148 273.957 121.565 273.732 119.949 273.409C118.341 273.088 116.734 272.69 115.104 272.125C114.287 271.845 113.462 271.527 112.617 271.11C111.769 270.681 110.897 270.224 109.93 269.386C109.456 268.958 108.932 268.429 108.454 267.571C108.396 267.463 108.334 267.344 108.286 267.242L108.165 266.961C108.082 266.767 108.025 266.593 107.965 266.411C107.85 266.051 107.771 265.714 107.709 265.389C107.48 264.099 107.518 263.043 107.592 262.052C107.78 260.093 108.201 258.404 108.665 256.754C109.149 255.118 109.706 253.555 110.306 252.024C110.919 250.499 111.557 249.002 112.264 247.542C112.973 246.068 113.663 244.658 114.504 243.177L121.518 246.995Z" fill="#FFB573"/>
<path d="M123.941 270.405L129.866 268.885L130.353 274.198C130.353 274.198 126.361 275.841 123.9 273.271L123.941 270.405Z" fill="#FFB573"/>
<path d="M132.252 269.666L133.511 273.953L130.353 274.199L129.865 268.885L132.252 269.666Z" fill="#FFB573"/>
<path d="M108.932 253.251L117.388 257.426C117.388 257.426 119.558 258.113 123.553 251.743C128.181 244.33 125.644 240.166 120.065 239.967C114.358 239.754 112.327 246.801 108.932 253.251Z" fill="#30BABA"/>
<path opacity="0.5" d="M108.932 253.251L117.388 257.426C117.388 257.426 119.558 258.113 123.553 251.743C128.181 244.33 125.644 240.166 120.065 239.967C114.358 239.754 112.327 246.801 108.932 253.251Z" fill="white"/>
<path opacity="0.2" d="M112.078 254.807L116.91 257.196L119.365 254.304L116.638 247.041L115.878 246.211L113.983 245.937L112.078 254.807Z" fill="black"/>
<path d="M108.901 252.635L118.255 257.407L117.011 258.884L108.402 254.504L108.901 252.635Z" fill="#30BABA"/>
<path d="M134.208 221.097C134.48 221.03 134.82 221.276 134.966 221.694C135.113 222.113 135.013 222.538 134.733 222.605C134.453 222.671 134.114 222.419 133.967 222.007C133.801 221.589 133.935 221.163 134.208 221.097Z" fill="#2E353A"/>
<path d="M135.698 225.594C136.328 225.526 136.897 225.184 137.249 224.657C136.181 224.01 135.206 223.224 134.346 222.319L135.698 225.594Z" fill="#ED893E"/>
<path d="M132.355 220.46C132.454 219.819 132.859 219.266 133.44 218.979C133.55 218.921 133.604 218.795 133.569 218.676C133.529 218.538 133.385 218.46 133.247 218.5C132.498 218.851 131.975 219.55 131.849 220.366C131.848 220.369 131.848 220.372 131.847 220.374C131.824 220.512 131.917 220.642 132.055 220.665C132.099 220.674 132.145 220.674 132.188 220.665C132.277 220.631 132.34 220.552 132.355 220.46Z" fill="#2E353A"/>
<path d="M122.054 240.645C121.771 241.907 121.579 242.504 122.71 243.049C125.096 244.276 127.723 244.711 130.305 244.304C132.997 243.846 133.478 242.89 133.364 242.119C133.257 241.495 132.691 241.116 132.126 240.831C130.976 240.41 130.18 239.182 130.14 237.769C130.072 237.137 130.011 235.875 130.18 235.69L125.367 232.515L121.736 228.477C122.613 231.738 122.777 237.423 122.054 240.645Z" fill="#FFB573"/>
<path d="M137.182 243.454C137.182 243.454 135.404 238.559 132.521 237.429C129.639 236.3 120.983 236.931 120.983 236.931C120.573 238.697 120.032 240.431 119.365 242.118L137.182 243.454Z" fill="#30BABA"/>
<path d="M119.523 223.068C119.647 219.034 123.025 215.866 127.068 215.989C132.635 216.189 135.89 223.322 136.39 228.184C136.942 233.584 131.615 238.107 126.509 235.65C123.113 234.015 122.168 231.067 120.124 226.198C119.696 225.211 119.49 224.143 119.523 223.068Z" fill="#FFB573"/>
<path opacity="0.2" d="M120.414 239.062C120.108 240.095 119.761 241.116 119.365 242.119L135.831 243.353C135.481 242.538 134.972 241.511 134.308 240.594C130.327 238.988 123.372 238.981 120.414 239.062Z" fill="black"/>
<path d="M174.738 332.039L179.762 329.872L183.621 341.935L178.597 344.109L174.738 332.039Z" fill="#FFB573"/>
<path opacity="0.2" d="M174.738 332.039L179.762 329.872L181.688 335.9L176.61 337.888L174.738 332.039Z" fill="black"/>
<path d="M184.182 339.815C185.686 341.071 188.751 341.982 191.099 342.116C192.91 342.209 193.064 344.282 190.796 344.662C188.528 345.043 184.577 344.863 182.916 344.933C180.222 345.036 179.306 345.476 177.174 345.444C176.643 345.416 176.231 344.97 176.247 344.44L176.699 339.612C176.718 339.398 176.903 339.236 177.119 339.248L183.257 339.445C183.598 339.464 183.923 339.594 184.182 339.815Z" fill="#30BABA"/>
<path d="M128.865 282.246C128.865 282.246 124.647 287.234 128.048 295.129C131.888 304.077 152.255 300.145 163.379 302.999C164.964 318.8 174.211 335.017 174.211 335.017L181.94 331.993C181.94 331.993 178.589 319.408 176.076 297.115C174.842 286.144 146.933 284.94 146.933 284.94L128.865 282.246Z" fill="#30BABA"/>
<path d="M172.67 333.589L182.517 330.156L183.115 333.75L174.145 336.999L172.67 333.589Z" fill="#30BABA"/>
<path d="M150.958 337.213L156.378 336.954L155.492 349.719L150.072 349.978L150.958 337.213Z" fill="#FFB573"/>
<path d="M156.972 348.378C158.477 349.627 161.007 351.367 163.337 351.699C164.828 351.911 165.954 354.169 163.157 354.169C160.361 354.169 157.358 353.904 155.7 353.85C153.003 353.764 152.105 354.003 149.967 354.003H149.966C149.433 353.981 149.02 353.531 149.042 353L149.488 348.171C149.51 347.959 149.695 347.8 149.907 347.813L156.04 348.005C156.383 348.02 156.712 348.151 156.972 348.378Z" fill="#30BABA"/>
<path opacity="0.2" d="M150.467 344.253L155.867 344.26L156.379 336.96L150.959 337.219L150.467 344.253Z" fill="black"/>
<path d="M115.311 283.113C115.311 283.113 110.869 292.153 115.191 297.905C119.099 303.119 139.08 303.471 149.234 303.471C148.229 315.826 149.341 341.205 149.341 341.205L157.47 341.091C157.47 341.091 163.209 316.689 164.388 299.612C165.047 290.127 131.198 283.837 131.198 283.837L115.311 283.113Z" fill="#30BABA"/>
<path d="M148.229 339.523L159.401 339.198L158.915 342.526L148.655 342.672L148.229 339.523Z" fill="#30BABA"/>
<path d="M115.148 284.405L143.622 284.973L144.588 247.593C144.232 243.36 140.684 240.105 136.426 240.105H119.776C116.556 240.105 113.954 242.725 113.983 245.937L115.148 284.405Z" fill="#30BABA"/>
<path opacity="0.6" d="M115.148 284.405L143.622 284.973L144.588 247.593C144.232 243.36 140.684 240.105 136.426 240.105H119.776C116.556 240.105 113.954 242.725 113.983 245.937L115.148 284.405Z" fill="white"/>
<path d="M144.167 246.721L144.703 248.826C144.892 249.548 145.09 250.27 145.3 250.988C145.729 252.421 146.153 253.854 146.638 255.257C147.108 256.662 147.622 258.047 148.181 259.385C148.731 260.728 149.341 262.025 150.009 263.235C150.337 263.846 150.687 264.426 151.052 264.976C151.052 264.976 151.266 265.26 151.8 265.222C152.343 265.189 152.985 265.106 153.644 264.962C156.311 264.387 159.251 263.253 162.055 262.18L164.164 265.52C162.866 266.637 161.563 267.595 160.144 268.503C158.73 269.404 157.249 270.24 155.573 270.924C154.733 271.263 153.847 271.586 152.831 271.798C151.814 272 150.671 272.178 149.154 271.9C148.4 271.75 147.527 271.433 146.716 270.834C146.316 270.552 145.926 270.157 145.637 269.809L145.203 269.273C144.634 268.556 144.11 267.825 143.628 267.086C141.707 264.119 140.316 261.045 139.128 257.936C138.556 256.375 138.016 254.812 137.567 253.224C137.338 252.431 137.12 251.636 136.914 250.835C136.699 250.021 136.531 249.258 136.348 248.353L144.167 246.721Z" fill="#FFB573"/>
<path d="M163.192 265.848L168.703 263.2L165.643 258.825C165.643 258.825 161.529 260.135 161.309 263.682L163.192 265.848Z" fill="#FFB573"/>
<path d="M170.026 261.069L168.218 256.982L165.645 258.825L168.705 263.2L170.026 261.069Z" fill="#FFB573"/>
<path d="M138.98 259.409L147.471 256.399C147.471 256.399 148.68 255.244 146.483 248.076C143.926 239.726 139.109 238.893 135.292 242.951C131.383 247.106 136.326 252.615 138.98 259.409Z" fill="#30BABA"/>
<path opacity="0.5" d="M138.98 259.409L147.471 256.399C147.471 256.399 148.68 255.244 146.483 248.076C143.926 239.726 139.109 238.893 135.292 242.951C131.383 247.106 136.326 252.615 138.98 259.409Z" fill="white"/>
<path d="M138.074 258.674L147.985 255.199L148.203 257.116L139.089 260.322L138.074 258.674Z" fill="#30BABA"/>
<path d="M122.795 232.983C123.617 232.858 125.101 232.762 126.715 233.286C127.197 233.442 127.722 233.242 127.958 232.793C128.687 231.406 130.146 228.6 130.701 227.342C130.701 227.342 133.273 226.088 131.988 222.615C130.701 219.142 130.701 218.049 130.701 218.049C130.701 218.049 134.7 214.564 130.907 212.514C127.114 210.463 128.852 214.222 124.674 215.042C120.495 215.862 115.769 219.962 117.481 224.95C118.745 228.633 121.049 231.332 121.738 232.491C121.957 232.859 122.373 233.048 122.795 232.983Z" fill="#263238"/>
<path d="M128.926 223.62C130.324 223.414 131.83 224.822 132.322 226.071C132.868 227.492 132.156 229.12 130.684 228.728C129.547 228.405 128.569 227.677 127.934 226.682C127.149 225.441 127.528 223.827 128.926 223.62Z" fill="#FFB573"/>
<path d="M126.896 336.829V305.945H121.968V336.924L109.413 340.228C107.25 340.797 105.742 342.75 105.742 344.982V345.99C105.742 347.009 106.57 347.835 107.592 347.835C108.613 347.835 109.44 347.01 109.44 345.99C109.44 344.809 110.239 343.775 111.384 343.473L121.968 340.687V345.99C121.968 347.009 122.796 347.835 123.818 347.835H125.047C126.068 347.835 126.896 347.01 126.896 345.99V340.606L137.438 343.518C138.579 343.834 139.365 344.877 139.35 346.058C139.338 347.077 140.156 347.913 141.177 347.926C142.198 347.938 143.036 347.122 143.049 346.104L143.061 345.095C143.088 342.863 141.605 340.892 139.448 340.297L126.896 336.829Z" fill="#263238"/>
<path d="M104.539 351.224C104.539 349.574 105.881 348.235 107.535 348.235C109.19 348.235 110.531 349.574 110.531 351.224C110.531 352.875 109.19 354.213 107.535 354.213C105.881 354.213 104.539 352.875 104.539 351.224Z" fill="#30BABA"/>
<path d="M138.271 351.224C138.271 349.574 139.613 348.235 141.268 348.235C142.922 348.235 144.264 349.574 144.264 351.224C144.264 352.875 142.922 354.213 141.268 354.213C139.613 354.213 138.271 352.875 138.271 351.224Z" fill="#30BABA"/>
<path d="M121.406 351.224C121.406 349.574 122.748 348.235 124.402 348.235C126.057 348.235 127.399 349.574 127.399 351.224C127.399 352.875 126.057 354.213 124.402 354.213C122.748 354.213 121.406 352.875 121.406 351.224Z" fill="#30BABA"/>
<path opacity="0.6" d="M126.896 305.945H121.969V312.921H126.896V305.945Z" fill="black"/>
<path opacity="0.6" d="M118.293 341.655L121.405 340.836V337.072L118.293 337.89V341.655Z" fill="black"/>
<path opacity="0.6" d="M130.509 337.828L127.396 336.968V340.745L130.509 341.604V337.828Z" fill="black"/>
<path d="M128.447 303.871H158.364C160.261 303.871 161.8 305.405 161.8 307.299H128.448L128.447 303.871Z" fill="#30BABA"/>
<path opacity="0.5" d="M128.447 303.871H158.364C160.261 303.871 161.8 305.405 161.8 307.299H128.448L128.447 303.871Z" fill="black"/>
<path d="M107.216 260.036C96.6992 260.036 89.2148 267.855 89.7648 278.266L90.9673 301.032C91.1531 304.545 94.0622 307.298 97.5886 307.298H139.842L131.112 278.266C127.981 267.855 117.732 260.036 107.216 260.036Z" fill="#30BABA"/>
<path opacity="0.1" d="M107.216 260.036C96.6992 260.036 89.2148 267.855 89.7648 278.266L90.9673 301.032C91.1531 304.545 94.0622 307.298 97.5886 307.298H139.842L131.112 278.266C127.981 267.855 117.732 260.036 107.216 260.036Z" fill="black"/>
<path opacity="0.3" d="M105.091 260.148C95.7094 261.128 89.2534 268.571 89.7647 278.266L90.9673 301.032C91.153 304.545 94.0621 307.298 97.5885 307.298H135.584L126.854 278.266C123.936 268.561 114.831 261.115 105.091 260.148Z" fill="black"/>
<path d="M144.597 306.318C143.955 305.677 143.955 304.639 144.597 303.998L153.547 295.07C153.942 294.674 153.82 294.232 153.748 294.061C153.677 293.889 153.451 293.489 152.891 293.489H133.705C132.796 293.489 132.061 292.756 132.061 291.849C132.061 290.944 132.796 290.209 133.705 290.209H152.712C154.306 290.209 155.844 291.012 156.6 292.414C157.496 294.076 157.184 296.081 155.872 297.389L146.921 306.318C146.279 306.958 145.239 306.958 144.597 306.318Z" fill="#263238"/>
<path opacity="0.2" d="M156.598 292.413C155.843 291.013 154.304 290.209 152.71 290.209H133.703C132.795 290.209 132.059 290.943 132.059 291.849C132.059 292.755 132.795 293.489 133.703 293.489H152.889C153.062 293.489 153.195 293.533 153.309 293.591H157.016C156.936 293.19 156.802 292.792 156.598 292.413Z" fill="white"/>
<path d="M195.815 282.598H219.512V280.598H194.695V281.481C194.696 282.098 195.197 282.598 195.815 282.598Z" fill="#263238"/>
<path opacity="0.2" d="M195.815 282.598H219.512V280.598H194.695V281.481C194.696 282.098 195.197 282.598 195.815 282.598Z" fill="white"/>
<path d="M214.948 282.598H234.302V280.598H213.828V281.481C213.828 282.098 214.33 282.598 214.948 282.598Z" fill="#263238"/>
<path opacity="0.5" d="M214.948 282.598H234.302V280.598H213.828V281.481C213.828 282.098 214.33 282.598 214.948 282.598Z" fill="white"/>
<path d="M229.773 281.953H231.779V281.243H229.773V281.953Z" fill="#263238"/>
<path d="M226.646 281.953H228.652V281.243H226.646V281.953Z" fill="#263238"/>
<path d="M232.945 280.598H234.279L235.658 262.52H234.325L232.945 280.598Z" fill="#263238"/>
<path opacity="0.3" d="M232.945 280.598H234.279L235.658 262.52H234.325L232.945 280.598Z" fill="white"/>
<path d="M233.438 280.598H210L211.38 262.52H234.818L233.438 280.598Z" fill="#30BABA"/>
<path opacity="0.4" d="M233.438 280.598H210L211.38 262.52H234.818L233.438 280.598Z" fill="white"/>
<path d="M193.749 243.133C193.024 245.702 192.845 248.458 196.546 249.456C196.546 249.456 199.998 254.312 195.855 257.564C193.232 254.119 189.921 251.253 186.133 249.146C188.536 246.997 188.066 240.867 187.514 237.512L193.749 243.133Z" fill="#CE7A63"/>
<path d="M198.342 229.798C198.625 229.729 198.97 229.99 199.108 230.418C199.246 230.845 199.129 231.292 198.846 231.361C198.563 231.43 198.218 231.175 198.08 230.741C197.928 230.314 198.058 229.866 198.342 229.798Z" fill="#2E353A"/>
<path d="M199.161 229.226L198.223 229.86C198.893 230.211 199.161 229.226 199.161 229.226Z" fill="#2E353A"/>
<path d="M199.35 234.441C199.926 234.405 200.456 234.118 200.8 233.655C199.889 233.018 199.07 232.258 198.369 231.396L199.35 234.441Z" fill="#BA4D3C"/>
<path d="M197.318 226.974C196.754 227.354 196.413 227.988 196.407 228.669C196.407 228.671 196.407 228.673 196.407 228.676C196.41 228.82 196.296 228.941 196.151 228.944C196.146 228.944 196.141 228.945 196.136 228.945C195.995 228.948 195.878 228.837 195.875 228.696C195.875 227.838 196.295 227.033 197 226.541C197.119 226.455 197.285 226.479 197.374 226.596C197.42 226.677 197.42 226.776 197.374 226.857C197.367 226.9 197.347 226.941 197.318 226.974Z" fill="#2E353A"/>
<path d="M182.237 230.07C182.597 225.9 186.276 222.812 190.456 223.17C196.339 223.612 199.606 231.243 199.999 236.368C200.441 242.065 194.496 245.702 189.137 242.905C185.546 241.046 184.856 238.807 182.785 233.613C182.32 232.493 182.133 231.279 182.237 230.07Z" fill="#CE7A63"/>
<path opacity="0.21" d="M179.365 236.81C171.653 227.091 181.12 224.301 181.12 224.301C184.089 220.195 188.984 219.362 193.473 221.078C197.961 222.793 196.628 225.789 194.992 226.085C198.05 230.122 196.297 232.126 195.288 232.416C196.87 242.568 187.078 246.529 179.365 236.81Z" fill="#263238"/>
<path d="M186.142 279.724C184.627 279.528 183.13 279.218 181.662 278.799C181.443 278.734 181.235 278.642 181.027 278.55L180.956 277.478C180.784 274.263 180.721 270.977 180.643 267.693L180.478 257.83L174.789 257.814C174.772 261.161 174.856 264.486 175.005 267.823C175.153 271.159 175.351 274.494 175.73 277.879L175.925 279.153L176.024 279.793C176.042 279.992 176.072 280.19 176.114 280.385C176.178 280.574 176.252 280.758 176.339 280.936C176.495 281.232 176.687 281.507 176.911 281.755C177.227 282.087 177.59 282.37 177.99 282.594C178.275 282.758 178.572 282.899 178.879 283.015C179.377 283.208 179.888 283.362 180.41 283.478C182.173 283.835 183.967 284.028 185.766 284.055C189.164 284.13 192.563 283.965 195.938 283.561L195.875 280.783C192.615 280.479 189.317 280.202 186.142 279.724Z" fill="#CE7A63"/>
<path d="M185.345 256.014C185.345 259.451 183.274 265.878 183.274 265.878L174.733 260.635C174.353 256.234 175.264 250.578 179.497 249.2C182.37 248.272 185.311 252.357 185.345 256.014Z" fill="#263238"/>
<path opacity="0.6" d="M179.206 253.542L177.244 255.478L176.867 261.946L183.272 265.878C183.272 265.878 185.344 259.45 185.344 256.014C185.335 255.142 185.158 254.248 184.859 253.4L181.909 252.508L179.206 253.542Z" fill="black"/>
<path d="M203.723 282.33C203.961 281.774 203.702 281.13 203.144 280.893L200.724 279.868C200.203 279.653 199.625 279.614 199.079 279.757L193.8 281.176L193.15 282.955C193.973 284.997 197.463 284.61 197.463 284.61L199.976 285.376C200.623 285.576 201.328 285.361 201.751 284.833L203.577 282.576C203.636 282.5 203.685 282.418 203.723 282.33Z" fill="#CE7A63"/>
<path d="M199.875 249.119C198.777 248.933 197.631 248.761 196.512 248.623C193.071 248.276 189.61 248.173 186.154 248.313C184.456 248.347 182.785 248.471 181.321 248.623C181.281 248.627 181.242 248.632 181.202 248.637C178.556 248.987 176.695 251.411 177.046 254.051C179.118 268.792 180.023 275.067 179.422 283.491L202.292 284.18C204.957 270.437 206.042 262.247 206.393 257.426C206.696 253.394 203.872 249.794 199.875 249.119Z" fill="#263238"/>
<path d="M226.418 333.701L231.818 333.191L235.457 346.458L230.057 346.968L226.418 333.701Z" fill="#CE7A63"/>
<path d="M187.176 283.478C178.482 294.927 179.173 304.742 188.15 304.742C196.146 304.742 206.124 305.211 216.951 304.522C219.333 321.901 228.406 342.146 228.406 342.146L234.393 341.587C234.393 341.587 228.931 316.183 228.51 298.418C228.248 287.68 197.865 288.596 197.865 288.596C197.865 288.596 192.506 283.506 187.176 283.478Z" fill="#263238"/>
<path opacity="0.3" d="M187.176 283.478C178.482 294.927 179.173 304.742 188.15 304.742C196.146 304.742 206.124 305.211 216.951 304.522C219.333 321.901 228.406 342.146 228.406 342.146L234.393 341.587C234.393 341.587 228.931 316.183 228.51 298.418C228.248 287.68 197.865 288.596 197.865 288.596C197.865 288.596 192.506 283.506 187.176 283.478Z" fill="white"/>
<path opacity="0.2" d="M229.189 308.803C228.836 305.22 228.586 301.689 228.508 298.419C228.246 287.68 197.863 288.596 197.863 288.596C197.863 288.596 197.051 287.827 195.752 286.888C194.58 287.036 193.903 287.136 193.903 287.136C193.903 287.136 189.32 287.059 184.746 287.026C178.723 296.882 180.116 304.742 188.147 304.742C192.901 304.742 198.367 304.903 204.282 304.892C212.327 302.705 220.641 299.998 224.417 298.777C225.617 302.236 227.294 305.616 229.189 308.803Z" fill="black"/>
<path d="M179.497 281.956L202.657 282.645C202.885 282.652 203.037 282.783 203.037 282.921L202.775 284.987C202.754 285.111 202.581 285.2 202.374 285.2L178.841 284.511C178.572 284.505 178.393 284.339 178.476 284.181L179.125 282.155C179.199 282.023 179.344 281.945 179.497 281.956Z" fill="#263238"/>
<path d="M217.72 275.053C215.223 275.376 212.686 275.69 210.232 275.896C209.053 276.004 207.867 276.046 206.683 276.021C206.36 276.019 206.039 275.981 205.722 275.926C205.514 275.01 205.356 274.084 205.281 273.148C205.193 271.987 205.164 270.822 205.194 269.658C205.239 268.463 205.327 267.269 205.45 266.081C205.507 265.486 205.582 264.867 205.669 264.297C205.754 263.726 205.851 263.086 205.937 262.597L200.394 261.423C200.229 262.17 200.109 262.809 200.014 263.486C199.918 264.164 199.841 264.811 199.764 265.517C199.63 266.878 199.569 268.245 199.582 269.613C199.564 272.465 200.026 275.3 200.947 278L201.032 278.267L201.108 278.442L201.208 278.67C201.278 278.813 201.36 278.952 201.453 279.083C201.757 279.516 202.154 279.877 202.614 280.141C203.156 280.442 203.748 280.641 204.362 280.726C205.173 280.836 205.993 280.855 206.808 280.782C208.186 280.661 209.554 280.441 210.901 280.122C213.473 279.523 215.996 278.734 218.451 277.76L217.72 275.053Z" fill="#CE7A63"/>
<path d="M196.859 255.309C195.043 257.836 198.666 264.725 198.666 264.725L205.816 264.274C205.816 264.274 207.681 255.416 204.395 251.581C202.62 249.527 198.76 252.68 196.859 255.309Z" fill="#263238"/>
<path d="M223.585 270.558C224.233 270.631 224.699 271.214 224.626 271.861L224.341 274.957C224.299 275.436 223.968 275.841 223.507 275.979L220.677 276.825C220.677 276.825 215.46 280.103 213.775 278.69L215.72 275.999L219.279 271.949C219.68 271.486 220.224 271.17 220.826 271.049L223.209 270.575C223.333 270.55 223.46 270.544 223.585 270.558Z" fill="#CE7A63"/>
<path d="M235.911 346.128C237.192 347.427 239.38 349.277 241.513 349.801C242.879 350.137 243.714 352.338 241.116 352.079C238.519 351.821 235.755 351.296 234.22 351.094C231.723 350.764 230.866 350.903 228.881 350.705H228.879C228.387 350.634 228.044 350.179 228.115 349.688L228.978 345.245C229.017 345.049 229.204 344.92 229.4 344.95L235.078 345.696C235.398 345.742 235.69 345.894 235.911 346.128Z" fill="#263238"/>
<path d="M194.929 226.095C194.929 226.095 197.748 229.273 195.876 232.707C195.876 232.707 194.159 234.859 194.929 239.369C195.699 243.879 199.162 247.511 191.387 247.468C184.07 247.427 174.893 248.902 175.92 241.778C175.92 241.778 172.58 238.651 176.339 235.32C176.339 235.32 173.505 231.396 177.003 228.295C177.003 228.295 175.194 221.893 181.461 222.214C181.461 222.214 182.855 215.844 189.534 219.417C189.534 219.417 192.36 214.923 196.642 219.433C196.642 219.433 203.611 219.997 198.692 224.045C198.692 224.045 198.936 227.325 194.929 226.095Z" fill="#263238"/>
<path d="M200.238 232.702C200.078 232.702 199.928 232.644 199.79 232.527C199.165 232.003 198.914 230.312 198.835 229.605L195.522 231.15L195.348 230.778L199.912 228.65C200.147 228.54 200.412 228.545 200.641 228.667C200.867 228.787 201.021 228.999 201.063 229.251C201.242 230.338 201.356 231.763 200.877 232.379C200.728 232.57 200.534 232.678 200.299 232.7C200.278 232.701 200.257 232.702 200.238 232.702ZM199.228 229.42C199.304 230.173 199.561 231.801 200.054 232.214C200.146 232.291 200.217 232.295 200.26 232.291C200.38 232.281 200.472 232.228 200.55 232.127C200.848 231.743 200.887 230.718 200.655 229.317C200.635 229.192 200.559 229.088 200.447 229.028C200.335 228.969 200.202 228.965 200.085 229.02L199.228 229.42Z" fill="#30BABA"/>
<path d="M192.791 232.721C192.664 231.644 193.436 230.668 194.515 230.541C196.006 230.39 197.159 232.16 197.484 233.428C197.85 234.833 197.063 236.128 195.599 235.666C194.494 235.306 193.578 234.523 193.051 233.489C192.911 233.255 192.823 232.992 192.791 232.721Z" fill="#CE7A63"/>
<path d="M243.107 321.777L247.685 317.452L253.81 326.73L250.15 329.898L243.107 321.777Z" fill="#CE7A63"/>
<path d="M181.581 283.664C180.467 283.655 179.489 284.406 179.213 285.483C176.126 297.51 179.613 304.77 188.148 304.77C196.145 304.77 217.971 297.648 224.828 295.43C230.573 311.982 247.146 326.799 247.146 326.799L251.496 322.818C251.496 322.818 241.842 304.26 235.172 287.791C231.339 278.319 194.314 283.788 194.314 283.788C194.314 283.788 186.953 283.664 181.581 283.664Z" fill="#263238"/>
<path opacity="0.3" d="M181.581 283.664C180.467 283.655 179.489 284.406 179.213 285.483C176.126 297.51 179.613 304.77 188.148 304.77C196.145 304.77 217.971 297.648 224.828 295.43C230.573 311.982 247.146 326.799 247.146 326.799L251.496 322.818C251.496 322.818 241.842 304.26 235.172 287.791C231.339 278.319 194.314 283.788 194.314 283.788C194.314 283.788 186.953 283.664 181.581 283.664Z" fill="white"/>
<path d="M253.879 324.675C255.704 324.534 258.344 323.145 259.999 321.705C261.269 320.587 262.727 321.87 261.463 323.601C260.2 325.332 257.447 327.785 256.384 328.914C254.654 330.737 254.332 331.627 252.888 332.994C252.516 333.321 251.95 333.292 251.613 332.928L248.755 329.413C248.627 329.258 248.645 329.03 248.796 328.897L253.02 325.032C253.258 324.822 253.561 324.696 253.879 324.675Z" fill="#263238"/>
<path d="M188.038 336.829V305.945H183.111V336.924L170.556 340.228C168.392 340.797 166.885 342.75 166.885 344.982V345.99C166.885 347.009 167.713 347.835 168.734 347.835C169.755 347.835 170.583 347.01 170.583 345.99C170.583 344.809 171.381 343.775 172.527 343.473L183.111 340.687V345.99C183.111 347.009 183.939 347.835 184.961 347.835H186.189C187.21 347.835 188.038 347.01 188.038 345.99V340.606L198.579 343.518C199.721 343.834 200.507 344.877 200.492 346.058C200.48 347.077 201.298 347.913 202.319 347.926C203.34 347.938 204.178 347.122 204.19 346.104L204.203 345.095C204.23 342.863 202.747 340.892 200.59 340.297L188.038 336.829Z" fill="#263238"/>
<path d="M165.682 351.224C165.682 349.574 167.023 348.235 168.678 348.235C170.333 348.235 171.674 349.574 171.674 351.224C171.674 352.875 170.333 354.213 168.678 354.213C167.023 354.213 165.682 352.875 165.682 351.224Z" fill="#30BABA"/>
<path d="M199.414 351.224C199.414 349.574 200.756 348.235 202.41 348.235C204.065 348.235 205.406 349.574 205.406 351.224C205.406 352.875 204.065 354.213 202.41 354.213C200.756 354.213 199.414 352.875 199.414 351.224Z" fill="#30BABA"/>
<path d="M182.547 351.224C182.547 349.574 183.888 348.235 185.543 348.235C187.198 348.235 188.539 349.574 188.539 351.224C188.539 352.875 187.198 354.213 185.543 354.213C183.888 354.213 182.547 352.875 182.547 351.224Z" fill="#30BABA"/>
<path opacity="0.6" d="M188.038 305.945H183.111V312.921H188.038V305.945Z" fill="black"/>
<path opacity="0.6" d="M179.436 341.655L182.547 340.836V337.072L179.436 337.89V341.655Z" fill="black"/>
<path opacity="0.6" d="M191.651 337.828L188.539 336.968V340.745L191.651 341.604V337.828Z" fill="black"/>
<path d="M189.59 303.871H219.507C221.404 303.871 222.943 305.405 222.943 307.299H189.591V303.871H189.59Z" fill="#30BABA"/>
<path opacity="0.5" d="M189.59 303.871H219.507C221.404 303.871 222.943 305.405 222.943 307.299H189.591V303.871H189.59Z" fill="black"/>
<path d="M168.358 260.036C157.842 260.036 150.357 267.855 150.907 278.266L152.11 301.032C152.296 304.545 155.205 307.298 158.731 307.298H200.984L192.255 278.266C189.124 267.855 178.875 260.036 168.358 260.036Z" fill="#30BABA"/>
<path opacity="0.1" d="M168.358 260.036C157.842 260.036 150.357 267.855 150.907 278.266L152.11 301.032C152.296 304.545 155.205 307.298 158.731 307.298H200.984L192.255 278.266C189.124 267.855 178.875 260.036 168.358 260.036Z" fill="black"/>
<path opacity="0.3" d="M166.233 260.148C156.852 261.128 150.396 268.571 150.907 278.266L152.11 301.032C152.296 304.545 155.205 307.298 158.731 307.298H196.726L187.997 278.266C185.079 268.561 175.973 261.115 166.233 260.148Z" fill="black"/>
<path d="M205.739 306.318C205.097 305.677 205.097 304.639 205.739 303.998L214.689 295.07C215.085 294.674 214.961 294.232 214.891 294.061C214.819 293.889 214.593 293.489 214.033 293.489H194.847C193.939 293.489 193.203 292.756 193.203 291.849C193.203 290.944 193.939 290.209 194.847 290.209H213.854C215.449 290.209 216.988 291.012 217.742 292.414C218.638 294.076 218.327 296.081 217.015 297.389L208.064 306.318C207.421 306.958 206.381 306.958 205.739 306.318Z" fill="#263238"/>
<path opacity="0.2" d="M217.74 292.413C216.985 291.013 215.447 290.209 213.852 290.209H194.845C193.937 290.209 193.201 290.943 193.201 291.849C193.201 292.755 193.937 293.489 194.845 293.489H214.031C214.205 293.489 214.337 293.533 214.452 293.591H218.16C218.078 293.19 217.945 292.792 217.74 292.413Z" fill="white"/>
</g>
<path d="M436.5 25.8198C436.5 21.9538 433.366 18.8198 429.5 18.8198H42.5C38.634 18.8198 35.5 21.9538 35.5 25.8198C35.5 29.6858 38.634 32.8198 42.5 32.8198H429.5C433.366 32.8198 436.5 29.6858 436.5 25.8198Z" fill="#28282E"/>
<path d="M62.5837 25.985C62.5837 27.6144 63.9046 28.9353 65.5341 28.9353C67.1635 28.9353 68.4844 27.6144 68.4844 25.985C68.4844 24.3556 67.1635 23.0347 65.5341 23.0347C63.9046 23.0347 62.5837 24.3556 62.5837 25.985Z" fill="#3FCA90"/>
<path d="M51.6384 25.985C51.6384 27.6144 52.9593 28.9353 54.5887 28.9353C56.2182 28.9353 57.5391 27.6144 57.5391 25.985C57.5391 24.3556 56.2182 23.0347 54.5887 23.0347C52.9593 23.0347 51.6384 24.3556 51.6384 25.985Z" fill="#FFE073"/>
<path d="M40.6853 25.985C40.6853 27.6144 42.0062 28.9353 43.6356 28.9353C45.265 28.9353 46.5859 27.6144 46.5859 25.985C46.5859 24.3556 45.265 23.0347 43.6356 23.0347C42.0062 23.0347 40.6853 24.3556 40.6853 25.985Z" fill="#ED5050"/>
<defs>
<clipPath id="clip0_1456_4316">
<rect width="411" height="410" fill="white" transform="translate(44.8516 14)"/>
</clipPath>
</defs>
</svg>
