<svg width="50" height="50" viewBox="0 0 43 43" fill="none" xmlns="http://www.w3.org/2000/svg">
<path d="M32.4537 18.3752L34.4928 17.0873C34.6901 16.9587 34.8315 16.7603 34.8886 16.5318C34.9458 16.3033 34.9144 16.0617 34.8008 15.8554L32.869 12.5144C32.7473 12.3135 32.5543 12.1659 32.3286 12.101C32.1028 12.0361 31.8609 12.0588 31.6511 12.1644L29.514 13.289C29.3508 13.3767 29.1645 13.4116 28.9807 13.3891C28.7968 13.3665 28.6245 13.2875 28.4874 13.163C27.3891 12.1988 26.1109 11.4614 24.7264 10.9932C24.5524 10.9316 24.4006 10.8198 24.2901 10.672C24.1797 10.5242 24.1155 10.3469 24.1058 10.1626L24.0125 7.75481C23.9993 7.5163 23.8952 7.29191 23.7216 7.12784C23.548 6.96378 23.3181 6.87253 23.0792 6.87289H19.2389C19 6.87253 18.7701 6.96378 18.5965 7.12784C18.4229 7.29191 18.3188 7.5163 18.3057 7.75481L18.2123 10.1626C18.2026 10.3469 18.1385 10.5242 18.028 10.672C17.9175 10.8198 17.7657 10.9316 17.5917 10.9932C16.2073 11.4614 14.9291 12.1988 13.8307 13.163C13.6936 13.2875 13.5213 13.3665 13.3375 13.3891C13.1536 13.4116 12.9673 13.3767 12.8042 13.289L10.6904 12.1644C10.4806 12.0588 10.2387 12.0361 10.0129 12.101C9.78717 12.1659 9.59418 12.3135 9.47247 12.5144L7.54065 15.8554C7.42708 16.0617 7.39571 16.3033 7.45283 16.5318C7.50994 16.7603 7.65133 16.9587 7.84862 17.0873L9.88777 18.3752C10.0426 18.4707 10.1645 18.6113 10.2371 18.7782C10.3096 18.945 10.3294 19.13 10.2937 19.3084C10.0096 20.7441 10.0096 22.2216 10.2937 23.6574C10.3294 23.8358 10.3096 24.0208 10.2371 24.1876C10.1645 24.3544 10.0426 24.4951 9.88777 24.5906L7.84862 25.8785C7.65133 26.0071 7.50994 26.2055 7.45283 26.434C7.39571 26.6624 7.42708 26.9041 7.54065 27.1104L9.47247 30.4514C9.59418 30.6523 9.78717 30.7999 10.0129 30.8648C10.2387 30.9296 10.4806 30.907 10.6904 30.8014L12.8275 29.6768C12.9906 29.5891 13.177 29.5541 13.3608 29.5767C13.5446 29.5993 13.717 29.6783 13.8541 29.8028C14.9524 30.767 16.2306 31.5044 17.6151 31.9726C17.789 32.0342 17.9409 32.1459 18.0513 32.2938C18.1618 32.4416 18.2259 32.6189 18.2357 32.8032L18.329 35.211C18.3421 35.4495 18.4462 35.6739 18.6198 35.8379C18.7935 36.002 19.0234 36.0932 19.2622 36.0929H23.1259C23.3648 36.0932 23.5947 36.002 23.7683 35.8379C23.9419 35.6739 24.046 35.4495 24.0591 35.211L24.1525 32.8032C24.1622 32.6189 24.2263 32.4416 24.3368 32.2938C24.4473 32.1459 24.5991 32.0342 24.7731 31.9726C26.1575 31.5044 27.4357 30.767 28.5341 29.8028C28.6712 29.6783 28.8435 29.5993 29.0273 29.5767C29.2112 29.5541 29.3975 29.5891 29.5606 29.6768L31.6511 30.8294C31.8609 30.935 32.1028 30.9576 32.3286 30.8928C32.5543 30.8279 32.7473 30.6803 32.869 30.4794L34.8008 27.1384C34.9144 26.9321 34.9458 26.6904 34.8886 26.462C34.8315 26.2335 34.6901 26.0351 34.4928 25.9065L32.4537 24.6186C32.2989 24.5231 32.177 24.3824 32.1044 24.2156C32.0318 24.0488 32.0121 23.8637 32.0477 23.6854C32.33 22.2494 32.33 20.7723 32.0477 19.3364C32.0058 19.1539 32.0225 18.9627 32.0953 18.7902C32.1682 18.6176 32.2936 18.4724 32.4537 18.3752ZM21.1707 28.1369C19.8575 28.1369 18.5737 27.7475 17.4817 27.0179C16.3898 26.2883 15.5387 25.2512 15.0361 24.0379C14.5335 22.8246 14.4021 21.4895 14.6583 20.2015C14.9145 18.9134 15.5469 17.7303 16.4755 16.8017C17.4041 15.873 18.5873 15.2406 19.8753 14.9844C21.1634 14.7282 22.4985 14.8597 23.7118 15.3623C24.9251 15.8648 25.9621 16.7159 26.6917 17.8079C27.4214 18.8998 27.8108 20.1836 27.8108 21.4969C27.8108 23.2579 27.1112 24.9469 25.866 26.1921C24.6207 27.4374 22.9318 28.1369 21.1707 28.1369ZM24.5911 19.6304C24.6762 19.7591 24.7077 19.916 24.679 20.0676C24.6502 20.2192 24.5634 20.3537 24.4371 20.4423L19.9948 23.5267C19.8737 23.6118 19.7251 23.6484 19.5783 23.6294C19.4315 23.6104 19.2971 23.5371 19.2016 23.424L17.4004 21.2916C17.2989 21.1715 17.2493 21.0161 17.2624 20.8594C17.2755 20.7028 17.3504 20.5578 17.4704 20.4563C17.5904 20.3548 17.7459 20.3052 17.9025 20.3183C18.0592 20.3314 18.2042 20.4063 18.3057 20.5263L19.7709 22.2435L23.7652 19.4437C23.8316 19.4016 23.9057 19.3729 23.9832 19.3595C24.0607 19.3461 24.1402 19.3481 24.2169 19.3654C24.2937 19.3828 24.3662 19.4151 24.4304 19.4606C24.4946 19.506 24.5492 19.5638 24.5911 19.6304ZM42.1688 21.4969C42.1691 25.3862 41.0892 29.1992 39.0494 32.5108C37.0097 35.8224 34.0903 38.5024 30.6167 40.252C27.1431 42.0016 23.2518 42.7521 19.3767 42.4198C15.5016 42.0875 11.7949 40.6855 8.66988 38.37L9.03851 40.3578C9.06486 40.5109 9.03102 40.6682 8.94406 40.797C8.85709 40.9257 8.72374 41.0158 8.57189 41.0484C8.41923 41.0759 8.26189 41.0424 8.13365 40.9552C8.0054 40.8679 7.91648 40.7339 7.88595 40.5818L7.21868 37.0168C7.19233 36.8637 7.22617 36.7064 7.31313 36.5777C7.40009 36.449 7.53345 36.3589 7.6853 36.3262L11.2363 35.6823C11.3894 35.6559 11.5467 35.6897 11.6754 35.7767C11.8041 35.8637 11.8942 35.997 11.9269 36.1489C11.9544 36.3015 11.9209 36.4589 11.8336 36.5871C11.7464 36.7154 11.6124 36.8043 11.4603 36.8348L9.1785 37.2501C13.0675 40.1906 17.9043 41.5935 22.763 41.1903C27.6218 40.7871 32.1612 38.6062 35.5123 35.065C38.8635 31.5238 40.7909 26.871 40.9256 21.9974C41.0604 17.1238 39.393 12.3717 36.2427 8.65073C36.1921 8.59129 36.1538 8.52247 36.1298 8.44821C36.1059 8.37395 36.0968 8.2957 36.103 8.21792C36.1093 8.14014 36.1309 8.06437 36.1664 7.99491C36.202 7.92546 36.2509 7.86369 36.3103 7.81314C36.3698 7.76258 36.4386 7.72423 36.5129 7.70027C36.5871 7.67631 36.6654 7.66722 36.7432 7.6735C36.8209 7.67978 36.8967 7.70132 36.9662 7.73689C37.0356 7.77246 37.0974 7.82136 37.1479 7.8808C40.3931 11.6747 42.174 16.5044 42.1688 21.4969ZM1.36255 21.4969C1.3537 26.2001 3.02695 30.7515 6.08012 34.329C6.18221 34.4491 6.23244 34.6048 6.21976 34.7619C6.20707 34.9189 6.1325 35.0645 6.01245 35.1666C5.89241 35.2687 5.73673 35.319 5.57965 35.3063C5.42257 35.2936 5.27696 35.219 5.17487 35.099C1.83507 31.1722 0.0564068 26.1542 0.177693 21.0007C0.298979 15.8471 2.31174 10.9183 5.83256 7.15303C9.35339 3.38776 14.1362 1.04917 19.27 0.582752C24.4038 0.11633 29.5298 1.55466 33.6716 4.62376L33.303 2.63595C33.2766 2.48287 33.3104 2.32553 33.3974 2.19682C33.4844 2.06812 33.6177 1.97801 33.7696 1.94534C33.9222 1.91788 34.0796 1.95137 34.2078 2.03861C34.3361 2.12585 34.425 2.2599 34.4555 2.41197L35.1041 5.96298C35.1305 6.11605 35.0966 6.2734 35.0097 6.4021C34.9227 6.53081 34.7894 6.62091 34.6375 6.65358L31.0912 7.31152C30.9381 7.33787 30.7807 7.30403 30.652 7.21706C30.5233 7.1301 30.4332 6.99675 30.4006 6.84489C30.3731 6.69224 30.4066 6.5349 30.4938 6.40666C30.5811 6.27841 30.7151 6.18948 30.8672 6.15896L33.149 5.74366C30.2128 3.51433 26.7127 2.14863 23.0426 1.80024C19.3725 1.45185 15.678 2.13459 12.3748 3.77164C9.07162 5.40869 6.29082 7.93509 4.34531 11.0666C2.39981 14.198 1.36681 17.8103 1.36255 21.4969Z" fill="#FF7070"/>
</svg>
