<svg height="50" viewBox="0 0 47 48" fill="none" xmlns="http://www.w3.org/2000/svg">
<path d="M43.9275 0.418457H3.0719C1.37777 0.418457 0 1.79556 0 3.48756V37.9086C0 39.6012 1.37836 40.9777 3.0719 40.9777H8.03846C8.66707 40.9777 9.17631 40.4683 9.17631 39.8409C9.17631 39.2134 8.66648 38.7041 8.03846 38.7041H3.0719C2.63323 38.7041 2.27629 38.3475 2.27629 37.9092V11.4593H16.8108C17.1924 11.4593 17.5488 11.2684 17.7593 10.9506L18.9095 9.21627H44.7237V37.9092C44.7237 38.3404 44.3591 38.7041 43.9281 38.7041H38.9615C38.3329 38.7041 37.8237 39.2134 37.8237 39.8409C37.8237 40.4683 38.3335 40.9777 38.9615 40.9777H43.9281C45.6222 40.9777 47 39.6006 47 37.9086V3.48756C47 1.79497 45.6211 0.418457 43.9275 0.418457ZM18.2985 6.94206C17.9169 6.94206 17.5605 7.13299 17.35 7.45083L16.1998 9.18513H2.27629V3.48756C2.27629 3.04928 2.63323 2.69267 3.0719 2.69267H43.9275C44.3662 2.69267 44.7231 3.04928 44.7231 3.48756V6.94206H18.2985ZM6.55014 6.12543C6.55014 6.75347 6.03972 7.26342 5.41111 7.26342C4.7825 7.26342 4.27503 6.75347 4.27503 6.12543C4.27503 5.49739 4.78544 4.99038 5.41111 4.99038C6.03678 4.99038 6.55014 5.50033 6.55014 6.12543ZM10.1119 6.12543C10.1119 6.75347 9.60146 7.26342 8.97579 7.26342C8.35012 7.26342 7.83676 6.75347 7.83676 6.12543C7.83676 5.49739 8.34953 4.99038 8.97579 4.99038C9.60205 4.99038 10.1119 5.50033 10.1119 6.12543ZM13.6736 6.12543C13.6736 6.75347 13.1632 7.26342 12.5375 7.26342C11.9119 7.26342 11.4014 6.75347 11.4014 6.12543C11.4014 5.49739 11.9119 4.99038 12.5375 4.99038C13.1632 4.99038 13.6736 5.50033 13.6736 6.12543ZM31.7352 25.7315L30.0404 24.0407C29.727 23.7275 29.2595 23.6253 28.8432 23.778L27.3314 24.3332L26.4052 23.9508L25.7301 22.4879C25.5443 22.0849 25.1403 21.827 24.6964 21.827H22.3031C21.8591 21.827 21.4557 22.0849 21.2699 22.4879L20.5942 23.9514L19.6681 24.3338L18.1562 23.7786C17.7399 23.6259 17.273 23.7281 16.959 24.0412L15.2643 25.7321C14.9497 26.0458 14.8467 26.514 15.0008 26.9306L15.5583 28.4393L15.1743 29.3646L13.7113 30.0396C13.3084 30.2253 13.0503 30.6283 13.0503 31.0719V33.463C13.0503 33.9065 13.3084 34.3096 13.7113 34.4952L15.1743 35.1703L15.5583 36.0956L15.0008 37.6072C14.8473 38.0237 14.9502 38.4914 15.2648 38.8051L16.9596 40.4959C17.2736 40.8091 17.7417 40.9113 18.158 40.758L19.6681 40.201L20.5942 40.5847L21.2699 42.0464C21.4563 42.4488 21.8591 42.7067 22.3031 42.7067H24.6964C25.1403 42.7067 25.5437 42.4488 25.7295 42.0464L26.4052 40.5847L27.3314 40.201L28.8414 40.758C29.2578 40.9113 29.7258 40.8091 30.0399 40.4959L31.7346 38.8051C32.0492 38.4914 32.1521 38.0237 31.9986 37.6072L31.4406 36.0956L31.8245 35.1703L33.2876 34.4952C33.6904 34.3096 33.9485 33.9065 33.9485 33.463V31.0719C33.9485 30.6283 33.6904 30.2253 33.2876 30.0396L31.8245 29.3646L31.4406 28.4393L31.998 26.9306C32.1521 26.514 32.0492 26.0458 31.7346 25.7321L31.7352 25.7315ZM31.6728 31.7986V32.7351L30.4674 33.2914C30.2074 33.4113 30.0028 33.624 29.8934 33.8883L29.1684 35.6356C29.0584 35.8999 29.0525 36.196 29.1519 36.4645L29.6118 37.7106L28.9479 38.3727L27.7024 37.9133C27.4337 37.814 27.1373 37.8199 26.8721 37.9297L25.1233 38.6541C24.8592 38.7634 24.6458 38.9684 24.5258 39.2275L23.969 40.4325H23.0316L22.4748 39.2275C22.3548 38.9684 22.1413 38.7634 21.8773 38.6541L20.1285 37.9297C19.8639 37.8199 19.5669 37.814 19.2982 37.9133L18.0527 38.3727L17.3888 37.7106L17.8487 36.4645C17.9475 36.196 17.9416 35.8999 17.8322 35.6356L17.1072 33.8883C16.9978 33.6245 16.7926 33.4113 16.5332 33.2914L15.3278 32.7351V31.7986L16.5338 31.2422C16.7931 31.1224 16.9984 30.9097 17.1077 30.6453L17.8328 28.8987C17.9428 28.6343 17.9486 28.3382 17.8493 28.0691L17.39 26.826L18.0545 26.1633L19.3005 26.621C19.5687 26.7197 19.8639 26.7138 20.1279 26.6045L21.8767 25.8825C22.1413 25.7732 22.3554 25.5682 22.4753 25.3079L23.0328 24.1012H23.969L24.5258 25.3079C24.6458 25.5682 24.8598 25.7732 25.1245 25.8825L26.8733 26.6045C27.1373 26.7138 27.4325 26.7191 27.7006 26.621L28.9467 26.1633L29.6112 26.826L29.1519 28.0691C29.0525 28.3376 29.0584 28.6337 29.1684 28.8987L29.8934 30.6453C30.0028 30.9091 30.208 31.1224 30.4674 31.2422L31.6734 31.7986H31.6728ZM23.4985 27.9458C21.1146 27.9458 19.1747 29.8845 19.1747 32.268C19.1747 34.6515 21.114 36.5879 23.4985 36.5879C25.883 36.5879 27.8247 34.6503 27.8247 32.268C27.8247 29.8857 25.8842 27.9458 23.4985 27.9458ZM23.4985 34.3137C22.3695 34.3137 21.451 33.396 21.451 32.268C21.451 31.14 22.3695 30.22 23.4985 30.22C24.6276 30.22 25.5484 31.1388 25.5484 32.268C25.5484 33.3972 24.6287 34.3137 23.4985 34.3137ZM11.4003 36.7189C11.6173 37.3082 11.3156 37.9621 10.7258 38.1788C10.5958 38.2264 10.4629 38.2493 10.3324 38.2493C9.86902 38.2493 9.43387 37.9644 9.26452 37.505C8.64767 35.8318 8.33483 34.0699 8.33483 32.2686C8.33483 28.6719 9.61793 25.1851 11.9483 22.4503C13.6325 20.4739 15.7888 18.9723 18.1886 18.0734C17.6952 17.7432 17.5358 17.0835 17.8369 16.5624C18.1515 16.0183 18.8472 15.8321 19.3917 16.1458L21.6856 17.4689C22.2301 17.7826 22.4165 18.4776 22.1025 19.0216L20.7783 21.3158C20.5678 21.6807 20.1849 21.8851 19.7915 21.8851C19.5987 21.8851 19.4034 21.8364 19.2241 21.733C18.7149 21.4392 18.5184 20.8118 18.7525 20.2865C13.9112 22.1889 10.6117 26.8777 10.6117 32.268C10.6117 33.8002 10.8769 35.2977 11.4003 36.7189ZM35.1546 41.9647C32.262 45.4309 28.0135 47.4185 23.4991 47.4185C19.9409 47.4185 16.5485 46.1818 13.8547 43.9604C13.8142 44.552 13.3226 45.0191 12.7204 45.0191C12.0918 45.0191 11.5826 44.5097 11.5826 43.8823V41.2362C11.5826 40.6082 12.0924 40.0994 12.7204 40.0994H15.3713C15.9999 40.0994 16.5091 40.6087 16.5091 41.2362C16.5091 41.8202 16.0681 42.3007 15.5006 42.3654C17.7575 44.1525 20.5619 45.1442 23.4985 45.1442C27.3361 45.1442 30.9472 43.4546 33.4058 40.5083C33.808 40.0259 34.526 39.9607 35.0088 40.3632C35.4915 40.7656 35.5574 41.4824 35.1546 41.9647ZM39.5308 36.7741L37.2345 38.0972C37.0557 38.2006 36.8599 38.2493 36.667 38.2493C36.2736 38.2493 35.8914 38.0455 35.6803 37.6806L34.356 35.3888C34.042 34.8448 34.2284 34.1498 34.7724 33.8355C35.2781 33.5441 35.9143 33.6845 36.2542 34.1415C36.3442 33.5253 36.3901 32.9002 36.3901 32.268C36.3901 25.9747 31.891 20.6361 25.6925 19.5739C25.0727 19.4676 24.657 18.8801 24.7634 18.2608C24.8698 17.6416 25.4579 17.2257 26.0777 17.332C29.5612 17.9289 32.7489 19.746 35.0523 22.4491C37.3833 25.1839 38.6669 28.6707 38.6669 32.2674C38.6669 33.1122 38.597 33.9483 38.4605 34.7696C38.9939 34.5064 39.6478 34.6979 39.9494 35.2202C40.2635 35.7642 40.0765 36.4598 39.5319 36.7735L39.5308 36.7741Z" fill="#61FEFF"/>
</svg>
