<svg width="71" height="40" viewBox="0 0 71 40" fill="none" xmlns="http://www.w3.org/2000/svg">
<path d="M29.2125 13.2799C30.8626 13.7481 32.5894 13.884 34.2925 13.6797C35.9956 13.4755 37.6412 12.935 39.1339 12.0898L54.0827 24.2261C54.3929 24.478 54.6562 24.7828 54.8605 25.1263L59.1011 21.2343L50.9506 8.18682L46.0729 9.97092L39.683 7.68844C39.0248 7.45336 38.3202 7.37819 37.6272 7.46907C36.9342 7.55996 36.2727 7.81438 35.6974 8.21124C33.6706 9.60912 31.4712 10.7384 29.1541 11.5711C28.9752 11.6355 28.8214 11.7552 28.7148 11.9127C28.6082 12.0702 28.5544 12.2574 28.5611 12.4474C28.5678 12.6375 28.6346 12.8206 28.752 12.9702C28.8694 13.1199 29.0295 13.2282 29.2125 13.2799Z" fill="#9747FF"/>
<path d="M30.4671 32.2727C30.5275 31.7546 30.4718 31.2295 30.3039 30.7357C30.136 30.2419 29.8601 29.7917 29.4963 29.4179C29.1326 29.044 28.6901 28.7559 28.201 28.5746C27.712 28.3932 27.1886 28.323 26.6691 28.3693C26.8466 27.6525 26.7935 26.898 26.5174 26.2131C26.2414 25.5283 25.7563 24.9479 25.1314 24.5546C24.5064 24.1613 23.7733 23.9752 23.0364 24.0226C22.2995 24.07 21.5963 24.3486 21.0269 24.8188L20.7923 25.0119C20.7849 24.3495 20.5902 23.7027 20.2307 23.1463C19.8712 22.5899 19.3617 22.1466 18.7609 21.8675C18.1601 21.5885 17.4926 21.4851 16.8355 21.5694C16.1785 21.6537 15.5587 21.9222 15.0478 22.3439L12.8006 24.199L10.75 22.6936L19.3005 8.62221C22.1146 8.68902 24.9302 8.59607 27.7338 8.34373C29.7235 7.72293 31.8258 7.54983 33.8903 7.83672C32.2585 8.85257 30.5237 9.69254 28.7148 10.3426C28.2756 10.5005 27.8978 10.7937 27.636 11.18C27.3741 11.5664 27.2417 12.0261 27.2577 12.4925C27.2738 12.959 27.4375 13.4082 27.7253 13.7757C28.0131 14.1431 28.4102 14.4098 28.8592 14.5371C32.228 15.4928 35.8307 15.176 38.9809 13.6468L53.2621 25.2408C53.6832 25.5839 53.9543 26.0776 54.0179 26.6172C54.0815 27.1567 53.9326 27.6997 53.6028 28.1314C53.273 28.5631 52.7881 28.8495 52.2508 28.9299C51.7135 29.0104 51.1661 28.8786 50.7243 28.5624L40.0408 20.8867C39.9 20.7871 39.7256 20.7472 39.5556 20.7757C39.3855 20.8041 39.2337 20.8987 39.1331 21.0387C39.0324 21.1787 38.9913 21.3527 39.0186 21.523C39.0458 21.6932 39.1393 21.8458 39.2786 21.9474L49.591 29.3564C50.0657 29.6975 50.3855 30.2133 50.48 30.7902C50.5744 31.3671 50.4358 31.958 50.0947 32.4328C49.7535 32.9075 49.2377 33.2273 48.6608 33.3218C48.0839 33.4163 47.4931 33.2776 47.0183 32.9365L37.284 25.9426C37.1432 25.8464 36.9703 25.809 36.8024 25.8387C36.6344 25.8683 36.4847 25.9624 36.3852 26.101C36.2858 26.2395 36.2445 26.4115 36.2701 26.5801C36.2958 26.7487 36.3863 26.9005 36.5225 27.0032L45.1127 33.1757C45.5785 33.5201 45.89 34.0341 45.9798 34.6064C46.0696 35.1787 45.9305 35.7634 45.5925 36.2339C45.2545 36.7044 44.7449 37.0229 44.1739 37.1206C43.6029 37.2182 43.0164 37.0871 42.5413 36.7556L34.4617 30.9507C34.321 30.851 34.1466 30.8109 33.9765 30.8394C33.8065 30.8679 33.6546 30.9624 33.554 31.1025C33.4534 31.2425 33.4123 31.4167 33.4395 31.5869C33.4668 31.7571 33.5603 31.9097 33.6996 32.0113L39.8826 36.4538C40.3039 36.7566 40.5878 37.2144 40.6716 37.7265C40.7555 38.2386 40.6325 38.763 40.3297 39.1844C40.0269 39.6058 39.5691 39.8895 39.0571 39.9734C38.545 40.0572 38.0206 39.9342 37.5992 39.6314L34.428 37.3528C34.7561 36.7519 34.9013 36.0682 34.8457 35.3858C34.7902 34.7035 34.5363 34.0522 34.1153 33.5123C33.6944 32.9724 33.1247 32.5673 32.4765 32.3471C31.8283 32.1268 31.1298 32.1011 30.4671 32.2727Z" fill="#9747FF"/>
<path d="M16.0842 28.9014L18.687 26.7534C19.134 26.3802 19.4151 25.845 19.4689 25.2651C19.5227 24.6852 19.3448 24.1076 18.9741 23.6585C18.6034 23.2093 18.0699 22.9252 17.4904 22.868C16.9108 22.8109 16.3321 22.9856 15.8809 23.3538L13.2787 25.5017C12.8367 25.8764 12.5601 26.4101 12.5087 26.9873C12.4573 27.5645 12.6353 28.1389 13.0041 28.5858C13.3729 29.0328 13.9029 29.3164 14.4794 29.3755C15.0559 29.4346 15.6324 29.2642 16.0842 28.9014Z" fill="#9747FF"/>
<path d="M24.6665 29.2264C25.1136 28.8531 25.3947 28.3181 25.4485 27.7382C25.5023 27.1583 25.3244 26.5808 24.9537 26.1316C24.5829 25.6825 24.0495 25.3983 23.4699 25.3412C22.8903 25.2841 22.3117 25.4587 21.8605 25.8269L17.1566 29.7096C16.7096 30.0828 16.4285 30.6178 16.3747 31.1977C16.3209 31.7776 16.4988 32.3554 16.8695 32.8045C17.2402 33.2537 17.7736 33.5378 18.3532 33.5949C18.9328 33.6521 19.5114 33.4774 19.9627 33.1092L24.6665 29.2264Z" fill="#9747FF"/>
<path d="M24.6979 36.6055L28.3786 33.5674C28.8256 33.1941 29.1068 32.6591 29.1606 32.0792C29.2144 31.4993 29.0365 30.9216 28.6657 30.4725C28.295 30.0233 27.7616 29.7391 27.182 29.682C26.6024 29.6249 26.0238 29.7996 25.5725 30.1677L21.8919 33.2058C21.4445 33.579 21.1631 34.1141 21.1091 34.6941C21.0551 35.2742 21.233 35.8522 21.6039 36.3015C21.9747 36.7508 22.5084 37.0349 23.0882 37.0919C23.668 37.1489 24.2467 36.974 24.6979 36.6055Z" fill="#9747FF"/>
<path d="M29.9376 33.9703L27.4984 35.9835C27.0499 36.3563 26.7674 36.8917 26.7128 37.4724C26.6582 38.0531 26.8361 38.6318 27.2074 39.0816C27.5787 39.5314 28.1131 39.8159 28.6936 39.8724C29.2742 39.9289 29.8534 39.753 30.3045 39.3832L32.7437 37.37C33.1944 36.9979 33.4788 36.4618 33.5344 35.88C33.5901 35.2981 33.4123 34.7181 33.0402 34.2673C32.6681 33.8166 32.1323 33.5321 31.5504 33.4763C30.9686 33.4206 30.3884 33.5983 29.9376 33.9703Z" fill="#9747FF"/>
<path d="M20.1104 4.77429L7.85458 24.9427L0 20.1694L12.2553 0.000976562L20.1104 4.77429Z" fill="#9747FF"/>
<path d="M58.4118 0.306641L70.0276 18.9011L62.2272 23.7739L50.6113 5.17945L58.4118 0.306641Z" fill="#9747FF"/>
</svg>
