<svg width="474" height="337" viewBox="0 0 474 337" fill="none" xmlns="http://www.w3.org/2000/svg">
<path d="M0.615234 36.335C0.615234 16.4527 16.733 0.334961 36.6152 0.334961H437.615C457.497 0.334961 473.615 16.4527 473.615 36.335V296.335C473.615 316.217 457.497 332.335 437.615 332.335H36.6152C16.733 332.335 0.615234 316.217 0.615234 296.335V36.335Z" fill="white" fill-opacity="0.06"/>
<path d="M436.615 29.335C436.615 25.469 433.481 22.335 429.615 22.335H42.6152C38.7492 22.335 35.6152 25.469 35.6152 29.335C35.6152 33.201 38.7492 36.335 42.6152 36.335H429.615C433.481 36.335 436.615 33.201 436.615 29.335Z" fill="#28282E"/>
<path d="M62.699 29.5001C62.699 31.1295 64.0199 32.4504 65.6493 32.4504C67.2787 32.4504 68.5996 31.1295 68.5996 29.5001C68.5996 27.8707 67.2787 26.5498 65.6493 26.5498C64.0199 26.5498 62.699 27.8707 62.699 29.5001Z" fill="#3FCA90"/>
<path d="M51.7537 29.5001C51.7537 31.1295 53.0746 32.4504 54.704 32.4504C56.3334 32.4504 57.6543 31.1295 57.6543 29.5001C57.6543 27.8707 56.3334 26.5498 54.704 26.5498C53.0746 26.5498 51.7537 27.8707 51.7537 29.5001Z" fill="#FFE073"/>
<path d="M40.8005 29.5001C40.8005 31.1295 42.1214 32.4504 43.7509 32.4504C45.3803 32.4504 46.7012 31.1295 46.7012 29.5001C46.7012 27.8707 45.3803 26.5498 43.7509 26.5498C42.1214 26.5498 40.8005 27.8707 40.8005 29.5001Z" fill="#ED5050"/>
<g clip-path="url(#clip0_1516_1130)">
<path opacity="0.7" d="M363.133 174.924C357.561 207.881 339.877 238.361 315.202 260.907C297.34 277.253 275.845 289.114 252.493 295.51C238.373 299.37 223.706 300.838 209.102 299.853C206.202 299.642 203.305 299.328 200.409 298.91C189.497 297.318 178.579 294.138 169.577 287.784C160.574 281.43 153.671 271.485 152.8 260.489C151.929 249.494 156.935 237.705 152.389 227.604C147.681 217.158 135.117 213.405 125.589 207.045C106.45 194.272 98.891 169.167 100.174 146.192C101.935 117.313 115.073 90.3106 136.71 71.103C157.448 52.8827 193.22 27.3778 273.058 37.3769C296.391 40.3003 329.139 60.0777 342.592 79.3481C361.737 106.744 368.705 141.974 363.133 174.924Z" fill="#263238"/>
<path d="M395.115 262.607H79.1152V262.765H395.115V262.607Z" fill="#EBEBEB"/>
<path d="M363.453 272.78H342.52V272.938H363.453V272.78Z" fill="#EBEBEB"/>
<path d="M288.447 274.495H282.953V274.653H288.447V274.495Z" fill="#EBEBEB"/>
<path d="M341.887 266.911H329.758V267.069H341.887V266.911Z" fill="#EBEBEB"/>
<path d="M139.568 267.973H112.27V268.131H139.568V267.973Z" fill="#EBEBEB"/>
<path d="M149.198 267.973H145.195V268.131H149.198V267.973Z" fill="#EBEBEB"/>
<path d="M221.408 270.642H162.205V270.8H221.408V270.642Z" fill="#EBEBEB"/>
<path d="M228.908 234.421H106.869C104.88 234.421 103.262 232.803 103.262 230.814V59.2686C103.262 57.2797 104.88 55.6611 106.869 55.6611H228.908C230.896 55.6611 232.515 57.2797 232.515 59.2686V230.814C232.515 232.803 230.896 234.421 228.908 234.421ZM106.869 55.8198C104.967 55.8198 103.42 57.3669 103.42 59.2692V230.814C103.42 232.717 104.967 234.264 106.869 234.264H228.908C230.809 234.264 232.357 232.717 232.357 230.814V59.2686C232.357 57.3669 230.809 55.8191 228.908 55.8191L106.869 55.8198Z" fill="#EBEBEB"/>
<path d="M365.608 234.421H243.57C241.581 234.421 239.963 232.803 239.963 230.814V59.2686C239.963 57.2797 241.581 55.6611 243.57 55.6611H365.608C367.597 55.6611 369.215 57.2797 369.215 59.2686V230.814C369.216 232.803 367.597 234.421 365.608 234.421ZM243.57 55.8198C241.668 55.8198 240.121 57.3669 240.121 59.2692V230.814C240.121 232.717 241.668 234.264 243.57 234.264H365.608C367.51 234.264 369.057 232.717 369.057 230.814V59.2686C369.057 57.3669 367.51 55.8191 365.608 55.8191L243.57 55.8198Z" fill="#EBEBEB"/>
<path d="M212.234 89.0044H115.377V168.841H212.234V89.0044Z" fill="#EBEBEB"/>
<path d="M134.472 96.8262H121.902V109.396H134.472V96.8262Z" fill="#F5F5F5"/>
<path d="M206.863 129.171H194.293V141.741H206.863V129.171Z" fill="#F5F5F5"/>
<path d="M150.035 103.453H137.465V116.022H150.035V103.453Z" fill="#F5F5F5"/>
<path d="M192.681 133.125H180.111V145.695H192.681V133.125Z" fill="#F5F5F5"/>
<path d="M143.749 133.417H125.652V157.456H143.749V133.417Z" fill="#F5F5F5"/>
<path d="M164.413 133.596H146.316V157.635H164.413V133.596Z" fill="#F5F5F5"/>
<path d="M200.577 97.7183H182.48V121.757H200.577V97.7183Z" fill="#F5F5F5"/>
<path d="M362.941 71.7803H298.652V206.569H362.941V71.7803Z" fill="#EBEBEB"/>
<path d="M364.426 70.0259H297.17V76.3693H364.426V70.0259Z" fill="#E0E0E0"/>
<path d="M364.426 78.9683H297.17V82.1396H364.426V78.9683Z" fill="#E0E0E0"/>
<path d="M364.426 83.6763H297.17V86.8483H364.426V83.6763Z" fill="#E0E0E0"/>
<path d="M364.426 88.3833H297.17V91.5553H364.426V88.3833Z" fill="#E0E0E0"/>
<path d="M364.426 93.0903H297.17V96.2617H364.426V93.0903Z" fill="#E0E0E0"/>
<path d="M364.426 97.7974H297.17V100.969H364.426V97.7974Z" fill="#E0E0E0"/>
<path d="M364.426 102.504H297.17V105.676H364.426V102.504Z" fill="#E0E0E0"/>
<path d="M364.426 107.212H297.17V110.384H364.426V107.212Z" fill="#E0E0E0"/>
<path d="M364.426 111.919H297.17V115.091H364.426V111.919Z" fill="#E0E0E0"/>
<path d="M364.426 116.626H297.17V119.798H364.426V116.626Z" fill="#E0E0E0"/>
<path d="M364.426 121.334H297.17V124.506H364.426V121.334Z" fill="#E0E0E0"/>
<path d="M364.426 126.042H297.17V129.213H364.426V126.042Z" fill="#E0E0E0"/>
<path d="M364.426 130.749H297.17V133.921H364.426V130.749Z" fill="#E0E0E0"/>
<path d="M364.426 135.456H297.17V138.628H364.426V135.456Z" fill="#E0E0E0"/>
<path d="M364.426 140.163H297.17V143.334H364.426V140.163Z" fill="#E0E0E0"/>
<path d="M364.426 144.87H297.17V148.042H364.426V144.87Z" fill="#E0E0E0"/>
<path d="M364.426 149.578H297.17V152.75H364.426V149.578Z" fill="#E0E0E0"/>
<path d="M364.426 154.285H297.17V157.457H364.426V154.285Z" fill="#E0E0E0"/>
<path d="M364.426 158.992H297.17V162.164H364.426V158.992Z" fill="#E0E0E0"/>
<path d="M364.426 163.699H297.17V166.871H364.426V163.699Z" fill="#E0E0E0"/>
<path d="M364.426 168.407H297.17V171.579H364.426V168.407Z" fill="#E0E0E0"/>
<path d="M364.426 173.114H297.17V176.286H364.426V173.114Z" fill="#E0E0E0"/>
<path d="M364.426 177.821H297.17V180.993H364.426V177.821Z" fill="#E0E0E0"/>
<path d="M364.426 182.528H297.17V185.7H364.426V182.528Z" fill="#E0E0E0"/>
<path d="M364.426 187.236H297.17V190.407H364.426V187.236Z" fill="#E0E0E0"/>
<path d="M364.426 191.943H297.17V195.115H364.426V191.943Z" fill="#E0E0E0"/>
<path d="M364.426 196.65H297.17V199.822H364.426V196.65Z" fill="#E0E0E0"/>
<path d="M364.426 201.358H297.17V204.529H364.426V201.358Z" fill="#E0E0E0"/>
<path d="M290.773 242.055L288.896 241.784C289.234 239.421 291.209 234.952 296.266 234.952C302.254 234.952 305.235 238.41 305.533 241.836L303.645 242.001C303.421 239.435 301.054 236.848 296.266 236.848C291.6 236.848 290.804 241.843 290.773 242.055Z" fill="#E0E0E0"/>
<path d="M312.955 262.418H282.161C280.473 262.418 279.105 261.05 279.105 259.363V243.44C279.105 241.752 280.473 240.385 282.161 240.385H312.955C314.642 240.385 316.01 241.752 316.01 243.44V259.362C316.01 261.05 314.642 262.418 312.955 262.418Z" fill="#EBEBEB"/>
<path d="M305.533 262.758C279.465 262.758 278.17 244.867 278.16 244.686L279.223 242.613C279.263 243.278 281.32 260.862 305.533 260.862C315.497 260.862 324.103 260.862 324.973 258.953C325.738 257.275 322.002 252.975 316.011 246.079V243.44C323.645 252.227 327.969 256.953 326.698 259.74C325.374 262.642 319.609 262.758 305.533 262.758Z" fill="#E0E0E0"/>
<path d="M289.395 79.1264C291.124 79.1264 292.531 80.5326 292.531 82.2618V185.45C292.531 187.178 291.124 188.585 289.395 188.585H150.88C149.151 188.585 147.745 187.179 147.745 185.45V82.2618C147.745 80.5333 149.151 79.1264 150.88 79.1264H289.395ZM289.395 78.3364H150.88C148.712 78.3364 146.955 80.094 146.955 82.2618V185.45C146.955 187.617 148.713 189.375 150.88 189.375H289.395C291.562 189.375 293.32 187.617 293.32 185.45V82.2618C293.321 80.094 291.563 78.3364 289.395 78.3364Z" fill="#30BABA"/>
<path d="M289.396 189.375H150.88C148.713 189.375 146.955 187.617 146.955 185.45V82.2618C146.955 80.094 148.713 78.3364 150.88 78.3364H289.395C291.563 78.3364 293.321 80.094 293.321 82.2618V185.45C293.321 187.617 291.564 189.375 289.396 189.375Z" fill="white"/>
<path d="M276.984 89.8481H275.172V91.3586H276.984V89.8481Z" fill="#30BABA"/>
<path d="M276.984 174.48H275.172V171.511H276.984V174.48ZM276.984 168.543H275.172V165.574H276.984V168.543ZM276.984 162.606H275.172V159.637H276.984V162.606ZM276.984 156.668H275.172V153.7H276.984V156.668ZM276.984 150.731H275.172V147.763H276.984V150.731ZM276.984 144.794H275.172V141.825H276.984V144.794ZM276.984 138.856H275.172V135.888H276.984V138.856ZM276.984 132.919H275.172V129.951H276.984V132.919ZM276.984 126.982H275.172V124.013H276.984V126.982ZM276.984 121.045H275.172V118.076H276.984V121.045ZM276.984 115.108H275.172V112.139H276.984V115.108ZM276.984 109.171H275.172V106.202H276.984V109.171ZM276.984 103.233H275.172V100.265H276.984V103.233ZM276.984 97.2961H275.172V94.3276H276.984V97.2961Z" fill="#30BABA"/>
<path d="M276.984 177.448H275.172V178.959H276.984V177.448Z" fill="#30BABA"/>
<path d="M167.428 174.48H165.615V171.511H167.428V174.48Z" fill="#30BABA"/>
<path d="M167.428 177.448H165.615V178.959H167.428V177.448Z" fill="#30BABA"/>
<path d="M189.34 174.48H187.527V171.511H189.34V174.48ZM189.34 168.543H187.527V165.574H189.34V168.543ZM189.34 162.606H187.527V159.637H189.34V162.606ZM189.34 156.668H187.527V153.7H189.34V156.668Z" fill="#30BABA"/>
<path d="M189.34 177.448H187.527V178.959H189.34V177.448Z" fill="#30BABA"/>
<path d="M211.25 174.48H209.438V171.511H211.25V174.48ZM211.25 168.543H209.438V165.574H211.25V168.543ZM211.25 162.606H209.438V159.637H211.25V162.606ZM211.25 156.668H209.438V153.7H211.25V156.668ZM211.25 150.731H209.438V147.763H211.25V150.731Z" fill="#30BABA"/>
<path d="M211.25 177.448H209.438V178.959H211.25V177.448Z" fill="#30BABA"/>
<path d="M233.162 174.48H231.35V171.511H233.162V174.48ZM233.162 168.543H231.35V165.574H233.162V168.543ZM233.162 162.606H231.35V159.637H233.162V162.606ZM233.162 156.668H231.35V153.7H233.162V156.668ZM233.162 150.731H231.35V147.763H233.162V150.731ZM233.162 144.794H231.35V141.825H233.162V144.794ZM233.162 138.857H231.35V135.888H233.162V138.857ZM233.162 132.92H231.35V129.951H233.162V132.92Z" fill="#30BABA"/>
<path d="M233.162 177.448H231.35V178.959H233.162V177.448Z" fill="#30BABA"/>
<path d="M255.072 174.48H253.26V171.512H255.072V174.48ZM255.072 168.543H253.26V165.575H255.072V168.543ZM255.072 162.606H253.26V159.637H255.072V162.606ZM255.072 156.668H253.26V153.7H255.072V156.668ZM255.072 150.731H253.26V147.763H255.072V150.731ZM255.072 144.794H253.26V141.825H255.072V144.794ZM255.072 138.857H253.26V135.888H255.072V138.857ZM255.072 132.92H253.26V129.951H255.072V132.92ZM255.072 126.982H253.26V124.014H255.072V126.982ZM255.072 121.045H253.26V118.077H255.072V121.045Z" fill="#30BABA"/>
<path d="M255.072 177.449H253.26V178.959H255.072V177.449Z" fill="#30BABA"/>
<g opacity="0.7">
<path d="M276.984 89.8481H275.172V91.3586H276.984V89.8481Z" fill="white"/>
<path d="M276.984 174.48H275.172V171.511H276.984V174.48ZM276.984 168.543H275.172V165.574H276.984V168.543ZM276.984 162.606H275.172V159.637H276.984V162.606ZM276.984 156.668H275.172V153.7H276.984V156.668ZM276.984 150.731H275.172V147.763H276.984V150.731ZM276.984 144.794H275.172V141.825H276.984V144.794ZM276.984 138.856H275.172V135.888H276.984V138.856ZM276.984 132.919H275.172V129.951H276.984V132.919ZM276.984 126.982H275.172V124.013H276.984V126.982ZM276.984 121.045H275.172V118.076H276.984V121.045ZM276.984 115.108H275.172V112.139H276.984V115.108ZM276.984 109.171H275.172V106.202H276.984V109.171ZM276.984 103.233H275.172V100.265H276.984V103.233ZM276.984 97.2961H275.172V94.3276H276.984V97.2961Z" fill="white"/>
<path d="M276.984 177.448H275.172V178.959H276.984V177.448Z" fill="white"/>
<path d="M167.428 174.48H165.615V171.511H167.428V174.48Z" fill="white"/>
<path d="M167.428 177.448H165.615V178.959H167.428V177.448Z" fill="white"/>
<path d="M189.34 174.48H187.527V171.511H189.34V174.48ZM189.34 168.543H187.527V165.574H189.34V168.543ZM189.34 162.606H187.527V159.637H189.34V162.606ZM189.34 156.668H187.527V153.7H189.34V156.668Z" fill="white"/>
<path d="M189.34 177.448H187.527V178.959H189.34V177.448Z" fill="white"/>
<path d="M211.25 174.48H209.438V171.511H211.25V174.48ZM211.25 168.543H209.438V165.574H211.25V168.543ZM211.25 162.606H209.438V159.637H211.25V162.606ZM211.25 156.668H209.438V153.7H211.25V156.668ZM211.25 150.731H209.438V147.763H211.25V150.731Z" fill="white"/>
<path d="M211.25 177.448H209.438V178.959H211.25V177.448Z" fill="white"/>
<path d="M233.162 174.48H231.35V171.511H233.162V174.48ZM233.162 168.543H231.35V165.574H233.162V168.543ZM233.162 162.606H231.35V159.637H233.162V162.606ZM233.162 156.668H231.35V153.7H233.162V156.668ZM233.162 150.731H231.35V147.763H233.162V150.731ZM233.162 144.794H231.35V141.825H233.162V144.794ZM233.162 138.857H231.35V135.888H233.162V138.857ZM233.162 132.92H231.35V129.951H233.162V132.92Z" fill="white"/>
<path d="M233.162 177.448H231.35V178.959H233.162V177.448Z" fill="white"/>
<path d="M255.072 174.48H253.26V171.512H255.072V174.48ZM255.072 168.543H253.26V165.575H255.072V168.543ZM255.072 162.606H253.26V159.637H255.072V162.606ZM255.072 156.668H253.26V153.7H255.072V156.668ZM255.072 150.731H253.26V147.763H255.072V150.731ZM255.072 144.794H253.26V141.825H255.072V144.794ZM255.072 138.857H253.26V135.888H255.072V138.857ZM255.072 132.92H253.26V129.951H255.072V132.92ZM255.072 126.982H253.26V124.014H255.072V126.982ZM255.072 121.045H253.26V118.077H255.072V121.045Z" fill="white"/>
<path d="M255.072 177.449H253.26V178.959H255.072V177.449Z" fill="white"/>
</g>
<path d="M276.079 86.8198C274.409 86.8198 273.05 88.1786 273.05 89.8484C273.05 90.2933 273.152 90.7129 273.326 91.094L255.238 110.222C254.9 110.09 254.534 110.011 254.149 110.011C252.48 110.011 251.121 111.37 251.121 113.04C251.121 113.145 251.142 113.244 251.152 113.346L234.137 122.457C233.613 122.024 232.951 121.754 232.22 121.754C230.55 121.754 229.192 123.112 229.192 124.782C229.192 125.076 229.247 125.355 229.326 125.624L211.759 139.616C211.322 139.371 210.826 139.22 210.291 139.22C208.747 139.22 207.483 140.386 207.3 141.882L190.748 146.424C190.194 145.708 189.336 145.237 188.362 145.237C186.692 145.237 185.333 146.596 185.333 148.266C185.333 148.56 185.388 148.839 185.467 149.108L167.9 163.1C167.464 162.855 166.968 162.703 166.433 162.703C164.763 162.703 163.404 164.062 163.404 165.732C163.404 167.402 164.763 168.76 166.433 168.76C168.103 168.76 169.461 167.402 169.461 165.732C169.461 165.438 169.406 165.159 169.327 164.89L186.894 150.898C187.331 151.142 187.827 151.294 188.362 151.294C189.906 151.294 191.17 150.127 191.353 148.632L207.905 144.09C208.459 144.806 209.317 145.276 210.291 145.276C211.961 145.276 213.32 143.917 213.32 142.247C213.32 141.954 213.264 141.675 213.186 141.406L230.753 127.414C231.189 127.658 231.685 127.81 232.22 127.81C233.89 127.81 235.249 126.451 235.249 124.782C235.249 124.677 235.229 124.577 235.218 124.475L252.233 115.364C252.756 115.797 253.419 116.068 254.149 116.068C255.819 116.068 257.178 114.709 257.178 113.039C257.178 112.594 257.076 112.174 256.902 111.793L274.99 92.6658C275.328 92.7973 275.694 92.8763 276.079 92.8763C277.748 92.8763 279.107 91.5175 279.107 89.8477C279.107 88.1786 277.748 86.8198 276.079 86.8198Z" fill="#30BABA"/>
<path opacity="0.2" d="M188.361 150.435C189.559 150.435 190.531 149.464 190.531 148.265C190.531 147.067 189.559 146.096 188.361 146.096C187.163 146.096 186.191 147.067 186.191 148.265C186.191 149.464 187.163 150.435 188.361 150.435Z" fill="white"/>
<path opacity="0.4" d="M210.291 144.417C211.489 144.417 212.46 143.446 212.46 142.247C212.46 141.049 211.489 140.078 210.291 140.078C209.092 140.078 208.121 141.049 208.121 142.247C208.121 143.446 209.092 144.417 210.291 144.417Z" fill="white"/>
<path opacity="0.6" d="M232.22 126.951C233.419 126.951 234.39 125.979 234.39 124.781C234.39 123.583 233.419 122.611 232.22 122.611C231.022 122.611 230.051 123.583 230.051 124.781C230.051 125.979 231.022 126.951 232.22 126.951Z" fill="white"/>
<path opacity="0.8" d="M254.148 115.208C255.346 115.208 256.318 114.237 256.318 113.039C256.318 111.841 255.346 110.869 254.148 110.869C252.95 110.869 251.979 111.841 251.979 113.039C251.979 114.237 252.95 115.208 254.148 115.208Z" fill="white"/>
<path d="M276.078 92.018C277.276 92.018 278.248 91.0466 278.248 89.8484C278.248 88.6501 277.276 87.6787 276.078 87.6787C274.88 87.6787 273.908 88.6501 273.908 89.8484C273.908 91.0466 274.88 92.018 276.078 92.018Z" fill="white"/>
<path d="M206.682 135.822C206.326 135.822 206.021 136.033 205.879 136.335H187.956C187.305 136.335 186.775 135.805 186.775 135.154V116.349H186.02V135.154C186.02 136.222 186.888 137.09 187.956 137.09H205.879C206.021 137.392 206.326 137.602 206.682 137.602C207.174 137.602 207.572 137.204 207.572 136.712C207.572 136.22 207.173 135.822 206.682 135.822Z" fill="#30BABA"/>
<path d="M196.92 120.345H175.875C174.972 120.345 174.24 119.613 174.24 118.71V112.757C174.24 111.854 174.972 111.122 175.875 111.122H196.92C197.823 111.122 198.555 111.854 198.555 112.757V118.71C198.554 119.613 197.822 120.345 196.92 120.345Z" fill="#30BABA"/>
<g opacity="0.4">
<path d="M206.682 135.822C206.326 135.822 206.021 136.033 205.879 136.335H187.956C187.305 136.335 186.775 135.805 186.775 135.154V116.349H186.02V135.154C186.02 136.222 186.888 137.09 187.956 137.09H205.879C206.021 137.392 206.326 137.602 206.682 137.602C207.174 137.602 207.572 137.204 207.572 136.712C207.572 136.22 207.173 135.822 206.682 135.822Z" fill="white"/>
<path d="M196.92 120.345H175.875C174.972 120.345 174.24 119.613 174.24 118.71V112.757C174.24 111.854 174.972 111.122 175.875 111.122H196.92C197.823 111.122 198.555 111.854 198.555 112.757V118.71C198.554 119.613 197.822 120.345 196.92 120.345Z" fill="white"/>
</g>
<path d="M232.598 116.726V89.6294H231.843V116.726C231.541 116.869 231.33 117.174 231.33 117.53C231.33 118.021 231.729 118.42 232.22 118.42C232.712 118.42 233.11 118.021 233.11 117.53C233.11 117.174 232.9 116.869 232.598 116.726Z" fill="#30BABA"/>
<path d="M242.742 94.2413H221.697C220.794 94.2413 220.062 93.5095 220.062 92.6063V86.6535C220.062 85.7504 220.794 85.0186 221.697 85.0186H242.742C243.645 85.0186 244.377 85.7504 244.377 86.6535V92.6063C244.377 93.5088 243.645 94.2413 242.742 94.2413Z" fill="#30BABA"/>
<g opacity="0.4">
<path d="M232.598 116.726V89.6294H231.843V116.726C231.541 116.869 231.33 117.174 231.33 117.53C231.33 118.021 231.729 118.42 232.22 118.42C232.712 118.42 233.11 118.021 233.11 117.53C233.11 117.174 232.9 116.869 232.598 116.726Z" fill="white"/>
<path d="M242.742 94.2413H221.697C220.794 94.2413 220.062 93.5095 220.062 92.6063V86.6535C220.062 85.7504 220.794 85.0186 221.697 85.0186H242.742C243.645 85.0186 244.377 85.7504 244.377 86.6535V92.6063C244.377 93.5088 243.645 94.2413 242.742 94.2413Z" fill="white"/>
</g>
<path d="M282.938 182.924H157.916C157.916 181.604 158.986 180.534 160.307 180.534H280.548C281.868 180.534 282.938 181.604 282.938 182.924Z" fill="#30BABA"/>
<path opacity="0.4" d="M282.938 182.924H157.916C157.916 181.604 158.986 180.534 160.307 180.534H280.548C281.868 180.534 282.938 181.604 282.938 182.924Z" fill="white"/>
<path d="M352.681 180.835L355.376 187.911C355.376 187.911 358.457 189.652 358.695 190.145C358.932 190.638 359.609 196.666 359.125 197.305C358.641 197.945 352.353 196.278 352.339 195.623C352.324 194.968 352.033 189.579 352.033 189.579L348.416 181.845L352.681 180.835Z" fill="#E4897B"/>
<path d="M339.656 124.978C344.34 127.782 344.84 153.271 345.59 155.653C346.341 158.035 355.605 184.288 355.605 184.288L349.09 186.787C349.09 186.787 339.835 167.293 337.839 161.776C335.844 156.258 334.5 143.759 334.5 143.759L339.656 124.978Z" fill="#30BABA"/>
<path opacity="0.2" d="M339.656 124.978C344.34 127.782 344.84 153.271 345.59 155.653C346.341 158.035 355.605 184.288 355.605 184.288L349.09 186.787C349.09 186.787 339.835 167.293 337.839 161.776C335.844 156.258 334.5 143.759 334.5 143.759L339.656 124.978Z" fill="black"/>
<path d="M333.286 121.656C326.234 117.781 317.119 118.593 317.119 118.593L308.992 130.084L297.523 171.097L299.211 172.629L299.929 169.378L331.12 172.535L331.645 176.785L333.437 175.906L334.5 125.489L333.286 121.656Z" fill="#30BABA"/>
<path opacity="0.4" d="M333.286 121.656C326.234 117.781 317.119 118.593 317.119 118.593L308.992 130.084L297.523 171.097L299.211 172.629L299.929 169.378L331.12 172.535L331.645 176.785L333.437 175.906L334.5 125.489L333.286 121.656Z" fill="black"/>
<path d="M289.077 91.7614L286.827 84.1394C286.827 84.1394 287.362 80.6596 287.229 79.2718C287.095 77.8839 283.828 75.2219 282.829 74.2865C281.845 73.3657 277.568 76.3835 277.771 77.044C277.974 77.7044 280.446 82.847 281.231 83.4449L282.497 84.1571L284.45 93.7648L289.077 91.7614Z" fill="#E4897B"/>
<path d="M310.861 119.221C303.71 115.555 298.253 109.892 296.253 106.578C294.252 103.264 288.348 85.9463 288.348 85.9463L282.125 86.8937C282.125 86.8937 285.875 108.171 287.875 112.83C289.875 117.489 308.27 134.272 308.27 134.272L310.861 119.221Z" fill="#30BABA"/>
<path opacity="0.2" d="M310.861 119.221C303.71 115.555 298.253 109.892 296.253 106.578C294.252 103.264 288.348 85.9463 288.348 85.9463L282.125 86.8937C282.125 86.8937 285.875 108.171 287.875 112.83C289.875 117.489 308.27 134.272 308.27 134.272L310.861 119.221Z" fill="black"/>
<path d="M306.21 279.136L301.083 279.678L300.121 268.62L305.248 268.078L306.21 279.136Z" fill="#E4897B"/>
<path d="M331.794 278.763H326.827L326.416 267.254H331.39L331.794 278.763Z" fill="#E4897B"/>
<path d="M326.137 278.187H332.173C332.376 278.189 332.552 278.33 332.596 278.529L333.576 282.953C333.66 283.349 333.407 283.738 333.01 283.822C332.957 283.833 332.904 283.838 332.849 283.838C330.896 283.806 329.474 283.686 327.022 283.686C325.512 283.686 320.955 283.844 318.869 283.844C316.784 283.844 316.512 281.784 317.365 281.594C321.195 280.76 324.077 279.603 325.303 278.503C325.53 278.295 325.829 278.182 326.137 278.187Z" fill="#263238"/>
<path d="M324.495 279.06C324.157 279.087 323.82 278.998 323.54 278.807C323.354 278.653 323.26 278.414 323.294 278.175C323.29 278.035 323.37 277.906 323.496 277.846C324.046 277.562 325.651 278.548 325.828 278.661C325.87 278.683 325.893 278.729 325.885 278.775C325.879 278.824 325.844 278.864 325.797 278.876C325.371 278.986 324.934 279.047 324.495 279.06ZM323.755 278.029C323.703 278.025 323.65 278.036 323.603 278.061C323.572 278.061 323.534 278.105 323.528 278.2C323.507 278.359 323.567 278.517 323.686 278.624C324.243 278.876 324.876 278.908 325.455 278.712C324.937 278.378 324.36 278.146 323.755 278.029Z" fill="#30BABA"/>
<path d="M325.764 278.883H325.707C325.195 278.604 324.203 277.511 324.304 276.987C324.34 276.806 324.499 276.676 324.683 276.677C324.864 276.653 325.046 276.708 325.183 276.829C325.758 277.296 325.878 278.725 325.884 278.794C325.885 278.837 325.863 278.878 325.827 278.902C325.804 278.902 325.782 278.895 325.764 278.883ZM324.765 276.866H324.709C324.557 276.866 324.544 276.955 324.538 276.987C324.475 277.309 325.107 278.137 325.619 278.522C325.585 277.956 325.38 277.414 325.031 276.968C324.958 276.903 324.863 276.867 324.765 276.866Z" fill="#30BABA"/>
<path d="M300.542 278.03H306.577C306.781 278.031 306.956 278.172 307.001 278.371L307.98 282.795C308.064 283.191 307.811 283.58 307.415 283.664C307.362 283.675 307.308 283.68 307.253 283.68C305.301 283.648 303.879 283.528 301.426 283.528C299.916 283.528 295.359 283.686 293.274 283.686C291.188 283.686 290.916 281.626 291.769 281.436C295.599 280.602 298.481 279.445 299.707 278.346C299.934 278.137 300.233 278.024 300.542 278.03Z" fill="#263238"/>
<path d="M298.899 278.902C298.561 278.929 298.225 278.84 297.945 278.649C297.758 278.495 297.665 278.256 297.698 278.017C297.694 277.877 297.774 277.748 297.9 277.688C298.45 277.404 300.055 278.39 300.232 278.504C300.274 278.525 300.298 278.571 300.289 278.617C300.283 278.666 300.248 278.706 300.201 278.718C299.775 278.828 299.338 278.889 298.899 278.902ZM298.159 277.872C298.107 277.867 298.054 277.878 298.008 277.903C297.976 277.903 297.938 277.947 297.932 278.042C297.912 278.201 297.971 278.359 298.09 278.466C298.647 278.718 299.28 278.75 299.86 278.554C299.341 278.22 298.764 277.988 298.159 277.872Z" fill="#30BABA"/>
<path d="M300.168 278.725H300.111C299.599 278.447 298.607 277.353 298.708 276.829C298.744 276.648 298.904 276.518 299.088 276.519C299.268 276.495 299.45 276.551 299.587 276.671C300.162 277.138 300.282 278.567 300.288 278.636C300.289 278.679 300.267 278.72 300.231 278.744C300.209 278.744 300.187 278.737 300.168 278.725ZM299.17 276.709H299.113C298.961 276.709 298.949 276.797 298.942 276.829C298.879 277.151 299.511 277.979 300.023 278.364C299.989 277.798 299.785 277.256 299.435 276.81C299.362 276.745 299.268 276.709 299.17 276.709Z" fill="#30BABA"/>
<path opacity="0.2" d="M305.248 268.078L300.121 268.62L300.622 274.323L305.748 273.782L305.248 268.078Z" fill="black"/>
<path opacity="0.2" d="M331.39 267.26H326.416L326.631 273.195H331.605L331.39 267.26Z" fill="black"/>
<path d="M329.338 166.306H302.969C300.462 179.997 292.613 228.447 298.244 271.615L307.171 270.509C307.171 270.509 306.344 213.201 314.227 192.014C315.133 203.353 316.209 215.417 317.144 221.836C319.438 237.636 324.349 272.166 324.349 272.166H333.437C333.437 272.166 331.579 239.115 330.719 223.586C329.781 206.728 329.375 169.768 329.338 166.306Z" fill="#263238"/>
<path opacity="0.2" d="M314.224 192.016C313.061 195.138 312.094 199.038 311.279 203.424C310.541 193.334 313.491 182.633 313.491 182.633L314.224 192.016Z" fill="black"/>
<path d="M297.224 273.695L308.273 272.051L307.935 268.991L296.441 270.5L297.224 273.695Z" fill="#30BABA"/>
<path opacity="0.6" d="M297.224 273.695L308.273 272.051L307.935 268.991L296.441 270.5L297.224 273.695Z" fill="white"/>
<path d="M323.256 272.24H333.975V269.036L322.852 268.828L323.256 272.24Z" fill="#30BABA"/>
<path opacity="0.6" d="M323.256 272.24H333.975V269.036L322.852 268.828L323.256 272.24Z" fill="white"/>
<path d="M302.747 166.622H329.291V169.782L302.408 169.456L302.747 166.622Z" fill="#263238"/>
<path opacity="0.2" d="M302.747 166.622H329.291V169.782L302.408 169.456L302.747 166.622Z" fill="white"/>
<path d="M320.759 165.2H319.811V170.809H320.759V165.2Z" fill="#263238"/>
<path d="M307.329 165.2H306.381V170.809H307.329V165.2Z" fill="#263238"/>
<path d="M310.86 119.221C310.86 119.221 327.612 120.39 339.656 124.978C339.656 124.978 330.942 151.922 329.31 167.639L302.746 166.623C302.746 166.623 304.634 134.909 310.86 119.221Z" fill="#30BABA"/>
<path opacity="0.7" d="M339.655 124.978C339.655 124.978 337.918 130.348 335.848 137.69C335.082 140.419 334.265 143.423 333.475 146.524C331.64 153.767 329.938 161.547 329.307 167.639L302.746 166.623C302.746 166.623 304.637 134.908 310.861 119.221C310.861 119.221 327.613 120.39 339.655 124.978Z" fill="white"/>
<path d="M330.39 122.109C327.729 124.011 321.934 122.513 321.934 122.513C321.934 122.513 318.376 121.076 319.283 120.017C321.49 119.913 322.657 119.025 323.242 117.783C323.581 117.059 323.718 116.216 323.751 115.336C323.773 114.874 323.759 114.401 323.731 113.933L331.644 109.396C330.273 112.843 328.338 119.253 330.39 122.109Z" fill="#E4897B"/>
<path opacity="0.2" d="M329.562 112.625C328.761 116.96 325.029 117.745 323.242 117.783C323.582 117.06 323.719 116.217 323.752 115.336L329.562 112.625Z" fill="black"/>
<path d="M325.469 95.3936C325.469 95.3936 320.911 100.608 322.561 104.782C324.21 108.956 331.059 98.2072 331.059 98.2072L325.469 95.3936Z" fill="#263238"/>
<path d="M328.534 115.041C325.685 116.231 322.904 115.245 321.223 113.237C320.141 111.948 319.517 110.232 319.62 108.401C319.631 108.161 319.66 107.917 319.696 107.67C320.436 103.18 323.89 96.7031 329.095 96.7676C332.806 96.7872 335.808 99.8163 335.784 103.534C335.785 104.591 335.526 105.633 335.044 106.577C332.874 110.994 331.806 113.693 328.534 115.041Z" fill="#E4897B"/>
<path d="M327.627 104.949C327.499 105.326 327.154 105.535 326.908 105.432C326.663 105.328 326.6 104.946 326.752 104.577C326.905 104.209 327.232 103.993 327.471 104.094C327.71 104.196 327.782 104.574 327.627 104.949Z" fill="#263238"/>
<path d="M323.451 103.192C323.323 103.568 322.972 103.776 322.733 103.674C322.494 103.573 322.424 103.188 322.577 102.82C322.729 102.452 323.056 102.235 323.295 102.337C323.534 102.439 323.597 102.841 323.451 103.192Z" fill="#263238"/>
<path d="M324.701 103.932C323.786 104.876 322.745 105.69 321.607 106.349C321.966 106.932 322.566 107.327 323.243 107.427L324.701 103.932Z" fill="#DE5753"/>
<path d="M329.49 104.142C329.406 104.12 329.339 104.053 329.316 103.969C329.182 103.385 328.781 102.9 328.233 102.658C328.111 102.617 328.045 102.485 328.087 102.362C328.128 102.24 328.261 102.174 328.383 102.215L328.384 102.216C329.084 102.504 329.601 103.113 329.77 103.85C329.806 103.974 329.734 104.103 329.61 104.139C329.608 104.14 329.606 104.14 329.604 104.14C329.567 104.147 329.528 104.147 329.49 104.142Z" fill="#263238"/>
<path d="M323.039 109.593C324.043 110.206 325.284 110.292 326.363 109.822C326.424 109.79 326.448 109.716 326.417 109.655C326.389 109.595 326.318 109.568 326.258 109.596C326.255 109.597 326.252 109.598 326.25 109.6C325.243 110.015 324.1 109.93 323.164 109.373C323.109 109.337 323.034 109.353 322.998 109.409C322.996 109.413 322.994 109.416 322.992 109.42C322.956 109.476 322.972 109.55 323.028 109.586C323.031 109.588 323.035 109.591 323.039 109.593Z" fill="#263238"/>
<path d="M322.262 100.998C322.215 100.997 322.169 100.981 322.131 100.953C322.044 100.857 322.051 100.709 322.147 100.622C322.149 100.621 322.15 100.62 322.151 100.619C322.71 100.105 323.484 99.896 324.225 100.057C324.35 100.092 324.423 100.221 324.387 100.345C324.349 100.468 324.222 100.54 324.098 100.508C323.509 100.398 322.903 100.573 322.462 100.979C322.401 101.014 322.329 101.021 322.262 100.998Z" fill="#263238"/>
<path d="M334.098 99.5181L332.924 101.361C333.402 102.01 333.443 102.919 332.778 103.548C331.359 104.893 331.073 107.892 331.85 109.514C331.85 109.514 332.23 108.819 332.751 109.276C333.272 109.733 331.331 113.367 329.311 114.578C329.311 114.578 331.852 113.824 334.718 110.405C337.369 107.242 338.92 104.293 338.846 102.543L334.098 99.5181Z" fill="#263238"/>
<path d="M335.462 111.129C334.528 111.944 333.308 112.355 332.07 112.271C330.433 112.149 330.171 110.548 331.089 109.29C331.915 108.18 333.772 106.862 335.189 107.621C336.605 108.381 336.597 110.115 335.462 111.129Z" fill="#E4897B"/>
<path d="M331.06 99.0844C331.06 99.0844 331.85 98.3532 331.907 100.003C331.965 101.654 332.965 102.771 335.215 103.931C337.465 105.092 338.177 105.171 338.177 105.171C338.177 105.171 341.841 101.716 338.012 97.7768C338.012 97.7768 338.194 95.7456 335.785 94.4241C331.646 92.1533 325.965 93.0906 323.964 95.3936C322.465 97.1196 323.242 98.8361 323.242 98.8361C323.242 98.8361 329.779 95.3936 331.06 99.0844Z" fill="#263238"/>
<path d="M329.642 119.211L322.314 121.533L322.201 118.97L319.536 119.569C318.58 119.785 317.896 120.629 317.884 121.609L317.849 124.404L320.759 123.228C320.759 123.228 316.421 133.419 315.85 147.867C315.85 147.867 317.504 132.283 322.004 123.616L323.074 125.58L331.906 122.534L329.642 119.211Z" fill="#30BABA"/>
<path opacity="0.6" d="M329.642 119.211L322.314 121.533L322.201 118.97L319.536 119.569C318.58 119.785 317.896 120.629 317.884 121.609L317.849 124.404L320.759 123.228C320.759 123.228 316.421 133.419 315.85 147.867C315.85 147.867 317.504 132.283 322.004 123.616L323.074 125.58L331.906 122.534L329.642 119.211Z" fill="white"/>
<path d="M314.845 166.069H309.936V169.607H314.845V166.069Z" fill="#30BABA"/>
<path opacity="0.4" d="M314.845 166.069H309.936V169.607H314.845V166.069Z" fill="white"/>
<path d="M315.849 119.717C315.849 119.717 302.752 154.33 299.752 170.85L297.752 169.783C297.752 169.783 305.303 131.912 310.862 119.221L315.849 119.717Z" fill="#30BABA"/>
<path d="M334.077 123.175C334.077 123.175 328.53 151.033 331.059 173.869L334.077 173.202C334.077 173.202 337.721 136.757 339.655 124.977L334.077 123.175Z" fill="#30BABA"/>
<path d="M314.205 124.157L314.716 119.604L317.12 118.593C317.12 118.593 317.453 121.906 314.205 124.157Z" fill="#30BABA"/>
<path opacity="0.2" d="M314.205 124.157L314.716 119.604L317.12 118.593C317.12 118.593 317.453 121.906 314.205 124.157Z" fill="black"/>
<path d="M333.287 127.658C333.287 127.658 332.047 124.969 333.287 121.656L335.531 123.645L333.287 127.658Z" fill="#30BABA"/>
<path opacity="0.2" d="M333.287 127.658C333.287 127.658 332.047 124.969 333.287 121.656L335.531 123.645L333.287 127.658Z" fill="black"/>
<path d="M345.284 209.904L341.973 195.079C341.883 194.674 342.138 194.274 342.542 194.183L365.032 189.161C365.436 189.07 365.837 189.325 365.927 189.73L369.238 204.554C369.329 204.958 369.074 205.359 368.67 205.449L346.18 210.472C345.776 210.562 345.375 210.308 345.284 209.904Z" fill="#263238"/>
<path opacity="0.2" d="M345.284 209.904L341.973 195.079C341.883 194.674 342.138 194.274 342.542 194.183L365.032 189.161C365.436 189.07 365.837 189.325 365.927 189.73L369.238 204.554C369.329 204.958 369.074 205.359 368.67 205.449L346.18 210.472C345.776 210.562 345.375 210.308 345.284 209.904Z" fill="white"/>
<path d="M358.926 216.373L349.592 207.789C350.842 194.65 364.224 190.443 364.224 190.443L367.393 204.634C367.393 204.634 356.509 205.622 358.926 216.373Z" fill="#30BABA"/>
<path opacity="0.7" d="M358.926 216.373L349.592 207.789C350.842 194.65 364.224 190.443 364.224 190.443L367.393 204.634C367.393 204.634 356.509 205.622 358.926 216.373Z" fill="white"/>
<path d="M364.881 200.374L363.762 195.365C363.664 194.927 363.941 194.492 364.379 194.394L365.763 194.085C366.201 193.987 366.637 194.263 366.735 194.701L367.854 199.711C367.952 200.149 367.675 200.584 367.237 200.682L365.853 200.991C365.414 201.089 364.978 200.812 364.881 200.374ZM366.164 194.829C366.137 194.706 366.014 194.628 365.891 194.655L364.506 194.964C364.384 194.992 364.305 195.114 364.333 195.237L365.452 200.246C365.479 200.369 365.602 200.446 365.725 200.419L367.11 200.11C367.232 200.083 367.311 199.96 367.283 199.838L366.164 194.829Z" fill="#30BABA"/>
<g opacity="0.4">
<path d="M364.881 200.374L363.762 195.365C363.664 194.927 363.941 194.492 364.379 194.394L365.763 194.085C366.201 193.987 366.637 194.263 366.735 194.701L367.854 199.711C367.952 200.149 367.675 200.584 367.237 200.682L365.853 200.991C365.414 201.089 364.978 200.812 364.881 200.374ZM366.164 194.829C366.137 194.706 366.014 194.628 365.891 194.655L364.506 194.964C364.384 194.992 364.305 195.114 364.333 195.237L365.452 200.246C365.479 200.369 365.602 200.446 365.725 200.419L367.11 200.11C367.232 200.083 367.311 199.96 367.283 199.838L366.164 194.829Z" fill="white"/>
</g>
</g>
<defs>
<clipPath id="clip0_1516_1130">
<rect width="316" height="316" fill="white" transform="translate(79.1152 20.9316)"/>
</clipPath>
</defs>
</svg>
