<svg width="49" height="47" viewBox="0 0 49 47" fill="none" xmlns="http://www.w3.org/2000/svg">
<g clip-path="url(#clip0_860_3643)">
<path d="M36.1629 17.7405L34.6257 15.1335C34.2243 14.4528 33.3623 14.1658 32.6202 14.4656L30.4051 15.3613C29.4954 14.6114 28.4735 14.0329 27.3602 13.6375L27.0451 11.3139C26.9394 10.5348 26.2544 9.94727 25.4518 9.94727H22.3774C21.5747 9.94727 20.8897 10.5348 20.784 11.3139L20.4689 13.6375C19.3556 14.0329 18.3337 14.6114 17.424 15.3613L15.2089 14.4656C14.4668 14.1656 13.6048 14.4527 13.2034 15.1335L11.6662 17.7405C11.2649 18.4211 11.4421 19.2958 12.0783 19.775L13.9765 21.2045C13.8748 21.7711 13.8234 22.349 13.8234 22.9268C13.8234 23.5044 13.8748 24.0824 13.9765 24.649L12.0783 26.0785C11.4421 26.5577 11.2649 27.4323 11.6662 28.1129L13.2034 30.72C13.6048 31.4007 14.467 31.6878 15.2088 31.3878L17.424 30.4922C18.3338 31.2421 19.3557 31.8206 20.4689 32.2159L20.784 34.5395C20.8897 35.3186 21.5747 35.9062 22.3774 35.9062H25.4518C26.2544 35.9062 26.9394 35.3186 27.0451 34.5395L27.3602 32.2159C28.4734 31.8206 29.4953 31.2421 30.4051 30.4922L32.6202 31.3878C33.3621 31.6876 34.2243 31.4006 34.6257 30.72L36.1629 28.1129C36.5642 27.4323 36.3871 26.5577 35.7508 26.0785L33.8526 24.649C33.9543 24.0824 34.0057 23.5044 34.0057 22.9268C34.0057 22.349 33.9543 21.7711 33.8526 21.2045L35.7508 19.775C36.3871 19.2958 36.5642 18.4211 36.1629 17.7405ZM35.1648 19.0288L33.0319 20.6351C32.8859 20.745 32.8169 20.927 32.8542 21.1036C32.9804 21.7001 33.0444 22.3135 33.0444 22.9268C33.0444 23.54 32.9804 24.1533 32.8542 24.7498C32.8169 24.9264 32.8859 25.1084 33.0319 25.2183L35.1647 26.8246C35.4205 27.0172 35.4917 27.3687 35.3303 27.6423L33.7931 30.2494C33.6318 30.5229 33.2852 30.6381 32.9871 30.5177L30.4978 29.5113C30.3273 29.4425 30.1316 29.4751 29.9941 29.5954C29.051 30.4203 27.9671 31.0339 26.7724 31.4191C26.5973 31.4756 26.4706 31.6252 26.4463 31.8041L26.0922 34.4156C26.0497 34.7287 25.7744 34.9649 25.4518 34.9649H22.3774C22.0548 34.9649 21.7795 34.7287 21.737 34.4156L21.3828 31.8041C21.3585 31.6252 21.2318 31.4756 21.0567 31.4191C19.862 31.0339 18.7781 30.4203 17.835 29.5954C17.7453 29.5169 17.6308 29.4757 17.5147 29.4757C17.4529 29.4757 17.3906 29.4874 17.3313 29.5113L14.842 30.5177C14.5438 30.6382 14.1972 30.5229 14.036 30.2494L12.4988 27.6423C12.3375 27.3687 12.4087 27.0172 12.6644 26.8246L14.7972 25.2183C14.9433 25.1084 15.0123 24.9264 14.9749 24.7498C14.8487 24.1533 14.7847 23.54 14.7847 22.9268C14.7847 22.3135 14.8487 21.7001 14.9749 21.1036C15.0123 20.927 14.9433 20.745 14.7972 20.6351L12.6644 19.0288C12.4087 18.8362 12.3375 18.4847 12.4988 18.2112L14.036 15.6041C14.1973 15.3306 14.5437 15.2152 14.842 15.3357L17.3313 16.3422C17.5018 16.411 17.6975 16.3784 17.835 16.2581C18.778 15.4332 19.8619 14.8196 21.0567 14.4343C21.2318 14.3779 21.3585 14.2283 21.3828 14.0493L21.737 11.4378C21.7795 11.1247 22.0548 10.8886 22.3774 10.8886H25.4518C25.7744 10.8886 26.0497 11.1247 26.0922 11.4378L26.4463 14.0493C26.4706 14.2283 26.5973 14.3779 26.7724 14.4343C27.9672 14.8196 29.0511 15.4332 29.9941 16.2581C30.1316 16.3784 30.3273 16.411 30.4978 16.3422L32.9871 15.3357C33.2852 15.2152 33.6318 15.3306 33.7931 15.6041L35.3303 18.2112C35.4917 18.4847 35.4205 18.8362 35.1648 19.0288Z" fill="#0052B3" stroke="#0052B3"/>
<mask id="path-2-inside-1_860_3643" fill="white">
<path d="M23.9154 18.0242C21.1544 18.0242 18.9082 20.2236 18.9082 22.927C18.9082 25.6305 21.1544 27.8298 23.9154 27.8298C26.6763 27.8298 28.9225 25.6304 28.9225 22.927C28.9225 20.2236 26.6763 18.0242 23.9154 18.0242ZM23.9154 26.8885C21.6845 26.8885 19.8695 25.1114 19.8695 22.927C19.8695 20.7426 21.6845 18.9655 23.9154 18.9655C26.1463 18.9655 27.9612 20.7426 27.9612 22.927C27.9612 25.1114 26.1463 26.8885 23.9154 26.8885Z"/>
</mask>
<path d="M23.9154 18.0242C21.1544 18.0242 18.9082 20.2236 18.9082 22.927C18.9082 25.6305 21.1544 27.8298 23.9154 27.8298C26.6763 27.8298 28.9225 25.6304 28.9225 22.927C28.9225 20.2236 26.6763 18.0242 23.9154 18.0242ZM23.9154 26.8885C21.6845 26.8885 19.8695 25.1114 19.8695 22.927C19.8695 20.7426 21.6845 18.9655 23.9154 18.9655C26.1463 18.9655 27.9612 20.7426 27.9612 22.927C27.9612 25.1114 26.1463 26.8885 23.9154 26.8885Z" fill="#0052B3"/>
<path d="M23.9154 17.0242C20.6221 17.0242 17.9082 19.6515 17.9082 22.927H19.9082C19.9082 20.7956 21.6867 19.0242 23.9154 19.0242V17.0242ZM17.9082 22.927C17.9082 26.2025 20.6221 28.8298 23.9154 28.8298V26.8298C21.6867 26.8298 19.9082 25.0584 19.9082 22.927H17.9082ZM23.9154 28.8298C27.2087 28.8298 29.9225 26.2025 29.9225 22.927H27.9225C27.9225 25.0584 26.144 26.8298 23.9154 26.8298V28.8298ZM29.9225 22.927C29.9225 19.6516 27.2087 17.0242 23.9154 17.0242V19.0242C26.144 19.0242 27.9225 20.7956 27.9225 22.927H29.9225ZM23.9154 25.8885C22.2168 25.8885 20.8695 24.5394 20.8695 22.927H18.8695C18.8695 25.6834 21.1521 27.8885 23.9154 27.8885V25.8885ZM20.8695 22.927C20.8695 21.3147 22.2168 19.9655 23.9154 19.9655V17.9655C21.1521 17.9655 18.8695 20.1706 18.8695 22.927H20.8695ZM23.9154 19.9655C25.6139 19.9655 26.9612 21.3146 26.9612 22.927H28.9612C28.9612 20.1706 26.6786 17.9655 23.9154 17.9655V19.9655ZM26.9612 22.927C26.9612 24.5394 25.614 25.8885 23.9154 25.8885V27.8885C26.6786 27.8885 28.9612 25.6835 28.9612 22.927H26.9612Z" fill="#0052B3" mask="url(#path-2-inside-1_860_3643)"/>
<path d="M42.7321 36.5695C45.6183 32.7599 47.3265 28.044 47.3286 22.9364C47.3339 10.2506 36.933 0.0336664 23.9774 8.2455e-05C18.9662 -0.0129314 14.3209 1.51517 10.5074 4.12824C9.97314 4.49435 9.90366 5.24298 10.3648 5.69448L10.9631 6.28038C11.3196 6.62938 11.8796 6.68019 12.2946 6.39995C15.5641 4.19158 19.5212 2.88956 23.7875 2.8643C35.038 2.7977 44.3022 11.7273 44.4029 22.7432C44.4431 27.1373 43.0396 31.2079 40.6298 34.53L39.9221 33.8434C39.6118 33.5424 39.0838 33.7336 39.0481 34.1599L38.7179 38.1072C38.6919 38.4187 38.959 38.6779 39.2769 38.6495L43.305 38.2896C43.74 38.2508 43.9303 37.732 43.62 37.431L42.7321 36.5695Z" fill="#0052B3"/>
<path d="M36.8655 39.5732C36.509 39.2242 35.949 39.1734 35.534 39.4536C32.2644 41.662 28.3072 42.964 24.0409 42.9892C12.7902 43.0557 3.5262 34.1259 3.42571 23.1099C3.38563 18.716 4.78906 14.6455 7.19879 11.3235L7.90651 12.0101C8.2168 12.3111 8.74485 12.1199 8.78051 11.6937L9.11068 7.7463C9.13673 7.43481 8.86959 7.17565 8.55173 7.20403L4.52361 7.5639C4.08862 7.60275 3.89828 8.12156 4.20857 8.42258L5.09654 9.28404C2.2103 13.0937 0.502128 17.8095 0.500002 22.9172C0.494732 35.6029 10.8957 45.8199 23.8513 45.8535C28.8625 45.8665 33.5077 44.3383 37.3212 41.7253C37.8555 41.3592 37.9249 40.6105 37.4638 40.1591L36.8655 39.5732Z" fill="#0052B3"/>
</g>
<defs>
<clipPath id="clip0_860_3643">
<rect width="48" height="47" fill="white" transform="translate(0.5)"/>
</clipPath>
</defs>
</svg>
