<svg  height="50" viewBox="0 0 35 40" fill="none" xmlns="http://www.w3.org/2000/svg">
<path d="M3.61792 40H31.2727C33.2551 40 34.8906 38.6041 34.8906 36.8157V19.3675C34.8906 17.6227 33.3047 16.1832 31.2727 16.1832H31.1736V11.9956C31.1736 5.36532 25.0776 0 17.5444 0C10.0112 0 3.91528 5.36532 3.91528 11.9956V16.1832H3.61792C1.6355 16.1832 0 17.5791 0 19.3675V36.8157C0 38.5605 1.6355 40 3.61792 40ZM19.5764 28.8768C19.2791 29.0513 19.2295 29.2257 19.2295 29.5311C19.2295 30.7961 19.2295 32.1047 19.2295 33.3697C19.2791 33.8931 18.9321 34.4166 18.4365 34.6783C17.148 35.2454 15.9089 34.4602 15.9089 33.3697C15.9089 32.1047 15.9089 30.7961 15.9089 29.5311C15.9089 29.2694 15.8594 29.0949 15.562 28.9204C14.2239 28.048 13.8274 26.6085 14.4717 25.3435C15.116 24.0785 16.6523 23.3806 18.1392 23.6423C19.7747 23.9477 20.9146 25.0818 20.9146 26.5213C20.9641 27.4809 20.4685 28.3097 19.5764 28.8768ZM9.91211 12.0393C9.91211 8.33152 13.3318 5.27808 17.594 5.27808C21.8562 5.27808 25.2759 8.2879 25.2759 12.0393V16.2268H9.91211V12.0393Z" fill="#0D99FF"/>
</svg>
