<svg width="40" height="40" viewBox="0 0 40 40" fill="none" xmlns="http://www.w3.org/2000/svg">
<path d="M12.7273 0C13.4818 0.0218182 14.1964 0.514546 14.4436 1.21818C14.8036 2.24727 14.06 3.43636 13.0327 3.61091C12.9418 3.62545 12.92 3.62545 12.8291 3.63273L12.7273 3.63636H6.20727L20 17.4291L33.7927 3.63636H27.2727L27.1709 3.63273C27.08 3.62545 27.0582 3.62545 26.9673 3.61091C25.94 3.43636 25.1964 2.24727 25.5564 1.21818C25.8036 0.512727 26.5182 0.0218182 27.2727 0H38.1818C38.2164 0.00181818 38.2491 0.00181792 38.2836 0.0036361C38.3745 0.0109088 38.3964 0.010909 38.4873 0.0254544C39.2545 0.156364 39.9 0.823636 39.9891 1.61455C39.9982 1.70545 39.9982 1.72727 40 1.81818V12.7273C39.9782 13.5236 39.4309 14.26 38.6855 14.4745C37.6782 14.7636 36.4964 14.0036 36.3745 12.9309C36.3655 12.84 36.3655 12.8182 36.3636 12.7273V6.20727L22.5709 20L36.3636 33.7927V27.2727C36.3655 27.1818 36.3655 27.16 36.3745 27.0691C36.4636 26.2782 37.1091 25.6109 37.8764 25.48C37.9673 25.4655 37.9891 25.4655 38.08 25.4582C38.1418 25.4564 38.1891 25.4436 38.3855 25.4655C39.2091 25.5582 39.8982 26.26 39.9891 27.0691C39.9982 27.16 39.9982 27.1818 40 27.2727V38.1818C39.9982 38.2727 39.9982 38.2945 39.9891 38.3855C39.8964 39.2091 39.1945 39.8982 38.3855 39.9891C38.2945 39.9982 38.2727 39.9982 38.1818 40H27.2727C27.1818 39.9982 27.16 39.9982 27.0691 39.9891C26.4255 39.9164 25.84 39.4727 25.5927 38.8782C25.1309 37.7636 26.0091 36.4636 27.1709 36.3673L27.2727 36.3636H33.7927L20 22.5709L6.20727 36.3636H12.7273L12.8291 36.3673C13.9909 36.4636 14.8691 37.7636 14.4073 38.8782C14.16 39.4727 13.5745 39.9164 12.9309 39.9891C12.84 39.9982 12.8182 39.9982 12.7273 40H1.81818C1.72727 39.9982 1.70545 39.9982 1.61455 39.9891C0.805455 39.8982 0.103636 39.2091 0.0109092 38.3855C0.00181826 38.2945 0.00181818 38.2727 0 38.1818V27.2727C0.00181818 27.1818 0.00181826 27.16 0.0109092 27.0691C0.101818 26.26 0.790909 25.5582 1.61455 25.4655C1.81091 25.4436 1.85818 25.4564 1.92 25.4582C2.01091 25.4655 2.03273 25.4655 2.12364 25.48C2.89091 25.6109 3.53636 26.2782 3.62545 27.0691C3.63455 27.16 3.63455 27.1818 3.63636 27.2727V33.7927L17.4291 20L3.63636 6.20727V12.7273C3.63455 12.8182 3.63455 12.84 3.62545 12.9309C3.50364 14.0036 2.32182 14.7636 1.31455 14.4745C0.569091 14.26 0.0218182 13.5236 0 12.7273V1.81818C0.00181818 1.72727 0.00181826 1.70545 0.0109092 1.61455C0.1 0.823636 0.745454 0.156364 1.51273 0.0254544C1.60364 0.010909 1.62545 0.0109088 1.71636 0.0036361L1.81818 0H12.7273Z" fill="#FFA629"/>
</svg>
