<svg width="691" height="500" viewBox="0 0 691 500" fill="none" xmlns="http://www.w3.org/2000/svg">
<g clip-path="url(#clip0_860_7797)">
<path d="M242.533 4.04435C242.533 4.04435 325.712 -6.53565 391.943 53.7144C458.173 113.964 477.433 209.054 495.083 285.714C512.733 362.374 478.393 428.914 413.513 448.504C348.633 468.094 319.673 411.964 239.043 391.964C158.413 371.964 134.043 378.754 76.7425 318.204C19.4425 257.654 30.9425 146.734 101.533 78.2544C172.122 9.77435 242.533 4.04435 242.533 4.04435Z" fill="#263238" fill-opacity="0.3"/>
<path opacity="0.75" d="M242.533 4.04435C242.533 4.04435 325.712 -6.53565 391.943 53.7144C458.173 113.964 477.433 209.054 495.083 285.714C512.733 362.374 478.393 428.914 413.513 448.504C348.633 468.094 319.673 411.964 239.043 391.964C158.413 371.964 134.043 378.754 76.7425 318.204C19.4425 257.654 30.9425 146.734 101.533 78.2544C172.122 9.77435 242.533 4.04435 242.533 4.04435Z" fill="#263238" fill-opacity="0.3"/>
<path d="M467.299 298.897V304.514H509.344V298.897H467.299Z" fill="#E0E0E0"/>
<path d="M473.028 299.13C473.174 299.13 473.292 300.308 473.292 301.761C473.292 303.215 473.174 304.393 473.028 304.393C472.882 304.393 472.764 303.215 472.764 301.761C472.764 300.309 472.882 299.13 473.028 299.13Z" fill="#FAFAFA"/>
<path d="M472.112 299.016C472.258 299.016 472.376 300.194 472.376 301.648C472.376 303.101 472.258 304.28 472.112 304.28C471.966 304.28 471.848 303.102 471.848 301.648C471.847 300.194 471.966 299.016 472.112 299.016Z" fill="#FAFAFA"/>
<path d="M506.094 299.13C506.24 299.13 506.358 300.308 506.358 301.761C506.358 303.215 506.24 304.393 506.094 304.393C505.948 304.393 505.83 303.215 505.83 301.761C505.83 300.309 505.948 299.13 506.094 299.13Z" fill="#FAFAFA"/>
<path d="M505.178 304.28C505.324 304.28 505.442 303.102 505.442 301.648C505.442 300.194 505.324 299.016 505.178 299.016C505.032 299.016 504.914 300.194 504.914 301.648C504.914 303.102 505.032 304.28 505.178 304.28Z" fill="#FAFAFA"/>
<path d="M499.687 301.876C499.687 302.022 494.871 302.14 488.932 302.14C482.991 302.14 478.176 302.022 478.176 301.876C478.176 301.73 482.991 301.612 488.932 301.612C494.871 301.612 499.687 301.73 499.687 301.876Z" fill="#FAFAFA"/>
<path d="M467.117 324.187V335.421H509.162V324.187H467.117Z" fill="#E0E0E0"/>
<path d="M509.701 332.261C509.705 332.269 509.627 332.314 509.472 332.392C509.318 332.472 509.084 332.58 508.772 332.712C508.147 332.967 507.202 333.329 505.922 333.528C504.662 333.708 502.97 333.758 501.296 332.872C500.475 332.433 499.693 331.766 499.099 330.881C498.518 329.998 498.144 328.845 498.334 327.645C498.434 327.048 498.683 326.459 499.106 325.972C499.517 325.484 500.177 325.125 500.88 325.167C501.584 325.198 502.22 325.603 502.662 326.128C503.107 326.655 503.412 327.33 503.476 328.044C503.642 329.468 503.042 330.945 502.026 332.025C501.026 333.144 499.531 333.826 497.985 334C496.43 334.185 494.821 333.938 493.294 333.418C491.768 332.892 490.261 332.036 489.196 330.664C488.674 329.982 488.296 329.136 488.241 328.238C488.163 327.343 488.449 326.382 489.136 325.714C489.478 325.382 489.956 325.158 490.451 325.137C490.947 325.113 491.426 325.275 491.826 325.524C492.637 326.028 493.156 326.889 493.373 327.791C493.768 329.628 493.041 331.542 491.715 332.74C490.385 333.95 488.643 334.487 486.981 334.667C485.308 334.835 483.624 334.71 482.074 334.184C480.53 333.67 479.14 332.654 478.341 331.282C477.528 329.941 477.261 328.244 477.873 326.819C478.161 326.113 478.811 325.487 479.588 325.368C480.346 325.226 481.12 325.436 481.705 325.879C482.892 326.82 483.091 328.435 482.708 329.664C482.319 330.928 481.469 331.896 480.589 332.649C478.792 334.167 476.664 334.823 474.823 334.889C472.963 334.955 471.399 334.442 470.255 333.851C469.102 333.252 468.344 332.571 467.873 332.085C467.641 331.837 467.471 331.642 467.369 331.501C467.264 331.363 467.214 331.289 467.222 331.284C467.275 331.211 468.063 332.51 470.347 333.667C471.481 334.217 473.013 334.685 474.811 334.593C476.591 334.502 478.638 333.839 480.347 332.365C481.187 331.634 481.977 330.7 482.319 329.548C482.663 328.435 482.44 326.993 481.444 326.229C480.958 325.862 480.288 325.69 479.675 325.812C479.051 325.916 478.557 326.39 478.3 327.006C477.77 328.254 478.003 329.8 478.76 331.032C479.503 332.292 480.777 333.222 482.239 333.707C483.7 334.199 485.324 334.318 486.927 334.153C488.518 333.978 490.151 333.46 491.362 332.352C492.558 331.28 493.21 329.519 492.859 327.912C492.668 327.125 492.217 326.389 491.548 325.975C490.892 325.54 490.034 325.553 489.498 326.099C488.955 326.623 488.692 327.437 488.764 328.204C488.812 328.985 489.136 329.73 489.61 330.352C490.574 331.605 492.006 332.438 493.458 332.94C494.927 333.446 496.466 333.684 497.928 333.516C499.388 333.354 500.754 332.737 501.686 331.707C502.634 330.712 503.181 329.363 503.04 328.09C502.938 326.854 501.995 325.65 500.859 325.573C500.299 325.536 499.763 325.811 499.399 326.23C499.029 326.647 498.795 327.176 498.701 327.706C498.518 328.79 498.844 329.859 499.38 330.696C499.928 331.535 500.662 332.182 501.437 332.611C503.006 333.477 504.655 333.47 505.892 333.323C507.153 333.16 508.098 332.834 508.731 332.612C509.365 332.383 509.692 332.241 509.701 332.261Z" fill="#FAFAFA"/>
<path d="M470.871 304.676V324.167H509.161V304.676H470.871Z" fill="#EBEBEB"/>
<path d="M477.233 305.346C477.379 305.346 477.497 309.57 477.497 314.779C477.497 319.99 477.379 324.213 477.233 324.213C477.087 324.213 476.969 319.99 476.969 314.779C476.969 309.57 477.087 305.346 477.233 305.346Z" fill="#E0E0E0"/>
<path d="M480.135 305.104C480.281 305.104 480.4 309.274 480.4 314.416C480.4 319.56 480.282 323.729 480.135 323.729C479.989 323.729 479.871 319.56 479.871 314.416C479.871 309.274 479.99 305.104 480.135 305.104Z" fill="#E0E0E0"/>
<path d="M504.834 304.478C504.98 304.478 505.098 308.869 505.098 314.284C505.098 319.701 504.98 324.091 504.834 324.091C504.688 324.091 504.57 319.701 504.57 314.284C504.569 308.869 504.688 304.478 504.834 304.478Z" fill="#E0E0E0"/>
<path d="M501.422 304.741C501.568 304.741 501.686 309.019 501.686 314.295C501.686 319.573 501.568 323.85 501.422 323.85C501.276 323.85 501.158 319.573 501.158 314.295C501.157 309.019 501.276 304.741 501.422 304.741Z" fill="#E0E0E0"/>
<path d="M501.032 82.7681H242.896V253.994H501.032V82.7681Z" fill="#E0E0E0"/>
<path d="M36.7206 95.2779C36.3336 71.0519 55.6376 51.0259 79.7516 50.6369C103.866 50.2479 123.8 69.6409 124.188 93.8659C124.575 118.092 105.271 138.118 81.1566 138.507C57.0416 138.896 37.1076 119.503 36.7206 95.2779ZM101.365 94.2339C101.18 82.6509 91.6486 73.3779 80.1186 73.5639C68.5886 73.7499 59.3586 83.3249 59.5436 94.9079C59.7286 106.491 69.2596 115.764 80.7896 115.578C92.3196 115.393 101.55 105.817 101.365 94.2339Z" fill="#F5F5F5"/>
<path d="M36.7206 95.278C36.3336 71.052 55.6366 51.026 79.7506 50.637L80.1176 73.565C68.5876 73.751 59.3576 83.327 59.5426 94.91C59.7276 106.493 69.2586 115.765 80.7886 115.579L81.1556 138.507C57.0416 138.896 37.1086 119.504 36.7206 95.278Z" fill="#E0E0E0"/>
<path d="M75.8242 47.111C104.036 46.656 126.542 68.551 126.995 96.893L100.294 97.324C100.077 83.773 89.7662 75.241 76.2772 75.459L75.8242 47.111Z" fill="#407BFF"/>
<path d="M534.576 97.4014H523.25V142.644H534.576V97.4014Z" fill="#E0E0E0"/>
<path d="M551.232 107.27H539.906V142.644H551.232V107.27Z" fill="#E0E0E0"/>
<path d="M568.144 115.35H556.818V142.643H568.144V115.35Z" fill="#E0E0E0"/>
<path d="M583.801 126.435H572.475V142.643H583.801V126.435Z" fill="#E0E0E0"/>
<path d="M601.342 191.152C585.635 176.567 560.918 177.404 546.245 193.017C531.572 208.63 532.414 233.198 548.121 247.783C563.829 262.368 588.545 261.531 603.218 245.918C617.891 230.305 617.05 205.737 601.342 191.152ZM588.352 232.114C581.336 239.579 569.518 239.979 562.008 233.005C554.498 226.032 554.095 214.285 561.111 206.82C568.127 199.355 579.945 198.955 587.455 205.929C594.965 212.902 595.368 224.649 588.352 232.114Z" fill="#F5F5F5"/>
<path d="M546.245 193.017C560.918 177.404 585.634 176.568 601.342 191.152L587.455 205.929C579.945 198.956 568.127 199.356 561.111 206.82C554.095 214.285 554.498 226.032 562.008 233.005L548.121 247.782C532.414 233.198 531.572 208.631 546.245 193.017Z" fill="#EBEBEB"/>
<path d="M599.75 184.82C618.992 202.687 621.295 231.731 603.321 250.857L583.801 233.948C592.395 224.802 594.262 212.593 585.063 204.049L599.75 184.82Z" fill="#407BFF"/>
<path d="M273.121 306.164H169.128C167.344 306.164 165.898 304.718 165.898 302.934V278.284C165.898 276.5 167.344 275.054 169.128 275.054H273.121C274.905 275.054 276.352 276.5 276.352 278.284V302.934C276.351 304.718 274.905 306.164 273.121 306.164Z" fill="#E0E0E0"/>
<path d="M189.179 295.797C186.854 298.71 182.618 299.178 179.718 296.842C176.818 294.506 176.352 290.251 178.678 287.337C181.003 284.424 185.239 283.956 188.139 286.292C191.039 288.628 191.505 292.884 189.179 295.797Z" fill="#F5F5F5"/>
<path d="M187.713 289.272C187.814 289.375 186.193 291.125 184.094 293.182C183.788 293.478 183.493 293.764 183.205 294.043L183.022 294.22L182.848 294.041C181.213 292.36 180.06 291.055 180.147 290.968C180.234 290.881 181.533 292.041 183.207 293.683L182.851 293.681C183.136 293.398 183.428 293.109 183.731 292.809C185.828 290.753 187.612 289.169 187.713 289.272Z" fill="#E0E0E0"/>
<path d="M265.479 288.228C265.479 288.372 250.654 288.488 232.37 288.488C214.08 288.488 199.258 288.371 199.258 288.228C199.258 288.085 214.08 287.968 232.37 287.968C250.654 287.968 265.479 288.085 265.479 288.228Z" fill="#FAFAFA"/>
<path d="M265.77 293.862C265.77 294.006 250.945 294.122 232.661 294.122C214.371 294.122 199.549 294.005 199.549 293.862C199.549 293.719 214.371 293.602 232.661 293.602C250.945 293.602 265.77 293.719 265.77 293.862Z" fill="#FAFAFA"/>
<path d="M706.277 453.604C706.277 453.748 558.172 453.864 375.517 453.864C192.799 453.864 44.7246 453.747 44.7246 453.604C44.7246 453.461 192.799 453.344 375.517 453.344C558.172 453.343 706.277 453.46 706.277 453.604Z" fill="#263238"/>
<path d="M494.749 87.0649H227.42V262.411H494.749V87.0649Z" fill="#263238"/>
<path d="M494.749 262.411C494.747 260.723 494.668 194.011 494.542 87.0659L494.749 87.2729C421.387 87.2879 328.355 87.3059 227.441 87.3259H227.42L227.68 87.0659C227.672 149.424 227.665 208.766 227.659 262.411L227.42 262.172C384.713 262.312 492.606 262.409 494.749 262.411C492.608 262.413 384.713 262.51 227.42 262.65H227.181V262.41C227.174 208.765 227.167 149.423 227.16 87.0649V86.8049H227.42H227.441C328.355 86.8249 421.387 86.8439 494.749 86.8579H494.956V87.0649C494.829 194.011 494.751 260.724 494.749 262.411Z" fill="#263238"/>
<path d="M309.119 183.896L335.413 184.258C335.212 198.271 323.405 209.691 309.119 209.691C309.068 209.691 309.016 209.691 308.965 209.69L309.119 183.896Z" fill="#455A64"/>
<path d="M352.595 219.498C352.595 219.514 352.401 219.529 352.033 219.543C351.617 219.554 351.084 219.568 350.425 219.585C348.976 219.602 346.979 219.625 344.55 219.653L344.476 219.654L344.428 219.594C342.082 216.638 339.055 212.825 335.754 208.666C333.19 205.396 330.792 202.339 328.762 199.75L328.897 199.816C325.731 199.787 323.08 199.762 321.159 199.744C320.266 199.724 319.544 199.709 318.995 199.696C318.496 199.679 318.23 199.661 318.23 199.643C318.23 199.625 318.496 199.607 318.995 199.59C319.544 199.578 320.266 199.562 321.159 199.542C323.08 199.524 325.731 199.5 328.897 199.47L328.98 199.469L329.033 199.535C331.077 202.114 333.49 205.159 336.071 208.416C339.345 212.597 342.346 216.431 344.673 219.402L344.551 219.343C346.98 219.371 348.976 219.394 350.426 219.411C351.085 219.428 351.618 219.442 352.034 219.453C352.401 219.467 352.595 219.482 352.595 219.498Z" fill="#263238"/>
<path d="M362.029 222.529C362.029 222.64 358.22 222.73 353.522 222.73C348.823 222.73 345.014 222.64 345.014 222.529C345.014 222.418 348.822 222.328 353.522 222.328C358.22 222.328 362.029 222.418 362.029 222.529Z" fill="#263238"/>
<path d="M362.029 225.68C362.029 225.791 358.22 225.882 353.522 225.882C348.823 225.882 345.014 225.792 345.014 225.68C345.014 225.569 348.822 225.479 353.522 225.479C358.22 225.478 362.029 225.569 362.029 225.68Z" fill="#263238"/>
<path d="M304.833 180.125L304.464 205.918C290.179 205.721 278.537 194.139 278.537 180.125C278.537 165.974 290.408 154.33 304.834 154.33C319.26 154.33 331.131 165.974 331.131 180.125H304.833Z" fill="#52CEC7"/>
<path d="M294.566 171.689C294.568 171.706 294.41 171.742 294.11 171.796C293.753 171.853 293.32 171.922 292.802 172.005C291.595 172.174 289.991 172.399 288.079 172.668L288.001 172.679L287.942 172.622C286.144 170.873 283.978 168.766 281.642 166.493C278.615 163.524 275.892 160.821 273.934 158.85C273 157.897 272.225 157.107 271.631 156.501C271.093 155.94 270.805 155.62 270.825 155.6C270.845 155.58 271.17 155.862 271.741 156.389C272.359 156.972 273.164 157.731 274.134 158.647C276.143 160.566 278.898 163.237 281.925 166.206C284.243 168.499 286.391 170.624 288.174 172.387L288.038 172.341C289.957 172.129 291.568 171.952 292.779 171.818C293.302 171.77 293.738 171.731 294.098 171.698C294.402 171.676 294.564 171.672 294.566 171.689Z" fill="#263238"/>
<path d="M264.163 154.464C264.163 154.575 260.354 154.665 255.656 154.665C250.957 154.665 247.148 154.575 247.148 154.464C247.148 154.353 250.956 154.263 255.656 154.263C260.354 154.262 264.163 154.353 264.163 154.464Z" fill="#263238"/>
<path d="M264.163 157.615C264.163 157.726 260.354 157.817 255.656 157.817C250.957 157.817 247.148 157.727 247.148 157.615C247.148 157.504 250.956 157.414 255.656 157.414C260.354 157.414 264.163 157.504 264.163 157.615Z" fill="#263238"/>
<path d="M396.952 129.194L396.848 113.165C392.128 113.192 387.315 115.059 383.624 118.321C379.277 122.163 376.492 127.94 377.251 134.922C377.334 135.685 377.455 136.46 377.625 137.251C377.629 137.27 377.632 137.288 377.636 137.307H377.638L396.952 132.961V129.194Z" fill="#52CEC7"/>
<g opacity="0.3">
<path d="M396.952 129.194L396.848 113.165C392.128 113.192 387.315 115.059 383.624 118.321C379.277 122.163 376.492 127.94 377.251 134.922C377.334 135.685 377.455 136.46 377.625 137.251C377.629 137.27 377.632 137.288 377.636 137.307H377.638L396.952 132.961V129.194Z" fill="#263238"/>
</g>
<path d="M416.859 124.26C414.159 118.623 408.842 114.107 401.271 113.347C401.069 113.327 400.865 113.308 400.659 113.293C400.529 113.284 400.401 113.271 400.27 113.263C399.888 113.242 399.5 113.231 399.107 113.229C399.089 113.229 399.072 113.228 399.054 113.228H399.051C399.035 113.228 399.019 113.227 399.002 113.227V113.23L399.106 129.259L399.131 133.026L418.45 137.241L418.474 137.246C418.769 135.892 418.91 134.496 418.903 133.09C418.888 130.086 418.189 127.038 416.859 124.26Z" fill="#52CEC7"/>
<g opacity="0.3">
<path d="M416.859 124.26C414.159 118.623 408.842 114.107 401.271 113.347C401.069 113.327 400.865 113.308 400.659 113.293C400.529 113.284 400.401 113.271 400.27 113.263C399.888 113.242 399.5 113.231 399.107 113.229C399.089 113.229 399.072 113.228 399.054 113.228H399.051C399.035 113.228 399.019 113.227 399.002 113.227V113.23L399.106 129.259L399.131 133.026L418.45 137.241L418.474 137.246C418.769 135.892 418.91 134.496 418.903 133.09C418.888 130.086 418.189 127.038 416.859 124.26Z" fill="black"/>
</g>
<path d="M397.988 134.962L378.674 139.308C380.656 148.151 388.547 154.76 397.988 154.76C407.475 154.76 415.399 148.086 417.332 139.178L398.013 134.963" fill="#52CEC7"/>
<path d="M473.167 132.076C473.167 132.22 463.181 132.336 450.866 132.336C438.547 132.336 428.562 132.219 428.562 132.076C428.562 131.932 438.546 131.816 450.866 131.816C463.181 131.816 473.167 131.932 473.167 132.076Z" fill="#263238"/>
<path d="M473.167 126.992C473.167 127.136 463.181 127.252 450.866 127.252C438.547 127.252 428.562 127.135 428.562 126.992C428.562 126.848 438.546 126.732 450.866 126.732C463.181 126.732 473.167 126.848 473.167 126.992Z" fill="#263238"/>
<path d="M473.167 121.908C473.167 122.052 463.181 122.168 450.866 122.168C438.547 122.168 428.562 122.051 428.562 121.908C428.562 121.764 438.546 121.648 450.866 121.648C463.181 121.647 473.167 121.764 473.167 121.908Z" fill="#263238"/>
<path d="M473.167 136.806C473.167 136.95 463.181 137.066 450.866 137.066C438.547 137.066 428.562 136.949 428.562 136.806C428.562 136.662 438.546 136.546 450.866 136.546C463.181 136.546 473.167 136.662 473.167 136.806Z" fill="#263238"/>
<path d="M459.356 141.954C459.356 142.098 452.497 142.214 444.039 142.214C435.578 142.214 428.721 142.097 428.721 141.954C428.721 141.81 435.578 141.694 444.039 141.694C452.498 141.694 459.356 141.81 459.356 141.954Z" fill="#263238"/>
<path d="M386.381 178.756H381.787V230.065H386.381V178.756Z" fill="#52CEC7"/>
<path d="M395.25 196.183H390.656V230.065H395.25V196.183Z" fill="#52CEC7"/>
<path d="M404.119 185.134H399.525V230.326H404.119V185.134Z" fill="#52CEC7"/>
<path d="M412.989 180.738H408.395V230.065H412.989V180.738Z" fill="#52CEC7"/>
<path d="M421.86 197.226H417.266V230.065H421.86V197.226Z" fill="#52CEC7"/>
<path d="M430.729 203.666H426.135V230.065H430.729V203.666Z" fill="#52CEC7"/>
<path d="M439.598 184.022H435.004V230.064H439.598V184.022Z" fill="#52CEC7"/>
<path d="M448.469 192.323H443.875V230.065H448.469V192.323Z" fill="#52CEC7"/>
<path d="M457.338 185.69H452.744V230.065H457.338V185.69Z" fill="#52CEC7"/>
<path d="M466.207 199.833H461.613V230.065H466.207V199.833Z" fill="#52CEC7"/>
<path d="M475.076 194.081H470.482V230.065H475.076V194.081Z" fill="#52CEC7"/>
<path d="M476.952 233.639C476.952 233.743 455.16 233.828 428.284 233.828C401.399 233.828 379.611 233.743 379.611 233.639C379.611 233.535 401.399 233.45 428.284 233.45C455.16 233.45 476.952 233.534 476.952 233.639Z" fill="#263238"/>
<path d="M388.34 237.677C388.34 237.781 386.814 237.866 384.931 237.866C383.048 237.866 381.521 237.781 381.521 237.677C381.521 237.573 383.047 237.488 384.931 237.488C386.813 237.488 388.34 237.573 388.34 237.677Z" fill="#263238"/>
<path d="M399.65 237.883C399.65 237.987 397.826 238.072 395.575 238.072C393.324 238.072 391.5 237.987 391.5 237.883C391.5 237.779 393.324 237.694 395.575 237.694C397.826 237.694 399.65 237.779 399.65 237.883Z" fill="#263238"/>
<path d="M409.296 237.883C409.296 237.987 407.471 238.072 405.221 238.072C402.97 238.072 401.146 237.987 401.146 237.883C401.146 237.779 402.97 237.694 405.221 237.694C407.471 237.694 409.296 237.779 409.296 237.883Z" fill="#263238"/>
<path d="M418.942 237.883C418.942 237.987 417.118 238.072 414.868 238.072C412.617 238.072 410.793 237.987 410.793 237.883C410.793 237.779 412.617 237.694 414.868 237.694C417.118 237.694 418.942 237.779 418.942 237.883Z" fill="#263238"/>
<path d="M428.587 237.883C428.587 237.987 426.763 238.072 424.513 238.072C422.262 238.072 420.438 237.987 420.438 237.883C420.438 237.779 422.262 237.694 424.513 237.694C426.763 237.694 428.587 237.779 428.587 237.883Z" fill="#263238"/>
<path d="M438.235 237.883C438.235 237.987 436.411 238.072 434.161 238.072C431.91 238.072 430.086 237.987 430.086 237.883C430.086 237.779 431.91 237.694 434.161 237.694C436.41 237.694 438.235 237.779 438.235 237.883Z" fill="#263238"/>
<path d="M447.879 237.883C447.879 237.987 446.055 238.072 443.805 238.072C441.554 238.072 439.73 237.987 439.73 237.883C439.73 237.779 441.554 237.694 443.805 237.694C446.054 237.694 447.879 237.779 447.879 237.883Z" fill="#263238"/>
<path d="M457.527 237.883C457.527 237.987 455.703 238.072 453.452 238.072C451.201 238.072 449.377 237.987 449.377 237.883C449.377 237.779 451.201 237.694 453.452 237.694C455.703 237.694 457.527 237.779 457.527 237.883Z" fill="#263238"/>
<path d="M467.171 237.883C467.171 237.987 465.347 238.072 463.096 238.072C460.845 238.072 459.021 237.987 459.021 237.883C459.021 237.779 460.845 237.694 463.096 237.694C465.347 237.694 467.171 237.779 467.171 237.883Z" fill="#263238"/>
<path d="M476.819 237.883C476.819 237.987 474.995 238.072 472.745 238.072C470.494 238.072 468.67 237.987 468.67 237.883C468.67 237.779 470.494 237.694 472.745 237.694C474.995 237.694 476.819 237.779 476.819 237.883Z" fill="#263238"/>
<g opacity="0.3">
<path d="M395.25 196.183H390.656V230.065H395.25V196.183Z" fill="#263238"/>
</g>
<g opacity="0.3">
<path d="M412.989 180.738H408.395V230.065H412.989V180.738Z" fill="#263238"/>
</g>
<g opacity="0.3">
<path d="M430.729 203.666H426.135V230.065H430.729V203.666Z" fill="#263238"/>
</g>
<g opacity="0.3">
<path d="M448.469 192.323H443.875V230.065H448.469V192.323Z" fill="#263238"/>
</g>
<g opacity="0.3">
<path d="M466.207 199.833H461.613V230.065H466.207V199.833Z" fill="#263238"/>
</g>
<path d="M259.899 120.023C259.899 122.465 257.919 124.445 255.477 124.445C253.035 124.445 251.055 122.465 251.055 120.023C251.055 117.581 253.035 115.601 255.477 115.601C257.919 115.601 259.899 117.58 259.899 120.023Z" fill="#52CEC7"/>
<path d="M335.927 116.535C335.927 116.679 321.016 116.795 302.627 116.795C284.232 116.795 269.324 116.678 269.324 116.535C269.324 116.391 284.232 116.275 302.627 116.275C321.016 116.274 335.927 116.391 335.927 116.535Z" fill="#52CEC7"/>
<path d="M296.064 121.883C296.064 121.919 295.698 121.953 295.033 121.984C294.369 122.015 293.407 122.043 292.219 122.067C289.844 122.114 286.562 122.143 282.938 122.143C279.313 122.143 276.031 122.114 273.656 122.067C272.468 122.044 271.507 122.015 270.843 121.984C270.179 121.953 269.812 121.919 269.812 121.883C269.812 121.847 270.179 121.813 270.843 121.782C271.507 121.751 272.468 121.723 273.656 121.699C276.031 121.652 279.313 121.623 282.938 121.623C286.562 121.623 289.843 121.652 292.219 121.699C293.407 121.723 294.369 121.751 295.033 121.782C295.697 121.812 296.064 121.846 296.064 121.883Z" fill="#52CEC7"/>
<path d="M221.975 102.938H82.0625V262.616H221.975V102.938Z" fill="#263238"/>
<path d="M221.975 262.616C221.975 262.616 221.966 262.356 221.962 261.857C221.959 261.351 221.955 260.611 221.949 259.638C221.943 257.678 221.934 254.786 221.922 251.02C221.908 243.481 221.887 232.45 221.861 218.44C221.833 190.443 221.793 150.553 221.745 102.938L221.975 103.168C180.773 103.177 132.902 103.187 82.0767 103.198H82.0627L82.3227 102.938C82.3077 161.808 82.2937 216.706 82.2827 262.616L82.0627 262.396C124.155 262.443 159.106 262.482 183.544 262.509C195.773 262.534 205.369 262.553 211.917 262.566C215.188 262.577 217.696 262.586 219.395 262.591C221.089 262.6 221.975 262.616 221.975 262.616C221.975 262.616 221.122 262.632 219.443 262.641C217.753 262.647 215.259 262.655 212.007 262.666C205.47 262.679 195.891 262.698 183.683 262.723C159.212 262.75 124.213 262.789 82.0627 262.836H81.8427V262.615C81.8307 216.706 81.8177 161.808 81.8027 102.937V102.677H82.0637H82.0777C132.903 102.688 180.774 102.698 221.976 102.707H222.206V102.937C222.158 150.612 222.118 190.554 222.09 218.587C222.064 232.574 222.043 243.588 222.029 251.115C222.017 254.862 222.008 257.739 222.002 259.688C221.996 260.65 221.992 261.382 221.989 261.882C221.984 262.373 221.975 262.616 221.975 262.616Z" fill="#263238"/>
<path d="M209.948 184.471C209.902 184.566 208.399 183.695 205.449 182.761C202.523 181.854 198.008 180.977 192.546 181.803C189.837 182.237 186.903 183.056 184.036 184.538C181.15 185.984 178.4 188.129 175.669 190.556C172.925 192.977 170.202 195.726 167.06 198.268C163.918 200.769 160.313 203.135 156.072 204.215C153.967 204.757 151.763 204.898 149.656 204.602C147.545 204.314 145.551 203.624 143.711 202.767C140.026 201.03 136.874 198.748 133.753 196.845C130.654 194.904 127.538 193.365 124.387 192.646C121.255 191.884 118.214 191.73 115.478 191.963C109.972 192.444 105.806 194.393 103.18 195.967C100.541 197.58 99.2967 198.793 99.2257 198.708C99.2037 198.684 99.5107 198.382 100.119 197.829C100.717 197.266 101.672 196.508 102.982 195.651C105.583 193.96 109.784 191.87 115.414 191.29C118.211 191.008 121.337 191.124 124.572 191.875C127.826 192.579 131.078 194.156 134.212 196.092C137.375 197.996 140.527 200.247 144.104 201.915C147.644 203.62 151.808 204.379 155.837 203.288C159.866 202.265 163.383 199.983 166.473 197.537C169.565 195.053 172.301 192.321 175.085 189.895C177.859 187.464 180.687 185.291 183.677 183.831C186.644 182.337 189.668 181.535 192.447 181.135C198.051 180.376 202.633 181.38 205.563 182.408C207.043 182.92 208.144 183.443 208.868 183.83C209.593 184.223 209.963 184.443 209.948 184.471Z" fill="#52CEC7"/>
<path d="M132.467 205.918H120.572V238.088H132.467V205.918Z" fill="#52CEC7"/>
<path d="M182.942 205.918H171.047V238.088H182.942V205.918Z" fill="#52CEC7"/>
<path d="M199.766 187.026H187.871V238.088H199.766V187.026Z" fill="#52CEC7"/>
<path d="M117.075 227.96H105.18V238.787H117.075V227.96Z" fill="#52CEC7"/>
<path d="M149.293 220.445H137.398V238.088H149.293V220.445Z" fill="#52CEC7"/>
<path d="M166.118 216.395H154.223V238.088H166.118V216.395Z" fill="#52CEC7"/>
<path d="M132.947 241.879C132.947 242.143 130.07 242.357 126.521 242.357C122.971 242.357 120.094 242.143 120.094 241.879C120.094 241.615 122.971 241.401 126.521 241.401C130.07 241.401 132.947 241.615 132.947 241.879Z" fill="#263238"/>
<path d="M118.146 241.879C118.146 242.143 115.268 242.357 111.72 242.357C108.17 242.357 105.293 242.143 105.293 241.879C105.293 241.615 108.17 241.401 111.72 241.401C115.268 241.401 118.146 241.615 118.146 241.879Z" fill="#263238"/>
<path d="M202.109 241.879C202.109 242.143 198.856 242.357 194.845 242.357C190.832 242.357 187.58 242.143 187.58 241.879C187.58 241.615 190.831 241.401 194.845 241.401C198.856 241.401 202.109 241.615 202.109 241.879Z" fill="#263238"/>
<path d="M177.175 242.357C181.188 242.357 184.44 242.143 184.44 241.879C184.44 241.615 181.188 241.401 177.175 241.401C173.163 241.401 169.91 241.615 169.91 241.879C169.91 242.143 173.163 242.357 177.175 242.357Z" fill="#263238"/>
<path d="M166.118 241.879C166.118 242.143 163.24 242.358 159.692 242.358C156.143 242.358 153.266 242.144 153.266 241.879C153.266 241.615 156.143 241.401 159.692 241.401C163.24 241.401 166.118 241.615 166.118 241.879Z" fill="#263238"/>
<path d="M148.734 241.879C148.734 242.143 145.856 242.358 142.308 242.358C138.759 242.358 135.881 242.144 135.881 241.879C135.881 241.615 138.758 241.401 142.308 241.401C145.856 241.401 148.734 241.615 148.734 241.879Z" fill="#263238"/>
<path d="M202.11 126.217H104.9V166.587H202.11V126.217Z" fill="#E0E0E0"/>
<path d="M125.097 138.976C125.097 141.479 123.068 143.508 120.565 143.508C118.062 143.508 116.033 141.479 116.033 138.976C116.033 136.473 118.062 134.444 120.565 134.444C123.068 134.444 125.097 136.473 125.097 138.976Z" fill="#263238"/>
<path d="M161.205 135.846H129.629V137.599H161.205V135.846Z" fill="#263238"/>
<path d="M191.055 139.83H129.629V141.583H191.055V139.83Z" fill="white"/>
<path d="M125.097 152.908C125.097 155.411 123.068 157.44 120.565 157.44C118.062 157.44 116.033 155.411 116.033 152.908C116.033 150.405 118.062 148.376 120.565 148.376C123.068 148.376 125.097 150.405 125.097 152.908Z" fill="#52CEC7"/>
<path d="M145.754 149.778H129.629V151.531H145.754V149.778Z" fill="#52CEC7"/>
<path d="M191.055 153.762H129.629V155.515H191.055V153.762Z" fill="white"/>
<path d="M404.414 333.235H344.828V336.133H404.414V333.235Z" fill="#263238"/>
<path d="M335.595 336.133L324.418 294.25H370.943L381.064 336.133H335.595Z" fill="#263238"/>
<path d="M378.275 332.963H336.712L327.037 296.185H368.815L378.275 332.963Z" fill="#F5F5F5"/>
<path d="M327.733 298.829C341.807 298.829 355.444 298.829 369.518 298.829L368.815 296.186H327.037L327.733 298.829Z" fill="#EBEBEB"/>
<path d="M332.246 297.507C332.246 297.759 332.45 297.964 332.702 297.964C332.954 297.964 333.158 297.76 333.158 297.507C333.158 297.255 332.954 297.051 332.702 297.051C332.45 297.051 332.246 297.255 332.246 297.507Z" fill="#FAFAFA"/>
<path d="M330.674 297.507C330.674 297.759 330.878 297.964 331.131 297.964C331.383 297.964 331.587 297.76 331.587 297.507C331.587 297.255 331.383 297.051 331.131 297.051C330.878 297.051 330.674 297.255 330.674 297.507Z" fill="#FAFAFA"/>
<path d="M329.102 297.507C329.102 297.759 329.306 297.964 329.558 297.964C329.81 297.964 330.014 297.76 330.014 297.507C330.014 297.255 329.81 297.051 329.558 297.051C329.306 297.051 329.102 297.255 329.102 297.507Z" fill="#FAFAFA"/>
<path d="M359.135 314.944L363.71 320.179C365.49 318.908 366.528 316.965 366.52 314.915C366.506 311.254 363.16 308.255 359.109 308.271C355.058 308.287 351.736 311.313 351.75 314.973L359.135 314.944Z" fill="#52CEC7"/>
<path d="M358.555 315.782C358.574 315.74 359.042 316.214 359.86 317.091C360.677 317.967 361.845 319.247 363.243 320.811L363.401 320.988L363.205 321.135C361.351 322.527 358.263 323.116 355.491 321.892C354.171 321.336 353.078 320.405 352.317 319.34C351.563 318.261 351.184 317.034 351.14 315.904L351.131 315.671L351.36 315.67C353.55 315.659 355.363 315.668 356.618 315.688C357.874 315.709 358.574 315.739 358.555 315.782C358.536 315.825 357.8 315.878 356.541 315.937C355.281 315.996 353.498 316.061 351.367 316.117L351.587 315.883C351.651 316.93 352.018 318.055 352.727 319.05C353.444 320.031 354.465 320.895 355.699 321.414C358.29 322.558 361.185 322.04 362.951 320.775L362.913 321.099C361.588 319.547 360.495 318.24 359.732 317.309C358.968 316.379 358.536 315.825 358.555 315.782Z" fill="#263238"/>
<path d="M355.564 310.994C355.565 311.223 355.751 311.407 355.98 311.407C356.209 311.406 356.393 311.22 356.392 310.991C356.391 310.762 356.205 310.577 355.976 310.578C355.748 310.579 355.563 310.765 355.564 310.994Z" fill="#263238"/>
<path d="M347.334 307.996C347.333 307.852 349.547 307.727 352.277 307.716C352.502 307.716 352.723 307.716 352.936 307.716H353.044L353.118 307.791C354.826 309.509 356.071 310.898 355.978 310.992C355.885 311.086 354.486 309.851 352.754 308.157L352.937 308.232C352.724 308.234 352.503 308.235 352.278 308.237C349.549 308.248 347.334 308.14 347.334 307.996Z" fill="#263238"/>
<path d="M337.977 313.235C337.95 313.269 337.785 312.576 337.504 311.305C337.224 310.035 336.827 308.179 336.372 305.907L336.322 305.658L336.579 305.656C339.521 305.631 343.078 305.6 346.92 305.567C346.865 305.521 347.407 305.969 347.178 305.78V305.782L347.179 305.786L347.18 305.794L347.183 305.81L347.189 305.841L347.201 305.903L347.224 306.027L347.271 306.273L347.364 306.763C347.425 307.089 347.486 307.412 347.547 307.733C347.667 308.374 347.785 309.004 347.9 309.622C348.127 310.854 348.345 312.035 348.551 313.152L348.603 313.433L348.32 313.432C345.214 313.424 342.6 313.386 340.785 313.35C339.953 313.328 339.258 313.31 338.687 313.294C338.209 313.274 337.961 313.255 337.977 313.235C337.994 313.215 338.274 313.194 338.777 313.172C339.36 313.152 340.071 313.128 340.921 313.1C342.747 313.049 345.304 312.991 348.318 312.959L348.087 313.239C347.87 312.125 347.64 310.945 347.401 309.716C347.282 309.099 347.161 308.469 347.038 307.828C346.977 307.507 346.915 307.184 346.853 306.859L346.76 306.369L346.713 306.123L346.69 305.999L346.678 305.937L346.672 305.906L346.669 305.89L346.668 305.882L346.667 305.878V305.876C346.437 305.686 346.98 306.133 346.923 306.087C343.081 306.084 339.524 306.082 336.582 306.079L336.789 305.828C337.182 308.026 337.483 309.854 337.69 311.15C337.895 312.445 338.005 313.201 337.977 313.235Z" fill="#263238"/>
<path d="M354.949 319.321C354.95 319.55 355.136 319.734 355.365 319.734C355.594 319.733 355.778 319.547 355.778 319.318C355.777 319.089 355.591 318.905 355.362 318.905C355.133 318.906 354.948 319.092 354.949 319.321Z" fill="#263238"/>
<path d="M347.852 319.349C347.851 319.205 349.533 319.082 351.607 319.074C353.682 319.066 355.364 319.176 355.365 319.32C355.366 319.464 353.684 319.587 351.61 319.595C349.535 319.603 347.852 319.492 347.852 319.349Z" fill="#263238"/>
<path d="M338.014 322.613C337.99 322.644 337.833 322.154 337.56 321.231C337.287 320.309 336.896 318.948 336.436 317.251L336.371 317.011L336.625 317.006C339.44 316.955 343.187 316.916 347.288 316.899C347.062 316.724 347.597 317.137 347.542 317.095V317.096L347.543 317.099L347.544 317.105L347.547 317.116L347.553 317.138L347.564 317.183L347.587 317.272L347.633 317.45L347.724 317.805L347.904 318.509C348.023 318.975 348.14 319.436 348.255 319.889C348.483 320.793 348.704 321.669 348.915 322.508L348.992 322.814L348.679 322.813C345.516 322.808 342.82 322.771 340.939 322.733C340.08 322.71 339.356 322.69 338.757 322.674C338.258 322.655 337.997 322.635 338.014 322.613C338.031 322.591 338.324 322.568 338.85 322.544C339.461 322.523 340.2 322.497 341.077 322.467C342.969 322.414 345.605 322.356 348.677 322.326L348.441 322.631C348.222 321.794 347.994 320.92 347.758 320.018C347.641 319.565 347.522 319.106 347.401 318.64L347.219 317.936L347.128 317.581L347.082 317.403L347.059 317.314L347.047 317.269L347.041 317.247L347.038 317.236L347.037 317.23L347.036 317.227C346.981 317.184 347.515 317.596 347.288 317.421C343.187 317.437 339.44 317.428 336.624 317.399L336.813 317.154C337.208 318.79 337.512 320.134 337.719 321.085C337.928 322.033 338.038 322.582 338.014 322.613Z" fill="#263238"/>
<path d="M338.797 308.125C338.796 307.981 340.38 307.858 342.333 307.851C344.287 307.843 345.871 307.954 345.872 308.097C345.873 308.24 344.289 308.364 342.335 308.371C340.382 308.379 338.797 308.269 338.797 308.125Z" fill="#263238"/>
<path d="M338.885 309.283C338.884 309.139 340.477 309.016 342.442 309.009C344.408 309.001 346.001 309.112 346.002 309.255C346.003 309.399 344.41 309.522 342.445 309.529C340.479 309.538 338.886 309.427 338.885 309.283Z" fill="#263238"/>
<path d="M339.096 310.4C339.095 310.256 340.633 310.133 342.529 310.126C344.426 310.118 345.964 310.229 345.964 310.373C345.965 310.517 344.428 310.639 342.531 310.647C340.635 310.654 339.097 310.543 339.096 310.4Z" fill="#263238"/>
<path d="M339.006 319.255C339.006 319.111 340.515 318.989 342.377 318.981C344.24 318.974 345.75 319.084 345.75 319.228C345.751 319.372 344.242 319.494 342.379 319.502C340.517 319.509 339.007 319.399 339.006 319.255Z" fill="#263238"/>
<path d="M339.426 320.536C339.425 320.392 340.712 320.27 342.3 320.264C343.889 320.258 345.176 320.369 345.177 320.513C345.177 320.657 343.891 320.778 342.302 320.785C340.715 320.791 339.426 320.68 339.426 320.536Z" fill="#263238"/>
<path d="M274.264 335.996V341.489H277.861V452.7H285.242V341.489H324.414V452.7H331.795V341.489H501.725V452.673H509.106V341.489H512.301V335.996H274.264Z" fill="#263238"/>
<path d="M434.301 377.435C434.301 377.546 436.45 377.637 439.1 377.637C441.751 377.637 443.9 377.547 443.9 377.435C443.9 377.324 441.752 377.233 439.1 377.233C436.45 377.233 434.301 377.324 434.301 377.435Z" fill="#263238"/>
<path d="M364.395 378.569C364.538 378.569 364.655 378.511 364.655 378.441C364.655 378.37 364.538 378.313 364.395 378.313C364.251 378.313 364.135 378.37 364.135 378.441C364.135 378.511 364.251 378.569 364.395 378.569Z" fill="#455A64"/>
<path d="M411.423 279.582L383.855 251.575L383.259 248.543C383.144 247.988 383.029 247.369 382.922 246.665C382.797 245.844 382.815 245.009 382.965 244.197C383.146 243.214 383.439 241.918 383.815 241.262C384.279 240.451 383.536 239.473 382.768 239.808C382.001 240.143 380.667 242.346 380.379 245.371C380.092 248.396 377.51 244.382 376.544 242.937C375.578 241.491 372.385 237.16 371.72 237.108C370.744 237.032 370.494 238.09 371.492 239.511C372.501 240.95 375.19 245.407 374.426 245.886C374.426 245.886 374.416 245.884 374.397 245.881C372.843 245.617 371.309 246.386 370.589 247.77C369.894 249.107 369.118 251.002 369.753 251.875C370.95 253.522 374.149 256.531 374.149 256.531L375.072 257.325C375.074 257.327 403.301 292.877 408.5 294C411.733 294.698 457.335 297.851 457.335 297.851L461.105 284.082L411.423 279.582Z" fill="#D6A896"/>
<path d="M369.539 251.294C370.389 252.11 371.239 252.927 372.089 253.743C372.377 254.02 372.676 254.304 373.049 254.448C373.422 254.592 373.892 254.561 374.164 254.268C374.41 254.002 374.432 253.587 374.314 253.245C374.195 252.903 373.959 252.616 373.727 252.338C372.901 251.345 372.075 250.352 371.248 249.359" fill="#B78876"/>
<path d="M371.25 249.358C371.305 249.312 371.784 249.786 372.513 250.589C372.921 251.051 373.34 251.525 373.773 252.017C373.999 252.288 374.276 252.567 374.476 252.969C374.671 253.363 374.751 253.925 374.406 254.386C374.029 254.842 373.434 254.855 373.011 254.706C372.573 254.546 372.271 254.254 372.012 254.003C371.552 253.535 371.109 253.084 370.677 252.643C369.928 251.858 369.49 251.347 369.539 251.295C369.589 251.243 370.117 251.66 370.932 252.377C371.389 252.79 371.857 253.215 372.343 253.654C372.601 253.891 372.872 254.121 373.177 254.222C373.47 254.323 373.838 254.275 373.998 254.062C374.169 253.847 374.159 253.476 374.015 253.187C373.875 252.883 373.627 252.606 373.404 252.323C373 251.807 372.61 251.309 372.229 250.824C371.574 249.961 371.195 249.404 371.25 249.358Z" fill="#AA6550"/>
<path d="M371.35 249.512C372.2 250.328 373.05 251.145 373.9 251.961C374.188 252.238 374.487 252.522 374.86 252.666C375.233 252.81 375.703 252.779 375.975 252.486C376.221 252.22 376.243 251.805 376.125 251.462C376.006 251.12 375.77 250.833 375.538 250.555C374.712 249.562 373.886 248.569 373.06 247.576" fill="#B78876"/>
<path d="M373.06 247.576C373.115 247.53 373.594 248.004 374.323 248.807C374.731 249.269 375.15 249.743 375.583 250.235C375.809 250.506 376.086 250.785 376.286 251.187C376.481 251.581 376.561 252.143 376.216 252.604C375.839 253.059 375.244 253.073 374.821 252.924C374.383 252.764 374.081 252.472 373.822 252.221C373.362 251.753 372.919 251.302 372.487 250.861C371.738 250.076 371.3 249.565 371.35 249.513C371.4 249.461 371.928 249.879 372.743 250.595C373.2 251.008 373.668 251.433 374.154 251.872C374.412 252.108 374.683 252.339 374.988 252.44C375.281 252.541 375.649 252.493 375.809 252.28C375.98 252.065 375.97 251.694 375.826 251.405C375.685 251.101 375.438 250.824 375.215 250.541C374.811 250.025 374.421 249.527 374.041 249.042C373.383 248.178 373.005 247.622 373.06 247.576Z" fill="#AA6550"/>
<path d="M373.336 248.05C374.186 248.867 375.036 249.683 375.886 250.499C376.174 250.776 376.473 251.06 376.846 251.204C377.219 251.348 377.689 251.317 377.961 251.024C378.207 250.758 378.229 250.343 378.111 250C377.992 249.658 377.756 249.371 377.524 249.093C376.698 248.1 375.872 247.107 375.046 246.114" fill="#B78876"/>
<path d="M375.045 246.114C375.1 246.068 375.579 246.542 376.308 247.345C376.716 247.807 377.135 248.281 377.568 248.773C377.794 249.044 378.071 249.323 378.271 249.725C378.466 250.119 378.546 250.681 378.201 251.142C377.824 251.598 377.229 251.611 376.806 251.462C376.368 251.302 376.066 251.01 375.807 250.759C375.347 250.291 374.904 249.839 374.471 249.399C373.722 248.614 373.284 248.103 373.334 248.051C373.384 247.999 373.912 248.417 374.726 249.133C375.183 249.546 375.651 249.971 376.137 250.41C376.395 250.646 376.666 250.877 376.971 250.978C377.264 251.079 377.632 251.031 377.792 250.818C377.963 250.603 377.953 250.232 377.809 249.943C377.669 249.639 377.421 249.362 377.198 249.079C376.794 248.563 376.404 248.065 376.023 247.58C375.368 246.717 374.99 246.16 375.045 246.114Z" fill="#AA6550"/>
<path d="M377.365 252.288C377.358 252.206 377.997 252.078 378.919 252.361L378.625 252.612C378.505 252.121 378.449 251.502 378.56 250.86C378.705 249.939 379.129 249.184 379.515 248.728C379.908 248.269 380.24 248.088 380.281 248.137C380.391 248.236 379.329 249.26 379.074 250.942C378.974 251.519 378.997 252.069 379.059 252.523L379.113 252.923L378.765 252.775C377.967 252.436 377.361 252.39 377.365 252.288Z" fill="#AA6550"/>
<path d="M447.536 237.594L447.654 275.959L432.695 276.673L432.09 267.478C432.09 267.478 424.874 268.574 423.365 263.145C422.401 259.677 422.642 232.873 422.642 232.873L447.536 237.594Z" fill="#D6A896"/>
<path d="M418.923 236.656C420.031 238.948 425.311 243.143 425.311 243.143L427.696 249.534C429.768 247.912 432.549 248.005 433.076 251.645C433.457 254.276 430.186 254.807 430.186 254.807C432.09 258.047 433.381 260.668 436.153 263.75C439.153 267.085 440.834 267.422 444.088 267.476H447.676C447.676 267.476 455.018 261.341 453.567 245.181C452.116 229.022 437.588 233.736 434.121 229.699C428.474 223.124 415.223 229.003 418.923 236.656Z" fill="#263238"/>
<path d="M452.752 258.693C452.752 258.693 452.113 258.822 450.976 258.612C449.849 258.41 448.244 257.769 446.69 256.406C445.118 255.057 443.737 252.997 442.358 250.676C440.96 248.392 439.433 245.728 436.861 243.952C434.259 242.212 431.2 241.857 428.573 241.319C425.921 240.821 423.517 240.063 421.881 238.772C420.241 237.497 419.437 235.918 419.2 234.8C418.955 233.664 419.127 233.026 419.127 233.026C419.165 233.024 419.012 233.669 419.279 234.781C419.537 235.876 420.348 237.417 421.971 238.655C423.589 239.908 425.964 240.644 428.61 241.13C431.23 241.658 434.316 242.002 436.978 243.779C439.604 245.594 441.133 248.289 442.523 250.576C443.893 252.901 445.249 254.948 446.788 256.294C448.311 257.654 449.884 258.306 450.993 258.531C451.55 258.655 451.994 258.669 452.294 258.686C452.593 258.684 452.752 258.693 452.752 258.693Z" fill="#455A64"/>
<path d="M453.6 245.55C453.6 245.55 453.332 245.472 452.827 245.316C452.321 245.167 451.573 244.921 450.576 244.815C449.599 244.714 448.285 244.773 447.111 245.59C446.541 245.992 446.036 246.621 445.906 247.409C445.771 248.176 445.954 249.106 446.604 249.698C446.923 249.991 447.363 250.156 447.813 250.178C448.268 250.198 448.729 250.047 449.145 249.814C449.974 249.33 450.645 248.5 450.954 247.505C451.627 245.546 451.154 242.99 449.355 241.434C448.484 240.655 447.346 240.119 446.128 239.995C444.903 239.865 443.648 240.136 442.41 240.483C441.17 240.831 439.901 241.24 438.562 241.408C437.228 241.588 435.852 241.595 434.481 241.418C433.114 241.229 431.771 240.908 430.545 240.328C429.338 239.756 428.214 238.801 427.852 237.488C427.495 236.209 427.832 234.763 428.767 233.864C429.71 232.947 431.18 232.833 432.281 233.345C432.836 233.598 433.32 234.029 433.584 234.571C433.864 235.106 433.932 235.72 433.86 236.292C433.705 237.442 433.02 238.453 432.109 239.034C431.197 239.622 430.141 239.838 429.154 239.856C428.159 239.878 427.214 239.694 426.351 239.424C424.615 238.881 423.238 237.901 422.233 236.885C421.213 235.869 420.558 234.796 420.13 233.884C419.69 232.972 419.517 232.2 419.385 231.687C419.296 231.163 419.26 230.888 419.26 230.888C419.26 230.888 419.324 231.159 419.426 231.678C419.57 232.185 419.754 232.949 420.203 233.849C420.639 234.748 421.298 235.805 422.315 236.802C423.317 237.8 424.684 238.758 426.395 239.283C427.246 239.545 428.177 239.721 429.15 239.695C430.116 239.673 431.14 239.457 432.015 238.888C432.883 238.333 433.535 237.359 433.678 236.268C433.851 235.181 433.287 233.976 432.201 233.519C431.164 233.038 429.775 233.152 428.905 234.007C428.031 234.846 427.709 236.224 428.049 237.432C428.389 238.664 429.457 239.583 430.636 240.14C431.83 240.705 433.161 241.025 434.508 241.211C435.86 241.385 437.219 241.378 438.535 241.202C439.855 241.038 441.107 240.636 442.357 240.286C443.601 239.939 444.883 239.661 446.15 239.796C447.413 239.926 448.587 240.483 449.485 241.289C451.342 242.903 451.822 245.542 451.12 247.558C450.797 248.585 450.097 249.451 449.227 249.952C448.79 250.195 448.3 250.353 447.81 250.331C447.324 250.306 446.851 250.125 446.508 249.807C445.812 249.162 445.634 248.188 445.778 247.385C445.92 246.557 446.456 245.903 447.046 245.494C448.262 244.662 449.602 244.62 450.587 244.733C451.594 244.853 452.34 245.112 452.843 245.274C453.341 245.445 453.6 245.55 453.6 245.55Z" fill="#455A64"/>
<path d="M434.586 443.333L429.697 437.06L441.39 427.826L448.641 436.928L447.953 437.547C444.868 440.274 432.075 451.196 429.402 452.246C426.418 453.416 434.586 443.333 434.586 443.333Z" fill="#52CEC7"/>
<g opacity="0.4">
<path d="M430.731 448.433C430.731 448.433 428.042 452.187 428.93 452.418C429.817 452.648 443.161 442.098 448.639 436.929L448.414 436.683L432.955 449.122C432.955 449.122 431.434 447.924 430.731 448.433Z" fill="white"/>
</g>
<path d="M448.593 436.53C448.597 436.535 448.534 436.597 448.409 436.711C448.244 436.858 448.063 437.02 447.859 437.202C447.302 437.683 446.616 438.275 445.807 438.973C444.064 440.456 441.629 442.473 438.891 444.642C436.152 446.81 433.631 448.719 431.788 450.076C430.923 450.703 430.19 451.235 429.594 451.667C429.37 451.824 429.171 451.963 428.99 452.089C428.851 452.184 428.776 452.231 428.772 452.226C428.768 452.221 428.836 452.164 428.968 452.059C429.143 451.924 429.335 451.776 429.552 451.609C430.139 451.164 430.86 450.617 431.711 449.972C433.534 448.59 436.042 446.666 438.779 444.499C441.515 442.332 443.961 440.331 445.725 438.874C446.548 438.193 447.246 437.617 447.813 437.147C448.025 436.974 448.213 436.821 448.385 436.682C448.518 436.578 448.589 436.525 448.593 436.53Z" fill="#263238"/>
<path d="M433.103 449.301C433.064 449.34 432.63 448.86 431.905 448.601C431.184 448.329 430.542 448.416 430.538 448.36C430.519 448.318 431.193 448.142 431.966 448.431C432.742 448.711 433.144 449.281 433.103 449.301Z" fill="#263238"/>
<path d="M435.166 444.824C435.15 444.871 434.826 444.801 434.443 444.667C434.06 444.533 433.763 444.387 433.78 444.34C433.796 444.293 434.12 444.363 434.503 444.497C434.885 444.631 435.182 444.777 435.166 444.824Z" fill="#263238"/>
<path d="M435.718 443.576C435.715 443.626 435.433 443.649 435.089 443.627C434.745 443.605 434.468 443.547 434.471 443.498C434.474 443.448 434.756 443.425 435.1 443.447C435.445 443.468 435.721 443.526 435.718 443.576Z" fill="#263238"/>
<path d="M435.443 442C435.474 442.039 435.229 442.289 434.895 442.56C434.561 442.83 434.264 443.018 434.233 442.979C434.202 442.94 434.447 442.69 434.781 442.419C435.116 442.149 435.412 441.961 435.443 442Z" fill="#263238"/>
<path d="M435.035 441.06C435.076 441.084 434.884 441.454 434.511 441.796C434.139 442.14 433.755 442.3 433.734 442.258C433.709 442.213 434.036 441.991 434.388 441.663C434.743 441.338 434.991 441.03 435.035 441.06Z" fill="#263238"/>
<path d="M433.964 444.118C433.977 444.133 433.717 444.396 433.209 444.707C432.956 444.862 432.639 445.024 432.27 445.163C432.082 445.227 431.898 445.309 431.663 445.336C431.549 445.345 431.412 445.341 431.293 445.25C431.173 445.162 431.133 444.988 431.169 444.86C431.593 443.92 432.631 443.756 433.191 443.916C433.488 443.989 433.7 444.121 433.832 444.223C433.964 444.328 434.019 444.403 434.012 444.411C433.993 444.442 433.727 444.156 433.163 444.041C432.886 443.986 432.538 443.993 432.192 444.131C431.865 444.262 431.471 444.539 431.345 444.9C431.296 445.082 431.453 445.186 431.648 445.16C431.835 445.142 432.033 445.064 432.213 445.006C432.575 444.879 432.889 444.734 433.146 444.596C433.659 444.321 433.946 444.095 433.964 444.118Z" fill="#263238"/>
<path d="M433.798 444.309C433.794 444.326 433.531 444.221 433.299 443.856C433.186 443.676 433.092 443.431 433.07 443.145C433.071 442.874 433.06 442.509 433.393 442.268C433.585 442.153 433.826 442.284 433.899 442.432C433.989 442.574 434.02 442.734 434.037 442.868C434.074 443.144 434.067 443.395 434.042 443.603C433.988 444.019 433.872 444.254 433.852 444.247C433.825 444.239 433.895 443.994 433.914 443.592C433.923 443.392 433.916 443.152 433.872 442.893C433.85 442.653 433.695 442.312 433.48 442.427C433.278 442.557 433.234 442.896 433.237 443.137C433.247 443.393 433.32 443.62 433.411 443.793C433.594 444.145 433.818 444.284 433.798 444.309Z" fill="#263238"/>
<path d="M445.826 433.521C445.844 433.549 445.466 433.754 444.987 434.234C444.51 434.706 443.952 435.496 443.717 436.5C443.484 437.505 443.635 438.46 443.855 439.094C444.073 439.736 444.322 440.086 444.293 440.104C444.284 440.11 444.213 440.03 444.106 439.868C443.998 439.707 443.862 439.46 443.735 439.137C443.478 438.497 443.298 437.506 443.541 436.458C443.786 435.411 444.385 434.601 444.898 434.141C445.155 433.907 445.386 433.746 445.554 433.649C445.722 433.552 445.821 433.511 445.826 433.521Z" fill="#263238"/>
<path d="M440.767 429.615C440.806 429.584 441.701 430.622 442.766 431.935C443.832 433.248 444.664 434.338 444.625 434.369C444.586 434.4 443.691 433.362 442.625 432.048C441.561 430.736 440.729 429.646 440.767 429.615Z" fill="#263238"/>
<path d="M441.955 440.208C441.989 440.241 441.326 440.968 440.383 441.726C439.441 442.487 438.59 442.981 438.565 442.94C438.536 442.896 439.336 442.339 440.269 441.585C441.204 440.835 441.918 440.171 441.955 440.208Z" fill="#263238"/>
<path d="M444.245 438.393C444.296 438.399 444.31 438.604 444.371 438.841C444.428 439.079 444.512 439.267 444.469 439.296C444.431 439.326 444.263 439.159 444.195 438.885C444.126 438.611 444.197 438.385 444.245 438.393Z" fill="#263238"/>
<path d="M444.256 436.637C444.306 436.642 444.326 436.824 444.302 437.042C444.278 437.26 444.218 437.433 444.169 437.427C444.12 437.422 444.099 437.24 444.123 437.022C444.147 436.804 444.207 436.631 444.256 436.637Z" fill="#263238"/>
<path d="M445.104 435.169C445.127 435.215 444.971 435.337 444.847 435.533C444.719 435.726 444.672 435.918 444.62 435.916C444.572 435.92 444.539 435.675 444.696 435.435C444.851 435.193 445.088 435.124 445.104 435.169Z" fill="#263238"/>
<path d="M445.8 434.242C445.843 434.267 445.823 434.38 445.756 434.495C445.689 434.609 445.599 434.681 445.556 434.656C445.513 434.631 445.533 434.518 445.6 434.403C445.667 434.289 445.757 434.217 445.8 434.242Z" fill="#263238"/>
<g opacity="0.3">
<path d="M445.562 433.22L433.733 442.257L432.639 440.836L445.07 432.407L445.562 433.22Z" fill="black"/>
</g>
<path d="M380.814 449.632L380.836 441.678L395.735 441.623L395.826 453.26L394.902 453.323C390.792 453.566 373.985 454.27 371.234 453.447C368.166 452.529 380.814 449.632 380.814 449.632Z" fill="#52CEC7"/>
<g opacity="0.4">
<path d="M374.635 451.268C374.635 451.268 370.203 452.564 370.759 453.293C371.315 454.022 388.326 453.949 395.826 453.261L395.801 452.928L375.96 453.182C375.96 453.182 375.503 451.301 374.635 451.268Z" fill="white"/>
</g>
<path d="M396.036 452.918C396.036 452.924 395.948 452.934 395.78 452.947C395.559 452.961 395.317 452.977 395.044 452.994C394.308 453.029 393.404 453.072 392.337 453.122C390.05 453.214 386.889 453.299 383.397 453.317C379.904 453.334 376.742 453.28 374.454 453.211C373.386 453.171 372.481 453.137 371.746 453.11C371.473 453.095 371.231 453.082 371.01 453.07C370.842 453.059 370.754 453.05 370.754 453.044C370.754 453.038 370.843 453.035 371.011 453.034C371.232 453.036 371.474 453.038 371.748 453.04C372.484 453.052 373.389 453.066 374.457 453.083C376.745 453.119 379.905 453.152 383.396 453.136C386.886 453.118 390.046 453.053 392.333 452.994C393.401 452.966 394.306 452.942 395.042 452.923C395.315 452.918 395.558 452.913 395.779 452.909C395.947 452.909 396.036 452.911 396.036 452.918Z" fill="#263238"/>
<path d="M375.966 453.413C375.911 453.42 375.866 452.774 375.455 452.123C375.055 451.465 374.497 451.136 374.527 451.09C374.538 451.045 375.177 451.323 375.608 452.028C376.047 452.727 376.011 453.424 375.966 453.413Z" fill="#263238"/>
<path d="M380.352 451.164C380.31 451.191 380.099 450.936 379.88 450.594C379.661 450.253 379.518 449.954 379.56 449.927C379.602 449.9 379.813 450.155 380.032 450.496C380.25 450.838 380.394 451.137 380.352 451.164Z" fill="#263238"/>
<path d="M381.555 450.521C381.522 450.558 381.286 450.402 381.028 450.173C380.77 449.944 380.588 449.727 380.621 449.69C380.654 449.653 380.89 449.808 381.148 450.038C381.406 450.267 381.588 450.484 381.555 450.521Z" fill="#263238"/>
<path d="M382.313 449.111C382.314 449.161 381.966 449.207 381.536 449.214C381.106 449.221 380.757 449.185 380.756 449.136C380.755 449.086 381.103 449.041 381.533 449.034C381.963 449.027 382.312 449.062 382.313 449.111Z" fill="#263238"/>
<path d="M382.571 448.119C382.588 448.163 382.21 448.336 381.705 448.375C381.2 448.417 380.799 448.306 380.809 448.259C380.817 448.208 381.211 448.235 381.691 448.195C382.17 448.158 382.555 448.069 382.571 448.119Z" fill="#263238"/>
<path d="M379.841 449.866C379.842 449.886 379.475 449.933 378.883 449.864C378.588 449.83 378.239 449.761 377.863 449.644C377.676 449.578 377.481 449.529 377.278 449.406C377.183 449.343 377.077 449.255 377.04 449.11C377 448.967 377.076 448.805 377.183 448.727C378.096 448.249 379.015 448.76 379.356 449.231C379.544 449.472 379.631 449.707 379.671 449.868C379.71 450.032 379.707 450.125 379.697 450.127C379.663 450.139 379.631 449.75 379.257 449.312C379.073 449.097 378.795 448.889 378.437 448.784C378.099 448.685 377.617 448.66 377.296 448.867C377.144 448.98 377.205 449.159 377.374 449.259C377.532 449.36 377.736 449.421 377.913 449.486C378.276 449.609 378.614 449.689 378.9 449.739C379.476 449.838 379.841 449.837 379.841 449.866Z" fill="#263238"/>
<path d="M379.594 449.915C379.58 449.925 379.438 449.682 379.481 449.251C379.503 449.04 379.58 448.788 379.739 448.55C379.907 448.337 380.123 448.043 380.534 448.059C380.756 448.086 380.865 448.339 380.831 448.5C380.814 448.668 380.739 448.812 380.67 448.928C380.529 449.168 380.369 449.362 380.22 449.509C379.921 449.804 379.684 449.917 379.674 449.899C379.657 449.876 379.864 449.727 380.127 449.422C380.258 449.27 380.399 449.077 380.525 448.846C380.656 448.643 380.744 448.279 380.504 448.237C380.264 448.215 380.021 448.454 379.875 448.646C379.725 448.854 379.643 449.077 379.607 449.27C379.536 449.659 379.626 449.908 379.594 449.915Z" fill="#263238"/>
<path d="M395.715 448.842C395.712 448.876 395.288 448.803 394.615 448.885C393.948 448.962 393.022 449.24 392.218 449.885C391.415 450.532 390.945 451.377 390.726 452.012C390.501 452.652 390.481 453.081 390.447 453.077C390.436 453.076 390.43 452.969 390.445 452.777C390.46 452.584 390.504 452.306 390.604 451.973C390.796 451.311 391.266 450.42 392.104 449.745C392.942 449.072 393.914 448.805 394.602 448.759C394.948 448.733 395.23 448.749 395.421 448.776C395.613 448.803 395.716 448.832 395.715 448.842Z" fill="#263238"/>
<path d="M394.144 442.649C394.194 442.648 394.257 444.018 394.286 445.708C394.315 447.399 394.298 448.77 394.248 448.771C394.198 448.772 394.135 447.402 394.106 445.711C394.077 444.021 394.094 442.65 394.144 442.649Z" fill="#263238"/>
<path d="M388.543 451.719C388.55 451.766 387.579 451.929 386.369 451.944C385.158 451.962 384.184 451.826 384.189 451.779C384.194 451.727 385.167 451.782 386.366 451.764C387.566 451.749 388.537 451.667 388.543 451.719Z" fill="#263238"/>
<path d="M391.464 451.702C391.5 451.738 391.385 451.909 391.287 452.132C391.185 452.355 391.135 452.554 391.084 452.551C391.036 452.551 391.006 452.316 391.122 452.059C391.237 451.8 391.432 451.666 391.464 451.702Z" fill="#263238"/>
<path d="M392.559 450.328C392.595 450.363 392.499 450.518 392.346 450.675C392.193 450.832 392.039 450.931 392.004 450.896C391.968 450.861 392.064 450.706 392.217 450.549C392.37 450.392 392.523 450.293 392.559 450.328Z" fill="#263238"/>
<path d="M394.129 449.695C394.119 449.746 393.921 449.745 393.702 449.823C393.482 449.896 393.326 450.018 393.287 449.984C393.247 449.957 393.371 449.744 393.643 449.652C393.915 449.558 394.144 449.649 394.129 449.695Z" fill="#263238"/>
<path d="M395.248 449.395C395.266 449.441 395.181 449.518 395.058 449.567C394.935 449.616 394.82 449.617 394.801 449.571C394.783 449.525 394.868 449.448 394.991 449.399C395.115 449.35 395.23 449.349 395.248 449.395Z" fill="#263238"/>
<g opacity="0.3">
<path d="M395.826 448.244L380.807 448.259L380.823 446.465L395.772 446.367L395.826 448.244Z" fill="black"/>
</g>
<path d="M417.592 312.349L411.626 330.314C410.015 335.166 405.776 335.996 400.663 335.996H367.477V328.551L397.796 324.222L405.021 305.764L417.592 312.349Z" fill="#B78876"/>
<path d="M363.829 327.004L361.196 325.758C361.196 325.758 358.359 320.272 357.705 320.492C357.051 320.712 356.863 322.326 358.003 324.846L354.504 323.847C354.504 323.847 346.92 327.351 347.255 327.823C347.59 328.295 348.212 329.413 349.863 328.568C351.515 327.723 353.679 326.732 353.679 326.732L357.766 327.899L352.497 328.568L347.541 333.077C347.541 333.077 349.168 334.294 350.572 333.002L363.444 335.767L367.476 335.995V328.55L363.829 327.004Z" fill="#B78876"/>
<path d="M350.575 333.002C350.63 333.038 350.869 332.657 351.333 332.152C351.567 331.904 351.881 331.645 352.27 331.428C352.645 331.219 353.131 331.128 353.66 331.065C355.805 330.811 357.536 330.516 357.523 330.406C357.509 330.296 355.76 330.411 353.61 330.665C353.071 330.73 352.523 330.837 352.084 331.107C351.665 331.365 351.341 331.675 351.117 331.967C350.678 332.557 350.536 332.979 350.575 333.002Z" fill="#AA6550"/>
<path d="M352.587 333.519C352.636 333.519 352.676 333.253 353.037 333.176C353.405 333.109 353.991 333.039 354.601 332.977C355.837 332.852 356.854 332.861 356.864 332.747C356.877 332.64 355.843 332.447 354.562 332.576C353.918 332.645 353.37 332.749 352.942 332.908C352.721 332.999 352.579 333.179 352.551 333.313C352.517 333.451 352.563 333.523 352.587 333.519Z" fill="#AA6550"/>
<path d="M420.404 308.432L417.852 317.078L401.654 309.745C402.236 307.936 404.915 299.872 410.043 287.077C412.9 279.948 419.257 274.803 426.833 273.543C432.134 272.661 437.901 271.973 442.343 272.022C451.426 272.122 464.797 277.8 466.594 286.703C467.965 293.5 466.643 305.499 466.643 320.078L465.458 347.935L418.912 349.514L420.404 308.432Z" fill="#52CEC7"/>
<g opacity="0.3">
<path d="M466.595 313.632C460.931 314.79 455.115 313.623 449.344 313.28C445.845 313.072 441.963 312.694 439.195 314.845C437 316.55 436.117 319.418 435.484 322.124C433.07 332.439 432.631 339.354 432.088 349.935L460.106 351.634L466.595 313.632Z" fill="black"/>
</g>
<path d="M419.211 278.197C419.205 278.238 419.677 278.266 420.449 278.569C421.209 278.881 422.254 279.544 423.13 280.739C424.019 281.92 424.617 283.631 424.732 285.589C424.868 287.546 424.578 289.715 424.243 291.97C423.524 296.483 422.426 300.486 421.642 303.38C421.259 304.777 420.941 305.932 420.701 306.808C420.484 307.619 420.376 308.071 420.402 308.079C420.429 308.087 420.587 307.65 420.851 306.853C421.114 306.055 421.483 304.897 421.915 303.459C422.77 300.582 423.916 296.577 424.64 292.033C424.977 289.766 425.261 287.575 425.102 285.563C424.966 283.557 424.311 281.772 423.358 280.569C422.419 279.35 421.305 278.698 420.505 278.423C420.099 278.291 419.774 278.227 419.552 278.206C419.329 278.186 419.212 278.183 419.211 278.197Z" fill="#263238"/>
<path d="M402.161 307.538C402.136 307.586 403.004 308.093 404.443 308.847C405.882 309.601 407.895 310.593 410.154 311.612C412.414 312.631 414.491 313.483 416.008 314.062C417.525 314.642 418.48 314.956 418.499 314.906C418.52 314.852 417.602 314.444 416.115 313.798C414.628 313.152 412.574 312.261 410.319 311.245C408.065 310.228 406.038 309.279 404.569 308.592C403.101 307.905 402.187 307.487 402.161 307.538Z" fill="#263238"/>
<path d="M394.74 351.633C386.81 355.959 383.798 365.835 387.966 373.849L428.478 443.406L447.169 432.116L415.71 369.316L438.511 354.433" fill="#263238"/>
<path d="M444.066 348.184L388.453 350.153C379.425 350.473 372.313 357.957 372.453 366.989L374.762 446.419L398.151 446.367L397.371 371.267L444.066 370.039V348.184Z" fill="#263238"/>
<path d="M397.371 373.982C397.389 373.982 397.411 374.234 397.438 374.716C397.461 375.249 397.491 375.949 397.529 376.824C397.598 378.655 397.67 381.305 397.738 384.579C397.877 391.128 397.971 400.178 398.022 410.171C398.073 420.142 398.119 429.165 398.153 435.765C398.171 438.997 398.186 441.632 398.197 443.521C398.194 444.396 398.192 445.097 398.19 445.63C398.183 446.112 398.17 446.366 398.152 446.366C398.134 446.366 398.112 446.114 398.085 445.632C398.062 445.099 398.032 444.399 397.994 443.524C397.924 441.693 397.853 439.044 397.785 435.769C397.646 429.22 397.551 420.169 397.501 410.173C397.45 400.206 397.404 391.183 397.37 384.583C397.352 381.351 397.337 378.716 397.326 376.826C397.329 375.951 397.331 375.25 397.333 374.716C397.34 374.236 397.353 373.982 397.371 373.982Z" fill="#455A64"/>
<path d="M468.158 297.777H451.333C444.56 297.777 439.069 303.268 439.069 310.041V368.742H405.453C400.763 368.742 396.961 372.544 396.961 377.234H473.714C473.714 377.218 473.713 377.202 473.713 377.186C477.444 377.027 480.421 373.961 480.421 370.191V310.041C480.421 303.267 474.931 297.777 468.158 297.777Z" fill="#455A64"/>
<path d="M443.961 299.713C444.105 299.713 444.221 316.964 444.221 338.239C444.221 359.522 444.104 376.769 443.961 376.769C443.817 376.769 443.701 359.522 443.701 338.239C443.7 316.964 443.817 299.713 443.961 299.713Z" fill="#263238"/>
<path d="M441.834 438.846V377.266H436.364V438.846C433.024 445.429 425.173 449.884 415.609 453.531H464.374C454.471 449.508 445.533 446.419 441.834 438.846Z" fill="#455A64"/>
</g>
<defs>
<clipPath id="clip0_860_7797">
<rect width="690" height="500" fill="white" transform="translate(0.5)"/>
</clipPath>
</defs>
</svg>
