<svg width="473" height="337" viewBox="0 0 473 337" fill="none" xmlns="http://www.w3.org/2000/svg">
<path d="M0.615234 36.1611C0.615234 16.2789 16.733 0.161133 36.6152 0.161133H436.615C456.497 0.161133 472.615 16.2789 472.615 36.1611V292.161C472.615 312.043 456.497 328.161 436.615 328.161H36.6152C16.733 328.161 0.615234 312.043 0.615234 292.161V36.1611Z" fill="white" fill-opacity="0.06"/>
<path opacity="0.7" d="M335.844 177.858C330.272 210.814 312.588 241.295 287.913 263.84C270.051 280.187 248.556 292.048 225.204 298.443C211.084 302.304 196.417 303.772 181.813 302.787C178.913 302.576 176.016 302.262 173.12 301.844C162.208 300.251 151.29 297.071 142.288 290.717C133.285 284.364 126.382 274.418 125.511 263.423C124.64 252.427 129.646 240.638 125.099 230.538C120.392 220.091 107.828 216.339 98.3 209.979C79.1609 197.206 71.6019 172.1 72.8846 149.125C74.6455 120.247 87.7842 93.2442 109.421 74.0366C130.159 55.8163 165.931 30.3114 245.769 40.3105C269.102 43.2339 301.849 63.0113 315.303 82.2817C334.448 109.678 341.416 144.907 335.844 177.858Z" fill="#263238"/>
<path d="M85.4143 16.6051C85.4143 18.2345 84.0934 19.5554 82.464 19.5554C80.8346 19.5554 79.5137 18.2345 79.5137 16.6051C79.5137 14.9757 80.8346 13.6548 82.464 13.6548C84.0934 13.6548 85.4143 14.9757 85.4143 16.6051Z" fill="#3FCA90"/>
<path d="M74.4768 16.6051C74.4768 18.2345 73.1559 19.5554 71.5265 19.5554C69.8971 19.5554 68.5762 18.2345 68.5762 16.6051C68.5762 14.9757 69.8971 13.6548 71.5265 13.6548C73.1559 13.6548 74.4768 14.9757 74.4768 16.6051Z" fill="#FFE073"/>
<path d="M63.5159 16.6051C63.5159 18.2345 62.195 19.5554 60.5656 19.5554C58.9361 19.5554 57.6152 18.2345 57.6152 16.6051C57.6152 14.9757 58.9361 13.6548 60.5656 13.6548C62.195 13.6548 63.5159 14.9757 63.5159 16.6051Z" fill="#ED5050"/>
<g clip-path="url(#clip0_1516_1120)">
<path d="M380.5 258.582H46.5V258.749H380.5V258.582Z" fill="#EBEBEB"/>
<path d="M103.668 264.944H81.543V265.111H103.668V264.944Z" fill="#EBEBEB"/>
<path d="M166.628 263.131H149V263.298H166.628V263.131Z" fill="#EBEBEB"/>
<path d="M137.272 268.887H106.596V269.054H137.272V268.887Z" fill="#EBEBEB"/>
<path d="M347.034 270.025H332.607V270.192H347.034V270.025Z" fill="#EBEBEB"/>
<path d="M329.36 270.025H308.002V270.192H329.36V270.025Z" fill="#EBEBEB"/>
<path d="M268.498 267.205H231.678V267.372H268.498V267.205Z" fill="#EBEBEB"/>
<path d="M204.825 228.791H75.8344C73.7322 228.791 72.0215 227.08 72.0215 224.978V43.6611C72.0215 41.5589 73.7322 39.8481 75.8344 39.8481H204.825C206.926 39.8481 208.637 41.5589 208.637 43.6611V224.978C208.637 227.08 206.926 228.791 204.825 228.791ZM75.8344 40.0158C73.8237 40.0158 72.1885 41.6511 72.1885 43.6618V224.978C72.1885 226.989 73.8237 228.624 75.8344 228.624H204.825C206.835 228.624 208.47 226.989 208.47 224.978V43.6611C208.47 41.6511 206.835 40.0151 204.825 40.0151L75.8344 40.0158Z" fill="#EBEBEB"/>
<path d="M349.311 228.791H220.322C218.22 228.791 216.51 227.08 216.51 224.978V43.6611C216.51 41.5589 218.221 39.8481 220.322 39.8481H349.311C351.414 39.8481 353.124 41.5589 353.124 43.6611V224.978C353.125 227.08 351.414 228.791 349.311 228.791ZM220.322 40.0158C218.312 40.0158 216.677 41.6511 216.677 43.6618V224.978C216.677 226.989 218.312 228.624 220.322 228.624H349.311C351.322 228.624 352.957 226.989 352.957 224.978V43.6611C352.957 41.6511 351.322 40.0151 349.311 40.0151L220.322 40.0158Z" fill="#EBEBEB"/>
<path d="M104.104 152.101L322.299 152.101V57.4523L104.104 57.4523V152.101Z" fill="#E6E6E6"/>
<path d="M101.097 152.101L320.992 152.101V57.4523L101.097 57.4523V152.101Z" fill="#F5F5F5"/>
<path d="M315.598 146.643V62.9102L106.495 62.9102L106.495 146.643L315.598 146.643Z" fill="#FAFAFA"/>
<path d="M195.4 146.642L171.555 62.9097H154.914L178.76 146.642H195.4Z" fill="white"/>
<path d="M174.043 146.642L150.198 62.9097H138.738L162.584 146.642H174.043Z" fill="white"/>
<path d="M295.517 146.642L271.672 62.9097H255.031L278.877 146.642H295.517Z" fill="white"/>
<path d="M274.16 146.642L250.314 62.9097H238.855L262.701 146.642H274.16Z" fill="white"/>
<path d="M152.715 146.642L152.715 62.9097H146.277L146.277 146.642H152.715Z" fill="#E6E6E6"/>
<path d="M280.125 146.642V62.9097H273.687V146.642H280.125Z" fill="#E6E6E6"/>
<path d="M151.555 150.105L151.555 58.8516H143.418L143.418 150.105H151.555Z" fill="#F5F5F5"/>
<path d="M278.965 150.106V58.8521H270.828V150.106H278.965Z" fill="#F5F5F5"/>
<path d="M107.066 146.642L107.066 62.9097H106.493L106.493 146.642H107.066Z" fill="#E6E6E6"/>
<path d="M98.8328 50.4331H328.166C328.549 50.4331 328.862 50.7464 328.862 51.1292C328.862 51.5119 328.549 51.8252 328.166 51.8252H98.8328C98.45 51.8252 98.1367 51.5119 98.1367 51.1292C98.1367 50.7457 98.45 50.4331 98.8328 50.4331Z" fill="#E6E6E6"/>
<path d="M322.299 55.0255C322.815 55.0255 323.238 54.6027 323.238 54.0863V52.0683C323.238 51.5513 322.815 51.1284 322.299 51.1284C321.782 51.1284 321.359 51.5513 321.359 52.0683V54.0863C321.359 54.6027 321.782 55.0255 322.299 55.0255Z" fill="#E6E6E6"/>
<path d="M109.329 55.0255C109.845 55.0255 110.268 54.6027 110.268 54.0863V52.0683C110.268 51.5513 109.845 51.1284 109.329 51.1284C108.812 51.1284 108.389 51.5513 108.389 52.0683V54.0863C108.389 54.6027 108.812 55.0255 109.329 55.0255Z" fill="#E6E6E6"/>
<path opacity="0.6" d="M99.0555 74.8037L318.852 74.8037V51.1291L99.0555 51.1291V74.8037Z" fill="#E0E0E0"/>
<path d="M176.602 224.716C178.968 223.912 180.691 221.627 179.185 219.286C176.694 215.413 182.929 214.589 181.179 208.106C178.708 198.954 171.05 206.887 169.146 198.102C167.76 191.71 157.026 187.523 156.606 195.937C156.147 205.151 151.528 199.133 150.503 209.376C149.793 216.458 159.873 217.49 156.865 219.705C154.668 221.323 153.368 224.14 156.435 226.068C160.612 228.693 156.67 230.744 159.509 232.576C162.309 234.383 162.812 231.487 167.221 232.909C171.164 234.18 174.505 230.285 173.72 227.849C172.988 225.576 174.22 225.524 176.602 224.716Z" fill="#E6E6E6"/>
<path d="M153.814 228.927C153.814 228.927 154.138 258.583 166.567 258.583C178.995 258.583 179.319 228.927 179.319 228.927H153.814Z" fill="#F0F0F0"/>
<path d="M141.981 224.716C144.347 223.912 146.07 221.627 144.564 219.286C142.073 215.413 148.308 214.589 146.557 208.106C144.087 198.954 136.429 206.887 134.525 198.102C133.139 191.71 122.405 187.523 121.985 195.937C121.526 205.151 116.908 199.133 115.882 209.376C115.172 216.458 125.252 217.49 122.244 219.705C120.047 221.323 118.747 224.14 121.814 226.068C125.991 228.693 122.049 230.744 124.888 232.576C127.688 234.383 128.191 231.487 132.601 232.909C136.544 234.18 139.884 230.285 139.099 227.849C138.366 225.576 139.599 225.524 141.981 224.716Z" fill="#E6E6E6"/>
<path d="M119.193 228.927C119.193 228.927 119.517 258.583 131.945 258.583C144.374 258.583 144.698 228.927 144.698 228.927H119.193Z" fill="#F0F0F0"/>
<path d="M250.673 196.115C252.467 176.289 253.714 144.118 252.745 133.358C252.712 132.985 252.526 132.648 252.242 132.427C251.406 131.777 250.235 132.433 250.27 133.536C250.441 138.868 250.637 152.193 249.574 175.181C249.044 186.624 248.281 194.462 248.805 196.115H250.673Z" fill="#F0F0F0"/>
<path d="M256.195 155.068C260.479 149.698 269.23 145.88 278.147 145.9C281.648 145.908 267.496 152.147 261.61 159.032C257.038 164.38 251.884 173.377 250.131 178.371C251.264 167.864 251.911 160.438 256.195 155.068Z" fill="#F0F0F0"/>
<path d="M247.236 155.014C242.996 149.108 233.208 144.567 222.617 144.054C218.459 143.853 234.278 151.263 240.181 158.859C244.767 164.76 249.469 174.533 250.764 179.892C251.074 168.769 251.477 160.919 247.236 155.014Z" fill="#F0F0F0"/>
<path d="M256.195 163.692C260.479 158.322 269.23 154.504 278.147 154.524C281.648 154.532 267.496 160.77 261.61 167.656C257.038 173.004 251.884 182.002 250.131 186.995C251.264 176.488 251.911 169.062 256.195 163.692Z" fill="#F0F0F0"/>
<path d="M247.236 164.121C242.996 158.215 233.208 153.674 222.617 153.161C218.459 152.959 234.278 160.37 240.181 167.966C244.767 173.866 249.469 183.64 250.764 188.998C251.074 177.875 251.477 170.026 247.236 164.121Z" fill="#F0F0F0"/>
<path d="M255.421 134.781C258.228 130.793 264.236 127.677 270.51 127.253C272.972 127.087 263.258 132.171 259.384 137.303C256.374 141.29 253.095 147.872 252.055 151.471C252.447 144.024 252.615 138.769 255.421 134.781Z" fill="#F0F0F0"/>
<path d="M249.841 136.469C246.852 132.306 239.954 129.106 232.49 128.745C229.56 128.602 240.709 133.825 244.869 139.178C248.101 143.336 251.415 150.224 252.327 154.001C252.545 146.163 252.829 140.63 249.841 136.469Z" fill="#F0F0F0"/>
<path d="M256.386 139.958C260.014 135.411 267.424 132.177 274.975 132.194C277.94 132.201 265.957 137.484 260.973 143.314C257.101 147.843 252.736 155.462 251.252 159.691C252.212 150.793 252.759 144.506 256.386 139.958Z" fill="#F0F0F0"/>
<path d="M249.015 142.379C245.425 137.378 237.136 133.532 228.168 133.098C224.647 132.927 238.042 139.203 243.041 145.634C246.924 150.63 250.906 158.907 252.002 163.444C252.265 154.026 252.606 147.379 249.015 142.379Z" fill="#F0F0F0"/>
<path d="M256.628 146.266C260.541 141.36 268.536 137.872 276.683 137.89C279.881 137.897 266.953 143.596 261.575 149.886C257.398 154.773 252.689 162.992 251.088 167.554C252.124 157.955 252.714 151.172 256.628 146.266Z" fill="#F0F0F0"/>
<path d="M248.452 148.953C244.466 143.4 235.262 139.131 225.305 138.648C221.395 138.458 236.269 145.426 241.82 152.568C246.132 158.115 250.552 167.304 251.769 172.343C252.06 161.886 252.439 154.505 248.452 148.953Z" fill="#F0F0F0"/>
<path d="M238.627 192.765L239.287 198.33C239.359 199.578 240.392 200.553 241.642 200.553H258.265C259.515 200.553 260.547 199.578 260.62 198.33L261.28 192.765C261.358 191.411 260.281 190.271 258.925 190.271H240.982C239.625 190.271 238.549 191.411 238.627 192.765Z" fill="#E6E6E6"/>
<path d="M237.633 193.942H262.273C262.635 193.942 262.939 193.67 262.979 193.31L263.564 188.008C263.61 187.588 263.281 187.22 262.858 187.22H237.048C236.625 187.22 236.296 187.588 236.342 188.008L236.927 193.31C236.968 193.67 237.271 193.942 237.633 193.942Z" fill="#F5F5F5"/>
<path d="M200.764 258.582H211.465V200.553H200.764V258.582Z" fill="#E6E6E6"/>
<path d="M203.972 258.582H200.764V247.478H207.335L203.972 258.582Z" fill="#F0F0F0"/>
<path d="M334.082 258.582H344.783V200.553H334.082V258.582Z" fill="#E6E6E6"/>
<path d="M200.765 251.768L336.883 251.768V200.553H200.765V251.768Z" fill="#F0F0F0"/>
<path d="M333.674 258.582H336.882V247.478H330.311L333.674 258.582Z" fill="#F0F0F0"/>
<path d="M203.252 224.65L334.393 224.65V204.158L203.252 204.158V224.65Z" fill="#E6E6E6"/>
<path d="M222.474 210.526H313.018C316.149 210.526 319.141 207.997 321.294 203.534H214.199C216.352 207.997 219.344 210.526 222.474 210.526Z" fill="#F0F0F0"/>
<path d="M203.252 248.456L334.393 248.456V227.963L203.252 227.963V248.456Z" fill="#E6E6E6"/>
<path d="M222.474 234.331H313.018C316.149 234.331 319.141 231.802 321.294 227.339H214.199C216.352 231.803 219.344 234.331 222.474 234.331Z" fill="#F0F0F0"/>
<path d="M335.233 186.954C335.233 186.954 334.648 200.553 312.219 200.553C289.79 200.553 289.205 186.954 289.205 186.954H335.233Z" fill="#F5F5F5"/>
<path d="M335.233 179.894C335.233 179.894 334.648 193.494 312.219 193.494C289.79 193.494 289.205 179.894 289.205 179.894H335.233Z" fill="#F5F5F5"/>
<path d="M213.5 288.751C285.031 288.751 343.018 285.365 343.018 281.187C343.018 277.01 285.031 273.624 213.5 273.624C141.97 273.624 83.9824 277.01 83.9824 281.187C83.9824 285.365 141.97 288.751 213.5 288.751Z" fill="#F5F5F5"/>
<path d="M292.255 93.5674C288.262 95.7571 286.883 102.275 288.793 105.076C281.841 107.164 285.45 119.083 296.817 119.762C308.185 120.44 316.819 116.279 311.244 107.418C316.76 99.9835 314.218 91.683 309.384 92.6001C304.183 82.2114 286.801 82.5173 292.255 93.5674Z" fill="#263238"/>
<path d="M304.322 120.573C302.693 120.573 300.993 120.155 299.353 119.182C299.274 119.135 299.248 119.032 299.295 118.953C299.341 118.873 299.445 118.847 299.524 118.895C304.105 121.615 309.187 119.845 311.641 116.797C313.461 114.535 314.281 110.914 311.124 107.532C311.06 107.465 311.064 107.359 311.132 107.296C311.2 107.233 311.305 107.236 311.368 107.304C314.671 110.842 313.81 114.635 311.902 117.006C310.238 119.072 307.408 120.573 304.322 120.573Z" fill="#263238"/>
<path d="M287.536 107.293C287.467 107.293 287.403 107.25 287.379 107.181C285.601 102.089 287.98 95.2586 292.181 93.3902C292.266 93.3534 292.364 93.3902 292.401 93.475C292.439 93.5592 292.401 93.658 292.316 93.6955C288.257 95.5004 285.967 102.126 287.694 107.07C287.724 107.157 287.678 107.253 287.591 107.283C287.573 107.289 287.554 107.293 287.536 107.293Z" fill="#263238"/>
<path d="M286.444 99.9388C286.425 99.9388 286.404 99.9355 286.386 99.9281C286.299 99.8954 286.256 99.7992 286.288 99.713C287.49 96.53 289.756 94.1045 292.202 93.383C292.29 93.3563 292.383 93.4078 292.409 93.4959C292.435 93.5848 292.384 93.677 292.295 93.7037C289.949 94.3964 287.766 96.7444 286.6 99.8313C286.576 99.8974 286.512 99.9388 286.444 99.9388Z" fill="#263238"/>
<path d="M295.797 277.629L291.939 277.635L291.289 263.136L297.786 263.295L295.797 277.629Z" fill="#FFB573"/>
<path d="M289.087 152.485C289.087 152.485 288.747 192.734 287.893 210.254C287.867 210.777 287.872 211.294 287.91 211.817C289.179 229.379 291.284 263.131 291.284 263.131L297.822 263.298C297.822 263.298 303.522 236.346 299.992 211.927C305.662 184.313 308.717 159.675 303.581 152.484H289.087V152.485Z" fill="#30BABA"/>
<path opacity="0.2" d="M300.044 168.47C298.06 175.19 299.99 196.793 301.025 206.76C302.435 199.559 303.637 192.632 304.526 186.246L300.044 168.47Z" fill="black"/>
<path d="M291.506 275.755L296.518 275.749C296.748 275.749 296.927 275.904 296.948 276.122L297.454 280.232C297.502 280.737 297.03 281.216 296.499 281.207C294.292 281.173 293.234 281.048 290.448 281.052C288.734 281.054 287.693 281.228 285.327 281.231C283.011 281.234 282.953 278.96 283.949 278.753C288.417 277.824 288.994 277.309 290.546 276.092C290.826 275.874 291.169 275.756 291.506 275.755Z" fill="#263238"/>
<path d="M293.152 122.869C292.904 124.247 292.622 125.563 292.323 126.9C292.028 128.233 291.718 129.563 291.365 130.886C290.661 133.533 289.93 136.181 288.967 138.822C288.482 140.144 287.972 141.468 287.291 142.816C286.955 143.49 286.573 144.174 286.064 144.896C285.932 145.077 285.813 145.253 285.64 145.449C285.47 145.643 285.346 145.815 285.085 146.039C284.644 146.454 284.016 146.872 283.279 147.088C282.548 147.313 281.746 147.319 281.101 147.174C280.455 147.029 279.935 146.783 279.497 146.512C278.635 145.966 278.044 145.359 277.534 144.739C276.524 143.492 275.861 142.236 275.299 140.824C275.013 140.106 275.364 139.292 276.082 139.006C276.621 138.791 277.215 138.936 277.599 139.326L277.682 139.412C278.533 140.282 279.492 141.192 280.382 141.846C280.831 142.164 281.28 142.431 281.605 142.519C281.762 142.557 281.874 142.56 281.891 142.535C281.908 142.505 281.797 142.465 281.7 142.471C281.598 142.47 281.548 142.511 281.574 142.443C281.567 142.445 281.639 142.343 281.686 142.28C281.736 142.224 281.798 142.115 281.858 142.021C282.1 141.629 282.358 141.127 282.589 140.583C283.062 139.504 283.488 138.302 283.873 137.084C284.637 134.634 285.327 132.094 285.931 129.529C286.539 126.971 287.128 124.361 287.662 121.812L287.665 121.798C287.982 120.286 289.464 119.318 290.976 119.635C292.459 119.947 293.419 121.386 293.152 122.869Z" fill="#FFB573"/>
<path d="M287.082 147.02C287.095 148.664 312.691 148.988 312.691 146.817L299.607 143.477L287.082 147.02Z" fill="#263238"/>
<path d="M291.785 118.556C298.59 117.391 305.382 117.532 312.163 118.758C313.831 119.021 314.93 120.636 314.562 122.283C310.942 138.498 311.147 143.945 311.499 152.484H289.089C287.967 138.243 287.377 130.115 287.224 125.495C287.109 121.978 288.303 119.07 291.785 118.556Z" fill="#FFB573"/>
<path opacity="0.2" d="M312.098 123.267C311.864 124.716 312.285 128.103 312.98 129.947C313.267 128.404 313.601 126.747 313.982 124.937L312.098 123.267Z" fill="black"/>
<path d="M304.808 106.718C304.172 109.963 303.537 115.909 305.808 118.074C305.808 118.074 304.921 121.366 298.891 121.366C292.26 121.366 295.722 118.074 295.722 118.074C299.341 117.21 299.247 114.525 298.617 112.004L304.808 106.718Z" fill="#FFB573"/>
<path opacity="0.2" d="M302.284 108.875L298.619 112.001C298.771 112.598 298.888 113.203 298.93 113.792C300.313 113.592 302.212 112.074 302.358 110.627C302.432 109.905 302.401 109.211 302.284 108.875Z" fill="black"/>
<path d="M308.308 101.094C307.071 106.38 306.66 108.643 303.495 110.925C298.736 114.358 292.515 111.682 292.149 106.134C291.819 101.14 293.898 93.3363 299.487 92.1005C304.994 90.8834 309.545 95.8092 308.308 101.094Z" fill="#FFB573"/>
<path d="M306.29 93.145C300.697 93.7656 302.398 104.203 306.604 105.214C311.54 102.801 314.577 93.6373 306.29 93.145Z" fill="#263238"/>
<path d="M333.694 268.073L329.824 269.255L324.184 257.429L330.133 255.801L333.694 268.073Z" fill="#FFB573"/>
<path d="M328.713 268.067L333.682 266.146C333.863 266.076 334.062 266.147 334.163 266.315L336.383 270.069C336.613 270.459 336.425 270.984 336.005 271.138C334.26 271.777 333.423 272.146 331.238 272.99C329.893 273.51 327.805 275.247 325.948 275.964C324.133 276.666 323.296 274.986 323.923 274.398C326.457 272.025 327.565 269.985 328.088 268.627C328.192 268.358 328.448 268.169 328.713 268.067Z" fill="#263238"/>
<path d="M295.234 152.485C295.234 152.485 303.473 194.614 306.579 211.293C309.809 228.641 324.181 257.43 324.181 257.43L330.149 255.797C330.149 255.797 321.978 225.028 318.167 209.779C317.425 182.165 318.306 159.675 311.5 152.485C304.027 152.485 295.234 152.485 295.234 152.485Z" fill="#30BABA"/>
<path d="M299.549 101.063C299.475 101.497 299.184 101.811 298.9 101.763C298.615 101.715 298.445 101.322 298.519 100.888C298.593 100.453 298.884 100.139 299.168 100.187C299.452 100.236 299.623 100.628 299.549 101.063Z" fill="#263238"/>
<path d="M294.633 100.225C294.559 100.66 294.268 100.973 293.984 100.925C293.699 100.877 293.529 100.485 293.603 100.05C293.677 99.6153 293.968 99.302 294.252 99.3501C294.536 99.3989 294.707 99.7903 294.633 100.225Z" fill="#263238"/>
<path d="M294.374 99.3955L293.381 98.9165C293.381 98.9165 293.778 99.8236 294.374 99.3955Z" fill="#263238"/>
<path d="M296.015 101.267C296.015 101.267 294.958 103.013 293.992 103.778C294.475 104.412 295.493 104.333 295.493 104.333L296.015 101.267Z" fill="#ED893E"/>
<path d="M297.575 106.44C297.369 106.436 297.154 106.418 296.926 106.379C296.856 106.367 296.808 106.3 296.82 106.229C296.832 106.159 296.905 106.112 296.969 106.123C298.884 106.448 299.996 105.267 300.007 105.255C300.055 105.202 300.137 105.199 300.19 105.247C300.243 105.296 300.246 105.378 300.198 105.43C300.154 105.479 299.219 106.466 297.575 106.44Z" fill="#263238"/>
<path d="M309.07 105.649C308.513 106.626 307.556 107.255 306.661 107.485C305.313 107.831 304.669 106.619 305.068 105.363C305.427 104.232 306.561 102.69 307.902 102.901C309.222 103.109 309.707 104.531 309.07 105.649Z" fill="#FFB573"/>
<path d="M301.691 100.397C301.582 100.395 301.482 100.324 301.448 100.215C301.095 99.0689 299.631 98.5806 299.617 98.5752C299.48 98.5311 299.406 98.3849 299.45 98.2486C299.494 98.113 299.64 98.0375 299.777 98.0822C299.848 98.1056 301.512 98.6621 301.943 100.061C301.985 100.198 301.908 100.343 301.772 100.385C301.745 100.394 301.718 100.397 301.691 100.397Z" fill="#263238"/>
<path d="M293.543 97.7029C293.454 97.7016 293.369 97.6548 293.322 97.5726C293.25 97.4484 293.293 97.2901 293.418 97.2193C294.66 96.5065 295.732 97.0382 295.777 97.0616C295.905 97.1264 295.955 97.2827 295.89 97.4103C295.825 97.5372 295.67 97.588 295.543 97.5239C295.507 97.5065 294.668 97.1004 293.676 97.6695C293.634 97.6929 293.587 97.7036 293.543 97.7029Z" fill="#263238"/>
<path d="M313.997 119.685C315.902 122.176 317.627 124.695 319.269 127.353C320.09 128.679 320.888 130.028 321.621 131.448C322.356 132.877 323.061 134.313 323.597 136.067C323.667 136.278 323.724 136.525 323.784 136.757L323.831 136.951L323.885 137.233C323.913 137.414 323.934 137.594 323.943 137.759C323.979 138.427 323.911 138.987 323.816 139.492C323.613 140.496 323.301 141.327 322.968 142.118C322.299 143.689 321.483 145.065 320.644 146.407C318.933 149.071 317.046 151.496 314.959 153.825C314.446 154.397 313.567 154.445 312.995 153.932C312.497 153.486 312.396 152.763 312.716 152.206L312.735 152.173C314.211 149.6 315.671 146.957 316.931 144.337C317.564 143.031 318.13 141.701 318.546 140.44C318.748 139.815 318.898 139.193 318.945 138.701C318.973 138.459 318.963 138.257 318.943 138.17C318.939 138.147 318.932 138.138 318.929 138.133L318.925 138.137L318.898 138.057C318.851 137.926 318.818 137.804 318.758 137.659C318.327 136.536 317.638 135.264 316.925 134.036C316.192 132.802 315.414 131.561 314.607 130.331C312.979 127.885 311.241 125.425 309.531 123.05L309.508 123.017C308.605 121.764 308.89 120.017 310.143 119.115C311.373 118.228 313.082 118.489 313.997 119.685Z" fill="#FFB573"/>
<path d="M299.288 100.233L298.295 99.7539C298.295 99.7539 298.692 100.661 299.288 100.233Z" fill="#263238"/>
<path d="M287.852 123.9C288.576 121.003 289.443 118.951 289.443 118.951C289.443 118.951 291.199 118.427 292.58 118.287C293.21 118.853 296.014 121.367 297.812 125.088C300.681 122.193 306.162 119.262 309.502 118.191C311.192 118.023 312.876 118.612 312.876 118.612C310.6 125.799 308.274 133.029 312.394 134.885C312.325 138.299 312.52 142.529 312.69 146.816C308.793 146.389 293.35 145.647 287.081 147.02C286.76 142.679 286.643 138.98 286.664 135.831C283.711 132.102 286.64 127.039 287.852 123.9Z" fill="#263238"/>
<mask id="mask0_1516_1120" style="mask-type:luminance" maskUnits="userSpaceOnUse" x="285" y="118" width="28" height="30">
<path d="M287.852 123.9C288.576 121.003 289.443 118.951 289.443 118.951C289.443 118.951 291.199 118.427 292.58 118.287C293.21 118.853 296.014 121.367 297.812 125.088C300.681 122.193 306.162 119.262 309.502 118.191C311.192 118.023 312.876 118.612 312.876 118.612C310.6 125.799 308.274 133.029 312.394 134.885C312.325 138.299 312.52 142.529 312.69 146.816C308.793 146.389 293.35 145.647 287.081 147.02C286.76 142.679 286.643 138.98 286.664 135.831C283.711 132.102 286.64 127.039 287.852 123.9Z" fill="white"/>
</mask>
<g mask="url(#mask0_1516_1120)">
<g opacity="0.2">
<path d="M293.995 137.27C293.925 137.279 293.863 137.323 293.835 137.387C293.436 138.276 293.304 140.041 293.872 141.487C293.411 141.104 292.96 140.719 292.523 140.333C292.717 139.943 293.707 137.682 291.95 135.338C291.908 135.281 291.839 135.251 291.768 135.259C291.698 135.267 291.636 135.312 291.608 135.376C291.198 136.288 291.073 138.123 291.694 139.589C291.093 139.039 290.523 138.494 289.992 137.966C289.993 137.965 289.994 137.963 289.995 137.962C290.009 137.937 291.376 135.47 289.453 132.906C289.411 132.85 289.341 132.82 289.271 132.828C289.201 132.836 289.139 132.88 289.111 132.945C288.701 133.857 288.576 135.693 289.198 137.159C288.283 136.208 287.519 135.336 286.956 134.616C286.527 132.721 284.77 131.357 283.699 131.135C283.633 131.122 283.565 131.142 283.518 131.189C283.473 131.232 283.449 131.305 283.463 131.371C284.061 134.329 286.243 134.841 286.682 134.914C286.992 135.309 287.36 135.745 287.778 136.215C286.584 135.692 285.221 135.605 284.434 135.815C284.367 135.833 284.313 135.885 284.293 135.953C284.274 136.02 284.29 136.092 284.338 136.144C286.25 138.227 288.523 137.732 289.049 137.58C289.425 137.967 289.825 138.367 290.245 138.773C288.705 138.301 286.86 138.564 285.967 139.028C285.903 139.061 285.862 139.127 285.859 139.2C285.857 139.272 285.894 139.34 285.956 139.377C288.429 140.859 290.616 139.814 291.075 139.561C291.637 140.084 292.228 140.614 292.844 141.143C291.368 140.435 289.448 140.503 288.495 140.892C288.429 140.918 288.382 140.979 288.372 141.049C288.362 141.12 288.391 141.191 288.447 141.235C290.98 143.208 293.505 141.925 293.53 141.912C293.548 141.902 293.565 141.89 293.579 141.876C293.6 141.855 293.614 141.828 293.624 141.8C293.872 142.006 294.124 142.211 294.379 142.415C294.381 142.418 294.383 142.421 294.385 142.425C294.408 142.456 294.439 142.478 294.474 142.491C294.875 142.81 295.282 143.126 295.696 143.436C295.777 143.497 295.888 143.487 295.958 143.417C295.964 143.411 295.97 143.403 295.976 143.395C296.043 143.307 296.024 143.182 295.936 143.115C295.553 142.828 295.174 142.535 294.801 142.239C295.067 141.645 295.816 139.533 294.179 137.349C294.135 137.293 294.066 137.262 293.995 137.27Z" fill="white"/>
<path d="M287.407 126.919C287.477 126.911 287.538 126.866 287.567 126.802C287.966 125.914 288.098 124.149 287.529 122.702C287.991 123.085 288.442 123.47 288.879 123.856C288.685 124.246 287.694 126.507 289.451 128.852C289.494 128.908 289.563 128.938 289.634 128.93C289.704 128.922 289.765 128.878 289.794 128.814C290.203 127.902 290.329 126.067 289.707 124.6C290.308 125.151 290.879 125.696 291.409 126.223C291.409 126.224 291.407 126.226 291.407 126.227C291.393 126.252 290.026 128.719 291.948 131.282C291.991 131.339 292.061 131.369 292.131 131.361C292.201 131.353 292.262 131.309 292.291 131.244C292.7 130.332 292.826 128.496 292.203 127.03C293.119 127.981 293.883 128.853 294.446 129.573C294.875 131.468 296.632 132.832 297.702 133.054C297.769 133.067 297.837 133.047 297.884 133C297.929 132.957 297.952 132.884 297.939 132.818C297.34 129.86 295.159 129.348 294.72 129.274C294.41 128.88 294.042 128.443 293.624 127.974C294.818 128.497 296.181 128.584 296.968 128.374C297.036 128.356 297.089 128.304 297.109 128.236C297.129 128.169 297.112 128.097 297.064 128.045C295.153 125.962 292.879 126.457 292.353 126.609C291.977 126.222 291.578 125.822 291.157 125.415C292.698 125.888 294.542 125.624 295.435 125.161C295.499 125.128 295.541 125.062 295.543 124.989C295.545 124.917 295.509 124.849 295.447 124.812C292.974 123.33 290.787 124.375 290.328 124.628C289.766 124.105 289.175 123.574 288.559 123.046C290.035 123.753 291.955 123.686 292.908 123.297C292.974 123.27 293.021 123.21 293.031 123.14C293.04 123.069 293.012 122.998 292.956 122.955C290.423 120.982 287.898 122.264 287.873 122.278C287.855 122.287 287.838 122.299 287.824 122.314C287.803 122.335 287.789 122.361 287.779 122.389C287.531 122.184 287.279 121.979 287.024 121.775C287.022 121.771 287.02 121.768 287.018 121.765C286.995 121.734 286.964 121.712 286.929 121.699C286.528 121.379 286.121 121.063 285.707 120.753C285.626 120.693 285.515 120.703 285.445 120.772C285.439 120.779 285.433 120.786 285.427 120.794C285.36 120.882 285.378 121.008 285.467 121.074C285.85 121.361 286.229 121.655 286.602 121.951C286.336 122.544 285.587 124.657 287.224 126.841C287.267 126.896 287.336 126.926 287.407 126.919Z" fill="white"/>
<path d="M308.005 142.143C307.935 142.151 307.873 142.196 307.845 142.26C307.446 143.149 307.313 144.913 307.882 146.36C307.42 145.977 306.969 145.591 306.533 145.206C306.726 144.816 307.717 142.554 305.96 140.21C305.917 140.153 305.849 140.123 305.778 140.131C305.708 140.139 305.646 140.184 305.617 140.248C305.208 141.16 305.082 142.995 305.704 144.461C305.103 143.911 304.533 143.366 304.002 142.838C304.003 142.837 304.004 142.835 304.005 142.834C304.019 142.809 305.386 140.342 303.463 137.779C303.42 137.722 303.351 137.692 303.281 137.7C303.211 137.708 303.149 137.752 303.12 137.817C302.711 138.729 302.585 140.565 303.208 142.031C302.292 141.08 301.529 140.208 300.965 139.488C300.537 137.593 298.78 136.229 297.709 136.007C297.643 135.994 297.575 136.014 297.527 136.061C297.483 136.104 297.459 136.177 297.472 136.243C298.071 139.201 300.253 139.713 300.692 139.787C301.002 140.181 301.37 140.618 301.788 141.087C300.594 140.564 299.231 140.477 298.444 140.687C298.376 140.705 298.323 140.757 298.303 140.825C298.283 140.892 298.3 140.964 298.348 141.016C300.259 143.099 302.533 142.604 303.059 142.452C303.435 142.839 303.835 143.239 304.255 143.646C302.714 143.173 300.87 143.436 299.977 143.9C299.913 143.933 299.871 143.999 299.869 144.072C299.867 144.144 299.903 144.212 299.966 144.249C302.438 145.731 304.625 144.686 305.085 144.433C305.647 144.956 306.238 145.486 306.854 146.015C305.378 145.308 303.458 145.375 302.505 145.764C302.438 145.791 302.392 145.851 302.382 145.921C302.372 145.992 302.401 146.063 302.457 146.107C304.989 148.08 307.515 146.797 307.54 146.784C307.558 146.774 307.575 146.762 307.589 146.748C307.609 146.727 307.623 146.7 307.633 146.672C307.882 146.878 308.134 147.083 308.388 147.287C308.391 147.29 308.393 147.294 308.395 147.297C308.418 147.328 308.449 147.35 308.484 147.363C308.885 147.682 309.292 147.998 309.706 148.308C309.786 148.369 309.898 148.359 309.967 148.29C309.974 148.283 309.98 148.275 309.986 148.267C310.052 148.179 310.034 148.054 309.946 147.988C309.563 147.7 309.184 147.407 308.81 147.111C309.077 146.517 309.826 144.405 308.189 142.221C308.144 142.165 308.075 142.135 308.005 142.143Z" fill="white"/>
<path d="M320.848 146.782C320.778 146.79 320.716 146.835 320.688 146.899C320.289 147.787 320.157 149.552 320.725 150.999C320.263 150.616 319.813 150.231 319.376 149.845C319.569 149.455 320.56 147.194 318.803 144.85C318.76 144.793 318.692 144.763 318.621 144.771C318.551 144.779 318.489 144.824 318.46 144.888C318.051 145.8 317.925 147.635 318.547 149.101C317.945 148.551 317.376 148.006 316.845 147.478C316.846 147.477 316.847 147.476 316.848 147.474C316.862 147.449 318.229 144.982 316.306 142.419C316.263 142.362 316.194 142.332 316.124 142.34C316.054 142.348 315.992 142.393 315.963 142.457C315.554 143.369 315.428 145.205 316.051 146.671C315.136 145.72 314.372 144.848 313.809 144.128C313.38 142.234 311.623 140.87 310.553 140.647C310.487 140.634 310.418 140.654 310.371 140.701C310.326 140.744 310.303 140.817 310.316 140.883C310.915 143.841 313.096 144.353 313.536 144.427C313.846 144.821 314.213 145.258 314.632 145.727C313.438 145.204 312.074 145.117 311.287 145.327C311.22 145.345 311.167 145.397 311.147 145.465C311.127 145.532 311.144 145.604 311.191 145.656C313.103 147.739 315.377 147.244 315.903 147.091C316.279 147.479 316.678 147.878 317.098 148.286C315.558 147.813 313.714 148.077 312.821 148.54C312.756 148.573 312.715 148.638 312.712 148.711C312.71 148.784 312.747 148.851 312.81 148.889C315.282 150.371 317.469 149.326 317.929 149.073C318.491 149.596 319.082 150.126 319.698 150.654C318.221 149.947 316.302 150.014 315.348 150.403C315.282 150.43 315.235 150.491 315.225 150.561C315.215 150.632 315.245 150.703 315.301 150.746C317.833 152.719 320.358 151.436 320.384 151.423C320.402 151.413 320.418 151.401 320.432 151.387C320.454 151.366 320.467 151.339 320.477 151.311C320.726 151.517 320.978 151.722 321.232 151.926C321.235 151.929 321.237 151.932 321.239 151.936C321.261 151.966 321.293 151.988 321.328 152.002C321.729 152.321 322.136 152.637 322.549 152.947C322.63 153.008 322.742 152.998 322.811 152.928C322.817 152.922 322.823 152.914 322.829 152.906C322.895 152.818 322.877 152.692 322.789 152.626C322.406 152.339 322.027 152.046 321.654 151.75C321.92 151.156 322.669 149.044 321.032 146.86C320.988 146.805 320.918 146.775 320.848 146.782Z" fill="white"/>
<path d="M291.476 147.513C291.405 147.521 291.344 147.566 291.315 147.63C290.916 148.518 290.784 150.283 291.353 151.73C290.891 151.347 290.44 150.962 290.003 150.576C290.197 150.186 291.188 147.924 289.431 145.581C289.388 145.524 289.319 145.494 289.248 145.502C289.178 145.51 289.117 145.555 289.088 145.619C288.679 146.531 288.553 148.366 289.175 149.832C288.574 149.282 288.003 148.737 287.473 148.209C287.474 148.208 287.475 148.207 287.476 148.205C287.49 148.18 288.856 145.713 286.934 143.15C286.891 143.093 286.822 143.063 286.751 143.071C286.681 143.079 286.62 143.124 286.591 143.188C286.182 144.1 286.056 145.936 286.679 147.402C285.763 146.451 284.999 145.579 284.436 144.858C284.007 142.964 282.25 141.6 281.18 141.377C281.114 141.363 281.045 141.384 280.998 141.431C280.953 141.474 280.93 141.547 280.943 141.613C281.542 144.571 283.723 145.083 284.162 145.157C284.472 145.551 284.84 145.988 285.258 146.458C284.064 145.934 282.701 145.848 281.914 146.057C281.846 146.075 281.793 146.128 281.773 146.195C281.753 146.262 281.77 146.335 281.818 146.386C283.729 148.469 286.003 147.974 286.529 147.822C286.905 148.209 287.305 148.608 287.725 149.016C286.184 148.543 284.34 148.807 283.447 149.27C283.383 149.303 283.341 149.369 283.339 149.441C283.337 149.514 283.373 149.582 283.436 149.619C285.908 151.101 288.095 150.056 288.555 149.803C289.117 150.326 289.708 150.856 290.324 151.385C288.848 150.677 286.928 150.745 285.975 151.134C285.908 151.16 285.862 151.221 285.852 151.291C285.842 151.362 285.87 151.433 285.927 151.476C288.46 153.449 290.985 152.166 291.01 152.153C291.028 152.144 291.045 152.132 291.059 152.117C291.079 152.096 291.093 152.069 291.103 152.041C291.352 152.247 291.604 152.452 291.858 152.656C291.861 152.659 291.863 152.663 291.865 152.666C291.888 152.697 291.919 152.719 291.954 152.732C292.355 153.051 292.762 153.367 293.176 153.677C293.256 153.738 293.368 153.728 293.437 153.659C293.443 153.652 293.449 153.645 293.455 153.637C293.522 153.548 293.504 153.423 293.415 153.357C293.032 153.069 292.653 152.776 292.28 152.48C292.546 151.886 293.295 149.774 291.658 147.59C291.615 147.536 291.546 147.506 291.476 147.513Z" fill="white"/>
<path d="M307.577 119.401C307.507 119.409 307.446 119.454 307.417 119.518C307.018 120.407 306.886 122.172 307.454 123.618C306.993 123.235 306.542 122.85 306.105 122.464C306.299 122.074 307.289 119.813 305.532 117.469C305.49 117.412 305.421 117.382 305.35 117.39C305.28 117.398 305.218 117.443 305.19 117.507C304.78 118.419 304.655 120.254 305.277 121.72C304.675 121.17 304.105 120.624 303.574 120.097C303.575 120.095 303.576 120.094 303.577 120.093C303.591 120.068 304.958 117.601 303.035 115.037C302.993 114.981 302.924 114.95 302.853 114.958C302.783 114.967 302.721 115.011 302.693 115.075C302.283 115.988 302.158 117.824 302.78 119.29C301.865 118.339 301.101 117.467 300.538 116.747C300.109 114.852 298.352 113.488 297.281 113.266C297.215 113.252 297.147 113.272 297.1 113.32C297.055 113.363 297.031 113.435 297.045 113.502C297.643 116.459 299.825 116.972 300.265 117.045C300.574 117.439 300.942 117.876 301.36 118.346C300.166 117.823 298.803 117.736 298.016 117.946C297.949 117.964 297.895 118.016 297.875 118.083C297.856 118.151 297.872 118.223 297.92 118.275C299.832 120.358 302.106 119.863 302.631 119.711C303.007 120.098 303.407 120.498 303.827 120.904C302.287 120.431 300.442 120.695 299.549 121.159C299.485 121.192 299.444 121.258 299.441 121.331C299.439 121.403 299.476 121.471 299.538 121.508C302.01 122.99 304.197 121.945 304.657 121.692C305.218 122.215 305.81 122.745 306.425 123.274C304.949 122.566 303.029 122.634 302.076 123.023C302.01 123.049 301.963 123.109 301.953 123.18C301.943 123.251 301.972 123.322 302.029 123.366C304.561 125.339 307.086 124.056 307.112 124.043C307.13 124.033 307.146 124.021 307.16 124.007C307.182 123.986 307.195 123.959 307.205 123.931C307.454 124.137 307.705 124.342 307.96 124.546C307.963 124.549 307.965 124.552 307.967 124.556C307.989 124.586 308.021 124.608 308.055 124.622C308.456 124.941 308.864 125.257 309.277 125.567C309.358 125.628 309.47 125.618 309.538 125.548C309.545 125.542 309.551 125.534 309.557 125.526C309.623 125.438 309.605 125.312 309.517 125.246C309.134 124.959 308.755 124.666 308.381 124.37C308.648 123.776 309.397 121.664 307.759 119.48C307.717 119.423 307.648 119.393 307.577 119.401Z" fill="white"/>
<path d="M301.23 132.04C301.3 132.033 301.362 131.987 301.39 131.923C301.789 131.035 301.922 129.27 301.353 127.823C301.815 128.206 302.266 128.591 302.702 128.977C302.509 129.367 301.518 131.629 303.275 133.972C303.318 134.029 303.386 134.059 303.457 134.051C303.527 134.043 303.589 133.998 303.618 133.934C304.027 133.022 304.153 131.187 303.531 129.721C304.132 130.271 304.702 130.816 305.233 131.344C305.232 131.345 305.231 131.346 305.23 131.348C305.216 131.373 303.849 133.84 305.772 136.404C305.815 136.46 305.884 136.49 305.954 136.482C306.024 136.474 306.086 136.43 306.115 136.365C306.524 135.453 306.65 133.617 306.027 132.151C306.942 133.102 307.706 133.974 308.27 134.695C308.698 136.589 310.455 137.953 311.526 138.176C311.592 138.19 311.66 138.169 311.708 138.122C311.752 138.079 311.776 138.006 311.762 137.94C311.164 134.982 308.982 134.47 308.543 134.396C308.233 134.002 307.865 133.565 307.447 133.096C308.641 133.619 310.004 133.705 310.791 133.496C310.859 133.478 310.912 133.426 310.931 133.358C310.951 133.291 310.934 133.218 310.887 133.167C308.974 131.084 306.701 131.579 306.175 131.732C305.799 131.344 305.4 130.945 304.98 130.538C306.52 131.011 308.364 130.747 309.257 130.284C309.322 130.251 309.363 130.185 309.366 130.112C309.368 130.039 309.331 129.972 309.268 129.935C306.796 128.453 304.609 129.498 304.149 129.751C303.588 129.228 302.996 128.697 302.381 128.169C303.857 128.877 305.777 128.809 306.73 128.42C306.797 128.394 306.843 128.333 306.853 128.263C306.863 128.192 306.834 128.121 306.778 128.078C304.245 126.105 301.72 127.388 301.695 127.401C301.677 127.41 301.66 127.423 301.646 127.437C301.626 127.458 301.612 127.484 301.602 127.512C301.353 127.307 301.101 127.102 300.847 126.898C300.844 126.895 300.842 126.891 300.84 126.888C300.817 126.857 300.786 126.835 300.751 126.822C300.35 126.502 299.943 126.186 299.529 125.877C299.449 125.816 299.337 125.826 299.268 125.895C299.261 125.902 299.255 125.909 299.249 125.917C299.183 126.005 299.201 126.131 299.289 126.197C299.672 126.484 300.051 126.778 300.425 127.074C300.158 127.667 299.409 129.78 301.046 131.964C301.091 132.018 301.16 132.048 301.23 132.04Z" fill="white"/>
</g>
</g>
<path d="M304.164 137.811L259.412 142.322C256.934 142.572 255.111 144.803 255.361 147.28L256.903 162.584C258.015 161.799 259.335 161.277 260.785 161.131C265.271 160.678 269.275 163.949 269.727 168.435C270.179 172.922 266.909 176.925 262.422 177.377C260.972 177.523 259.575 177.276 258.329 176.728L259.871 192.032C260.121 194.509 262.352 196.332 264.83 196.082L309.582 191.572C312.059 191.322 313.882 189.091 313.632 186.614L309.122 141.862C308.872 139.385 306.641 137.562 304.164 137.811Z" fill="#30BABA"/>
<path opacity="0.3" d="M304.164 137.811L259.412 142.322C256.934 142.572 255.111 144.803 255.361 147.28L256.903 162.584C258.015 161.799 259.335 161.277 260.785 161.131C265.271 160.678 269.275 163.949 269.727 168.435C270.179 172.922 266.909 176.925 262.422 177.377C260.972 177.523 259.575 177.276 258.329 176.728L259.871 192.032C260.121 194.509 262.352 196.332 264.83 196.082L309.582 191.572C312.059 191.322 313.882 189.091 313.632 186.614L309.122 141.862C308.872 139.385 306.641 137.562 304.164 137.811Z" fill="black"/>
<path d="M316.385 151.535L314.316 150.632L309.455 151.878C308.897 152.022 308.402 152.348 308.05 152.805L307.023 154.141C306.553 154.751 306.589 155.611 307.108 156.181L308.273 157.458C308.853 158.093 309.831 158.153 310.483 157.593L313.122 155.328C313.122 155.328 316.286 153.806 316.385 151.535Z" fill="#FFB573"/>
<path d="M274.212 143.194L276.365 142.921C276.958 142.846 277.432 142.393 277.533 141.804L277.827 140.096C277.977 139.227 277.271 138.447 276.391 138.51L273.881 138.691C273.151 138.743 272.594 139.364 272.62 140.094L272.683 141.893C272.712 142.692 273.42 143.294 274.212 143.194Z" fill="#FFB573"/>
<path d="M307.688 94.0999C302.382 96.7719 293.066 95.5475 293.066 95.5475C293.066 95.5475 298.262 87.0485 307.688 94.0999Z" fill="#263238"/>
<path d="M214.356 263.589L211.687 277.461L204.939 275.829L207.609 261.957L214.356 263.589Z" fill="#7F3E3B"/>
<path d="M205.153 272.998L212.656 274.626C212.902 274.68 213.061 274.894 213.038 275.141L212.519 280.652C212.466 281.223 211.877 281.646 211.312 281.513C208.954 280.954 208.246 280.609 205.266 279.956C201.782 279.194 200.546 279.399 196.46 278.504C193.989 277.963 194.101 275.373 195.207 275.366C198.709 275.343 201.75 274.26 203.554 273.14C204.026 272.848 204.634 272.884 205.153 272.998Z" fill="#263238"/>
<path opacity="0.2" d="M214.36 263.594L212.983 270.744L206.232 269.111L207.61 261.96L214.36 263.594Z" fill="black"/>
<path d="M226.096 210.154C234.011 186.869 240.281 159.404 240.281 159.404L217.699 157.979C217.699 157.979 214.373 193.634 212.639 210.072C210.835 227.162 205.227 265.741 205.227 265.741L215.414 267.806C215.414 267.806 224.971 231.461 226.096 210.154Z" fill="#263238"/>
<path opacity="0.2" d="M229.866 172.345L235.346 179.119C233.95 184.349 232.319 190.226 230.526 196.234C228.816 183.548 229.866 172.345 229.866 172.345Z" fill="#263238"/>
<path d="M205.379 267.172L214.718 269.217C215.103 269.302 215.489 269.084 215.616 268.712L216.648 265.7C216.797 265.267 216.539 264.801 216.093 264.696L205.956 262.312C205.491 262.203 205.04 262.536 205.006 263.011L204.771 266.362C204.746 266.745 205.004 267.09 205.379 267.172Z" fill="#263238"/>
<path opacity="0.1" d="M205.379 267.172L214.718 269.217C215.103 269.302 215.489 269.084 215.616 268.712L216.648 265.7C216.797 265.267 216.539 264.801 216.093 264.696L205.956 262.312C205.491 262.203 205.04 262.536 205.006 263.011L204.771 266.362C204.746 266.745 205.004 267.09 205.379 267.172Z" fill="white"/>
<path d="M251.495 263.108L251.914 277.422L245.068 277.325L244.648 263.011L251.495 263.108Z" fill="#7F3E3B"/>
<path d="M244.904 274.39L252.182 274.496C252.434 274.5 252.632 274.678 252.659 274.925L253.245 280.429C253.305 280.999 252.812 281.532 252.232 281.512C249.81 281.433 249.048 281.235 245.998 281.188C242.432 281.132 241.659 281.579 237.477 281.513C234.948 281.474 234.543 278.913 235.626 278.686C239.053 277.969 241.819 276.303 243.365 274.848C243.77 274.466 244.372 274.382 244.904 274.39Z" fill="#263238"/>
<path opacity="0.2" d="M251.499 263.111L251.714 270.49L244.865 270.393L244.65 263.015L251.499 263.111Z" fill="black"/>
<path d="M249.79 209.683C247.857 185.183 249.493 171.97 246.646 159.805L226.096 158.531C226.096 158.531 232.475 194.534 235.999 210.824C239.536 227.178 243.305 266.668 243.305 266.668L253.407 266.792C253.407 266.792 254.643 228.794 249.79 209.683Z" fill="#263238"/>
<path d="M243.336 268.48L252.89 268.631C253.302 268.637 253.647 268.319 253.674 267.909L253.884 264.753C253.913 264.316 253.574 263.942 253.136 263.929L242.732 263.605C242.236 263.59 241.854 264.038 241.948 264.525L242.589 267.853C242.657 268.213 242.97 268.474 243.336 268.48Z" fill="#263238"/>
<path opacity="0.1" d="M243.336 268.48L252.89 268.631C253.302 268.637 253.647 268.319 253.674 267.909L253.884 264.753C253.913 264.316 253.574 263.942 253.136 263.929L242.732 263.605C242.236 263.59 241.854 264.038 241.948 264.525L242.589 267.853C242.657 268.213 242.97 268.474 243.336 268.48Z" fill="white"/>
<path d="M225.437 120.845C224.645 122.551 223.829 124.061 222.933 125.62C222.036 127.16 221.093 128.682 220.049 130.167C219.012 131.659 217.892 133.123 216.606 134.544C215.293 135.965 213.903 137.369 211.812 138.602L211.581 138.738C210.753 139.226 209.783 139.301 208.934 139.03C207.636 138.612 206.37 138.137 205.138 137.626C203.903 137.121 202.7 136.557 201.515 135.976C200.336 135.381 199.174 134.762 198.039 134.098C196.899 133.426 195.799 132.745 194.69 131.952C193.762 131.288 193.548 129.997 194.212 129.069C194.717 128.362 195.585 128.069 196.381 128.262L196.454 128.28C197.648 128.573 198.88 128.918 200.086 129.234L203.702 130.187C204.897 130.513 206.098 130.789 207.28 131.081C208.464 131.37 209.644 131.605 210.805 131.847L207.927 132.276C208.731 131.696 209.72 130.604 210.628 129.462C211.538 128.285 212.42 126.991 213.27 125.652C214.111 124.304 214.941 122.922 215.731 121.506C216.519 120.111 217.319 118.624 218.028 117.276L218.069 117.199C219.127 115.189 221.613 114.418 223.622 115.475C225.568 116.5 226.348 118.873 225.437 120.845Z" fill="#7F3E3B"/>
<path d="M227.079 109.172C219.102 110.08 213.066 122.431 213.066 122.431L221.297 131.191C221.297 131.191 224.963 126.817 228.901 121.294C233.192 115.279 233.389 108.455 227.079 109.172Z" fill="#30BABA"/>
<path d="M226.096 111.02C229.163 109.931 242.897 111.69 242.897 111.69C240.211 115.137 237.994 143.677 237.747 160.085C234.831 160.486 223.636 159.72 221.041 159.118C221.384 152.677 224.07 122.475 226.096 111.02Z" fill="white"/>
<path d="M217.231 119.681C217.951 113.534 223.205 108.959 229.395 108.953C234.81 108.947 241.047 109.669 246.468 110.835C250.138 111.624 252.435 115.287 251.564 118.938C247.334 136.676 248.451 153.504 247.32 161.327C247.32 161.327 241.887 163.603 234.735 163.363C234.735 163.363 234.833 156.606 235.775 145.202C236.523 136.138 237.872 114.825 240.634 111.281C240.634 111.281 230.723 109.933 227.656 111.021C225.381 123.882 223.706 162.835 223.706 162.842C218.858 162.496 216.575 159.797 216.644 158.991C215.675 143.204 216.15 128.915 217.231 119.681Z" fill="#30BABA"/>
<path d="M240.998 99.9521C240.073 102.63 238.997 107.358 240.715 110.022C241.067 110.567 240.916 111.203 240.295 111.545C238.104 112.751 235.288 113.845 231.178 113.509C226.87 113.157 227.186 111.217 228.274 109.951C228.504 109.684 228.866 109.494 229.288 109.444C233.359 108.955 233.403 106.504 232.813 104.126L240.998 99.9521Z" fill="#7F3E3B"/>
<path opacity="0.2" d="M237.661 101.656L232.816 104.124C232.965 104.711 233.07 105.302 233.081 105.867C234.838 105.866 237.341 104.684 237.63 103.33C237.774 102.654 237.785 101.991 237.661 101.656Z" fill="black"/>
<path d="M234.539 90.6665C234.357 93.0766 232.751 94.9209 230.951 94.7847C229.152 94.6491 227.84 92.5849 228.023 90.1741C228.204 87.764 229.811 85.9196 231.611 86.0559C233.41 86.1915 234.721 88.2556 234.539 90.6665Z" fill="#263238"/>
<path d="M243.618 92.6497C242.725 97.9255 242.465 101.058 239.537 103.506C235.133 107.188 228.959 104.078 228.287 98.647C227.682 93.7585 229.244 85.9516 234.577 84.3765C239.83 82.8247 244.511 87.3738 243.618 92.6497Z" fill="#7F3E3B"/>
<path d="M242.472 97.1059C242.407 97.0906 242.323 97.0224 242.252 97.0618C239.856 98.3945 239.086 95.5248 239.234 93.617C239.327 92.4199 239.952 91.0939 240.998 90.3511C238.409 90.6484 235.9 88.9784 235.855 87.4193C232.991 88.6811 229.539 88.792 227.981 86.0833C226.422 83.3738 228.647 79.923 231.617 80.8508C230.413 78.6985 235.496 74.3933 240.822 80.7393C240.989 76.1374 248.43 80.7112 247.204 85.267C250.656 86.4547 253.606 92.9991 247.761 94.3965C247.371 100.464 242.472 97.1059 242.472 97.1059Z" fill="#263238"/>
<path d="M245.287 98.7632C244.374 99.8701 243.12 100.469 242.054 100.585C240.452 100.759 240.098 99.134 240.92 97.6517C241.659 96.3177 243.384 94.619 244.812 95.1347C246.219 95.6417 246.331 97.4974 245.287 98.7632Z" fill="#7F3E3B"/>
<path d="M235.976 93.0491C235.938 93.4846 235.676 93.8153 235.39 93.7879C235.106 93.7605 234.906 93.3851 234.944 92.9489C234.982 92.5134 235.244 92.1827 235.529 92.2101C235.814 92.2381 236.014 92.6136 235.976 93.0491Z" fill="#263238"/>
<path d="M230.798 92.47C230.76 92.9055 230.498 93.2362 230.213 93.2088C229.928 93.1814 229.728 92.806 229.767 92.3698C229.805 91.9343 230.066 91.6036 230.352 91.631C230.636 91.659 230.837 92.0345 230.798 92.47Z" fill="#263238"/>
<path d="M232.822 92.7217C232.822 92.7217 231.61 95.1385 230.412 96.2454C231.12 97.0396 232.46 96.8379 232.46 96.8379L232.822 92.7217Z" fill="#630F0F"/>
<path d="M233.803 98.963C235.478 99.0672 236.451 98.0839 236.496 98.0371C236.545 97.9864 236.543 97.9049 236.492 97.8554C236.442 97.806 236.36 97.8067 236.311 97.8574C236.3 97.8688 235.165 99.0104 233.285 98.6363C233.216 98.623 233.148 98.6677 233.135 98.7372C233.122 98.8067 233.168 98.8748 233.237 98.8882C233.434 98.9276 233.623 98.9516 233.803 98.963Z" fill="#263238"/>
<path d="M237.686 92.0032C237.729 92.0078 237.773 92.0018 237.814 91.9831C237.944 91.927 238.002 91.7754 237.945 91.6444C237.371 90.3378 236.203 90.1241 236.153 90.1161C236.013 90.092 235.882 90.1862 235.859 90.3265C235.836 90.4661 235.931 90.599 236.07 90.6231C236.109 90.6297 237.016 90.8061 237.475 91.8488C237.515 91.9377 237.597 91.9938 237.686 92.0032Z" fill="#263238"/>
<path d="M228.632 90.3417C228.712 90.3644 228.801 90.3477 228.868 90.2896C229.723 89.5507 230.616 89.7919 230.654 89.8026C230.79 89.8413 230.931 89.7625 230.969 89.6262C231.007 89.49 230.929 89.3483 230.793 89.3083C230.743 89.2949 229.602 88.9723 228.532 89.8981C228.425 89.9903 228.413 90.1533 228.506 90.2615C228.542 90.3009 228.585 90.3283 228.632 90.3417Z" fill="#263238"/>
<path d="M253.167 118.578C253.598 119.425 253.954 120.158 254.302 120.955C254.652 121.738 254.99 122.521 255.316 123.31C255.976 124.884 256.562 126.487 257.11 128.111C258.201 131.357 259.08 134.707 259.66 138.178L259.847 139.493L259.936 140.151L259.958 140.316L259.986 140.609C260.002 140.822 260.015 141.039 260.02 141.248C259.989 142.785 259.646 143.827 259.303 144.801C258.596 146.706 257.714 148.248 256.781 149.739C255.843 151.219 254.846 152.61 253.789 153.944C252.731 155.284 251.648 156.551 250.437 157.797C249.644 158.612 248.341 158.63 247.526 157.837C246.876 157.205 246.733 156.248 247.104 155.473L247.131 155.417C248.513 152.539 249.978 149.628 251.147 146.787C251.444 146.079 251.715 145.374 251.948 144.684C252.191 144.002 252.398 143.326 252.527 142.721C252.658 142.132 252.689 141.558 252.645 141.452C252.635 141.457 252.628 141.471 252.627 141.48C252.624 141.473 252.634 141.517 252.622 141.468L252.591 141.33L252.465 140.779L252.212 139.677C251.463 136.733 250.509 133.777 249.393 130.855C248.856 129.387 248.248 127.939 247.66 126.485C247.362 125.759 247.053 125.037 246.737 124.325L245.805 122.244L245.751 122.122C244.823 120.05 245.751 117.618 247.823 116.691C249.831 115.79 252.179 116.642 253.167 118.578Z" fill="#7F3E3B"/>
<path d="M247.154 111.021C256.049 113.264 258.52 124.641 258.52 124.641L247.472 132.567C247.472 132.567 244.734 129.701 243.909 122.968C243.515 119.753 245.352 110.937 247.154 111.021Z" fill="#00A3A3"/>
<path d="M248.526 154.132L243.383 156.05L247.32 161.326C247.32 161.326 251.766 159.024 250.925 156.464L248.526 154.132Z" fill="#7F3E3B"/>
<path d="M239.521 156.808C238.084 156.566 236.673 156.72 235.394 157.185L237.949 142.017C238.362 139.561 236.692 137.214 234.236 136.801L189.882 129.329C187.427 128.915 185.079 130.586 184.666 133.042L182.111 148.209C183.39 147.745 184.801 147.591 186.238 147.833C190.685 148.582 193.682 152.794 192.933 157.241C192.184 161.687 187.973 164.684 183.526 163.935C182.088 163.693 180.806 163.085 179.749 162.229L177.194 177.396C176.78 179.851 178.451 182.199 180.906 182.612L225.26 190.083C227.716 190.496 230.063 188.826 230.477 186.371L233.032 171.203C234.089 172.06 235.371 172.668 236.809 172.91C241.255 173.659 245.467 170.661 246.216 166.215C246.966 161.77 243.968 157.558 239.521 156.808Z" fill="#00A3A3"/>
<path opacity="0.6" d="M239.521 156.808C238.084 156.566 236.673 156.72 235.394 157.185L237.949 142.017C238.362 139.561 236.692 137.214 234.236 136.801L189.882 129.329C187.427 128.915 185.079 130.586 184.666 133.042L182.111 148.209C183.39 147.745 184.801 147.591 186.238 147.833C190.685 148.582 193.682 152.794 192.933 157.241C192.184 161.687 187.973 164.684 183.526 163.935C182.088 163.693 180.806 163.085 179.749 162.229L177.194 177.396C176.78 179.851 178.451 182.199 180.906 182.612L225.26 190.083C227.716 190.496 230.063 188.826 230.477 186.371L233.032 171.203C234.089 172.06 235.371 172.668 236.809 172.91C241.255 173.659 245.467 170.661 246.216 166.215C246.966 161.77 243.968 157.558 239.521 156.808Z" fill="white"/>
<path d="M240.973 161.218L242.665 162.835C243.338 163.478 244.379 163.54 245.123 162.979L247.319 161.327L243.381 156.051L240.94 158.501C240.187 159.256 240.202 160.482 240.973 161.218Z" fill="#7F3E3B"/>
<path d="M191.481 130.724L192.1 128.443C192.233 127.956 192.792 127.578 193.41 127.559C194.312 127.531 195.185 127.666 195.963 127.954L199.438 129.238L199.273 130.652C199.13 131.871 197.774 132.887 196.237 132.934C194.682 132.98 193.171 132.603 193.171 132.603L192.799 132.525C191.815 132.319 191.256 131.555 191.481 130.724Z" fill="#7F3E3B"/>
<path d="M136.739 99.2887C138.965 96.6975 142.313 89.9861 136.017 87.4197C131.374 85.5272 121.523 86.4918 115.864 95.3054C111.995 96.6134 110.854 105.243 119.788 107.052C128.723 108.86 136.739 99.2887 136.739 99.2887Z" fill="#263238"/>
<path d="M156.923 265.051L146.713 265.898L148.444 277.896L156.977 277.202L156.923 265.051Z" fill="#FFC3BD"/>
<path opacity="0.2" d="M156.92 265.056L146.707 265.903L147.678 272.621L156.952 271.86L156.92 265.056Z" fill="black"/>
<path d="M137.41 229.73C133.427 214.379 123.019 196.08 129.601 181.298L158.197 181.208C158.197 181.208 158.905 211.635 159.102 225.994C159.309 240.923 158.023 269.138 158.023 269.138L146.325 270.025C146.325 270.025 138.344 246.96 137.41 229.73Z" fill="#30BABA"/>
<path d="M145.775 270.484L158.418 269.556C158.639 269.54 158.814 269.362 158.827 269.141L159.1 264.452C159.116 264.174 158.876 263.951 158.6 263.987L144.574 265.85C144.305 265.886 144.13 266.154 144.208 266.415L145.318 270.168C145.377 270.368 145.567 270.5 145.775 270.484Z" fill="#263238"/>
<path opacity="0.2" d="M129.502 195.838C129.368 199.386 129.555 203.033 129.943 206.707C131.339 211.536 133.122 216.373 134.726 221.063C136.823 207.782 136.829 192.305 129.502 195.838Z" fill="black"/>
<path d="M119.142 265.798L108.891 265.897L108.879 277.989L117.444 277.921L119.142 265.798Z" fill="#FFC3BD"/>
<path d="M108.071 276.133C108.103 275.85 108.43 275.637 108.674 275.734C111.243 276.754 116.116 275.973 117.963 275.619C118.414 275.532 118.826 275.635 119.146 275.862C121.112 277.255 124.004 278.105 124.004 278.105C124.004 278.105 124.665 279.85 124.266 281.186L106.992 281.178C106.992 281.178 107.809 278.466 108.071 276.133Z" fill="#263238"/>
<path d="M147.315 276.133C147.347 275.85 147.674 275.637 147.918 275.734C150.487 276.754 155.361 275.973 157.207 275.619C157.658 275.532 158.071 275.635 158.391 275.862C160.356 277.255 165.59 278.105 165.59 278.105C165.59 278.105 166.25 279.85 165.851 281.186L146.236 281.178C146.236 281.178 147.053 278.466 147.315 276.133Z" fill="#263238"/>
<path opacity="0.2" d="M119.138 265.802L108.884 265.9L108.879 272.672L118.189 272.591L119.138 265.802Z" fill="black"/>
<path d="M107.447 224.762C106.059 209.241 101.704 188.344 106.648 181.208H140.112C140.112 181.208 133.295 212.151 130.497 226.471C127.589 241.36 119.234 269.955 119.234 269.955L108.15 269.985C108.15 269.985 103.919 242.475 107.447 224.762Z" fill="#30BABA"/>
<path opacity="0.2" d="M109.461 266.815C109.317 266.815 109.184 266.72 109.141 266.576C108.342 263.888 108.456 233.208 110.463 224.805C110.441 223.697 110.228 221.514 109.959 218.759C109.047 209.423 107.349 192.045 109.88 182.183C109.926 182.004 110.11 181.897 110.287 181.943C110.466 181.989 110.573 182.17 110.528 182.349C108.025 192.098 109.715 209.399 110.624 218.695C110.898 221.499 111.114 223.714 111.132 224.836C111.132 224.864 111.129 224.892 111.122 224.92C109.2 232.875 109.013 263.799 109.782 266.384C109.835 266.561 109.734 266.747 109.557 266.8C109.524 266.811 109.492 266.815 109.461 266.815Z" fill="white"/>
<path d="M107.381 270.402H119.937C120.145 270.402 120.319 270.257 120.357 270.055L121.184 265.597C121.236 265.313 121.003 265.046 120.712 265.059L107.046 265.664C106.804 265.675 106.622 265.88 106.64 266.123L106.923 269.976C106.941 270.213 107.144 270.402 107.381 270.402Z" fill="#263238"/>
<path d="M151.482 127.159C152.161 129.808 152.766 132.473 153.357 135.143C153.934 137.815 154.515 140.486 155.037 143.171L155.835 147.193L156.584 151.227C157.098 153.914 157.555 156.612 158.022 159.309L156.934 156.871C157.079 157.243 157.196 157.651 157.822 158.105C158.413 158.551 159.434 159.004 160.652 159.275C161.874 159.576 163.288 159.739 164.769 159.815C165.509 159.851 166.272 159.877 167.038 159.869C167.423 159.874 167.809 159.869 168.193 159.859C168.562 159.861 169.003 159.837 169.273 159.855L170.22 159.919C172.254 160.054 173.793 161.813 173.657 163.847C173.57 165.144 172.801 166.252 171.744 166.841C171.205 167.135 170.829 167.358 170.375 167.592C169.936 167.813 169.496 168.026 169.05 168.228C168.155 168.618 167.242 168.984 166.294 169.291C165.347 169.591 164.374 169.871 163.361 170.08C162.347 170.28 161.296 170.433 160.199 170.521C159.105 170.608 157.955 170.58 156.759 170.469C155.564 170.359 154.308 170.128 153.031 169.68C151.757 169.243 150.451 168.642 149.219 167.797C147.985 166.959 146.878 165.883 145.933 164.706C145.517 164.187 145.224 163.61 145.052 163.008L144.845 162.268C144.104 159.637 143.354 157.007 142.66 154.365L141.598 150.407L140.585 146.438C139.9 143.794 139.273 141.137 138.643 138.481C138.027 135.821 137.425 133.159 136.896 130.479L136.893 130.465C136.093 126.411 138.731 122.476 142.784 121.676C146.695 120.904 150.498 123.35 151.482 127.159Z" fill="#FFC3BD"/>
<path d="M168.801 160.507L168.942 164.822C170.689 169.01 175.684 165.834 175.684 165.834L178.703 165.277C179.726 165.088 180.454 164.067 180.424 162.866L180.348 159.848C180.313 158.473 179.305 157.361 178.113 157.382L175.435 157.432C174.656 157.446 173.892 157.653 173.212 158.034L168.801 160.507Z" fill="#FFC3BD"/>
<path d="M146.369 119.721C152.512 122.951 156.525 134.365 156.525 134.365C155.228 139.683 150.009 149.455 145.172 149.392C145.172 149.392 138.068 140.234 137.299 133.607C136.369 125.598 133.94 113.187 146.369 119.721Z" fill="#263238"/>
<path d="M140.684 117.824C132.234 116.943 120.948 117.048 112.192 118.277C106.727 119.043 102.868 122.445 103.531 133.639C104.874 156.345 102.798 174.052 105.687 182.216C105.687 182.216 147.714 194.26 159.698 182.718C162.612 155.391 152.809 132.703 148.333 123.257C146.902 120.237 144.009 118.17 140.684 117.824Z" fill="#263238"/>
<path d="M137.527 120.307C136.436 119.238 135.299 119.86 134.77 118.253C134.535 117.095 134.703 115.884 135.37 114.553L122.403 107.557C122.658 112.327 122.85 116.094 120.737 117.989C120.122 121.545 126.716 125.092 135.568 125.143C141.191 125.175 139.096 121.844 137.527 120.307Z" fill="#FFC3BD"/>
<path opacity="0.2" d="M135.179 114.957L124.941 112.396C127.527 116.466 132.187 118.693 134.69 117.709C134.612 116.834 134.76 115.929 135.179 114.957Z" fill="black"/>
<path d="M130.941 91.6149C124.166 90.1166 118.317 95.7391 119.629 101.873C120.94 108.006 121.973 112.144 126.214 114.232C134.643 118.382 138.759 114.379 139.447 107.968C140.066 102.196 137.818 93.1353 130.941 91.6149Z" fill="#FFC3BD"/>
<path opacity="0.2" d="M129.613 102.507C129.613 102.507 128.23 102.144 127.27 102.849C128.577 102.918 129.613 102.507 129.613 102.507Z" fill="black"/>
<path opacity="0.2" d="M129.658 103.071C129.658 103.071 128.354 103.009 127.678 103.901C128.845 103.691 129.658 103.071 129.658 103.071Z" fill="black"/>
<path d="M120.484 107.052C124.269 107.905 125.843 106.007 125.843 103.878C125.843 101.623 123.713 97.8105 121.375 97.1051C122.209 92.0991 136.017 99.1091 134.706 92.1693C134.706 92.1693 134.327 90.9816 130.764 90.3136C127.202 89.6456 117.664 91.7979 118.332 98.9234C119 106.049 120.484 107.052 120.484 107.052Z" fill="#263238"/>
<path d="M115.658 95.658C117.217 92.8744 116.4 89.646 116.4 89.646C116.4 89.646 120.557 92.3921 115.658 95.658Z" fill="#263238"/>
<path d="M133.079 108.956C133.347 108.937 133.628 108.897 133.922 108.83C134.014 108.81 134.071 108.719 134.05 108.628C134.03 108.536 133.938 108.475 133.848 108.5C131.377 109.055 129.836 107.595 129.821 107.58C129.753 107.515 129.646 107.516 129.581 107.584C129.516 107.651 129.517 107.758 129.584 107.824C129.644 107.882 130.934 109.106 133.079 108.956Z" fill="#263238"/>
<path d="M118.085 107.354C119.008 108.635 120.442 109.364 121.731 109.545C123.671 109.815 124.397 108.015 123.654 106.319C122.986 104.792 121.171 102.811 119.322 103.32C117.501 103.819 117.028 105.889 118.085 107.354Z" fill="#FFC3BD"/>
<path d="M130.718 102.573C130.794 103.114 131.143 103.511 131.497 103.458C131.852 103.404 132.077 102.922 132.001 102.38C131.925 101.838 131.576 101.442 131.222 101.495C130.867 101.548 130.642 102.031 130.718 102.573Z" fill="#263238"/>
<path d="M137.083 101.72C137.159 102.261 137.509 102.658 137.863 102.605C138.217 102.552 138.443 102.069 138.366 101.527C138.29 100.985 137.94 100.589 137.586 100.642C137.232 100.695 137.007 101.178 137.083 101.72Z" fill="#263238"/>
<path d="M134.703 102.429L135.008 107.016C135.008 107.016 136.511 107.274 137.327 106.408C136.66 104.097 134.703 102.429 134.703 102.429Z" fill="#ED847E"/>
<path d="M128.62 101.328C128.567 101.341 128.512 101.341 128.457 101.326C128.286 101.279 128.187 101.102 128.235 100.93C128.716 99.2091 130.125 98.7382 130.184 98.7188C130.354 98.664 130.533 98.7575 130.586 98.9272C130.639 99.0962 130.545 99.2772 130.377 99.332C130.331 99.3474 129.236 99.7261 128.853 101.1C128.821 101.217 128.728 101.301 128.62 101.328Z" fill="#263238"/>
<path d="M139.17 99.2882C139.066 99.2935 138.962 99.2487 138.895 99.1592C138.058 98.0196 136.901 98.0664 136.852 98.0684C136.675 98.0777 136.525 97.9421 136.516 97.7651C136.507 97.5888 136.643 97.4371 136.819 97.4258C136.883 97.4231 138.366 97.3469 139.414 98.7745C139.519 98.9167 139.488 99.1185 139.344 99.2247C139.292 99.2648 139.231 99.2855 139.17 99.2882Z" fill="#263238"/>
<path d="M178.115 142.969C176.661 143.084 175.33 143.577 174.202 144.337L172.992 129.004C172.796 126.521 170.604 124.651 168.122 124.847L123.282 128.386C120.8 128.582 118.929 130.774 119.125 133.256L122.665 178.095C122.861 180.578 125.053 182.448 127.535 182.252L172.374 178.713C174.857 178.518 176.728 176.326 176.531 173.844L175.321 158.51C176.555 159.084 177.946 159.362 179.4 159.248C183.895 158.893 187.251 154.961 186.897 150.466C186.541 145.971 182.61 142.615 178.115 142.969Z" fill="#30BABA"/>
<path d="M113.074 136.838L112.369 138.069L111.603 139.448C111.106 140.382 110.599 141.316 110.139 142.266C109.195 144.153 108.365 146.069 107.658 147.94C107.303 148.877 107.004 149.808 106.752 150.719C106.48 151.628 106.269 152.519 106.126 153.366C105.829 155.08 105.798 156.586 105.985 157.776L104.448 155.095C104.849 155.715 105.703 156.587 106.748 157.416C107.791 158.253 109.006 159.111 110.304 159.909C111.593 160.736 112.967 161.527 114.367 162.322L116.494 163.509C117.193 163.907 117.96 164.309 118.596 164.694L118.917 164.888C120.704 165.97 121.275 168.296 120.193 170.083C119.473 171.273 118.195 171.923 116.898 171.906C115.884 171.891 115.014 171.839 114.082 171.762C113.17 171.672 112.255 171.573 111.346 171.432C109.524 171.156 107.71 170.766 105.877 170.256C104.055 169.717 102.204 169.092 100.33 168.19C98.4577 167.29 96.5272 166.158 94.5819 164.316C93.9453 163.714 93.4958 162.988 93.2346 162.211L93.0442 161.636C91.9079 158.217 91.6895 154.849 91.9373 151.817C92.1511 148.754 92.7837 145.942 93.5953 143.276C94.3916 140.603 95.425 138.099 96.5639 135.68C97.1471 134.476 97.7436 133.287 98.4069 132.129C98.7349 131.549 99.0709 130.969 99.4236 130.393L99.9714 129.525L100.261 129.081L100.606 128.572C102.923 125.155 107.57 124.264 110.986 126.581C114.237 128.785 115.201 133.099 113.291 136.455L113.074 136.838Z" fill="#FFC3BD"/>
<path d="M107.855 119.722C96.7838 125.64 92.6562 138.858 92.6562 138.858C94.8473 143.032 108.058 147.557 113.026 146.315C113.026 146.315 117.789 137.645 118.77 129.869C119.679 122.671 114.343 116.254 107.855 119.722Z" fill="#263238"/>
<path d="M115.607 165.434L115.835 169.746C117.663 173.898 122.595 170.624 122.595 170.624L125.602 170.007C126.621 169.798 127.329 168.764 127.275 167.564L127.14 164.548C127.078 163.174 126.048 162.081 124.857 162.127L122.181 162.229C121.402 162.259 120.642 162.481 119.97 162.875L115.607 165.434Z" fill="#FFC3BD"/>
</g>
<defs>
<clipPath id="clip0_1516_1120">
<rect width="296" height="334" fill="white" transform="translate(85 2.72021)"/>
</clipPath>
</defs>
</svg>
