<svg width="389" height="333" viewBox="0 0 389 333" fill="none" xmlns="http://www.w3.org/2000/svg">
<path d="M0.824219 36.4409C0.824219 16.5587 14.0363 0.440918 30.3342 0.440918H359.043C375.341 0.440918 388.553 16.5587 388.553 36.4409V296.441C388.553 316.323 375.341 332.441 359.043 332.441H30.3342C14.0363 332.441 0.824219 316.323 0.824219 296.441V36.4409Z" fill="white" fill-opacity="0.06"/>
<path d="M378.395 21.4409C378.395 17.5749 375.551 14.4409 372.044 14.4409H20.9655C17.4583 14.4409 14.6152 17.5749 14.6152 21.4409V21.4409C14.6152 25.3069 17.4583 28.4409 20.9655 28.4409H372.044C375.551 28.4409 378.395 25.3069 378.395 21.4409V21.4409Z" fill="#28282E"/>
<path d="M39.1842 21.6061C39.1842 23.2355 40.3825 24.5564 41.8606 24.5564C43.3388 24.5564 44.5371 23.2355 44.5371 21.6061C44.5371 19.9767 43.3388 18.6558 41.8606 18.6558C40.3825 18.6558 39.1842 19.9767 39.1842 21.6061Z" fill="#3FCA90"/>
<path d="M29.2564 21.6061C29.2564 23.2355 30.4547 24.5564 31.9329 24.5564C33.4111 24.5564 34.6094 23.2355 34.6094 21.6061C34.6094 19.9767 33.4111 18.6558 31.9329 18.6558C30.4547 18.6558 29.2564 19.9767 29.2564 21.6061Z" fill="#FFE073"/>
<path d="M19.3189 21.6061C19.3189 23.2355 20.5172 24.5564 21.9954 24.5564C23.4736 24.5564 24.6719 23.2355 24.6719 21.6061C24.6719 19.9767 23.4736 18.6558 21.9954 18.6558C20.5172 18.6558 19.3189 19.9767 19.3189 21.6061Z" fill="#ED5050"/>
<g clip-path="url(#clip0_1516_1126)">
<path d="M331.478 279.387H308.293V279.562H331.478V279.387Z" fill="#EBEBEB"/>
<path d="M248.402 281.287H242.316V281.462H248.402V281.287Z" fill="#EBEBEB"/>
<path d="M307.591 272.886H294.156V273.061H307.591V272.886Z" fill="#EBEBEB"/>
<path d="M83.5027 274.062H53.2676V274.237H83.5027V274.062Z" fill="#EBEBEB"/>
<path d="M94.1694 274.062H89.7363V274.237H94.1694V274.062Z" fill="#EBEBEB"/>
<path d="M174.149 277.019H108.576V277.194H174.149V277.019Z" fill="#EBEBEB"/>
<path d="M183.427 236.901H48.2573C46.0544 236.901 44.2617 235.108 44.2617 232.905V42.9028C44.2617 40.6999 46.0544 38.9072 48.2573 38.9072H183.427C185.629 38.9072 187.422 40.6999 187.422 42.9028V232.905C187.422 235.108 185.629 236.901 183.427 236.901ZM48.2573 39.0829C46.1503 39.0829 44.4367 40.7965 44.4367 42.9035V232.906C44.4367 235.013 46.1503 236.727 48.2573 236.727H183.427C185.533 236.727 187.247 235.013 187.247 232.906V42.9028C187.247 40.7965 185.533 39.0822 183.427 39.0822L48.2573 39.0829Z" fill="#EBEBEB"/>
<path d="M334.834 236.901H199.665C197.463 236.901 195.67 235.108 195.67 232.905V42.9028C195.67 40.6999 197.463 38.9072 199.665 38.9072H334.834C337.038 38.9072 338.83 40.6999 338.83 42.9028V232.905C338.83 235.108 337.037 236.901 334.834 236.901ZM199.665 39.0829C197.559 39.0829 195.845 40.7965 195.845 42.9035V232.906C195.845 235.013 197.559 236.727 199.665 236.727H334.834C336.941 236.727 338.655 235.013 338.655 232.906V42.9028C338.655 40.7965 336.941 39.0822 334.834 39.0822L199.665 39.0829Z" fill="#EBEBEB"/>
<path d="M366.547 268.12H16.5469V268.295H366.547V268.12Z" fill="#EBEBEB"/>
<path d="M236.235 97.8858C236.321 96.8988 236.334 95.9293 236.29 94.9773L240.102 92.9585C239.977 91.7972 239.77 90.6653 239.489 89.5656L235.332 89.6342C234.745 87.8184 233.908 86.1279 232.858 84.5977L235.305 81.0375C234.611 80.1534 233.853 79.3225 233.036 78.5518L229.289 80.6868C227.862 79.5031 226.258 78.5182 224.507 77.7727L224.939 73.6217C223.872 73.2444 222.768 72.9385 221.626 72.7124L219.289 76.3468C218.349 76.2194 217.385 76.1473 216.398 76.1473C215.411 76.1473 214.436 76.2194 213.473 76.3468L211.772 72.7124C210.591 72.9385 209.433 73.2451 208.299 73.6217L208.005 77.7727C206.124 78.5182 204.347 79.5031 202.713 80.6868L199.34 78.5518C198.388 79.3232 197.485 80.1534 196.637 81.0375L198.46 84.5977C197.142 86.1279 196.01 87.8184 195.105 89.6342L190.96 89.5656C190.487 90.6653 190.082 91.7972 189.754 92.9585L193.212 94.9773C193.002 95.9293 192.845 96.8988 192.759 97.8858C192.673 98.8728 192.659 99.8423 192.703 100.794L188.893 102.813C189.017 103.974 189.224 105.106 189.505 106.206L193.662 106.137C194.249 107.953 195.086 109.644 196.136 111.174L193.69 114.734C194.383 115.618 195.141 116.449 195.958 117.22L199.705 115.085C201.132 116.268 202.736 117.253 204.487 117.999L204.055 122.15C205.122 122.527 206.227 122.833 207.368 123.059L209.705 119.425C210.646 119.552 211.609 119.624 212.596 119.624C213.583 119.624 214.559 119.552 215.521 119.425L217.222 123.059C218.403 122.833 219.562 122.526 220.694 122.15L220.989 117.999C222.87 117.253 224.646 116.268 226.28 115.085L229.654 117.22C230.606 116.448 231.509 115.618 232.357 114.734L230.533 111.174C231.851 109.644 232.983 107.953 233.889 106.137L238.033 106.206C238.506 105.106 238.912 103.974 239.239 102.813L235.781 100.794C235.991 99.8423 236.148 98.8728 236.235 97.8858ZM213.85 105.277C209.768 105.277 206.748 101.968 207.105 97.8858C207.462 93.8034 211.061 90.4945 215.143 90.4945C219.225 90.4945 222.244 93.8034 221.887 97.8858C221.53 101.968 217.931 105.277 213.85 105.277Z" fill="#F0F0F0"/>
<path d="M277.851 79.6409C277.906 79.0109 277.924 78.3893 277.912 77.7768L283.243 74.953C283.145 74.1592 283.002 73.3822 282.821 72.6213L277 72.7172C276.594 71.5699 276.062 70.4884 275.416 69.4895L278.841 64.5048C278.355 63.9056 277.835 63.3351 277.283 62.7961L272.036 65.7851C271.101 65.0522 270.075 64.4257 268.971 63.9196L269.576 58.1068C268.837 57.859 268.078 57.6483 267.299 57.481L264.03 62.5651C263.423 62.4993 262.805 62.4629 262.175 62.4629C261.545 62.4629 260.921 62.4993 260.303 62.5651L257.923 57.481C257.115 57.6483 256.319 57.859 255.537 58.1068L255.125 63.9196C253.933 64.4257 252.797 65.0522 251.734 65.7851L247.011 62.7961C246.364 63.3351 245.745 63.9056 245.153 64.5048L247.706 69.4895C246.886 70.4884 246.165 71.5699 245.559 72.7172L239.754 72.6213C239.44 73.3822 239.161 74.1592 238.924 74.953L243.761 77.7768C243.641 78.3893 243.551 79.0109 243.496 79.6409C243.44 80.2709 243.422 80.8925 243.435 81.505L238.104 84.3288C238.201 85.1226 238.344 85.8996 238.526 86.6605L244.347 86.5646C244.752 87.7119 245.284 88.7934 245.93 89.7923L242.505 94.777C242.992 95.3762 243.512 95.9467 244.064 96.4857L249.311 93.4967C250.246 94.2296 251.272 94.8561 252.375 95.3622L251.77 101.175C252.51 101.423 253.268 101.634 254.047 101.801L257.316 96.7167C257.923 96.7825 258.541 96.8189 259.171 96.8189C259.801 96.8189 260.426 96.7825 261.045 96.7167L263.424 101.801C264.232 101.633 265.028 101.423 265.81 101.175L266.223 95.3622C267.414 94.8561 268.55 94.2303 269.613 93.4967L274.336 96.4857C274.982 95.9467 275.603 95.3762 276.194 94.777L273.641 89.7923C274.462 88.7934 275.183 87.7119 275.789 86.5646L281.593 86.6605C281.907 85.8996 282.187 85.1226 282.423 84.3288L277.586 81.505C277.705 80.8925 277.796 80.2709 277.851 79.6409ZM260.036 86.9223C256.014 86.9223 253.039 83.6624 253.392 79.6409C253.744 75.6194 257.288 72.3595 261.31 72.3595C265.331 72.3595 268.306 75.6194 267.954 79.6409C267.603 83.6624 264.057 86.9223 260.036 86.9223Z" fill="#EBEBEB"/>
<path d="M316.942 140.577C316.969 140.271 316.978 139.969 316.971 139.671L319.561 138.299C319.514 137.914 319.445 137.536 319.356 137.166L316.528 137.213C316.331 136.656 316.073 136.13 315.759 135.645L317.423 133.223C317.186 132.932 316.934 132.655 316.666 132.393L314.116 133.845C313.662 133.489 313.163 133.185 312.627 132.939L312.921 130.114C312.562 129.994 312.193 129.892 311.815 129.811L310.226 132.281C309.932 132.249 309.631 132.231 309.325 132.231C309.019 132.231 308.715 132.249 308.415 132.281L307.258 129.811C306.866 129.892 306.479 129.994 306.098 130.114L305.898 132.939C305.319 133.185 304.767 133.489 304.25 133.845L301.955 132.393C301.641 132.655 301.34 132.932 301.052 133.223L302.292 135.645C301.893 136.13 301.543 136.656 301.249 137.213L298.428 137.166C298.276 137.536 298.14 137.914 298.025 138.299L300.375 139.671C300.317 139.969 300.273 140.271 300.246 140.577C300.22 140.883 300.211 141.186 300.217 141.483L297.627 142.855C297.675 143.241 297.744 143.618 297.832 143.988L300.66 143.941C300.857 144.499 301.116 145.024 301.429 145.509L299.765 147.931C300.001 148.223 300.254 148.5 300.522 148.762L303.072 147.309C303.526 147.665 304.025 147.97 304.56 148.216L304.266 151.04C304.626 151.161 304.994 151.263 305.373 151.344L306.961 148.874C307.256 148.906 307.556 148.923 307.863 148.923C308.169 148.923 308.473 148.906 308.773 148.874L309.929 151.344C310.322 151.263 310.709 151.161 311.089 151.04L311.29 148.216C311.868 147.97 312.421 147.665 312.937 147.309L315.233 148.762C315.547 148.5 315.848 148.223 316.136 147.931L314.895 145.509C315.294 145.024 315.644 144.499 315.939 143.941L318.759 143.988C318.912 143.619 319.048 143.241 319.162 142.855L316.813 141.483C316.871 141.186 316.915 140.884 316.942 140.577ZM308.286 144.116C306.332 144.116 304.887 142.532 305.057 140.578C305.228 138.624 306.951 137.04 308.905 137.04C310.858 137.04 312.304 138.624 312.133 140.578C311.963 142.532 310.24 144.116 308.286 144.116Z" fill="#F0F0F0"/>
<path d="M310.015 106.192C310.064 105.634 310.08 105.083 310.069 104.539L314.796 102.035C314.709 101.331 314.582 100.642 314.421 99.967L309.259 100.052C308.9 99.0353 308.428 98.0763 307.856 97.1901L310.893 92.7696C310.462 92.2383 310.001 91.7322 309.511 91.2548L304.858 93.905C304.03 93.2547 303.119 92.6996 302.141 92.2509L302.677 87.0961C302.022 86.8763 301.349 86.6894 300.658 86.541L297.759 91.049C297.221 90.9902 296.673 90.958 296.114 90.958C295.555 90.958 295.001 90.9902 294.453 91.049L292.343 86.541C291.626 86.6894 290.921 86.8763 290.227 87.0961L289.862 92.2509C288.805 92.6996 287.797 93.2547 286.854 93.905L282.666 91.2548C282.093 91.7329 281.543 92.2383 281.019 92.7696L283.282 97.1901C282.554 98.0763 281.915 99.0353 281.378 100.052L276.231 99.967C275.952 100.642 275.704 101.331 275.495 102.035L279.784 104.539C279.677 105.083 279.598 105.634 279.549 106.192C279.5 106.751 279.483 107.302 279.495 107.845L274.768 110.349C274.854 111.054 274.981 111.742 275.142 112.417L280.304 112.332C280.664 113.349 281.135 114.308 281.707 115.194L278.67 119.615C279.101 120.146 279.563 120.652 280.053 121.129L284.705 118.479C285.534 119.13 286.444 119.685 287.422 120.133L286.886 125.288C287.541 125.508 288.215 125.695 288.905 125.843L291.804 121.335C292.342 121.394 292.891 121.426 293.449 121.426C294.008 121.426 294.561 121.394 295.11 121.335L297.22 125.843C297.937 125.695 298.642 125.508 299.336 125.288L299.702 120.133C300.758 119.685 301.766 119.13 302.709 118.479L306.898 121.129C307.471 120.651 308.021 120.146 308.545 119.615L306.282 115.194C307.01 114.308 307.649 113.349 308.186 112.332L313.333 112.417C313.612 111.742 313.86 111.054 314.07 110.349L309.781 107.845C309.885 107.302 309.966 106.751 310.015 106.192ZM293.994 115.193C289.022 115.193 285.345 111.163 285.779 106.191C286.214 101.22 290.597 97.1894 295.569 97.1894C300.54 97.1894 304.218 101.22 303.783 106.191C303.348 111.164 298.965 115.193 293.994 115.193Z" fill="#F5F5F5"/>
<path d="M191.547 299.352C266.504 299.352 327.269 295.804 327.269 291.426C327.269 287.049 266.504 283.5 191.547 283.5C116.589 283.5 55.8242 287.049 55.8242 291.426C55.8242 295.804 116.589 299.352 191.547 299.352Z" fill="#F5F5F5"/>
<path d="M193.565 211.205L180.197 279.975H214.499L227.867 211.205H193.565ZM207.795 255.193L205.871 265.089C205.34 267.822 202.694 270.037 199.961 270.037C197.228 270.037 195.443 267.822 195.975 265.089L197.898 255.193C198.429 252.46 201.075 250.244 203.808 250.244C206.541 250.244 208.326 252.46 207.795 255.193Z" fill="#263238"/>
<path opacity="0.3" d="M193.565 211.205L180.197 279.975H214.499L227.867 211.205H193.565ZM207.795 255.193L205.871 265.089C205.34 267.822 202.694 270.037 199.961 270.037C197.228 270.037 195.443 267.822 195.975 265.089L197.898 255.193C198.429 252.46 201.075 250.244 203.808 250.244C206.541 250.244 208.326 252.46 207.795 255.193Z" fill="white"/>
<path d="M180.274 279.975H177.266L190.633 211.205H193.641L180.274 279.975Z" fill="#263238"/>
<path opacity="0.6" d="M180.274 279.975H177.266L190.633 211.205H193.641L180.274 279.975Z" fill="white"/>
<path opacity="0.2" d="M193.566 211.205H190.633L183.502 247.891H220.736L227.868 211.205H193.641H193.566Z" fill="black"/>
<path d="M203.81 250.244C203.343 250.244 202.881 250.313 202.429 250.434C204.394 251.02 205.55 252.926 205.11 255.192L203.186 265.089C202.746 267.356 200.849 269.262 198.656 269.848C199.061 269.968 199.496 270.037 199.962 270.037C202.695 270.037 205.341 267.822 205.873 265.089L207.796 255.192C208.327 252.46 206.542 250.244 203.81 250.244Z" fill="#263238"/>
<path opacity="0.6" d="M203.81 250.244C203.343 250.244 202.881 250.313 202.429 250.434C204.394 251.02 205.55 252.926 205.11 255.192L203.186 265.089C202.746 267.356 200.849 269.262 198.656 269.848C199.061 269.968 199.496 270.037 199.962 270.037C202.695 270.037 205.341 267.822 205.873 265.089L207.796 255.192C208.327 252.46 206.542 250.244 203.81 250.244Z" fill="white"/>
<path d="M198.655 279.671H149.43V290.701H198.655V279.671Z" fill="#30BABA"/>
<path opacity="0.4" d="M198.655 279.671H149.43V290.701H198.655V279.671Z" fill="white"/>
<path d="M263.642 279.671H198.654V290.701H263.642V279.671Z" fill="#30BABA"/>
<path opacity="0.6" d="M263.642 279.671H198.654V290.701H263.642V279.671Z" fill="white"/>
<path d="M117.902 243.809H290.847C293.991 243.869 296.587 241.368 296.647 238.225C296.652 237.975 296.64 237.724 296.612 237.475L285.686 112.502C285.329 108.952 282.373 106.23 278.805 106.168H105.859C102.715 106.109 100.119 108.609 100.06 111.753C100.055 112.003 100.067 112.254 100.095 112.503L111.029 237.483C111.386 241.029 114.339 243.747 117.902 243.809Z" fill="#263238"/>
<path opacity="0.3" d="M117.902 243.809H290.847C293.991 243.869 296.587 241.368 296.647 238.225C296.652 237.975 296.64 237.724 296.612 237.475L285.686 112.502C285.329 108.952 282.373 106.23 278.805 106.168H105.859C102.715 106.109 100.119 108.609 100.06 111.753C100.055 112.003 100.067 112.254 100.095 112.503L111.029 237.483C111.386 241.029 114.339 243.747 117.902 243.809Z" fill="white"/>
<path d="M295.44 223.976L296.619 237.483C296.974 240.607 294.729 243.428 291.605 243.782C291.357 243.81 291.105 243.822 290.856 243.818H117.902C114.336 243.755 111.382 241.032 111.03 237.483L109.842 223.976H295.44Z" fill="#30BABA"/>
<path opacity="0.6" d="M295.44 223.976L296.619 237.483C296.974 240.607 294.729 243.428 291.605 243.782C291.357 243.81 291.105 243.822 290.856 243.818H117.902C114.336 243.755 111.382 241.032 111.03 237.483L109.842 223.976H295.44Z" fill="white"/>
<path d="M115.946 220.151H288.67C290.375 220.183 291.783 218.827 291.815 217.122C291.818 216.988 291.812 216.855 291.797 216.722L282.763 113.437C282.567 111.515 280.965 110.043 279.034 110.009H106.311C104.605 109.977 103.197 111.333 103.165 113.038C103.162 113.171 103.168 113.304 103.183 113.437L112.217 216.723C112.413 218.645 114.015 220.117 115.946 220.151Z" fill="#30BABA"/>
<path opacity="0.8" d="M115.946 220.151H288.67C290.375 220.183 291.783 218.827 291.815 217.122C291.818 216.988 291.812 216.855 291.797 216.722L282.763 113.437C282.567 111.515 280.965 110.043 279.034 110.009H106.311C104.605 109.977 103.197 111.333 103.165 113.038C103.162 113.171 103.168 113.304 103.183 113.437L112.217 216.723C112.413 218.645 114.015 220.117 115.946 220.151Z" fill="#30BABA"/>
<path opacity="0.8" d="M115.946 220.151H288.67C290.375 220.183 291.783 218.827 291.815 217.122C291.818 216.988 291.812 216.855 291.797 216.722L282.763 113.437C282.567 111.515 280.965 110.043 279.034 110.009H106.311C104.605 109.977 103.197 111.333 103.165 113.038C103.162 113.171 103.168 113.304 103.183 113.437L112.217 216.723C112.413 218.645 114.015 220.117 115.946 220.151Z" fill="white"/>
<g opacity="0.5">
<path d="M240.271 220.152H256.041L232.63 110.008H216.859L240.271 220.152Z" fill="white"/>
<path d="M230.283 220.152H234.319L210.907 110.008H206.871L230.283 220.152Z" fill="white"/>
<path d="M171.537 220.152H174.181L150.77 110.008H148.125L171.537 220.152Z" fill="white"/>
<path d="M161.55 220.152H165.586L142.175 110.008H138.139L161.55 220.152Z" fill="white"/>
</g>
<path d="M102.035 106.193H105.859C102.716 106.133 100.119 108.633 100.06 111.776C100.055 112.027 100.067 112.278 100.095 112.527L111.029 237.483C111.382 241.032 114.336 243.754 117.901 243.817H114.077C110.511 243.754 107.557 241.032 107.205 237.483L96.2714 112.511C95.9256 109.386 98.1782 106.572 101.303 106.226C101.546 106.199 101.791 106.188 102.035 106.193Z" fill="#263238"/>
<path opacity="0.6" d="M102.035 106.193H105.859C102.716 106.133 100.119 108.633 100.06 111.776C100.055 112.027 100.067 112.278 100.095 112.527L111.029 237.483C111.382 241.032 114.336 243.754 117.901 243.817H114.077C110.511 243.754 107.557 241.032 107.205 237.483L96.2714 112.511C95.9256 109.386 98.1782 106.572 101.303 106.226C101.546 106.199 101.791 106.188 102.035 106.193Z" fill="white"/>
<path d="M255.849 139.163L252.377 139.775L252.989 143.247L256.461 142.635L255.849 139.163Z" fill="black"/>
<path opacity="0.5" d="M255.849 139.163L252.377 139.775L252.989 143.247L256.461 142.635L255.849 139.163Z" fill="white"/>
<path d="M258.669 162.206L257.626 162.39C256.516 162.586 255.457 161.845 255.261 160.734L252.367 144.322C252.171 143.212 252.913 142.153 254.024 141.957L255.067 141.773C256.177 141.577 257.236 142.318 257.432 143.429L260.326 159.841C260.521 160.952 259.78 162.011 258.669 162.206Z" fill="black"/>
<path opacity="0.1" d="M257.559 109.2C257.65 109.584 257.733 109.973 257.803 110.367C259.773 121.541 252.312 132.197 241.137 134.167C240.743 134.237 240.35 134.291 239.957 134.338C243.453 138.016 248.665 139.93 254.036 138.983C262.554 137.481 268.241 129.358 266.739 120.841C265.792 115.47 262.211 111.227 257.559 109.2Z" fill="black"/>
<path d="M248.208 105.926C238.469 107.643 231.966 116.931 233.683 126.67C235.4 136.409 244.688 142.912 254.427 141.195C264.166 139.478 270.67 130.19 268.952 120.451C267.236 110.712 257.948 104.209 248.208 105.926ZM253.814 137.72C245.995 139.099 238.538 133.877 237.159 126.057C235.78 118.237 241.002 110.78 248.821 109.401C256.641 108.022 264.098 113.244 265.477 121.064C266.856 128.884 261.635 136.341 253.814 137.72Z" fill="#30BABA"/>
<path d="M307.719 143.427C308.405 144.497 308.991 145.523 309.592 146.585C310.189 147.639 310.757 148.709 311.305 149.792C312.401 151.957 313.407 154.179 314.301 156.479C314.759 157.622 315.151 158.806 315.528 160.003L315.601 160.234L315.696 160.61C315.761 160.857 315.799 161.118 315.829 161.38C315.895 161.902 315.87 162.437 315.799 162.95C315.644 163.978 315.247 164.869 314.781 165.591C313.825 167.034 312.665 167.922 311.508 168.642C310.922 168.994 310.334 169.307 309.725 169.561C309.109 169.824 308.54 170.046 307.844 170.242L306.518 167.418C307.305 166.764 308.163 165.999 308.836 165.256C309.52 164.516 310.082 163.72 310.284 163.095C310.388 162.788 310.412 162.549 310.372 162.401C310.347 162.326 310.327 162.267 310.294 162.207C310.28 162.178 310.27 162.147 310.243 162.113C310.232 162.096 310.224 162.08 310.217 162.063L310.14 161.877C309.73 160.85 309.279 159.831 308.805 158.805C307.853 156.761 306.81 154.728 305.717 152.712L304.057 149.696L302.361 146.742L307.719 143.427Z" fill="#FFC3BD"/>
<path d="M307.966 167.033L304.882 166.231L304.705 171.211C304.705 171.211 307.118 171.57 308.595 170.094L307.966 167.033Z" fill="#FFC3BD"/>
<path d="M300.512 165.392L301.208 169.764L304.705 171.211L304.883 166.231L300.512 165.392Z" fill="#FFC3BD"/>
<path d="M287.754 123.337C287.685 123.678 287.448 123.917 287.225 123.872C287.002 123.827 286.878 123.514 286.947 123.173C287.016 122.832 287.253 122.593 287.475 122.638C287.699 122.683 287.823 122.996 287.754 123.337Z" fill="#263238"/>
<path d="M287.479 123.924C287.479 123.924 286.304 125.733 285.258 126.509C285.746 127.194 286.824 127.145 286.824 127.145L287.479 123.924Z" fill="#ED847E"/>
<path d="M289.385 121.699C289.435 121.699 289.485 121.68 289.524 121.645C289.607 121.568 289.612 121.439 289.535 121.356C288.768 120.526 287.838 120.674 287.797 120.68C287.686 120.699 287.611 120.805 287.63 120.916C287.649 121.027 287.756 121.101 287.864 121.083C287.895 121.078 288.622 120.971 289.235 121.633C289.276 121.676 289.331 121.699 289.385 121.699Z" fill="#263238"/>
<path d="M297.463 128.131C296.845 131.286 296.228 137.067 298.435 139.172C298.435 139.172 297.573 142.372 291.711 142.372C285.265 142.372 288.63 139.172 288.63 139.172C292.148 138.332 292.057 135.722 291.445 133.271L297.463 128.131Z" fill="#FFC3BD"/>
<path d="M299.707 139.757C300.178 138.881 300.697 137.877 299.623 137.563C298.442 137.217 290.856 136.576 288.627 137.225C289.312 138.443 288.152 139.94 288.152 139.94L299.707 139.757Z" fill="#30BABA"/>
<path opacity="0.3" d="M299.707 139.757C300.178 138.881 300.697 137.877 299.623 137.563C298.442 137.217 290.856 136.576 288.627 137.225C289.312 138.443 288.152 139.94 288.152 139.94L299.707 139.757Z" fill="black"/>
<path d="M293.009 287.336H288.697L288.268 277.35H292.58L293.009 287.336Z" fill="#FFC3BD"/>
<path d="M324.661 285.34L320.446 286.252L316.215 276.95L320.43 276.038L324.661 285.34Z" fill="#FFC3BD"/>
<path d="M320.041 285.829L324.776 284.804C324.948 284.767 325.123 284.854 325.197 285.014L326.841 288.58C327.012 288.95 326.786 289.383 326.386 289.463C324.727 289.793 323.902 289.869 321.82 290.321C320.539 290.598 317.648 291.303 315.878 291.686C314.148 292.06 313.5 290.37 314.189 290.054C317.282 288.641 318.575 287.396 319.412 286.236C319.564 286.027 319.789 285.884 320.041 285.829Z" fill="#263238"/>
<path d="M288.725 286.837H293.435C293.611 286.837 293.764 286.959 293.802 287.132L294.654 290.965C294.742 291.362 294.441 291.739 294.034 291.732C292.335 291.703 289.88 291.603 287.745 291.603C285.248 291.603 283.092 291.739 280.164 291.739C278.394 291.739 277.902 289.949 278.644 289.787C282.017 289.05 284.771 288.971 287.687 287.173C288.003 286.978 288.353 286.837 288.725 286.837Z" fill="#263238"/>
<path d="M306.155 140.147C310.197 141.074 313.53 151.392 313.53 151.392L305.413 157.578C305.413 157.578 302.435 154.77 301.108 149.608C299.72 144.201 302.023 139.2 306.155 140.147Z" fill="#30BABA"/>
<path opacity="0.2" d="M302.693 147.735C304.888 149.907 305.604 153.863 305.775 157.303L305.416 157.579C305.416 157.579 302.434 154.767 301.108 149.607C301.026 149.285 300.955 148.961 300.896 148.645L302.693 147.735Z" fill="black"/>
<path d="M281.997 140.369C281.997 140.369 277.407 145.553 281.741 177.643C288.691 177.643 301.425 177.643 304.807 177.643C304.966 174.102 302.741 156.83 306.156 140.147C306.156 140.147 302.202 139.354 298.435 139.172C295.488 139.029 291.221 138.936 288.63 139.172C285.214 139.484 281.997 140.369 281.997 140.369Z" fill="#30BABA"/>
<path opacity="0.2" d="M279.98 150.177L280.069 150.101L285.311 151.356C285.61 154.902 281.965 159.14 280.087 161.077C279.828 156.552 279.833 152.982 279.98 150.177Z" fill="black"/>
<path opacity="0.2" d="M288.27 277.353L288.49 282.5H292.804L292.584 277.353H288.27Z" fill="black"/>
<path opacity="0.2" d="M320.432 276.041L316.215 276.953L318.398 281.747L322.615 280.834L320.432 276.041Z" fill="black"/>
<path d="M299.269 124.925C298.161 129.06 297.723 131.535 295.172 133.254C291.335 135.84 286.557 132.872 286.407 128.49C286.273 124.547 288.107 118.448 292.543 117.615C296.914 116.795 300.377 120.792 299.269 124.925Z" fill="#FFC3BD"/>
<path d="M289.924 177.643C289.924 177.643 294.818 210.599 297.505 222.945C300.447 236.466 316.224 281.198 316.224 281.198L323.943 279.526C323.943 279.526 312.911 243.073 310.442 224.17C309.631 217.96 308.483 212.05 307.434 203.314C307.047 200.081 307.372 193.441 307.034 190.589C306.678 187.588 305.661 184.905 305.41 182.772C305.037 179.602 304.808 177.642 304.808 177.642L289.924 177.643Z" fill="#263238"/>
<path d="M314.376 278.621C314.343 278.628 315.814 281.413 315.814 281.413L324.5 279.533L323.767 276.922L314.376 278.621Z" fill="#30BABA"/>
<path opacity="0.3" d="M314.376 278.621C314.343 278.628 315.814 281.413 315.814 281.413L324.5 279.533L323.767 276.922L314.376 278.621Z" fill="black"/>
<path opacity="0.3" d="M293.018 189.385C298.677 190.494 298.078 211.597 297.397 222.451C295.766 214.779 293.377 200.016 291.744 189.537C292.119 189.35 292.542 189.291 293.018 189.385Z" fill="black"/>
<path d="M281.743 177.643C281.743 177.643 281.149 209.886 281.618 223.037C282.106 236.715 286.883 281.503 286.883 281.503H294.189C294.189 281.503 294.457 237.515 294.781 224.081C295.136 209.436 296.904 177.644 296.904 177.644H281.743V177.643Z" fill="#263238"/>
<path d="M285.476 278.593C285.443 278.593 285.889 281.626 285.889 281.626H294.775L295.015 278.919L285.476 278.593Z" fill="#30BABA"/>
<path opacity="0.3" d="M285.476 278.593C285.443 278.593 285.889 281.626 285.889 281.626H294.775L295.015 278.919L285.476 278.593Z" fill="black"/>
<path d="M279.971 144.364C279.306 145.403 278.548 146.56 277.794 147.635C277.024 148.718 276.248 149.794 275.441 150.839C274.633 151.877 273.81 152.906 272.946 153.863C272.527 154.365 272.074 154.804 271.64 155.28C271.187 155.711 270.743 156.18 270.28 156.578L269.589 157.193L268.883 157.745L268.593 157.972C268.398 157.941 268.134 157.869 267.852 157.746C267.392 157.548 266.872 157.282 266.359 156.962C264.289 155.667 262.164 153.871 260.168 152.119L257.74 154.08C259.311 156.583 261.038 158.851 263.396 160.929C263.995 161.442 264.635 161.949 265.403 162.401C266.175 162.844 267.052 163.298 268.328 163.484C268.965 163.567 269.735 163.55 270.529 163.297C270.916 163.183 271.324 162.978 271.645 162.781L272.142 162.455C272.471 162.235 272.808 162.018 273.13 161.792L274.054 161.088C276.486 159.177 278.484 157.001 280.362 154.756C281.274 153.616 282.17 152.47 282.995 151.277C283.829 150.071 284.615 148.916 285.391 147.577L279.971 144.364ZM268.855 157.984C268.819 157.997 268.74 157.993 268.646 157.981C268.669 157.974 268.695 157.966 268.712 157.962C268.848 157.938 268.907 157.964 268.855 157.984Z" fill="#FFC3BD"/>
<path d="M288.342 146.892C289.721 152.674 279.26 158.335 279.26 158.335L272.465 150.374C272.465 150.374 275.558 145.686 279.407 141.993C284.16 137.431 287.292 142.491 288.342 146.892Z" fill="#30BABA"/>
<path d="M258.344 154.75L254.434 151.036L258.186 148.179C258.186 148.179 261.284 150.391 260.511 153.436L258.344 154.75Z" fill="#FFC3BD"/>
<path d="M253.201 149.586L255.823 146.634L258.186 148.179L254.434 151.035L253.201 149.586Z" fill="#FFC3BD"/>
<path d="M290.461 123.924C290.461 123.924 288.13 121.233 288.478 118.693C288.478 118.693 286.305 115.052 288.336 113.766C290.366 112.481 291.635 115.238 291.635 115.238C291.635 115.238 292.947 112.394 294.829 112.744C296.711 113.094 296.251 115.588 296.251 115.588C296.251 115.588 298.767 113.391 300.342 114.074C301.917 114.757 300.998 117.207 300.998 117.207C300.998 117.207 303.572 116.72 304.166 118.319C304.761 119.919 303.224 120.895 303.224 120.895C303.224 120.895 305.54 121.76 305.61 123.924C305.68 126.088 303.186 125.863 303.186 125.863C303.186 125.863 302.761 129.078 297.812 131.819C297.5 131.992 297.125 132.036 296.785 131.927C296.38 131.797 295.712 131.685 294.827 131.883C294.314 131.998 293.782 131.792 293.465 131.374C292.789 130.481 291.725 129.026 291.419 128.319C290.969 127.287 290.461 123.924 290.461 123.924Z" fill="#263238"/>
<path opacity="0.3" d="M301.04 126.438C299.508 129.194 297.628 124.724 297.628 124.724C296.213 128.31 293.603 123.463 293.603 123.463C292.946 126 290.461 123.924 290.461 123.924C290.461 123.924 290.968 127.288 291.415 128.319C291.722 129.026 292.785 130.482 293.461 131.374C293.779 131.794 294.311 131.999 294.824 131.884C295.71 131.685 296.377 131.797 296.782 131.927C297.122 132.036 297.497 131.993 297.81 131.82C302.758 129.079 303.183 125.864 303.183 125.864C302.528 128.044 301.04 126.438 301.04 126.438Z" fill="white"/>
<path d="M285.551 124.981C285.486 124.981 285.422 124.972 285.358 124.954C285.147 124.893 284.987 124.75 284.894 124.542C284.483 123.611 285.583 121.329 285.71 121.072L285.836 120.815L290.596 123.7L290.323 124.149L287.185 122.246C287.047 122.844 286.622 124.453 285.936 124.869C285.813 124.943 285.682 124.981 285.551 124.981ZM286.058 121.563C285.641 122.475 285.161 123.845 285.375 124.33C285.412 124.413 285.461 124.437 285.505 124.449C285.542 124.461 285.59 124.465 285.664 124.42C286.116 124.146 286.543 122.774 286.711 121.959L286.058 121.563Z" fill="#30BABA"/>
<path d="M292.236 125.099C291.954 126.184 291.242 127.117 290.496 127.672C289.373 128.507 288.535 127.685 288.615 126.415C288.687 125.272 289.357 123.46 290.595 123.121C291.814 122.787 292.557 123.858 292.236 125.099Z" fill="#FFC3BD"/>
<path d="M159.967 261.319H126.039C124.32 261.319 122.777 260.263 122.155 258.661L109.037 224.921C107.771 221.664 104.104 220.05 100.847 221.317C100.847 221.317 66.3457 220.05 63.0886 221.317L60.5098 222.319L77.5268 266.089C78.5397 268.696 81.0492 270.413 83.8457 270.413H121.604H128.536H166.294V267.646C166.295 264.152 163.462 261.319 159.967 261.319Z" fill="#30BABA"/>
<path opacity="0.3" d="M159.967 261.319H126.039C124.32 261.319 122.777 260.263 122.155 258.661L109.037 224.921C107.771 221.664 104.104 220.05 100.847 221.317C100.847 221.317 66.3457 220.05 63.0886 221.317L60.5098 222.319L77.5268 266.089C78.5397 268.696 81.0492 270.413 83.8457 270.413H121.604H128.536H166.294V267.646C166.295 264.152 163.462 261.319 159.967 261.319Z" fill="white"/>
<path opacity="0.2" d="M84.3959 258.661L71.2786 224.921C70.0123 221.664 66.3457 220.05 63.0886 221.317L60.5098 222.319L77.5268 266.089C78.5397 268.695 81.0492 270.412 83.8457 270.412H128.536V267.646C128.536 264.152 125.703 261.319 122.208 261.319H88.2802C86.5617 261.319 85.0189 260.263 84.3959 258.661Z" fill="black"/>
<path d="M160.338 274.138H114.305L109.484 291.568H112.189L117.391 280.526H157.252L162.454 291.568H165.159L160.338 274.138Z" fill="#263238"/>
<path opacity="0.2" d="M160.338 274.138H114.305L109.484 291.568H112.189L117.391 280.526H157.252L162.454 291.568H165.159L160.338 274.138Z" fill="white"/>
<path d="M158.152 274.138H112.12L107.299 291.568H110.004L115.206 280.526H155.068L160.269 291.568H162.974L158.152 274.138Z" fill="#263238"/>
<path opacity="0.3" d="M158.152 274.138H112.12L107.299 291.568H110.004L115.206 280.526H155.068L160.269 291.568H162.974L158.152 274.138Z" fill="white"/>
<path d="M127.555 274.138H81.5228L76.7012 291.568H79.4067L84.6084 280.526H124.469L129.672 291.568H132.376L127.555 274.138Z" fill="#263238"/>
<path opacity="0.2" d="M127.555 274.138H81.5228L76.7012 291.568H79.4067L84.6084 280.526H124.469L129.672 291.568H132.376L127.555 274.138Z" fill="white"/>
<path d="M125.369 274.138H79.3365L74.5156 291.568H77.2204L82.4221 280.526H122.284L127.485 291.568H130.19L125.369 274.138Z" fill="#263238"/>
<path opacity="0.4" d="M125.369 274.138H79.3365L74.5156 291.568H77.2204L82.4221 280.526H122.284L127.485 291.568H130.19L125.369 274.138Z" fill="white"/>
<path d="M124.336 270.413H82.209V274.137H124.336V270.413Z" fill="#263238"/>
<path opacity="0.2" d="M124.336 270.413H82.209V274.137H124.336V270.413Z" fill="white"/>
<path d="M157.363 270.413H124.336V274.137H157.363V270.413Z" fill="#263238"/>
<path opacity="0.1" d="M157.363 270.413H124.336V274.137H157.363V270.413Z" fill="white"/>
<path d="M131.125 256.115L139.186 259.397L138.276 262.806L129.67 261.033L131.125 256.115Z" fill="#CE7A63"/>
<path d="M103.594 244.48C103.594 244.48 142.182 231.114 145.364 243.395C148.546 255.676 119.303 264.148 103.982 263.632C88.6599 263.117 103.594 244.48 103.594 244.48Z" fill="#263238"/>
<path opacity="0.3" d="M103.594 244.48C103.594 244.48 142.182 231.114 145.364 243.395C148.546 255.676 119.303 264.148 103.982 263.632C88.6599 263.117 103.594 244.48 103.594 244.48Z" fill="black"/>
<path opacity="0.7" d="M132.28 245.725L113.556 257.66L116.545 262.564C116.545 262.564 114.735 263.166 112.23 257.175L123.82 249.514C123.82 249.514 120.19 249.15 120.284 248.581C120.437 247.655 128.398 245.879 132.033 245.114C132.397 245.038 132.594 245.525 132.28 245.725Z" fill="black"/>
<path opacity="0.7" d="M112.874 257.134L116.12 262.638C111.715 263.397 107.484 263.751 103.98 263.633C102.348 263.578 101.061 263.316 100.061 262.894L98.9219 260.711L101.377 255.534L112.874 257.134Z" fill="black"/>
<path d="M113.206 257.979L109.561 261.035L111.235 263.634L116.784 262.767L113.206 257.979Z" fill="#CE7A63"/>
<path d="M117.758 262.858L113.949 256.855L112.23 258.083L115.525 263.265L117.758 262.858Z" fill="#30BABA"/>
<path d="M90.0306 257.265C87.9551 253.746 83.9497 243.156 93.5803 241.313C103.21 239.47 134.845 257.265 134.845 257.265L133.372 261.895L103.418 256.954C103.418 256.954 111.746 264.49 102.637 263.553C95.4109 262.811 92.048 260.686 90.0306 257.265Z" fill="#263238"/>
<path d="M134.064 256.115L132.191 262.161L134.064 262.422L135.752 257.199L134.064 256.115Z" fill="#30BABA"/>
<path d="M109.336 260.229L112.22 263.657C112.328 263.787 112.333 263.974 112.231 264.108L109.963 267.074C109.763 267.339 109.387 267.392 109.123 267.192C109.089 267.166 109.058 267.138 109.03 267.105C108.011 265.851 107.154 264.695 105.858 263.158C104.33 261.342 104.5 261.986 102.674 259.877C101.575 258.604 102.839 257.139 103.37 257.624C105.784 259.856 106.755 259.481 108.459 259.692C108.807 259.759 109.119 259.949 109.336 260.229Z" fill="#30BABA"/>
<path opacity="0.3" d="M109.336 260.229L112.22 263.657C112.328 263.787 112.333 263.974 112.231 264.108L109.963 267.074C109.763 267.339 109.387 267.392 109.123 267.192C109.089 267.166 109.058 267.138 109.03 267.105C108.011 265.851 107.154 264.695 105.858 263.158C104.33 261.342 104.5 261.986 102.674 259.877C101.575 258.604 102.839 257.139 103.37 257.624C105.784 259.856 106.755 259.481 108.459 259.692C108.807 259.759 109.119 259.949 109.336 260.229Z" fill="black"/>
<path d="M138.535 258.964L137.128 263.229C137.074 263.39 137.14 263.566 137.285 263.653L140.5 265.569C140.784 265.741 141.154 265.65 141.326 265.366C141.349 265.33 141.366 265.291 141.38 265.251C141.861 263.704 142.228 262.309 142.862 260.396C143.608 258.138 143.689 258.8 144.604 256.157C145.152 254.564 143.43 253.671 143.118 254.32C141.702 257.296 140.658 257.309 139.151 258.139C138.851 258.329 138.632 258.622 138.535 258.964Z" fill="#30BABA"/>
<path opacity="0.3" d="M138.535 258.964L137.128 263.229C137.074 263.39 137.14 263.566 137.285 263.653L140.5 265.569C140.784 265.741 141.154 265.65 141.326 265.366C141.349 265.33 141.366 265.291 141.38 265.251C141.861 263.704 142.228 262.309 142.862 260.396C143.608 258.138 143.689 258.8 144.604 256.157C145.152 254.564 143.43 253.671 143.118 254.32C141.702 257.296 140.658 257.309 139.151 258.139C138.851 258.329 138.632 258.622 138.535 258.964Z" fill="black"/>
<path d="M115.597 218.788C115.597 218.788 118.143 231.316 119.859 233.394C121.575 235.472 129.055 241.061 129.055 241.061L133.499 240.128L136.685 242.787L134.602 244.431L132.136 243.503C132.136 243.503 130.362 243.856 128.064 243.856C125.766 243.856 116.438 238.367 114.588 235.285C112.739 232.203 110.15 220.614 110.15 220.614L115.597 218.788Z" fill="#CE7A63"/>
<path d="M110.078 222.452C110.078 222.452 106.849 212.676 111.103 209.37C115.358 206.064 117.353 220.641 117.353 220.641L110.078 222.452Z" fill="#30BABA"/>
<path d="M109.207 221.614L109.859 223.29L118.007 221.195L117.681 219.519L109.207 221.614Z" fill="#30BABA"/>
<path d="M87.9586 246.03C87.9586 246.03 82.7023 230.094 89.6841 209.371C89.6841 209.371 98.7442 205.155 111.664 208.247C113.146 208.602 114.044 210.101 113.664 211.576C112.371 216.602 110.373 228.585 115.198 243.731C115.2 243.731 103.17 245.732 87.9586 246.03Z" fill="#30BABA"/>
<path opacity="0.8" d="M87.9586 246.03C87.9586 246.03 82.7023 230.094 89.6841 209.371C89.6841 209.371 98.7442 205.155 111.664 208.247C113.146 208.602 114.044 210.101 113.664 211.576C112.371 216.602 110.373 228.585 115.198 243.731C115.2 243.731 103.17 245.732 87.9586 246.03Z" fill="white"/>
<path d="M102.686 210.237C102.686 210.237 104.319 212.045 105.749 210.237L106.536 210.12C106.536 210.12 106.478 212.045 105.428 212.687C105.428 212.687 107.554 222.099 109.029 236.015L107.596 237.023L105.858 236.015C105.858 236.015 106.286 229.948 104.362 212.832C104.362 212.832 102.249 212.162 101.607 210.12L102.686 210.237Z" fill="#263238"/>
<path d="M99.9863 207.21L104.361 210.998L106.901 208.748C105.941 208.033 106.204 206.419 106.74 204.677L100.537 199.78C100.851 202.08 101.089 205.236 99.9863 207.21Z" fill="#CE7A63"/>
<path d="M94.3648 215.619C94.3648 215.619 97.1557 229.353 99.0373 231.632C100.919 233.91 109.119 240.037 109.119 240.037L113.991 239.014L117.484 241.929L115.201 243.731L112.498 242.714C112.498 242.714 110.553 243.101 108.034 243.101C105.514 243.101 95.2881 237.083 93.2602 233.705C91.233 230.326 88.3945 217.621 88.3945 217.621L94.3648 215.619Z" fill="#CE7A63"/>
<path d="M98.373 207.305L100.11 206.297L104.361 210.999C104.361 210.999 102.024 210.044 101.367 210.43C100.774 210.779 101.188 212.284 100.5 212.296C98.9708 212.322 98.373 207.305 98.373 207.305Z" fill="#30BABA"/>
<path d="M104.361 210.998L106.579 206.621L108.391 207.599C108.391 207.599 110.078 211.848 108.789 212.296C108.005 212.568 107.705 210.581 106.926 210.294C106.302 210.063 104.361 210.998 104.361 210.998Z" fill="#30BABA"/>
<path d="M88.6579 222.452C88.6579 222.452 85.4288 212.676 89.6834 209.37C93.938 206.064 95.933 220.641 95.933 220.641L88.6579 222.452Z" fill="#30BABA"/>
<path d="M87.7891 221.614L88.4408 223.29L96.5888 221.195L96.2633 219.519L87.7891 221.614Z" fill="#30BABA"/>
<path opacity="0.1" d="M100.637 200.595C100.605 200.315 100.571 200.041 100.535 199.78L106.739 204.677C106.508 205.424 106.336 206.143 106.28 206.783C102.533 206.815 101.114 202.674 100.637 200.595Z" fill="black"/>
<path d="M101.706 192.633C100.414 197.008 99.7709 198.851 101.138 201.798C103.19 206.284 108.846 206.913 111.417 203.012C113.716 199.497 115.482 192.939 111.888 189.709C109.348 187.395 105.413 187.579 103.099 190.118C102.444 190.836 101.967 191.697 101.706 192.633Z" fill="#CE7A63"/>
<path d="M106.958 197.779C106.835 198.128 106.915 198.476 107.144 198.56C107.373 198.645 107.66 198.428 107.783 198.079C107.907 197.729 107.831 197.383 107.602 197.298C107.372 197.213 107.085 197.43 106.958 197.779Z" fill="#263238"/>
<path d="M110.898 199.209C110.77 199.558 110.854 199.91 111.079 199.991C111.305 200.071 111.595 199.858 111.723 199.51C111.851 199.161 111.767 198.813 111.542 198.729C111.317 198.645 111.026 198.861 110.898 199.209Z" fill="#263238"/>
<path d="M109.133 198.644C109.156 199.551 109.301 200.45 109.566 201.318C109.114 201.446 108.629 201.367 108.24 201.102L109.133 198.644Z" fill="#BA4D3C"/>
<path d="M106.497 194.698C106.542 194.781 106.635 194.827 106.729 194.811C107.731 194.66 108.644 195.592 108.65 195.601C108.734 195.688 108.872 195.691 108.96 195.608C109.047 195.524 109.051 195.386 108.968 195.298C108.914 195.272 107.888 194.192 106.666 194.374C106.548 194.394 106.466 194.505 106.483 194.624C106.482 194.649 106.487 194.675 106.497 194.698Z" fill="#263238"/>
<path d="M113.107 197.52C113.182 197.545 113.263 197.529 113.323 197.479C113.412 197.4 113.422 197.265 113.347 197.173C112.906 196.621 112.223 196.318 111.518 196.362C111.397 196.376 111.311 196.485 111.326 196.606C111.341 196.726 111.45 196.812 111.57 196.798C112.128 196.774 112.664 197.019 113.009 197.457C113.037 197.486 113.07 197.507 113.107 197.52Z" fill="#263238"/>
<path d="M100.853 195.185C100.853 195.185 102.494 195.147 102.265 193.273C102.265 193.273 104.979 193.197 105.094 191.208C105.094 191.208 107.465 193.311 108.306 191.667C108.306 191.667 111.213 194.267 111.595 192.547C111.595 192.547 114.616 196.294 114.463 194C114.463 194 117.866 193.656 114.807 190.711C114.807 190.711 117.599 188.264 113.087 187.27C113.087 187.27 113.482 184.369 110.304 185.645C110.304 185.645 109.568 182.491 106.815 184.327C106.815 184.327 105.328 182.109 103.701 185.091C103.701 185.091 101.301 183.716 100.536 186.814C100.536 186.814 96.1922 187.342 97.9842 190.195C97.9842 190.195 99.3247 199.78 100.536 199.78C101.36 199.78 100.853 195.185 100.853 195.185Z" fill="#263238"/>
<path d="M107.014 202.476C107.168 202.52 107.325 202.553 107.485 202.571C107.536 202.579 107.585 202.545 107.593 202.494C107.593 202.492 107.593 202.492 107.594 202.49C107.597 202.437 107.558 202.392 107.506 202.385C106.689 202.298 105.962 201.828 105.547 201.12C105.524 201.072 105.467 201.053 105.419 201.076C105.371 201.099 105.352 201.156 105.375 201.204C105.727 201.831 106.318 202.29 107.014 202.476Z" fill="#263238"/>
<path d="M135.903 245.304H118.54C117.721 245.304 117.059 244.641 117.059 243.823H137.384C137.384 244.641 136.721 245.304 135.903 245.304Z" fill="#263238"/>
<path opacity="0.2" d="M135.903 245.304H118.54C117.721 245.304 117.059 244.641 117.059 243.823H137.384C137.384 244.641 136.721 245.304 135.903 245.304Z" fill="white"/>
<path d="M123.122 245.304H110.509C109.69 245.304 109.027 244.641 109.027 243.823H124.603C124.603 244.641 123.94 245.304 123.122 245.304Z" fill="#263238"/>
<path opacity="0.5" d="M123.122 245.304H110.509C109.69 245.304 109.027 244.641 109.027 243.823H124.603C124.603 244.641 123.94 245.304 123.122 245.304Z" fill="white"/>
<path d="M136.025 244.852H124.597C124.356 244.852 124.186 244.613 124.266 244.385L129.349 229.863C129.489 229.463 129.867 229.195 130.291 229.195H141.72C141.961 229.195 142.131 229.434 142.051 229.662L136.968 244.184C136.827 244.583 136.45 244.852 136.025 244.852Z" fill="#263238"/>
<path opacity="0.5" d="M136.025 244.852H124.597C124.356 244.852 124.186 244.613 124.266 244.385L129.349 229.863C129.489 229.463 129.867 229.195 130.291 229.195H141.72C141.961 229.195 142.131 229.434 142.051 229.662L136.968 244.184C136.827 244.583 136.45 244.852 136.025 244.852Z" fill="white"/>
<path d="M136.473 244.852H125.044C124.803 244.852 124.634 244.613 124.713 244.385L129.797 229.863C129.937 229.463 130.315 229.195 130.738 229.195H142.166C142.408 229.195 142.577 229.434 142.498 229.662L137.414 244.184C137.275 244.583 136.898 244.852 136.473 244.852Z" fill="#263238"/>
<path opacity="0.7" d="M136.473 244.852H125.044C124.803 244.852 124.634 244.613 124.713 244.385L129.797 229.863C129.937 229.463 130.315 229.195 130.738 229.195H142.166C142.408 229.195 142.577 229.434 142.498 229.662L137.414 244.184C137.275 244.583 136.898 244.852 136.473 244.852Z" fill="white"/>
<path d="M134.574 237.023C134.455 237.58 134.07 238.031 133.714 238.031C133.358 238.031 133.165 237.58 133.283 237.023C133.401 236.467 133.786 236.016 134.142 236.016C134.499 236.015 134.692 236.467 134.574 237.023Z" fill="white"/>
<path opacity="0.3" d="M101.692 191.657C101.692 191.657 100.817 192.095 100.205 191.657C99.5924 191.219 100.374 189.995 100.374 189.995C98.8217 190.9 97.9824 190.195 97.9824 190.195C97.9824 190.195 99.3229 199.78 100.535 199.78C101.359 199.78 100.852 195.185 100.852 195.185C100.852 195.185 102.493 195.146 102.264 193.273C100.794 192.993 101.692 191.657 101.692 191.657Z" fill="white"/>
<path d="M113.374 198.002C113.207 197.496 112.871 197.129 112.429 196.967C111.571 196.653 110.565 197.227 110.11 198.253L109.271 197.913C109.359 197.473 109.325 197.023 109.156 196.616C108.942 196.096 108.545 195.708 108.039 195.523C107.146 195.196 106.15 195.601 105.623 196.436L104.549 196.003L101.691 194.42L101.521 194.727L104.399 196.319L105.464 196.749C105.444 196.794 105.418 196.834 105.402 196.881C105.201 197.427 105.209 198.012 105.423 198.529C105.637 199.049 106.034 199.437 106.54 199.622C106.749 199.699 106.967 199.737 107.185 199.737C107.495 199.737 107.805 199.661 108.098 199.509C108.595 199.253 108.979 198.81 109.178 198.265C109.179 198.261 109.179 198.258 109.181 198.254L109.99 198.582C109.844 199.075 109.835 199.583 109.984 200.031C110.151 200.536 110.486 200.904 110.929 201.065C111.089 201.124 111.256 201.153 111.426 201.153C111.724 201.153 112.03 201.063 112.319 200.886C112.767 200.612 113.123 200.162 113.322 199.618C113.519 199.074 113.539 198.5 113.374 198.002ZM108.016 199.353C107.561 199.589 107.058 199.625 106.599 199.457C106.139 199.289 105.779 198.935 105.583 198.461C105.386 197.985 105.38 197.445 105.565 196.94C105.869 196.11 106.622 195.584 107.397 195.584C107.592 195.584 107.789 195.617 107.98 195.687C108.439 195.855 108.799 196.208 108.995 196.682C109.192 197.158 109.198 197.699 109.014 198.203C108.828 198.709 108.474 199.117 108.016 199.353ZM113.156 199.557C112.97 200.064 112.64 200.483 112.226 200.736C111.818 200.986 111.38 201.044 110.988 200.901C110.596 200.758 110.299 200.429 110.148 199.976C109.996 199.515 110.014 198.982 110.199 198.476C110.514 197.617 111.234 197.056 111.934 197.056C112.081 197.056 112.227 197.08 112.368 197.132C112.759 197.275 113.057 197.604 113.207 198.058C113.36 198.517 113.342 199.05 113.156 199.557Z" fill="#30BABA"/>
<path opacity="0.5" d="M113.374 198.002C113.207 197.496 112.871 197.129 112.429 196.967C111.571 196.653 110.565 197.227 110.11 198.253L109.271 197.913C109.359 197.473 109.325 197.023 109.156 196.616C108.942 196.096 108.545 195.708 108.039 195.523C107.146 195.196 106.15 195.601 105.623 196.436L104.549 196.003L101.691 194.42L101.521 194.727L104.399 196.319L105.464 196.749C105.444 196.794 105.418 196.834 105.402 196.881C105.201 197.427 105.209 198.012 105.423 198.529C105.637 199.049 106.034 199.437 106.54 199.622C106.749 199.699 106.967 199.737 107.185 199.737C107.495 199.737 107.805 199.661 108.098 199.509C108.595 199.253 108.979 198.81 109.178 198.265C109.179 198.261 109.179 198.258 109.181 198.254L109.99 198.582C109.844 199.075 109.835 199.583 109.984 200.031C110.151 200.536 110.486 200.904 110.929 201.065C111.089 201.124 111.256 201.153 111.426 201.153C111.724 201.153 112.03 201.063 112.319 200.886C112.767 200.612 113.123 200.162 113.322 199.618C113.519 199.074 113.539 198.5 113.374 198.002ZM108.016 199.353C107.561 199.589 107.058 199.625 106.599 199.457C106.139 199.289 105.779 198.935 105.583 198.461C105.386 197.985 105.38 197.445 105.565 196.94C105.869 196.11 106.622 195.584 107.397 195.584C107.592 195.584 107.789 195.617 107.98 195.687C108.439 195.855 108.799 196.208 108.995 196.682C109.192 197.158 109.198 197.699 109.014 198.203C108.828 198.709 108.474 199.117 108.016 199.353ZM113.156 199.557C112.97 200.064 112.64 200.483 112.226 200.736C111.818 200.986 111.38 201.044 110.988 200.901C110.596 200.758 110.299 200.429 110.148 199.976C109.996 199.515 110.014 198.982 110.199 198.476C110.514 197.617 111.234 197.056 111.934 197.056C112.081 197.056 112.227 197.08 112.368 197.132C112.759 197.275 113.057 197.604 113.207 198.058C113.36 198.517 113.342 199.05 113.156 199.557Z" fill="white"/>
<path d="M99.3558 195.635C99.3824 196.517 99.759 197.353 100.402 197.959C101.255 198.757 102.229 198.12 102.428 197.032C102.614 196.053 102.398 194.46 101.325 194.077C100.541 193.813 99.6911 194.235 99.4272 195.019C99.3614 195.217 99.3369 195.427 99.3558 195.635Z" fill="#CE7A63"/>
<path d="M135.181 170.75L128.303 170.916C127.751 170.929 127.256 170.561 127.196 170.094C127.137 169.627 127.535 169.237 128.087 169.224L134.965 169.057C135.517 169.044 136.012 169.412 136.071 169.879C136.131 170.347 135.732 170.736 135.181 170.75Z" fill="#30BABA"/>
<path d="M151.991 163.554L146.888 163.677C146.337 163.691 145.842 163.323 145.782 162.855C145.723 162.388 146.121 161.999 146.673 161.985L151.776 161.862C152.327 161.848 152.822 162.216 152.882 162.683C152.941 163.151 152.543 163.54 151.991 163.554Z" fill="#30BABA"/>
<path d="M208.181 168.982L201.303 169.149C200.751 169.162 200.256 168.794 200.196 168.327C200.137 167.859 200.535 167.47 201.087 167.456L207.965 167.29C208.517 167.276 209.012 167.644 209.071 168.112C209.131 168.579 208.732 168.969 208.181 168.982Z" fill="#30BABA"/>
<path d="M194.424 169.314L141.84 170.588C141.288 170.601 140.793 170.233 140.733 169.766C140.674 169.299 141.072 168.909 141.624 168.896L194.208 167.622C194.76 167.609 195.255 167.977 195.314 168.444C195.375 168.911 194.976 169.301 194.424 169.314Z" fill="#263238"/>
<path d="M135.923 176.578L129.045 176.744C128.493 176.758 127.998 176.39 127.938 175.922C127.879 175.455 128.277 175.065 128.829 175.052L135.707 174.885C136.259 174.872 136.754 175.24 136.814 175.707C136.873 176.175 136.475 176.564 135.923 176.578Z" fill="#30BABA"/>
<path d="M156.782 176.073L142.582 176.417C142.03 176.43 141.535 176.062 141.476 175.595C141.416 175.127 141.814 174.738 142.366 174.724L156.566 174.381C157.118 174.367 157.613 174.735 157.672 175.202C157.732 175.67 157.334 176.059 156.782 176.073Z" fill="#30BABA"/>
<path d="M182.299 175.455L161.22 175.965C160.669 175.979 160.174 175.611 160.114 175.144C160.055 174.676 160.453 174.287 161.005 174.273L182.083 173.763C182.634 173.749 183.129 174.117 183.189 174.585C183.248 175.052 182.849 175.442 182.299 175.455Z" fill="#30BABA"/>
<path d="M136.665 182.405L129.787 182.572C129.235 182.585 128.74 182.217 128.681 181.75C128.621 181.283 129.02 180.893 129.571 180.88L136.449 180.713C137.001 180.7 137.496 181.068 137.556 181.535C137.616 182.002 137.217 182.392 136.665 182.405Z" fill="#30BABA"/>
<path d="M171.502 181.561L143.324 182.244C142.773 182.257 142.277 181.889 142.218 181.422C142.158 180.955 142.557 180.565 143.108 180.552L171.286 179.869C171.838 179.856 172.333 180.224 172.393 180.691C172.453 181.158 172.054 181.548 171.502 181.561Z" fill="#263238"/>
<path d="M137.411 188.233L130.533 188.4C129.981 188.413 129.486 188.045 129.427 187.578C129.367 187.11 129.766 186.721 130.317 186.707L137.196 186.541C137.747 186.527 138.242 186.895 138.302 187.363C138.361 187.83 137.962 188.22 137.411 188.233Z" fill="#30BABA"/>
<path d="M155.938 187.784L144.068 188.072C143.517 188.085 143.021 187.717 142.962 187.25C142.902 186.783 143.301 186.393 143.852 186.38L155.722 186.092C156.274 186.079 156.769 186.447 156.829 186.914C156.889 187.381 156.49 187.771 155.938 187.784Z" fill="#263238"/>
<path d="M183.376 197.868L171.506 198.156C170.954 198.169 170.459 197.801 170.399 197.334C170.34 196.867 170.738 196.477 171.29 196.464L183.16 196.176C183.711 196.163 184.207 196.531 184.266 196.998C184.326 197.465 183.927 197.855 183.376 197.868Z" fill="#30BABA"/>
<path d="M244.831 196.38L189.418 197.722C188.866 197.736 188.371 197.368 188.312 196.9C188.252 196.433 188.65 196.043 189.202 196.03L244.615 194.688C245.167 194.675 245.662 195.043 245.722 195.51C245.782 195.977 245.383 196.367 244.831 196.38Z" fill="#263238"/>
<path d="M224.719 202.713L167.586 204.096C167.034 204.11 166.539 203.742 166.479 203.274C166.42 202.807 166.818 202.417 167.37 202.404L224.503 201.02C225.055 201.007 225.55 201.375 225.609 201.842C225.668 202.31 225.27 202.699 224.719 202.713Z" fill="#30BABA"/>
<path d="M245.576 202.207L231.82 202.541C231.269 202.554 230.773 202.186 230.714 201.719C230.654 201.251 231.053 200.862 231.604 200.848L245.36 200.515C245.912 200.502 246.407 200.87 246.467 201.337C246.526 201.804 246.128 202.194 245.576 202.207Z" fill="#30BABA"/>
<path d="M214.702 208.801L208.933 208.941C208.382 208.954 207.887 208.586 207.827 208.119C207.768 207.652 208.166 207.262 208.718 207.249L214.486 207.109C215.038 207.096 215.533 207.464 215.592 207.931C215.653 208.398 215.254 208.788 214.702 208.801Z" fill="#30BABA"/>
<path d="M246.319 208.036L220.914 208.651C220.362 208.664 219.867 208.296 219.808 207.829C219.748 207.362 220.146 206.972 220.698 206.959L246.103 206.344C246.654 206.33 247.149 206.698 247.209 207.165C247.268 207.633 246.87 208.022 246.319 208.036Z" fill="#263238"/>
<path d="M174.396 215.622L157.533 216.03C156.981 216.044 156.486 215.676 156.427 215.208C156.367 214.741 156.766 214.352 157.317 214.338L174.18 213.93C174.731 213.916 175.226 214.284 175.286 214.752C175.345 215.219 174.946 215.609 174.396 215.622Z" fill="#263238"/>
<path d="M247.063 213.862L196.92 215.077C196.368 215.09 195.873 214.722 195.813 214.255C195.754 213.788 196.152 213.398 196.704 213.385L246.848 212.17C247.399 212.157 247.894 212.525 247.954 212.992C248.014 213.459 247.615 213.849 247.063 213.862Z" fill="#263238"/>
<path d="M192.987 186.887L162.701 187.621C162.149 187.634 161.654 187.266 161.595 186.799C161.535 186.332 161.934 185.942 162.485 185.929L192.771 185.195C193.323 185.182 193.818 185.55 193.877 186.017C193.937 186.484 193.538 186.874 192.987 186.887Z" fill="#263238"/>
<path d="M142.813 193.947L131.275 194.226C130.724 194.24 130.228 193.872 130.169 193.404C130.109 192.937 130.508 192.547 131.059 192.534L142.597 192.255C143.148 192.241 143.643 192.609 143.703 193.076C143.762 193.544 143.364 193.933 142.813 193.947Z" fill="#263238"/>
<path d="M153.941 193.679L147.804 193.827C147.253 193.841 146.758 193.473 146.698 193.005C146.639 192.538 147.037 192.148 147.589 192.135L153.725 191.986C154.276 191.973 154.771 192.341 154.831 192.808C154.89 193.276 154.492 193.665 153.941 193.679Z" fill="#263238"/>
<path d="M131.246 159.901L128.227 160.954L131.492 161.844C131.745 161.913 131.932 162.105 131.96 162.324L131.961 162.332C132.007 162.696 131.608 162.959 131.19 162.839L127.383 161.749C127.019 161.645 126.752 161.367 126.712 161.051L126.697 160.929C126.656 160.612 126.851 160.324 127.186 160.203L130.692 158.936C131.078 158.797 131.541 159.038 131.588 159.403C131.615 159.621 131.479 159.82 131.246 159.901Z" fill="#263238"/>
<path d="M135.512 156.324C135.993 156.312 136.382 156.707 136.272 157.095L134.18 164.484C134.112 164.724 133.868 164.889 133.571 164.896L133.571 164.896C133.09 164.908 132.701 164.513 132.811 164.124L134.904 156.736C134.971 156.496 135.216 156.331 135.512 156.324Z" fill="#263238"/>
<path d="M142.317 160.549L142.333 160.672C142.373 160.988 142.179 161.277 141.843 161.398L138.337 162.664C137.951 162.804 137.488 162.563 137.442 162.198L137.441 162.19C137.413 161.971 137.55 161.771 137.783 161.691L140.801 160.648L137.534 159.748C137.282 159.678 137.096 159.487 137.068 159.268C137.021 158.904 137.42 158.641 137.839 158.761L141.646 159.85C142.01 159.955 142.277 160.233 142.317 160.549Z" fill="#263238"/>
</g>
<path d="M207.748 120.837L204.183 133.67V147.02C200.807 146.945 197.594 145.506 195.232 143.011C192.87 140.516 191.547 137.164 191.547 133.673C191.547 130.182 192.87 126.83 195.232 124.335C197.594 121.841 200.807 120.402 204.183 120.327C205.388 120.326 206.588 120.498 207.748 120.837Z" fill="#A6A6A6"/>
<path d="M211.849 144.421C209.637 146.113 206.958 147.024 204.207 147.02V133.67L211.849 144.421Z" fill="white"/>
<path d="M217.114 133.67C217.116 135.764 216.64 137.829 215.726 139.697C214.811 141.565 213.483 143.184 211.849 144.422L204.207 133.67L214.244 125.285C216.104 127.656 217.118 130.617 217.114 133.67Z" fill="#455A64"/>
<path d="M217.115 120.959L207.055 129.351L210.62 116.511C213.176 117.269 215.444 118.822 217.115 120.959Z" fill="#30BABA"/>
<path d="M133.932 133.877L129.979 134.073L130.846 151.557L134.8 151.361L133.932 133.877Z" fill="#30BABA"/>
<path d="M140.897 126.117L136.943 126.313L138.178 151.194L142.131 150.998L140.897 126.117Z" fill="white"/>
<path d="M148.494 131.084L144.541 131.28L145.511 150.83L149.465 150.634L148.494 131.084Z" fill="#A6A6A6"/>
<path d="M155.504 124.222L151.551 124.418L152.843 150.471L156.797 150.275L155.504 124.222Z" fill="#30BABA"/>
<path d="M163.008 127.351L159.055 127.547L160.174 150.102L164.127 149.906L163.008 127.351Z" fill="white"/>
<path d="M170.975 139.768L167.021 139.964L167.507 149.739L171.46 149.543L170.975 139.768Z" fill="#A6A6A6"/>
<path d="M125.062 117.785L125.592 126.276L126.087 134.768C126.42 140.432 126.714 146.092 127.003 151.757L126.735 151.515L139.413 150.886L152.093 150.288L164.771 149.745L177.456 149.268L164.786 150.053L152.117 150.767L139.44 151.427L126.762 152.056L126.507 152.069L126.494 151.81C126.213 146.148 125.954 140.486 125.725 134.813L125.377 126.313L125.062 117.785Z" fill="#455A64"/>
<defs>
<clipPath id="clip0_1516_1126">
<rect width="350" height="326" fill="white" transform="translate(17)"/>
</clipPath>
</defs>
</svg>
