<svg width="41" height="41" viewBox="0 0 41 41" fill="none" xmlns="http://www.w3.org/2000/svg">
<g clip-path="url(#clip0_702_1787)">
<path d="M20.3919 1.9209C9.58472 1.9209 0.792969 10.6081 0.792969 21.283C0.792969 29.2483 5.84622 36.5016 13.3657 39.332C13.6793 39.4545 14.032 39.4365 14.3358 39.2911C14.6396 39.1441 14.8699 38.8828 14.9712 38.5627L18.6459 26.9699C18.8207 26.4195 18.5806 25.825 18.071 25.549C16.4803 24.6818 15.4922 23.0469 15.4922 21.283C15.4922 18.6126 17.6889 16.4421 20.3919 16.4421C23.0933 16.4421 25.2916 18.6126 25.2916 21.283C25.2916 23.0469 24.3051 24.6818 22.7144 25.5507C22.2048 25.8267 21.9631 26.4212 22.1395 26.9716L25.8143 38.5643C25.9155 38.8828 26.1458 39.1458 26.448 39.2928C26.6178 39.3728 26.8007 39.4136 26.982 39.4136C27.129 39.4136 27.2776 39.3875 27.4181 39.3336C34.9392 36.5032 39.9908 29.2483 39.9908 21.283C39.9908 10.6065 31.1991 1.9209 20.3919 1.9209Z" fill="#52CEC7"/>
</g>
<defs>
<clipPath id="clip0_702_1787">
<rect width="40" height="40" fill="white" transform="translate(0.805664 0.632812)"/>
</clipPath>
</defs>
</svg>
