<svg width="86" height="81" viewBox="0 0 86 81" fill="none" xmlns="http://www.w3.org/2000/svg">
<path d="M76.0068 31.9756C70.1826 30.6123 64.8268 33.3584 62.2218 37.8779C61.1085 39.8076 59.0577 40.999 56.8351 40.999H50.5656C47.1281 40.999 44.3156 38.2178 44.3156 34.749V28.6982C44.3156 26.4755 45.4992 24.4248 47.425 23.3154C51.9641 20.6982 54.718 15.3466 53.3273 9.48339C52.2609 4.99119 48.6046 1.35059 44.1046 0.331092C35.9288 -1.52441 28.6906 4.67489 28.6906 12.5301C28.6906 17.1473 31.214 21.1551 34.9484 23.3151C36.8742 24.4284 38.0656 26.4792 38.0656 28.6979V58.7179C38.0656 62.1867 35.2531 64.9679 31.8156 64.9679H28.6828C26.4562 64.9679 24.4055 63.7765 23.2922 61.8468C20.6906 57.3273 15.3313 54.5812 9.50719 55.9445C5.01889 56.9953 1.37829 60.6398 0.343088 65.132C-1.55141 73.3156 4.66339 80.624 12.4991 80.624C17.1163 80.624 21.1436 78.1006 23.2921 74.3506C24.4015 72.4131 26.4562 71.2178 28.6905 71.2178H31.8155C38.7178 71.2178 44.3155 65.6201 44.3155 58.7178V45.5298C46.1593 46.5923 48.2843 47.2486 50.5655 47.2486H56.8233C59.0538 47.2486 61.1085 48.4439 62.2217 50.3814C64.3701 54.1314 68.3975 56.6548 73.0147 56.6548C80.8506 56.6548 87.0657 49.3462 85.1707 41.1628C84.1316 36.6706 80.4912 33.0264 76.0068 31.9756ZM12.4988 74.3736C9.06129 74.3736 6.24879 71.5611 6.24879 68.0924C6.24879 64.6549 9.06129 61.8424 12.4988 61.8424C15.9676 61.8424 18.78 64.6549 18.78 68.0924C18.78 71.5612 15.9675 74.3736 12.4988 74.3736ZM41.1868 18.7796C37.7493 18.7796 34.9368 15.9671 34.9368 12.5296C34.9368 9.06079 37.7493 6.24839 41.1868 6.24839C44.6243 6.24839 47.4368 9.06089 47.4368 12.5296C47.4368 15.9671 44.6243 18.7796 41.1868 18.7796ZM73.0108 50.4046C69.542 50.4046 66.7296 47.5921 66.7296 44.1234C66.7296 40.6859 69.5421 37.8734 73.0108 37.8734C76.4483 37.8734 79.2608 40.6859 79.2608 44.1234C79.2608 47.5922 76.4483 50.4046 73.0108 50.4046Z" fill="#52CEC7"/>
</svg>
