<svg width="96" height="90" viewBox="0 0 96 90" fill="none" xmlns="http://www.w3.org/2000/svg">
<path d="M38.5039 0.5C41.3659 0.5 43.6914 2.82546 43.6914 5.6875V30.6875C43.6914 33.5495 41.3659 35.875 38.5039 35.875H13.5039C10.6419 35.875 8.31641 33.5495 8.31641 30.6875V5.6875C8.31641 2.82546 10.6419 0.5 13.5039 0.5H38.5039ZM13.5039 4.62402C12.9169 4.62402 12.4417 5.09961 12.4414 5.68652V30.6865C12.4414 31.2737 12.9168 31.749 13.5039 31.749H38.5039C39.091 31.749 39.5664 31.2737 39.5664 30.6865V5.68652C39.5661 5.09961 39.0909 4.62402 38.5039 4.62402H13.5039Z" fill="#52CEC7" stroke="#52CEC7"/>
<path d="M28.2734 38.2529C29.2734 37.7117 30.5263 38.082 31.0684 39.083C31.6096 40.0829 31.2393 41.3359 30.2383 41.8779C26.3054 44.0095 23.8643 48.103 23.8643 52.5674C23.8643 59.267 29.3235 64.7236 36.0361 64.7236C41.0329 64.7236 45.5168 61.6494 47.3408 57.0264L47.5088 56.5742C47.8808 55.498 49.0612 54.9242 50.1367 55.3066H50.1357C51.213 55.68 51.7782 56.8599 51.4023 57.9316C49.1251 64.4603 42.9467 68.8447 36.0352 68.8447C27.0485 68.8447 19.7383 61.5432 19.7383 52.5635C19.7383 46.5906 23.007 41.1058 28.2734 38.2529Z" fill="#52CEC7" stroke="#52CEC7"/>
<path d="M4.0625 35.0615C4.62951 34.0786 5.89373 33.7381 6.87598 34.3096L6.87695 34.3086C7.8618 34.8758 8.20204 36.1379 7.62988 37.124L7.63086 37.125L5.25098 41.2383L12.7041 47.0264H12.7031C13.2653 47.4586 13.5572 48.1473 13.4941 48.8418L13.4766 48.9814C13.2855 50.1701 13.1904 51.3742 13.1904 52.5625C13.1904 53.7508 13.2855 54.9551 13.4766 56.1436L13.4941 56.2832C13.557 56.9807 13.2584 57.6637 12.7051 58.0967L12.7041 58.0977L5.25098 63.8848L10.8418 73.5518L19.583 69.9824L19.5859 69.9814C20.2747 69.7059 21.0682 69.8098 21.6553 70.2861C23.4607 71.7399 25.4049 72.8889 27.4453 73.709L27.8555 73.8682C28.5614 74.1361 29.0668 74.7698 29.1699 75.5176L30.458 84.875H41.5947L42.8828 75.5176C42.9862 74.7648 43.4915 74.1357 44.1963 73.8682H44.1973C46.4149 73.0323 48.4975 71.8294 50.3906 70.292L50.502 70.207C51.073 69.8037 51.8161 69.7165 52.4688 69.9824L61.2246 73.5518L66.7998 63.8848L60.3486 58.8799V58.8789C59.4456 58.1811 59.2871 56.8826 59.9824 55.9863C60.6802 55.083 61.9796 54.9257 62.876 55.6211L70.7461 61.7295L70.7471 61.7305C71.5606 62.364 71.7833 63.4984 71.2676 64.3906L63.8926 77.1709V77.1719C63.3775 78.0628 62.2836 78.4402 61.3281 78.0479V78.0469L52.0049 74.2471C50.3772 75.4527 48.635 76.4591 46.8037 77.2539L45.4355 87.2158C45.2959 88.241 44.4232 88.999 43.3926 88.999H28.6592C27.6267 88.999 26.758 88.2398 26.6094 87.2158L26.6084 87.2119L25.2402 77.25C23.4247 76.461 21.6851 75.455 20.042 74.2432L10.7314 78.0469L10.7324 78.0479C9.78045 78.4409 8.68305 78.0625 8.16797 77.1719L0.777344 64.3906C0.261563 63.4983 0.483363 62.364 1.29688 61.7305L1.29785 61.7295L9.2373 55.5645C9.12452 54.5664 9.06544 53.5581 9.06543 52.5625C9.06543 51.566 9.1242 50.5594 9.24023 49.5547L1.30273 43.3955L1.15625 43.2715C0.461276 42.6236 0.298382 41.5699 0.78125 40.7344V40.7334L4.0625 35.0615Z" fill="#52CEC7" stroke="#52CEC7"/>
<path d="M90.0664 8.3125C92.9284 8.3125 95.2539 10.638 95.2539 13.5V47.875C95.2539 50.737 92.9284 53.0625 90.0664 53.0625H40.0664C37.2044 53.0625 34.8789 50.737 34.8789 47.875V40.0625C34.8789 38.9231 35.802 38 36.9414 38C38.0808 38 39.0039 38.9231 39.0039 40.0625V47.875C39.0039 48.4621 39.4793 48.9375 40.0664 48.9375H90.0664C90.6535 48.9375 91.1289 48.4621 91.1289 47.875V13.5C91.1289 12.9129 90.6535 12.4375 90.0664 12.4375H47.8779C46.7387 12.4372 45.8154 11.5143 45.8154 10.375C45.8154 9.23574 46.7387 8.31276 47.8779 8.3125H90.0664Z" fill="#52CEC7" stroke="#52CEC7"/>
<path d="M74.4414 22.375C75.5808 22.375 76.5039 23.2981 76.5039 24.4375C76.5039 25.5769 75.5808 26.5 74.4414 26.5H55.6914C54.552 26.5 53.6289 25.5769 53.6289 24.4375C53.6289 23.2981 54.552 22.375 55.6914 22.375H74.4414Z" fill="#52CEC7" stroke="#52CEC7"/>
<path d="M74.4414 34.875C75.5808 34.875 76.5039 35.7981 76.5039 36.9375C76.5039 38.0769 75.5808 39 74.4414 39H55.6914C54.552 39 53.6289 38.0769 53.6289 36.9375C53.6289 35.7981 54.552 34.875 55.6914 34.875H74.4414Z" fill="#52CEC7" stroke="#52CEC7"/>
<path d="M30.0186 13.0791C30.7757 12.3266 31.9696 12.2779 32.7793 12.9385L32.9355 13.0801L32.9365 13.0811C33.7391 13.8886 33.7408 15.1928 32.9355 15.998L25.6426 23.291C25.2398 23.6938 24.7083 23.8945 24.1836 23.8945C23.6543 23.8945 23.127 23.6933 22.7246 23.291L19.0752 19.6416C18.2726 18.834 18.2709 17.5299 19.0762 16.7246L19.0771 16.7236C19.8847 15.9211 21.1889 15.9194 21.9941 16.7246L24.1836 18.9141L30.0186 13.0791Z" fill="#52CEC7" stroke="#52CEC7"/>
</svg>
