<svg width="89" height="92" viewBox="0 0 89 92" fill="none" xmlns="http://www.w3.org/2000/svg">
<path d="M41.7152 91.8361H46.6644C48.9925 91.8361 50.8792 89.9494 50.8792 87.633V86.9299C50.8792 86.5822 51.1644 86.2854 51.5238 86.2854H86.9298C87.7344 86.2854 88.379 85.633 88.379 84.8362V25.2032C88.379 24.3985 87.7266 23.754 86.9298 23.754H82.2853V18.9376C82.2853 18.1329 81.6329 17.4884 80.8361 17.4884H61.6841V14.8361C61.6841 14.1407 61.1958 13.5509 60.5122 13.4064L58.0434 12.9259L57.227 10.9454L58.6253 8.85159C59.0121 8.28128 58.93 7.50389 58.4418 7.01569L54.6645 3.23839C54.184 2.7462 53.4067 2.67198 52.8364 3.06261L50.7544 4.46101L48.7739 3.6446L48.2856 1.1758C48.145 0.4883 47.5512 0 46.8559 0H41.5082C40.8129 0 40.223 0.48828 40.0785 1.1719L39.5902 3.6407L37.6097 4.45711L35.5316 3.06261C34.9613 2.67589 34.1839 2.75792 33.6957 3.2462L29.9184 7.0235C29.4301 7.51178 29.3559 8.2774 29.7348 8.8594L31.1332 10.9532L30.3168 12.9337L27.8559 13.4064C27.1723 13.5392 26.684 14.1407 26.684 14.8361V17.4884H7.539C6.73431 17.4884 6.0898 18.1407 6.0898 18.9376V23.754H1.4492C0.64451 23.754 0 24.4063 0 25.2032V84.8362C0 85.6409 0.65234 86.2854 1.4492 86.2854H36.8552C37.2029 86.2854 37.4997 86.5705 37.4997 86.9299V87.633C37.4997 89.9494 39.3871 91.8361 41.7152 91.8361ZM29.5822 16.0201L31.6447 15.6139C32.1252 15.5201 32.5236 15.1959 32.7072 14.7467L34.1252 11.3287C34.3088 10.8794 34.258 10.3677 33.9924 9.96147L32.8283 8.21537L34.9221 6.12157L36.6682 7.28567C37.0667 7.55129 37.5862 7.60208 38.0354 7.41848L41.4299 6.02008C41.8791 5.83649 42.2073 5.43805 42.2971 4.95758L42.7034 2.89508H45.6643L46.0705 4.95758C46.1643 5.43805 46.4885 5.83649 46.9377 6.02008L50.3557 7.43808C50.8049 7.62167 51.3166 7.57089 51.7229 7.30527L53.469 6.14117L55.5628 8.23497L54.3987 9.98107C54.1331 10.3795 54.0823 10.899 54.2659 11.3483L55.6839 14.7663C55.8675 15.2155 56.2659 15.5436 56.7464 15.6335L58.8089 16.0397V19.0006L56.723 19.3873C56.2425 19.4811 55.8441 19.8053 55.6605 20.2545L54.2425 23.6725C54.0589 24.1217 54.1097 24.6335 54.3753 25.0397L55.5394 26.7858L53.4456 28.8796L51.6995 27.7155C51.2933 27.4499 50.7815 27.3874 50.3323 27.5827L46.9378 28.9811C46.4886 29.1647 46.1605 29.5631 46.0706 30.0436L45.6644 32.1061H42.7035L42.2972 30.0436C42.2035 29.5631 41.8792 29.1764 41.43 28.9811L38.012 27.5631C37.5628 27.3795 37.0511 27.4303 36.6448 27.6959L34.8987 28.86L32.8049 26.7662L33.969 25.0201C34.2346 24.6217 34.2854 24.1021 34.1018 23.6529L32.6838 20.2349C32.5002 19.7857 32.1018 19.4576 31.6213 19.3677L29.5588 18.9615L29.5627 16.0201L29.5822 16.0201ZM44.1842 44.9811C45.071 44.9811 45.7975 45.7038 45.7975 46.5944C45.7975 47.4811 45.0749 48.2077 44.1842 48.2077C43.2975 48.2077 42.5709 47.485 42.5709 46.5944C42.5709 45.7038 43.2975 44.9811 44.1842 44.9811ZM9.00023 20.3791H26.7032C26.7853 20.9807 27.2423 21.4729 27.8555 21.5939L30.3243 22.0822L31.1407 24.0627L29.7423 26.1447C29.3556 26.715 29.4377 27.4924 29.9259 27.9806L30.7931 28.8478L27.1095 32.5314C26.8322 32.8087 26.6798 33.1759 26.6798 33.5626V38.7071C24.9025 39.3086 23.6173 41.004 23.6173 42.9844C23.6173 45.4727 25.6368 47.4961 28.129 47.4961C30.6173 47.4961 32.6407 45.4766 32.6407 42.9844C32.6407 41.0039 31.3555 39.3203 29.5782 38.7071V34.168L32.8321 30.9141L33.6993 31.7813C34.1876 32.2695 34.9532 32.3438 35.5352 31.9649L37.6172 30.5665L39.5977 31.3946L40.086 33.8634C40.2188 34.547 40.8204 35.0353 41.504 35.0353H42.7267V42.3517C40.9415 42.9532 39.6564 44.6486 39.6564 46.629C39.6564 49.1173 41.6876 51.1407 44.1759 51.1407C46.6642 51.1407 48.6876 49.1212 48.6876 46.629C48.6876 44.6485 47.4024 42.9649 45.6251 42.3517L45.6329 35.0001H46.8477C47.543 35.0001 48.1329 34.5118 48.2657 33.8282L48.754 31.3594L50.7345 30.5313L52.8165 31.9297C53.3868 32.3164 54.1642 32.2344 54.6524 31.7461L55.5196 30.8789L58.7735 34.1328V38.6719C56.9962 39.2734 55.711 40.9688 55.711 42.9492C55.711 45.4375 57.7305 47.4609 60.2227 47.4609C62.711 47.4609 64.7344 45.4414 64.7344 42.9492C64.7344 40.9687 63.4492 39.2851 61.6719 38.6719V33.5274C61.6719 33.1407 61.5195 32.7735 61.2422 32.4962L57.5586 28.8126L58.4258 27.9454C58.9141 27.4571 58.9883 26.6915 58.6094 26.1095L57.211 24.0275L58.0274 22.047L60.5118 21.59C61.1251 21.4689 61.5821 20.9767 61.6641 20.3752H79.3671V77.0982L50.4611 77.1021C48.633 77.1021 46.9611 77.7349 45.6447 78.7974V55.3174C45.6447 54.5127 44.9923 53.8682 44.1955 53.8682C43.3908 53.8682 42.7463 54.5205 42.7463 55.3174V78.8054C41.4182 77.7429 39.7463 77.1101 37.9182 77.1101L9.00018 77.114L9.00023 20.3791ZM28.1332 41.3561C29.02 41.3561 29.7465 42.0788 29.7465 42.9694C29.7465 43.8561 29.0239 44.5827 28.1332 44.5827C27.2465 44.5827 26.5199 43.86 26.5199 42.9694C26.5199 42.0827 27.2465 41.3561 28.1332 41.3561ZM60.2352 41.3561C61.122 41.3561 61.8485 42.0788 61.8485 42.9694C61.8485 43.8561 61.1259 44.5827 60.2352 44.5827C59.3485 44.5827 58.6219 43.86 58.6219 42.9694C58.6219 42.0827 59.3485 41.3561 60.2352 41.3561ZM36.8562 83.3871H2.89923V26.6531H6.09453V78.5591C6.09453 79.3638 6.74687 80.0083 7.54373 80.0083H37.9107C40.5748 80.0083 42.7388 82.1724 42.7388 84.8364C42.7388 85.6411 43.3912 86.2856 44.188 86.2856C44.9927 86.2856 45.6372 85.6333 45.6372 84.8364C45.6372 82.1723 47.8013 80.0083 50.4536 80.0083H80.8206C81.6253 80.0083 82.2698 79.356 82.2698 78.5591L82.2659 26.6531H85.4612V83.3871H51.5122C49.563 83.3871 47.9731 84.9809 47.9731 86.9262V87.6293C47.9731 88.352 47.3794 88.934 46.6567 88.934H41.7075C40.9849 88.934 40.3911 88.352 40.3911 87.6293V86.9262C40.3989 84.9692 38.8172 83.3871 36.8562 83.3871ZM13.1142 35.9571C13.1142 35.1524 13.7666 34.5079 14.5634 34.5079H21.3173C22.122 34.5079 22.7665 35.1603 22.7665 35.9571C22.7665 36.7618 22.1142 37.4063 21.3173 37.4063H14.5634C13.7665 37.418 13.1142 36.7657 13.1142 35.9571ZM38.6142 61.5191C38.6142 62.3238 37.9619 62.9683 37.165 62.9683H32.04C31.2353 62.9683 30.5908 62.316 30.5908 61.5191C30.5908 60.7144 31.2432 60.0699 32.04 60.0699H37.1611C37.9697 60.0699 38.6142 60.7144 38.6142 61.5191ZM13.1142 27.4371C13.1142 26.6324 13.7666 25.9879 14.5634 25.9879H24.6964C25.5011 25.9879 26.1456 26.6402 26.1456 27.4371C26.1456 28.2418 25.4933 28.8863 24.6964 28.8863H14.5634C13.7665 28.898 13.1142 28.2457 13.1142 27.4371ZM13.1142 44.4801C13.1142 43.6754 13.7666 43.0309 14.5634 43.0309H20.8095C21.6142 43.0309 22.2587 43.6833 22.2587 44.4801C22.2587 45.2848 21.6064 45.9293 20.8095 45.9293H14.5634C13.7665 45.9371 13.1142 45.2848 13.1142 44.4801ZM13.1142 52.9996C13.1142 52.1949 13.7666 51.5504 14.5634 51.5504H37.1574C37.9621 51.5504 38.6066 52.2028 38.6066 52.9996C38.6066 53.8043 37.9543 54.4488 37.1574 54.4488H14.5714C13.7667 54.4488 13.1142 53.8043 13.1142 52.9996ZM13.1142 61.5191C13.1142 60.7144 13.7666 60.0699 14.5634 60.0699H27.6764C28.4811 60.0699 29.1256 60.7222 29.1256 61.5191C29.1256 62.3238 28.4733 62.9683 27.6764 62.9683H14.5714C13.7667 62.9683 13.1142 62.316 13.1142 61.5191ZM13.1142 70.0386C13.1142 69.2339 13.7666 68.5894 14.5634 68.5894H21.7157C22.5204 68.5894 23.1649 69.2417 23.1649 70.0386C23.1649 70.8433 22.5126 71.4878 21.7157 71.4878H14.5634C13.7665 71.4878 13.1142 70.8355 13.1142 70.0386ZM75.2552 44.4796C75.2552 45.2843 74.6029 45.9288 73.806 45.9288H67.8177C67.013 45.9288 66.3685 45.2765 66.3685 44.4796C66.3685 43.6749 67.0209 43.0304 67.8177 43.0304H73.806C74.6029 43.0304 75.2552 43.6828 75.2552 44.4796ZM49.7552 52.9991C49.7552 52.1944 50.4076 51.5499 51.2044 51.5499H73.7984C74.6031 51.5499 75.2476 52.2023 75.2476 52.9991C75.2476 53.8038 74.5953 54.4483 73.7984 54.4483H51.2044C50.3997 54.4483 49.7552 53.8038 49.7552 52.9991ZM65.4192 37.4171C64.6145 37.4171 63.97 36.7648 63.97 35.9679C63.97 35.1632 64.6224 34.5187 65.4192 34.5187H73.8059C74.6106 34.5187 75.2551 35.1711 75.2551 35.9679C75.2551 36.7726 74.6028 37.4171 73.8059 37.4171H65.4192ZM75.2551 61.5191C75.2551 62.3238 74.6028 62.9683 73.8059 62.9683H68.6731C67.8684 62.9683 67.2239 62.316 67.2239 61.5191C67.2239 60.7144 67.8763 60.0699 68.6731 60.0699H73.7942C74.6028 60.0699 75.2551 60.7144 75.2551 61.5191ZM67.6145 27.4371C67.6145 26.6324 68.2669 25.9879 69.0637 25.9879H73.7981C74.6028 25.9879 75.2473 26.6402 75.2473 27.4371C75.2473 28.2418 74.595 28.8863 73.7981 28.8863H69.0637C68.2668 28.898 67.6145 28.2457 67.6145 27.4371ZM49.7555 61.5191C49.7555 60.7144 50.4079 60.0699 51.2047 60.0699H64.3177C65.1224 60.0699 65.7669 60.7222 65.7669 61.5191C65.7669 62.3238 65.1146 62.9683 64.3177 62.9683H51.2047C50.4 62.9683 49.7555 62.316 49.7555 61.5191ZM64.7165 28.8981H62.6149C61.8102 28.8981 61.1657 28.2458 61.1657 27.4489C61.1657 26.6442 61.8181 25.9997 62.6149 25.9997H64.7165C65.5212 25.9997 66.1657 26.652 66.1657 27.4489C66.1657 28.2458 65.5134 28.8981 64.7165 28.8981ZM49.7555 70.0391C49.7555 69.2344 50.4079 68.5899 51.2047 68.5899H58.357C59.1617 68.5899 59.8062 69.2422 59.8062 70.0391C59.8062 70.8438 59.1539 71.4883 58.357 71.4883H51.2047C50.4 71.4883 49.7555 70.836 49.7555 70.0391ZM44.1852 26.4301C49.1032 26.4301 53.1149 22.4301 53.1149 17.5004C53.1149 12.5707 49.1149 8.57071 44.1852 8.57071C39.2555 8.57071 35.2555 12.5824 35.2555 17.5004C35.2555 22.4301 39.2672 26.4301 44.1852 26.4301ZM44.1852 11.4691C47.5133 11.4691 50.2047 14.1722 50.2047 17.5003C50.2047 20.8284 47.5016 23.5198 44.1852 23.5198C40.8571 23.5198 38.154 20.8167 38.154 17.5003C38.154 14.1722 40.8571 11.4691 44.1852 11.4691Z" fill="#52CEC7"/>
</svg>
