<svg width="92" height="92" viewBox="0 0 92 92" fill="none" xmlns="http://www.w3.org/2000/svg">
<path fill-rule="evenodd" clip-rule="evenodd" d="M0.000544378 45.9916C-0.0346116 43.7416 1.64114 41.8275 3.87944 41.5697C6.11384 41.3119 8.18414 42.7924 8.66064 44.9916H21.6606V46.9916H8.66064C8.18408 49.1908 6.11374 50.6713 3.87944 50.4135C1.64114 50.1557 -0.0346556 48.2416 0.000544378 45.9916ZM61.5595 23.5506C65.3603 23.5584 68.4345 26.6326 68.4423 30.4334V61.5504C68.4345 65.3512 65.3603 68.4254 61.5595 68.4332H30.4425C26.6417 68.4254 23.5675 65.3512 23.5597 61.5504V30.4334C23.5676 26.6326 26.6417 23.5584 30.4425 23.5506H61.5595ZM61.8291 35.4216C60.7158 33.2888 58.5635 31.9021 56.1611 31.7732C55.5673 29.6404 53.79 28.0466 51.6025 27.699C49.4189 27.3474 47.2314 28.3006 46.0009 30.1404C44.7704 28.3006 42.5829 27.3474 40.3993 27.699C38.2118 28.0467 36.4345 29.6404 35.8407 31.7732C33.5634 31.8904 31.493 33.1443 30.3368 35.1091C29.1766 37.0739 29.0829 39.4919 30.079 41.5427C28.2782 43.0193 27.4501 45.3825 27.9345 47.6599C28.4188 49.9411 30.1337 51.7615 32.3798 52.3826C31.7821 55.2615 33.4696 58.1248 36.2821 58.992C36.2743 59.7342 36.4266 60.4686 36.7196 61.1522C37.5438 63.1249 39.4813 64.4061 41.6219 64.3905C43.3758 64.3827 45.0125 63.5116 46.0008 62.0624C46.9969 63.496 48.6336 64.3515 50.3797 64.3515C52.5945 64.3867 54.5945 63.0312 55.3797 60.9609C55.6297 60.3242 55.7586 59.6484 55.7625 58.9609C57.2391 58.5039 58.4656 57.4648 59.1609 56.082C59.7429 54.9453 59.9187 53.6445 59.6609 52.3906C61.907 51.7734 63.6218 49.9531 64.1062 47.6718C64.5906 45.3905 63.7624 43.0312 61.9617 41.5507C62.8992 39.6054 62.8486 37.3278 61.8291 35.4216ZM59.001 44.5935C59.7002 44.2185 60.3291 43.7302 60.8604 43.1404C62.0792 44.2146 62.5909 45.8787 62.1846 47.449C61.7822 49.0193 60.5323 50.2302 58.9502 50.5818C58.501 49.8123 57.8721 49.1599 57.1221 48.6834C56.9072 48.5428 56.6494 48.492 56.3994 48.5467C56.1494 48.6014 55.9346 48.7537 55.8018 48.9725C55.54 49.4178 55.6611 49.992 56.0791 50.2928C57.2939 51.0662 57.9658 52.4608 57.8174 53.8944C57.669 55.3241 56.7276 56.5506 55.3799 57.0624C55.0908 56.3006 54.6299 55.6171 54.0322 55.0624C53.6377 54.8709 53.165 54.9608 52.8642 55.2811C52.5673 55.6053 52.5126 56.0819 52.7314 56.4608C53.7705 57.4178 54.1064 58.9139 53.579 60.2225C53.0869 61.5467 51.8134 62.4139 50.3993 62.3905C48.5243 62.3866 47.0048 60.8671 47.0009 58.9921V41.7931C47.3174 41.5392 47.6533 41.3087 48.0009 41.1017C48.5439 40.7814 49.1142 40.5119 49.7118 40.3009C50.0908 40.0392 50.2392 39.547 50.0673 39.1173C49.8993 38.6876 49.4579 38.4298 49.0009 38.4923C48.3017 38.7619 47.6337 39.0939 47.0009 39.4923V33.2931C46.997 32.0978 47.5634 30.9689 48.5243 30.2619C49.4892 29.551 50.7313 29.344 51.872 29.6994C53.0165 30.0588 53.915 30.9416 54.3017 32.0744C54.6845 33.2033 54.5087 34.4533 53.8212 35.4338C53.6806 35.8518 53.833 36.3127 54.1962 36.5666C54.5595 36.8205 55.0439 36.8088 55.3915 36.5315C55.9697 35.6994 56.3134 34.7229 56.3915 33.7112C58.5282 33.9494 60.2587 35.555 60.6532 37.6682C61.0517 39.7815 60.0243 41.9026 58.122 42.9026C57.6728 43.1643 57.501 43.7229 57.7197 44.1917C57.9814 44.6331 58.5362 44.8083 59.001 44.5935ZM55.001 43.4021C54.5361 43.1677 53.9737 43.3318 53.7002 43.7732C52.9892 44.9373 51.5791 45.4763 50.2705 45.0818C49.8291 45.0974 49.4541 45.3982 49.3408 45.824C49.2275 46.2498 49.4072 46.699 49.7822 46.9334C50.4345 47.1053 51.1103 47.156 51.7822 47.0818C51.79 47.4764 51.6455 47.8592 51.3799 48.1521C51.04 48.5506 51.0674 49.1443 51.4424 49.5115C51.8369 49.8436 52.4228 49.8201 52.7901 49.4529C53.5205 48.6365 53.8331 47.5271 53.6299 46.4529C54.3799 46.035 54.9971 45.4138 55.4111 44.6638C55.6103 44.199 55.4346 43.6599 55.001 43.4021ZM45.001 33.2731V39.9919C44.3252 39.2927 43.5244 38.7224 42.6416 38.3122C42.415 38.0661 42.0791 37.9528 41.751 38.0036C41.4189 38.0583 41.1377 38.2731 41.001 38.5778C40.8603 38.8786 40.8799 39.2341 41.0556 39.5153C41.2314 39.8005 41.5361 39.9802 41.8721 39.9919C42.7627 40.4099 43.5401 41.0349 44.1416 41.8122C44.6455 42.4333 44.9462 43.195 45.0009 43.9919V51.9919C43.9618 51.8395 42.8993 52.0583 42.0009 52.6013C41.6962 52.6833 41.4502 52.906 41.333 53.195C41.2158 53.488 41.247 53.82 41.4111 54.0856C41.5712 54.3552 41.8525 54.5309 42.165 54.5622C42.4814 54.5934 42.79 54.4724 43.0009 54.2419C44.1493 53.6325 44.7704 53.781 45.0009 53.9333V58.9919C45.0048 59.9021 44.6455 60.7731 44.0009 61.4177C43.3603 62.0583 42.4892 62.4216 41.579 62.4216C40.2079 62.4411 38.9657 61.6208 38.4423 60.3513C37.8916 59.0974 38.1455 57.6365 39.0908 56.6404C39.3681 56.4881 39.5556 56.2107 39.5986 55.8943C39.6377 55.5818 39.5283 55.2654 39.2978 55.0428C39.0673 54.824 38.747 54.7263 38.4345 54.781C38.122 54.8357 37.8525 55.0388 37.7119 55.3201C37.2353 55.824 36.8564 56.4099 36.6025 57.0506C35.2548 56.5428 34.3095 55.3162 34.1611 53.8865C34.0087 52.4529 34.6806 51.0584 35.8916 50.281C36.3173 49.988 36.4502 49.4138 36.1923 48.9607C35.8916 48.5388 35.3213 48.4099 34.872 48.6716C34.1142 49.1482 33.4814 49.8005 33.0322 50.57C31.2978 50.1872 29.9814 48.7809 29.7041 47.0309C29.4307 45.277 30.2588 43.5348 31.79 42.6403C32.4541 42.2458 33.2119 42.0388 33.9814 42.0427C34.2822 42.1286 34.6104 42.07 34.8604 41.8825C35.1143 41.6911 35.2627 41.3981 35.2627 41.0817C35.2627 40.7653 35.1143 40.4723 34.8604 40.2809C34.6104 40.0934 34.2822 40.0349 33.9814 40.1208C33.2002 40.1286 32.4267 40.277 31.7002 40.5622C30.8213 38.6169 31.3057 36.3278 32.8955 34.906C34.4853 33.4802 36.8135 33.2537 38.6494 34.3435C38.8487 34.5896 39.1534 34.7263 39.4698 34.7146C39.7862 34.7029 40.0791 34.5427 40.2549 34.281C40.4346 34.0193 40.4776 33.6873 40.376 33.3904C40.2705 33.0896 40.0323 32.8552 39.7315 32.7615C39.1143 32.3826 38.4385 32.1052 37.7315 31.9412C38.3369 30.2029 40.1221 29.1639 41.9346 29.4959C43.7471 29.8279 45.0479 31.4294 45.001 33.2731ZM40.001 43.2223C39.29 43.5934 38.7549 44.2301 38.5127 44.9918C38.2978 44.7262 38.1338 44.4254 38.0322 44.1012C38.0361 43.7848 37.8877 43.484 37.6377 43.2926C37.3877 43.1012 37.0596 43.0426 36.7549 43.1285C36.4502 43.2145 36.2041 43.441 36.0947 43.7379C35.9853 44.0348 36.0205 44.3668 36.1924 44.6324C36.8564 46.5816 38.5908 47.9683 40.6416 48.191C41.0791 48.1285 41.4267 47.7809 41.4853 47.3434C41.5478 46.902 41.3134 46.4762 40.9111 46.2926C40.6689 46.2613 40.4306 46.2105 40.2002 46.1324C40.2314 45.6519 40.5048 45.2184 40.9306 44.9918C41.2587 44.691 41.3447 44.2106 41.1494 43.8121C40.9541 43.4176 40.5166 43.1949 40.0791 43.2731L40.001 43.2223ZM45.001 8.6523V21.6523H47.001V8.6523C49.1807 8.16402 50.6416 6.1132 50.3955 3.8945C50.1494 1.6757 48.2744 0 46.04 0C43.8095 0 41.9345 1.6758 41.6884 3.8945C41.4423 6.1132 42.9032 8.164 45.079 8.6523H45.001ZM87.579 41.6523C85.5673 41.664 83.8212 43.039 83.3407 44.9921H70.3407V46.9921H83.3407C83.7079 48.6327 84.9891 49.9218 86.6259 50.3007C88.2665 50.6796 89.9775 50.0859 91.0321 48.7695C92.0829 47.457 92.2899 45.6562 91.5633 44.1406C90.8368 42.6211 89.3055 41.6562 87.6219 41.6523H87.579ZM47.001 83.3323V70.3323H45.001V83.3323C42.8213 83.8206 41.3604 85.8714 41.6065 88.0901C41.8526 90.3089 43.7276 91.9846 45.962 91.9846C48.1925 91.9846 50.0675 90.3088 50.3136 88.0901C50.5597 85.8714 49.0988 83.8206 46.923 83.3323H47.001ZM34.11 81.9026H8.66097C8.17269 79.7229 6.12187 78.262 3.90317 78.5081C1.68447 78.7542 0.00867445 80.6292 0.00867445 82.8636C0.00867445 85.0941 1.68447 86.9691 3.90317 87.2152C6.12187 87.4613 8.17267 86.0004 8.66097 83.8207H35.071C35.3366 83.8207 35.5905 83.7191 35.778 83.5277C35.9655 83.3402 36.071 83.0863 36.071 82.8207V70.3517H34.1101L34.11 81.9026ZM70.622 73.1409C68.5712 73.1409 66.7978 74.5628 66.3525 76.5628H57.8916V70.3519H56.001V77.5238C56.001 77.7894 56.1064 78.0433 56.2939 78.2308C56.4814 78.4183 56.7354 78.5238 57.001 78.5238H66.4229C66.7901 80.1644 68.0674 81.4535 69.7081 81.8285C71.3526 82.2074 73.0636 81.6137 74.1143 80.2973C75.169 78.9809 75.3721 77.1801 74.6416 75.6645C73.9111 74.145 72.376 73.1801 70.6924 73.184L70.622 73.1409ZM83.829 83.3319V56.9219C83.829 56.6563 83.7274 56.4024 83.536 56.2149C83.3485 56.0274 83.0946 55.9219 82.829 55.9219H70.36V57.8321H81.911V83.3321C79.7313 83.8204 78.2704 85.8712 78.5165 88.0899C78.7626 90.3086 80.6376 91.9844 82.872 91.9844C85.1025 91.9844 86.9775 90.3086 87.2236 88.0899C87.4697 85.8712 86.0087 83.8202 83.829 83.3319ZM70.36 34.1019V35.9925H77.5319C77.7975 35.9925 78.0514 35.887 78.2389 35.6995C78.4264 35.512 78.5319 35.2581 78.5319 34.9925V25.6409C80.7077 25.1526 82.1686 23.1057 81.9225 20.887C81.6764 18.6683 79.8014 16.9886 77.5709 16.9886C75.3365 16.9886 73.4615 18.6683 73.2154 20.887C72.9693 23.1057 74.4342 25.1526 76.6099 25.6409V34.1018L70.36 34.1019ZM57.891 10.1019H83.34C83.8283 12.2816 85.8791 13.7425 88.0978 13.4964C90.3165 13.2503 91.9923 11.3753 91.9923 9.1409C91.9923 6.9104 90.3165 5.0354 88.0978 4.7893C85.8791 4.5432 83.8283 6.0041 83.34 8.1838H56.93C56.3792 8.1838 55.93 8.62911 55.93 9.1838V21.6328H57.8402L57.891 10.1019ZM21.379 18.8441C23.4298 18.8441 25.2032 17.4222 25.6485 15.4222H34.1094V21.6331H36V14.4612C36 14.1956 35.8945 13.9417 35.707 13.7542C35.5195 13.5667 35.2656 13.4612 35 13.4612H25.6484C25.2812 11.8206 24.0039 10.5315 22.3593 10.1565C20.7187 9.77759 19.0077 10.3713 17.957 11.6877C16.9023 13.0041 16.6992 14.8049 17.4296 16.3205C18.1601 17.84 19.6952 18.8049 21.3788 18.801L21.379 18.8441ZM8.17197 8.6531V35.0631C8.17197 35.3287 8.27353 35.5826 8.46494 35.7701C8.65244 35.9576 8.90635 36.0631 9.17197 36.0631H21.641V34.1022H10.09V8.6532C12.2697 8.16492 13.7306 6.1141 13.4845 3.8954C13.2384 1.6767 11.3634 0.000900269 9.12897 0.000900269C6.89847 0.000900269 5.02347 1.6767 4.77737 3.8954C4.53127 6.1141 5.99227 8.1648 8.17197 8.6531ZM21.641 57.8831V55.9925H14.4691C13.9183 55.9925 13.4691 56.4417 13.4691 56.9925V66.4144C11.2933 66.9027 9.83238 68.9496 10.0785 71.1683C10.3246 73.387 12.1996 75.0667 14.4301 75.0667C16.6645 75.0667 18.5395 73.387 18.7856 71.1683C19.0317 68.9496 17.5668 66.9027 15.3911 66.4144V57.8832L21.641 57.8831Z" fill="#52CEC7"/>
</svg>
