<svg width="89" height="69" viewBox="0 0 89 69" fill="none" xmlns="http://www.w3.org/2000/svg">
<mask id="path-1-outside-1_1457_7913" maskUnits="userSpaceOnUse" x="-0.5" y="-0.5" width="89" height="70" fill="black">
<rect fill="white" x="-0.5" y="-0.5" width="89" height="70"/>
<path d="M84.1093 27.3205C82.4999 27.3205 81.121 28.3244 80.5624 29.7385H75.9257V23.3791H80.5624C81.121 24.7932 82.4999 25.7971 84.1132 25.7971C86.2187 25.7971 87.9335 24.0823 87.9335 21.9768C87.9335 19.8713 86.2187 18.1565 84.1132 18.1565C82.5038 18.1565 81.1249 19.1604 80.5624 20.5745H74.5272C73.7537 20.5745 73.1288 21.2034 73.1288 21.9729V29.7307H62.3008C60.4961 27.6995 57.8711 26.4065 54.9453 26.4065C54.7461 26.4065 54.5429 26.4221 54.3398 26.4377C53.0742 22.8166 50.3828 19.9611 46.9921 18.4533V8.47281H53.0624C53.621 9.89081 54.9999 10.8986 56.6132 10.8986C58.7187 10.8986 60.4335 9.18381 60.4335 7.07831C60.4335 4.97281 58.7187 3.25801 56.6132 3.25801C55.0038 3.25801 53.6288 4.25801 53.0663 5.66821H45.5897C44.8163 5.66821 44.1913 6.29712 44.1913 7.06661V17.5586C43.289 17.3711 42.3632 17.2656 41.4101 17.2656C40.8164 17.2656 40.2343 17.3164 39.6601 17.3906V13.9179V13.9062V13.8945V7.8711C41.0742 7.31251 42.082 5.9336 42.082 4.3203C42.082 2.2148 40.3672 0.5 38.2617 0.5C36.1562 0.5 34.4414 2.2148 34.4414 4.3203C34.4414 5.9297 35.4453 7.3086 36.8594 7.8711V12.5078H30.5V7.8711C31.9141 7.31251 32.918 5.9336 32.918 4.3203C32.918 2.2148 31.2032 0.5 29.0977 0.5C26.9922 0.5 25.2774 2.2148 25.2774 4.3203C25.2774 5.9297 26.2813 7.3086 27.6954 7.8711V13.9063C27.6954 14.6797 28.3243 15.3047 29.0938 15.3047H36.8555V18.0547C31.6797 19.8867 27.9297 24.7422 27.7422 30.4957C26.3125 30.5738 24.961 30.9566 23.7539 31.5855L8.4729 31.6011V25.5269C9.887 24.9683 10.8909 23.5894 10.8909 21.9761C10.8909 19.8706 9.1761 18.1558 7.0706 18.1558C4.969 18.1597 3.2542 19.8706 3.2542 21.9761C3.2542 23.5855 4.2581 24.9644 5.6722 25.5269V32.9996C5.6722 33.7731 6.30111 34.398 7.0706 34.398H20.4456C19.4612 35.6949 18.7933 37.2418 18.5511 38.9253H7.8711C7.31251 37.5112 5.9336 36.5073 4.3203 36.5073C2.2148 36.5073 0.5 38.2221 0.5 40.3276C0.5 42.4331 2.2148 44.1479 4.3203 44.1479C5.9297 44.1479 7.3086 43.144 7.8711 41.7299H12.5078V48.0932H7.8711C7.31251 46.6791 5.9336 45.6752 4.3203 45.6752C2.2148 45.6752 0.5 47.39 0.5 49.4955C0.5 51.601 2.2148 53.3158 4.3203 53.3158C5.9297 53.3158 7.3086 52.3119 7.8711 50.8978H13.9063C14.6797 50.8978 15.3047 50.2689 15.3047 49.4994V41.7377H18.5508C19.2344 46.5033 23.332 50.183 28.2852 50.183H38.7152V60.0502H32.6449C32.0863 58.6361 30.7074 57.6283 29.0941 57.6283C26.9886 57.6283 25.2738 59.3431 25.2738 61.4486C25.2738 63.5541 26.9886 65.2689 29.0941 65.2689C30.7035 65.2689 32.0824 64.265 32.641 62.8548H40.1137C40.8871 62.8548 41.5121 62.2259 41.5121 61.4564L41.5199 50.1714H46.0511V54.5776C46.0511 54.5854 46.0472 54.5933 46.0472 54.6011C46.0472 54.6089 46.0511 54.6167 46.0511 54.6245V60.6362C44.637 61.1948 43.6292 62.5737 43.6292 64.187C43.6292 66.2925 45.344 68.0073 47.4495 68.0073C49.555 68.0073 51.2698 66.2925 51.2698 64.187C51.2698 62.5776 50.2659 61.1987 48.8518 60.6401V56.0034H55.2112V60.6401C53.7971 61.1987 52.7932 62.5776 52.7932 64.1909C52.7932 66.2964 54.508 68.0112 56.6135 68.0112C58.719 68.0112 60.4338 66.2964 60.4338 64.1909C60.4338 62.5815 59.4299 61.2026 58.0158 60.6401V54.6049C58.0158 53.8315 57.3869 53.2065 56.6174 53.2065H48.8596V50.1753H65.4296C65.6406 50.1753 65.8359 50.1245 66.0156 50.0425C69.1289 49.4214 71.4844 46.6675 71.4844 43.3745C71.4844 42.0933 71.1211 40.894 70.5 39.8706H79.9648V45.9409C78.5507 46.4995 77.5429 47.8784 77.5429 49.4917C77.5429 51.5972 79.2577 53.312 81.3632 53.312C83.4687 53.312 85.1835 51.5972 85.1835 49.4917C85.1835 47.8823 84.1796 46.5034 82.7694 45.9448V38.4721C82.7694 37.6987 82.1405 37.0737 81.371 37.0737L67.215 37.0698C66.4572 36.7612 65.6291 36.5893 64.7658 36.5776C64.7697 36.4721 64.7853 36.3667 64.7853 36.2573C64.7853 34.9409 64.5197 33.687 64.0509 32.5346H74.5079C74.5157 32.5346 74.5197 32.5385 74.5275 32.5385C74.5353 32.5385 74.5392 32.5346 74.547 32.5346H80.5626C81.1212 33.9487 82.5001 34.9565 84.1134 34.9565C86.2189 34.9565 87.9337 33.2417 87.9337 31.1362C87.9259 29.0307 86.2147 27.3205 84.1093 27.3205ZM84.1093 20.9572C84.6718 20.9572 85.1288 21.4142 85.1288 21.9767C85.1288 22.5391 84.6717 22.9962 84.1093 22.9962C83.5468 22.9962 83.0898 22.5391 83.0898 21.9767C83.0898 21.4142 83.5468 20.9572 84.1093 20.9572ZM56.6093 6.06616C57.1718 6.06616 57.6288 6.52319 57.6288 7.08566C57.6288 7.64813 57.1717 8.10516 56.6093 8.10516C56.078 8.10516 55.6444 7.695 55.6015 7.17547C55.6054 7.14422 55.6093 7.11297 55.6093 7.07781C55.6093 7.04656 55.6015 7.01922 55.6015 6.99187C55.6483 6.47625 56.078 6.06616 56.6093 6.06616ZM29.0973 3.31616C29.6598 3.31616 30.1168 3.77319 30.1168 4.33566C30.1168 4.89813 29.6597 5.35516 29.0973 5.35516C28.5348 5.35516 28.0778 4.89813 28.0778 4.33566C28.0778 3.77319 28.5348 3.31616 29.0973 3.31616ZM38.2575 3.31616C38.82 3.31616 39.277 3.77319 39.277 4.33566C39.277 4.89425 38.8239 5.34736 38.2653 5.35516H38.2575H38.2496C37.6911 5.35125 37.2379 4.89422 37.2379 4.33566C37.2379 3.77316 37.695 3.31616 38.2575 3.31616ZM7.07347 20.9572C7.63597 20.9572 8.09297 21.4142 8.09297 21.9767C8.09297 22.4727 7.7375 22.8868 7.26485 22.9767C7.20235 22.9688 7.13985 22.9571 7.07344 22.9571C7.00703 22.9571 6.94453 22.9688 6.88203 22.9767C6.41328 22.8868 6.05391 22.4727 6.05391 21.9767C6.05391 21.4142 6.511 20.9572 7.07347 20.9572ZM4.31957 50.5082C3.75707 50.5082 3.30007 50.0511 3.30007 49.4887C3.30007 48.9262 3.7571 48.4692 4.31957 48.4692C4.88204 48.4692 5.33907 48.9262 5.33907 49.4887C5.33907 50.0511 4.88204 50.5082 4.31957 50.5082ZM29.0966 62.4572C28.5341 62.4572 28.0771 62.0001 28.0771 61.4377C28.0771 60.8752 28.5341 60.4182 29.0966 60.4182C29.6278 60.4182 30.0575 60.8283 30.1083 61.3439C30.1044 61.3752 30.1005 61.4064 30.1005 61.4377C30.1005 61.4689 30.1083 61.4963 30.1083 61.5275C30.0575 62.0471 29.6239 62.4572 29.0966 62.4572ZM56.6086 65.2072C56.0461 65.2072 55.5891 64.7501 55.5891 64.1877C55.5891 63.6252 56.0461 63.1682 56.6086 63.1682C57.171 63.1682 57.6281 63.6252 57.6281 64.1877C57.6281 64.7501 57.171 65.2072 56.6086 65.2072ZM47.4484 65.2072C46.8859 65.2072 46.4289 64.7501 46.4289 64.1877C46.4289 63.6252 46.8859 63.1682 47.4484 63.1682C48.0108 63.1682 48.4679 63.6252 48.4679 64.1877C48.4679 64.7501 48.0108 65.2072 47.4484 65.2072ZM81.3544 50.5082C80.7919 50.5082 80.3349 50.0511 80.3349 49.4887C80.3349 48.9574 80.745 48.5238 81.2646 48.477C81.2958 48.4809 81.3271 48.4848 81.3583 48.4848C81.3896 48.4848 81.4169 48.477 81.4443 48.477C81.9638 48.5238 82.3739 48.9574 82.3739 49.4887C82.3739 50.0512 81.9168 50.5082 81.3544 50.5082ZM4.31937 41.348C3.75687 41.348 3.29987 40.8909 3.29987 40.3285C3.29987 39.766 3.7569 39.309 4.31937 39.309C4.88184 39.309 5.33887 39.766 5.33887 40.3285C5.33887 40.8909 4.88184 41.348 4.31937 41.348ZM64.6744 47.3753H28.2874C24.4007 47.3753 21.2405 44.2151 21.2405 40.3323C21.2405 36.4456 24.4007 33.2854 28.2874 33.2854C28.5335 33.2854 28.7717 33.2971 29.0139 33.3205C29.0374 33.3244 29.0569 33.3205 29.0803 33.3205C29.1077 33.3205 29.1311 33.3283 29.1585 33.3283C29.2053 33.3283 29.2483 33.3244 29.2952 33.3205H29.2991C29.3225 33.3166 29.346 33.3088 29.3694 33.3049C29.803 33.2385 30.1624 32.9807 30.3694 32.6252C30.3733 32.6174 30.3811 32.6096 30.385 32.5979C30.428 32.5197 30.4632 32.4377 30.4905 32.3518C30.4905 32.3479 30.4944 32.3479 30.4944 32.344C30.5217 32.2541 30.5413 32.1643 30.553 32.0666C30.5608 32.008 30.5569 31.9494 30.553 31.8947C30.553 31.8596 30.5569 31.8244 30.553 31.7893V31.7854V31.7815C30.5296 31.5158 30.5178 31.2424 30.5178 30.965C30.5178 24.9572 35.4006 20.07 41.4048 20.07C46.4126 20.07 50.7564 23.4567 51.9748 28.3044C51.9827 28.3396 51.9983 28.3669 52.01 28.4021C52.0256 28.449 52.0412 28.4958 52.0608 28.5388C52.0803 28.5779 52.0998 28.6169 52.1233 28.656C52.1467 28.6951 52.1702 28.738 52.1975 28.7771C52.2248 28.8122 52.2522 28.8474 52.2834 28.8826C52.3108 28.9177 52.342 28.949 52.3733 28.9802C52.4084 29.0115 52.4436 29.0427 52.4827 29.0701C52.5139 29.0935 52.5491 29.1208 52.5842 29.1443C52.6272 29.1716 52.6702 29.1912 52.7131 29.2146C52.7483 29.2341 52.7834 29.2498 52.8186 29.2654C52.8655 29.2849 52.9163 29.2966 52.967 29.3123C53.0022 29.324 53.0413 29.3318 53.0764 29.3396C53.1272 29.3513 53.1819 29.3513 53.2327 29.3552C53.2717 29.3591 53.3108 29.363 53.3499 29.363C53.4006 29.363 53.4514 29.3552 53.5022 29.3474C53.5334 29.3435 53.5686 29.3435 53.5999 29.3396C54.0413 29.2537 54.4905 29.2068 54.9358 29.2068C58.8186 29.2068 61.9788 32.367 61.9788 36.2498C61.9788 36.7928 61.9163 37.3357 61.7913 37.8631C61.7834 37.8904 61.7873 37.9139 61.7795 37.9373C61.7717 37.9881 61.7639 38.0389 61.76 38.0896C61.7561 38.1365 61.7561 38.1795 61.76 38.2225C61.76 38.2693 61.7639 38.3123 61.7717 38.3592C61.7795 38.41 61.7873 38.4568 61.7991 38.5076C61.8069 38.535 61.8069 38.5584 61.8147 38.5818C61.8186 38.5975 61.8264 38.6092 61.8342 38.6287C61.8498 38.6756 61.8694 38.7225 61.8928 38.7654C61.9123 38.8045 61.928 38.8436 61.9514 38.8826C61.9748 38.9217 62.0022 38.9607 62.0295 38.9959C62.0569 39.0311 62.0803 39.0662 62.1077 39.0975C62.1389 39.1326 62.1741 39.1678 62.2092 39.199C62.2405 39.2264 62.2678 39.2537 62.2991 39.2771C62.3381 39.3084 62.3811 39.3357 62.428 39.3631C62.4631 39.3826 62.4944 39.4061 62.5295 39.4217C62.5725 39.4451 62.6194 39.4607 62.6623 39.4764C62.7053 39.492 62.7483 39.5076 62.7913 39.5193C62.8069 39.5232 62.8225 39.5311 62.842 39.535C62.8655 39.5389 62.8889 39.5389 62.9123 39.5428C62.9748 39.5545 63.0334 39.5623 63.0959 39.5623C63.1194 39.5623 63.1389 39.5701 63.1623 39.5701C63.1858 39.5701 63.2092 39.5662 63.2327 39.5623C63.2639 39.5584 63.2952 39.5584 63.3303 39.5545C63.3889 39.5467 63.4475 39.535 63.5061 39.5193C63.5256 39.5154 63.5452 39.5154 63.5647 39.5076C63.9123 39.4021 64.2873 39.3514 64.678 39.3514C66.885 39.3514 68.678 41.1483 68.678 43.3514C68.678 45.578 66.8814 47.3753 64.6744 47.3753ZM84.1084 32.1563C83.5459 32.1563 83.0889 31.6992 83.0889 31.1368C83.0889 30.5743 83.5459 30.1173 84.1084 30.1173C84.6708 30.1173 85.1279 30.5743 85.1279 31.1368C85.124 31.6993 84.6669 32.1563 84.1084 32.1563Z"/>
</mask>
<path d="M84.1093 27.3205C82.4999 27.3205 81.121 28.3244 80.5624 29.7385H75.9257V23.3791H80.5624C81.121 24.7932 82.4999 25.7971 84.1132 25.7971C86.2187 25.7971 87.9335 24.0823 87.9335 21.9768C87.9335 19.8713 86.2187 18.1565 84.1132 18.1565C82.5038 18.1565 81.1249 19.1604 80.5624 20.5745H74.5272C73.7537 20.5745 73.1288 21.2034 73.1288 21.9729V29.7307H62.3008C60.4961 27.6995 57.8711 26.4065 54.9453 26.4065C54.7461 26.4065 54.5429 26.4221 54.3398 26.4377C53.0742 22.8166 50.3828 19.9611 46.9921 18.4533V8.47281H53.0624C53.621 9.89081 54.9999 10.8986 56.6132 10.8986C58.7187 10.8986 60.4335 9.18381 60.4335 7.07831C60.4335 4.97281 58.7187 3.25801 56.6132 3.25801C55.0038 3.25801 53.6288 4.25801 53.0663 5.66821H45.5897C44.8163 5.66821 44.1913 6.29712 44.1913 7.06661V17.5586C43.289 17.3711 42.3632 17.2656 41.4101 17.2656C40.8164 17.2656 40.2343 17.3164 39.6601 17.3906V13.9179V13.9062V13.8945V7.8711C41.0742 7.31251 42.082 5.9336 42.082 4.3203C42.082 2.2148 40.3672 0.5 38.2617 0.5C36.1562 0.5 34.4414 2.2148 34.4414 4.3203C34.4414 5.9297 35.4453 7.3086 36.8594 7.8711V12.5078H30.5V7.8711C31.9141 7.31251 32.918 5.9336 32.918 4.3203C32.918 2.2148 31.2032 0.5 29.0977 0.5C26.9922 0.5 25.2774 2.2148 25.2774 4.3203C25.2774 5.9297 26.2813 7.3086 27.6954 7.8711V13.9063C27.6954 14.6797 28.3243 15.3047 29.0938 15.3047H36.8555V18.0547C31.6797 19.8867 27.9297 24.7422 27.7422 30.4957C26.3125 30.5738 24.961 30.9566 23.7539 31.5855L8.4729 31.6011V25.5269C9.887 24.9683 10.8909 23.5894 10.8909 21.9761C10.8909 19.8706 9.1761 18.1558 7.0706 18.1558C4.969 18.1597 3.2542 19.8706 3.2542 21.9761C3.2542 23.5855 4.2581 24.9644 5.6722 25.5269V32.9996C5.6722 33.7731 6.30111 34.398 7.0706 34.398H20.4456C19.4612 35.6949 18.7933 37.2418 18.5511 38.9253H7.8711C7.31251 37.5112 5.9336 36.5073 4.3203 36.5073C2.2148 36.5073 0.5 38.2221 0.5 40.3276C0.5 42.4331 2.2148 44.1479 4.3203 44.1479C5.9297 44.1479 7.3086 43.144 7.8711 41.7299H12.5078V48.0932H7.8711C7.31251 46.6791 5.9336 45.6752 4.3203 45.6752C2.2148 45.6752 0.5 47.39 0.5 49.4955C0.5 51.601 2.2148 53.3158 4.3203 53.3158C5.9297 53.3158 7.3086 52.3119 7.8711 50.8978H13.9063C14.6797 50.8978 15.3047 50.2689 15.3047 49.4994V41.7377H18.5508C19.2344 46.5033 23.332 50.183 28.2852 50.183H38.7152V60.0502H32.6449C32.0863 58.6361 30.7074 57.6283 29.0941 57.6283C26.9886 57.6283 25.2738 59.3431 25.2738 61.4486C25.2738 63.5541 26.9886 65.2689 29.0941 65.2689C30.7035 65.2689 32.0824 64.265 32.641 62.8548H40.1137C40.8871 62.8548 41.5121 62.2259 41.5121 61.4564L41.5199 50.1714H46.0511V54.5776C46.0511 54.5854 46.0472 54.5933 46.0472 54.6011C46.0472 54.6089 46.0511 54.6167 46.0511 54.6245V60.6362C44.637 61.1948 43.6292 62.5737 43.6292 64.187C43.6292 66.2925 45.344 68.0073 47.4495 68.0073C49.555 68.0073 51.2698 66.2925 51.2698 64.187C51.2698 62.5776 50.2659 61.1987 48.8518 60.6401V56.0034H55.2112V60.6401C53.7971 61.1987 52.7932 62.5776 52.7932 64.1909C52.7932 66.2964 54.508 68.0112 56.6135 68.0112C58.719 68.0112 60.4338 66.2964 60.4338 64.1909C60.4338 62.5815 59.4299 61.2026 58.0158 60.6401V54.6049C58.0158 53.8315 57.3869 53.2065 56.6174 53.2065H48.8596V50.1753H65.4296C65.6406 50.1753 65.8359 50.1245 66.0156 50.0425C69.1289 49.4214 71.4844 46.6675 71.4844 43.3745C71.4844 42.0933 71.1211 40.894 70.5 39.8706H79.9648V45.9409C78.5507 46.4995 77.5429 47.8784 77.5429 49.4917C77.5429 51.5972 79.2577 53.312 81.3632 53.312C83.4687 53.312 85.1835 51.5972 85.1835 49.4917C85.1835 47.8823 84.1796 46.5034 82.7694 45.9448V38.4721C82.7694 37.6987 82.1405 37.0737 81.371 37.0737L67.215 37.0698C66.4572 36.7612 65.6291 36.5893 64.7658 36.5776C64.7697 36.4721 64.7853 36.3667 64.7853 36.2573C64.7853 34.9409 64.5197 33.687 64.0509 32.5346H74.5079C74.5157 32.5346 74.5197 32.5385 74.5275 32.5385C74.5353 32.5385 74.5392 32.5346 74.547 32.5346H80.5626C81.1212 33.9487 82.5001 34.9565 84.1134 34.9565C86.2189 34.9565 87.9337 33.2417 87.9337 31.1362C87.9259 29.0307 86.2147 27.3205 84.1093 27.3205ZM84.1093 20.9572C84.6718 20.9572 85.1288 21.4142 85.1288 21.9767C85.1288 22.5391 84.6717 22.9962 84.1093 22.9962C83.5468 22.9962 83.0898 22.5391 83.0898 21.9767C83.0898 21.4142 83.5468 20.9572 84.1093 20.9572ZM56.6093 6.06616C57.1718 6.06616 57.6288 6.52319 57.6288 7.08566C57.6288 7.64813 57.1717 8.10516 56.6093 8.10516C56.078 8.10516 55.6444 7.695 55.6015 7.17547C55.6054 7.14422 55.6093 7.11297 55.6093 7.07781C55.6093 7.04656 55.6015 7.01922 55.6015 6.99187C55.6483 6.47625 56.078 6.06616 56.6093 6.06616ZM29.0973 3.31616C29.6598 3.31616 30.1168 3.77319 30.1168 4.33566C30.1168 4.89813 29.6597 5.35516 29.0973 5.35516C28.5348 5.35516 28.0778 4.89813 28.0778 4.33566C28.0778 3.77319 28.5348 3.31616 29.0973 3.31616ZM38.2575 3.31616C38.82 3.31616 39.277 3.77319 39.277 4.33566C39.277 4.89425 38.8239 5.34736 38.2653 5.35516H38.2575H38.2496C37.6911 5.35125 37.2379 4.89422 37.2379 4.33566C37.2379 3.77316 37.695 3.31616 38.2575 3.31616ZM7.07347 20.9572C7.63597 20.9572 8.09297 21.4142 8.09297 21.9767C8.09297 22.4727 7.7375 22.8868 7.26485 22.9767C7.20235 22.9688 7.13985 22.9571 7.07344 22.9571C7.00703 22.9571 6.94453 22.9688 6.88203 22.9767C6.41328 22.8868 6.05391 22.4727 6.05391 21.9767C6.05391 21.4142 6.511 20.9572 7.07347 20.9572ZM4.31957 50.5082C3.75707 50.5082 3.30007 50.0511 3.30007 49.4887C3.30007 48.9262 3.7571 48.4692 4.31957 48.4692C4.88204 48.4692 5.33907 48.9262 5.33907 49.4887C5.33907 50.0511 4.88204 50.5082 4.31957 50.5082ZM29.0966 62.4572C28.5341 62.4572 28.0771 62.0001 28.0771 61.4377C28.0771 60.8752 28.5341 60.4182 29.0966 60.4182C29.6278 60.4182 30.0575 60.8283 30.1083 61.3439C30.1044 61.3752 30.1005 61.4064 30.1005 61.4377C30.1005 61.4689 30.1083 61.4963 30.1083 61.5275C30.0575 62.0471 29.6239 62.4572 29.0966 62.4572ZM56.6086 65.2072C56.0461 65.2072 55.5891 64.7501 55.5891 64.1877C55.5891 63.6252 56.0461 63.1682 56.6086 63.1682C57.171 63.1682 57.6281 63.6252 57.6281 64.1877C57.6281 64.7501 57.171 65.2072 56.6086 65.2072ZM47.4484 65.2072C46.8859 65.2072 46.4289 64.7501 46.4289 64.1877C46.4289 63.6252 46.8859 63.1682 47.4484 63.1682C48.0108 63.1682 48.4679 63.6252 48.4679 64.1877C48.4679 64.7501 48.0108 65.2072 47.4484 65.2072ZM81.3544 50.5082C80.7919 50.5082 80.3349 50.0511 80.3349 49.4887C80.3349 48.9574 80.745 48.5238 81.2646 48.477C81.2958 48.4809 81.3271 48.4848 81.3583 48.4848C81.3896 48.4848 81.4169 48.477 81.4443 48.477C81.9638 48.5238 82.3739 48.9574 82.3739 49.4887C82.3739 50.0512 81.9168 50.5082 81.3544 50.5082ZM4.31937 41.348C3.75687 41.348 3.29987 40.8909 3.29987 40.3285C3.29987 39.766 3.7569 39.309 4.31937 39.309C4.88184 39.309 5.33887 39.766 5.33887 40.3285C5.33887 40.8909 4.88184 41.348 4.31937 41.348ZM64.6744 47.3753H28.2874C24.4007 47.3753 21.2405 44.2151 21.2405 40.3323C21.2405 36.4456 24.4007 33.2854 28.2874 33.2854C28.5335 33.2854 28.7717 33.2971 29.0139 33.3205C29.0374 33.3244 29.0569 33.3205 29.0803 33.3205C29.1077 33.3205 29.1311 33.3283 29.1585 33.3283C29.2053 33.3283 29.2483 33.3244 29.2952 33.3205H29.2991C29.3225 33.3166 29.346 33.3088 29.3694 33.3049C29.803 33.2385 30.1624 32.9807 30.3694 32.6252C30.3733 32.6174 30.3811 32.6096 30.385 32.5979C30.428 32.5197 30.4632 32.4377 30.4905 32.3518C30.4905 32.3479 30.4944 32.3479 30.4944 32.344C30.5217 32.2541 30.5413 32.1643 30.553 32.0666C30.5608 32.008 30.5569 31.9494 30.553 31.8947C30.553 31.8596 30.5569 31.8244 30.553 31.7893V31.7854V31.7815C30.5296 31.5158 30.5178 31.2424 30.5178 30.965C30.5178 24.9572 35.4006 20.07 41.4048 20.07C46.4126 20.07 50.7564 23.4567 51.9748 28.3044C51.9827 28.3396 51.9983 28.3669 52.01 28.4021C52.0256 28.449 52.0412 28.4958 52.0608 28.5388C52.0803 28.5779 52.0998 28.6169 52.1233 28.656C52.1467 28.6951 52.1702 28.738 52.1975 28.7771C52.2248 28.8122 52.2522 28.8474 52.2834 28.8826C52.3108 28.9177 52.342 28.949 52.3733 28.9802C52.4084 29.0115 52.4436 29.0427 52.4827 29.0701C52.5139 29.0935 52.5491 29.1208 52.5842 29.1443C52.6272 29.1716 52.6702 29.1912 52.7131 29.2146C52.7483 29.2341 52.7834 29.2498 52.8186 29.2654C52.8655 29.2849 52.9163 29.2966 52.967 29.3123C53.0022 29.324 53.0413 29.3318 53.0764 29.3396C53.1272 29.3513 53.1819 29.3513 53.2327 29.3552C53.2717 29.3591 53.3108 29.363 53.3499 29.363C53.4006 29.363 53.4514 29.3552 53.5022 29.3474C53.5334 29.3435 53.5686 29.3435 53.5999 29.3396C54.0413 29.2537 54.4905 29.2068 54.9358 29.2068C58.8186 29.2068 61.9788 32.367 61.9788 36.2498C61.9788 36.7928 61.9163 37.3357 61.7913 37.8631C61.7834 37.8904 61.7873 37.9139 61.7795 37.9373C61.7717 37.9881 61.7639 38.0389 61.76 38.0896C61.7561 38.1365 61.7561 38.1795 61.76 38.2225C61.76 38.2693 61.7639 38.3123 61.7717 38.3592C61.7795 38.41 61.7873 38.4568 61.7991 38.5076C61.8069 38.535 61.8069 38.5584 61.8147 38.5818C61.8186 38.5975 61.8264 38.6092 61.8342 38.6287C61.8498 38.6756 61.8694 38.7225 61.8928 38.7654C61.9123 38.8045 61.928 38.8436 61.9514 38.8826C61.9748 38.9217 62.0022 38.9607 62.0295 38.9959C62.0569 39.0311 62.0803 39.0662 62.1077 39.0975C62.1389 39.1326 62.1741 39.1678 62.2092 39.199C62.2405 39.2264 62.2678 39.2537 62.2991 39.2771C62.3381 39.3084 62.3811 39.3357 62.428 39.3631C62.4631 39.3826 62.4944 39.4061 62.5295 39.4217C62.5725 39.4451 62.6194 39.4607 62.6623 39.4764C62.7053 39.492 62.7483 39.5076 62.7913 39.5193C62.8069 39.5232 62.8225 39.5311 62.842 39.535C62.8655 39.5389 62.8889 39.5389 62.9123 39.5428C62.9748 39.5545 63.0334 39.5623 63.0959 39.5623C63.1194 39.5623 63.1389 39.5701 63.1623 39.5701C63.1858 39.5701 63.2092 39.5662 63.2327 39.5623C63.2639 39.5584 63.2952 39.5584 63.3303 39.5545C63.3889 39.5467 63.4475 39.535 63.5061 39.5193C63.5256 39.5154 63.5452 39.5154 63.5647 39.5076C63.9123 39.4021 64.2873 39.3514 64.678 39.3514C66.885 39.3514 68.678 41.1483 68.678 43.3514C68.678 45.578 66.8814 47.3753 64.6744 47.3753ZM84.1084 32.1563C83.5459 32.1563 83.0889 31.6992 83.0889 31.1368C83.0889 30.5743 83.5459 30.1173 84.1084 30.1173C84.6708 30.1173 85.1279 30.5743 85.1279 31.1368C85.124 31.6993 84.6669 32.1563 84.1084 32.1563Z" fill="#52CEC7"/>
<path d="M84.1093 27.3205C82.4999 27.3205 81.121 28.3244 80.5624 29.7385H75.9257V23.3791H80.5624C81.121 24.7932 82.4999 25.7971 84.1132 25.7971C86.2187 25.7971 87.9335 24.0823 87.9335 21.9768C87.9335 19.8713 86.2187 18.1565 84.1132 18.1565C82.5038 18.1565 81.1249 19.1604 80.5624 20.5745H74.5272C73.7537 20.5745 73.1288 21.2034 73.1288 21.9729V29.7307H62.3008C60.4961 27.6995 57.8711 26.4065 54.9453 26.4065C54.7461 26.4065 54.5429 26.4221 54.3398 26.4377C53.0742 22.8166 50.3828 19.9611 46.9921 18.4533V8.47281H53.0624C53.621 9.89081 54.9999 10.8986 56.6132 10.8986C58.7187 10.8986 60.4335 9.18381 60.4335 7.07831C60.4335 4.97281 58.7187 3.25801 56.6132 3.25801C55.0038 3.25801 53.6288 4.25801 53.0663 5.66821H45.5897C44.8163 5.66821 44.1913 6.29712 44.1913 7.06661V17.5586C43.289 17.3711 42.3632 17.2656 41.4101 17.2656C40.8164 17.2656 40.2343 17.3164 39.6601 17.3906V13.9179V13.9062V13.8945V7.8711C41.0742 7.31251 42.082 5.9336 42.082 4.3203C42.082 2.2148 40.3672 0.5 38.2617 0.5C36.1562 0.5 34.4414 2.2148 34.4414 4.3203C34.4414 5.9297 35.4453 7.3086 36.8594 7.8711V12.5078H30.5V7.8711C31.9141 7.31251 32.918 5.9336 32.918 4.3203C32.918 2.2148 31.2032 0.5 29.0977 0.5C26.9922 0.5 25.2774 2.2148 25.2774 4.3203C25.2774 5.9297 26.2813 7.3086 27.6954 7.8711V13.9063C27.6954 14.6797 28.3243 15.3047 29.0938 15.3047H36.8555V18.0547C31.6797 19.8867 27.9297 24.7422 27.7422 30.4957C26.3125 30.5738 24.961 30.9566 23.7539 31.5855L8.4729 31.6011V25.5269C9.887 24.9683 10.8909 23.5894 10.8909 21.9761C10.8909 19.8706 9.1761 18.1558 7.0706 18.1558C4.969 18.1597 3.2542 19.8706 3.2542 21.9761C3.2542 23.5855 4.2581 24.9644 5.6722 25.5269V32.9996C5.6722 33.7731 6.30111 34.398 7.0706 34.398H20.4456C19.4612 35.6949 18.7933 37.2418 18.5511 38.9253H7.8711C7.31251 37.5112 5.9336 36.5073 4.3203 36.5073C2.2148 36.5073 0.5 38.2221 0.5 40.3276C0.5 42.4331 2.2148 44.1479 4.3203 44.1479C5.9297 44.1479 7.3086 43.144 7.8711 41.7299H12.5078V48.0932H7.8711C7.31251 46.6791 5.9336 45.6752 4.3203 45.6752C2.2148 45.6752 0.5 47.39 0.5 49.4955C0.5 51.601 2.2148 53.3158 4.3203 53.3158C5.9297 53.3158 7.3086 52.3119 7.8711 50.8978H13.9063C14.6797 50.8978 15.3047 50.2689 15.3047 49.4994V41.7377H18.5508C19.2344 46.5033 23.332 50.183 28.2852 50.183H38.7152V60.0502H32.6449C32.0863 58.6361 30.7074 57.6283 29.0941 57.6283C26.9886 57.6283 25.2738 59.3431 25.2738 61.4486C25.2738 63.5541 26.9886 65.2689 29.0941 65.2689C30.7035 65.2689 32.0824 64.265 32.641 62.8548H40.1137C40.8871 62.8548 41.5121 62.2259 41.5121 61.4564L41.5199 50.1714H46.0511V54.5776C46.0511 54.5854 46.0472 54.5933 46.0472 54.6011C46.0472 54.6089 46.0511 54.6167 46.0511 54.6245V60.6362C44.637 61.1948 43.6292 62.5737 43.6292 64.187C43.6292 66.2925 45.344 68.0073 47.4495 68.0073C49.555 68.0073 51.2698 66.2925 51.2698 64.187C51.2698 62.5776 50.2659 61.1987 48.8518 60.6401V56.0034H55.2112V60.6401C53.7971 61.1987 52.7932 62.5776 52.7932 64.1909C52.7932 66.2964 54.508 68.0112 56.6135 68.0112C58.719 68.0112 60.4338 66.2964 60.4338 64.1909C60.4338 62.5815 59.4299 61.2026 58.0158 60.6401V54.6049C58.0158 53.8315 57.3869 53.2065 56.6174 53.2065H48.8596V50.1753H65.4296C65.6406 50.1753 65.8359 50.1245 66.0156 50.0425C69.1289 49.4214 71.4844 46.6675 71.4844 43.3745C71.4844 42.0933 71.1211 40.894 70.5 39.8706H79.9648V45.9409C78.5507 46.4995 77.5429 47.8784 77.5429 49.4917C77.5429 51.5972 79.2577 53.312 81.3632 53.312C83.4687 53.312 85.1835 51.5972 85.1835 49.4917C85.1835 47.8823 84.1796 46.5034 82.7694 45.9448V38.4721C82.7694 37.6987 82.1405 37.0737 81.371 37.0737L67.215 37.0698C66.4572 36.7612 65.6291 36.5893 64.7658 36.5776C64.7697 36.4721 64.7853 36.3667 64.7853 36.2573C64.7853 34.9409 64.5197 33.687 64.0509 32.5346H74.5079C74.5157 32.5346 74.5197 32.5385 74.5275 32.5385C74.5353 32.5385 74.5392 32.5346 74.547 32.5346H80.5626C81.1212 33.9487 82.5001 34.9565 84.1134 34.9565C86.2189 34.9565 87.9337 33.2417 87.9337 31.1362C87.9259 29.0307 86.2147 27.3205 84.1093 27.3205ZM84.1093 20.9572C84.6718 20.9572 85.1288 21.4142 85.1288 21.9767C85.1288 22.5391 84.6717 22.9962 84.1093 22.9962C83.5468 22.9962 83.0898 22.5391 83.0898 21.9767C83.0898 21.4142 83.5468 20.9572 84.1093 20.9572ZM56.6093 6.06616C57.1718 6.06616 57.6288 6.52319 57.6288 7.08566C57.6288 7.64813 57.1717 8.10516 56.6093 8.10516C56.078 8.10516 55.6444 7.695 55.6015 7.17547C55.6054 7.14422 55.6093 7.11297 55.6093 7.07781C55.6093 7.04656 55.6015 7.01922 55.6015 6.99187C55.6483 6.47625 56.078 6.06616 56.6093 6.06616ZM29.0973 3.31616C29.6598 3.31616 30.1168 3.77319 30.1168 4.33566C30.1168 4.89813 29.6597 5.35516 29.0973 5.35516C28.5348 5.35516 28.0778 4.89813 28.0778 4.33566C28.0778 3.77319 28.5348 3.31616 29.0973 3.31616ZM38.2575 3.31616C38.82 3.31616 39.277 3.77319 39.277 4.33566C39.277 4.89425 38.8239 5.34736 38.2653 5.35516H38.2575H38.2496C37.6911 5.35125 37.2379 4.89422 37.2379 4.33566C37.2379 3.77316 37.695 3.31616 38.2575 3.31616ZM7.07347 20.9572C7.63597 20.9572 8.09297 21.4142 8.09297 21.9767C8.09297 22.4727 7.7375 22.8868 7.26485 22.9767C7.20235 22.9688 7.13985 22.9571 7.07344 22.9571C7.00703 22.9571 6.94453 22.9688 6.88203 22.9767C6.41328 22.8868 6.05391 22.4727 6.05391 21.9767C6.05391 21.4142 6.511 20.9572 7.07347 20.9572ZM4.31957 50.5082C3.75707 50.5082 3.30007 50.0511 3.30007 49.4887C3.30007 48.9262 3.7571 48.4692 4.31957 48.4692C4.88204 48.4692 5.33907 48.9262 5.33907 49.4887C5.33907 50.0511 4.88204 50.5082 4.31957 50.5082ZM29.0966 62.4572C28.5341 62.4572 28.0771 62.0001 28.0771 61.4377C28.0771 60.8752 28.5341 60.4182 29.0966 60.4182C29.6278 60.4182 30.0575 60.8283 30.1083 61.3439C30.1044 61.3752 30.1005 61.4064 30.1005 61.4377C30.1005 61.4689 30.1083 61.4963 30.1083 61.5275C30.0575 62.0471 29.6239 62.4572 29.0966 62.4572ZM56.6086 65.2072C56.0461 65.2072 55.5891 64.7501 55.5891 64.1877C55.5891 63.6252 56.0461 63.1682 56.6086 63.1682C57.171 63.1682 57.6281 63.6252 57.6281 64.1877C57.6281 64.7501 57.171 65.2072 56.6086 65.2072ZM47.4484 65.2072C46.8859 65.2072 46.4289 64.7501 46.4289 64.1877C46.4289 63.6252 46.8859 63.1682 47.4484 63.1682C48.0108 63.1682 48.4679 63.6252 48.4679 64.1877C48.4679 64.7501 48.0108 65.2072 47.4484 65.2072ZM81.3544 50.5082C80.7919 50.5082 80.3349 50.0511 80.3349 49.4887C80.3349 48.9574 80.745 48.5238 81.2646 48.477C81.2958 48.4809 81.3271 48.4848 81.3583 48.4848C81.3896 48.4848 81.4169 48.477 81.4443 48.477C81.9638 48.5238 82.3739 48.9574 82.3739 49.4887C82.3739 50.0512 81.9168 50.5082 81.3544 50.5082ZM4.31937 41.348C3.75687 41.348 3.29987 40.8909 3.29987 40.3285C3.29987 39.766 3.7569 39.309 4.31937 39.309C4.88184 39.309 5.33887 39.766 5.33887 40.3285C5.33887 40.8909 4.88184 41.348 4.31937 41.348ZM64.6744 47.3753H28.2874C24.4007 47.3753 21.2405 44.2151 21.2405 40.3323C21.2405 36.4456 24.4007 33.2854 28.2874 33.2854C28.5335 33.2854 28.7717 33.2971 29.0139 33.3205C29.0374 33.3244 29.0569 33.3205 29.0803 33.3205C29.1077 33.3205 29.1311 33.3283 29.1585 33.3283C29.2053 33.3283 29.2483 33.3244 29.2952 33.3205H29.2991C29.3225 33.3166 29.346 33.3088 29.3694 33.3049C29.803 33.2385 30.1624 32.9807 30.3694 32.6252C30.3733 32.6174 30.3811 32.6096 30.385 32.5979C30.428 32.5197 30.4632 32.4377 30.4905 32.3518C30.4905 32.3479 30.4944 32.3479 30.4944 32.344C30.5217 32.2541 30.5413 32.1643 30.553 32.0666C30.5608 32.008 30.5569 31.9494 30.553 31.8947C30.553 31.8596 30.5569 31.8244 30.553 31.7893V31.7854V31.7815C30.5296 31.5158 30.5178 31.2424 30.5178 30.965C30.5178 24.9572 35.4006 20.07 41.4048 20.07C46.4126 20.07 50.7564 23.4567 51.9748 28.3044C51.9827 28.3396 51.9983 28.3669 52.01 28.4021C52.0256 28.449 52.0412 28.4958 52.0608 28.5388C52.0803 28.5779 52.0998 28.6169 52.1233 28.656C52.1467 28.6951 52.1702 28.738 52.1975 28.7771C52.2248 28.8122 52.2522 28.8474 52.2834 28.8826C52.3108 28.9177 52.342 28.949 52.3733 28.9802C52.4084 29.0115 52.4436 29.0427 52.4827 29.0701C52.5139 29.0935 52.5491 29.1208 52.5842 29.1443C52.6272 29.1716 52.6702 29.1912 52.7131 29.2146C52.7483 29.2341 52.7834 29.2498 52.8186 29.2654C52.8655 29.2849 52.9163 29.2966 52.967 29.3123C53.0022 29.324 53.0413 29.3318 53.0764 29.3396C53.1272 29.3513 53.1819 29.3513 53.2327 29.3552C53.2717 29.3591 53.3108 29.363 53.3499 29.363C53.4006 29.363 53.4514 29.3552 53.5022 29.3474C53.5334 29.3435 53.5686 29.3435 53.5999 29.3396C54.0413 29.2537 54.4905 29.2068 54.9358 29.2068C58.8186 29.2068 61.9788 32.367 61.9788 36.2498C61.9788 36.7928 61.9163 37.3357 61.7913 37.8631C61.7834 37.8904 61.7873 37.9139 61.7795 37.9373C61.7717 37.9881 61.7639 38.0389 61.76 38.0896C61.7561 38.1365 61.7561 38.1795 61.76 38.2225C61.76 38.2693 61.7639 38.3123 61.7717 38.3592C61.7795 38.41 61.7873 38.4568 61.7991 38.5076C61.8069 38.535 61.8069 38.5584 61.8147 38.5818C61.8186 38.5975 61.8264 38.6092 61.8342 38.6287C61.8498 38.6756 61.8694 38.7225 61.8928 38.7654C61.9123 38.8045 61.928 38.8436 61.9514 38.8826C61.9748 38.9217 62.0022 38.9607 62.0295 38.9959C62.0569 39.0311 62.0803 39.0662 62.1077 39.0975C62.1389 39.1326 62.1741 39.1678 62.2092 39.199C62.2405 39.2264 62.2678 39.2537 62.2991 39.2771C62.3381 39.3084 62.3811 39.3357 62.428 39.3631C62.4631 39.3826 62.4944 39.4061 62.5295 39.4217C62.5725 39.4451 62.6194 39.4607 62.6623 39.4764C62.7053 39.492 62.7483 39.5076 62.7913 39.5193C62.8069 39.5232 62.8225 39.5311 62.842 39.535C62.8655 39.5389 62.8889 39.5389 62.9123 39.5428C62.9748 39.5545 63.0334 39.5623 63.0959 39.5623C63.1194 39.5623 63.1389 39.5701 63.1623 39.5701C63.1858 39.5701 63.2092 39.5662 63.2327 39.5623C63.2639 39.5584 63.2952 39.5584 63.3303 39.5545C63.3889 39.5467 63.4475 39.535 63.5061 39.5193C63.5256 39.5154 63.5452 39.5154 63.5647 39.5076C63.9123 39.4021 64.2873 39.3514 64.678 39.3514C66.885 39.3514 68.678 41.1483 68.678 43.3514C68.678 45.578 66.8814 47.3753 64.6744 47.3753ZM84.1084 32.1563C83.5459 32.1563 83.0889 31.6992 83.0889 31.1368C83.0889 30.5743 83.5459 30.1173 84.1084 30.1173C84.6708 30.1173 85.1279 30.5743 85.1279 31.1368C85.124 31.6993 84.6669 32.1563 84.1084 32.1563Z" stroke="#52CEC7" mask="url(#path-1-outside-1_1457_7913)"/>
</svg>
