<svg width="92" height="93" viewBox="0 0 92 93" fill="none" xmlns="http://www.w3.org/2000/svg">
<path d="M18.539 92.7586C7.973 92.7586 0 87.6297 0 80.8286C0 76.4692 3.3789 72.6919 8.7891 70.6176L6.3555 67.7387V67.7426C4.3907 65.4067 3.0938 62.5824 2.6094 59.5707C2.12112 56.5551 2.45706 53.4691 3.58596 50.6332C4.58986 47.9574 6.30866 45.6098 8.55866 43.8441C10.8087 42.0824 13.4962 40.973 16.336 40.6332C17.0782 40.5434 17.8243 40.5004 18.5743 40.5004C21.6563 40.5043 24.672 41.4028 27.2579 43.0824C29.8399 44.766 31.8829 47.1566 33.1407 49.973C34.4845 52.8675 34.9727 56.0863 34.543 59.2503C34.1172 62.4105 32.793 65.387 30.7266 67.8206L28.336 70.6448C33.7149 72.7386 37.0743 76.5042 37.0743 80.8288C37.0782 87.6296 29.1052 92.7586 18.539 92.7586ZM13.1679 75.7976C8.8007 76.8523 6.2499 79.071 6.2499 80.8288C6.2499 83.1999 10.9257 86.5085 18.5389 86.5085C26.1521 86.5085 30.8279 83.2038 30.8279 80.8288C30.8279 79.0905 28.2967 76.8874 23.9724 75.8054L20.9607 79.364C20.3474 80.0359 19.4802 80.4148 18.574 80.4148C17.6638 80.4148 16.8006 80.0359 16.1873 79.364L13.1679 75.7976ZM18.7382 46.7506C18.1874 46.7467 17.6327 46.7741 17.082 46.8405C13.5781 47.2467 10.6015 49.5983 9.4023 52.9186C7.9492 56.5553 8.60933 60.6998 11.1289 63.7036L18.5742 72.5083L25.9531 63.7817C28.5937 60.6489 29.1758 56.27 27.4492 52.5547C25.9648 49.0742 22.5625 46.7969 18.7773 46.75L18.7382 46.7506ZM40.0349 72.6532C38.3122 72.6532 36.9099 71.2548 36.9099 69.5282C36.9099 67.8016 38.3122 66.4032 40.0349 66.4032C42.2849 66.4032 44.3865 65.2782 45.6326 63.4032C46.8787 61.5321 47.1014 59.161 46.2303 57.0868L39.5467 41.1608C37.8631 37.1569 38.2967 32.5749 40.7029 28.9618C43.1052 25.3446 47.1599 23.1727 51.5039 23.1727C53.2266 23.1727 54.6289 24.5711 54.6289 26.2977C54.6289 28.0204 53.2266 29.4227 51.5039 29.4227C49.2539 29.4227 47.1523 30.5477 45.9062 32.4188C44.6601 34.2938 44.4374 36.6649 45.3085 38.7391L51.996 54.6651H51.9921C53.6757 58.669 53.2421 63.2471 50.8359 66.8641C48.4336 70.4813 44.3789 72.6532 40.0349 72.6532ZM72.9999 52.2582C62.4299 52.2582 54.4609 47.1293 54.4609 40.3282C54.4609 35.9688 57.8398 32.1915 63.2539 30.1172L60.8203 27.2383V27.2422C58.8555 24.9063 57.5586 22.082 57.0703 19.0703C56.5859 16.0586 56.9219 12.9687 58.0508 10.1328C59.0547 7.45702 60.7735 5.10942 63.0235 3.34762C65.2735 1.58582 67.961 0.47262 70.8008 0.13672C71.543 0.0468772 72.2891 0 73.0391 0H73.3438V0.00390601C76.379 0.054687 79.3321 0.972656 81.8594 2.65231C84.3867 4.33201 86.3789 6.69921 87.6055 9.47261C88.9493 12.3671 89.4375 15.5859 89.0078 18.7499C88.582 21.914 87.2578 24.8866 85.1914 27.3202L82.8008 30.1444C88.1797 32.2382 91.5391 36.0038 91.5391 40.3284C91.5391 47.1292 83.5701 52.2582 72.9999 52.2582ZM67.6327 35.2972C63.2655 36.3519 60.7108 38.5706 60.7108 40.3284C60.7108 42.6995 65.3866 46.0081 72.9998 46.0081C80.613 46.0081 85.2888 42.7034 85.2888 40.3284C85.2888 38.5901 82.7576 36.387 78.4333 35.305L75.4255 38.8636V38.8675C74.8122 39.5355 73.945 39.9183 73.0388 39.9183C72.1286 39.9183 71.2654 39.5355 70.6521 38.8675L67.6327 35.2972ZM73.121 6.25021C72.5937 6.25021 72.0702 6.27756 71.5468 6.34006C68.0429 6.74631 65.0663 9.10176 63.8671 12.4182C62.414 16.0588 63.0741 20.2034 65.5937 23.2072L73.039 32.0119L80.4179 23.2853V23.2814C83.0585 20.1525 83.6406 15.7736 81.914 12.0584C80.4296 8.58175 77.0351 6.30445 73.2578 6.25365L73.121 6.25021ZM18.539 53.6212C17.3163 53.6212 16.2148 54.3556 15.7499 55.4845C15.2811 56.6134 15.539 57.9103 16.4022 58.7736C17.2655 59.6369 18.5624 59.8947 19.6913 59.4299C20.8202 58.9611 21.5546 57.8596 21.5546 56.6408C21.5546 55.84 21.2382 55.0705 20.6718 54.5041C20.1054 53.9377 19.3359 53.6212 18.539 53.6212ZM73 13.1212C71.7812 13.1212 70.6797 13.8595 70.2109 14.9845C69.7461 16.1134 70.0039 17.4142 70.8671 18.2775C71.7304 19.1408 73.0273 19.3986 74.1562 18.9299C75.2852 18.465 76.0195 17.3635 76.0195 16.1408C76.0195 15.34 75.7031 14.5744 75.1367 14.008C74.5703 13.4415 73.8008 13.1212 73 13.1212Z" fill="#52CEC7"/>
</svg>
